<?xml version="1.0" encoding="utf-8"?>
<!-- Generator: Adobe Illustrator 24.2.3, SVG Export Plug-In . SVG Version: 6.00 Build 0)  -->
<svg version="1.1" id="Layer_1" xmlns="http://www.w3.org/2000/svg" xmlns:xlink="http://www.w3.org/1999/xlink" x="0px" y="0px"
	 viewBox="0 0 750 500" style="enable-background:new 0 0 750 500;" xml:space="preserve">
<style type="text/css">
	.st0{fill:#F7DED0;stroke:#E8B099;stroke-miterlimit:10;}
	.st1{filter:url(#Adobe_OpacityMaskFilter);}
	.st2{fill:url(#SVGID_2_);}
	.st3{mask:url(#SVGID_1_);fill:#F7DED0;}
	.st4{filter:url(#Adobe_OpacityMaskFilter_1_);}
	.st5{fill:url(#SVGID_4_);}
	.st6{mask:url(#SVGID_3_);}
	.st7{fill:#F3CEB4;stroke:#DC916B;stroke-miterlimit:10;}
	.st8{opacity:0.6;fill:#F3CEB4;}
	.st9{fill:#DC916B;}
	.st10{opacity:0.8;fill:#F3CEB4;}
	.st11{filter:url(#Adobe_OpacityMaskFilter_2_);}
	.st12{fill:url(#SVGID_6_);}
	.st13{mask:url(#SVGID_5_);}
	.st14{fill:none;stroke:#DC916B;stroke-miterlimit:10;}
	.st15{fill:#B9B4B3;}
	.st16{fill:#7FC3EA;stroke:#2B7DBA;stroke-linecap:round;stroke-linejoin:round;stroke-miterlimit:10;}
	.st17{opacity:0.7;fill:#7FC3EA;}
	.st18{opacity:0.9;fill:#7FC3EA;}
	.st19{fill:#2B7DBA;}
	.st20{fill:none;stroke:#B9B4B3;stroke-linecap:round;stroke-linejoin:round;stroke-miterlimit:10;}
	.st21{fill:#E8B099;}
	.st22{fill:#F7DED0;}
</style>
<g>
	<path class="st0" d="M551.3,387.1c3-5.9-6.1-12.2-11.5-17.3c-5.5-5.1-7.7-7.9-11.6-12.4s-8.8-6.1-13.3-3.4V45.2h-60.3
		c0,0,3.3,28.4-20.1,39.3c-23.4,10.9-46.4,18.9-68.6,25.1c-22.2,6.2-42.9,5.4-58.2,35.2c-15.3,29.7-8,32.8-29.2,81.2
		c-21.2,48.4-28.3,65.6-44.8,96.3c-16.5,30.7-19.6,50.1-16.9,78.5c2.7,28.4,15.9,27.5,26.2,24.6c10.3-2.8,46.2,11.1,125.4,18.6
		c79.2,7.5,65.7-0.1,84.1,7s20.7,7.1,43.1-3.3c17.2-8,23.3-10.1,23.3-10.1s-4.7,3-3.6,6.4c1.1,3.5,14.5,9.4,22,3.9
		c4.9-3.6,15-13.8,8.1-20.7c0,0,11.6-8.7,2.3-19.6c0,0,2.3-2.1,1.9-6.6c-0.4-4.4-4.2-9.4-4.2-9.4S548.9,391.8,551.3,387.1z
		 M301.8,340.6c-0.4-14,17.6-25.7,34.1-65.2c6-14.3,16.5-40.8,16.5-40.8s0.1,11,1.9,60.4c1.8,49.4,12.8,70.3,12.8,70.3
		C314.2,341.2,301.8,340.6,301.8,340.6z"/>
	<defs>
		<filter id="Adobe_OpacityMaskFilter" filterUnits="userSpaceOnUse" x="231.5" y="121.7" width="276.2" height="318.5">
			<feColorMatrix  type="matrix" values="1 0 0 0 0  0 1 0 0 0  0 0 1 0 0  0 0 0 1 0"/>
		</filter>
	</defs>
	<mask maskUnits="userSpaceOnUse" x="231.5" y="121.7" width="276.2" height="318.5" id="SVGID_1_">
		<g class="st1">
			<linearGradient id="SVGID_2_" gradientUnits="userSpaceOnUse" x1="357.3162" y1="273.3332" x2="486.7336" y2="289.9024">
				<stop  offset="0.8887" style="stop-color:#FFFFFF"/>
				<stop  offset="0.9899" style="stop-color:#000000"/>
			</linearGradient>
			<path class="st2" d="M507.2,163.7c-0.1-0.3-0.1-0.6-0.2-0.9c0-0.1,0-0.2-0.1-0.2c0-0.2-0.1-0.3-0.1-0.5c0-0.1-0.1-0.2-0.1-0.3
				c0,0,0,0,0,0c0,0,0,0,0,0c0,0,0,0,0,0c-0.1-0.2-0.1-0.4-0.2-0.5c0-0.1-0.1-0.2-0.1-0.3c0,0,0,0,0-0.1c0-0.1-0.1-0.1-0.1-0.1l0,0
				c-0.1-0.2-0.2-0.4-0.3-0.5c0-0.1-0.1-0.2-0.1-0.3c-0.1-0.1-0.1-0.2-0.2-0.3c-0.1-0.1-0.1-0.2-0.2-0.3c-0.1-0.1-0.1-0.1-0.2-0.2
				c-0.1-0.2-0.2-0.3-0.4-0.4c0,0-0.1-0.1-0.1-0.1c-0.3-0.3-0.6-0.5-1-0.7c0,0,0,0-0.1,0c-0.4-0.2-0.8-0.3-1.2-0.4c0,0,0,0,0,0
				c-1.3-0.2-2.9,0-4.8,0.6c-12.6,4.1-26.6-12.9-46.3-25.7c-19.7-12.7-46.9-10.8-60.9-10.4c-10.5,0.3-17.1-0.9-19.4,0.5
				c-1.8-0.4-4-0.2-6.9,0.5c-8,2-13.8,8.3-18.1,11.1c-4.3,2.8-7.2,5.6-7.6,9c-0.5,4,5.5,8.2,12.9,7.1c0.4-0.1,0.9-0.1,1.3-0.2
				c0.1,0,0.2,0,0.4,0c0.3,0,0.5-0.1,0.8-0.1c0.1,0,0.3,0,0.4,0c0.2,0,0.5,0,0.7,0c0.1,0,0.2,0,0.4,0c0.2,0,0.4,0,0.6,0
				c0.1,0,0.2,0,0.3,0c0.2,0,0.4,0,0.6,0c0.1,0,0.2,0,0.2,0c0.2,0,0.4,0,0.5,0c0.1,0,0.1,0,0.2,0c0.2,0,0.4,0,0.5,0c0,0,0.1,0,0.1,0
				c0.2,0,0.4,0,0.5,0.1h0c0.5,0.1,0.9,0.2,1.2,0.2c0,0,0,0,0,0c0.1,0,0.2,0,0.2,0.1c0,0,0,0,0.1,0c0,0,0.1,0,0.1,0c0,0,0,0,0.1,0
				c0,0,0,0,0.1,0c0,0,0.1,0,0.1,0c0,0,0,0,0,0c-0.6,0.2-1.1,0.5-1.6,0.9c0,0-0.1,0-0.1,0.1c0,0,0,0,0,0l0,0c0,0,0,0-0.1,0.1
				c0,0,0,0,0,0c-0.2,0.2-0.4,0.3-0.6,0.5c0,0,0,0-0.1,0.1c-0.2,0.2-0.3,0.4-0.4,0.5c0,0,0,0.1-0.1,0.1c-0.1,0.2-0.2,0.4-0.3,0.6
				c0,0.1,0,0.2-0.1,0.2c-0.1,0.2-0.1,0.4-0.2,0.6c0,0.1,0,0.2,0,0.3c-3.4-0.8-5.6-0.3-6.5,0c-0.2,0.1-0.3,0.1-0.4,0.1l0,0
				c-0.1,0-0.1,0-0.2-0.1c-1.2-0.4-2.6-0.7-4.3-0.7l0,0c-4.7,0-9.7,2.4-14.7,7.4c-5.9,5.9-6.1,8.9-3.7,14.2
				c2.4,5.3,2.1,4.4-5.8,21.3c-7.9,16.8-26.6,52.2-37.8,78.2c-11.2,25.9-22.6,45-25,48.2c-10.3,13.4-15.1,18.7-21,23.3
				c-6,4.6-4.8,8.2-2.4,11.1c1.7,2,1.1,3.3,1.2,3.7c-3.4,1.8-5.7,4-4.3,10.2c1.6,7.2,4.7,16,3.6,25c-1.1,9-2,14,10,14.9
				c12,0.9,21.8-0.5,42.7,3.3c51.7,9.4,58.9,16.1,106.6,22.5s72.2,1,72.2,1c0.2-0.4,0.4-0.7,0.6-1.1c0.1-0.1,0.1-0.2,0.1-0.3
				c0.1-0.3,0.3-0.6,0.4-0.8c0-0.1,0.1-0.2,0.1-0.2c0.8-1.8,1.2-3.5,1.5-5.2c0,0,0,0,0,0c0,0,0,0,0,0c0.3-2.1,0.2-4.2,0-5.9
				c0.3-0.8,0.8-2.2,1.1-4c0,0,0,0,0,0c0.4-2.1,0.5-4.8,0.1-8c0,0-32.2-5.5-68-16.9c-1-0.3-2-0.6-3-0.9c-0.3-0.1-0.7-0.2-1-0.3
				c-0.7-0.2-1.4-0.5-2.1-0.7c-0.3-0.1-0.7-0.2-1-0.3c-2-0.6-4-1.3-6-1.9c-0.3-0.1-0.6-0.2-0.9-0.3c-0.7-0.2-1.4-0.5-2.2-0.7
				c-0.3-0.1-0.7-0.2-1-0.3c-2-0.6-4-1.2-6-1.9c-0.3-0.1-0.6-0.2-0.9-0.3c-0.7-0.2-1.4-0.4-2.2-0.7c-0.3-0.1-0.6-0.2-1-0.3
				c-0.9-0.3-1.8-0.6-2.7-0.8c-0.1,0-0.1,0-0.2-0.1c-1-0.3-1.9-0.6-2.9-0.9c-0.3-0.1-0.6-0.2-0.9-0.3c-0.7-0.2-1.4-0.4-2.1-0.6
				c-0.3-0.1-0.6-0.2-0.9-0.3c-0.9-0.3-1.8-0.5-2.6-0.8c-0.1,0-0.1,0-0.2-0.1c-0.9-0.3-1.9-0.6-2.8-0.9c-0.3-0.1-0.6-0.2-0.9-0.3
				c-0.7-0.2-1.3-0.4-2-0.6c-0.3-0.1-0.6-0.2-0.9-0.3c-0.8-0.2-1.5-0.5-2.3-0.7c-0.2,0-0.3-0.1-0.5-0.1c-0.9-0.3-1.7-0.5-2.6-0.8
				c-0.3-0.1-0.6-0.2-0.9-0.3c-0.6-0.2-1.2-0.4-1.8-0.5c-0.3-0.1-0.6-0.2-0.9-0.3c-0.7-0.2-1.4-0.4-2-0.6c-0.2-0.1-0.4-0.1-0.5-0.2
				c-0.8-0.2-1.6-0.5-2.4-0.7c-0.3-0.1-0.6-0.2-0.9-0.3c-0.5-0.2-1.1-0.3-1.6-0.4c-0.3-0.1-0.6-0.2-0.9-0.3
				c-0.6-0.2-1.1-0.3-1.7-0.5c-0.2-0.1-0.4-0.1-0.7-0.2c-0.7-0.2-1.4-0.4-2.1-0.6c-0.3-0.1-0.6-0.2-0.9-0.2
				c-0.4-0.1-0.9-0.2-1.3-0.4c-0.3-0.1-0.6-0.2-0.9-0.2c-0.5-0.1-0.9-0.2-1.4-0.4c-6.4-1.7-11.8-3-15.7-3.7
				c-0.8-0.1-1.6-0.3-2.3-0.4c0,0,0,0,0,0c-2.4-0.4-4.2-0.8-5.5-1.2c0,0,0,0,0,0c-0.1,0-0.3-0.1-0.4-0.1c0,0-0.1,0-0.1,0
				c-0.1,0-0.2-0.1-0.3-0.1c0,0-0.1,0-0.1,0c-0.1,0-0.2-0.1-0.3-0.1c0,0-0.1,0-0.1,0c-0.1,0-0.2-0.1-0.3-0.1c0,0-0.1,0-0.1,0
				c-0.1,0-0.2-0.1-0.2-0.1c0,0-0.1,0-0.1,0c-0.1,0-0.2-0.1-0.2-0.1c0,0,0,0-0.1,0c-0.1,0-0.1-0.1-0.2-0.1c0,0,0,0,0,0
				c-0.1,0-0.1-0.1-0.2-0.1c0,0,0,0,0,0c-0.3-0.2-0.6-0.4-0.8-0.6c0,0,0,0,0,0c0,0-0.1-0.1-0.1-0.1c0,0,0,0,0-0.1
				c0,0-0.1-0.1-0.1-0.1c0,0,0,0,0-0.1c0,0-0.1-0.1-0.1-0.1c0,0,0-0.1,0-0.1c0,0,0-0.1-0.1-0.1c0,0,0-0.1,0-0.1c0,0,0-0.1-0.1-0.1
				c0,0,0-0.1,0-0.1c0,0,0-0.1-0.1-0.1c0,0,0-0.1,0-0.1c0,0,0-0.1,0-0.1c0,0,0-0.1,0-0.1c0,0,0,0,0,0c0-0.3-0.1-0.7-0.3-1
				c-1.6-7.7-7.8-2.8-10.6-5.8c-0.6-0.6-1.5-1.2-2.5-1.6c0,0,0,0,0,0c-1.1-0.4-2.5-0.7-3.8-0.7c-0.1,0-0.2,0-0.3,0
				c-0.2,0-0.4,0-0.5,0c-0.1,0-0.3,0-0.4,0c-0.2,0-0.3,0-0.5,0.1c-0.2,0-0.3,0.1-0.4,0.1c-0.1,0-0.3,0.1-0.4,0.1
				c-0.2,0.1-0.5,0.2-0.7,0.2c-0.1,0-0.1,0.1-0.2,0.1c-0.1,0-0.1,0.1-0.2,0.1c-0.1-0.3-0.1-0.6-0.2-0.9c-0.5-2.2-1.4-4.2-2.4-5.6
				c0,0-0.1-0.1-0.1-0.1c-0.2-0.3-0.3-0.6-0.5-0.8c-4.2-7.3,2.8-18.1,8-26.7c4.5-7.5,11.5-16.5,18.2-29.7
				c12.8-25.1,35-68.3,40.1-77.7c5.1-9.4,3.7-7.3,9.3-9.9c1.8-0.9,3.3-1.7,4.5-2.3c0,0,0.3-0.1,0.9-0.4c0.3-0.1,0.6-0.3,1-0.6
				c0.4-0.2,0.8-0.5,1.2-0.8c0.2-0.2,0.5-0.3,0.7-0.5c0.6,0,1.7-0.1,3.1-0.6c1.4-0.4,3-1.3,4.7-2.8c0.1,0,0.2,0.1,0.2,0.1
				c0.1,0,0.1,0.1,0.2,0.1c0.1,0.1,0.2,0.1,0.3,0.2c0.1,0.1,0.2,0.1,0.3,0.2c0,0,0.1,0.1,0.1,0.1c0.1,0.1,0.2,0.1,0.3,0.2
				c0.1,0.1,0.2,0.1,0.3,0.2c0,0,0,0,0.1,0.1c0.1,0.1,0.3,0.2,0.4,0.3c0.1,0.1,0.1,0.1,0.2,0.2c0,0,0,0,0,0c0.2,0.1,0.3,0.3,0.4,0.4
				c0.1,0,0.1,0.1,0.2,0.1c0.2,0.2,0.3,0.3,0.5,0.5c0.1,0.1,0.1,0.1,0.2,0.2c0.1,0,0.1,0.1,0.2,0.2c1.3,1.3,2.5,2.7,3.9,4
				c3.3,2.9,1.1,7.1,2.7,16c1.6,8.9,1.9,24.8,2.7,29.6c0.1,0.3,0.1,0.6,0.2,1c0,0,0,0,0,0c0,0.1,0,0.1,0.1,0.2
				c0.1,0.3,0.1,0.6,0.2,0.9c0.2,0.7,0.4,1.3,0.7,1.7c0.2,0.5,0.4,0.8,0.5,1c0.1,0.2,0.2,0.4,0.2,0.4l0,0c1.9,4.1,4.7,8.9,5.8,14
				c1.6,7.6,4.4,21.8,9.9,30.7c5.5,8.9,25,24.3,30.9,24.8c7.2,0.6,7.7-7,14.9-13.3c0.2-0.2,0.4-0.4,0.6-0.6c0,0,0.1-0.1,0.1-0.1
				c0.2-0.2,0.4-0.4,0.6-0.7c0,0,0.1-0.1,0.1-0.1c0.2-0.2,0.4-0.5,0.6-0.8c0,0,0,0,0-0.1c0.2-0.3,0.4-0.5,0.5-0.8c0,0,0-0.1,0.1-0.1
				c0.2-0.3,0.3-0.6,0.5-0.9c0-0.1,0.1-0.1,0.1-0.2c0.2-0.3,0.3-0.6,0.5-0.9c0,0,0-0.1,0.1-0.1c0.2-0.3,0.3-0.7,0.5-1c0,0,0,0,0,0
				c0.2-0.4,0.3-0.7,0.5-1.1c0-0.1,0-0.1,0.1-0.2c0.2-0.4,0.3-0.7,0.4-1.1c0,0,0-0.1,0.1-0.1c0.3-0.8,0.6-1.5,0.9-2.3c0,0,0,0,0-0.1
				c0.1-0.4,0.3-0.8,0.4-1.2c0,0,0-0.1,0-0.1c0.5-1.6,1-3.3,1.4-4.8c0,0,0,0,0,0c0,0,0,0,0-0.1c0.1-0.4,0.2-0.9,0.3-1.3v0
				c0-0.1,0-0.1,0-0.2c0,0,0,0,0,0c0-0.1,0.1-0.2,0.1-0.4c0,0,0-0.1,0-0.1c0,0,0-0.1,0-0.1c0.1-0.2,0.1-0.4,0.1-0.7
				c0.8-3.5,1.4-7.7,2-12.3c0.1-0.9,0.2-1.9,0.3-2.8c0,0,0,0,0,0c0.1-0.5,0.1-0.9,0.2-1.4c0,0,0,0,0,0c0.1-0.5,0.1-0.9,0.1-1.4
				c0,0,0-0.1,0-0.1c0-0.5,0.1-0.9,0.1-1.4c0,0,0,0,0-0.1c0-0.5,0.1-0.9,0.1-1.4c0,0,0-0.1,0-0.1c0-0.5,0.1-1,0.1-1.4
				c0,0,0-0.1,0-0.1c0-0.5,0.1-1,0.1-1.4c0,0,0-0.1,0-0.1c0-0.5,0.1-0.9,0.1-1.4c0-0.1,0-0.1,0-0.2c0-0.5,0.1-0.9,0.1-1.4
				c0-0.1,0-0.1,0-0.2c0-0.5,0.1-1,0.1-1.4c0,0,0-0.1,0-0.1c0-0.5,0.1-0.9,0.1-1.4c0-0.1,0-0.1,0-0.2c0-0.5,0.1-0.9,0.1-1.4
				c0-0.1,0-0.1,0-0.2c0-0.5,0.1-0.9,0.1-1.4c0-0.1,0-0.2,0-0.2c0-0.5,0.1-0.9,0.1-1.4c0-0.1,0-0.2,0-0.2c0-0.5,0.1-0.9,0.1-1.4
				c0-0.1,0-0.1,0-0.2c0-0.5,0.1-0.9,0.1-1.4c0-0.1,0-0.1,0-0.2c0-0.5,0-0.9,0.1-1.4c0-0.1,0-0.2,0-0.2c0-0.5,0-0.9,0.1-1.4
				c0-0.1,0-0.2,0-0.2c0-0.5,0-0.9,0.1-1.4c0-0.1,0-0.2,0-0.3c0-0.5,0-0.9,0.1-1.4c0-0.1,0-0.2,0-0.3c0-0.5,0-0.9,0.1-1.4
				c0-0.1,0-0.2,0-0.2c0-0.5,0-0.9,0.1-1.4c0-0.1,0-0.2,0-0.3c0-0.4,0-0.9,0.1-1.3c0-0.1,0-0.2,0-0.3c0-0.4,0-0.9,0-1.3
				c0-0.1,0-0.2,0-0.3c0-0.4,0-0.9,0-1.3c0-0.1,0-0.2,0-0.3c0-0.4,0-0.8,0-1.2c0-0.1,0-0.2,0-0.3c0-0.4,0-0.8,0-1.2
				c0-0.1,0-0.2,0-0.3c0-0.4,0-0.8,0-1.2c0-0.1,0-0.3,0-0.4c0-0.4,0-0.8,0-1.1c0-0.1,0-0.3,0-0.4c0-0.4,0-0.7,0-1.1
				c0-0.1,0-0.3,0-0.4c0-0.4,0-0.7,0-1.1c0-0.1,0-0.3,0-0.4c0-0.4,0-0.7,0-1.1c0-0.1,0-0.2,0-0.3c0-0.4,0-0.7,0-1.1
				c0-0.1,0-0.2,0-0.4c0-0.4,0-0.7,0-1.1c0-0.1,0-0.2,0-0.4c0-0.4,0-0.7,0-1.1c0-0.1,0-0.2,0-0.3c0-0.4,0-0.7,0-1.1
				c0-0.1,0-0.2,0-0.3c0-0.3,0-0.7,0-1c0-0.1,0-0.3,0-0.4c0-0.3,0-0.6,0-0.9c0-0.1,0-0.3,0-0.4c0-0.3,0-0.6,0-0.8c0-0.2,0-0.3,0-0.5
				c0-0.3,0-0.5,0-0.8c0-0.1,0-0.3,0-0.4c0-0.3,0-0.6,0-0.8c0-0.1,0-0.2,0-0.3c0-0.3,0-0.6,0-0.9c0-0.1,0-0.2,0-0.3
				c0-0.3,0-0.6,0-0.9c0-0.1,0-0.2,0-0.3c0-0.3,0-0.6,0-0.8c0-0.1,0-0.2,0-0.3c0-0.3,0-0.5,0-0.8c0-0.1,0-0.3,0-0.4
				c0-0.2,0-0.4,0-0.6c0-0.1,0-0.2,0-0.4c0-0.2,0-0.4,0-0.6c0-0.2,0-0.3,0-0.5c0-0.2,0-0.3,0-0.5c0-0.5,0-1,0-1.5c0-0.1,0-0.2,0-0.3
				c0-0.4,0-0.8,0-1.1c0-0.7,0-1.3,0-1.8c0-0.4,0-0.8,0-1.1c0-0.1,0-0.2,0-0.4c0-0.2,0-0.5,0-0.7c0-0.1,0-0.3,0-0.4
				c0-0.2,0-0.4,0-0.6c0-0.1,0-0.3,0-0.4c0-0.2,0-0.5,0-0.7c0-0.2,0-0.4,0-0.6c0-0.1,0-0.2,0-0.4c0-0.2,0-0.4,0-0.6
				c0-0.1,0-0.1,0-0.2c0-0.2,0-0.4,0.1-0.6c0,0,0,0,0,0c0.2-1.8,0.4-3.2,0.6-4.5c0-0.2,0.1-0.3,0.1-0.5c0,0,0,0,0,0
				c0.5-3.1,0.9-5.4,0.5-8.7c0,0,0,0,0,0c0,0,0,0,0,0c-0.1-0.9-0.3-1.8-0.5-2.9c0,0,0,0,0,0c-0.1-0.2-0.1-0.4-0.2-0.7
				c-2.2-8.6-8-29.8-12.2-39.2c5.8,4.1,11.3,9.7,18.5,17.3c11.3,12.1,12.1,13.4,26.4,16.4C508.3,177.1,508.5,169.5,507.2,163.7z
				 M303,385.4c6.4-3.2,31.4,4.1,44.4,7.1c10.3,2.4,26.6,10.4,51,18.1c-31.2-3.7-63.7-8-78.9-11.1c-4.8-1.1-8.5-2.4-11.5-3.8
				c-4-2.1-7.3-4.7-10.2-7.6C299.7,387.1,301.5,386.1,303,385.4z M358.6,203.2c0.2-0.1,0.3-0.2,0.5-0.3
				C358.7,203.1,358.6,203.1,358.6,203.2z M412.3,142.5c0.3-0.5,0.7-0.8,1.1-1.1C412.9,141.8,412.5,142.2,412.3,142.5z M426.8,135.2
				c-6.8,1.8-10.6,4-12.8,5.7l-11.1,2.4c0,0,0,0,0,0c-0.1-0.1-0.1-0.2-0.2-0.2c0,0-0.1-0.1-0.1-0.1c-0.1-0.1-0.2-0.2-0.3-0.3
				c-0.1,0-0.1-0.1-0.2-0.1c-0.1-0.1-0.2-0.2-0.4-0.3c0,0-0.1-0.1-0.1-0.1c0,0,0,0,0,0c-1.3-0.9-3.4-1.9-6.8-2.3c0,0,0.1,0,0.1,0
				c-0.2,0-0.5-0.1-0.7-0.1c-3.4-0.4-5.8,0.5-7.4,1.5c0,0,0.1,0,0.1,0s0,0-0.1,0.1c-0.1,0-0.2,0.1-0.4,0.2c-0.4,0.2-0.8,0.6-1.4,1.2
				c-0.2,0.2-0.5,0.5-0.8,0.8c-6.1,0.4-10.5,0.1-13.6-0.5c-0.7-0.1-1.3-0.3-1.8-0.5c0,0-0.1,0-0.1,0c-0.2-0.1-0.5-0.1-0.7-0.2
				c0,0-0.1,0-0.1,0c-0.7-0.3-1.4-0.5-1.9-0.8c0,0,0,0-0.1,0c-0.2-0.1-0.3-0.2-0.4-0.3c0,0,0,0-0.1,0c-0.3-0.2-0.6-0.4-0.8-0.6
				c0,0,0,0,0,0c-0.1-0.1-0.2-0.2-0.3-0.3c0,0,0,0-0.1-0.1c-0.1-0.1-0.1-0.1-0.2-0.2c0,0,0,0-0.1-0.1c-0.2-0.2-0.3-0.3-0.4-0.5
				c0,0,0,0,0-0.1c0-0.1-0.1-0.1-0.1-0.2c0,0,0,0,0-0.1c0-0.1,0-0.1-0.1-0.2c0,0,0,0,0-0.1c0-0.1,0-0.1,0-0.2
				c-0.2-1.4,0.6-2.5,1.1-3c0.1,0,0.3,0.1,0.4,0.1c0.8,0.2,1.6,0.4,2.2,0.5c0.3,0.1,0.7,0.2,1,0.2c0.3,0,0.6,0.1,0.9,0.1
				c0.6,0.1,1.1,0.1,1.5,0.1c0.8,0,1.3,0,1.3,0s0,0,0,0c0.4,0,0.8,0.1,1.2,0.1c5.7,0.3,7.7-2.2,6.7-5.5c2.5,0.4,5.3,0.5,8.5,0.5
				c9.2,0,32.9-1,45.7,1.5C431.9,133.8,429.5,134.4,426.8,135.2z"/>
		</g>
	</mask>
	<path class="st3" d="M507.2,163.7c-0.1-0.3-0.1-0.6-0.2-0.9c0-0.1,0-0.2-0.1-0.2c0-0.2-0.1-0.3-0.1-0.5c0-0.1-0.1-0.2-0.1-0.3
		c0,0,0,0,0,0c0,0,0,0,0,0c0,0,0,0,0,0c-0.1-0.2-0.1-0.4-0.2-0.5c0-0.1-0.1-0.2-0.1-0.3c0,0,0,0,0-0.1c0-0.1-0.1-0.1-0.1-0.1l0,0
		c-0.1-0.2-0.2-0.4-0.3-0.5c0-0.1-0.1-0.2-0.1-0.3c-0.1-0.1-0.1-0.2-0.2-0.3c-0.1-0.1-0.1-0.2-0.2-0.3c-0.1-0.1-0.1-0.1-0.2-0.2
		c-0.1-0.2-0.2-0.3-0.4-0.4c0,0-0.1-0.1-0.1-0.1c-0.3-0.3-0.6-0.5-1-0.7c0,0,0,0-0.1,0c-0.4-0.2-0.8-0.3-1.2-0.4c0,0,0,0,0,0
		c-1.3-0.2-2.9,0-4.8,0.6c-12.6,4.1-26.6-12.9-46.3-25.7c-19.7-12.7-46.9-10.8-60.9-10.4c-10.5,0.3-17.1-0.9-19.4,0.5
		c-1.8-0.4-4-0.2-6.9,0.5c-8,2-13.8,8.3-18.1,11.1c-4.3,2.8-7.2,5.6-7.6,9c-0.5,4,5.5,8.2,12.9,7.1c0.4-0.1,0.9-0.1,1.3-0.2
		c0.1,0,0.2,0,0.4,0c0.3,0,0.5-0.1,0.8-0.1c0.1,0,0.3,0,0.4,0c0.2,0,0.5,0,0.7,0c0.1,0,0.2,0,0.4,0c0.2,0,0.4,0,0.6,0
		c0.1,0,0.2,0,0.3,0c0.2,0,0.4,0,0.6,0c0.1,0,0.2,0,0.2,0c0.2,0,0.4,0,0.5,0c0.1,0,0.1,0,0.2,0c0.2,0,0.4,0,0.5,0c0,0,0.1,0,0.1,0
		c0.2,0,0.4,0,0.5,0.1h0c0.5,0.1,0.9,0.2,1.2,0.2c0,0,0,0,0,0c0.1,0,0.2,0,0.2,0.1c0,0,0,0,0.1,0c0,0,0.1,0,0.1,0c0,0,0,0,0.1,0
		c0,0,0,0,0.1,0c0,0,0.1,0,0.1,0c0,0,0,0,0,0c-0.6,0.2-1.1,0.5-1.6,0.9c0,0-0.1,0-0.1,0.1c0,0,0,0,0,0l0,0c0,0,0,0-0.1,0.1
		c0,0,0,0,0,0c-0.2,0.2-0.4,0.3-0.6,0.5c0,0,0,0-0.1,0.1c-0.2,0.2-0.3,0.4-0.4,0.5c0,0,0,0.1-0.1,0.1c-0.1,0.2-0.2,0.4-0.3,0.6
		c0,0.1,0,0.2-0.1,0.2c-0.1,0.2-0.1,0.4-0.2,0.6c0,0.1,0,0.2,0,0.3c-3.4-0.8-5.6-0.3-6.5,0c-0.2,0.1-0.3,0.1-0.4,0.1l0,0
		c-0.1,0-0.1,0-0.2-0.1c-1.2-0.4-2.6-0.7-4.3-0.7l0,0c-4.7,0-9.7,2.4-14.7,7.4c-5.9,5.9-6.1,8.9-3.7,14.2c2.4,5.3,2.1,4.4-5.8,21.3
		c-7.9,16.8-26.6,52.2-37.8,78.2c-11.2,25.9-22.6,45-25,48.2c-10.3,13.4-15.1,18.7-21,23.3c-6,4.6-4.8,8.2-2.4,11.1
		c1.7,2,1.1,3.3,1.2,3.7c-3.4,1.8-5.7,4-4.3,10.2c1.6,7.2,4.7,16,3.6,25c-1.1,9-2,14,10,14.9c12,0.9,21.8-0.5,42.7,3.3
		c51.7,9.4,58.9,16.1,106.6,22.5s72.2,1,72.2,1c0.2-0.4,0.4-0.7,0.6-1.1c0.1-0.1,0.1-0.2,0.1-0.3c0.1-0.3,0.3-0.6,0.4-0.8
		c0-0.1,0.1-0.2,0.1-0.2c0.8-1.8,1.2-3.5,1.5-5.2c0,0,0,0,0,0c0,0,0,0,0,0c0.3-2.1,0.2-4.2,0-5.9c0.3-0.8,0.8-2.2,1.1-4c0,0,0,0,0,0
		c0.4-2.1,0.5-4.8,0.1-8c0,0-32.2-5.5-68-16.9c-1-0.3-2-0.6-3-0.9c-0.3-0.1-0.7-0.2-1-0.3c-0.7-0.2-1.4-0.5-2.1-0.7
		c-0.3-0.1-0.7-0.2-1-0.3c-2-0.6-4-1.3-6-1.9c-0.3-0.1-0.6-0.2-0.9-0.3c-0.7-0.2-1.4-0.5-2.2-0.7c-0.3-0.1-0.7-0.2-1-0.3
		c-2-0.6-4-1.2-6-1.9c-0.3-0.1-0.6-0.2-0.9-0.3c-0.7-0.2-1.4-0.4-2.2-0.7c-0.3-0.1-0.6-0.2-1-0.3c-0.9-0.3-1.8-0.6-2.7-0.8
		c-0.1,0-0.1,0-0.2-0.1c-1-0.3-1.9-0.6-2.9-0.9c-0.3-0.1-0.6-0.2-0.9-0.3c-0.7-0.2-1.4-0.4-2.1-0.6c-0.3-0.1-0.6-0.2-0.9-0.3
		c-0.9-0.3-1.8-0.5-2.6-0.8c-0.1,0-0.1,0-0.2-0.1c-0.9-0.3-1.9-0.6-2.8-0.9c-0.3-0.1-0.6-0.2-0.9-0.3c-0.7-0.2-1.3-0.4-2-0.6
		c-0.3-0.1-0.6-0.2-0.9-0.3c-0.8-0.2-1.5-0.5-2.3-0.7c-0.2,0-0.3-0.1-0.5-0.1c-0.9-0.3-1.7-0.5-2.6-0.8c-0.3-0.1-0.6-0.2-0.9-0.3
		c-0.6-0.2-1.2-0.4-1.8-0.5c-0.3-0.1-0.6-0.2-0.9-0.3c-0.7-0.2-1.4-0.4-2-0.6c-0.2-0.1-0.4-0.1-0.5-0.2c-0.8-0.2-1.6-0.5-2.4-0.7
		c-0.3-0.1-0.6-0.2-0.9-0.3c-0.5-0.2-1.1-0.3-1.6-0.4c-0.3-0.1-0.6-0.2-0.9-0.3c-0.6-0.2-1.1-0.3-1.7-0.5c-0.2-0.1-0.4-0.1-0.7-0.2
		c-0.7-0.2-1.4-0.4-2.1-0.6c-0.3-0.1-0.6-0.2-0.9-0.2c-0.4-0.1-0.9-0.2-1.3-0.4c-0.3-0.1-0.6-0.2-0.9-0.2c-0.5-0.1-0.9-0.2-1.4-0.4
		c-6.4-1.7-11.8-3-15.7-3.7c-0.8-0.1-1.6-0.3-2.3-0.4c0,0,0,0,0,0c-2.4-0.4-4.2-0.8-5.5-1.2c0,0,0,0,0,0c-0.1,0-0.3-0.1-0.4-0.1
		c0,0-0.1,0-0.1,0c-0.1,0-0.2-0.1-0.3-0.1c0,0-0.1,0-0.1,0c-0.1,0-0.2-0.1-0.3-0.1c0,0-0.1,0-0.1,0c-0.1,0-0.2-0.1-0.3-0.1
		c0,0-0.1,0-0.1,0c-0.1,0-0.2-0.1-0.2-0.1c0,0-0.1,0-0.1,0c-0.1,0-0.2-0.1-0.2-0.1c0,0,0,0-0.1,0c-0.1,0-0.1-0.1-0.2-0.1
		c0,0,0,0,0,0c-0.1,0-0.1-0.1-0.2-0.1c0,0,0,0,0,0c-0.3-0.2-0.6-0.4-0.8-0.6c0,0,0,0,0,0c0,0-0.1-0.1-0.1-0.1c0,0,0,0,0-0.1
		c0,0-0.1-0.1-0.1-0.1c0,0,0,0,0-0.1c0,0-0.1-0.1-0.1-0.1c0,0,0-0.1,0-0.1c0,0,0-0.1-0.1-0.1c0,0,0-0.1,0-0.1c0,0,0-0.1-0.1-0.1
		c0,0,0-0.1,0-0.1c0,0,0-0.1-0.1-0.1c0,0,0-0.1,0-0.1c0,0,0-0.1,0-0.1c0,0,0-0.1,0-0.1c0,0,0,0,0,0c0-0.3-0.1-0.7-0.3-1
		c-1.6-7.7-7.8-2.8-10.6-5.8c-0.6-0.6-1.5-1.2-2.5-1.6c0,0,0,0,0,0c-1.1-0.4-2.5-0.7-3.8-0.7c-0.1,0-0.2,0-0.3,0c-0.2,0-0.4,0-0.5,0
		c-0.1,0-0.3,0-0.4,0c-0.2,0-0.3,0-0.5,0.1c-0.2,0-0.3,0.1-0.4,0.1c-0.1,0-0.3,0.1-0.4,0.1c-0.2,0.1-0.5,0.2-0.7,0.2
		c-0.1,0-0.1,0.1-0.2,0.1c-0.1,0-0.1,0.1-0.2,0.1c-0.1-0.3-0.1-0.6-0.2-0.9c-0.5-2.2-1.4-4.2-2.4-5.6c0,0-0.1-0.1-0.1-0.1
		c-0.2-0.3-0.3-0.6-0.5-0.8c-4.2-7.3,2.8-18.1,8-26.7c4.5-7.5,11.5-16.5,18.2-29.7c12.8-25.1,35-68.3,40.1-77.7
		c5.1-9.4,3.7-7.3,9.3-9.9c1.8-0.9,3.3-1.7,4.5-2.3c0,0,0.3-0.1,0.9-0.4c0.3-0.1,0.6-0.3,1-0.6c0.4-0.2,0.8-0.5,1.2-0.8
		c0.2-0.2,0.5-0.3,0.7-0.5c0.6,0,1.7-0.1,3.1-0.6c1.4-0.4,3-1.3,4.7-2.8c0.1,0,0.2,0.1,0.2,0.1c0.1,0,0.1,0.1,0.2,0.1
		c0.1,0.1,0.2,0.1,0.3,0.2c0.1,0.1,0.2,0.1,0.3,0.2c0,0,0.1,0.1,0.1,0.1c0.1,0.1,0.2,0.1,0.3,0.2c0.1,0.1,0.2,0.1,0.3,0.2
		c0,0,0,0,0.1,0.1c0.1,0.1,0.3,0.2,0.4,0.3c0.1,0.1,0.1,0.1,0.2,0.2c0,0,0,0,0,0c0.2,0.1,0.3,0.3,0.4,0.4c0.1,0,0.1,0.1,0.2,0.1
		c0.2,0.2,0.3,0.3,0.5,0.5c0.1,0.1,0.1,0.1,0.2,0.2c0.1,0,0.1,0.1,0.2,0.2c1.3,1.3,2.5,2.7,3.9,4c3.3,2.9,1.1,7.1,2.7,16
		c1.6,8.9,1.9,24.8,2.7,29.6c0.1,0.3,0.1,0.6,0.2,1c0,0,0,0,0,0c0,0.1,0,0.1,0.1,0.2c0.1,0.3,0.1,0.6,0.2,0.9
		c0.2,0.7,0.4,1.3,0.7,1.7c0.2,0.5,0.4,0.8,0.5,1c0.1,0.2,0.2,0.4,0.2,0.4l0,0c1.9,4.1,4.7,8.9,5.8,14c1.6,7.6,4.4,21.8,9.9,30.7
		c5.5,8.9,25,24.3,30.9,24.8c7.2,0.6,7.7-7,14.9-13.3c0.2-0.2,0.4-0.4,0.6-0.6c0,0,0.1-0.1,0.1-0.1c0.2-0.2,0.4-0.4,0.6-0.7
		c0,0,0.1-0.1,0.1-0.1c0.2-0.2,0.4-0.5,0.6-0.8c0,0,0,0,0-0.1c0.2-0.3,0.4-0.5,0.5-0.8c0,0,0-0.1,0.1-0.1c0.2-0.3,0.3-0.6,0.5-0.9
		c0-0.1,0.1-0.1,0.1-0.2c0.2-0.3,0.3-0.6,0.5-0.9c0,0,0-0.1,0.1-0.1c0.2-0.3,0.3-0.7,0.5-1c0,0,0,0,0,0c0.2-0.4,0.3-0.7,0.5-1.1
		c0-0.1,0-0.1,0.1-0.2c0.2-0.4,0.3-0.7,0.4-1.1c0,0,0-0.1,0.1-0.1c0.3-0.8,0.6-1.5,0.9-2.3c0,0,0,0,0-0.1c0.1-0.4,0.3-0.8,0.4-1.2
		c0,0,0-0.1,0-0.1c0.5-1.6,1-3.3,1.4-4.8c0,0,0,0,0,0c0,0,0,0,0-0.1c0.1-0.4,0.2-0.9,0.3-1.3v0c0-0.1,0-0.1,0-0.2c0,0,0,0,0,0
		c0-0.1,0.1-0.2,0.1-0.4c0,0,0-0.1,0-0.1c0,0,0-0.1,0-0.1c0.1-0.2,0.1-0.4,0.1-0.7c0.8-3.5,1.4-7.7,2-12.3c0.1-0.9,0.2-1.9,0.3-2.8
		c0,0,0,0,0,0c0.1-0.5,0.1-0.9,0.2-1.4c0,0,0,0,0,0c0.1-0.5,0.1-0.9,0.1-1.4c0,0,0-0.1,0-0.1c0-0.5,0.1-0.9,0.1-1.4c0,0,0,0,0-0.1
		c0-0.5,0.1-0.9,0.1-1.4c0,0,0-0.1,0-0.1c0-0.5,0.1-1,0.1-1.4c0,0,0-0.1,0-0.1c0-0.5,0.1-1,0.1-1.4c0,0,0-0.1,0-0.1
		c0-0.5,0.1-0.9,0.1-1.4c0-0.1,0-0.1,0-0.2c0-0.5,0.1-0.9,0.1-1.4c0-0.1,0-0.1,0-0.2c0-0.5,0.1-1,0.1-1.4c0,0,0-0.1,0-0.1
		c0-0.5,0.1-0.9,0.1-1.4c0-0.1,0-0.1,0-0.2c0-0.5,0.1-0.9,0.1-1.4c0-0.1,0-0.1,0-0.2c0-0.5,0.1-0.9,0.1-1.4c0-0.1,0-0.2,0-0.2
		c0-0.5,0.1-0.9,0.1-1.4c0-0.1,0-0.2,0-0.2c0-0.5,0.1-0.9,0.1-1.4c0-0.1,0-0.1,0-0.2c0-0.5,0.1-0.9,0.1-1.4c0-0.1,0-0.1,0-0.2
		c0-0.5,0-0.9,0.1-1.4c0-0.1,0-0.2,0-0.2c0-0.5,0-0.9,0.1-1.4c0-0.1,0-0.2,0-0.2c0-0.5,0-0.9,0.1-1.4c0-0.1,0-0.2,0-0.3
		c0-0.5,0-0.9,0.1-1.4c0-0.1,0-0.2,0-0.3c0-0.5,0-0.9,0.1-1.4c0-0.1,0-0.2,0-0.2c0-0.5,0-0.9,0.1-1.4c0-0.1,0-0.2,0-0.3
		c0-0.4,0-0.9,0.1-1.3c0-0.1,0-0.2,0-0.3c0-0.4,0-0.9,0-1.3c0-0.1,0-0.2,0-0.3c0-0.4,0-0.9,0-1.3c0-0.1,0-0.2,0-0.3
		c0-0.4,0-0.8,0-1.2c0-0.1,0-0.2,0-0.3c0-0.4,0-0.8,0-1.2c0-0.1,0-0.2,0-0.3c0-0.4,0-0.8,0-1.2c0-0.1,0-0.3,0-0.4c0-0.4,0-0.8,0-1.1
		c0-0.1,0-0.3,0-0.4c0-0.4,0-0.7,0-1.1c0-0.1,0-0.3,0-0.4c0-0.4,0-0.7,0-1.1c0-0.1,0-0.3,0-0.4c0-0.4,0-0.7,0-1.1c0-0.1,0-0.2,0-0.3
		c0-0.4,0-0.7,0-1.1c0-0.1,0-0.2,0-0.4c0-0.4,0-0.7,0-1.1c0-0.1,0-0.2,0-0.4c0-0.4,0-0.7,0-1.1c0-0.1,0-0.2,0-0.3c0-0.4,0-0.7,0-1.1
		c0-0.1,0-0.2,0-0.3c0-0.3,0-0.7,0-1c0-0.1,0-0.3,0-0.4c0-0.3,0-0.6,0-0.9c0-0.1,0-0.3,0-0.4c0-0.3,0-0.6,0-0.8c0-0.2,0-0.3,0-0.5
		c0-0.3,0-0.5,0-0.8c0-0.1,0-0.3,0-0.4c0-0.3,0-0.6,0-0.8c0-0.1,0-0.2,0-0.3c0-0.3,0-0.6,0-0.9c0-0.1,0-0.2,0-0.3c0-0.3,0-0.6,0-0.9
		c0-0.1,0-0.2,0-0.3c0-0.3,0-0.6,0-0.8c0-0.1,0-0.2,0-0.3c0-0.3,0-0.5,0-0.8c0-0.1,0-0.3,0-0.4c0-0.2,0-0.4,0-0.6c0-0.1,0-0.2,0-0.4
		c0-0.2,0-0.4,0-0.6c0-0.2,0-0.3,0-0.5c0-0.2,0-0.3,0-0.5c0-0.5,0-1,0-1.5c0-0.1,0-0.2,0-0.3c0-0.4,0-0.8,0-1.1c0-0.7,0-1.3,0-1.8
		c0-0.4,0-0.8,0-1.1c0-0.1,0-0.2,0-0.4c0-0.2,0-0.5,0-0.7c0-0.1,0-0.3,0-0.4c0-0.2,0-0.4,0-0.6c0-0.1,0-0.3,0-0.4c0-0.2,0-0.5,0-0.7
		c0-0.2,0-0.4,0-0.6c0-0.1,0-0.2,0-0.4c0-0.2,0-0.4,0-0.6c0-0.1,0-0.1,0-0.2c0-0.2,0-0.4,0.1-0.6c0,0,0,0,0,0
		c0.2-1.8,0.4-3.2,0.6-4.5c0-0.2,0.1-0.3,0.1-0.5c0,0,0,0,0,0c0.5-3.1,0.9-5.4,0.5-8.7c0,0,0,0,0,0c0,0,0,0,0,0
		c-0.1-0.9-0.3-1.8-0.5-2.9c0,0,0,0,0,0c-0.1-0.2-0.1-0.4-0.2-0.7c-2.2-8.6-8-29.8-12.2-39.2c5.8,4.1,11.3,9.7,18.5,17.3
		c11.3,12.1,12.1,13.4,26.4,16.4C508.3,177.1,508.5,169.5,507.2,163.7z M303,385.4c6.4-3.2,31.4,4.1,44.4,7.1
		c10.3,2.4,26.6,10.4,51,18.1c-31.2-3.7-63.7-8-78.9-11.1c-4.8-1.1-8.5-2.4-11.5-3.8c-4-2.1-7.3-4.7-10.2-7.6
		C299.7,387.1,301.5,386.1,303,385.4z M358.6,203.2c0.2-0.1,0.3-0.2,0.5-0.3C358.7,203.1,358.6,203.1,358.6,203.2z M412.3,142.5
		c0.3-0.5,0.7-0.8,1.1-1.1C412.9,141.8,412.5,142.2,412.3,142.5z M426.8,135.2c-6.8,1.8-10.6,4-12.8,5.7l-11.1,2.4c0,0,0,0,0,0
		c-0.1-0.1-0.1-0.2-0.2-0.2c0,0-0.1-0.1-0.1-0.1c-0.1-0.1-0.2-0.2-0.3-0.3c-0.1,0-0.1-0.1-0.2-0.1c-0.1-0.1-0.2-0.2-0.4-0.3
		c0,0-0.1-0.1-0.1-0.1c0,0,0,0,0,0c-1.3-0.9-3.4-1.9-6.8-2.3c0,0,0.1,0,0.1,0c-0.2,0-0.5-0.1-0.7-0.1c-3.4-0.4-5.8,0.5-7.4,1.5
		c0,0,0.1,0,0.1,0s0,0-0.1,0.1c-0.1,0-0.2,0.1-0.4,0.2c-0.4,0.2-0.8,0.6-1.4,1.2c-0.2,0.2-0.5,0.5-0.8,0.8
		c-6.1,0.4-10.5,0.1-13.6-0.5c-0.7-0.1-1.3-0.3-1.8-0.5c0,0-0.1,0-0.1,0c-0.2-0.1-0.5-0.1-0.7-0.2c0,0-0.1,0-0.1,0
		c-0.7-0.3-1.4-0.5-1.9-0.8c0,0,0,0-0.1,0c-0.2-0.1-0.3-0.2-0.4-0.3c0,0,0,0-0.1,0c-0.3-0.2-0.6-0.4-0.8-0.6c0,0,0,0,0,0
		c-0.1-0.1-0.2-0.2-0.3-0.3c0,0,0,0-0.1-0.1c-0.1-0.1-0.1-0.1-0.2-0.2c0,0,0,0-0.1-0.1c-0.2-0.2-0.3-0.3-0.4-0.5c0,0,0,0,0-0.1
		c0-0.1-0.1-0.1-0.1-0.2c0,0,0,0,0-0.1c0-0.1,0-0.1-0.1-0.2c0,0,0,0,0-0.1c0-0.1,0-0.1,0-0.2c-0.2-1.4,0.6-2.5,1.1-3
		c0.1,0,0.3,0.1,0.4,0.1c0.8,0.2,1.6,0.4,2.2,0.5c0.3,0.1,0.7,0.2,1,0.2c0.3,0,0.6,0.1,0.9,0.1c0.6,0.1,1.1,0.1,1.5,0.1
		c0.8,0,1.3,0,1.3,0s0,0,0,0c0.4,0,0.8,0.1,1.2,0.1c5.7,0.3,7.7-2.2,6.7-5.5c2.5,0.4,5.3,0.5,8.5,0.5c9.2,0,32.9-1,45.7,1.5
		C431.9,133.8,429.5,134.4,426.8,135.2z"/>
	<g>
		<defs>
			<filter id="Adobe_OpacityMaskFilter_1_" filterUnits="userSpaceOnUse" x="228.4" y="347.3" width="239.3" height="90.8">
				<feColorMatrix  type="matrix" values="1 0 0 0 0  0 1 0 0 0  0 0 1 0 0  0 0 0 1 0"/>
			</filter>
		</defs>
		<mask maskUnits="userSpaceOnUse" x="228.4" y="347.3" width="239.3" height="90.8" id="SVGID_3_">
			<g class="st4">
				<linearGradient id="SVGID_4_" gradientUnits="userSpaceOnUse" x1="230.7119" y1="373.7328" x2="465.5654" y2="427.9815">
					<stop  offset="0.904" style="stop-color:#FFFFFF"/>
					<stop  offset="0.9124" style="stop-color:#F8F8F8"/>
					<stop  offset="0.9248" style="stop-color:#E3E3E3"/>
					<stop  offset="0.9398" style="stop-color:#C2C2C2"/>
					<stop  offset="0.9568" style="stop-color:#949494"/>
					<stop  offset="0.9755" style="stop-color:#595959"/>
					<stop  offset="0.9952" style="stop-color:#121212"/>
					<stop  offset="1" style="stop-color:#000000"/>
				</linearGradient>
				<path class="st5" d="M467.1,427.8c0.7-5.4-0.9-10.1-1.5-11.7c0,0,0,0,0,0c-0.1-0.2-0.2-0.4-0.2-0.5c0,0,0,0,0,0c0,0,0-0.1,0-0.1
					c-21.6-1.9-118.6-12.7-148.5-18.7c-4.8-1.1-8.5-2.4-11.5-3.8c-18.9-9.7-22.9-32.2-35.7-40.9c-14.8-10.1-25.3,0.1-30.8,3.6
					c-5.5,3.5-11.4,3.8-9.4,13c1.6,7.2,4.7,16,3.6,25c-1.1,9-2,14,10,14.9c12,0.9,21.8-0.5,42.7,3.3c51.7,9.4,58.9,16.1,106.6,22.5
					c47.7,6.4,72.2,1,72.2,1c0.2-0.4,0.4-0.7,0.6-1.1c0.1-0.1,0.1-0.2,0.1-0.3c0.1-0.3,0.3-0.6,0.4-0.8c0-0.1,0.1-0.2,0.1-0.2
					C466.4,431.3,466.8,429.5,467.1,427.8C467.1,427.8,467.1,427.8,467.1,427.8C467.1,427.8,467.1,427.8,467.1,427.8z"/>
			</g>
		</mask>
		<g class="st6">
			<path class="st7" d="M229.3,368.7c-2-9.2,3.9-9.5,9.4-13c5.5-3.5,16-13.7,30.8-3.6c14.8,10.1,17.8,38.5,45.7,44.4
				c27.9,5.9,128.1,17.1,150.1,19c0,0,4.9,10.5-1,19.9c0,0-24.5,5.4-72.2-1c-47.7-6.4-54.9-13.1-106.6-22.5
				c-20.9-3.8-30.7-2.4-42.7-3.3c-12-0.9-11.1-5.9-10-14.9C234,384.7,230.9,376,229.3,368.7z"/>
			<path class="st8" d="M229.3,368.7c-2-9.2,3.9-9.5,9.4-13c5.5-3.5,16-13.7,30.8-3.6c14.8,10.1,17.8,38.5,45.7,44.4
				c27.9,5.9,128.1,17.1,150.1,19c0,0,4.9,10.5-1,19.9c0,0-24.5,5.4-72.2-1c-47.7-6.4-54.9-13.1-106.6-22.5
				c-20.9-3.8-30.7-2.4-42.7-3.3c-12-0.9-11.1-5.9-10-14.9C234,384.7,230.9,376,229.3,368.7z"/>
			<g>
				<g>
					<path class="st9" d="M234.5,365.3c0,0-0.1,0.5-0.3,1.4c-0.2,0.9-0.3,2.2-0.4,3.8c0,0.8,0,1.7,0.1,2.6c0.1,0.9,0.2,1.8,0.5,2.8
						c0.2,1,0.5,1.9,0.9,2.9c0.4,0.9,0.9,1.9,1.4,2.7c0.3,0.5,0.6,0.9,0.9,1.3c0.3,0.4,0.6,0.8,1,1.2c0.4,0.4,0.7,0.7,1.1,1.1
						c0.4,0.3,0.7,0.7,1.1,1c0.4,0.3,0.8,0.6,1.1,0.9c0.4,0.3,0.8,0.5,1.1,0.8c0.8,0.4,1.5,0.9,2.1,1.2c0.3,0.2,0.7,0.3,1,0.5
						c0.3,0.1,0.6,0.3,0.9,0.4c0.6,0.3,1.1,0.5,1.5,0.6c0.8,0.3,1.3,0.5,1.3,0.5s-0.5-0.1-1.4-0.4c-0.4-0.1-0.9-0.3-1.5-0.5
						c-0.3-0.1-0.6-0.2-0.9-0.3c-0.3-0.1-0.7-0.3-1-0.4c-0.7-0.3-1.4-0.7-2.2-1.1c-0.4-0.2-0.8-0.5-1.2-0.7
						c-0.4-0.3-0.8-0.6-1.2-0.9c-0.4-0.3-0.8-0.6-1.1-1c-0.4-0.3-0.7-0.7-1.1-1.1c-0.3-0.4-0.7-0.8-1-1.2c-0.3-0.4-0.7-0.8-0.9-1.3
						c-0.6-0.9-1-1.9-1.4-2.9c-0.4-1-0.7-2-0.9-3c-0.2-1-0.3-2-0.4-2.9c-0.1-0.9,0-1.8,0-2.6c0.1-1.6,0.4-2.9,0.6-3.8
						C234.3,365.8,234.5,365.3,234.5,365.3z"/>
				</g>
				<g>
					<path class="st9" d="M236.4,363.9c0,0,0,0.2,0,0.5c0,0.3,0.1,0.8,0.2,1.3c0.1,0.3,0.1,0.6,0.2,0.9c0.1,0.3,0.2,0.7,0.3,1.1
						c0.1,0.4,0.3,0.8,0.5,1.2c0.2,0.4,0.4,0.8,0.6,1.2c0.3,0.4,0.5,0.8,0.8,1.3c0.3,0.4,0.6,0.8,1,1.2c0.7,0.8,1.6,1.5,2.6,2.2
						c0.5,0.3,1,0.6,1.5,0.9c0.6,0.2,1.1,0.5,1.7,0.7c0.6,0.2,1.2,0.4,1.8,0.6c0.6,0.2,1.2,0.3,1.8,0.4l0.9,0.2l0.9,0.2
						c0.6,0.1,1.2,0.2,1.8,0.3c0.6,0.1,1.2,0.2,1.8,0.3c0.6,0.1,1.2,0.3,1.8,0.5c0.6,0.2,1.1,0.3,1.7,0.5c0.3,0.1,0.5,0.2,0.8,0.2
						c0.3,0.1,0.5,0.2,0.8,0.3c0.5,0.2,1,0.4,1.5,0.6c0.2,0.1,0.5,0.2,0.7,0.3c0.2,0.1,0.4,0.2,0.7,0.3c0.9,0.4,1.7,0.8,2.3,1.3
						c0.7,0.4,1.2,0.8,1.7,1.2c0.4,0.3,0.8,0.7,1,0.9c0.1,0.1,0.2,0.2,0.2,0.3c0,0.1,0.1,0.1,0.1,0.1s0,0-0.1-0.1
						c-0.1-0.1-0.1-0.1-0.2-0.2c-0.1-0.1-0.3-0.2-0.4-0.4c-0.2-0.1-0.4-0.3-0.6-0.4c-0.4-0.4-1-0.7-1.7-1.1
						c-0.2-0.1-0.3-0.2-0.5-0.3c-0.2-0.1-0.4-0.2-0.6-0.3c-0.4-0.2-0.8-0.4-1.2-0.6c-0.2-0.1-0.4-0.2-0.7-0.3
						c-0.2-0.1-0.5-0.2-0.7-0.2c-0.5-0.2-1-0.3-1.5-0.5c-0.3-0.1-0.5-0.2-0.8-0.3c-0.3-0.1-0.5-0.1-0.8-0.2
						c-0.5-0.1-1.1-0.3-1.7-0.4c-0.6-0.1-1.1-0.3-1.7-0.4c-0.6-0.1-1.2-0.2-1.8-0.3c-0.6-0.1-1.2-0.2-1.8-0.3l-0.9-0.2l-0.9-0.2
						c-0.6-0.1-1.3-0.2-1.9-0.4c-0.6-0.2-1.2-0.4-1.8-0.6c-0.6-0.3-1.2-0.5-1.7-0.8c-0.6-0.3-1.1-0.6-1.6-1
						c-0.3-0.1-0.5-0.3-0.7-0.5c-0.2-0.2-0.5-0.4-0.7-0.6c-0.5-0.4-0.8-0.8-1.2-1.2c-0.4-0.4-0.7-0.9-1-1.3
						c-0.3-0.4-0.5-0.9-0.8-1.3c-0.2-0.4-0.4-0.9-0.6-1.3c-0.1-0.4-0.3-0.8-0.4-1.2c-0.1-0.4-0.2-0.8-0.3-1.1
						c-0.1-0.3-0.1-0.7-0.2-0.9c-0.1-0.6-0.1-1-0.1-1.3C236.4,364,236.4,363.9,236.4,363.9z"/>
				</g>
				<g>
					<path class="st9" d="M270.5,378.1c0,0,0,0.4,0,1c0,0.6,0,1.6,0.1,2.7c0.1,1.1,0.4,2.4,0.8,3.6c0.4,1.3,1.1,2.6,2,3.7
						c0.4,0.6,0.9,1.1,1.5,1.5c0.5,0.4,1.1,0.8,1.6,1.2c0.6,0.3,1.1,0.6,1.7,0.8c0.3,0.1,0.6,0.2,0.8,0.3c0.3,0.1,0.5,0.2,0.8,0.2
						c1,0.3,1.9,0.5,2.5,0.5c0.6,0.1,1,0.1,1,0.1s-0.4,0-1,0c-0.3,0-0.7,0-1.1-0.1c-0.4,0-0.9-0.1-1.4-0.2c-0.3,0-0.5-0.1-0.8-0.2
						c-0.3-0.1-0.6-0.1-0.9-0.3c-0.3-0.1-0.6-0.2-0.9-0.3c-0.3-0.1-0.6-0.3-0.9-0.4c-0.6-0.3-1.2-0.7-1.8-1.2
						c-0.6-0.5-1.1-1-1.6-1.6c-0.5-0.6-0.9-1.2-1.2-1.9c-0.3-0.7-0.6-1.4-0.8-2c-0.4-1.4-0.6-2.7-0.6-3.8c-0.1-1.1,0-2.1,0.1-2.7
						C270.4,378.5,270.5,378.1,270.5,378.1z"/>
				</g>
				<g>
					<path class="st9" d="M271.7,382.1c0,0,0,0.1,0.1,0.3c0,0.2,0.1,0.4,0.2,0.8c0.1,0.3,0.2,0.7,0.4,1.1c0.1,0.2,0.2,0.4,0.3,0.7
						c0.1,0.2,0.2,0.5,0.4,0.7c0.1,0.3,0.3,0.5,0.5,0.8c0.2,0.3,0.3,0.5,0.5,0.8c0.2,0.2,0.4,0.5,0.6,0.8c0.2,0.2,0.5,0.5,0.7,0.7
						c0.2,0.3,0.5,0.5,0.8,0.7c0.3,0.2,0.6,0.5,0.9,0.6c0.6,0.3,1.2,0.8,1.9,1l1,0.4c0.3,0.1,0.7,0.2,1,0.3c0.3,0.1,0.7,0.2,1,0.3
						c0.3,0.1,0.7,0.1,1,0.2c0.3,0.1,0.7,0.1,1,0.2c0.3,0.1,0.6,0.1,1,0.1c0.6,0,1.2,0.1,1.8,0.1c0.6,0.1,1.1,0,1.5,0
						c0.5,0,0.8,0,1.2,0c0.7,0,1,0,1,0s-0.4,0.1-1,0.1c-0.3,0-0.7,0.1-1.2,0.1c-0.5,0.1-1,0.1-1.5,0.1c-0.6,0-1.2,0-1.8,0
						c-0.3,0-0.7,0-1-0.1c-0.3,0-0.7-0.1-1-0.1c-0.3-0.1-0.7-0.1-1.1-0.2c-0.4-0.1-0.7-0.2-1.1-0.3c-0.4-0.1-0.7-0.2-1.1-0.3
						l-1.1-0.4c-0.7-0.3-1.4-0.7-2-1.1c-0.3-0.2-0.6-0.5-0.9-0.7c-0.3-0.2-0.6-0.5-0.8-0.7c-0.2-0.3-0.5-0.5-0.7-0.8
						c-0.2-0.3-0.4-0.6-0.6-0.8c-0.2-0.3-0.4-0.6-0.5-0.8c-0.1-0.3-0.3-0.5-0.4-0.8c-0.1-0.3-0.2-0.5-0.3-0.8
						c-0.1-0.3-0.2-0.5-0.2-0.7c-0.1-0.5-0.2-0.9-0.3-1.2C271.7,382.5,271.7,382.1,271.7,382.1z"/>
				</g>
				<g>
					<path class="st9" d="M374.2,410.5c0,0,0.7,0,1.9,0c0.6,0,1.4,0,2.2,0.1c0.9,0,1.8,0.1,2.9,0.2c1.1,0.1,2.2,0.2,3.4,0.4
						c1.2,0.1,2.5,0.3,3.8,0.6c0.7,0.1,1.3,0.2,2,0.3c0.7,0.1,1.3,0.3,2,0.4c1.4,0.3,2.7,0.5,4.1,0.9c1.4,0.3,2.7,0.7,4.1,1
						c1.4,0.3,2.7,0.7,3.9,1.1c2.5,0.7,4.9,1.4,6.9,2.1c2,0.6,3.7,1.2,4.9,1.6c1.2,0.4,1.8,0.6,1.8,0.6s-0.7-0.2-1.9-0.5
						c-1.2-0.3-2.9-0.8-4.9-1.4c-1-0.3-2.1-0.6-3.3-0.9c-1.2-0.3-2.4-0.6-3.7-1c-1.3-0.4-2.6-0.7-3.9-1c-1.3-0.3-2.7-0.7-4.1-1
						c-1.4-0.3-2.7-0.6-4.1-0.9c-0.7-0.1-1.3-0.3-2-0.4c-0.7-0.1-1.3-0.2-2-0.4c-0.6-0.1-1.3-0.2-1.9-0.3c-0.6-0.1-1.2-0.2-1.8-0.3
						c-1.2-0.2-2.3-0.3-3.4-0.5c-1-0.1-2-0.2-2.9-0.3c-0.9-0.1-1.6-0.1-2.2-0.2C374.9,410.6,374.2,410.5,374.2,410.5z"/>
				</g>
			</g>
			<path class="st10" d="M405.4,430.8c-32.1-3.2-81.8-16.2-107.5-22.7c-25.6-6.6-35.1-5.7-48.2-4.4s-14.7-1.7-9.9-6
				c4.8-4.4,3-6.9,9.4-4.9c11.9,3.6,16.8,1.6,16.8,1.6s-20.1-1.5-29.4-14.3c-5.2-7.1-1.6-13-1.6-13s1.9,9.8,15.6,12
				c13.7,2.2,16.1,4.3,19.5,9.9c3.4,5.7,10.4,10.4,19,6c8.7-4.4,7.9,1.1,27.2,6.7c19.3,5.7,41.5,7.3,63.6,9.2
				c22.1,1.9,27.9,7.2,47.7,11c19.8,3.8,40.1-1.4,39.2,5.9c0.9-6.7-1.7-12.2-1.7-12.2c-22-1.9-122.2-13.1-150.1-19
				c-27.9-5.9-30.8-34.3-45.7-44.4c-14.8-10.1-25.3,0.1-30.8,3.6c-5.5,3.5-11.4,3.8-9.4,13c1.6,7.2,4.7,16,3.6,25
				c-1.1,9-2,14,10,14.9c12,0.9,21.8-0.5,42.7,3.3c51.7,9.4,58.9,16.1,106.6,22.5c47.7,6.4,72.2,1,72.2,1c1-1.5,1.6-3.1,2.1-4.6
				C466.3,430.8,437.4,434,405.4,430.8z"/>
			<path class="st10" d="M234.7,363.1c0,0-8.1,23.4,17.1,27.8C251.8,390.9,223.7,390.9,234.7,363.1z"/>
			<path class="st10" d="M253.8,374.7c12.7,2.8,15,12.2,15,12.2s-2.8-7.1-18.4-8.6s-14-15.9-14-15.9c0.4-4.4,2.4-6.7,2.4-6.7
				S237.8,371.1,253.8,374.7z"/>
			<path class="st10" d="M294.3,384.7c0,0-18.2-0.4-19.1-6.6c-0.9-6.2-4.1-4.7-5-1.6c0,0-4.2,17.8,14,17.8l-3-0.9
				c0,0,6.5,0.3,9.9-0.9c3.1-1.5,3.1-1.9,9.8,1.8c6.7,3.7,30.3,10.1,59.6,9.3c0,0-21.4-2.6-38.8-5.7
				C304.3,394.8,298,389.2,294.3,384.7z"/>
			<path class="st10" d="M374.2,410.4c0,0,12.9,0,26.1,4c13.2,4,21.8,6.3,21.8,6.3S398.4,407.1,374.2,410.4z"/>
			<path class="st10" d="M310,406.4c15.7,6.4,37.8,6,67,10.2c29.2,4.3,50.4,12.7,67,13.2c0,0-12.4,2-56-6.6
				C344.5,414.5,321.3,415.9,310,406.4z"/>
			<path class="st10" d="M235.5,373.5c0,0,7.9,13.6,30.1,13.5C265.6,387,240.9,392.7,235.5,373.5z"/>
		</g>
		<defs>
			<filter id="Adobe_OpacityMaskFilter_2_" filterUnits="userSpaceOnUse" x="269.7" y="353" width="199.3" height="70.2">
				<feColorMatrix  type="matrix" values="1 0 0 0 0  0 1 0 0 0  0 0 1 0 0  0 0 0 1 0"/>
			</filter>
		</defs>
		<mask maskUnits="userSpaceOnUse" x="269.7" y="353" width="199.3" height="70.2" id="SVGID_5_">
			<g class="st11">
				<linearGradient id="SVGID_6_" gradientUnits="userSpaceOnUse" x1="279.1094" y1="371.9558" x2="464.9392" y2="422.729">
					<stop  offset="0.8762" style="stop-color:#FFFFFF"/>
					<stop  offset="0.8906" style="stop-color:#FBFBFB"/>
					<stop  offset="0.906" style="stop-color:#EEEEEE"/>
					<stop  offset="0.9219" style="stop-color:#D8D8D8"/>
					<stop  offset="0.9381" style="stop-color:#BABABA"/>
					<stop  offset="0.9546" style="stop-color:#949494"/>
					<stop  offset="0.9712" style="stop-color:#646464"/>
					<stop  offset="0.9877" style="stop-color:#2E2E2E"/>
					<stop  offset="1" style="stop-color:#000000"/>
				</linearGradient>
				<path class="st12" d="M468.2,409.9c0,0-32.2-5.5-68-16.9c-1-0.3-2-0.6-3-0.9c-0.3-0.1-0.7-0.2-1-0.3c-0.7-0.2-1.4-0.5-2.1-0.7
					c-0.3-0.1-0.7-0.2-1-0.3c-2-0.6-4-1.3-6-1.9c-0.3-0.1-0.6-0.2-0.9-0.3c-0.7-0.2-1.4-0.5-2.2-0.7c-0.3-0.1-0.7-0.2-1-0.3
					c-2-0.6-4-1.2-6-1.9c-0.3-0.1-0.6-0.2-0.9-0.3c-0.7-0.2-1.4-0.4-2.2-0.7c-0.3-0.1-0.6-0.2-1-0.3c-0.9-0.3-1.8-0.6-2.7-0.8
					c-0.1,0-0.1,0-0.2-0.1c-1-0.3-1.9-0.6-2.9-0.9c-0.3-0.1-0.6-0.2-0.9-0.3c-0.7-0.2-1.4-0.4-2.1-0.6c-0.3-0.1-0.6-0.2-0.9-0.3
					c-0.9-0.3-1.8-0.5-2.6-0.8c-0.1,0-0.1,0-0.2-0.1c-0.9-0.3-1.9-0.6-2.8-0.9c-0.3-0.1-0.6-0.2-0.9-0.3c-0.7-0.2-1.3-0.4-2-0.6
					c-0.3-0.1-0.6-0.2-0.9-0.3c-0.8-0.2-1.5-0.5-2.3-0.7c-0.2,0-0.3-0.1-0.5-0.1c-0.9-0.3-1.7-0.5-2.6-0.8c-0.3-0.1-0.6-0.2-0.9-0.3
					c-0.6-0.2-1.2-0.4-1.8-0.5c-0.3-0.1-0.6-0.2-0.9-0.3c-0.7-0.2-1.4-0.4-2-0.6c-0.2-0.1-0.4-0.1-0.5-0.2c-0.8-0.2-1.6-0.5-2.4-0.7
					c-0.3-0.1-0.6-0.2-0.9-0.3c-0.5-0.2-1.1-0.3-1.6-0.4c-0.3-0.1-0.6-0.2-0.9-0.3c-0.6-0.2-1.1-0.3-1.7-0.5
					c-0.2-0.1-0.4-0.1-0.7-0.2c-0.7-0.2-1.4-0.4-2.1-0.6c-0.3-0.1-0.6-0.2-0.9-0.2c-0.4-0.1-0.9-0.2-1.3-0.4
					c-0.3-0.1-0.6-0.2-0.9-0.2c-0.5-0.1-0.9-0.2-1.4-0.4c-6.4-1.7-11.8-3-15.7-3.7c-0.8-0.1-1.6-0.3-2.3-0.4c0,0,0,0,0,0
					c-2.4-0.4-4.2-0.8-5.5-1.2c0,0,0,0,0,0c-0.1,0-0.3-0.1-0.4-0.1c0,0-0.1,0-0.1,0c-0.1,0-0.2-0.1-0.3-0.1c0,0-0.1,0-0.1,0
					c-0.1,0-0.2-0.1-0.3-0.1c0,0-0.1,0-0.1,0c-0.1,0-0.2-0.1-0.3-0.1c0,0-0.1,0-0.1,0c-0.1,0-0.2-0.1-0.2-0.1c0,0-0.1,0-0.1,0
					c-0.1,0-0.2-0.1-0.2-0.1c0,0,0,0-0.1,0c-0.1,0-0.1-0.1-0.2-0.1c0,0,0,0,0,0c-0.1,0-0.1-0.1-0.2-0.1c0,0,0,0,0,0
					c-0.3-0.2-0.6-0.4-0.8-0.6c0,0,0,0,0,0c0,0-0.1-0.1-0.1-0.1c0,0,0,0,0-0.1c0,0-0.1-0.1-0.1-0.1c0,0,0,0,0-0.1
					c0,0-0.1-0.1-0.1-0.1c0,0,0-0.1,0-0.1c0,0-0.1-0.1-0.1-0.1c0,0,0-0.1,0-0.1c0,0,0-0.1-0.1-0.1c0,0,0-0.1,0-0.1
					c0,0,0-0.1-0.1-0.1c0,0,0-0.1,0-0.1c0,0,0-0.1,0-0.1c0,0,0-0.1,0-0.1c0,0,0,0,0,0c0-0.3-0.1-0.7-0.3-1
					c-1.6-7.7-7.8-2.8-10.6-5.8c-0.6-0.6-1.5-1.2-2.5-1.6c0,0,0,0,0,0c-1.1-0.4-2.5-0.7-3.8-0.7c-0.1,0-0.2,0-0.3,0
					c-0.2,0-0.4,0-0.5,0c-0.1,0-0.3,0-0.4,0c-0.2,0-0.3,0-0.5,0.1c-0.2,0-0.3,0.1-0.4,0.1c-0.1,0-0.3,0.1-0.4,0.1
					c-0.2,0.1-0.5,0.2-0.7,0.2c-0.1,0-0.1,0.1-0.2,0.1c-0.2,0.1-0.4,0.2-0.6,0.3c-0.1,0-0.2,0.1-0.2,0.2c-0.2,0.1-0.3,0.2-0.5,0.3
					c-0.1,0.1-0.2,0.1-0.2,0.2c-0.1,0.1-0.3,0.3-0.4,0.4c-0.1,0.1-0.1,0.2-0.2,0.2c-0.1,0.2-0.2,0.3-0.3,0.5
					c-0.1,0.1-0.1,0.2-0.2,0.2c-0.1,0.3-0.3,0.5-0.4,0.8c-1.8,5.2-1.1,7.5-3.5,10c-4.3,4.4-1.8,8.6,0,12.1c0.3,0.5,0.4,1.1,0.4,1.6
					l-0.2,3.2c-0.1,0.6-0.1,1.2-0.1,1.8c0,1.7,0.6,3.3,3,4.6c5.6,3,18.2-4.8,24.6-8c6.4-3.2,31.4,4.1,44.4,7.1
					c13,3,35.4,14.9,71.5,24c36.1,9.1,50.4,8.9,50.4,8.9s0,0,0,0c0.1-0.2,0.9-1.9,1.4-4.8c0,0,0,0,0,0
					C468.5,415.7,468.7,413,468.2,409.9z"/>
			</g>
		</mask>
		<g class="st13">
			<path class="st7" d="M272.6,367.4c-4.3,4.4-1.8,8.6,0,12.1s-2.4,8.2,3.1,11.2s18.2-4.8,24.6-8c6.4-3.2,31.4,4.1,44.4,7.1
				c13,3,35.4,14.9,71.5,24c36.1,9.1,50.4,8.9,50.4,8.9s2.7-5.1,1.5-12.8c0,0-32.2-5.5-68-16.9c-35.8-11.4-73.2-22.9-88.2-25.6
				c-10.6-1.9-11.8-2.3-12.5-5.9c-1.6-7.7-7.8-2.8-10.6-5.8c-2.8-3-11-3.6-12.8,1.6C274.3,362.6,275,364.9,272.6,367.4z"/>
			<g>
				<g>
					<g>
						<path class="st9" d="M288.2,377.1c0,0,0-0.3,0-0.9c0-0.3,0.1-0.6,0.1-1.1c0.1-0.4,0.1-0.9,0.3-1.4c0.1-0.5,0.3-1,0.6-1.5
							c0.3-0.5,0.6-1.1,1-1.5c0.8-1,1.9-1.8,3-2.5c1.1-0.7,2.3-1.1,3.3-1.7c1-0.6,1.9-1.2,2.5-2c0.3-0.4,0.5-0.8,0.6-1.1
							c0.1-0.4,0.1-0.7,0.1-1c0-0.1,0-0.3,0-0.4c0-0.1,0-0.2-0.1-0.3c0-0.2-0.1-0.2-0.1-0.2s0,0.1,0.1,0.2c0.1,0.1,0.1,0.4,0.2,0.6
							c0.1,0.3,0.1,0.7,0,1.1c-0.1,0.4-0.2,0.9-0.5,1.3c-0.6,0.9-1.5,1.6-2.5,2.3c-0.5,0.3-1.1,0.6-1.6,0.9
							c-0.6,0.3-1.1,0.6-1.7,0.9c-0.5,0.3-1.1,0.7-1.6,1c-0.5,0.4-0.9,0.8-1.3,1.2c-0.4,0.4-0.7,0.9-1,1.4c-0.3,0.5-0.5,1-0.7,1.4
							c-0.2,0.5-0.3,0.9-0.4,1.3c-0.1,0.4-0.2,0.7-0.2,1C288.2,376.8,288.2,377.1,288.2,377.1z"/>
					</g>
				</g>
				<g>
					<g>
						<path class="st9" d="M273.3,377.1c0,0,0.1,0.1,0.2,0.4c0.1,0.1,0.1,0.2,0.2,0.4c0.1,0.2,0.1,0.4,0.2,0.6
							c0.1,0.4,0.2,1,0.2,1.5c0,0.6-0.1,1.1-0.1,1.7c-0.2,1.2-0.5,2.2-0.8,3.1c-0.1,0.4-0.2,0.8-0.3,1c-0.1,0.2-0.1,0.4-0.1,0.4
							s0-0.1,0-0.4c0-0.3,0-0.6,0-1.1c0.1-0.9,0.3-2,0.5-3.1c0.2-1.1,0.3-2.2,0.3-3c0-0.2,0-0.4,0-0.6c0-0.2,0-0.3-0.1-0.4
							C273.3,377.3,273.3,377.1,273.3,377.1z"/>
					</g>
				</g>
			</g>
			<path class="st10" d="M295.3,372.4c0,0,9.6-8.5,39.5,1.9c29.9,10.4,75.6,27.5,98.9,32.1c0,0-18.8-0.8-69.2-18.9
				C314,369.4,295.3,372.4,295.3,372.4z"/>
			<g>
				<path class="st10" d="M392.6,401.4c-31.9-13.1-57-20.8-72.7-22.9c-15.7-2.1-22.5,0.8-30,5.9c-3,2-10.4,5.8-13.6,1.8
					c-3.2-4-2.4-9.3,2.1-13.5c4.5-4.2,5.4-8.9,4.6-12.1c-0.8-3.2,0.3-6.3,4.1-6.1c-3.6-1.8-9.5-1.5-11,2.9c-1.8,5.2-1.1,7.5-3.5,10
					c-4.3,4.4-1.8,8.6,0,12.1s-2.4,8.2,3.1,11.2s18.2-4.8,24.6-8c6.4-3.2,31.4,4.1,44.4,7.1c13,3,35.4,14.9,71.5,24
					c36.1,9.1,50.4,8.9,50.4,8.9s0.9-1.8,1.5-4.8C455.7,416.6,418.8,412.1,392.6,401.4z"/>
			</g>
			<path class="st10" d="M293.8,358.5c3.8,0.9,4.3,5.9-1.5,9.3c-5.8,3.4-5.2,13-5.2,13s6.4-16.7,22.6-13.8
				c-8.5-1.6-9.5-2.1-10.2-5.4c-1.6-7.7-7.8-2.8-10.6-5.8C288.9,355.8,290.1,357.6,293.8,358.5z"/>
			<path class="st10" d="M468.3,411.1c0-0.4-0.1-0.8-0.2-1.2c0,0-32.2-5.5-68-16.9c-26.9-8.5-54.7-17.2-73.3-22.1
				c15.5,4.8,46.1,15.5,78.5,25.7C437.8,406.7,460,410.1,468.3,411.1z"/>
		</g>
		<g>
			<path class="st7" d="M376,126.3c2.8,4.3,1.3,8.1-5.6,7.8c-5.6-0.3-8.2-1.5-8.2-1.5s-1.8,1.4-1.5,3.4c0.3,1.7,4.3,6,21.1,4.8
				c0,0,2.9-4.4,9.8-3.7c7.9,0.9,9.4,4.6,9.4,4.6s4.6,1.8,7.8-0.7c0,0,1.9-5,15.3-8.5c13.4-3.6,17.3-4.9,21.5,3.2
				c4.2,8.1,10.8,32,13.1,41.2c2.4,9.2-0.8,10.5-0.8,24.1c0,13.6-0.3,64.5-5.3,87.9c-1.3,5.8-4.4,16.4-8.6,20.1
				c-7.2,6.3-7.7,13.9-14.9,13.3c-6-0.5-25.4-15.9-30.9-24.8c-5.5-8.9-8.3-23.1-9.9-30.7c-1.6-7.6-6.9-14.4-7.7-19.3
				c-0.8-4.9-1.1-20.7-2.7-29.6c-1.6-8.9,0.6-13.1-2.7-16c-3.3-2.9-5.3-6.6-10.1-7.9c-4.7-1.3-2.2-2.2,0-3.4c3.9-2.1,5.9-11,3-21.6
				c-4.3-16.1-13.7-12.7-13.8-15.6c-0.2-2.9,1.1-4.5,3.8-5.5c0,0-2-1.3-9.3-0.2c-7.3,1.1-13.4-3.1-12.9-7.1c0.4-3.3,3.4-6.1,7.6-9
				s10.2-9.2,18.1-11.1C369.6,118.5,372.4,120.7,376,126.3z"/>
			<path class="st10" d="M354.3,153.3c-0.2-2.9,1.1-4.5,3.8-5.5c0,0,0,0-0.1,0c4.8-2.1,8.1,1.2,8.1,1.2c-4.2-1.9-7.7,1-4.8,2
				c2.9,1.1,16.4,8.6,18.4,19.3c3.6,20.2-8.9,20.9-4.2,20.3c5.6-0.7,8.4-11.2,8.2-4.1c-0.2,7.1-3.7,11.9-1.4,18.3
				c2.3,6.4,2.8,15,3,26c0.2,11,6.4,8.5,7.2,14.6c0.8,6,2.2,8,4.1,10.6c1.9,2.6,4.9,5.8,6,11.3c5.4,27.2,21.2,37.1,28.8,39.8
				c10.4,3.7,8.5,2.4,11.8-2.6c4.2-6.2,6-12.5,7.4-19.8c1.4-7.7,2.3-15.4,3-23.2c0.6-6.1,0.9-12.2,1.1-18.3
				c0.5-15.4,0.9-41.9,1.7-49.5c0.7-6.9,1.5-10.6,0.8-13.7c-1.7-7-5.4-17.7-9.4-26.4c-5.5-12.1-8.1-18.8-15.8-16.9
				c-7.7,1.9-17,3.7-20,6c-3.1,2.3-2.5,2-3,4.5c-0.5,2.4-0.4,4.3-5.2,5.1c-4.8,0.8-5.2-2-4.4-4.7c0.7-2.5,1.5-5.5-0.5-8
				c1.6,1.1,2.1,2.2,2.1,2.2s4.6,1.8,7.8-0.7c0,0,1.9-5,15.3-8.5c13.4-3.6,17.3-4.9,21.5,3.2c4.2,8.1,10.8,32,13.1,41.2
				c0.1,0.2,0.1,0.5,0.2,0.7c0,0.1,0.1,0.3,0.1,0.4c0,0.1,0.1,0.2,0.1,0.4c0.1,0.3,0.1,0.6,0.2,0.9c0,0.1,0,0.3,0.1,0.4
				c0,0.3,0.1,0.6,0.1,0.9c0,0.1,0,0.2,0,0.3c0,0.2,0,0.4,0.1,0.6c0,0.1,0,0.2,0,0.3c0,0.3,0,0.5,0,0.7c0,0.1,0,0.2,0,0.4
				c0,0.2,0,0.4,0,0.5c0,0.2,0,0.3,0,0.5c0,0.1,0,0.3,0,0.4c0,0.1,0,0.3,0,0.4c0,0.2,0,0.4,0,0.5c0,0.2,0,0.3-0.1,0.5
				c0,0,0,0.1,0,0.1c-0.3,2.3-0.8,4.7-1.2,8.3c-0.2,1.9-0.3,4.1-0.3,6.8c0,13.4-0.3,63.2-5.2,87c-0.1,0.3-0.1,0.6-0.2,0.9
				c0,0.2-0.1,0.4-0.1,0.6c0,0,0,0.1,0,0.1c0,0.2-0.1,0.3-0.1,0.5c0,0.1,0,0.1,0,0.2c0,0.2-0.1,0.4-0.1,0.5c0,0,0,0.1,0,0.1
				c-0.1,0.2-0.1,0.4-0.2,0.6c0,0,0,0,0,0.1c-1.5,5.9-4.4,14.1-8,17.2c-7.2,6.3-7.7,13.9-14.9,13.3c-6-0.5-25.4-15.9-30.9-24.8
				c-5.5-8.9-8.3-23.1-9.9-30.7c-1.6-7.6-6.9-14.4-7.7-19.3c-0.8-4.9-1.1-20.7-2.7-29.6c-1.6-8.9,0.6-13.1-2.7-16
				c-3.3-2.9-5.3-6.6-10.1-7.9c-4.7-1.3-2.2-2.2,0-3.4c3.9-2.1,5.9-11,3-21.6C363.8,152.8,354.4,156.2,354.3,153.3z"/>
			<g>
				<path class="st9" d="M429.8,139.2c0,0-1.9,1-5.2,3c-1.6,1-3.6,2.2-5.8,3.7c-1.1,0.7-2.3,1.6-3.5,2.5c-1.2,0.9-2.4,1.9-3.7,3
					c-1.3,1.1-2.5,2.2-3.8,3.5c-0.6,0.6-1.3,1.3-1.9,2c-0.6,0.7-1.2,1.4-1.9,2.1c-2.6,2.8-5.3,5.7-8.1,8.7c-1.4,1.5-2.8,3.1-4.2,4.7
					c-1.4,1.6-2.7,3.3-3.8,5.3c-0.2,0.5-0.5,1-0.6,1.6l-0.1,0.2c0,0,0,0.1,0,0.1l0,0.1l0,0.4c0,0.3,0,0.6,0,0.8
					c0,1.1,0.1,2.3,0.3,3.4c0.3,2.2,0.8,4.4,1.2,6.6c0.9,4.4,1.9,8.7,2.7,13c0.8,4.3,1.5,8.6,2.7,12.6c0.6,2,1.4,3.9,2.4,5.7
					c1,1.8,2.2,3.4,3.6,4.7c1.4,1.3,2.9,2.4,4.2,3.5c1.4,1.1,2.6,2.3,3.9,3.3c1.2,1.1,2.3,2.2,3.4,3.2c1.1,1,2.1,2,3.1,2.9
					c1.9,1.9,3.5,3.5,4.8,5c1.3,1.4,2.3,2.6,2.9,3.4c0.3,0.4,0.5,0.7,0.7,1c0.1,0.2,0.2,0.3,0.2,0.3s-0.1-0.1-0.2-0.4
					c-0.1-0.2-0.3-0.6-0.6-1c-0.6-0.8-1.5-2-2.8-3.5c-1.3-1.5-2.8-3.2-4.7-5.1c-0.9-1-1.9-2-3-3.1c-1.1-1.1-2.2-2.1-3.4-3.2
					c-1.2-1.1-2.5-2.2-3.9-3.4c-1.4-1.2-2.9-2.2-4.2-3.5c-1.3-1.3-2.5-2.8-3.5-4.5c-1-1.7-1.7-3.6-2.3-5.6
					c-1.2-3.9-1.9-8.2-2.7-12.5c-0.8-4.3-1.8-8.7-2.7-13c-0.5-2.2-0.9-4.3-1.2-6.5c-0.2-1.1-0.3-2.2-0.3-3.2c0-0.3,0-0.5,0-0.8
					l0-0.4l0-0.1c0,0,0-0.1,0-0.1l0.1-0.2c0.1-0.5,0.3-1,0.6-1.4c1-1.9,2.4-3.5,3.7-5.2c1.4-1.6,2.8-3.2,4.1-4.7
					c2.8-3,5.5-5.9,8.1-8.7c0.6-0.7,1.3-1.4,1.9-2.1c0.6-0.7,1.2-1.3,1.9-1.9c1.3-1.2,2.5-2.4,3.8-3.4c1.2-1.1,2.5-2,3.7-2.9
					c1.2-0.9,2.3-1.8,3.4-2.6c2.1-1.6,4.1-2.9,5.6-3.9C427.9,140.3,429.8,139.2,429.8,139.2z"/>
			</g>
			<path class="st14" d="M411.4,138.2c-1.3,1.1-3,1.9-2.9,6.9c0.1,5.1-2.6,6.1-4.9,6.3c-2.4,0.2-3.6-0.8-2.7-2.7
				c0.8-1.9,1.1-6.5-0.5-8.1"/>
			<g>
				<g>
					<path class="st9" d="M397.7,144.8c0,0-0.2,0-0.6,0.1c-0.4,0.1-1,0.2-1.7,0.5c-0.4,0.2-0.8,0.3-1.2,0.6
						c-0.2,0.1-0.4,0.4-0.5,0.6c-0.2,0.2-0.3,0.5-0.4,0.7c-0.3,0.5-0.5,1.1-0.7,1.6c-0.2,0.6-0.4,1.2-0.7,1.8
						c-0.3,0.6-0.6,1.3-0.9,1.9c-0.4,0.7-0.8,1.2-1.3,1.8c-1,1.1-2.2,2.2-3.6,3.1c-1.3,0.9-2.8,1.8-4.5,2.3c-0.8,0.1-1.6,0-2.5-0.2
						c-0.8-0.2-1.6-0.5-2.4-0.9c-1.6-0.7-3.1-1.7-4.3-2.9c-0.3-0.3-0.6-0.6-0.7-1l-0.2-0.3l-0.1-0.3c-0.1-0.2-0.1-0.4-0.2-0.6
						c-0.2-0.8,0.2-1.5,0.8-2c0.6-0.6,1.3-0.9,2-1.4c0.7-0.5,1.3-1.1,1.8-1.6c1.1-1.2,2-2.3,2.8-3.4c0.8-1.1,1.5-2.1,2.2-3
						c0.6-0.9,1.2-1.6,1.7-2.2c0.5-0.6,1-1,1.3-1.3c0.2-0.1,0.3-0.2,0.4-0.3c0.1-0.1,0.1-0.1,0.1-0.1s0,0-0.1,0.1
						c-0.1,0-0.2,0.1-0.4,0.2c-0.3,0.2-0.8,0.6-1.4,1.2c-0.6,0.6-1.2,1.3-1.9,2.1c-0.4,0.4-0.7,0.9-1.1,1.3c-0.4,0.5-0.8,1-1.2,1.5
						c-0.8,1.1-1.7,2.2-2.7,3.3c-0.5,0.6-1.1,1.1-1.7,1.5c-0.6,0.4-1.4,0.8-2.1,1.5c-0.3,0.3-0.6,0.7-0.8,1.1
						c-0.2,0.5-0.3,1-0.2,1.5c0.1,0.5,0.3,1,0.5,1.3c0.2,0.4,0.5,0.8,0.8,1.1c1.3,1.3,2.9,2.2,4.5,3c0.8,0.4,1.7,0.7,2.6,0.9
						c0.9,0.2,1.8,0.4,2.7,0.2c0.9-0.2,1.7-0.6,2.5-1c0.8-0.4,1.5-0.9,2.2-1.4c1.4-1,2.6-2.1,3.7-3.3c0.5-0.6,1-1.3,1.3-1.9
						c0.4-0.7,0.7-1.3,0.9-2c0.3-0.6,0.5-1.2,0.7-1.8c0.2-0.6,0.4-1.1,0.6-1.6c0.2-0.5,0.4-0.9,0.8-1.2c0.3-0.3,0.7-0.5,1-0.7
						c0.7-0.3,1.3-0.6,1.7-0.7C397.5,144.8,397.7,144.8,397.7,144.8z"/>
				</g>
			</g>
			<path class="st14" d="M374.6,149.6c0,0-3.8,0.6-5.8,0.2c-2-0.4-3.2-1.3-4.8-2.2c-1.6-0.9-5.3-0.7-7.7,1.1"/>
			<g>
				<g>
					<path class="st9" d="M345.2,142.5c0,0-0.1-0.1-0.2-0.3c-0.1-0.2-0.2-0.5-0.2-0.9c0-0.4,0-0.9,0.2-1.4c0-0.1,0.1-0.3,0.2-0.4
						c0.1-0.1,0.1-0.3,0.2-0.4c0.1-0.3,0.3-0.6,0.5-0.9c0.4-0.6,0.9-1.1,1.5-1.7c0.6-0.5,1.3-1,2.1-1.4c1.5-0.9,3.2-1.6,5-2.2
						c0.9-0.3,1.8-0.5,2.7-0.6c0.9-0.1,1.8,0,2.6,0.1c0.8,0.2,1.7,0.4,2.4,0.6c0.8,0.2,1.6,0.4,2.2,0.5c0.3,0.1,0.7,0.2,1,0.2
						c0.3,0,0.6,0.1,0.9,0.1c0.6,0.1,1.1,0.1,1.5,0.1c0.8,0,1.3,0,1.3,0s-0.5-0.1-1.3-0.3c-0.4-0.1-0.9-0.1-1.4-0.3
						c-0.3-0.1-0.6-0.2-0.9-0.3c-0.3-0.1-0.6-0.1-1-0.2c-0.7-0.1-1.4-0.3-2.2-0.5c-0.8-0.2-1.6-0.5-2.5-0.6
						c-0.9-0.2-1.9-0.2-2.8-0.1c-1,0.1-1.9,0.4-2.8,0.6c-1.8,0.6-3.6,1.3-5.2,2.2c-0.8,0.5-1.5,1-2.1,1.5c-0.7,0.6-1.2,1.2-1.6,1.8
						c-0.2,0.3-0.4,0.6-0.5,0.9c-0.1,0.2-0.1,0.3-0.2,0.5c0,0.2-0.1,0.3-0.1,0.5c-0.1,0.6-0.1,1.2,0,1.6c0.1,0.4,0.3,0.7,0.4,0.9
						C345.1,142.4,345.2,142.5,345.2,142.5z"/>
				</g>
			</g>
			<g>
				<path class="st9" d="M429.8,310.8c0,0-1.1-0.4-3-1.3c-1-0.4-2.1-0.9-3.4-1.5c-1.3-0.6-2.8-1.3-4.4-2.1c-1.6-0.8-3.3-1.8-4.9-2.9
					c-1.6-1.2-3.3-2.6-4.8-4.2c-0.8-0.8-1.5-1.7-2.3-2.5c-0.4-0.4-0.7-0.9-1.1-1.4c-0.3-0.5-0.7-0.9-1-1.4c-0.3-0.5-0.6-1-0.9-1.5
					c-0.3-0.5-0.6-1-0.9-1.5c-0.5-1.1-1.2-2.1-1.6-3.2c-1-2.2-1.9-4.4-2.4-6.7c-0.6-2.3-0.8-4.6-0.9-6.9c-0.1-1.1,0-2.2-0.1-3.4
					c0-0.5,0-1.1-0.1-1.6c0-0.3-0.1-0.5-0.1-0.8c-0.1-0.3-0.1-0.5-0.2-0.8c-0.5-2.1-1.4-3.9-2.3-5.5c-0.9-1.6-1.8-3-2.5-4.3
					c-0.7-1.3-1.2-2.5-1.4-3.5c-0.3-1-0.4-1.8-0.5-2.4c-0.1-0.6-0.1-0.9-0.1-0.9s0,0.3,0,0.9c0,0.6,0.1,1.4,0.3,2.5
					c0.2,1.1,0.6,2.3,1.2,3.7c0.3,0.7,0.7,1.4,1.1,2.1c0.4,0.7,0.9,1.5,1.3,2.3c0.9,1.6,1.8,3.3,2.3,5.3c0.1,0.2,0.1,0.5,0.2,0.8
					c0,0.3,0.1,0.5,0.1,0.8c0,0.3,0.1,0.5,0.1,0.8c0,0.3,0,0.5,0,0.8c0.1,1.1,0,2.2,0.1,3.4c0.1,2.3,0.4,4.7,0.9,7
					c0.6,2.4,1.4,4.7,2.5,6.9c0.5,1.1,1.1,2.2,1.6,3.3c0.3,0.5,0.6,1.1,0.9,1.6c0.3,0.5,0.6,1,1,1.5c0.3,0.5,0.7,1,1,1.5
					c0.4,0.5,0.7,1,1.1,1.4c0.8,0.9,1.5,1.8,2.3,2.6c1.6,1.7,3.3,3.1,4.9,4.3c1.7,1.2,3.4,2.2,5,3c0.8,0.4,1.6,0.8,2.3,1.1
					c0.8,0.3,1.5,0.6,2.1,0.9c1.4,0.5,2.5,1,3.5,1.3c1,0.4,1.8,0.6,2.3,0.8C429.5,310.7,429.8,310.8,429.8,310.8z"/>
			</g>
			<g>
				<g>
					<path class="st9" d="M382.4,216.6c0,0,0,0.6,0.1,1.6c0,0.5,0.1,1.1,0.1,1.8c0,0.4,0,0.7,0.1,1.1c0,0.4,0.1,0.8,0.1,1.2
						c0.2,1.7,0.4,3.7,0.5,5.9c0.1,1.1,0.1,2.2,0.2,3.3c0,1.1,0,2.3,0,3.4c-0.1,1.1-0.2,2.3-0.4,3.4c-0.2,1.1-0.5,2.2-0.8,3.2
						c-0.3,1-0.7,2-0.9,3c-0.3,1-0.5,1.9-0.5,2.8c0,0.4,0,0.9,0,1.3c0.1,0.4,0.2,0.8,0.3,1.1c0.2,0.7,0.4,1.3,0.7,1.7
						c0.2,0.5,0.4,0.8,0.5,1c0.1,0.2,0.2,0.4,0.2,0.4s-0.1-0.1-0.1-0.4c-0.1-0.2-0.2-0.6-0.4-1.1c-0.2-0.5-0.3-1.1-0.4-1.7
						c-0.1-0.3-0.1-0.7-0.1-1.1c0-0.4-0.1-0.8,0-1.2c0-1.7,0.8-3.5,1.4-5.6c0.3-1,0.6-2.1,0.8-3.2c0.2-1.1,0.4-2.3,0.4-3.4
						c0.1-1.2,0.1-2.3,0-3.5c0-1.1-0.1-2.3-0.2-3.3c-0.1-2.2-0.3-4.2-0.5-5.9c-0.1-0.4-0.1-0.8-0.1-1.2c-0.1-0.4-0.1-0.8-0.2-1.1
						c-0.1-0.7-0.2-1.3-0.3-1.8C382.5,217.1,382.4,216.6,382.4,216.6z"/>
				</g>
			</g>
			<path class="st10" d="M429.8,139.9c-8.4,11.3-21.7,28.7-23.9,35.2c-2.2,6.5,0.6,41.4,4.4,45.9c21.2,25.1,31.4,45,31.4,48.2
				c0,4.9-13.9-19.6-32.9-35.6c-7.6-6.4-12.7-8.6-15-20.5c-2.3-12-5.1-23.3-5.6-27.5c-0.5-4.2-2.6-5.9,5.3-14.6
				c7.9-8.7,17.7-19.1,22.3-22.4c4.5-3.3,4.5-3.3,4.5-3.3S432.1,136.8,429.8,139.9z"/>
			<g>
				<path class="st15" d="M381.9,188.9c0,0-0.1,0.2-0.4,0.7c-0.2,0.4-0.6,1-1.1,1.7c-0.2,0.4-0.5,0.7-0.8,1.1
					c-0.3,0.4-0.6,0.8-0.9,1.2c-0.6,0.8-1.4,1.7-2.2,2.4c-0.2,0.2-0.4,0.4-0.6,0.5c-0.2,0.2-0.4,0.3-0.6,0.5
					c-0.5,0.3-0.9,0.6-1.3,0.8c-0.4,0.2-0.9,0.4-1.3,0.4c-0.4,0-0.7-0.3-1.1-0.6c-0.6-0.5-1.2-0.9-1.7-1.2c-0.4-0.2-0.7-0.3-0.7-0.3
					s0.2,0.2,0.6,0.5c0.2,0.2,0.4,0.3,0.7,0.6c0.3,0.2,0.5,0.5,0.8,0.8c0.3,0.3,0.6,0.7,1.2,0.8c0.6,0.1,1.1-0.1,1.6-0.3
					c0.5-0.2,1-0.5,1.4-0.8c0.2-0.2,0.5-0.3,0.7-0.5c0.2-0.2,0.4-0.4,0.7-0.5c0.8-0.8,1.6-1.6,2.2-2.5c0.3-0.4,0.6-0.9,0.8-1.3
					c0.3-0.4,0.5-0.8,0.7-1.2c0.4-0.7,0.7-1.4,0.9-1.9C381.8,189.2,381.9,188.9,381.9,188.9z"/>
			</g>
			<path class="st10" d="M358.8,151.9c4.9,1.5,17.3,11.2,17.1,24.6c-0.2,13.4-9.1,16.3-3,16.6c6.1,0.2,9.4-5.2,9.4-5.2
				c-1,7.5-3.7,11.6-3.5,14.1c0.5,6.2,3,10.5,4,20.7c1,9.6,1.6,13.3-0.5,18.9c-1.2,3.2-1.4,5.6-1.4,7.9c-0.2-0.7-0.4-1.3-0.5-2
				c-0.8-4.9-1.1-20.7-2.7-29.6c-1.6-8.9,0.6-13.1-2.7-16c-3.3-2.9-5.3-6.6-10.1-7.9c-4.7-1.3-2.2-2.2,0-3.4c3.9-2.1,5.9-11,3-21.6
				c-4.3-16.1-13.7-12.7-13.8-15.6c-0.2-2.8,1-4.4,3.5-5.4C357,148.5,354.6,150.6,358.8,151.9z"/>
			<path class="st10" d="M434.1,309.6c-3.7,1.8-12.7-0.5-23-8.8c-10.4-8.3-13.4-22.8-13.3-29.5c0.1-6.8-4-11.3-5-13.8
				c-1.3-3.2-1.9-5.8-2-9c-0.1-3.2-2.6-4.5-2.6-4.5s3.6-0.1,4.5,6.3c0.9,6.4,8.2,8.5,10.1,17c1.9,8.5,3.3,18.4,13.3,28.8
				C427,307.4,436.3,308.6,434.1,309.6z"/>
			<path class="st10" d="M348.7,147.6c6.6-1,8.9,0,9.3,0.2h0c2.3-0.9,4.9-0.9,6.6,0.1c1.7,1,3.4,2.1,6.7,2c3.3-0.1,3.9-0.9,2.9,0
				c-1,0.9-3,1.8-3.2,2.9c-0.9,5.2,10.1,12.6,17.6,7.3c4.1-2.9,5.4-9.2,6-11.7c0.6-2.5,2.2-3.5,3.8-3.8c1.5-0.2-3.8-0.5-5.6,0.6
				c-3.9,2.3-4,10-11.5,10.8c-4.7,0.5-10-3.7-7.8-4.8c2.3-1.1,2.7-1.9,8.4-8.9c4.1-5.1,8.4-5.5,10.5-5.3c-0.2,0-0.5-0.1-0.7-0.1
				c-6.9-0.8-9.8,3.7-9.8,3.7c-16.8,1.2-20.8-3.1-21.1-4.8c-0.3-2,1.5-3.4,1.5-3.4s2.7,1.3,8.2,1.5c6.9,0.3,8.5-3.5,5.6-7.8
				c-3.6-5.6-6.5-7.9-14.4-5.9c-8,2-13.8,8.3-18.1,11.1s-7.2,5.6-7.6,9C335.4,144.5,341.4,148.7,348.7,147.6z M342.4,132.7
				c4.5-2.7,8.4-6.5,12.1-8.9c3.7-2.5,13.2-5,13.6-2.2c0.4,2.8,2.2,4.1,4.6,4.8c2.4,0.7,4.5,2.5,1.8,4.4c-2.6,2-8.1,0.2-12.1-1.8
				c-4-2-10.2,0.7-15.5,5.1c-4.8,4-5.1,10.2,2.7,8.1c11.3-3.1,6.6-1.3,24.1,0.3c6.7,0.6,4.4,1.9,2.3,4.6c-2.6,3.3-7.6,1.8-10.6,0
				c-3-1.8-6.7-2.6-12.5-1.8c-5.8,0.7-14.2,1.9-15.9-3.2C336.1,139.2,337.2,135.8,342.4,132.7z"/>
			<path class="st10" d="M401.1,141.7c0,0,0.8,4.6,0,6.3c-0.8,1.7-0.8,3.8,2.9,3.2c3.7-0.6,4.8-2.5,4.4-5.8
				c-0.4-3.3,0.4-4.5,0.4-4.5s-0.9,0.5-1.2,3.5c-0.3,3-0.8,4.1-3.5,4.1c-2.5,0-2.6-0.6-2.1-2.9C402.5,143.6,401.1,141.7,401.1,141.7
				z"/>
			<path class="st10" d="M393.4,171c7.9-8.7,17.7-19.1,22.3-22.4c4.5-3.3,4.5-3.3,4.5-3.3s4.5-3.2,7.5-5c-3.4,3.6-11.5,12-18.9,20.5
				c-9.7,11.2-12.4,15.8-12.4,19.3c0,3.5,4.5,32.2,7.3,38.7c2.8,6.5,18.7,27.4,23.9,34.3c0,0-12.2-14.1-18.8-19.5
				c-7.6-6.4-12.7-8.6-15-20.5c-2.3-12-5.1-23.3-5.6-27.5C387.6,181.3,385.5,179.6,393.4,171z"/>
			<path class="st10" d="M354.3,140.3c-8.2,2.4-11.5,1.9-9.3-1.7c2.2-3.7,9.3-6.1,12.3-6.6c3-0.4,5,0.6,5,0.6s-1.8,1.4-1.5,3.4
				c0.2,1.1,1.9,3.2,7.3,4.3l0,0C360.7,139,358.5,139.1,354.3,140.3z"/>
			<path class="st10" d="M379.5,154.2c-3.5-2,2.6-7.2,5.5-11.2c2.9-4,8.6-3.6,11.9-2.7c2.3,0.6-1.4-1.4-5.7-1.7
				c-4.3-0.3-5.4,0.2-8.4,4C380,146.4,373.7,151.6,379.5,154.2z"/>
			<path class="st10" d="M444.2,192.5c0,5.6,0.2,31.3,1,52.6c0.8,21.4-2.3,40.8-2.3,40.8s0,0-2.5,9.7c-2.5,9.7,6.5-6.7,8.4-16.8
				c2.9-15.8,3.6-54.2,3.1-66.5c-0.4-12.3,4.4-29.1,1.7-36.5c-2.7-7.3-13-31.1-13-31.1c-2.2-5.1-3.8-4.3-0.6,7.4
				C443.2,163.8,444.2,179.9,444.2,192.5z"/>
			<path class="st10" d="M437.1,269.8c-7.9-14.6-24-31.5-31.7-37c-7.7-5.5-10.8-8.6-12.1-16.2c-1.3-7.6-5.7-25.4-6.4-30.7
				c-0.8-5.3,1.1,22.6,3.1,34.4c2,11.8,3.1,12.2,11.5,17C410,242.1,426.6,255.9,437.1,269.8z"/>
			<g>
				<path class="st16" d="M366.2,149c1.3,0.7,2.9,1.8,4.6,3.4c-0.3,0.8-1.2,4.2,6.5,7.4c2,3,3.6,6.5,4.5,10
					c4.4,18.6-2.5,24.9-6.8,27.7c-2,1.3-3.2,0.8-3.8,0.3c-0.1-0.1-0.2-0.2-0.3-0.3v0v0c-1.6-1.6-3.3-2.9-5.8-3.6
					c-4.7-1.3-2.2-2.2,0-3.4c3.9-2.1,5.9-11,3-21.6c-4.3-16.1-13.7-12.7-13.8-15.6c-0.2-2.9,1.1-4.5,3.8-5.5c0,0,0,0-0.1,0
					C361.8,146.6,362.8,147.2,366.2,149z"/>
				<path class="st17" d="M354.3,153.3c-0.2-2.9,1.1-4.5,3.8-5.5c0,0,0,0-0.1,0c4.8-2.1,8.1,1.2,8.1,1.2c-4.2-1.9-7.7,1-4.8,2
					c2.9,1.1,16.4,8.6,18.4,19.3c3.6,20.2-8.9,20.9-4.2,20.3c3.9-0.5,6.5-5.8,7.6-6.5c-0.3,2.7-1.4,6.7-4.5,10.4
					c-4.3,4.9-7.3,3.4-7.4,3.4c-1.7-1.7-3.5-3.2-6.1-3.9c-4.7-1.3-2.2-2.2,0-3.4c3.9-2.1,5.9-11,3-21.6
					C363.8,152.8,354.4,156.2,354.3,153.3z"/>
				<path class="st18" d="M354.3,153.3c-0.2-2.8,1-4.4,3.5-5.4c-0.8,0.6-3.1,2.6,1.1,3.9c4.9,1.5,17.3,11.2,17.1,24.6
					c-0.2,13.4-9.1,16.3-3,16.6c5.5,0.2,8.8-4.2,9.3-5c-1,3-2.9,6.1-5.7,8.5c-3.1,2.5-4.7,1.8-5.3,1.4c-0.1-0.1-0.2-0.2-0.3-0.3l0,0
					l0,0c-1.6-1.6-3.3-2.9-5.8-3.6c-4.7-1.3-2.2-2.2,0-3.4c3.9-2.1,5.9-11,3-21.6C363.8,152.8,354.4,156.2,354.3,153.3z"/>
			</g>
			<g>
				<path class="st19" d="M374.3,160.3c0,0,0.2,0.3,0.6,0.8c0.3,0.5,0.8,1.2,1.3,2.1c0.3,0.4,0.5,0.9,0.8,1.5
					c0.3,0.5,0.5,1.1,0.8,1.7c0.2,0.6,0.5,1.2,0.7,1.8c0.1,0.3,0.2,0.6,0.3,1c0.1,0.3,0.2,0.7,0.3,1c0.1,0.3,0.2,0.7,0.3,1
					c0.1,0.3,0.1,0.7,0.2,1c0.2,0.7,0.2,1.3,0.3,2c0.1,0.6,0.1,1.3,0.2,1.9c0.1,0.6,0,1.2,0,1.7c0,0.5,0,1,0,1.4
					c0,0.4-0.1,0.8-0.1,1.1c0,0.6-0.1,1-0.1,1s0.1-0.3,0.3-0.9c0.1-0.3,0.2-0.7,0.3-1.1c0.1-0.4,0.1-0.9,0.2-1.4
					c0-0.3,0.1-0.5,0.1-0.8c0-0.3,0-0.6,0-0.9c0-0.6,0.1-1.3,0-1.9c-0.1-0.7-0.1-1.4-0.3-2c-0.1-0.7-0.3-1.4-0.5-2.1
					c-0.1-0.3-0.2-0.7-0.3-1c-0.1-0.3-0.2-0.7-0.4-1c-0.1-0.3-0.2-0.7-0.4-1c-0.1-0.3-0.3-0.6-0.4-0.9c-0.3-0.6-0.6-1.2-0.9-1.7
					c-0.3-0.5-0.6-1-1-1.4c-0.3-0.4-0.6-0.8-0.9-1.1c-0.3-0.3-0.5-0.6-0.7-0.8C374.6,160.5,374.3,160.3,374.3,160.3z"/>
			</g>
			<path class="st10" d="M342.7,132.9c6.7-3,8.3-6.8,13.9-9.7c5.6-2.9,9.7-1.9,9.7-1.9c1.5,0.2,1.1,0.5-1.1,0.5
				c-2.2,0-8.1,1.4-12.1,5.1c-4.2,3.8-8.3,6.1-10.4,6.6C340.6,134,342.1,133.1,342.7,132.9z"/>
		</g>
		<g>
			<path class="st7" d="M495.2,155.4c5.5-1.8,8.2-0.2,9.4,5.6c1.3,5.8,1,13.4-13.2,10.4c-14.2-3-15.1-4.3-26.4-16.4
				s-18.6-19-29.1-23.1c-10.5-4.1-39.8-2.8-50.3-2.8c-10.5,0-17.4-1.7-18-6.7c-0.6-5,6.3-2.6,20.3-3c14-0.4,41.3-2.4,60.9,10.4
				C468.6,142.5,482.6,159.5,495.2,155.4z"/>
			<g>
				<path class="st15" d="M503.7,158.1c0,0,0,0.2,0.1,0.5c0,0.2,0.1,0.3,0.1,0.6c0,0.2,0,0.5,0.1,0.7c0.1,1.1,0.1,2.5-0.3,3.7
					c-0.1,0.3-0.2,0.6-0.4,0.9c-0.2,0.3-0.4,0.5-0.6,0.8c-0.2,0.2-0.4,0.4-0.7,0.6c-0.2,0.2-0.4,0.4-0.7,0.5
					c-0.2,0.1-0.4,0.3-0.6,0.4c-0.2,0.1-0.4,0.2-0.5,0.2c-0.3,0.1-0.4,0.2-0.4,0.2s0.2,0,0.5-0.1c0.1,0,0.3-0.1,0.5-0.1
					c0.2-0.1,0.4-0.2,0.7-0.3c0.3-0.1,0.5-0.3,0.8-0.4c0.3-0.2,0.5-0.4,0.8-0.6c0.2-0.3,0.5-0.5,0.7-0.8c0.2-0.3,0.4-0.7,0.5-1
					l0.2-0.5c0-0.2,0.1-0.4,0.1-0.6c0-0.2,0-0.4,0.1-0.5c0-0.2,0-0.4,0-0.5c0-0.4,0-0.7-0.1-1c0-0.3-0.1-0.6-0.2-0.9
					c-0.1-0.5-0.3-1-0.4-1.3C503.7,158.2,503.7,158.1,503.7,158.1z"/>
			</g>
			<path class="st10" d="M377.7,125.1c8.3-0.6,28.6-5.4,54.4,1.2c20.3,5.2,39.3,27.6,46.9,35.2c7.6,7.7,22.1,8.4,23.1,1.1
				c0.5-3.7-0.2-6.3-2.2-7.8c2.4,0.4,3.8,2.4,4.6,6.2c1.3,5.8,1,13.4-13.2,10.4c-14.2-3-15.1-4.3-26.4-16.4s-18.6-19-29.1-23.1
				c-10.5-4.1-39.8-2.8-50.3-2.8c-10.5,0-17.4-1.7-18-6.7c-0.1-0.5,0-1,0.1-1.3C368.5,123.5,372,125.5,377.7,125.1z"/>
			<path class="st10" d="M496,156.5c-2.7,1.2-9.8,2-19.9-5.3c-10.1-7.3-22.1-19.8-38.5-26.4c-16.4-6.6-41-5.5-51.6-4.6
				c-2.9,0.3,6.4-0.1,16.2,0.3c9.9,0.4,30.6-2.2,53.9,16.7C468.3,147.1,482.8,164,496,156.5z"/>
		</g>
		<g>
			<g>
				<path class="st7" d="M255.8,320.3c2.5-3.2,13.8-22.3,25-48.2c11.2-25.9,29.9-61.3,37.8-78.2c7.9-16.8,8.1-16,5.8-21.3
					c-2.4-5.3-2.1-8.3,3.7-14.2c6.6-6.6,13.2-8.7,19.2-6.7c0,0,6.2-3,16.6,4.8c10.5,7.8,12.4,21.3,7.8,31.7
					c-4.6,10.4-12.5,9.8-12.5,9.8s-2.3,2.1-7.9,4.7c-5.6,2.6-4.2,0.5-9.3,9.9c-5.1,9.4-27.3,52.6-40.1,77.7
					c-6.8,13.2-13.7,22.1-18.2,29.7c-5.5,9.1-12.9,20.4-7.4,27.7c5,6.8,5,25.8-8.5,28.4c-30.3,5.8-29.2-17.9-29.1-18.9
					c0.2-2.6-0.2-0.1-4.3,1.3c-1.8,0.6,0.6-0.8-1.9-3.8c-2.5-3-3.6-6.5,2.4-11.1C240.8,339,245.5,333.7,255.8,320.3z"/>
				<path class="st20" d="M353.9,159.6c0,0-1.4-8.6-11-8.5"/>
				<g>
					<path class="st9" d="M355.9,200.5c0,0,0.3-0.1,0.9-0.4c0.3-0.1,0.6-0.3,1-0.6c0.4-0.2,0.8-0.5,1.2-0.8c0.4-0.3,0.9-0.7,1.3-1.1
						c0.5-0.4,0.9-0.9,1.4-1.4c0.4-0.5,0.9-1.1,1.3-1.7c0.2-0.3,0.4-0.6,0.6-0.9l0.5-1l0.2-0.5l0.2-0.5c0.1-0.3,0.3-0.7,0.4-1
						c0.2-0.7,0.4-1.4,0.5-2.1c0.1-0.7,0.2-1.4,0.3-2c0-0.2,0-0.3,0.1-0.5c0-0.2,0-0.3,0-0.5c0-0.3,0-0.6,0-0.9c0-0.6,0-1.1-0.1-1.5
						c-0.1-0.4-0.1-0.8-0.1-1.2c-0.1-0.6-0.1-1-0.1-1s0,0.4,0,1c0,0.3,0,0.7,0,1.2c0,0.4,0,0.9-0.1,1.5c0,0.3,0,0.6-0.1,0.9
						c0,0.1,0,0.3,0,0.4c0,0.1-0.1,0.3-0.1,0.5c-0.1,0.6-0.2,1.3-0.4,1.9c-0.2,0.6-0.3,1.3-0.6,2c-0.1,0.3-0.3,0.7-0.4,1l-0.2,0.5
						l-0.2,0.5l-0.5,1c-0.2,0.3-0.4,0.6-0.5,0.9c-0.4,0.6-0.8,1.1-1.2,1.7c-0.2,0.3-0.4,0.5-0.6,0.7c-0.2,0.2-0.4,0.5-0.6,0.7
						c-0.4,0.4-0.8,0.8-1.2,1.2c-0.8,0.7-1.5,1.2-2,1.6C356.2,200.3,355.9,200.5,355.9,200.5z"/>
				</g>
				<g>
					<g>
						<path class="st9" d="M298,250.2c0,0-3.1,5.3-7.7,13.3c-1.2,2-2.4,4.2-3.7,6.5c-1.3,2.3-2.7,4.7-4.1,7.2
							c-1.4,2.5-2.8,5.2-4.2,7.8l-0.5,1l-0.5,1c-0.3,0.7-0.7,1.4-1,2.1c-0.7,1.4-1.3,2.8-2,4.2c-0.7,1.4-1.3,2.8-1.9,4.2
							c-0.6,1.4-1.2,2.8-1.8,4.2c-0.6,1.4-1.1,2.8-1.6,4.2c-0.5,1.4-1,2.8-1.5,4.2c-1,2.7-1.9,5.4-2.7,7.9c-0.9,2.5-1.7,4.9-2.4,7.1
							c-1.5,4.4-2.7,8.1-3.5,10.7c-0.9,2.6-1.4,4-1.4,4s0.4-1.5,1.2-4.1c0.8-2.6,1.9-6.3,3.3-10.8c0.7-2.2,1.5-4.6,2.3-7.2
							c0.8-2.5,1.6-5.2,2.7-8c0.5-1.4,1-2.8,1.5-4.2c0.5-1.4,1-2.8,1.6-4.2c0.6-1.4,1.2-2.8,1.8-4.3c0.6-1.4,1.1-2.9,1.9-4.3
							c0.7-1.4,1.4-2.8,2-4.2c0.3-0.7,0.7-1.4,1-2.1l0.5-1l0.5-1c1.5-2.7,2.9-5.3,4.3-7.8c1.4-2.5,2.9-4.9,4.2-7.2
							c1.4-2.3,2.6-4.4,3.8-6.4C294.7,255.5,298,250.2,298,250.2z"/>
					</g>
					<g>
						<path class="st9" d="M267.1,334.1c0,0,0,0.1-0.1,0.3c-0.1,0.2-0.2,0.5-0.2,0.9c-0.1,0.4-0.2,0.8-0.3,1.3
							c0,0.3-0.1,0.5-0.1,0.8c0,0.3,0,0.6,0,0.9c0,0.6,0,1.3,0.2,2.1c0.1,0.4,0.2,0.7,0.3,1.1c0.2,0.3,0.3,0.7,0.5,1
							c0.2,0.3,0.4,0.6,0.7,1c0.1,0.1,0.3,0.3,0.4,0.4c0.1,0.1,0.3,0.3,0.4,0.4c0.6,0.5,1.4,0.9,2.1,1.2l1.2,0.5
							c0.4,0.2,0.8,0.3,1.1,0.6c0.7,0.5,1.5,0.9,2,1.5c0.2,0.1,0.3,0.3,0.5,0.4l0.2,0.2l0.2,0.2c0.3,0.3,0.5,0.6,0.7,0.9
							c0.3,0.3,0.4,0.6,0.6,0.9c0.2,0.3,0.4,0.6,0.5,0.9c0.1,0.3,0.3,0.6,0.4,0.9c0.1,0.1,0.1,0.3,0.2,0.4c0,0.1,0.1,0.3,0.1,0.4
							c0.1,0.5,0.3,1,0.3,1.4c0.1,0.8,0.1,1.2,0.1,1.2s-0.1-0.4-0.2-1.2c0-0.4-0.3-0.8-0.4-1.3c0-0.1-0.1-0.3-0.1-0.4
							c-0.1-0.1-0.1-0.2-0.2-0.4c-0.1-0.3-0.3-0.5-0.4-0.8c-0.1-0.3-0.4-0.5-0.5-0.8c-0.2-0.3-0.4-0.6-0.6-0.8
							c-0.5-0.5-1-1.1-1.6-1.6c-0.3-0.2-0.6-0.5-0.9-0.7c-0.3-0.2-0.7-0.4-1-0.6c-0.3-0.2-0.7-0.4-1.1-0.6l-1.1-0.5
							c-0.8-0.3-1.6-0.7-2.3-1.3c-0.7-0.5-1.3-1.2-1.7-2c-0.2-0.4-0.4-0.8-0.5-1.1c-0.1-0.4-0.2-0.8-0.3-1.2
							c-0.1-0.8-0.1-1.5-0.1-2.2c0-0.3,0.1-0.7,0.1-1c0.1-0.3,0.1-0.6,0.2-0.8c0.1-0.5,0.3-1,0.4-1.3c0.1-0.4,0.3-0.6,0.3-0.8
							C267,334.2,267.1,334.1,267.1,334.1z"/>
					</g>
					<g>
						<path class="st9" d="M260.6,341.8c0,0,0,0.4-0.1,1.1c0,0.4,0,0.8,0,1.3c0,0.5,0.1,1,0.2,1.6c0.1,0.6,0.3,1.2,0.5,1.9
							c0.2,0.7,0.5,1.3,0.7,2.1c0.2,0.7,0.5,1.5,0.6,2.3c0.1,0.8,0.2,1.7,0.1,2.5c0,0.4-0.1,0.8-0.1,1.3c-0.1,0.4-0.2,0.8-0.3,1.2
							c-0.3,0.8-0.6,1.6-1.1,2.2c-0.1,0.2-0.2,0.3-0.4,0.5c-0.1,0.1-0.3,0.3-0.4,0.4c-0.3,0.3-0.6,0.5-0.8,0.7
							c-0.6,0.4-1.2,0.7-1.7,0.9c-0.6,0.2-1.1,0.4-1.6,0.4c-0.5,0.1-0.9,0.1-1.2,0.2c-0.7,0.1-1.1,0-1.1,0s0.4,0,1.1-0.2
							c0.3-0.1,0.7-0.2,1.2-0.3c0.5-0.1,0.9-0.3,1.5-0.6c0.5-0.3,1.1-0.6,1.6-1c0.3-0.2,0.5-0.4,0.7-0.7c0.1-0.1,0.2-0.3,0.4-0.4
							c0.1-0.1,0.2-0.3,0.3-0.4c0.4-0.6,0.7-1.3,0.9-2c0.1-0.4,0.2-0.8,0.3-1.2c0.1-0.3,0.1-0.8,0.1-1.2c0-0.8,0-1.6-0.1-2.4
							c-0.1-0.8-0.3-1.5-0.5-2.3c-0.2-0.7-0.4-1.4-0.6-2.1c-0.2-0.7-0.3-1.4-0.4-2c-0.1-0.6-0.1-1.2-0.1-1.7c0-0.5,0.1-0.9,0.1-1.3
							C260.6,342.2,260.6,341.8,260.6,341.8z"/>
					</g>
					<g>
						<path class="st9" d="M257.3,358.5c0,0,0.2-0.1,0.5-0.3c0.2-0.1,0.4-0.2,0.6-0.3c0.2-0.1,0.4-0.3,0.7-0.5
							c0.2-0.2,0.5-0.4,0.8-0.7c0.2-0.3,0.5-0.5,0.7-0.9c0.2-0.3,0.4-0.7,0.5-1c0.1-0.4,0.2-0.8,0.3-1.2c0-0.2,0.1-0.4,0.1-0.6
							c0-0.2,0-0.4,0-0.6c0-0.4,0-0.8-0.1-1.2c0-0.4-0.1-0.8-0.1-1.2c-0.1-0.4-0.1-0.7-0.2-1c-0.1-0.6-0.2-1.2-0.3-1.6
							c-0.1-0.4-0.1-0.6-0.1-0.6s0.1,0.2,0.2,0.6c0.1,0.4,0.3,0.9,0.5,1.5c0.2,0.6,0.4,1.4,0.5,2.2c0.1,0.4,0.1,0.9,0.1,1.3
							c0,0.2,0,0.5,0,0.7c0,0.2,0,0.5-0.1,0.7c-0.1,0.2-0.1,0.5-0.1,0.7c-0.1,0.2-0.1,0.4-0.2,0.7c-0.2,0.4-0.4,0.8-0.7,1.2
							c-0.2,0.4-0.6,0.6-0.8,0.9c-0.3,0.2-0.6,0.4-0.9,0.6c-0.3,0.1-0.6,0.3-0.8,0.4c-0.2,0.1-0.5,0.2-0.6,0.2
							C257.5,358.4,257.3,358.5,257.3,358.5z"/>
					</g>
					<g>
						<g>
							<path class="st9" d="M238.9,361.5c0,0,0-0.1-0.1-0.4c0-0.3-0.1-0.7-0.1-1.2c0-0.5-0.1-1.1-0.1-1.9c0-0.7,0-1.5,0.1-2.4
								c0.1-0.9,0.3-1.8,0.6-2.8c0.1-0.5,0.4-1,0.6-1.5c0.2-0.5,0.5-1,0.7-1.4c0.3-0.5,0.6-1,0.9-1.4c0.3-0.5,0.6-0.9,1-1.4
								c0.7-0.9,1.4-1.8,2.2-2.7c0.8-0.8,1.6-1.7,2.3-2.5c0.8-0.8,1.5-1.7,2.2-2.5c0.7-0.8,1.3-1.6,2-2.4c0.6-0.8,1.2-1.5,1.7-2.2
								c0.5-0.7,0.9-1.4,1.2-2c0.4-0.6,0.6-1.2,0.8-1.6c0.2-0.5,0.3-0.8,0.4-1.1c0.1-0.3,0.1-0.4,0.1-0.4s0,0.1-0.1,0.4
								c-0.1,0.3-0.2,0.7-0.4,1.1c-0.2,0.5-0.4,1.1-0.7,1.7c-0.3,0.7-0.7,1.3-1.2,2.1c-0.5,0.7-1,1.5-1.6,2.3
								c-0.6,0.8-1.2,1.7-1.9,2.5c-0.7,0.8-1.4,1.7-2.2,2.5c-0.8,0.8-1.5,1.7-2.3,2.5c-0.8,0.8-1.5,1.7-2.2,2.6
								c-0.3,0.4-0.7,0.9-1,1.3c-0.3,0.4-0.6,0.9-0.9,1.4c-0.5,0.9-1,1.9-1.3,2.8c-0.4,0.9-0.6,1.8-0.7,2.7
								c-0.1,0.9-0.2,1.7-0.2,2.4c0,0.7,0,1.3,0,1.8C238.9,361,238.9,361.5,238.9,361.5z"/>
						</g>
					</g>
				</g>
				<path class="st10" d="M364.1,156.7c-10.5-7.8-16.6-4.8-16.6-4.8c-6-2-12.7,0.1-19.2,6.7c-5.9,5.9-6.1,8.9-3.7,14.2
					c2.4,5.3,2.1,4.4-5.8,21.3c-7.9,16.8-26.6,52.2-37.8,78.2c-11.2,25.9-22.6,45-25,48.2c-10.3,13.4-15.1,18.7-21,23.3
					c-6,4.6-4.8,8.2-2.4,11.1c2.5,3,0.1,4.4,1.9,3.8c4.1-1.3,4.5-3.9,4.3-1.3c-0.1,1-1.2,24.7,29.1,18.9
					c13.5-2.6,13.6-21.7,8.5-28.4c-5.5-7.3,2-18.6,7.4-27.7c4.5-7.5,11.5-16.5,18.2-29.7c12.8-25.1,35-68.3,40.1-77.7
					c5.1-9.4,3.7-7.3,9.3-9.9c5.6-2.6,7.9-4.7,7.9-4.7s8,0.7,12.5-9.8C376.5,177.9,374.6,164.5,364.1,156.7z M369.1,188.1
					c-2.9,4.6-2.3-2.3-3.5-7.7c-1.2-5.4,0.7,5.5-9.2,12.4c-9.9,6.9-13.7,4.7-17.4,13.6c-4.7,11.5-10.8,21.3-16,32.3
					c-5.2,11-15.2,28.7-18.8,35.1c-8.5,15.2-13.1,24.7-20.6,36.4c-13,20.3-17.8,21.8-17.6,28.5c0.2,6.2,4.6,8.1,7.5,12.9
					c2.5,4.2,4.5,16.8-7.8,19c-11.3,2-21.6,0.2-23.8-7.6c-2.8-9.8,3.9-17.6,10-25.7c6.1-8.2,8.9-12.8,7.1-6.6
					c-1.9,6.2-3,17.2-1.3,13c2.9-7.4,8.6-23.8,14.9-38c6.1-13.7,10.5-22.5,18-37.9c14.4-29.7,25-56.1,29.7-67.3
					c4.6-11.2,9.6-17.7,7.3-25.8c-2.9-10.1,1.2-15.6,4.9-18.6c9-7.5,20.3,1.2,15.8,2c-6,1.1-11.6,3-12.6,8.8
					c-1.8,9.4,1.7,11.1-1,16.3c-1,1.8,3.8-0.8,3.5-5.4c-0.2-4.6,0.8-9.4,3.7-12.3c2.8-3,14.9-6.8,18.7-4.3c3.9,2.5,7.7,11,8.4,16.3
					c0.7,5.3,3.4-3.8-2.1-12.4c-5.4-8.6-8.2-6.2-11.1-7.9c-2.9-1.7-3.3-4.4-0.8-4.1c2.5,0.3,13.9,5.3,16.7,16.7
					C373.5,176.8,372.6,182.4,369.1,188.1z"/>
				<g>
					<path class="st16" d="M365.4,188.1c3-11.2,1.2-24-4-27.5c-2.5-1.7-7.5-1-7.5-1s-0.6-5.3-6.4-7.8c0,0,6.2-3,16.6,4.8
						c10.5,7.8,12.4,21.3,7.8,31.7c-4.6,10.4-12.5,9.8-12.5,9.8S363.3,195.8,365.4,188.1z"/>
					<path class="st17" d="M366.3,184.2c0.5,4.1,0.7,7.4,2.9,3.9c3.5-5.7,4.4-11.3,2.7-18.2c-2.8-11.5-14.2-16.5-16.7-16.7
						c-2.5-0.3-2.1,2.4,0.8,4.1c2.9,1.7,5.6-0.8,11.1,7.9c5.4,8.6,2.8,17.7,2.1,12.4c-0.4-3.4-2.2-8.1-4.3-11.7
						c-0.5-1.6-1.1-2.9-1.6-3.6c-2.8-4-9.2-2.6-9.2-2.6c-0.8-5.8-6.4-7.8-6.4-7.8l0,0c0.8-0.3,6.8-2.4,16.5,4.9
						c10.5,7.8,12.4,21.3,7.8,31.7c-4.3,9.8-11.5,9.8-12.4,9.8l0,0C363.5,194.5,365.5,189.5,366.3,184.2z"/>
				</g>
				<g>
					<path class="st19" d="M355.8,159.1c1.8-0.1,3.7,0.1,5.3,1c1.6,0.9,2.8,2.2,3.8,3.4c0.3,0.3,0.5,0.6,0.7,1
						c0.2,0.3,0.4,0.7,0.6,1c0.4,0.7,0.8,1.3,1.1,1.9c0.2,0.3,0.3,0.6,0.5,0.9c0.1,0.2,0.2,0.3,0.2,0.5c0.1,0.2,0.1,0.3,0.2,0.5
						c0.2,0.6,0.4,1.2,0.6,1.8c0.2,0.6,0.3,1.1,0.4,1.6c0.1,0.5,0.2,0.9,0.3,1.4c0.2,0.8,0.2,1.5,0.3,1.9c0.1,0.4,0.1,0.7,0.1,0.7
						s0-0.2-0.1-0.7c-0.1-0.4-0.2-1.1-0.5-1.9c-0.1-0.4-0.3-0.8-0.4-1.3c-0.2-0.5-0.4-1-0.5-1.5c-0.5-1.1-1-2.2-1.6-3.5
						c-0.3-0.6-0.7-1.2-1.1-1.9c-0.2-0.3-0.4-0.7-0.6-1c-0.2-0.3-0.5-0.6-0.7-1c-1-1.2-2.2-2.5-3.6-3.3c-1.5-0.8-3.2-1-5-0.9
						c-0.6,0-1.5,0.2-2.2,0.2l-0.1-0.6C354.2,159.3,355.2,159.2,355.8,159.1z"/>
					<path class="st9" d="M339.2,167c0.5-0.7,1-1.4,1.7-2c1.3-1.2,2.8-2.3,4.4-3.1c1.6-0.8,3.4-1.4,5.2-1.9c1.1-0.3,2-0.5,3.2-0.6
						l0.1,0.6c-1.1,0.2-2,0.3-3.1,0.6c-3.5,0.9-6.8,2.5-9.3,4.8c-0.6,0.6-1.1,1.2-1.6,1.9c-0.5,0.7-0.8,1.4-1.1,2.1
						c-0.6,1.4-1,2.9-1.2,4.3c-0.1,0.7-0.1,1.4-0.1,2c0,0.6-0.1,1.3-0.1,1.8c-0.1,1.2-0.4,2.2-0.7,2.9c-0.3,0.8-0.7,1.3-0.9,1.7
						c-0.2,0.4-0.4,0.6-0.4,0.6s0.1-0.2,0.3-0.6c0.2-0.4,0.5-1,0.7-1.7c0.3-0.8,0.5-1.7,0.5-2.9c0-0.6,0-1.2,0-1.8
						c0-0.6,0-1.3,0.1-2.1c0.1-1.4,0.6-3,1.2-4.5C338.3,168.5,338.7,167.7,339.2,167z"/>
				</g>
				<path class="st10" d="M238.9,361.5c-0.5-5.3-0.6-9.8,6.6-17.4c7.2-7.7,9.1-11.2,10-14.3c0,0-3.4,6.4-10.8,12
					C237.3,347.4,237.5,354.9,238.9,361.5z"/>
			</g>
			<path class="st10" d="M264.6,337.3c1.2-7.7,11.7-16.6,36-62.4c24.3-45.8,30.3-70.4,30.3-70.4c-31.9,70.1-65.7,124.8-69.2,131.3
				c-2.5,4.7,1,8.2,5.3,16c4.3,7.8,2.5,16.6-10.1,16.6c-2.5,0,10.6,6,15.2-5.7C276.7,350.9,263.5,344.5,264.6,337.3z"/>
			<path class="st10" d="M365.5,172.8c-1.1-7.3-3.4-8.9-6.3-10.3c-2.2-1-10.5-0.5-14.7,1.9c-4.3,2.4-5.5,9.2-5.3,14
				c0,0,1.9-5.6,5.2-9.3c3.3-3.7,11-4,14-3.6C363.3,166.2,365.5,172.8,365.5,172.8z"/>
			<path class="st10" d="M251.8,362.5c12,3.4,13-8.1,11.5-11.2s-3.5-6.7-2.6-9.5c0,0-1.7,3.7-0.6,7.1s-0.5,8.8-4.6,9.6
				c0,0,1.5,1.1,3.4,0C258.9,358.5,257.2,362.6,251.8,362.5z"/>
			<path class="st10" d="M299.5,246.7c-35.6,46.6-42.2,93.1-42.2,93.1S272.7,291.6,299.5,246.7z"/>
			<path class="st10" d="M268.8,338.7c-0.1,4.7,5,5.4,6.8,8.1c2.5,3.6,3.3,7.9,3.3,7.9c-1.5-8.1-10.9-7.7-12.3-12.9
				c-2.6-10.1,5.5-11.9,17-31.6c11.5-19.8,18-31.8,18-31.8s-4.3,12.4-16.5,32.4C273.2,330.7,268.9,331.9,268.8,338.7z"/>
			<path class="st10" d="M256.6,334.1c0,0-12.9,13.2-13.8,23.7c-0.5,6.2,2.4,9.8,6.9,11C249.8,368.7,235.8,361.5,256.6,334.1z"/>
		</g>
	</g>
	<g>
		<g>
			<g>
				<path class="st21" d="M517.9,352.8c0,0-0.2,0.1-0.5,0.2c-0.3,0.2-0.9,0.3-1.5,0.7c-1.3,0.6-3.2,1.6-5.5,3.2
					c-2.3,1.5-4.9,3.6-7.8,6.1c-2.9,2.5-6.2,5.4-10.2,8c-1,0.7-2,1.4-3,2.1c-0.5,0.3-1,0.8-1.5,1.1c-0.5,0.4-1,0.8-1.5,1.2
					c-1.9,1.7-3.7,3.7-5.4,5.8c-1.7,2.1-3.6,4.3-5.5,6.4c-0.5,0.5-1,1.1-1.4,1.6c-0.5,0.5-0.9,1.1-1.4,1.7c-0.9,1.2-1.7,2.4-2.8,3.5
					c-1,1.1-2.2,2.2-3.7,2.8c-1.4,0.6-3,0.8-4.5,0.8c-1.5,0-3-0.1-4.5-0.4c-1.5-0.2-3-0.5-4.5-0.9c-6-1.4-11.9-3.4-17.8-5.5
					c-11.7-4.3-23.4-8.6-34.4-12.6c-2.7-1-5.4-2-8.1-3c-2.6-1-5.2-2-7.7-3c-5-2-9.7-3.9-14-5.6c-4.4-1.6-8.3-3.5-11.7-5.1
					c-3.5-1.6-6.5-3-9-4.1c-5-2.3-7.8-3.6-7.8-3.6s2.9,1.2,7.9,3.3c2.5,1.1,5.6,2.3,9.1,3.8c1.8,0.7,3.6,1.5,5.6,2.4
					c1,0.4,2,0.9,3,1.3c1,0.4,2.1,0.8,3.2,1.3c4.3,1.7,9.1,3.6,14,5.6c2.5,1,5,2,7.7,3c2.6,1,5.3,2,8.1,3c11,4,22.7,8.3,34.4,12.6
					c5.9,2,11.8,4,17.7,5.4c1.5,0.3,3,0.7,4.5,0.9c1.5,0.2,3,0.4,4.4,0.3c1.5,0,2.9-0.2,4.2-0.8c1.3-0.5,2.5-1.5,3.4-2.6
					c1-1.1,1.8-2.3,2.7-3.5c0.4-0.6,0.9-1.2,1.4-1.7c0.5-0.5,1-1.1,1.4-1.6c1.9-2.1,3.7-4.3,5.5-6.4c1.8-2.1,3.5-4.1,5.5-5.8
					c0.5-0.5,1-0.8,1.5-1.2c0.5-0.4,1-0.8,1.5-1.2c1-0.7,2-1.4,3-2.1c2-1.3,3.7-2.7,5.4-4c1.7-1.3,3.3-2.6,4.8-3.8
					c3-2.4,5.7-4.4,8-5.9c2.3-1.5,4.3-2.4,5.6-3c0.7-0.3,1.2-0.5,1.6-0.6C517.7,352.9,517.9,352.8,517.9,352.8z"/>
			</g>
		</g>
		<g>
			<path class="st21" d="M309.7,342.4c0,0-0.3-0.1-0.9-0.2c-0.3-0.1-0.6-0.1-1-0.2c-0.4-0.1-0.8-0.2-1.3-0.3c-0.5-0.1-1-0.2-1.6-0.3
				c-0.6-0.1-1.2-0.2-1.8-0.3c-0.6-0.1-1.2-0.2-1.9-0.3c-0.6-0.1-1.3-0.2-2-0.3c-0.7-0.1-1.3-0.2-2-0.2c-0.3,0-0.6-0.1-1-0.1
				c-0.3,0-0.6,0-0.9-0.1c-0.6,0-1.2-0.1-1.8-0.1c-0.6,0-1.1-0.1-1.6-0.1c-1,0-1.8,0-2.4,0c-0.6,0-0.9,0-0.9,0s0.3,0,0.9-0.1
				c0.6-0.1,1.4-0.2,2.4-0.3c0.5-0.1,1,0,1.6,0c0.6,0,1.2,0,1.8,0c0.3,0,0.6,0,1,0c0.3,0,0.6,0.1,1,0.1c0.7,0.1,1.3,0.1,2,0.2
				c0.7,0.1,1.3,0.2,2,0.3c0.6,0.1,1.3,0.2,1.9,0.4c0.6,0.1,1.2,0.3,1.8,0.4c0.6,0.1,1.1,0.3,1.6,0.4c1,0.3,1.8,0.6,2.3,0.8
				C309.4,342.3,309.7,342.4,309.7,342.4z"/>
		</g>
		<g>
			<path class="st21" d="M364.6,215.5c0,0-0.1,0.1-0.3,0.4c-0.2,0.3-0.5,0.6-0.9,1.1c-0.4,0.5-0.8,1.1-1.3,1.8
				c-0.2,0.4-0.5,0.7-0.8,1.1c-0.3,0.4-0.6,0.8-0.9,1.2c-0.6,0.9-1.2,1.8-1.9,2.8c-0.7,1-1.3,2.2-1.9,3.3c-0.7,1.1-1.3,2.4-1.9,3.6
				c-0.6,1.3-1.3,2.5-1.8,3.8c-0.6,1.3-1.1,2.6-1.6,3.9c-0.5,1.3-1,2.6-1.5,3.8c-1,2.5-1.9,4.8-2.7,6.8c-0.2,0.5-0.4,1-0.6,1.4
				c-0.2,0.4-0.4,0.9-0.6,1.3c-0.4,0.8-0.7,1.5-1,2c-0.5,1.1-0.8,1.8-0.8,1.8s0.2-0.7,0.6-1.9c0.2-0.6,0.4-1.3,0.7-2.1
				c0.1-0.4,0.3-0.9,0.4-1.3c0.2-0.5,0.4-0.9,0.6-1.4c0.8-2,1.7-4.3,2.7-6.8c0.5-1.2,1-2.5,1.5-3.8c0.5-1.3,1.1-2.6,1.7-4
				c0.5-1.3,1.2-2.6,1.8-3.9c0.6-1.3,1.2-2.5,1.9-3.7c0.7-1.2,1.3-2.3,2-3.3c0.7-1,1.3-2,1.9-2.9c0.3-0.4,0.6-0.8,0.9-1.2
				c0.3-0.4,0.6-0.7,0.9-1c0.6-0.6,1.1-1.2,1.5-1.6c0.4-0.4,0.8-0.7,1.1-1C364.5,215.6,364.6,215.5,364.6,215.5z"/>
		</g>
		<g>
			<path class="st21" d="M518.8,366.2c0,0,0.1,0.1,0.3,0.4c0.2,0.3,0.5,0.6,0.9,1.1c0.4,0.4,0.9,1,1.6,1.6c0.3,0.3,0.6,0.6,1,0.9
				c0.3,0.3,0.7,0.7,1.1,1c0.4,0.4,0.8,0.7,1.2,1.1c0.4,0.4,0.9,0.8,1.3,1.1c0.5,0.4,0.9,0.8,1.4,1.2c0.5,0.4,1,0.8,1.5,1.2
				c1,0.8,2.1,1.6,3.2,2.5c1.1,0.9,2.2,1.7,3.3,2.6c1.1,0.9,2.1,1.8,3.1,2.8c0.5,0.5,1,1,1.5,1.4c0.5,0.5,1,1,1.4,1.4
				c0.5,0.5,0.9,1,1.3,1.4c0.4,0.5,0.8,0.9,1.2,1.4c0.4,0.5,0.8,0.9,1.1,1.4c0.3,0.5,0.7,0.9,1,1.3c0.3,0.5,0.6,0.9,0.9,1.3
				c0.2,0.4,0.4,0.9,0.6,1.2c0.4,0.8,0.7,1.5,0.9,2.1c0.2,0.6,0.3,1.1,0.4,1.4c0.1,0.3,0.1,0.5,0.1,0.5s-0.1-0.2-0.2-0.5
				c-0.1-0.3-0.3-0.8-0.6-1.3c-0.2-0.6-0.6-1.2-1.1-2c-0.5-0.7-1-1.5-1.6-2.4c-0.3-0.4-0.6-0.9-1-1.3c-0.3-0.4-0.7-0.9-1.1-1.4
				c-0.4-0.5-0.8-0.9-1.2-1.4c-0.4-0.5-0.9-0.9-1.3-1.4c-0.5-0.5-0.9-0.9-1.4-1.4c-0.5-0.5-1-0.9-1.5-1.4c-1-0.9-2.1-1.9-3.1-2.8
				c-1.1-0.9-2.2-1.8-3.2-2.6c-1.1-0.8-2.2-1.7-3.2-2.5c-0.5-0.4-1-0.8-1.5-1.2c-0.5-0.4-1-0.8-1.4-1.2c-0.5-0.4-0.9-0.8-1.3-1.2
				c-0.4-0.4-0.8-0.8-1.2-1.1c-0.4-0.4-0.8-0.7-1.1-1.1c-0.3-0.4-0.6-0.7-0.9-1c-0.5-0.7-1-1.3-1.4-1.8
				C519.1,366.8,518.8,366.2,518.8,366.2z"/>
		</g>
		<g>
			<path class="st21" d="M523.9,381c0,0,0,0,0,0.1c0,0.1,0.1,0.2,0.1,0.4c0.1,0.3,0.3,0.8,0.5,1.3c0.2,0.6,0.6,1.2,1,2
				c0.2,0.4,0.5,0.7,0.7,1.1c0.3,0.4,0.5,0.8,0.8,1.3c0.6,0.8,1.3,1.8,2,2.7c0.4,0.4,0.8,0.9,1.2,1.4c0.4,0.5,0.8,1,1.3,1.4
				c1,0.9,1.9,1.8,3,2.7c1.1,0.9,2.1,1.7,3.2,2.6c1.1,0.9,2.1,1.8,3.2,2.7c1,0.9,2.1,1.8,3,2.7c1,0.9,1.9,1.8,2.7,2.7
				c0.8,0.9,1.5,1.8,2.1,2.7c0.3,0.5,0.6,0.9,0.8,1.3c0.2,0.4,0.4,0.9,0.6,1.3c0.3,0.8,0.5,1.6,0.7,2.2c0.2,0.6,0.2,1.1,0.2,1.4
				c0,0.3,0,0.5,0,0.5s0-0.2-0.1-0.5c-0.1-0.3-0.2-0.8-0.4-1.4c-0.2-0.6-0.5-1.3-0.9-2c-0.2-0.4-0.4-0.7-0.7-1.2
				c-0.3-0.4-0.5-0.8-0.8-1.3c-0.6-0.8-1.3-1.7-2.1-2.6c-0.8-0.9-1.7-1.8-2.6-2.7c-0.9-0.9-2-1.8-3-2.7c-1-0.9-2.1-1.8-3.2-2.7
				c-1.1-0.9-2.1-1.8-3.2-2.6c-1.1-0.9-2-1.8-3-2.7c-0.5-0.4-0.9-0.9-1.4-1.4c-0.4-0.5-0.8-0.9-1.3-1.4c-0.8-0.9-1.4-1.9-2.1-2.7
				c-0.6-0.9-1.1-1.8-1.4-2.6c-0.3-0.8-0.6-1.5-0.8-2.1c-0.2-0.6-0.3-1.1-0.4-1.4c0-0.2-0.1-0.3-0.1-0.4
				C523.9,381.1,523.9,381,523.9,381z"/>
		</g>
		<g>
			<path class="st21" d="M523.1,403.7c0,0,0,0.2,0,0.5c0,0.3,0.1,0.8,0.2,1.4c0.1,0.6,0.4,1.3,0.7,2c0.2,0.4,0.4,0.7,0.7,1.1
				c0.2,0.4,0.5,0.8,0.8,1.2c0.6,0.8,1.4,1.5,2.2,2.3c0.9,0.7,1.9,1.4,2.9,2.1c2,1.5,4.1,3.1,6.2,4.8c2.1,1.7,4.1,3.5,5.9,5.2
				c0.9,0.9,1.8,1.7,2.6,2.6c0.8,0.9,1.5,1.7,2,2.7l0.1,0.2l0.1,0.2c0,0.1,0.1,0.2,0.1,0.4c0.1,0.2,0.2,0.4,0.2,0.7
				c0.1,0.5,0.1,1,0.1,1.4c0,0.9-0.2,1.6-0.3,2.2c-0.2,0.6-0.4,1-0.5,1.3c-0.1,0.3-0.2,0.4-0.2,0.4s0.1-0.2,0.2-0.5
				c0.1-0.3,0.2-0.8,0.3-1.3c0.1-0.6,0.2-1.3,0-2.1c0-0.4-0.1-0.8-0.2-1.2c0-0.2-0.2-0.4-0.2-0.7c0-0.1-0.1-0.2-0.1-0.4l-0.1-0.2
				l-0.1-0.2c-0.4-0.8-1.1-1.7-1.9-2.5c-0.8-0.9-1.6-1.7-2.5-2.6c-1.8-1.7-3.8-3.5-5.9-5.2c-2.1-1.7-4.2-3.4-6.2-4.8
				c-1-0.7-2-1.4-2.9-2.1c-0.9-0.7-1.7-1.5-2.3-2.4c-0.2-0.2-0.3-0.4-0.5-0.6c-0.2-0.2-0.3-0.4-0.4-0.6c-0.2-0.4-0.4-0.8-0.6-1.2
				c-0.3-0.8-0.5-1.5-0.5-2.2c-0.1-0.6,0-1.1,0-1.4C523.1,403.8,523.1,403.7,523.1,403.7z"/>
		</g>
		<g>
			<path class="st21" d="M512.1,440.2c0,0,0.3-0.2,0.9-0.6c0.3-0.2,0.7-0.4,1.1-0.6c0.2-0.1,0.4-0.2,0.7-0.4
				c0.2-0.1,0.5-0.2,0.8-0.3c1.1-0.4,2.4-0.9,3.8-1.3c1.4-0.5,2.9-0.9,4.5-1.2c0.8-0.2,1.5-0.3,2.3-0.5c0.8-0.1,1.5-0.3,2.3-0.4
				c0.7-0.1,1.4-0.2,2.1-0.2c0.7,0,1.3-0.1,1.9-0.1c0.3,0,0.6,0,0.9,0c0.3,0,0.5,0.1,0.8,0.1c0.5,0.1,0.9,0.2,1.2,0.2
				c0.7,0.1,1.1,0.2,1.1,0.2s-0.4,0-1.1,0c-0.3,0-0.8,0-1.2,0c-0.2,0-0.5,0.1-0.8,0.1c-0.3,0-0.5,0-0.8,0c-0.6,0-1.2,0.1-1.9,0.1
				c-0.7,0-1.4,0.1-2.1,0.2c-0.7,0.1-1.5,0.2-2.2,0.4c-0.8,0.1-1.5,0.3-2.3,0.5c-1.5,0.4-3,0.8-4.4,1.2c-1.4,0.4-2.7,0.9-3.8,1.3
				c-0.3,0.1-0.5,0.2-0.8,0.3c-0.3,0.1-0.5,0.1-0.7,0.2c-0.5,0.1-0.9,0.3-1.2,0.4C512.5,440.1,512.1,440.2,512.1,440.2z"/>
		</g>
		<g>
			<path class="st21" d="M528.5,435.3c0,0-0.2,0.1-0.5,0.2c-0.2,0.1-0.3,0.1-0.5,0.2c-0.1,0.1-0.2,0.1-0.3,0.2
				c-0.1,0.1-0.2,0.1-0.4,0.1c-0.5,0.2-1.1,0.5-1.5,1c-0.2,0.2-0.4,0.5-0.6,0.8c-0.2,0.3-0.3,0.7-0.4,1c0,0.2-0.1,0.4-0.1,0.5
				c0,0.2,0,0.4,0,0.6c0,0.2,0,0.4,0,0.6c0,0.2,0,0.4,0.1,0.5c0.1,0.3,0.1,0.7,0.2,1c0.1,0.2,0.1,0.3,0.1,0.4
				c0.1,0.1,0.1,0.3,0.2,0.4c0.1,0.2,0.2,0.5,0.3,0.7c0.1,0.2,0.2,0.4,0.3,0.5c0.2,0.3,0.3,0.4,0.3,0.4s0,0-0.1,0
				c-0.1,0-0.2-0.1-0.4-0.2c-0.1-0.1-0.3-0.2-0.5-0.4c-0.1-0.1-0.2-0.2-0.3-0.3c-0.1-0.1-0.1-0.3-0.2-0.4c-0.1-0.1-0.2-0.3-0.2-0.4
				c-0.1-0.2-0.1-0.3-0.2-0.5c-0.1-0.3-0.2-0.7-0.3-1.1c-0.1-0.4-0.1-0.8-0.1-1.2c0-0.2,0-0.4,0-0.6c0-0.3,0.1-0.4,0.1-0.7
				c0.1-0.4,0.2-0.8,0.4-1.2c0.2-0.4,0.4-0.7,0.7-1c0.6-0.6,1.2-0.9,1.8-1.1c0.1,0,0.3-0.1,0.4-0.1c0.1,0,0.3,0,0.4,0
				c0.2,0,0.5,0,0.6,0C528.3,435.2,528.5,435.3,528.5,435.3z"/>
		</g>
		<g>
			<path class="st21" d="M512.1,399.2c0,0,0.6-0.1,1.5,0.1c0.2,0,0.5,0.1,0.7,0.2c0.3,0.1,0.5,0.2,0.8,0.3c0.3,0.2,0.6,0.3,0.8,0.5
				l0.4,0.3c0.1,0.1,0.2,0.2,0.3,0.4c0.8,1,1.5,2,2,2.8c0.5,0.8,0.8,1.4,0.8,1.4s-0.5-0.4-1.1-1.1c-0.6-0.7-1.4-1.6-2.2-2.6
				c-0.1-0.1-0.2-0.3-0.3-0.4l-0.3-0.3c-0.2-0.2-0.4-0.3-0.6-0.5c-0.2-0.1-0.5-0.3-0.7-0.4c-0.2-0.1-0.5-0.2-0.7-0.3
				c-0.4-0.2-0.8-0.3-1-0.3C512.3,399.3,512.1,399.2,512.1,399.2z"/>
		</g>
		<g>
			<path class="st21" d="M511.3,376.1c0,0,0.6,0,1.6,0.1c0.2,0,0.5,0.1,0.8,0.2c0.3,0.1,0.6,0.2,0.9,0.3c0.3,0.1,0.6,0.3,0.9,0.4
				c0.3,0.2,0.6,0.4,0.8,0.7c0.9,1.1,1.5,2.3,1.9,3.2c0.2,0.5,0.4,0.8,0.5,1.1c0.1,0.1,0.1,0.2,0.1,0.3c0,0,0,0.1,0,0.1c0,0,0,0,0,0
				c0,0,0,0,0,0c0,0,0,0-0.1-0.1c-0.1-0.1-0.1-0.1-0.2-0.3c-0.2-0.2-0.4-0.6-0.7-1c-0.3-0.4-0.6-0.9-1-1.4c-0.4-0.5-0.7-1.1-1.1-1.5
				c-0.2-0.3-0.4-0.4-0.6-0.6c-0.3-0.1-0.5-0.3-0.8-0.4c-0.3-0.1-0.5-0.3-0.8-0.3c-0.3-0.1-0.5-0.2-0.7-0.3
				c-0.5-0.2-0.8-0.3-1.1-0.4C511.4,376.2,511.3,376.1,511.3,376.1z"/>
		</g>
		<g>
			<path class="st21" d="M509.9,361.5c0,0,0.1-0.1,0.4-0.1c0.1,0,0.3-0.1,0.5-0.1c0.2,0,0.4-0.1,0.6-0.1c0.2,0,0.5,0,0.7,0
				c0.1,0,0.3,0,0.4,0c0.1,0,0.3,0.1,0.4,0.1c0.3,0.1,0.6,0.2,0.9,0.4c0.2,0.1,0.2,0.2,0.4,0.3c0.1,0.1,0.3,0.2,0.4,0.4
				c0.8,1,1.3,2.2,1.6,3.1c0.3,0.9,0.4,1.5,0.4,1.5s-0.3-0.5-0.7-1.4c-0.2-0.4-0.5-0.9-0.8-1.4c-0.3-0.5-0.6-1-1-1.4
				c-0.1-0.1-0.2-0.2-0.3-0.3c-0.1-0.1-0.2-0.2-0.3-0.3c-0.2-0.1-0.4-0.3-0.7-0.4c-0.1,0-0.2-0.1-0.4-0.1c-0.1,0-0.2-0.1-0.4-0.1
				c-0.2-0.1-0.5-0.1-0.7-0.1C510.5,361.5,509.9,361.5,509.9,361.5z"/>
		</g>
	</g>
	<path class="st22" d="M551.3,387.1c3-5.9-6.1-12.2-11.5-17.3c-5.5-5.1-7.7-7.9-11.6-12.4c0,0,8.7,12.9,16.8,18.7
		c8.1,5.9,2.4,10.5-8.7,3.2c-11-7.3-19.3-15.1-19.3-15.1s6.4,8.9,16.3,16.8c14.5,11.6,15.3,17.9,14.4,21.2
		c-0.9,3.2-20.6-13.6-23.9-22.9c0,0,0,7.6,8.5,15.6c13.8,12.8,18.3,15.2,16.4,22.3c-1.9,7.1-21.7-5.3-25.8-15c0,0-1.7,6.8,6.2,12.7
		c9.2,6.8,14.2,11.8,16.3,14c3.6,3.7-1.2,7.6-12.5,1.7c-11.3-5.9-12.1-2-31.3,3s-29.7,16.6-55.2,8c-7-2.4-14.2-0.5-68.8-3.9
		s-117-23.1-130.9-19.4c-13.9,3.7-28.5-1.8-27-47.3c0.6-18.3,15.4-39.4,36.8-86.3c21.5-46.9,32.6-72.3,42.8-108
		c10.2-35.7,17.5-52.3,47-60.3c31.4-8.5,56.8-15.7,89.8-30.8c18.1-8.3,24.6-19.9,24.9-40.2h-6.7c0,0,3.3,28.4-20.1,39.3
		c-23.4,10.9-46.4,18.9-68.6,25.1c-22.2,6.2-42.9,5.4-58.2,35.2c-15.3,29.7-8,32.8-29.2,81.2c-21.2,48.4-28.3,65.6-44.8,96.3
		c-16.5,30.7-19.6,50.1-16.9,78.5c2.7,28.4,15.9,27.5,26.2,24.6c10.3-2.8,46.2,11.1,125.4,18.6c78.6,7.4,65.2-0.3,84.1,7
		c18.4,7.1,20.7,7.1,43.1-3.3c17.2-8,23.3-10.1,23.3-10.1s-4.7,3-3.6,6.4c1.1,3.5,14.5,9.4,22,3.9c4.9-3.6,15-13.8,8.1-20.7
		c0,0,11.6-8.7,2.3-19.6c0,0,2.3-2.1,1.9-6.6c-0.4-4.4-4.2-9.4-4.2-9.4S548.9,391.8,551.3,387.1z"/>
	<path class="st22" d="M477,372.2c-14.5,11.6-21.7,17.2-69.4-6.7c-47.7-23.9-40-74.4-42-109.7c-2-35.3,4.5-51.2,4.5-51.2
		s-31.3,17.8-44.6,59.6c-7.4,23.4-25.8,66.2-46.3,75.5c0,0,30-0.6,66.2,17.8c36.2,18.5,94.7,38.7,110.4,41.7c15.7,3,15.8,0.8,20-8.3
		c4.2-9.1,10.9-15.5,15.3-18.5c10-6.7,23.7-18.4,23.7-18.4S491.5,360.6,477,372.2z M301.8,340.6c-0.4-14,17.6-25.7,34.1-65.2
		c6-14.3,16.5-40.8,16.5-40.8s0.1,11,1.9,60.4c1.8,49.4,12.8,70.3,12.8,70.3C314.2,341.2,301.8,340.6,301.8,340.6z"/>
</g>
</svg>
