<?xml version="1.0" encoding="utf-8"?>
<!-- Generator: Adobe Illustrator 24.2.3, SVG Export Plug-In . SVG Version: 6.00 Build 0)  -->
<svg version="1.1" id="Layer_1" xmlns="http://www.w3.org/2000/svg" xmlns:xlink="http://www.w3.org/1999/xlink" x="0px" y="0px"
	 viewBox="0 0 750 500" style="enable-background:new 0 0 750 500;" xml:space="preserve">
<style type="text/css">
	.st0{fill-rule:evenodd;clip-rule:evenodd;fill:#B3612B;}
	.st1{fill:#FEFEFE;}
	.st2{fill-rule:evenodd;clip-rule:evenodd;fill:#FEFEFE;}
</style>
<g>
	<path class="st0" d="M334.4,449.2c0,0-0.4-69.1-3-102.9c-2.5-33.9,24.3-34.5,30.9-20.9c2.9,5.9,0.9,8,0.9,18L362.8,460
		c0,9.7-1.3,16.8-9.4,16.8h-29.8c-3.8,0-14.7,0.6-16.9-1.8C296.5,465,328.1,453,334.4,449.2L334.4,449.2z"/>
	<path class="st1" d="M340.2,359.6c-1.7-1.4-1.9-3.8-0.5-5.4c1.4-1.6,3.9-1.8,5.6-0.5l3.3,2.7c1.7,1.4,1.9,3.8,0.5,5.4
		c-1.4,1.6-3.9,1.8-5.6,0.5L340.2,359.6L340.2,359.6z"/>
	<path class="st1" d="M351,353.7c1.7-1.4,4.2-1.2,5.6,0.5c1.4,1.6,1.2,4.1-0.5,5.4l-3.3,2.7c-1.7,1.4-4.2,1.2-5.6-0.5
		c-1.4-1.6-1.2-4.1,0.5-5.4L351,353.7L351,353.7z"/>
	<path class="st1" d="M344.2,361.5c0-2.7,1.8-4.9,4-4.9c2.2,0,4,2.2,4,4.9v34.9c0,2.7-1.8,4.9-4,4.9c-2.2,0-4-2.2-4-4.9V361.5
		L344.2,361.5z"/>
	<path class="st1" d="M345.3,404.1c-1.7,1.4-4.2,1.2-5.6-0.5c-1.4-1.6-1.2-4.1,0.5-5.4l3.3-2.7c1.7-1.4,4.2-1.2,5.6,0.5
		c1.4,1.6,1.2,4.1-0.5,5.4L345.3,404.1L345.3,404.1z"/>
	<path class="st1" d="M356.1,398.2c1.7,1.4,1.9,3.8,0.5,5.4c-1.4,1.6-3.9,1.8-5.6,0.5l-3.3-2.7c-1.7-1.4-1.9-3.8-0.5-5.4
		c1.4-1.6,3.9-1.8,5.6-0.5L356.1,398.2L356.1,398.2z"/>
	<path class="st1" d="M340.2,414.5c-1.7-1.4-1.9-3.8-0.5-5.4c1.4-1.6,3.9-1.8,5.6-0.5l3.3,2.7c1.7,1.4,1.9,3.8,0.5,5.4
		c-1.4,1.6-3.9,1.8-5.6,0.5L340.2,414.5L340.2,414.5z"/>
	<path class="st1" d="M351,408.6c1.7-1.4,4.2-1.2,5.6,0.5c1.4,1.6,1.2,4.1-0.5,5.4l-3.3,2.7c-1.7,1.4-4.2,1.2-5.6-0.5
		c-1.4-1.6-1.2-4.1,0.5-5.4L351,408.6L351,408.6z"/>
	<path class="st1" d="M344.2,416.4c0-2.7,1.8-4.9,4-4.9c2.2,0,4,2.2,4,4.9v34.9c0,2.7-1.8,4.9-4,4.9c-2.2,0-4-2.2-4-4.9V416.4
		L344.2,416.4z"/>
	<path class="st1" d="M345.3,459c-1.7,1.4-4.2,1.2-5.6-0.5c-1.4-1.6-1.2-4.1,0.5-5.4l3.3-2.7c1.7-1.4,4.2-1.2,5.6,0.5
		c1.4,1.6,1.2,4.1-0.5,5.4L345.3,459L345.3,459z"/>
	<path class="st1" d="M356.1,453.1c1.7,1.4,1.9,3.8,0.5,5.4c-1.4,1.6-3.9,1.8-5.6,0.5l-3.3-2.7c-1.7-1.4-1.9-3.8-0.5-5.4
		c1.4-1.6,3.9-1.8,5.6-0.5L356.1,453.1L356.1,453.1z"/>
	<path class="st2" d="M343.4,462.9h7.8c3.1,0,5.7,2.6,5.7,5.7v0c0,3.1-2.6,5.7-5.7,5.7h-7.8c-3.1,0-5.7-2.6-5.7-5.7v0
		C337.8,465.5,340.3,462.9,343.4,462.9L343.4,462.9z"/>
	<path class="st2" d="M325.6,465.5h6c2.4,0,4.4,2,4.4,4.4v0c0,2.4-2,4.4-4.4,4.4h-6c-2.4,0-4.4-2-4.4-4.4v0
		C321.2,467.5,323.2,465.5,325.6,465.5L325.6,465.5z"/>
	<path class="st2" d="M311.9,467.5h4.7c1.9,0,3.4,1.5,3.4,3.4v0c0,1.9-1.5,3.4-3.4,3.4h-4.7c-1.9,0-3.4-1.5-3.4-3.4v0
		C308.4,469,310,467.5,311.9,467.5L311.9,467.5z"/>
	<path class="st0" d="M415.6,449.2c0,0,0.4-69.1,2.9-102.9c2.5-33.9-24.3-34.5-30.9-20.9c-2.9,5.9-0.9,8-0.9,18l0.4,116.7
		c0,9.7,1.3,16.8,9.4,16.8h29.8c3.8,0,14.7,0.6,16.9-1.8C453.5,465,421.9,453,415.6,449.2L415.6,449.2z"/>
	<path class="st1" d="M409.8,359.6c1.7-1.4,1.9-3.8,0.5-5.4c-1.4-1.6-3.9-1.8-5.6-0.5l-3.3,2.7c-1.7,1.4-1.9,3.8-0.5,5.4
		c1.4,1.6,3.9,1.8,5.6,0.5L409.8,359.6L409.8,359.6z"/>
	<path class="st1" d="M399,353.7c-1.7-1.4-4.2-1.2-5.6,0.5c-1.4,1.6-1.2,4.1,0.5,5.4l3.3,2.7c1.7,1.4,4.2,1.2,5.6-0.5
		c1.4-1.6,1.2-4.1-0.5-5.4L399,353.7L399,353.7z"/>
	<path class="st1" d="M405.9,361.5c0-2.7-1.8-4.9-4-4.9c-2.2,0-4,2.2-4,4.9v34.9c0,2.7,1.8,4.9,4,4.9c2.2,0,4-2.2,4-4.9V361.5
		L405.9,361.5z"/>
	<path class="st1" d="M404.8,404.1c1.7,1.4,4.2,1.2,5.6-0.5c1.4-1.6,1.2-4.1-0.5-5.4l-3.3-2.7c-1.7-1.4-4.2-1.2-5.6,0.5
		c-1.4,1.6-1.2,4.1,0.5,5.4L404.8,404.1L404.8,404.1z"/>
	<path class="st1" d="M393.9,398.2c-1.7,1.4-1.9,3.8-0.5,5.4c1.4,1.6,3.9,1.8,5.6,0.5l3.3-2.7c1.7-1.4,1.9-3.8,0.5-5.4
		c-1.4-1.6-3.9-1.8-5.6-0.5L393.9,398.2L393.9,398.2z"/>
	<path class="st1" d="M409.8,414.5c1.7-1.4,1.9-3.8,0.5-5.4c-1.4-1.6-3.9-1.8-5.6-0.5l-3.3,2.7c-1.7,1.4-1.9,3.8-0.5,5.4
		c1.4,1.6,3.9,1.8,5.6,0.5L409.8,414.5L409.8,414.5z"/>
	<path class="st1" d="M399,408.6c-1.7-1.4-4.2-1.2-5.6,0.5c-1.4,1.6-1.2,4.1,0.5,5.4l3.3,2.7c1.7,1.4,4.2,1.2,5.6-0.5
		c1.4-1.6,1.2-4.1-0.5-5.4L399,408.6L399,408.6z"/>
	<path class="st1" d="M405.9,416.4c0-2.7-1.8-4.9-4-4.9c-2.2,0-4,2.2-4,4.9v34.9c0,2.7,1.8,4.9,4,4.9c2.2,0,4-2.2,4-4.9V416.4
		L405.9,416.4z"/>
	<path class="st1" d="M404.8,459c1.7,1.4,4.2,1.2,5.6-0.5c1.4-1.6,1.2-4.1-0.5-5.4l-3.3-2.7c-1.7-1.4-4.2-1.2-5.6,0.5
		c-1.4,1.6-1.2,4.1,0.5,5.4L404.8,459L404.8,459z"/>
	<path class="st1" d="M393.9,453.1c-1.7,1.4-1.9,3.8-0.5,5.4c1.4,1.6,3.9,1.8,5.6,0.5l3.3-2.7c1.7-1.4,1.9-3.8,0.5-5.4
		c-1.4-1.6-3.9-1.8-5.6-0.5L393.9,453.1L393.9,453.1z"/>
	<path class="st2" d="M406.6,462.9h-7.8c-3.1,0-5.7,2.6-5.7,5.7v0c0,3.1,2.6,5.7,5.7,5.7h7.8c3.1,0,5.7-2.6,5.7-5.7v0
		C412.3,465.5,409.7,462.9,406.6,462.9L406.6,462.9z"/>
	<path class="st2" d="M424.5,465.5h-6c-2.4,0-4.4,2-4.4,4.4v0c0,2.4,2,4.4,4.4,4.4h6c2.4,0,4.4-2,4.4-4.4v0
		C428.9,467.5,426.9,465.5,424.5,465.5L424.5,465.5z"/>
	<path class="st0" d="M328.4,214.3c18-16,38.3-14.4,48-14v150.9c-16.6,0-34.4,4.4-44.9-5.5L328.4,214.3L328.4,214.3z"/>
	<path class="st0" d="M421.6,214.3c-18-16-38.3-14.4-48-14v150.9c16.6,0,34.4,4.4,44.9-5.5L421.6,214.3L421.6,214.3z"/>
	<path class="st0" d="M299.8,251.7c-10.4,22.5-16,59-16,59s-14.7,14.5-18.3,21.7c-2.5,5-1.1,7.8,2.1,4.3c1.4-1.5,4-5.7,5.9-7.3
		c-1.4,2.3-7.7,13.2-4.7,14.9c3,1.7,3.4-3.6,10.4-11.8c-3.6,6.1-7.6,14.1-4.9,16.1c2.7,2,7.2-10.4,9.5-13c-1.5,3.8-4,14.8-0.2,14.9
		c3.7,0.1,5.3-11,7.6-13.9l7.1-7.9c0.7,0.8,2.4,7.6,3.5,8.5c1.1,0.8,2.6,0.6,3.7-3.2c1.7-6.2-2.7-16.5-2.7-16.5
		c3-33.1,14.5-56.6,35.1-75.7c1.5,0.5,0.9,7,2.3,7.4c16.9-12.2,26.8-38.5,7.3-43.5C330.3,201.6,307,236.1,299.8,251.7L299.8,251.7z"
		/>
	<path class="st1" d="M326,225.5c1.5-1.6,4-1.6,5.6-0.1c1.6,1.5,1.6,4,0.1,5.6l-18.7,29.5c-1.5,1.6-4,1.6-5.6,0.1
		c-1.6-1.5-1.6-4-0.1-5.6L326,225.5L326,225.5z"/>
	<path class="st1" d="M323.5,224.5c-0.6-2.1,0.7-4.3,2.8-4.8c2.1-0.6,4.3,0.7,4.8,2.8l0.9,3.5c0.6,2.1-0.7,4.3-2.8,4.8
		c-2.1,0.6-4.3-0.7-4.8-2.8L323.5,224.5L323.5,224.5z"/>
	<path class="st1" d="M333.7,224c2.1-0.5,4.2,0.9,4.7,3c0.5,2.1-0.9,4.2-3,4.7l-3.5,0.8c-2.1,0.5-4.2-0.9-4.7-3
		c-0.5-2.1,0.9-4.2,3-4.7L333.7,224L333.7,224z"/>
	<path class="st1" d="M305.3,262.8c-2.1,0.6-4.3-0.7-4.9-2.8c-0.6-2.1,0.7-4.3,2.8-4.9l3.5-1c2.1-0.6,4.3,0.7,4.9,2.8
		c0.6,2.1-0.7,4.3-2.8,4.9L305.3,262.8L305.3,262.8z"/>
	<path class="st1" d="M315.5,261.7c0.7,2.1-0.4,4.3-2.5,5c-2.1,0.7-4.3-0.4-5-2.5l-1.1-3.4c-0.7-2.1,0.4-4.3,2.5-5
		c2.1-0.7,4.3,0.4,5,2.5L315.5,261.7L315.5,261.7z"/>
	<path class="st1" d="M299.2,271.5c0.9-1.9,3.3-2.6,5.3-1.6c2,1,2.8,3.4,1.9,5.3l-8.1,33.5c-0.9,1.9-3.3,2.6-5.3,1.6
		c-2-1-2.8-3.4-1.9-5.3L299.2,271.5L299.2,271.5z"/>
	<path class="st1" d="M296.6,271.2c-1.2-1.9-0.7-4.3,1.1-5.4c1.8-1.1,4.3-0.5,5.5,1.4l2,3.1c1.2,1.9,0.7,4.3-1.1,5.4
		c-1.8,1.1-4.3,0.5-5.5-1.4L296.6,271.2L296.6,271.2z"/>
	<path class="st1" d="M306.1,267.9c1.9-1,4.3-0.3,5.4,1.7c1.1,1.9,0.5,4.3-1.4,5.3l-3.1,1.7c-1.9,1-4.3,0.3-5.4-1.7
		c-1.1-1.9-0.5-4.3,1.4-5.3L306.1,267.9L306.1,267.9z"/>
	<path class="st1" d="M291.8,313c-1.8,1.1-4.3,0.5-5.5-1.3c-1.2-1.9-0.8-4.3,1-5.4l3-1.9c1.8-1.1,4.3-0.5,5.5,1.3
		c1.2,1.9,0.8,4.3-1,5.4L291.8,313L291.8,313z"/>
	<path class="st1" d="M301.1,309.2c1.3,1.8,1,4.2-0.7,5.5c-1.7,1.2-4.2,0.8-5.5-1l-2.2-3c-1.3-1.8-1-4.2,0.7-5.5
		c1.7-1.2,4.2-0.8,5.5,1L301.1,309.2L301.1,309.2z"/>
	<path class="st1" d="M286.9,314.1l7.8,3.6c1.9,0.9,2.7,3.1,1.9,5l0,0c-0.9,1.9-3.1,2.7-5,1.9l-7.8-3.6c-1.9-0.9-2.7-3.1-1.9-5l0,0
		C282.8,314.1,285,313.3,286.9,314.1L286.9,314.1z"/>
	<path class="st1" d="M280.9,320.5l1,0.7c1.2,0.9,1.5,2.6,0.6,3.8l0,0c-0.9,1.2-2.6,1.5-3.8,0.6l-1-0.7c-1.2-0.9-1.5-2.6-0.6-3.8h0
		C278,320,279.7,319.7,280.9,320.5L280.9,320.5z"/>
	<path class="st1" d="M289.2,325.1l1.1,0.5c1.4,0.7,1.9,2.3,1.3,3.7l0,0c-0.7,1.4-2.3,1.9-3.7,1.3l-1.1-0.5
		c-1.4-0.7-1.9-2.3-1.3-3.7v0C286.2,325,287.9,324.5,289.2,325.1L289.2,325.1z"/>
	<path class="st1" d="M298.5,322.8c-0.3-0.6-0.1-1.3,0.5-1.7c0.6-0.3,1.3-0.1,1.7,0.5l2.2,4c0.3,0.6,0.1,1.3-0.5,1.7
		c-0.6,0.3-1.3,0.1-1.7-0.5L298.5,322.8L298.5,322.8z"/>
	<path class="st1" d="M301.6,329.6c-0.1-0.7,0.4-1.3,1.1-1.3c0.7-0.1,1.3,0.4,1.3,1.1l0.3,4.6c0.1,0.7-0.4,1.3-1.1,1.3
		c-0.7,0.1-1.3-0.4-1.3-1.1L301.6,329.6L301.6,329.6z"/>
	<path class="st1" d="M271.4,329.9c-0.4,0.5-1.2,0.6-1.7,0.2c-0.5-0.4-0.6-1.2-0.2-1.7l3-3.5c0.4-0.5,1.2-0.6,1.7-0.2
		c0.5,0.4,0.6,1.2,0.2,1.7L271.4,329.9L271.4,329.9z"/>
	<path class="st1" d="M275.7,334.1c-0.4,0.5-1.2,0.7-1.7,0.3c-0.5-0.4-0.7-1.2-0.3-1.7l3.4-4.4c0.4-0.5,1.2-0.7,1.7-0.3
		c0.5,0.4,0.5,1.4,0.1,1.9L275.7,334.1L275.7,334.1z"/>
	<path class="st1" d="M280.9,337.8c-0.4,0.6-1.2,0.8-1.8,0.4c-0.6-0.4-0.8-1.2-0.4-1.8l3.3-4.9c0.4-0.6,1.2-0.8,1.8-0.4
		c0.6,0.4,0.6,1.4,0.2,2L280.9,337.8L280.9,337.8z"/>
	<path class="st1" d="M287.5,339.7c-0.2,0.6-0.9,1-1.5,0.8c-0.6-0.2-1-0.9-0.8-1.5l1.7-5.3c0.2-0.7,0.9-1,1.5-0.8
		c0.6,0.2,0.9,1.1,0.7,1.8L287.5,339.7L287.5,339.7z"/>
	<path class="st1" d="M267.1,336.4c-0.3,0.6-1.1,0.8-1.7,0.4c-0.6-0.3-0.8-1.1-0.4-1.7l2.4-3.9c0.3-0.6,1.1-0.8,1.7-0.4
		c0.6,0.3,0.8,1.1,0.4,1.7L267.1,336.4L267.1,336.4z"/>
	<path class="st1" d="M271.5,341.6c-0.3,0.6-1,0.9-1.6,0.7c-0.6-0.3-0.9-1-0.7-1.6l2.2-5.1c0.3-0.6,1-0.9,1.6-0.7
		c0.6,0.3,0.8,1.2,0.5,1.8L271.5,341.6L271.5,341.6z"/>
	<path class="st1" d="M277,345.6c-0.3,0.6-1,0.9-1.6,0.6c-0.6-0.3-0.9-1-0.6-1.6l2.4-5c0.3-0.6,1-0.9,1.6-0.6
		c0.6,0.3,0.7,1.2,0.5,1.9L277,345.6L277,345.6z"/>
	<path class="st1" d="M285.2,348.2c-0.2,0.7-0.8,1.1-1.5,0.9c-0.7-0.2-1.1-0.8-0.9-1.5l1.4-5.4c0.2-0.7,0.8-1.1,1.5-0.9
		c0.7,0.2,1,1.1,0.8,1.7L285.2,348.2L285.2,348.2z"/>
	<path class="st0" d="M450.2,251.7c10.4,22.5,16,59,16,59s14.7,14.5,18.3,21.7c2.5,5,1.1,7.8-2.1,4.3c-1.4-1.5-4-5.7-5.9-7.3
		c1.4,2.3,7.7,13.2,4.7,14.9c-3,1.7-3.4-3.6-10.4-11.8c3.6,6.1,7.6,14.1,4.9,16.1c-2.7,2-7.2-10.4-9.5-13c1.5,3.8,4,14.8,0.2,14.9
		c-3.7,0.1-5.3-11-7.6-13.9l-7.1-7.9c-0.7,0.8-2.4,7.6-3.5,8.5c-1.1,0.8-2.6,0.6-3.7-3.2c-1.7-6.2,2.7-16.5,2.7-16.5
		c-3-33.1-14.5-56.6-35.1-75.7c-1.5,0.5-0.9,7-2.3,7.4c-16.9-12.2-26.8-38.5-7.3-43.5C419.7,201.6,443,236.1,450.2,251.7
		L450.2,251.7z"/>
	<path class="st1" d="M416.2,224c-2.1-0.5-4.2,0.9-4.7,3c-0.5,2.1,0.9,4.2,3,4.7l3.5,0.8c2.1,0.5,4.2-0.9,4.7-3
		c0.5-2.1-0.9-4.2-3-4.7L416.2,224L416.2,224z"/>
	<polygon class="st0" points="363,171.2 385.8,176.9 387.7,209.3 375.3,212.9 362.3,212.5 363,171.2 	"/>
	<path class="st2" d="M348.1,348.5L348.1,348.5c7.3,0,13.2-5.9,13.2-13.1v-2.5c0-7.2-5.9-13.1-13.1-13.1h-0.1
		c-7.2,0-13.1,5.9-13.1,13.1v2.5C334.9,342.6,340.8,348.5,348.1,348.5L348.1,348.5z M347.6,328.5c2.8,0,5,2.3,5,5s-2.3,5-5,5
		s-5-2.3-5-5S344.8,328.5,347.6,328.5L347.6,328.5z"/>
	<path class="st2" d="M401.9,348.5L401.9,348.5c7.3,0,13.2-5.9,13.2-13.1v-2.5c0-7.2-5.9-13.1-13.1-13.1h-0.1
		c-7.2,0-13.1,5.9-13.1,13.1v2.5C388.7,342.6,394.7,348.5,401.9,348.5L401.9,348.5z M402.4,328.5c2.8,0,5,2.3,5,5s-2.3,5-5,5
		c-2.8,0-5-2.3-5-5S399.6,328.5,402.4,328.5L402.4,328.5z"/>
	<path class="st2" d="M350.9,339.3h48.2c1.1,0,2.1-0.3,2.9-0.8c-2.6-0.2-4.7-2.4-4.7-5c0-2.8,2.3-5,5-5c1,0,1.9,0.3,2.6,0.7v-3.6
		c0-3.3-2.7-5.9-5.9-5.9h-48.2c-3.3,0-5.9,2.7-5.9,5.9v3.6c0.8-0.5,1.7-0.7,2.6-0.7c2.8,0,5,2.3,5,5c0,2.7-2,4.8-4.6,5
		C348.8,339,349.8,339.3,350.9,339.3L350.9,339.3z"/>
	<path class="st2" d="M374.1,180.7h1.8c1.8,0,3.3,1.5,3.3,3.3v126.5c0,1.8-1.5,3.3-3.3,3.3h-1.8c-1.8,0-3.3-1.5-3.3-3.3V184
		C370.8,182.2,372.3,180.7,374.1,180.7L374.1,180.7z"/>
	<path class="st1" d="M344.5,232.7c-1.3-1.2-1.3-3.2,0-4.5c1.3-1.2,3.4-1.2,4.7,0c1.8,1.7,5.5,3,9.7,3.9c5.2,1,11.1,1.3,15.8,0.9
		c1.8-0.2,3.4,1.1,3.6,2.8c0.2,1.7-1.1,3.3-2.9,3.5c-5.3,0.5-12,0.2-17.9-0.9C352.1,237.2,347.3,235.4,344.5,232.7L344.5,232.7z"/>
	<path class="st1" d="M400.9,228.2c1.3-1.2,3.4-1.2,4.7,0c1.3,1.2,1.3,3.2,0,4.5c-2.8,2.7-7.6,4.5-13,5.6
		c-5.8,1.2-12.5,1.5-17.9,0.9c-1.8-0.2-3.1-1.7-2.9-3.5c0.2-1.7,1.8-3,3.6-2.8c4.7,0.5,10.6,0.2,15.8-0.9
		C395.4,231.3,399,230,400.9,228.2L400.9,228.2z"/>
	<path class="st1" d="M344.5,246.5c-1.3-1.2-1.3-3.2,0-4.5c1.3-1.2,3.4-1.2,4.7,0c1.8,1.7,5.5,3,9.7,3.9c5.2,1,11.1,1.3,15.8,0.9
		c1.8-0.2,3.4,1.1,3.6,2.8c0.2,1.7-1.1,3.3-2.9,3.5c-5.3,0.5-12,0.2-17.9-0.9C352.1,251.1,347.3,249.2,344.5,246.5L344.5,246.5z"/>
	<path class="st1" d="M400.9,242.1c1.3-1.2,3.4-1.2,4.7,0c1.3,1.2,1.3,3.2,0,4.5c-2.8,2.7-7.6,4.5-13,5.6
		c-5.8,1.2-12.5,1.5-17.9,0.9c-1.8-0.2-3.1-1.7-2.9-3.5c0.2-1.7,1.8-3,3.6-2.8c4.7,0.5,10.6,0.2,15.8-0.9
		C395.4,245.1,399,243.8,400.9,242.1L400.9,242.1z"/>
	<path class="st1" d="M344.5,260.4c-1.3-1.2-1.3-3.2,0-4.5c1.3-1.2,3.4-1.2,4.7,0c1.8,1.7,5.5,3,9.7,3.9c5.2,1,11.1,1.3,15.8,0.9
		c1.8-0.2,3.4,1.1,3.6,2.8c0.2,1.7-1.1,3.3-2.9,3.5c-5.3,0.5-12,0.2-17.9-1C352.1,264.9,347.3,263.1,344.5,260.4L344.5,260.4z"/>
	<path class="st1" d="M400.9,255.9c1.3-1.2,3.4-1.2,4.7,0c1.3,1.2,1.3,3.2,0,4.5c-2.8,2.7-7.6,4.5-13,5.6c-5.8,1.2-12.5,1.5-17.9,1
		c-1.8-0.2-3.1-1.7-2.9-3.5c0.2-1.7,1.8-3,3.6-2.8c4.7,0.5,10.6,0.2,15.8-0.9C395.4,259,399,257.7,400.9,255.9L400.9,255.9z"/>
	<path class="st1" d="M344.5,274.2c-1.3-1.2-1.3-3.2,0-4.5c1.3-1.2,3.4-1.2,4.7,0c1.8,1.7,5.5,3,9.7,3.9c5.2,1,11.1,1.3,15.8,0.9
		c1.8-0.2,3.4,1.1,3.6,2.8c0.2,1.7-1.1,3.3-2.9,3.5c-5.3,0.5-12,0.2-17.9-0.9C352.1,278.8,347.3,276.9,344.5,274.2L344.5,274.2z"/>
	<path class="st1" d="M400.9,269.8c1.3-1.2,3.4-1.2,4.7,0c1.3,1.2,1.3,3.2,0,4.5c-2.8,2.7-7.6,4.5-13,5.6
		c-5.8,1.2-12.5,1.5-17.9,0.9c-1.8-0.2-3.1-1.7-2.9-3.5c0.2-1.7,1.8-3,3.6-2.8c4.7,0.5,10.6,0.2,15.8-0.9
		C395.4,272.8,399,271.5,400.9,269.8L400.9,269.8z"/>
	<path class="st1" d="M348.5,219.9c-1.6,0.9-3.6,0.4-4.5-1.2c-0.9-1.5-0.4-3.4,1.2-4.3c2.7-1.5,7.4-2.6,12.6-3.2
		c5.7-0.7,12.2-0.8,17.4-0.5c1.8,0.1,3.2,1.6,3.1,3.3c-0.1,1.7-1.7,3.1-3.5,3c-4.8-0.3-10.9-0.1-16.3,0.5
		C354.1,218.1,350.4,218.9,348.5,219.9L348.5,219.9z"/>
	<path class="st1" d="M404.8,214.5c1.6,0.9,2.1,2.8,1.2,4.3c-0.9,1.5-2.9,2-4.5,1.2c-1.9-1.1-5.7-1.8-10.1-2.4
		c-5.4-0.6-11.4-0.8-16.3-0.5c-1.8,0.1-3.4-1.2-3.5-3c-0.1-1.7,1.3-3.2,3.1-3.3c5.2-0.3,11.7-0.1,17.4,0.5
		C397.4,211.9,402.1,212.9,404.8,214.5L404.8,214.5z"/>
	<path class="st1" d="M370.6,293.9c-2.2,0-4-1.4-4-3.2c0-1.7,1.8-3.2,4-3.2h8.9c2.2,0,4,1.4,4,3.2c0,1.7-1.8,3.2-4,3.2H370.6
		L370.6,293.9z"/>
	<path class="st1" d="M370.6,304.6c-2.2,0-4-1.4-4-3.2c0-1.7,1.8-3.2,4-3.2h8.9c2.2,0,4,1.4,4,3.2c0,1.7-1.8,3.2-4,3.2H370.6
		L370.6,304.6z"/>
	<path class="st1" d="M370.6,315.2c-2.2,0-4-1.4-4-3.2c0-1.7,1.8-3.2,4-3.2h8.9c2.2,0,4,1.4,4,3.2c0,1.7-1.8,3.2-4,3.2H370.6
		L370.6,315.2z"/>
	<path class="st0" d="M300,148.1c-18.3,0.5-22.5-25.7-7.7-30.2c-2.6-36.4,11.7-84,64.6-93.4c6.3-1.1,12.4-1.5,18.2-1.3
		c5.8-0.2,11.9,0.2,18.2,1.3c52.9,9.5,68.4,60.9,64.6,93.4c14.8,4.5,10.6,30.7-7.7,30.2c-4.8,9.7-11.5,17.6-19.6,23.8
		c-11.4,9.5-27,15.9-47.4,17.1c-2.7,0.2-5.3,0.2-8,0.2c-2.6,0-5.3-0.1-8-0.2c-20.4-1.2-36-7.6-47.4-17.1
		C311.5,165.7,304.8,157.8,300,148.1L300,148.1z"/>
	<path class="st2" d="M443,108.2c0,14.6-0.5,18.6-7.8,21c-9.1,3-16.5,3.2-24.7,18h-28.3h-0.4h-0.3h-0.4h-0.3h-0.4h-0.3h-0.4h-0.3
		h-0.4h-0.3h-0.4h-0.3h-0.4h-0.3h-0.4h-0.3h-0.4h-0.3h-0.4h-0.3h-0.4h-0.3h-0.4h-0.3h-0.4h-0.3h-0.4h-0.3h-0.4h-0.3h-0.4h-0.3h-0.4
		h-0.3h-0.4h-0.3h-0.4h-0.3h-0.4h-0.3h-0.4h-0.3h-0.4h-28.3c-8.3-14.8-15.6-15-24.7-18c-7.3-2.4-7.8-6.4-7.8-21
		C307,11.7,443,11.7,443,108.2L443,108.2z M373.3,126c-8.4,5.5-12.5,10.1-5.6,10.5c1.1,0.1,2.3,0.1,3.6,0.1c0.6-0.4,1.1-0.8,1.8-1.2
		c1.7-1.1,1.7-1.1,3.4,0c0.6,0.4,1.2,0.8,1.8,1.2c1.5,0,2.9-0.1,4.1-0.2c6.8-0.4,2.7-5.1-5.6-10.5C375,124.9,375,124.9,373.3,126
		L373.3,126z M338.2,95.6c9.2,0,16.7,7,16.7,15.5c0,8.6-7.5,15.5-16.7,15.5s-16.7-7-16.7-15.5C321.5,102.6,329,95.6,338.2,95.6
		L338.2,95.6z M411.8,95.6c9.2,0,16.7,7,16.7,15.5c0,8.6-7.5,15.5-16.7,15.5c-9.2,0-16.7-7-16.7-15.5
		C395.1,102.6,402.6,95.6,411.8,95.6L411.8,95.6z"/>
	<path class="st2" d="M375,154.4l-37.3-0.2c-1.9-4.6-4.5-8.8-7.4-11.1c-3-2.4-7.9-1.5-7.3,3.2c1.9,14.5,14.6,26,30.2,28.8
		c10.5,1.9,33.1,1.9,43.5,0c15.7-2.8,28.4-14.3,30.2-28.8c0.6-4.8-4.3-5.6-7.3-3.2c-2.9,2.3-5.5,6.5-7.4,11.1L375,154.4L375,154.4z"
		/>
</g>
</svg>
