<?xml version="1.0" encoding="utf-8"?>
<!-- Generator: Adobe Illustrator 24.2.3, SVG Export Plug-In . SVG Version: 6.00 Build 0)  -->
<svg version="1.1" id="Layer_1" xmlns="http://www.w3.org/2000/svg" xmlns:xlink="http://www.w3.org/1999/xlink" x="0px" y="0px"
	 viewBox="0 0 750 500" style="enable-background:new 0 0 750 500;" xml:space="preserve">
<style type="text/css">
	.st0{fill:url(#SVGID_1_);}
	.st1{fill:url(#SVGID_2_);}
	.st2{fill:#E16736;}
	.st3{fill:url(#SVGID_3_);}
	.st4{fill:#8B0800;}
	.st5{fill:#540800;}
	.st6{fill:url(#SVGID_4_);}
	.st7{opacity:0.3;fill:#A90800;}
	.st8{fill:url(#SVGID_5_);}
	.st9{fill:url(#SVGID_6_);}
	.st10{opacity:0.48;}
	.st11{fill:url(#SVGID_7_);}
	.st12{fill:url(#SVGID_8_);}
	.st13{fill:url(#SVGID_9_);}
	.st14{fill:url(#SVGID_10_);}
	.st15{fill:url(#SVGID_11_);}
	.st16{fill:url(#SVGID_12_);}
	.st17{fill:url(#SVGID_13_);}
	.st18{fill:url(#SVGID_14_);}
	.st19{fill:url(#SVGID_15_);}
	.st20{opacity:0.58;fill:url(#SVGID_16_);}
	.st21{opacity:0.58;fill:url(#SVGID_17_);}
	.st22{fill:url(#SVGID_18_);}
	.st23{fill:url(#SVGID_19_);}
	.st24{fill:url(#SVGID_20_);}
	.st25{fill:url(#SVGID_21_);}
	.st26{fill:url(#SVGID_22_);}
	.st27{fill:url(#SVGID_23_);}
	.st28{fill:url(#SVGID_24_);}
	.st29{fill:url(#SVGID_25_);}
	.st30{fill:url(#SVGID_26_);}
	.st31{fill:url(#SVGID_27_);}
	.st32{fill:url(#SVGID_28_);}
	.st33{fill:url(#SVGID_29_);}
	.st34{fill:url(#SVGID_30_);}
	.st35{fill:url(#SVGID_31_);}
	.st36{fill:url(#SVGID_32_);}
	.st37{opacity:0.58;fill:url(#SVGID_33_);}
	.st38{fill:#590800;}
	.st39{opacity:0.79;fill:url(#SVGID_34_);}
	.st40{opacity:0.64;fill:url(#SVGID_35_);}
	.st41{opacity:0.64;fill:url(#SVGID_36_);}
	.st42{opacity:0.64;fill:url(#SVGID_37_);}
	.st43{opacity:0.58;fill:url(#SVGID_38_);}
	.st44{opacity:0.24;fill:url(#SVGID_39_);}
	.st45{fill:url(#SVGID_40_);}
	.st46{opacity:0.58;fill:url(#SVGID_41_);}
	.st47{opacity:0.39;fill:#E16736;}
	.st48{opacity:0.85;fill:#FFFFFF;}
	.st49{opacity:0.25;fill:url(#SVGID_42_);}
	.st50{fill:url(#SVGID_43_);}
	.st51{fill:url(#SVGID_44_);}
	.st52{font-family:'MyriadPro-Regular';}
	.st53{font-size:36px;}
</style>
<g>
	<linearGradient id="SVGID_1_" gradientUnits="userSpaceOnUse" x1="359.4551" y1="444.1033" x2="321.6743" y2="167.9059">
		<stop  offset="0" style="stop-color:#FDD0C0"/>
		<stop  offset="1" style="stop-color:#FD9A6E"/>
	</linearGradient>
	<path class="st0" d="M512.2,420.8l-46.8,8.8c0,0-2.9,0-5.9-8.8c-2.9-8.8-18.4-54.1-18.4-54.1s-5.6,13.4-10,27.6
		c-4.4,14.2-6.7,32.2-6.7,32.2l-133.7,3.1c0,0-2.1-21.6-6.4-33.7c-4.4-12.2-8.4-34-8.4-34l-15.3,64.8l-60.6-5.9
		c0-39.7,18-80.2,18-92c0-7.3-2-26.3,1.4-44.4l0-0.1c2.1-11.1,6.1-21.8,13.8-29.5c4.4-4.4,9.7-8.2,15.4-11.6c0,0,0,0,0,0
		c0,0,0,0,0,0c1-0.6,2.1-1.2,3.1-1.8c0,0,0,0,0,0c20.3-11.3,44.2-17.5,48.2-21.5c5.2-5.2,11.4-45.8,11.6-47.1l0,0l11.2-5l26,8
		l8.4,22.9c0,0,7.8,7.4,17.7,14.5l0,0c3.3,2.4,6.9,4.7,10.4,6.6c14.3,7.9,32.6-1,67.7,14.6c31.8,14.2,19.3,50.7,31,82.5
		c1.2,3.2,2.6,6.5,4.4,9.6C507.4,360.2,512.2,420.8,512.2,420.8z"/>
	<linearGradient id="SVGID_2_" gradientUnits="userSpaceOnUse" x1="390.6852" y1="219.7903" x2="373.8779" y2="96.9203">
		<stop  offset="0" style="stop-color:#FDD0C0"/>
		<stop  offset="1" style="stop-color:#FD8E4D"/>
	</linearGradient>
	<path class="st1" d="M403.1,105.1c0,0,13.9,20.3,13.9,30.2c0,9.9-3.5,12.3-3.5,16.8c0,4.5,13.4,20.9,10.8,27.4
		c-1,2.5-11.9,3-13.3,4.4c-1.4,1.4-0.6,5.1-1.6,7c-1,2-5.6,3-5.6,3s4.8,2.7,4.8,5.4c0,2.8-2.4,4.1-3.6,5.3c-1.3,1.3,5.4,8,2.2,11.1
		c-3.2,3.2-10.9,4-20,0c-9.1-4-30.5-6.8-34.7-10.8c-4.2-4-9.1-40.8-9.1-40.8l6.8-40l0.6-24.2l40.3-3.2L403.1,105.1z"/>
	<path class="st2" d="M411,138.1c0,0-6,9.2-7.9,13.3c-1.9,4,0,4.5,0,4.5s-7.2,3.6-13.7,1.6c-6.4-2.1-8.4-3.8-7.3-4.8
		c1-1,6-3.8,9.7-6.5c3.6-2.7,6-6.9,6-6.9L411,138.1z"/>
	<linearGradient id="SVGID_3_" gradientUnits="userSpaceOnUse" x1="361.119" y1="343.9357" x2="408.5191" y2="343.9357">
		<stop  offset="0" style="stop-color:#CA0000"/>
		<stop  offset="1" style="stop-color:#A80009"/>
	</linearGradient>
	<path class="st3" d="M408.5,379c-1.6-0.1-12.1-1.2-22.5-3.3c-9.9-2-19.5-4.9-21-8.8c-3-7.8-0.7-18-0.4-29.8c0-1,0.1-2,0.1-3v-0.3
		c-0.1-12.8-3.6-17.6-3.6-21.2c0-3.7,0-3.7,0-3.7s7.9,21.1,19.1,32.2c2,2,3.7,4,5.1,6c6.7,9.5,8.5,19.1,11.7,24.5
		C400.5,377.5,407.3,378.8,408.5,379z"/>
	<path class="st4" d="M408.5,379c-3.2,0.2-17.5-1.9-22.5-3.3c0-3.2-0.8-7.7-3.1-13.8c-4.7-12.1-15.1-22-18.3-24.8c0-1,0.1-2,0.1-3
		c0-13.1-3.6-17.9-3.6-21.6c0-3.7,0-3.7,0-3.7s7.9,21.1,19.1,32.2c11.1,11.1,12.9,24,16.8,30.5C400.5,377.5,407.3,378.8,408.5,379z"
		/>
	<path class="st5" d="M385.3,347.1c-1.8-1.3-6-4.3-12.5-8.8c-3.9-2.6-6.4-4-8.1-4.6c-0.1-12.8-3.6-17.6-3.6-21.2c0-3.7,0-3.7,0-3.7
		s7.9,21.1,19.1,32.2C382.2,343.1,383.8,345.1,385.3,347.1z"/>
	<linearGradient id="SVGID_4_" gradientUnits="userSpaceOnUse" x1="395.6883" y1="380.6761" x2="395.6883" y2="243.5624">
		<stop  offset="0" style="stop-color:#FFB683"/>
		<stop  offset="1" style="stop-color:#FF0010"/>
	</linearGradient>
	<path class="st6" d="M430.8,359.3c-0.9,12.6-4.1,18.4-5.4,19.7c-3.7,3.7-23.3,1.5-31.7-8.8c-1.4-1.7-2.7-3.4-4-5.2
		c-3.3-4.6-6.4-9.5-9.1-14.3c0-0.1-0.1-0.1-0.1-0.2c0-0.1-0.1-0.1-0.1-0.2c-2.9-5.1-5.3-9.9-7.2-13.9c-0.4-0.9-0.8-1.7-1.1-2.4
		c0-0.1-0.1-0.2-0.1-0.3c-0.3-0.6-0.5-1.1-0.7-1.6c-0.1-0.2-0.2-0.5-0.3-0.7c-0.6-1.5-1.3-2.9-2.1-4.4c-0.3-0.7-0.7-1.3-1.1-2
		c-3.3-6-7-12.3-7.5-19.9c0-0.6-0.1-1.2-0.1-1.8c0-11.3,3.3-56.8,20.7-59.6c13.6-2.2,29.6,21.4,39.8,51.2l0.1,0.4l1.3,4.1l0.1,0.4
		c0,0,0,0,0,0c2.1,6.7,3.9,13.7,5.2,20.7C430.9,337.5,431.5,350.2,430.8,359.3z"/>
	<path class="st7" d="M422.3,299.8C422.3,299.8,422.3,299.8,422.3,299.8C422,300.5,410,325,398.1,336c-11,10.1-16.5,13.9-17.4,14.5
		c-4.3-7.5-7.6-14.5-9.5-19.1c-3.4-8.1-10-15.9-10.7-26.3c0.8,1.2,8.6,13.8,16.2,22.5c8,9.2,17.9,2.2,27.2-7.1
		c9.3-9.3,16.9-25.5,16.9-25.5l0.1,0.4l1.3,4.1L422.3,299.8z"/>
	<path class="st7" d="M430.8,359.3c-0.9,12.6-4.1,18.4-5.4,19.7c-3.7,3.7-23.3,1.5-31.7-8.8c-4.8-6-9.3-12.9-13.1-19.5l7.7-4.1
		c0,0,2.3,1.7,15.1,8.7C412.5,360.3,424.5,360,430.8,359.3z"/>
	<path class="st7" d="M384.6,356.7c0,0,10.4-6.4,19.5-20.7c9.1-14.3,19.8-30.9,19.8-30.9l-0.5-1.8c0,0-27.5,41-42.7,47.4
		L384.6,356.7z"/>
	<linearGradient id="SVGID_5_" gradientUnits="userSpaceOnUse" x1="309.234" y1="317.4133" x2="357.4295" y2="317.4133">
		<stop  offset="0" style="stop-color:#CA0000"/>
		<stop  offset="1" style="stop-color:#A80009"/>
	</linearGradient>
	<path class="st8" d="M357.4,351.9c0,1,0,2-0.1,2.9c-0.9,10.3-7.1,15-17.2,17.9c-6.5,1.9-16.2,4.3-23,6c-4.1,1-7.1,1.7-7.7,1.9
		l-0.1,0l29.3-126.1c0,0,2.4,5.2,3.7,8.4c1.3,3.2,6.1,44.8,9.2,53.1c0.3,0.9,0.7,1.9,1,3C355.1,327.6,357.4,340.9,357.4,351.9z"/>
	<path class="st4" d="M357.4,351.9c0,1,0,2-0.1,2.9c-2.4,3.9-7,9.5-14.8,12.1c-10.7,3.5-22.3,10-25.4,11.8c-0.5,0.3-0.8,0.5-0.8,0.5
		l-6.9,1.4l-0.1,0l4.3-5.8l17.4-10.2l18.5-32l1.2-2.1l1.8-11.3c2.1,6.7,4,16.2,4.7,25.3C357.3,346.8,357.4,349.4,357.4,351.9z"/>
	<path class="st5" d="M357.1,344.2c-0.7-0.1-1.6-0.1-2.6,0.5c-2.2,1.2-3.7,8.3-3.7,8.3s-1-11.2-1.4-20.7l1.2-2.1l1.8-11.3
		C354.5,325.7,356.4,335.2,357.1,344.2z"/>
	<linearGradient id="SVGID_6_" gradientUnits="userSpaceOnUse" x1="317.5436" y1="383.8619" x2="317.5436" y2="241.2152">
		<stop  offset="0" style="stop-color:#FFB683"/>
		<stop  offset="1" style="stop-color:#FF0010"/>
	</linearGradient>
	<path class="st9" d="M352.6,317.5c-1.9,1.9,0,8,0,19.9c0,11.9-1.6,22.1-11.7,27.5c-10.1,5.3-21.2,9-23,9c-1.8,0-3.4,2-6.6,5.2
		c-3.2,3.2-19.1,7.2-23.1,3.1c-1.4-1.4-2.7-4.5-3.6-8.4c-1.8-7.2-2.8-17.3-2.8-26c0-13.4,0.9-18.8,0.9-18.8s0,0,5.5-25.5
		c5.5-25.5,27.3-62.2,33.8-62.2c4.9,0,13.7,5.8,17.3,12.2c1.2,2.1,1.8,4.2,1.6,6.1c-0.9,8.1-0.5,16.3-0.5,16.3s3.1-3.3,7.1,7.3
		C351.6,293.6,354.6,315.5,352.6,317.5z"/>
	<g class="st10">
		<linearGradient id="SVGID_7_" gradientUnits="userSpaceOnUse" x1="290.7148" y1="302.331" x2="329.7323" y2="302.331">
			<stop  offset="0" style="stop-color:#CA0000"/>
			<stop  offset="1" style="stop-color:#A80009"/>
		</linearGradient>
		<path class="st11" d="M292.7,300.3c0.6,0.6,1.3,1.2,2,1.8c0.7,0.5,1.4,1.1,2.2,1.6c0.2,0.1,0.4,0.2,0.7,0.3
			c-1.6,1.2-3.1,2.6-4.5,4l0,0c-0.3,0.3-0.3,0.8,0,1.2c0.3,0.3,0.8,0.3,1.2,0c1.8-1.8,3.9-3.1,6.2-4.2c1.1-0.5,2.2-1.1,3.4-1.5
			c0.2-0.1,0.4-0.1,0.6-0.2c-0.5,1.1-1,2.2-1.5,3.2c-0.2,0.4-0.3,0.7-0.5,1.1c-2,0.6-3.8,1.3-5.5,2.2c-1.7,0.9-3.3,2.1-4.7,3.6
			c0,0,0,0,0,0c-0.3,0.3-0.3,0.9,0.1,1.2c0.3,0.3,0.9,0.3,1.2-0.1c1.2-1.3,2.6-2.4,4.3-3.2c1.1-0.5,2.3-0.8,3.5-1
			c-0.1,0.2-0.2,0.3-0.2,0.5c-0.7,1.4-1.8,2.7-3.1,3.7l0,0c0,0,0,0,0,0c-0.3,0.3-0.4,0.8-0.1,1.2c0.3,0.3,0.8,0.4,1.2,0.1
			c1.3-1.2,2.6-2.3,3.9-3.6l0.2,0.4c0.5,0.9,1,1.8,1.5,2.7c0.9,1.8,1.5,3.6,1.5,5.5l0,0c0,0.5,0.4,0.9,0.9,1c0.5,0.1,1-0.3,1.1-0.9
			c0.2-2.3-0.4-4.6-1.2-6.6c-0.4-1-0.9-2-1.3-2.9l-0.6-1.4c0,0,0,0,0,0c0.5-0.7,0.9-1.3,1.2-2.1c0.2-0.4,0.4-0.7,0.5-1.1
			c0.1,0.4,0.3,0.8,0.5,1.2c0.2,0.4,0.6,1,0.9,1.3c0.3,0.3,0.5,0.6,0.8,1c0.5,0.6,1,1.3,1.4,2c0.7,1.1,1.1,2.3,1.6,3.5
			c0,0.3,0.1,0.6,0.3,0.9c0,0.1,0,0.1,0.1,0.2c0.5,1.6,0.8,3.3,0.8,4.9c0,0,0,0.1,0,0.1c0.1,0.7,0.7,1.1,1.3,1.1
			c0.7-0.1,1.1-0.7,1.1-1.3c-0.1-1.2-0.3-2.4-0.5-3.6c0.2,0.1,0.4,0.1,0.6,0.2c0.6,0.1,1.1,0.2,1.6,0.2c0.5,0,1,0,1.5,0
			c2.1-0.1,4.1-0.7,5.9-1.4c0,0,0.1,0,0.1,0c0.5-0.3,0.7-0.9,0.5-1.4c-0.3-0.5-0.9-0.7-1.4-0.5c-1.6,0.8-3.4,1.3-5.2,1.3
			c-0.4,0-0.9,0-1.3-0.1c-0.5,0-0.9-0.1-1.2-0.2c-0.6-0.2-1.2-0.6-1.8-1c-0.4-1.4-0.9-2.7-1.4-4c0-0.1-0.1-0.2-0.1-0.3
			c1.4,0,2.8,0.1,4.2,0.4c1,0.2,2,0.5,2.9,0.9c0.9,0.4,1.8,1,2.5,1.7c0,0,0,0,0.1,0.1c0.4,0.4,1,0.3,1.4-0.1c0.4-0.4,0.3-1-0.1-1.4
			l0,0c-0.9-0.8-1.9-1.5-2.9-2.1c-1-0.6-2.1-1.1-3.2-1.4c-1.1-0.3-2.3-0.6-3.4-0.9c-1-0.2-2-0.3-2.9-0.5c0-0.1-0.1-0.1-0.1-0.2
			c-0.2-0.4-0.3-0.6-0.4-0.9c-0.3-0.7-0.6-1.4-0.9-2.2c-0.4-0.8-0.6-1.6-1.2-2.6c0.3-1.3,0.5-2.6,0.6-3.8c0.2-1.7,0.5-3.3,1-4.8
			c0.5-1.5,1.4-2.6,2.5-3.7c2.2-2.2,5.2-3.8,8.1-4.1l0,0c0.1,0,0.1,0,0.2,0c0.4-0.1,0.7-0.3,0.9-0.6c1,0,2.2,0.1,3.3,0.2
			c1.2,0.2,2.4,0.3,3.7,0.5c0.6,0.1,1.2-0.3,1.3-0.9c0.1-0.6-0.3-1.2-0.9-1.3c-1.2-0.2-2.4-0.5-3.6-0.8c-1.2-0.3-2.4-0.6-3.8-0.7
			c-1.4-0.1-2.9,0.1-4.1,0.6c-1.2,0.5-2.4,1.1-3.5,1.6c-2.2,1.1-4.3,2-6.4,2.2c-1.1,0.1-2.1-0.1-3.1-0.6c-1-0.5-1.8-1.2-2.4-2.2
			c-0.2-0.4-0.7-0.5-1.1-0.3c-0.4,0.2-0.5,0.7-0.3,1.1c0.6,1,1.5,1.9,2.5,2.6c-0.6,0.3-1.1,0.7-1.6,1.2c-0.9,0.9-1.6,2-1.9,3.2l0,0
			c0,0,0,0.1,0,0.1c-0.1,0.5,0.3,1,0.8,1.1c0.5,0.1,1-0.3,1.1-0.8c0.1-0.9,0.6-1.8,1.3-2.5c0.6-0.7,1.4-1.2,2.3-1.4
			c0.8,0.3,1.6,0.5,2.5,0.6c0.8,0.1,1.7,0,2.5-0.2c-0.4,0.4-0.8,0.9-1.1,1.5c-0.5,0.8-0.9,1.7-1.1,2.6c-0.6,1.7-1,3.4-1.3,5.1
			c-0.2,0.8-0.4,1.6-0.6,2.4c0,0-0.1,0-0.1,0l-0.9,0.3c-0.6,0.2-1.3,0.5-1.9,0.8c-0.9,0.4-1.7,0.9-2.6,1.3c0,0-0.1,0-0.1,0
			c-0.8-0.1-1.5-0.3-2.2-0.5c-0.1,0-0.2-0.1-0.3-0.1c0,0,0-0.1,0-0.1c-0.2-1.4-0.6-2.8-1.2-4.1c-0.6-1.3-1.3-2.5-2.2-3.7
			c-0.3-0.4-0.8-0.4-1.2-0.1s-0.4,0.8-0.1,1.2c0.8,1,1.4,2.1,1.9,3.3c0.3,0.8,0.5,1.6,0.6,2.4c-0.5-0.4-1-0.8-1.5-1.2
			c-0.6-0.5-1.1-1.1-1.6-1.8c0,0,0,0,0,0c-0.3-0.3-0.8-0.4-1.2-0.1c-0.3,0.3-0.4,0.8-0.1,1.2C291.5,299,292.1,299.7,292.7,300.3z"/>
		<linearGradient id="SVGID_8_" gradientUnits="userSpaceOnUse" x1="308.4554" y1="267.7431" x2="342.2588" y2="267.7431">
			<stop  offset="0" style="stop-color:#CA0000"/>
			<stop  offset="1" style="stop-color:#A80009"/>
		</linearGradient>
		<path class="st12" d="M309,265.9c1,0.3,2,1,2.8,1.8c0.8,0.8,1.6,1.8,2.2,2.8c0.7,1,1.3,2.1,1.8,3.2c0.3,0.6,0.5,1.2,0.8,1.8
			c-0.3,0-0.5-0.1-0.8-0.1c-1.6-0.3-3.3-0.7-5-1.1c-0.4-0.1-0.9,0.1-1.1,0.5c-0.2,0.5,0,1,0.4,1.2c1.6,0.8,3.3,1.4,5,1.9
			c1.7,0.5,3.6,0.8,5.4,0.8c0.9,0,1.9,0,2.8-0.1c1-0.1,2-0.2,2.9-0.4c1.5-0.3,2.9-0.7,4.1-0.8c0.4,0.2,0.8,0.4,1.2,0.5
			c0.8,0.3,1.4,0.4,2.1,0.6c0.5,0.1,1,0.2,1.5,0.2c0.6,0.2,1.2,0.2,1.7,0c1.5-0.1,3-0.6,4.3-1.3c0.8-0.4,1.3-1.4,0.9-2.3
			c-0.4-1-1.4-1.5-2.4-1.1l-0.1,0c-0.2,0.1-0.4,0.1-0.6,0.2c0-0.3,0.1-0.7,0.1-1c0-1.5-0.3-3.1-0.9-4.4c-0.3-0.7-0.7-1.3-1.1-1.8
			c-0.4-0.6-0.9-1.1-1.3-1.6c-0.8-1-1.6-1.9-2.1-2.9l0,0c-0.2-0.4-0.6-0.6-1.1-0.5c-0.4,0.2-0.7,0.6-0.5,1.1
			c0.5,1.3,1.1,2.5,1.6,3.6c0.5,1.1,0.7,2.2,0.9,3.3c0.1,1,0.3,2,0.1,3c0,0.3-0.1,0.7-0.2,1c-0.6-0.1-1.1-0.3-1.6-0.4
			c-0.4-0.1-0.9-0.2-1.3-0.3c0,0-0.1,0-0.1,0c-0.6-0.2-1.2-0.3-1.8-0.6c-0.2-0.6-0.4-1.6-0.5-2.7c-0.2-1.5-0.7-3-1.1-4.4
			c-0.4-1.4-0.8-2.9-1.2-4.3c-0.4-1.4-0.9-2.8-1.4-4.2l0,0c-0.2-0.4-0.6-0.6-1.1-0.5c-0.4,0.2-0.6,0.6-0.5,1.1l0,0
			c0.5,1.3,1,2.7,1.4,4c0.4,1.4,0.6,2.8,0.6,4.2c0.1,1.4-0.2,2.8-0.3,4.2c0,0.2,0,0.5,0,0.7c-2.2-1.2-4.2-2.8-5.9-4.6
			c0-0.1,0-0.2,0-0.3c-0.6-2.1-0.7-4.3-0.1-6.4c0.1-0.4-0.1-0.9-0.6-1c-0.4-0.1-0.9,0.1-1,0.6c-0.4,1.5-0.5,3-0.4,4.5
			c-0.2-0.3-0.5-0.6-0.7-1c-0.8-1.1-1.5-2.3-2.1-3.5l0,0c0,0,0,0,0,0c-0.2-0.4-0.7-0.5-1.1-0.3c-0.4,0.2-0.5,0.7-0.3,1.1
			c1.4,2.5,2.9,4.9,4.7,7.1c1.7,2.3,3.6,4.5,5.9,6.4c0.5,0.5,1.1,1,1.7,1.4c-0.1,0-0.2,0.1-0.3,0.1c-0.8,0.3-1.5,0.7-2.2,0.8
			c-0.8,0.2-1.6,0.2-2.4,0.2c-0.3,0-0.6,0-1,0c0,0,0,0,0,0l0,0c-1.3-2.1-2.7-4.3-4.2-6.4c-0.8-1-1.6-2.1-2.5-3
			c-1-0.9-2.1-1.7-3.4-2.2c0,0,0,0,0,0c-0.4-0.1-0.9,0.1-1,0.5C308.4,265.3,308.6,265.8,309,265.9z"/>
		<linearGradient id="SVGID_9_" gradientUnits="userSpaceOnUse" x1="287.4284" y1="333.2057" x2="352.6353" y2="333.2057">
			<stop  offset="0" style="stop-color:#CA0000"/>
			<stop  offset="1" style="stop-color:#A80009"/>
		</linearGradient>
		<path class="st13" d="M327.7,368.4C327.7,368.4,327.7,368.4,327.7,368.4c0,0,0,0.1-0.1,0.2C327.7,368.6,327.7,368.5,327.7,368.4z
			 M327.8,368.3c0,0,0-0.1,0.1-0.1C327.9,368.2,327.8,368.2,327.8,368.3z M352.6,336.7c0-1.5-0.1-3-0.1-4.3
			c-0.4-0.6-0.8-1.1-1.3-1.6c-1.4-1.4-3.3-2.2-5.1-2.4c0,0,0,0,0,0c-0.9-0.1-1.8-0.2-2.7-0.2c-0.4,0-0.9-0.1-1.3-0.1
			c-0.2,0-0.4-0.1-0.6-0.1c-0.2,0-0.5-0.1-0.7-0.1c-0.9-0.1-1.8-0.2-2.4-0.5c-0.7-0.3-0.9-0.6-1-1.2c0-0.1,0-0.1,0-0.2
			c-0.1-0.2-0.2-0.3-0.3-0.5c-0.9-2.4-1.8-4.9-2.5-7.3c0.1-0.6,0.2-1.2,0.3-1.8c0.2,0.4,0.5,0.8,0.8,1.2l0.7,1
			c0.2,0.3,0.4,0.6,0.7,0.9c0.6,0.6,1.2,1.1,1.8,1.6c2.5,1.7,5.4,2.6,8.4,2.4c0.2,0,0.4,0,0.6-0.1c0.4-0.1,0.8-0.4,0.7-0.9
			c0-0.5-0.4-0.8-0.9-0.8h0c-0.2,0-0.3,0-0.4,0c-1.2,0-2.4-0.2-3.5-0.6c-1.3-0.4-2.4-1.1-3.4-2c-1-0.8-1.7-1.9-2.5-3.1
			c-0.8-1.1-1.5-2.4-2.3-3.6l0,0c0,0,0,0,0,0c0.2-2.4,0.2-4.8,0-7c-0.1-2.7-0.5-5.4-0.7-8.1c0-0.5-0.5-1-1-0.9c-0.6,0-1,0.5-1,1
			c0.1,2.7,0,5.4,0.2,8.1c0,0.7,0.1,1.4,0.1,2.1c-1.4,0.6-2.7,1.5-3.8,2.5c-1.3,1.2-2.5,2.5-3.5,3.8c-0.4,0.5-0.3,1.3,0.2,1.7
			c0.5,0.4,1.3,0.4,1.7-0.2c1-1.3,2.1-2.5,3.2-3.4c0.7-0.6,1.4-1.1,2.2-1.5c0,0.9-0.1,1.9-0.2,2.9c-0.2,1.5-0.5,3.1-0.8,4.7
			c0,0.1,0,0.1,0,0.2c-0.2,1-0.4,2-0.6,3.1c-0.1,0.7-0.3,1.3-0.4,2l0,0.2c-1.8,0.9-3.6,1.7-5.5,2.4c-0.1-0.1-0.3-0.2-0.4-0.3
			c-1.1-0.4-2.3-0.9-3.3-1.5c-1-0.6-1.9-1.2-2.8-2c-0.5-0.4-1.2-0.4-1.7,0.1c-0.5,0.5-0.4,1.3,0.1,1.7c1,0.9,2.1,1.7,3.3,2.3
			c0.6,0.3,1.2,0.6,1.7,0.8c-0.1,0.1-0.3,0.1-0.5,0.2c-1.7,0.6-3.2,1.4-4.9,2c0,0,0,0,0,0c-1.1-0.9-2.2-1.7-3.5-2.4
			c-0.9-0.4-1.8-0.7-2.7-0.9c-0.9-0.2-1.9-0.4-2.8-0.5c-0.5-0.1-1.1,0.2-1.3,0.8c-0.3,0.7,0,1.4,0.7,1.7l0,0
			c0.8,0.3,1.5,0.7,2.2,1.1c0.7,0.4,1.4,0.9,2.1,1.2c0.5,0.3,1,0.6,1.4,0.8c-0.3,0.2-0.7,0.4-1,0.7c-0.6,0.5-1.2,1-1.7,1.5
			c-0.1,0-0.3,0.1-0.4,0.1c-1.6,0.8-3.4,1-5.3,1.1c-0.5,0-1.1,0.1-1.7,0.1c-0.2,0-0.4-0.1-0.7,0l-0.1,0c-0.5,0-0.9,0.1-1.4,0.1
			c-0.1-0.1-0.2-0.2-0.3-0.2c-0.9-0.4-1.7-0.9-2.4-1.6c-0.7-0.7-1.3-1.4-1.8-2.2c-0.5-0.8-0.9-1.7-1.2-2.7c-0.4-1-0.7-2.1-1.5-3.1v0
			c-0.3-0.4-0.8-0.4-1.2-0.1c-0.4,0.3-0.4,0.8-0.1,1.2c0.5,0.7,0.9,1.6,1.2,2.6c0.3,1,0.7,2.1,1.3,3c0.8,1.3,1.8,2.4,3,3.4
			c-1.7,0.2-3.3,0.4-5,1c-1.9,0.7-3.8,1.8-5.1,3.5l0,0c-0.1,0.1-0.2,0.3-0.2,0.5c0,0.3,0.1,0.5,0.3,0.7c0.4,0.3,0.9,0.2,1.2-0.2
			c1.1-1.4,2.6-2.4,4.4-2.9c1.7-0.6,3.6-0.9,5.5-0.8c0.3,0,0.6,0,0.9,0c-0.2,0.4-0.5,0.7-0.7,1.1c-0.6,1.1-1.2,2-2.1,2.8
			c-1.7,1.6-3.8,2.7-6.1,3.1h0c-0.4,0.1-0.7,0.5-0.7,1c0.1,0.4,0.5,0.7,1,0.7c2.6-0.5,5-1.7,6.9-3.5c0.9-0.9,1.9-1.9,2.5-2.9
			c0.4-0.5,0.7-1,1.1-1.3c0.3-0.3,0.6-0.5,0.8-0.6c0.7,0.1,1.4,0.1,2.1,0.1c0.7,0,1.3,0,2-0.1c-0.8,0.8-1.6,1.5-2.3,2.4
			c-1.2,1.3-2.3,2.7-3.4,4c-1.1,1.4-2.4,2.6-3.5,3.9c-0.3,0.3-0.3,0.8,0.1,1.1c0.3,0.3,0.9,0.3,1.2,0c1.2-1.3,2.3-2.6,3.5-3.8
			c1.2-1.2,2.6-2.4,3.8-3.5c1.3-1.1,2.5-2.4,4-3.3c1.3-0.9,2.7-1.7,4-2.5c-0.3,0.8-0.6,1.5-0.8,2.3c-0.3,0.9-0.6,1.8-0.9,2.6
			c-1.4,3.4-3.6,6.5-6.2,9.2c-0.3,0.3-0.3,0.9,0,1.2c0.3,0.3,0.9,0.3,1.2,0c2.7-2.8,5-5.9,7.2-9.2l1.2-1.8c0.7,1,1.3,2.1,1.8,3.2
			c0.7,1.7,1.2,3.4,1.4,5.1c0.1,0.5,0.4,0.8,0.9,0.8h0.1c0.5-0.1,0.8-0.5,0.8-1c-0.2-2-0.7-3.9-1.4-5.7c-0.6-1.8-1.3-3.6-1.7-5.5
			c0-0.1,0-0.1-0.1-0.2c0,0,0-0.1,0-0.1c0.7-1.7,1.3-3.3,1.9-4.9c1.1-0.6,2.2-1.1,3.4-1.7c2.6-1.3,5.2-2.5,7.9-3.5
			c0.1,1.2,0.2,2.2,0,3.2c-0.1,0-0.2,0-0.3,0c-1.9,0.7-3.8,1.7-5.5,2.9c-0.9,0.6-1.6,1.3-2.3,2.1c-0.7,0.8-1.3,1.7-1.8,2.6
			c-0.4,0.7-0.2,1.5,0.4,2c0.7,0.5,1.6,0.4,2.2-0.3l0,0c0.5-0.7,1.1-1.4,1.7-2.1c0.6-0.7,1.2-1.3,1.8-2c0.9-1,2-1.8,3.2-2.6
			c-0.1,0.5-0.3,1-0.4,1.5c-0.2,0.6-0.3,1.3-0.5,1.9c-0.1,0.6-0.3,1.3-0.5,1.9c-0.7,2.5-1.5,5-2.5,7.4c-1,2.5-1.6,5.1-2.7,7.6
			c0,0.1-0.1,0.2-0.1,0.3c-0.2-0.1-0.4-0.1-0.6,0h0c-2.3,0.7-4.9,1.1-7.3,2c-1.4,0.5-2.7,1-4,1.7c-0.8-1.3-2.3-2.3-4.8-3
			c-4.4-1.2-9-1.6-13.5-1.2c-0.5,0-0.8,0.5-0.8,0.9c0,0.5,0.4,0.8,0.9,0.7c4.4-0.4,8.7,0,12.9,1.1c1.9,0.5,3.2,1.3,3.7,2.2
			c-0.5,0.3-1,0.6-1.5,0.9c-4.3,2.8-8,6.6-10.7,11c-0.2,0.3-0.1,0.8,0.2,1c0,0.1,0.1,0.1,0.1,0.1c0.4,0.2,0.9,0.1,1.1-0.3v0
			c0.1-0.2,0.3-0.5,0.5-0.7c2.5-3.9,5.8-7.2,9.7-9.7c2.1-1.3,4.3-2.4,6.6-3.2c2.1-0.8,4.3-1.2,6.5-1.8c-0.3,0.6-0.6,1.1-0.9,1.7
			l-1,2l-0.8,1.6c-0.2,0.4,0,0.9,0.4,1.1c0.4,0.2,0.9,0,1.1-0.4l1.8-3.6c0,0,0,0,0,0c0.6-1.2,1.1-2.4,1.8-3.6
			c1.4-2.3,3.1-4.6,4.2-7.1c0-0.1,0-0.1,0.1-0.2c0.3,0.6,0.6,1.2,0.9,1.8c0.4,0.8,0.9,1.5,1.3,2.3c0,0.4-0.1,0.8-0.2,1.2
			c-0.2,1-0.5,2-0.9,3c-0.3,0.7-0.7,1.3-1.1,2c-0.4,0.7-0.9,1.4-1.3,2.2c-0.7,1.6-1.1,3.2-1.3,4.9c-0.1,0.8-0.1,1.6-0.2,2.5
			c0,0.4,0,0.8,0,1.3c0.1,0.4,0.2,1,0.6,1.4c0.1,0.1,0.1,0.3,0.2,0.4c0,0.1,0.1,0.2,0.2,0.3c0,0.1,0.1,0.1,0.1,0.2l0.1,0.1
			c0,0,0.1,0.1,0.2,0.1c0,0,0.2,0.1,0.3,0.1c0.1,0,0.1,0,0.2,0c0.1,0,0.3,0,0.4-0.1c0.1-0.1,0.2-0.2,0.3-0.3c0,0,0-0.1,0.1-0.1
			c0-0.1,0.1-0.2,0.1-0.3c0-0.3-0.1-0.5-0.3-0.7l0-0.1c-0.1-0.1-0.1-0.2-0.1-0.3l-0.1-0.4l-0.2-0.1c-0.2-0.1-0.3-0.8-0.2-1.6
			c0-0.8,0.1-1.6,0.2-2.3c0.2-1.5,0.5-3,1.1-4.4c0.3-0.7,0.7-1.3,1.1-2s0.9-1.4,1.3-2.2c0.3-0.7,0.6-1.3,0.9-2
			c0.5,1.3,0.8,2.8,1.1,4.1c0.4,1.7,0.6,3.3,0.7,5c0,0.5,0.4,0.8,0.9,0.8c0.5,0,0.8-0.4,0.8-0.9c-0.1-1.8-0.4-3.5-0.7-5.2
			c-0.3-1.7-0.9-3.4-1.3-5.1c-0.2-0.9-0.4-1.7-0.6-2.6v0c-0.2-0.9-0.4-1.7-0.7-2.6c-0.5-1.7-1.4-3.2-2.1-4.8c0,0,0,0,0-0.1
			c0,0,0,0,0,0c0.4-1.1,0.7-2.3,1-3.5c0.3-1.4,0.6-2.8,0.5-4.2c-0.1-1.4,0-2.7,0.2-4c0.2-1.6,0-3,0.1-4.2c0-0.2,0-0.4,0.1-0.6
			c0.2-0.3,0.2-0.6,0.2-0.9l0.1-0.3c0.1-0.2,0.1-0.5,0.2-0.7c0.5,1.2,1.1,2.4,1.7,3.5c1.3,2.5,2.6,4.9,3.8,7.4
			c-0.1,0.1-0.2,0.3-0.2,0.4c-0.1,1.5-0.7,3-1.1,4.9c-0.3,1.8-0.1,3.6,0.3,5.3c0,0,0,0.1,0,0.1c0.4,1.7,1.1,3.4,1.8,5
			c0.7,1.6,1.4,3.1,1.2,4.5v0c0,0.5,0.3,0.8,0.8,0.9c0.5,0,0.8-0.3,0.9-0.8c0.1-2-0.8-3.7-1.3-5.2c-0.6-1.5-1.1-3.1-1.3-4.7
			c-0.1-0.8-0.2-1.6-0.2-2.3c0-0.8,0-1.6,0-2.4c0.1-0.8,0.3-1.7,0.5-2.7c0.4,0.7,0.8,1.4,1.2,2.1v0c0.5,0.8,1.1,1.6,1.9,2.4
			c1,1.1,2.3,2,3.8,2.5c1.4,0.5,3.1,0.7,4.6,0.3c0.4-0.1,0.7-0.6,0.6-1c-0.1-0.4-0.6-0.7-1-0.6c-2.3,0.7-5-0.5-6.7-2.3
			c-0.9-0.9-1.5-1.9-2.2-2.9c-0.7-1.2-1.3-2.6-2-3.9c-0.7-1.4-1.3-2.7-1.9-4.1c0.7,0.1,1.4,0.2,2.1,0.2c0.2,0,0.4,0,0.6,0.1l0.7,0.1
			c0.5,0.1,0.9,0.1,1.4,0.1c0.8,0,1.6,0.1,2.3,0.2c0.1,0,0.2,0,0.3,0c1.7,0.2,3.1,0.8,4.3,2c1.1,1.1,1.9,2.6,2.1,4.1v0
			C352.2,336.4,352.4,336.6,352.6,336.7z"/>
	</g>
	<g class="st10">
		
			<linearGradient id="SVGID_10_" gradientUnits="userSpaceOnUse" x1="466.4926" y1="289.9825" x2="505.5087" y2="289.9825" gradientTransform="matrix(-0.9838 0.1795 0.1795 0.9838 827.3719 -69.3402)">
			<stop  offset="0" style="stop-color:#CA0000"/>
			<stop  offset="1" style="stop-color:#A80009"/>
		</linearGradient>
		<path class="st14" d="M418.2,298.1c-0.5,0.7-1.1,1.4-1.6,2.1c-0.6,0.7-1.2,1.3-1.9,1.9c-0.2,0.2-0.4,0.3-0.6,0.4
			c1.8,0.9,3.5,2,5.1,3.1l0,0c0.4,0.3,0.5,0.8,0.2,1.2c-0.3,0.4-0.8,0.5-1.2,0.2c-2.1-1.4-4.4-2.4-6.8-3c-1.2-0.3-2.4-0.7-3.6-0.9
			c-0.2,0-0.4-0.1-0.6-0.1c0.7,1,1.4,2,2,2.9c0.2,0.3,0.5,0.7,0.7,1c2,0.2,4,0.6,5.8,1.2c1.9,0.6,3.7,1.5,5.3,2.7c0,0,0,0,0,0
			c0.4,0.3,0.4,0.8,0.2,1.2c-0.3,0.4-0.8,0.4-1.2,0.2c-1.4-1.1-3-1.9-4.8-2.4c-1.2-0.3-2.4-0.4-3.6-0.3c0.1,0.1,0.2,0.3,0.3,0.4
			c1,1.3,2.2,2.4,3.7,3.1l0,0c0,0,0,0,0,0c0.4,0.2,0.5,0.7,0.3,1.1s-0.7,0.5-1.1,0.3c-1.5-0.9-3-1.8-4.5-2.9l-0.1,0.4
			c-0.4,1-0.7,2-1,2.9c-0.6,1.9-0.9,3.8-0.5,5.7l0,0c0.1,0.5-0.2,1-0.7,1.1c-0.5,0.1-1.1-0.1-1.2-0.7c-0.7-2.3-0.4-4.6,0-6.7
			c0.2-1.1,0.5-2.1,0.8-3.1l0.4-1.5c0,0,0,0,0,0c-0.6-0.6-1.1-1.2-1.6-1.8c-0.2-0.3-0.5-0.6-0.7-1c-0.1,0.4-0.1,0.8-0.3,1.2
			c-0.1,0.5-0.4,1.1-0.6,1.5c-0.2,0.4-0.4,0.7-0.6,1.1c-0.4,0.7-0.8,1.5-1,2.3c-0.5,1.2-0.7,2.4-0.9,3.7c0.1,0.3,0,0.6-0.1,0.9
			c0,0.1,0,0.1,0,0.2c-0.2,1.7-0.2,3.4,0.1,5c0,0,0,0.1,0,0.1c0,0.7-0.5,1.2-1.1,1.3c-0.7,0-1.2-0.5-1.3-1.1
			c-0.1-1.2-0.1-2.4-0.1-3.6c-0.2,0.1-0.3,0.2-0.5,0.3c-0.6,0.2-1.1,0.4-1.6,0.5c-0.5,0.1-1,0.2-1.5,0.3c-2.1,0.2-4.1,0.1-6.1-0.3
			c0,0-0.1,0-0.1,0c-0.6-0.2-0.9-0.7-0.7-1.3c0.2-0.6,0.7-0.9,1.3-0.7c1.7,0.5,3.6,0.7,5.3,0.4c0.4-0.1,0.9-0.2,1.3-0.3
			c0.4-0.1,0.8-0.3,1.1-0.4c0.5-0.3,1-0.8,1.6-1.3c0.1-1.4,0.4-2.8,0.7-4.2c0-0.1,0-0.2,0.1-0.3c-1.4,0.2-2.7,0.6-4,1.1
			c-0.9,0.4-1.9,0.8-2.7,1.4c-0.8,0.6-1.6,1.3-2.1,2.1c0,0,0,0,0,0.1c-0.3,0.4-0.9,0.5-1.4,0.2c-0.4-0.3-0.5-0.9-0.2-1.4l0,0
			c0.7-1,1.6-1.8,2.5-2.6c0.9-0.8,1.9-1.5,2.9-2c1-0.5,2.1-1,3.2-1.5c1-0.4,1.9-0.7,2.8-1c0-0.1,0-0.2,0.1-0.2
			c0.1-0.4,0.2-0.6,0.3-1c0.1-0.7,0.4-1.5,0.5-2.3c0.2-0.8,0.3-1.6,0.7-2.8c-0.5-1.2-0.9-2.5-1.3-3.6c-0.5-1.6-1.1-3.2-1.8-4.5
			c-0.8-1.4-1.8-2.3-3.1-3.2c-2.5-1.7-5.8-2.8-8.7-2.5l0,0c-0.1,0-0.1,0-0.2,0c-0.4,0-0.7-0.2-1-0.4c-1,0.1-2.1,0.5-3.2,0.8
			c-1.2,0.4-2.3,0.8-3.5,1.2c-0.6,0.2-1.2-0.1-1.4-0.6c-0.2-0.6,0.1-1.2,0.6-1.4c1.2-0.4,2.3-0.9,3.4-1.4c1.1-0.5,2.3-1.1,3.6-1.4
			c1.4-0.3,2.8-0.4,4.2-0.1c1.3,0.3,2.6,0.6,3.7,0.9c2.4,0.7,4.6,1.2,6.7,1c1.1-0.1,2.1-0.5,2.9-1.1c0.8-0.7,1.6-1.5,2-2.6
			c0.2-0.4,0.6-0.6,1.1-0.5c0.4,0.2,0.6,0.6,0.5,1.1c-0.4,1.1-1.1,2.1-2,3c0.6,0.2,1.3,0.5,1.8,0.9c1,0.7,1.9,1.7,2.5,2.8l0,0
			c0,0,0,0.1,0.1,0.1c0.2,0.5-0.1,1.1-0.6,1.2c-0.5,0.2-1.1-0.1-1.2-0.6c-0.3-0.9-0.9-1.7-1.7-2.2c-0.7-0.5-1.6-0.9-2.5-1
			c-0.7,0.5-1.5,0.8-2.4,1c-0.8,0.2-1.7,0.3-2.5,0.3c0.5,0.4,0.9,0.8,1.3,1.3c0.6,0.7,1.2,1.5,1.6,2.3c0.9,1.6,1.6,3.2,2.2,4.8
			c0.3,0.8,0.7,1.5,1,2.3c0,0,0.1,0,0.1,0l1,0.1c0.7,0.1,1.3,0.2,2,0.4c0.9,0.2,1.9,0.5,2.8,0.9c0,0,0.1,0,0.1-0.1
			c0.7-0.2,1.4-0.5,2.1-0.9c0.1,0,0.2-0.1,0.2-0.2c0,0,0-0.1,0-0.1c-0.1-1.5,0.1-2.9,0.4-4.3c0.4-1.4,0.9-2.7,1.5-4
			c0.2-0.4,0.7-0.6,1.1-0.3c0.4,0.2,0.6,0.7,0.3,1.1c-0.6,1.1-1,2.3-1.3,3.6c-0.1,0.8-0.2,1.6-0.2,2.4c0.5-0.4,0.9-0.9,1.3-1.4
			c0.5-0.6,0.9-1.3,1.3-2.1c0,0,0,0,0,0c0.2-0.4,0.7-0.5,1.1-0.3c0.4,0.2,0.5,0.7,0.3,1.1C419.1,296.6,418.7,297.3,418.2,298.1z"/>
		
			<linearGradient id="SVGID_11_" gradientUnits="userSpaceOnUse" x1="484.2328" y1="255.3963" x2="518.0347" y2="255.3963" gradientTransform="matrix(-0.9838 0.1795 0.1795 0.9838 827.3719 -69.3402)">
			<stop  offset="0" style="stop-color:#CA0000"/>
			<stop  offset="1" style="stop-color:#A80009"/>
		</linearGradient>
		<path class="st15" d="M395.9,267.2c-1,0.5-1.8,1.3-2.4,2.3c-0.7,1-1.2,2-1.7,3.2c-0.5,1.1-0.9,2.3-1.1,3.5
			c-0.2,0.6-0.3,1.3-0.4,1.9c0.2-0.1,0.5-0.2,0.7-0.3c1.6-0.6,3.1-1.3,4.7-2c0.4-0.2,0.9-0.1,1.1,0.3c0.3,0.4,0.2,1-0.2,1.3
			c-1.4,1-2.9,2-4.6,2.8c-1.6,0.8-3.4,1.4-5.2,1.8c-0.9,0.2-1.8,0.3-2.8,0.4c-1,0.1-2,0.1-2.9,0.1c-1.5-0.1-3-0.2-4.2-0.1
			c-0.4,0.2-0.7,0.5-1.1,0.7c-0.7,0.4-1.3,0.7-2,1c-0.4,0.2-0.9,0.3-1.4,0.5c-0.5,0.3-1.1,0.4-1.7,0.3c-1.5,0.1-3.1-0.1-4.5-0.5
			c-0.9-0.3-1.5-1.2-1.3-2.1c0.2-1,1.2-1.7,2.2-1.6l0.1,0c0.2,0,0.4,0,0.6,0.1c-0.1-0.3-0.2-0.7-0.3-1c-0.3-1.5-0.3-3.1,0.1-4.5
			c0.2-0.7,0.4-1.4,0.7-2c0.3-0.7,0.7-1.2,1-1.8c0.7-1.1,1.3-2.1,1.5-3.2l0,0c0.1-0.4,0.5-0.7,1-0.7c0.5,0.1,0.8,0.5,0.7,1
			c-0.2,1.4-0.6,2.6-0.9,3.8c-0.3,1.2-0.3,2.3-0.3,3.4c0.1,1.1,0.1,2,0.4,2.9c0.1,0.3,0.2,0.6,0.4,0.9c0.5-0.2,1.1-0.5,1.5-0.7
			c0.4-0.2,0.8-0.3,1.2-0.5c0,0,0.1,0,0.1-0.1c0.6-0.3,1.1-0.5,1.6-0.9c0.1-0.7,0.1-1.6,0-2.8c-0.1-1.5,0.2-3.1,0.3-4.6
			c0.2-1.5,0.3-3,0.4-4.4c0.1-1.5,0.3-2.9,0.6-4.4l0,0c0.1-0.4,0.5-0.7,1-0.7c0.4,0.1,0.7,0.5,0.7,1l0,0c-0.3,1.4-0.5,2.8-0.6,4.2
			c-0.1,1.4-0.1,2.8,0.2,4.2c0.2,1.4,0.7,2.8,1,4.1c0,0.2,0.1,0.5,0.2,0.7c1.9-1.5,3.6-3.5,5-5.6c0-0.1,0-0.2,0-0.3
			c0.2-2.1-0.1-4.3-1-6.3c-0.2-0.4,0-0.9,0.4-1.1c0.4-0.2,0.9,0,1.1,0.4c0.6,1.4,1,2.8,1.2,4.3c0.2-0.4,0.3-0.7,0.5-1.1
			c0.6-1.2,1-2.5,1.4-3.8l0,0c0,0,0,0,0,0c0.1-0.4,0.6-0.7,1-0.5c0.4,0.1,0.7,0.6,0.5,1c-0.9,2.7-2,5.3-3.4,7.8
			c-1.3,2.5-2.8,5-4.6,7.3c-0.4,0.6-0.9,1.2-1.4,1.7c0.1,0,0.2,0.1,0.3,0.1c0.8,0.2,1.6,0.4,2.3,0.4c0.8,0,1.6-0.1,2.4-0.2
			c0.3-0.1,0.6-0.1,0.9-0.2c0,0,0,0,0,0l0,0c0.9-2.3,1.9-4.7,3-7c0.6-1.1,1.2-2.3,1.9-3.4c0.8-1.1,1.7-2.1,3-2.8c0,0,0,0,0,0
			c0.4-0.2,0.9-0.1,1.1,0.4C396.5,266.4,396.3,266.9,395.9,267.2z"/>
		
			<linearGradient id="SVGID_12_" gradientUnits="userSpaceOnUse" x1="468.9939" y1="318.7284" x2="522.7464" y2="318.7284" gradientTransform="matrix(-0.9838 0.1795 0.1795 0.9838 827.3719 -69.3402)">
			<stop  offset="0" style="stop-color:#CA0000"/>
			<stop  offset="1" style="stop-color:#A80009"/>
		</linearGradient>
		<path class="st16" d="M424.1,334.5L424.1,334.5c-1.6-1.4-3.7-2.2-5.7-2.5c-1.7-0.3-3.4-0.2-5.1-0.1c1-1.2,1.8-2.5,2.4-3.9
			c0.4-1,0.6-2.2,0.8-3.2c0.1-1,0.3-2,0.7-2.8c0.2-0.4,0.1-0.9-0.3-1.1c-0.4-0.2-0.9-0.1-1.1,0.3v0c-0.6,1.1-0.7,2.3-0.9,3.3
			c-0.2,1-0.4,2-0.7,2.9c-0.4,0.9-0.8,1.8-1.4,2.5c-0.6,0.8-1.3,1.5-2.1,2c-0.1,0.1-0.2,0.2-0.3,0.3c-0.5,0.1-0.9,0.1-1.4,0.1
			l-0.1,0c-0.2,0-0.5,0-0.7,0.1c-0.6,0.1-1.1,0.1-1.7,0.2c-1.9,0.3-3.7,0.4-5.4-0.1c-0.1,0-0.3,0-0.4-0.1c-0.6-0.4-1.3-0.8-2-1.1
			c-0.3-0.2-0.7-0.3-1.1-0.5c0.4-0.4,0.8-0.7,1.2-1.1c0.6-0.5,1.2-1,1.8-1.6c0.6-0.5,1.3-1,2-1.5l0,0c0.6-0.4,0.8-1.2,0.4-1.8
			c-0.3-0.5-0.9-0.7-1.4-0.5c-0.9,0.3-1.8,0.6-2.7,0.9c-0.9,0.4-1.7,0.8-2.5,1.4c-1.1,0.9-2.1,1.9-3,3c0,0,0,0,0,0
			c-1.8-0.3-3.5-0.8-5.2-1.1c-0.2,0-0.3-0.1-0.5-0.1c0.5-0.3,1.1-0.7,1.6-1.1c1.1-0.8,2-1.8,2.8-2.9c0.4-0.5,0.3-1.3-0.2-1.7
			c-0.5-0.4-1.3-0.3-1.7,0.2c-0.7,0.9-1.5,1.7-2.4,2.5c-0.9,0.7-1.9,1.4-2.9,2c-0.2,0.1-0.3,0.2-0.4,0.4c-2-0.4-4-0.8-5.9-1.4
			l-0.1-0.2c-0.2-0.7-0.5-1.3-0.7-1.9c-0.4-1-0.8-1.9-1.1-2.9c0-0.1,0-0.1-0.1-0.2c-0.6-1.5-1.1-3-1.6-4.4c-0.3-0.9-0.5-1.9-0.8-2.8
			c0.8,0.3,1.6,0.6,2.4,1.1c1.3,0.8,2.6,1.7,3.8,2.8c0.5,0.4,1.3,0.4,1.7-0.1c0.5-0.5,0.4-1.3-0.1-1.7c-1.3-1.1-2.6-2.2-4.2-3.1
			c-1.3-0.8-2.7-1.4-4.2-1.8c-0.1-0.7-0.2-1.4-0.3-2.1c-0.3-2.7-0.9-5.3-1.3-8c-0.1-0.6-0.6-1-1.1-0.9c-0.6,0.1-0.5,1.1-0.4,1.6
			c0.3,2.7-0.1,4.9,0.3,7.6c0.2,2.3,0.7,4.6,1.3,6.9c0,0,0,0,0,0.1l0,0c-0.5,1.3-1.1,2.8-1.6,4c-0.5,1.3-1,2.5-1.9,3.5
			c-0.3,0.3-0.6,0.7-0.9,0.9c0.4,0.7,0.7,1.3,1.1,2c0.6-0.4,1.1-0.9,1.6-1.4c0.6-0.6,1.1-1.2,1.5-1.9c0.2-0.4,0.4-0.7,0.6-1l0.5-1
			c0.2-0.4,0.4-0.9,0.6-1.3c0.2,0.6,0.4,1.1,0.7,1.7c-0.3,2.5-0.7,5.1-1.2,7.6c-0.1,0.2-0.2,0.3-0.2,0.5v0.2c0,0.6-0.2,0.9-0.8,1.3
			c-0.2,0.1-0.5,0.3-0.7,0.4c0.2,0.5,0.4,1,0.7,1.6c0.1,0,0.1-0.1,0.2-0.1c0,0.1-0.1,0.2-0.1,0.4c0.3,0.8,0.7,1.6,1.1,2.4
			c0.6-2,1.2-4,1.8-6c0.4-1.2,0.7-2.5,1-3.7c0.1,0.2,0.2,0.4,0.3,0.7l0.1,0.3c0,0.3,0.1,0.6,0.3,0.9c0.1,0.2,0.1,0.3,0.2,0.6
			c0.3,1.2,0.4,2.6,0.9,4.1c0.5,1.3,0.8,2.5,0.9,3.9c0.2,1.4,0.8,2.7,1.3,4c0.5,1.1,1,2.2,1.6,3.3c0,0,0,0,0,0c0,0,0,0.1,0,0.1
			c-0.4,1.7-1,3.4-1.2,5.1c0,0.2,0,0.5-0.1,0.7c0,0.1,0.1,0.1,0.1,0.2c0,0.1,0.1,0.1,0.1,0.2c2.7,4.7,5.8,9.6,9.1,14.3
			c-0.5-1.6-1.1-3.1-2.1-4.5c-0.5-0.7-1.1-1.4-1.6-1.9c-0.5-0.6-1-1.1-1.5-1.8c-0.6-0.9-1.1-1.8-1.4-2.8c-0.2-0.4-0.3-0.8-0.4-1.2
			c0.3-0.8,0.6-1.7,0.8-2.5c0.2-0.6,0.4-1.3,0.5-2c0,0,0.1,0.1,0.1,0.2c1.5,2.3,3.6,4.2,5.4,6.2c0.9,1,1.6,2.1,2.4,3.2c0,0,0,0,0,0
			l2.4,3.2c0.3,0.4,0.8,0.4,1.1,0.2c0.4-0.3,0.5-0.8,0.2-1.1l-1.1-1.4l-1.4-1.8c-0.4-0.5-0.8-1-1.1-1.5c2.3,0.2,4.6,0.2,6.7,0.6
			c2.4,0.4,4.8,1,7,2c4.3,1.7,8.1,4.4,11.2,7.8c0.2,0.2,0.4,0.4,0.6,0.6v0c0.3,0.3,0.8,0.4,1.2,0.1c0,0,0.1-0.1,0.1-0.1
			c0.2-0.3,0.2-0.7,0-1c-3.4-3.9-7.7-6.9-12.5-8.9c-0.6-0.2-1.1-0.4-1.6-0.6c0.4-1,1.5-2,3.3-2.8c3.9-1.9,8.2-3.1,12.5-3.4
			c0.5,0,0.8-0.4,0.8-0.9c0-0.5-0.4-0.8-0.9-0.8c-4.6,0.4-9,1.6-13.1,3.6c-2.3,1.1-3.6,2.4-4.1,3.8c-1.4-0.4-2.8-0.7-4.2-1
			c-2.6-0.4-5.1-0.4-7.5-0.7h0c-0.2,0-0.4,0-0.6,0.2c-0.1-0.1-0.1-0.2-0.2-0.2c-1.5-2.3-2.6-4.8-4-7c-1.4-2.2-2.7-4.5-3.8-6.9
			c-0.3-0.6-0.5-1.2-0.8-1.8c-0.2-0.6-0.5-1.2-0.8-1.8c-0.2-0.4-0.5-0.9-0.7-1.4c1.3,0.5,2.5,1.1,3.6,1.9c0.7,0.5,1.5,1,2.2,1.6
			c0.7,0.5,1.4,1.1,2,1.7l0,0c0.6,0.6,1.6,0.6,2.2-0.1c0.5-0.6,0.6-1.4,0.1-2c-0.7-0.8-1.4-1.5-2.2-2.2c-0.8-0.7-1.7-1.2-2.7-1.7
			c-1.9-0.9-3.9-1.6-5.9-1.9c-0.1,0-0.2,0-0.3,0c-0.3-0.9-0.4-1.9-0.5-3.1c2.9,0.5,5.7,1.2,8.4,2c1.2,0.4,2.4,0.7,3.6,1.1
			c0.9,1.5,1.8,2.9,2.8,4.5c0,0,0,0.1,0.1,0.1c0,0.1,0,0.1,0,0.2c-0.1,1.9-0.4,3.8-0.7,5.7c-0.3,1.9-0.5,3.8-0.4,5.8
			c0,0.5,0.5,0.8,1,0.8l0.1,0c0.4-0.1,0.8-0.5,0.7-0.9c-0.1-1.8,0.1-3.6,0.5-5.3c0.3-1.2,0.7-2.3,1.2-3.5l1.5,1.5
			c2.8,2.8,5.6,5.4,8.8,7.7c0.4,0.3,0.9,0.2,1.2-0.2c0.3-0.4,0.2-0.9-0.2-1.2c-3-2.2-5.8-4.8-7.8-8c-0.5-0.8-1-1.6-1.4-2.4
			c-0.3-0.7-0.7-1.4-1.2-2.1c1.5,0.6,3,1.1,4.4,1.7c1.6,0.7,3,1.7,4.5,2.5c1.5,0.9,3,1.8,4.4,2.7c1.4,1,2.8,2.1,4.2,3.1
			c0.4,0.3,0.9,0.2,1.2-0.2c0.3-0.4,0.2-0.9-0.2-1.1c-1.4-1.1-2.8-2.1-4.1-3.2c-1.4-1.1-2.7-2.3-4.1-3.3c-0.9-0.7-1.8-1.3-2.7-1.9
			c0.7-0.1,1.3-0.2,2-0.3c0.7-0.1,1.3-0.3,2-0.5c0.2,0,0.6,0.2,0.9,0.4c0.4,0.3,0.9,0.7,1.3,1.1c0.9,0.9,1.9,1.7,3,2.4
			c2.2,1.4,4.8,2.2,7.4,2.2c0.5,0,0.8-0.4,0.8-0.8c0-0.5-0.4-0.8-0.8-0.8l0,0c-2.3,0-4.6-0.7-6.5-2c-1-0.6-1.7-1.4-2.5-2.4
			c-0.3-0.3-0.5-0.6-0.8-0.9c0.3-0.1,0.6-0.1,0.9-0.2c1.8-0.4,3.7-0.4,5.5-0.2c1.8,0.3,3.5,0.9,4.8,2.1c0.3,0.3,0.9,0.3,1.2-0.1
			c0.2-0.2,0.2-0.5,0.2-0.7C424.3,334.8,424.3,334.6,424.1,334.5z"/>
	</g>
	<path class="st4" d="M314.1,376.3c0,0,1.3-8.5-4.8-21.4c-6.1-12.9-24.9-33.2-24.9-33.2l0.5-2.4c0,0,19.9,23.3,25.2,33.8
		c5.3,10.5,6.7,19.4,7.9,20.6c1.2,1.2,3.3,0.6,3.3,0.6L314.1,376.3z"/>
	<path class="st4" d="M353,316.7c0,0-18,6.4-39.1,6.4c-21.1,0-28.8-5.2-28.8-5.2l-0.3,1.6c0,0,8.4,4.9,30,4.9
		c21.7,0,37.6-4.9,37.6-4.9L353,316.7z"/>
	<path class="st7" d="M352.6,317.5c-1.6,1.6-0.5,6.3-0.1,14.9c0.1,1.3,0.1,2.8,0.1,4.3v0.7c0,11.9-1.6,22.1-11.7,27.5
		c-10.1,5.3-21.2,9-23,9c-1.8,0-3.4,2-6.6,5.2c-3.2,3.2-19.1,7.2-23.1,3.1c-1.4-1.4-2.7-4.5-3.6-8.4c3.9-0.7,9.4-1.9,13.6-3.9
		c0.6-0.3,1.2-0.6,1.7-0.9c0.1-0.1,0.2-0.1,0.3-0.2c7.1-4.4,12.7-7.5,12.7-7.5s3.4-1,8-3.3c0.8-0.4,1.6-0.9,2.5-1.3
		c2.6-1.4,5.4-3.3,8-5.5c0.8-0.7,1.6-1.4,2.4-2.1v0c1.4-1.3,2.8-2.8,4-4.4c0.7-0.8,1.3-1.7,1.8-2.6c0.4-0.7,0.8-1.3,1.2-2.1
		c0.2-0.3,0.3-0.6,0.5-0.9v0c0.3-0.6,0.6-1.2,0.9-1.7c1.4-2.9,2.5-5.3,3.2-7.3c0.2-0.6,0.4-1.1,0.6-1.6c0.7-2.2,1-3.8,1-4.9
		c0.1-0.8,0-1.3,0-1.7c-0.1-0.6-0.2-0.8-0.2-0.8s-6.7-30.6-11.2-39.4c-3.7-7.2,1.6-22.5,3.8-28c1.2,2.1,1.8,4.2,1.6,6.1
		c-0.9,8.1-0.5,16.3-0.5,16.3s3.1-3.3,7.1,7.3C351.6,293.6,354.6,315.5,352.6,317.5z"/>
	<path class="st7" d="M284.8,319.4c0,0,29.5,28.5,34.1,39.9c4.6,11.4,3.8,17.8,3.8,17.8l-11.3,1.9c0,0-2.2-24.1-17.8-45
		c-2.4-3.3-9-13.5-9-13.5L284.8,319.4z"/>
	<path class="st7" d="M284.6,320.5c0,0,21.5,10.3,41.9,7.3c20.4-3,26.1-7.3,26.1-7.3l0-3c0,0-17.1,5.6-36.7,5.6
		c-19.6,0-31.2-3.6-31.2-3.6L284.6,320.5z"/>
	<path class="st4" d="M378.8,351.8c0,0,16.6-11.3,28.6-27.6s14.9-24.4,14.9-24.4l1.1,3.5c0,0-7.1,11.7-20.4,28.1
		c-13.3,16.4-22.6,20.9-22.6,20.9L378.8,351.8z"/>
	<g>
		<linearGradient id="SVGID_13_" gradientUnits="userSpaceOnUse" x1="329.4569" y1="346.3299" x2="329.4569" y2="328.8643">
			<stop  offset="0" style="stop-color:#00EDDD"/>
			<stop  offset="1" style="stop-color:#18ACCF"/>
		</linearGradient>
		<path class="st17" d="M331.5,329c-1.3,5.9-2.1,11.7-4.7,17.3c-0.1,0.2,0.2,0.4,0.3,0.2c1.7-2.6,2.5-5.5,3.4-8.3
			c0.9-2.9,1.8-6,1.5-9.1C332,328.8,331.6,328.7,331.5,329z"/>
		<linearGradient id="SVGID_14_" gradientUnits="userSpaceOnUse" x1="355.6805" y1="335.2601" x2="355.6805" y2="227.6888">
			<stop  offset="0" style="stop-color:#18ACCF"/>
			<stop  offset="1" style="stop-color:#00458E"/>
		</linearGradient>
		<path class="st18" d="M411.4,314C411.4,314.1,411.4,314.1,411.4,314c-2.9-2.4-4.4-5.4-6-8.5c-1.7,6-3.4,11.7-3.6,18
			c0,0.3-0.5,0.3-0.6,0c-0.8-6.2,0.1-13,3.9-18.4c-0.3-0.6-0.7-1.3-1-1.9c-2.4-4.3-6.7-9.3-11.7-11.5c-1.2-0.2-2.4-0.3-3.4-0.3
			c-7.3,0-9.1,5.3-9.1,5.3s2.8,3.7,5.1,5.9c2.3,2.1,6.4,12.5,6.6,13.2c-0.4-0.5-5.6-7.2-9-9.3c-3.5-2.1-8-6.2-8-6.2s0.6,4-0.8,8
			c-1.3,3.6-0.5,10-0.5,10s-2.8-7-2.8-9.5c0-2.5,0.7-5.1-1.4-9.3c-0.7-1.3-2.5-3.2-4.9-5.2c-0.5-0.4-0.9-0.8-1.4-1.1
			c-0.5-0.4-1-0.8-1.5-1.1c-0.5-0.4-1-0.7-1.5-1.1c-0.6-0.4-1.3-0.9-1.9-1.3v0c-0.2-0.1-0.5-0.3-0.7-0.4c-0.3-0.2-0.6-0.4-1-0.6
			c0,0,0,0-0.1,0c-2.6-1.5-4.7-2.3-5.3-1.7c-0.4,0.4-1.3,1.1-2.4,1.9c-0.1,0.1-0.2,0.2-0.3,0.3c-0.1,0.1-0.1,0.1-0.2,0.2
			c-0.4,0.3-0.7,0.5-1.1,0.8c-1.2,0.9-2.6,2-3.9,3c-0.6,0.5-1.3,1-1.8,1.5c-1.1,1-2.1,1.9-2.9,2.7c0,0,0,0,0,0
			c-0.3,0.3-0.6,0.7-0.8,1c0,0,0,0,0,0.1c-1.9,2.7-2.8,11.4-3.1,14.8c1.8,2.7,3,5.7,5.1,8.3c1.8,2.3,3.7,3.2,6.8,3.5
			c1.4,0.1,2.7,0.2,4.1,0.5c0.3,0.1,0.2,0.4-0.1,0.5c-3.9,0.4-7.8,0.9-10.4-2.1c-2-2.3-4.3-5.1-5.5-8c-0.1,1.7-0.2,3.4-0.4,5.1
			c0.5,2.8,1.1,5.4,2.4,8.1c1.2,2.5,2.7,4.7,3.3,7.4c0.1,0.3-0.4,0.6-0.6,0.2c-2.8-4.7-4.7-8.7-5.5-13.4c-0.1,0.3-0.1,0.7-0.2,1
			c-0.1,0.2-0.5,0.2-0.5-0.1c0.1-1.6,0.2-3.2,0.2-4.8c0-0.7,0.2-1.3,0.2-2.1c0-0.1-0.1-0.3-0.1-0.3c0.1-1.7,0.1-3.4,0.2-5.1
			c-0.1,0.1-0.2,0.2-0.3,0.3c-0.7,0.5-1.3,1-1.9,1.5c-1.1,0.9-2.3,1.9-3.6,2.5c-0.3,0.1-0.5-0.2-0.3-0.4c1-1.1,2.3-1.9,3.4-2.9
			c0.7-0.6,1.3-1.1,1.8-1.8c0.3-0.4,0.5-0.5,0.9-0.6c0-1.3,0-2.7,0-4c-0.1-3.4-0.7-8.6-1.7-8.6c-1.2,0-6.4,4.7-10.2,6
			c-3.8,1.3-11.5,0-11.5,0s3.6-0.2,8.3-1.5c4.7-1.4,12-10.7,12-10.7s-5.2-0.9-9.5-0.8c-1.6,0-3.5,0-5.2,0c-5.5,1.9-6.5,7.7-8,13
			c-0.2,0.7-0.4,1.4-0.7,2.1c1.2,5.9,7.4,10,6.9,16.5c0,0.3-0.4,0.3-0.6,0.1c-1.6-3.9-2.6-7.5-5.2-11.1c-0.9-1.2-1.5-2.4-1.8-3.7
			c-1.3,3.4-3,6.8-5.4,9.7c-0.4,0.5-1.1,0.1-0.8-0.4c2.1-4.2,4.4-8.3,5.7-12.8c0.9-2.8,1.3-5.7,2.5-8.5c0.9-2.1,2.3-3.9,4-5
			c-1.2,0-2,0-2,0s1.7-0.6,4.6-1.1c0.4-0.1,0.9-0.2,1.3-0.2c2.1-0.3,4.7-0.6,7.7-0.5c2.7,0,7.7-0.6,9.9-0.6h0.1
			c0.2,0,0.5-0.1,0.8-0.3c0.3-0.2,0.6-0.4,0.9-0.7v0c0.7-0.5,1.4-1.2,2.3-2c-0.5,0-1.1-0.1-1.6-0.2c-1.9-0.3-3.7-0.9-5.4-1.7
			c-1.7,0.7-3.7,0.6-5.5,0.5c-2.3-0.1-4.7-0.4-6.9-1.1c-0.2-0.1-0.2-0.4,0.1-0.4c3.8,0.2,7.2,0.7,10.8,0.2c-4.9-2.8-9-7.4-12-11.5
			c-0.1-0.1,0.1-0.2,0.2-0.1c4.9,6,10.8,10.8,18.2,12c0.3-1.9,0.3-3.7,0-5.5c-0.3-1.3-0.9-2.6-1-3.9c0-0.2,0.3-0.4,0.5-0.2
			c2.1,2.1,2.3,5.8,2,8.7c0,0.4-0.1,0.8-0.1,1.1c0.9,0.1,1.9,0.1,2.9,0.1c0.6-0.6,1.1-1.2,1.7-1.9c0.4-0.4,0.7-0.8,1.1-1.2
			c0.6-0.7,1.1-1.4,1.7-2c0.2-0.2,0.3-0.4,0.5-0.6c0.6-0.7,1.1-1.4,1.5-2.1c0.3-0.4,0.5-0.8,0.7-1.1c0.3-0.5,0.5-0.9,0.7-1.3
			c0.2-0.4,0.2-1.4,0.2-2.8c0-0.3,0-0.7,0-1c0-1.1-0.1-2.3-0.1-3.7c0-0.4,0-0.7-0.1-1.1c-0.1-1.7-0.2-3.7-0.4-5.7
			c0-0.5-0.1-0.9-0.1-1.4c-0.1-1-0.2-2.1-0.2-3.2c0-0.3,0-0.5-0.1-0.8c-0.1-1.6-0.3-3.1-0.4-4.7c0-0.3-0.1-0.7-0.1-1
			c-0.1-1.4-0.3-2.8-0.4-4.1c0-0.4-0.1-0.9-0.1-1.3c-0.2-2.1-0.4-4.1-0.5-5.8c0-0.4-0.1-0.8-0.1-1.2c-0.3-3.2-0.5-5.4-0.5-5.7
			c0-1.3,1.3-2,1.3-2h12.1c0.5,0.4,0.7,3.2,0.8,7.2c0,0.5,0,0.9,0,1.4c0,1.8,0,3.7,0,5.8c0,0.5,0,1,0,1.5c0,1.2,0,2.5-0.1,3.8
			c0,0.5,0,1,0,1.6c0,1.4-0.1,2.7-0.1,4.1c0,0.5,0,1.1,0,1.6c0,1-0.1,2-0.1,3c0,0.7,0,1.4-0.1,2.1c0,1-0.1,2.1-0.1,3
			c0,0.7,0,1.4-0.1,2.1c0,1.1-0.1,2.1-0.1,3c0,0.6,0,1.1,0,1.6c0,1.5-0.1,2.7-0.1,3.5c0,0.3,0,0.6,0.1,0.9c0.1,0.5,0.3,1,0.6,1.5
			c0.7,1.3,1.9,2.8,3.4,4.2c0.4,0.4,0.8,0.7,1.1,1.1c0.8,0.7,1.7,1.5,2.7,2.2c0.3,0.2,0.6,0.5,0.9,0.7c1,0.7,2,1.4,3,2
			c0.2,0.1,0.4,0.3,0.6,0.4c0.5,0.3,0.9,0.6,1.4,0.8c2.8-0.8,5.4-1.8,7.9-3.9c3.2-2.6,5.6-5.6,7.4-9.1c0.2-0.4,0.9-0.2,0.9,0.2
			c-0.5,4.9-4.3,9.2-9.1,11.9c2.6,0.1,5.1,0.5,7.7,0.3c3.6-0.3,6.4-1.9,9.5-3.4c0.3-0.1,0.5,0.2,0.3,0.4c-4.6,4.4-12.6,5.2-18.8,3.4
			c-1.2,0.6-2.4,1.1-3.6,1.5c3.8,2,7.1,3.2,8.6,2.6c4.1-1.5,16.1,2.6,17.5,3c-0.6-0.2-3.4-0.9-6.3-1.4c3.4,1.7,6.5,4.6,8.5,7.1
			C406.3,303.6,408.1,309.3,411.4,314z"/>
		<linearGradient id="SVGID_15_" gradientUnits="userSpaceOnUse" x1="392.3935" y1="353.4915" x2="392.3935" y2="326.6178">
			<stop  offset="0" style="stop-color:#00EDDD"/>
			<stop  offset="1" style="stop-color:#18ACCF"/>
		</linearGradient>
		<path class="st19" d="M394.8,333.6c-5.3-1.7-11.4-3.9-17.1-3.9c-0.4-1-0.8-2-1.2-3c-0.1-0.2-0.5-0.2-0.4,0.1
			c1.9,9.2,6.5,19.5,12.7,27c0.1,0.2,0.4,0,0.3-0.2c-2-4.2-4.5-8.2-6.6-12.4c-1.7-3.5-3.1-7.2-4.5-10.8c10.7,1.3,20.9,5.3,30,10.4
			c0.4,0.2,0.9-0.4,0.5-0.6C404.4,337.2,399.7,335.2,394.8,333.6z"/>
	</g>
	<linearGradient id="SVGID_16_" gradientUnits="userSpaceOnUse" x1="316.2757" y1="361.9134" x2="316.2757" y2="258.3897">
		<stop  offset="0" style="stop-color:#000000"/>
		<stop  offset="1" style="stop-color:#FFE0C2"/>
	</linearGradient>
	<path class="st20" d="M291.3,352.4c0,13.2,12.5,10.4,17.4,5.5s27.8-14.7,32-30.1c4.2-15.3-9.6-42.5-10.9-55.1
		c-1.4-12.6-3.9-22.2-17.9-4.9c-14,17.3-10.9,42.6-16.6,53.7C289.6,332.4,291.3,346.5,291.3,352.4z"/>
	<linearGradient id="SVGID_17_" gradientUnits="userSpaceOnUse" x1="392.8911" y1="349.2117" x2="392.8911" y2="254.3825">
		<stop  offset="0" style="stop-color:#000000"/>
		<stop  offset="1" style="stop-color:#FFE0C2"/>
	</linearGradient>
	<path class="st21" d="M380.7,254.4c-14.1,0-14.1,47-14.4,53.2s36.8,41.6,47.3,41.6c10.5,0,5.4-35.2-4.9-52.9
		C398.4,278.7,388.8,254.4,380.7,254.4z"/>
	<g>
		<g>
			<linearGradient id="SVGID_18_" gradientUnits="userSpaceOnUse" x1="350.3127" y1="235.4934" x2="354.3217" y2="235.4934">
				<stop  offset="0" style="stop-color:#A6DDFF"/>
				<stop  offset="1" style="stop-color:#28A4FD"/>
			</linearGradient>
			<path class="st22" d="M359.5,236c-0.1,0-0.3,0.1-0.4,0.1c-2.2,0.5-4.5,0.3-6.7,0.3c-0.1,0-0.3,0-0.4,0c-2.1,0.1-4.4,0.3-6.4-0.1
				c-0.1,0-0.2,0-0.3-0.1c-0.5-0.1-0.5-0.9,0-1.1c0.1,0,0.1,0,0.2,0c2-0.6,4.3-0.4,6.4-0.5c0.2,0,0.4,0,0.6,0c2.2-0.1,4.5-0.4,6.7,0
				c0.1,0,0.3,0.1,0.4,0.1C360.1,234.8,360,235.8,359.5,236z"/>
		</g>
		<g>
			<linearGradient id="SVGID_19_" gradientUnits="userSpaceOnUse" x1="349.2859" y1="243.2159" x2="356.8348" y2="243.2159">
				<stop  offset="0" style="stop-color:#A6DDFF"/>
				<stop  offset="1" style="stop-color:#28A4FD"/>
			</linearGradient>
			<path class="st23" d="M359.6,242.7c-0.1,0.2-0.3,0.5-0.5,0.6c-1.5,1.4-4.5,1.3-6.5,1.1c-0.1,0-0.2,0-0.3,0
				c-2-0.1-4.3-0.2-6.1-1.1c-0.3-0.2-0.6-0.3-0.9-0.5c-0.2-0.2-0.2-0.5,0.1-0.6c0.2-0.1,0.5-0.2,0.7-0.2c1.8-0.3,4.1,0.3,5.8,0.5
				c0.2,0,0.4,0,0.6,0.1c1.3,0.1,2.6,0.2,3.9,0.1c1-0.1,1.7-0.6,2.6-0.9c0.1,0,0.1,0,0.2,0C359.5,241.8,359.8,242.4,359.6,242.7z"/>
		</g>
		<g>
			<linearGradient id="SVGID_20_" gradientUnits="userSpaceOnUse" x1="351.6567" y1="248.2472" x2="356.8079" y2="248.2472">
				<stop  offset="0" style="stop-color:#A6DDFF"/>
				<stop  offset="1" style="stop-color:#28A4FD"/>
			</linearGradient>
			<path class="st24" d="M359.9,248.4c-0.3,0.1-0.6,0.2-0.9,0.3c-1.8,0.5-3.9,0.7-6.1,0.6c-2.2-0.1-4.4-0.4-6.2-0.8c0,0,0,0-0.1,0
				c-0.6-0.1-0.5-0.8-0.1-1c0.1-0.1,0.2-0.1,0.3-0.1c2-0.2,3.9,0.1,5.9,0.1c0.3,0,0.6,0,0.9,0c1.8,0,3.6-0.3,5.3-0.4
				c0.2,0,0.5,0,0.7,0C360.5,247.1,360.6,248.2,359.9,248.4z"/>
		</g>
		<g>
			<linearGradient id="SVGID_21_" gradientUnits="userSpaceOnUse" x1="350.6189" y1="253.8015" x2="355.5657" y2="253.8015">
				<stop  offset="0" style="stop-color:#A6DDFF"/>
				<stop  offset="1" style="stop-color:#28A4FD"/>
			</linearGradient>
			<path class="st25" d="M359,254.3c-0.1,0-0.1,0-0.2,0c-1.8,0.4-3.8,0.5-5.7,0.4c-2-0.1-4.1-0.4-6-0.8c-0.5-0.1-1-0.2-1.4-0.3
				c-0.3-0.1-0.2-0.5,0.1-0.5c0.4,0,0.9,0,1.3,0c2,0,4-0.1,6-0.2c1.9-0.1,3.8-0.2,5.7-0.3h0.1C359.8,252.8,359.9,254.1,359,254.3z"
				/>
		</g>
		<g>
			<linearGradient id="SVGID_22_" gradientUnits="userSpaceOnUse" x1="351.1756" y1="258.3658" x2="357.0558" y2="258.3658">
				<stop  offset="0" style="stop-color:#A6DDFF"/>
				<stop  offset="1" style="stop-color:#28A4FD"/>
			</linearGradient>
			<path class="st26" d="M358.8,259.4c-0.1,0-0.1,0-0.2,0c-1.8,0.1-3.6,0.1-5.4,0c-1.9-0.1-3.9-0.4-5.8-0.8
				c-0.4-0.1-0.7-0.2-1.1-0.3c-0.7-0.2-0.6-1.2,0.2-1.1c0.3,0,0.6,0,0.8,0.1c2,0.1,3.9,0.3,5.8,0.3c1.8,0,3.7,0,5.5-0.2
				c0,0,0.1,0,0.1,0C360.3,257.2,360.3,259.4,358.8,259.4z"/>
		</g>
		<g>
			<linearGradient id="SVGID_23_" gradientUnits="userSpaceOnUse" x1="349.1418" y1="264.1274" x2="356.3531" y2="264.1274">
				<stop  offset="0" style="stop-color:#A6DDFF"/>
				<stop  offset="1" style="stop-color:#28A4FD"/>
			</linearGradient>
			<path class="st27" d="M359.1,264.2c-0.2,0.1-0.4,0.2-0.7,0.3c-1.9,0.9-3.7,1.2-5.5,1.2c-1.6,0-3.3-0.2-5.1-0.3
				c-0.2,0-0.3,0-0.5-0.1c-0.7-0.1-0.7-0.9,0-1c0.1,0,0.3,0,0.4,0c1.8-0.2,3.6-0.1,5.3-0.3c1.7-0.2,3.4-0.5,5-1.4
				c0.1-0.1,0.3-0.1,0.4-0.1C359.5,262.4,360.1,263.7,359.1,264.2z"/>
		</g>
		<g>
			<linearGradient id="SVGID_24_" gradientUnits="userSpaceOnUse" x1="348.7181" y1="268.7632" x2="355.451" y2="268.7632">
				<stop  offset="0" style="stop-color:#A6DDFF"/>
				<stop  offset="1" style="stop-color:#28A4FD"/>
			</linearGradient>
			<path class="st28" d="M358.4,269.1C358.4,269.1,358.4,269.1,358.4,269.1c-1.9,0.8-4,1-6,1c-1.5,0-3,0-4.4,0.1c-0.1,0-0.3,0-0.4,0
				c-0.6,0-0.7-0.9-0.1-1c0.2,0,0.4-0.1,0.5-0.1c1.4-0.2,2.7-0.5,4.1-0.7c0.2,0,0.5-0.1,0.7-0.1c1.6-0.2,3.3-0.2,4.7-0.8
				c0.4-0.2,0.7-0.1,1,0.1C359,267.9,359.2,268.7,358.4,269.1z"/>
		</g>
		<g>
			<linearGradient id="SVGID_25_" gradientUnits="userSpaceOnUse" x1="349.5403" y1="274.6448" x2="355.8068" y2="274.6448">
				<stop  offset="0" style="stop-color:#A6DDFF"/>
				<stop  offset="1" style="stop-color:#28A4FD"/>
			</linearGradient>
			<path class="st29" d="M359,275C359,275,359,275,359,275c-3.1,0.9-6.4,1.1-9.6,0.8c-1-0.1-2.1-0.2-3.1-0.4c-0.1,0-0.2,0-0.2,0
				c-0.7-0.1-0.5-1.1,0.2-1.1c0.3,0,0.5,0,0.8,0c1.2,0.1,2.3,0.1,3.4,0.1c2.6-0.1,5.2-0.4,7.9-0.8c0.1,0,0.1,0,0.2,0
				C359.6,273.2,360.1,274.7,359,275z"/>
		</g>
		<g>
			<linearGradient id="SVGID_26_" gradientUnits="userSpaceOnUse" x1="346.7081" y1="278.994" x2="360.1234" y2="278.994">
				<stop  offset="0" style="stop-color:#A6DDFF"/>
				<stop  offset="1" style="stop-color:#28A4FD"/>
			</linearGradient>
			<path class="st30" d="M360.9,279.2c-4.7,2-9.8,2.1-14.4-0.1c-0.7-0.3-1.4-0.7-2.1-1.2c-0.1,0-0.1-0.1-0.2-0.1
				c-0.3-0.2-0.1-0.7,0.3-0.6c0.1,0,0.2,0.1,0.4,0.1c0.9,0.2,1.8,0.5,2.7,0.7c1.2,0.3,2.4,0.6,3.6,0.8c3.5,0.6,5.9-0.1,9-1.2
				C361.1,277.3,361.8,278.8,360.9,279.2z"/>
		</g>
		<g>
			<linearGradient id="SVGID_27_" gradientUnits="userSpaceOnUse" x1="341.9551" y1="285.0859" x2="348.4294" y2="285.0859">
				<stop  offset="0" style="stop-color:#A6DDFF"/>
				<stop  offset="1" style="stop-color:#28A4FD"/>
			</linearGradient>
			<path class="st31" d="M348.7,289.2c0,0.3-0.2,0.7-0.5,0.8c0,0-0.1,0.1-0.1,0.1c-0.3,0.2-0.7,0.1-1,0c-0.2-0.1-0.3-0.3-0.4-0.5
				c0,0,0-0.1,0-0.1c0-0.1,0-0.1,0-0.1v-0.1c0-1.5-1.2-3.7-1.9-5c-0.5-1-1.1-1.5-1.8-2c-0.4-0.3-0.8-0.6-1.3-1l-0.2-0.5
				c0.1-0.5,0.7-0.8,1.3-0.7c0.7,0.2,1.3,0.5,1.9,0.9c2.5,1.7,3.6,5.3,4.1,8C348.7,289,348.7,289.1,348.7,289.2z"/>
		</g>
		<g>
			<linearGradient id="SVGID_28_" gradientUnits="userSpaceOnUse" x1="338.7446" y1="289.5882" x2="343.188" y2="289.5882">
				<stop  offset="0" style="stop-color:#A6DDFF"/>
				<stop  offset="1" style="stop-color:#28A4FD"/>
			</linearGradient>
			<path class="st32" d="M338.5,284.5c-0.2,1.3,1.7,2.9,2.2,4.2c0.8,1.9,0.5,3.6,0.5,5.6c0,0.7,0.9,0.8,1.3,0.3
				c1.3-1.8,0.8-4.5,0-6.3c-0.5-1.3-1.9-4.1-3.7-4C338.6,284.3,338.5,284.4,338.5,284.5L338.5,284.5z"/>
		</g>
		<g>
			<linearGradient id="SVGID_29_" gradientUnits="userSpaceOnUse" x1="356.4485" y1="284.6896" x2="363.7538" y2="284.6896">
				<stop  offset="0" style="stop-color:#A6DDFF"/>
				<stop  offset="1" style="stop-color:#28A4FD"/>
			</linearGradient>
			<path class="st33" d="M363.9,279.2c0,0-0.1-0.1-0.1-0.1c-0.3-0.2-0.7-0.3-1-0.1c-3.5,2.2-6.2,6.9-6.5,10.8c0.5-0.2,1-0.4,1.6-0.6
				c-0.2-0.2-0.5-0.6-0.9-0.6c-0.5,0-0.9,0.5-0.8,0.9c0,0.1,0.1,0.3,0.1,0.4c0.3,0.9,1.7,0.7,1.8-0.2c0.2-2.8,1.9-5.3,3.6-7.5
				C361.9,281.8,364.6,279.7,363.9,279.2L363.9,279.2z"/>
		</g>
		<g>
			<linearGradient id="SVGID_30_" gradientUnits="userSpaceOnUse" x1="360.3938" y1="287.3467" x2="367.0988" y2="287.3467">
				<stop  offset="0" style="stop-color:#A6DDFF"/>
				<stop  offset="1" style="stop-color:#28A4FD"/>
			</linearGradient>
			<path class="st34" d="M366.6,282.3c-3.6,1.7-5.7,5.7-6.7,9.2c-0.3,1,1.4,1.5,1.7,0.4c1.1-3.5,2.9-6.1,5.7-8.8
				C367.7,282.7,367.1,282,366.6,282.3L366.6,282.3z"/>
		</g>
		<g>
			<linearGradient id="SVGID_31_" gradientUnits="userSpaceOnUse" x1="363.2371" y1="290.0083" x2="370.9475" y2="290.0083">
				<stop  offset="0" style="stop-color:#A6DDFF"/>
				<stop  offset="1" style="stop-color:#28A4FD"/>
			</linearGradient>
			<path class="st35" d="M370.6,285c-4.1,1.6-6.6,5.3-8,9.1c-0.4,1,1.4,1.4,1.7,0.4c1.3-3.8,3.8-6.2,6.6-9.1
				C371.3,285.2,370.9,284.9,370.6,285L370.6,285z"/>
		</g>
		<g>
			<linearGradient id="SVGID_32_" gradientUnits="userSpaceOnUse" x1="334.0818" y1="293.0174" x2="338.4713" y2="293.0174">
				<stop  offset="0" style="stop-color:#A6DDFF"/>
				<stop  offset="1" style="stop-color:#28A4FD"/>
			</linearGradient>
			<path class="st36" d="M334.2,288.7c1.3,0.4,2,3.5,2.2,4.5c0.4,1.5,0,3.2,0.4,4.7c0.1,0.5,0.9,0.6,1.2,0.1
				c1.1-1.7,0.4-4.4-0.2-6.1c-0.6-1.5-1.5-3.8-3.4-4.1C333.8,287.7,333.6,288.4,334.2,288.7L334.2,288.7z"/>
		</g>
	</g>
	<linearGradient id="SVGID_33_" gradientUnits="userSpaceOnUse" x1="344.3892" y1="287.1694" x2="344.3892" y2="227.4072">
		<stop  offset="0" style="stop-color:#000000"/>
		<stop  offset="1" style="stop-color:#FFFFC2"/>
	</linearGradient>
	<path class="st37" d="M353.2,259.5c0,1.6,0,3.2-0.1,4.6c0,0.6-0.1,1.2-0.1,1.7c-0.1,0.9-0.2,1.8-0.3,2.6c-0.1,0.7-0.2,1.3-0.3,1.8
		c-0.4,1.4-1,2.8-1.9,4.2c-0.3,0.5-0.7,1-1,1.5c-0.6,0.8-1.3,1.6-2,2.3c-0.3,0.4-0.7,0.7-1,1.1c-0.6,0.6-1.2,1.2-1.9,1.7
		c-0.6,0.5-1.1,0.9-1.7,1.4c-1.1,0.9-2.2,1.6-3.1,2.3c-0.4,0.3-0.8,0.5-1.2,0.8c-1.8,1.2-3,1.8-3,1.8v0l0.7-2.2l0.9-3.1
		c0,0.4-0.1,0.8-0.1,1.1c0.9,0.1,1.9,0.1,2.9,0.1c0.6-0.6,1.1-1.2,1.7-1.9l-0.2-0.5c0.1-0.5,0.7-0.8,1.3-0.7c0.6-0.7,1.1-1.4,1.7-2
		c-0.1,0-0.1-0.1-0.2-0.1c-0.3-0.2-0.1-0.7,0.3-0.6c0.1,0,0.2,0.1,0.4,0.1c0.6-0.7,1.1-1.4,1.5-2.1c-0.1,0-0.2,0-0.2,0
		c-0.7-0.1-0.5-1.1,0.2-1.1c0.3,0,0.5,0,0.8,0c0.3-0.5,0.5-0.9,0.7-1.3c0.2-0.4,0.2-1.4,0.2-2.8c-0.1,0-0.3,0-0.4,0
		c-0.6,0-0.7-0.9-0.1-1c0.2,0,0.4-0.1,0.5-0.1c0-1.1-0.1-2.3-0.1-3.7c-0.2,0-0.3,0-0.5-0.1c-0.7-0.1-0.7-0.9,0-1c0.1,0,0.3,0,0.4,0
		c-0.1-1.7-0.2-3.7-0.4-5.7c-0.4-0.1-0.7-0.2-1.1-0.3c-0.7-0.2-0.6-1.2,0.2-1.1c0.3,0,0.6,0,0.8,0.1c-0.1-1-0.2-2.1-0.2-3.2
		c-0.5-0.1-1-0.2-1.4-0.3c-0.3-0.1-0.2-0.5,0.1-0.5c0.4,0,0.9,0,1.3,0c-0.1-1.6-0.3-3.1-0.4-4.7c-0.6-0.1-0.5-0.8-0.1-1
		c-0.1-1.4-0.3-2.8-0.4-4.1c-0.3-0.2-0.6-0.3-0.9-0.5c-0.2-0.2-0.2-0.5,0.1-0.6c0.2-0.1,0.5-0.2,0.7-0.2c-0.2-2.1-0.4-4.1-0.5-5.8
		c-0.1,0-0.2,0-0.3-0.1c-0.5-0.1-0.5-0.9,0-1.1c0.1,0,0.1,0,0.2,0c-0.3-3.2-0.5-5.4-0.5-5.7c0-1.3,1.3-2,1.3-2h4.9
		c0,0,0.3,2.9,0.7,7.2c0.1,0.6,0.1,1.2,0.2,1.8c0.2,1.9,0.3,4.1,0.5,6.3c0,0.6,0.1,1.2,0.1,1.8c0.1,1,0.1,2,0.2,3
		c0,0.6,0.1,1.2,0.1,1.8c0.1,1.2,0.1,2.5,0.2,3.7c0,0.6,0,1.2,0.1,1.7c0,0.9,0,1.8,0.1,2.7C353.2,258.2,353.2,258.8,353.2,259.5z"/>
	<path class="st38" d="M379.1,143.7l4-4.7l-0.8,2.3c0,0,2.6-2.9,7-4.8c4.4-1.9,6-2.3,6-2.3l-3.8,2.1c0,0,7-2.7,14.4-3.3
		c7.5-0.6,7.5-0.6,7.5-0.6l-3,2.8l4.1-2.1c0,0-0.7,2.1-3.5,4.9c-2.8,2.8-4.1,2.6-10.8,2.6C393.6,140.7,383.3,142.1,379.1,143.7z"/>
	<path class="st38" d="M385.2,155.3c0,0,9.5,2.7,14.5,1.5c5-1.3,5-1.3,5-1.3s-3.7,3.1-6.9,3.1c-3.3,0-6.3-0.6-6.3-0.6s2,0.9,3.5,1.3
		s1.5,0.4,1.5,0.4s-4.1-0.2-6.8-1C386.9,157.9,385.2,155.3,385.2,155.3z"/>
	<path class="st38" d="M386.4,152.1c0,0,3.9-2.5,7.8-4c3.9-1.5,3.9-1.5,3.9-1.5l-1.4-1C396.6,145.6,390.9,148.2,386.4,152.1z"/>
	<path class="st38" d="M396.7,193.3c0,0,5.7-1.2,8.3-1.2c2.6,0,4.3-1.3,4.3-1.3s-0.3,2.5-3.5,3.6
		C402.8,195.6,396.7,193.3,396.7,193.3z"/>
	<path class="st38" d="M408.6,181.4c0,0,3.1-3.9,6.3-3.9c3.2,0,3.5,0.6,3.5,0.6s-3.8,1.7-6.8,2.5
		C408.6,181.4,408.6,181.4,408.6,181.4z"/>
	<path class="st2" d="M355.7,141.2c0,0,0.8,19.8-3,32c-3.8,12.2-1.5,31.4,12.3,34.3c13.7,2.9,18.9,4,24.5,7c5.7,3,17.7,1.2,17.7,1.2
		s-11.2,5.4-16.2,3.7c-5-1.7-12.9-4.8-24.6-7.2c-11.7-2.3-15-3.3-18.2-11.3c-3.2-8-5.9-18-5.9-22.6c0-4.7,2.9-21.6,2.9-21.6
		S353.8,141.2,355.7,141.2z"/>
	<path class="st2" d="M322.8,198.7c0,0,9.1,18.3,13.4,28.7c4.4,10.4,4.4,10.4,4.4,10.4s-0.4-15.6-4.4-25
		C332.3,203.4,322.8,198.7,322.8,198.7z"/>
	<path class="st2" d="M260.6,293c0,0,4.3,44.2,4.3,62.8c0,18.6-1,30.5-4.9,45.5c-3.9,14.9-14.8,28.3-14.8,28.3h14.1
		c0,0,7.2-15.2,11.9-39c4.7-23.7,4.7-28.7,4.7-28.7S274.3,313.7,260.6,293z"/>
	<path class="st2" d="M435.9,282c0,0,12.7,57.9-1.6,91.9c0,0,2.6,20,12.6,38.1c9.1,16.3,15.5,17.6,15.5,17.6l16.9-5.9
		c0,0-22.1-14.2-26.9-48C447.7,342,444.4,295,435.9,282z"/>
	<path class="st2" d="M411,118.2c0,0-17.7-8.8-31.9-4.9c-14.2,3.9-23,15.6-23,15.6l-5.4-28.9l35.6-7.9l18.7,10.3L411,118.2z"/>
	<linearGradient id="SVGID_34_" gradientUnits="userSpaceOnUse" x1="383.1324" y1="227.4072" x2="383.1324" y2="153.0369">
		<stop  offset="0" style="stop-color:#FFFFFF"/>
		<stop  offset="1" style="stop-color:#A80009"/>
	</linearGradient>
	<path class="st39" d="M347.1,227.4c0,0,0.8-7.1-1.6-9.5c-2.4-2.4-1.4-7.3,1.6-10.4c3-3,9.8-18.9,20.2-31.6
		c10.4-12.7,17-18.3,25.7-21.7c10.2-4,17.3,3.6,22,8.2c4.6,4.6,7.3,13.7,7.3,15.7s-3.9,2.9-9,1.4c-5.1-1.5-9.2-2.1-17.5-5.7
		c-8.3-3.6-21.4,6.1-20.2,7.3c1.2,1.2,11.6-3.7,17.4-0.6c5.8,3.2,5.4,6.2,8.7,6.2c3.3,0,4.6-2.6,5.9-1.2c1.3,1.3-0.1,6.6-2.5,6.6
		c-2.3,0-2.3,0-2.3,0s-3,9.3-7,9.3s0.2-6.6-2.8-9.7c-3-3-10.2-5.9-16.6-4c-6.4,1.9-17.4,11-18.9,15.5c-1.5,4.4,2.5,7.7,1.5,11.3
		c-1,3.6-3.3,4.6-3.3,7.2s0.4,5.7,0.4,5.7H347.1z"/>
	<linearGradient id="SVGID_35_" gradientUnits="userSpaceOnUse" x1="346.3643" y1="191.2926" x2="418.0562" y2="191.2926">
		<stop  offset="0" style="stop-color:#FFD6FF"/>
		<stop  offset="1" style="stop-color:#A80009"/>
	</linearGradient>
	<path class="st40" d="M347.9,227.4c0,0,0.9-7-0.7-11c-1.7-4-0.7-5.2,1.7-8.7c2.5-3.5,7-13.6,11.4-19.9c4.4-6.3,23.7-34.3,39.3-32.6
		s19.9,18.9,18,22.3c-1.9,3.4-7.1-3.3-17.5-5.5c-8.8-1.8-12.7-2.2-20.9,3.4c-8.7,5.9-9.8,9.1-8.5,9.1c1.4,0,11-5,18.7-4
		c6.1,0.8,6.4,3.9,8.3,5.7s4.6,1.6,5.3,2.3c0.7,0.7-0.6,4.3-0.6,4.3s-3.6,5.1-5.8,4.5c-2.1-0.6-0.6-7.7-6.7-10.1
		c-6.1-2.4-10.8-2.9-17.9,0.3c-7.1,3.2-13.9,12.2-16.5,17c-1.3,2.4,1.1,5.6,1.1,9.2c0,3.6-1.2,4.7-2.2,7.5c-0.5,1.5,0.2,6.1,0.2,6.1
		H347.9z"/>
	<linearGradient id="SVGID_36_" gradientUnits="userSpaceOnUse" x1="354.2761" y1="208.1423" x2="373.6401" y2="208.1423">
		<stop  offset="0" style="stop-color:#A80009"/>
		<stop  offset="1" style="stop-color:#FFD6FF"/>
	</linearGradient>
	<path class="st41" d="M354.8,227.4c0,0-1.1-3.9-0.2-6.1c0.9-2.2,2.8-5.8,2.1-8.9c-0.7-3-1.7-6.3-0.6-9c1.1-2.7,7.2-9.7,9.9-11.1
		c3.9-2.1,7.7-3.5,7.7-3.5s-15,9.1-16.2,14.4c-1.3,5.2,3.2,6.7,2.2,10.6c-1,3.9-4,5.9-4,7.9s0.4,5.7,0.4,5.7H354.8z"/>
	<linearGradient id="SVGID_37_" gradientUnits="userSpaceOnUse" x1="343.7406" y1="216.4324" x2="348.6042" y2="216.4324">
		<stop  offset="0" style="stop-color:#FFD6FF"/>
		<stop  offset="1" style="stop-color:#A80009"/>
	</linearGradient>
	<path class="st42" d="M347.1,227.4c0,0,0.3-6-1.4-8.4c-1.7-2.4-2.4-4.9-1.5-7.4c0.8-2.5,4.5-6.2,4.5-6.2s-3.6,4.3-3.7,8.2
		c-0.1,3.9,1.2,4.6,2.4,7.2c1.2,2.6,0.9,6.5,0.9,6.5H347.1z"/>
	<linearGradient id="SVGID_38_" gradientUnits="userSpaceOnUse" x1="349.6902" y1="218.5099" x2="349.6902" y2="201.7025">
		<stop  offset="0" style="stop-color:#000000"/>
		<stop  offset="1" style="stop-color:#FFFFC2"/>
	</linearGradient>
	<path class="st43" d="M349.1,218.5c0,0-4.2-4.3-0.8-9.9c3.4-5.6,4.1-6.9,4.1-6.9s-2.2,8-1.6,11.1S349.1,218.5,349.1,218.5z"/>
	<linearGradient id="SVGID_39_" gradientUnits="userSpaceOnUse" x1="390.4542" y1="176.0414" x2="390.4542" y2="159.2695">
		<stop  offset="0" style="stop-color:#000000"/>
		<stop  offset="1" style="stop-color:#FFFFC2"/>
	</linearGradient>
	<path class="st44" d="M371.5,176c0,0,12.7-14.6,22-16.3c9.3-1.8,15.9,2.6,15.9,2.6s-6.5-1.6-16.5,2.6C383,169,371.5,176,371.5,176z
		"/>
	<linearGradient id="SVGID_40_" gradientUnits="userSpaceOnUse" x1="344.6977" y1="222.4984" x2="358.3945" y2="222.4984">
		<stop  offset="0" style="stop-color:#CA0000"/>
		<stop  offset="1" style="stop-color:#A80009"/>
	</linearGradient>
	<path class="st45" d="M346.2,227.4c-1.5-0.6,0.5-2.2-0.3-4.8s-1.5-4.3-1-4.8c0.5-0.5,2.5,2.1,6.4,2.1c3.9,0,6.4-3.4,7-2.8
		c0.6,0.6-0.8,3.2-0.8,5.2c0,2,0.8,5.2,0.8,5.2S350,228.9,346.2,227.4z"/>
	<linearGradient id="SVGID_41_" gradientUnits="userSpaceOnUse" x1="350.8605" y1="226.5787" x2="350.8605" y2="219.8533">
		<stop  offset="0" style="stop-color:#000000"/>
		<stop  offset="1" style="stop-color:#FFFFC2"/>
	</linearGradient>
	<path class="st46" d="M346.2,219.9c0,0,2.4,0.6,5,0.6c2.6,0,4.5-0.6,4.5-0.6s-2.5,1.7-4.7,1.7c-2.2,0-2.5,0.6-2.7,0.9
		c-0.3,0.3,0.3,1.6-0.2,2.7c-0.5,1.1-1.7,1.4-1.7,1.4l-0.2-0.5c0,0,1.2-3.3,0.4-4.1S346.2,219.9,346.2,219.9z"/>
	<path class="st47" d="M306.8,198.7c0,0,22.4,16.7,46.5,21.6c24.1,5,37.2,1.7,37.2,1.7s-8.4-3.3-11.6-6.5c-1.7-1.7-1.7-1.7-1.7-1.7
		s-17.6-5.2-23.8-11.5c-6.3-6.3-11-23.9-11-23.9l-15.8-3l-14.9-2.7L306.8,198.7z"/>
	<path class="st2" d="M260.6,408.9c0,0,1.5-26.1,0-44.1c-1.8-20.9-1.8-20.9-1.8-20.9l9.6,28.1L260.6,408.9z"/>
	<path class="st2" d="M276,361.9c0,0,10.5,34.4,15.1,47c4.6,12.6,5.5,20.6,5.5,20.6l-5.9,0.1c0,0-4.3-25.9-8.9-38.6
		C277.2,378.3,276,361.9,276,361.9z"/>
	<path class="st2" d="M438.3,361c0,0-7.9,22.1-14.5,41.7c-6.5,19.6-6.3,23.9-6.3,23.9l6.8-0.2c0,0,6.6-36.9,12.9-50.1
		C443.6,363.3,438.3,361,438.3,361z"/>
	<path class="st2" d="M208.8,380.7c-7.2,18.3-3.3,40.1-3.3,40.1H200c0-39.7,18-80.2,18-92c0-7.3-2-26.3,1.4-44.4l0-0.1
		c0,0-0.9,34.2,2.4,45.1C225.1,340.4,216.1,362.4,208.8,380.7z"/>
	<path class="st2" d="M483.9,317l-4-8.1c0,0-3.9-39.4-17-58.4c-13.2-18.9-41.1-16.5-61.8-22.4c-20.7-6-29.6-16.2-29.6-16.2l3.3,1.3
		l0,0c3.3,2.4,6.9,4.7,10.4,6.6c14.3,7.9,32.6-1,67.7,14.6C484.8,248.6,472.3,285.2,483.9,317z"/>
	<path class="st4" d="M430.8,396.5c0,0,3.7-14,7-21.9c3.3-7.9,3.7-10.6,4.8-9.5c1.1,1.1-1,16.8-1,25.1c0,8.3,0.9,12.5,0.9,12.5
		s-2.4-14.9-5-14.9C434.9,387.9,430.8,396.5,430.8,396.5z"/>
	<path class="st4" d="M280.4,386.6c0,0-3.2-17.6-5.1-34.1c-1.8-16.5-3.8-17.7-3.8-17.7s0,29.3,0,36.5c0,7.2-0.6,20.7-0.6,20.7
		s2.6-12.1,4.7-14.3C277.8,375.6,280.4,386.6,280.4,386.6z"/>
	<path class="st4" d="M310,181.4c0,0,8.7-0.9,14.7,5c5.9,5.9,14.7,1,17.6,4.8c2.9,3.8,7.2,5.7,7.2,5.7s-4-6.8-5.1-11.8
		c-1.2-5.6-2.1-6.8-2.1-6.8s-2.7,4.8-8.9,2.1c-6.2-2.7-7.9-8.6-7.9-8.6l-13.8,0.9L310,181.4z"/>
	<path class="st38" d="M348.7,159.4c0,0-1.9-8.1,1.8-11.8c3.7-3.7,6.6-7.5,7.7-12.7c1.1-5.2,3.6-9.4,3.6-9.4l-3.6,2.5l4.3-6.4
		l-4.3,2.9c0,0,0.5-5.6,2.9-7.9c2.3-2.3,2.3-2.3,2.3-2.3l-4.5,2.7c0,0-1.7-6.4-0.7-8.6c0.9-2.2,0.9-2.2,0.9-2.2s24.1-4.1,38.6,1.1
		c14.5,5.1,20.6,12.2,20.6,12.2s-1.8-5.4-3.8-9.9c-2-4.6-2-4.6-2-4.6s7.9,5.4,10.8,13.4c2.9,8,2.9,8,2.9,8s1.1-12.9,0-21.6
		c-1.1-8.7-4-14.3-4-14.3l8.3,5.5c0,0-14.4-17.4-27.4-20c-12.6-2.5-13.2-2.4-13.2-2.4l18.7-1.6c0,0-27.3-5.2-61.2,4.6
		c-34,9.8-35.3,26.9-35.3,26.9s0.3-7.2,2.1-12.6c1.8-5.4,1.8-5.4,1.8-5.4s-5.9,9-7,13.8c-1.1,4.8,0,6.1,0,6.1s-7,0.4-11.6,2.9
		c-5.8,3.1-11.2,10.2-11.2,10.2s6.5-6.2,13.1-8.3c6.6-2.1,8.3-1.9,8.3-1.9s-8.3,6.1-12.2,9.9c-3.9,3.9,12.4,32.4,10.9,39.8
		c-1.5,7.3,0.4,9.9,5.4,14.9c5,5,6.9,7.7,6.9,7.7l-0.1-2.9c0,0,3.9-1.2,5.4,1.9c1.5,3.2,1.5,3.2,1.5,3.2s3-4.8,0.1-10.8
		c-2.9-5.9-9.3-28.9-1.7-31.5c6.5-2.2,17.3,10.4,17.3,13.7c0,3.4,3.1,7.4,3.1,7.4l1.3-3.3L348.7,159.4z"/>
	<g>
		<path class="st2" d="M347.2,159.4c0,0-11.7-27-23.3-21.3c-11.6,5.7-3.5,31.3,2.6,37.4c6.1,6.1,4.5,9.6,9.8,8.1
			c5.3-1.5,8.9-6.9,8.9-6.9L347.2,159.4z"/>
		<path class="st38" d="M340.8,162.3c0,0-4.5-8.6-9.2-12.1c-4.7-3.5-6.9-2.7-6.9-2.7s6.1,2.7,8.7,7.4
			C335.9,159.6,340.8,162.3,340.8,162.3z"/>
		<path class="st38" d="M336.2,157.3c0,0,2.1,4.5,0.8,5.9c-1.3,1.3-4.2,1.8-4.2,3.8c0,2,0,4.1,0,4.1s1-4.8,3-4.8
			c2,0,4.1-0.5,4.1-2.1c0-1.7-0.9-3.2-0.9-3.2L336.2,157.3z"/>
	</g>
	<path class="st48" d="M299.9,227.4c0,0-22.3,9.8-39.3,17.2c-17,7.4-23.1,11.6-30.5,26.8s-7.5,15.2-7.5,15.2s36.2-9.5,48.3-7.5
		c12.2,2,35.9-48.6,35.9-48.6L299.9,227.4z"/>
	<path class="st48" d="M222.7,294.9c0,0,16.5-7.1,30.3-7.1c0,0,2.6,32.1-2.2,40.6c-4.8,8.5-24.9-0.1-24.9-0.1S221,306.6,222.7,294.9
		z"/>
	<path class="st48" d="M479.4,328.8c0,0-13.5,4.6-20.3,11.4c0,0,5.1,24.4,15.5,43.6c10.2,19,13.5,17.5,13.5,17.5l12.7-5.6
		C500.7,395.8,496,345.4,479.4,328.8z"/>
	<linearGradient id="SVGID_42_" gradientUnits="userSpaceOnUse" x1="363.7554" y1="102.9178" x2="364.2494" y2="74.6186">
		<stop  offset="0" style="stop-color:#000000"/>
		<stop  offset="1" style="stop-color:#FFFFC2"/>
	</linearGradient>
	<path class="st49" d="M323.6,102.2c0,0,2,0,11.4,0c9.4,0,32.1-12.6,45.2-12.6c13.1,0,18.3,0,18.3,0s-6.4-4.4-12.8-4.4
		s-13.4,0-13.4,0s12.3-4.8,22.1-4.8c9.8,0,9.8,0,9.8,0s-11.5-10.1-38.9-2.7C338,85.2,323.6,102.2,323.6,102.2z"/>
	<path class="st48" d="M345.1,159.3c0,0-10.9-19.8-17.7-19.8c-6.8,0-7.1,6.2-7.1,6.2s7.8-3.3,12.2,3.7c4.5,7,7.6,11.2,9.7,11.2
		C344.3,160.6,345.1,159.3,345.1,159.3z"/>
	<path class="st4" d="M362.4,208.1c0,0,12.3,12,22.8,15.1c10.4,3.1,15.9,0.4,15.9,0.4s-12-3.6-18-6.7c-6-3.2-8.3-3.7-8.3-3.7
		L362.4,208.1z"/>
	<path class="st4" d="M286.1,393.6c32.6,1.8,34.8-19.3,70.4-19.3c35.1,0,28.4,15.8,71.6,17c0,0-8.4,2-17.9,2
		c-14.5,0-32.1-14-53.1-14.3c-19.4-0.3-48.8,16.3-60,16.3C291.5,395.4,286.1,393.6,286.1,393.6z"/>
	<linearGradient id="SVGID_43_" gradientUnits="userSpaceOnUse" x1="289.7791" y1="387.7994" x2="422.2203" y2="387.7994">
		<stop  offset="0" style="stop-color:#CA0000"/>
		<stop  offset="1" style="stop-color:#A80009"/>
	</linearGradient>
	<path class="st50" d="M289.8,395.9c30.4,1.7,32.4-18,65.6-18c32.7,0,26.5,14.7,66.8,15.8c0,0-7.8,1.9-16.7,1.9
		c-13.5,0-30-13.1-49.5-13.3c-18.1-0.2-45.5,15.2-55.9,15.2C294.9,397.6,289.8,395.9,289.8,395.9z"/>
	<linearGradient id="SVGID_44_" gradientUnits="userSpaceOnUse" x1="346.8513" y1="212.4648" x2="357.4295" y2="212.4648">
		<stop  offset="0" style="stop-color:#CA0000"/>
		<stop  offset="1" style="stop-color:#A80009"/>
	</linearGradient>
	<path class="st51" d="M357.4,212.5c0,0.8-2.4,1.5-5.3,1.5s-5.3-0.7-5.3-1.5c0-0.8,2.4-1.5,5.3-1.5S357.4,211.7,357.4,212.5z"/>
</g>
<rect x="401" y="222.7" transform="matrix(0.8773 0.4799 -0.4799 0.8773 168.0364 -209.3668)" width="185" height="2.5"/>
<text transform="matrix(1 0 0 1 499.2801 285.0002)" class="st52 st53">Fosas Nasales</text>
</svg>
