<?xml version="1.0" encoding="utf-8"?>
<!-- Generator: Adobe Illustrator 24.2.3, SVG Export Plug-In . SVG Version: 6.00 Build 0)  -->
<svg version="1.1" id="Layer_1" xmlns="http://www.w3.org/2000/svg" xmlns:xlink="http://www.w3.org/1999/xlink" x="0px" y="0px"
	 viewBox="0 0 750 500" style="enable-background:new 0 0 750 500;" xml:space="preserve">
<style type="text/css">
	.st0{fill:#ECECEC;}
	.st1{fill:#F5F5F5;}
	.st2{fill:#FD897B;}
	.st3{fill:#1A2E35;}
	.st4{opacity:0.7;}
	.st5{fill:#FFFFFF;}
	.st6{fill:#007CFF;}
	.st7{opacity:0.1;}
	.st8{fill:none;stroke:#1A2E35;stroke-width:0.5;stroke-linecap:round;stroke-linejoin:round;stroke-miterlimit:10;}
	.st9{opacity:0.2;enable-background:new    ;}
	.st10{fill:#FD5652;}
	.st11{fill:#263237;}
	.st12{opacity:0.2;}
	.st13{opacity:0;}
	.st14{opacity:0.4;fill:#FFFFFF;enable-background:new    ;}
	.st15{opacity:0;fill:#FFFFFF;}
	.st16{opacity:0.1;fill:#FFFFFF;}
	.st17{opacity:0.7;fill:#FFFFFF;}
	.st18{fill:none;stroke:#007CFF;stroke-miterlimit:10;}
	.st19{opacity:0.5;fill:#FFFFFF;enable-background:new    ;}
	.st20{opacity:0.6;fill:#FFFFFF;enable-background:new    ;}
</style>
<g>
	<g>
		<rect x="541.8" y="409.2" class="st0" width="33.1" height="0.3"/>
		<rect x="447.5" y="411.9" class="st0" width="8.7" height="0.3"/>
		<rect x="521.6" y="399.9" class="st0" width="19.2" height="0.3"/>
		<rect x="177.5" y="401.6" class="st0" width="43.2" height="0.3"/>
		<rect x="229.6" y="401.6" class="st0" width="6.3" height="0.3"/>
		<rect x="256.5" y="405.8" class="st0" width="93.7" height="0.3"/>
		<path class="st0" d="M362,348.5H168.9c-3.1,0-5.7-2.6-5.7-5.7V71.3c0-3.1,2.6-5.7,5.7-5.7H362c3.1,0,5.7,2.6,5.7,5.7v271.4
			C367.7,345.9,365.2,348.5,362,348.5z M168.9,65.9c-3,0-5.5,2.4-5.5,5.5v271.4c0,3,2.4,5.5,5.5,5.5H362c3,0,5.5-2.4,5.5-5.5V71.3
			c0-3-2.4-5.5-5.5-5.5H168.9z"/>
		<path class="st0" d="M578.3,348.5H385.2c-3.1,0-5.7-2.6-5.7-5.7V71.3c0-3.1,2.6-5.7,5.7-5.7h193.1c3.1,0,5.7,2.6,5.7,5.7v271.4
			C584,345.9,581.5,348.5,578.3,348.5z M385.2,65.9c-3,0-5.5,2.4-5.5,5.5v271.4c0,3,2.4,5.5,5.5,5.5h193.1c3,0,5.5-2.4,5.5-5.5V71.3
			c0-3-2.4-5.5-5.5-5.5H385.2z"/>
		<rect x="125" y="393.1" class="st0" width="500" height="0.3"/>
	</g>
	<ellipse id="_x3C_Path_x3E__1_" class="st1" cx="375" cy="423.1" rx="193.9" ry="11.3"/>
	<g>
		<g>
			<path class="st2" d="M312,282.6c3.5,1.8,7,3.7,10.6,5.6c3.5,1.9,7,3.8,10.5,5.7l10.5,5.8c1.7,1,3.5,2,5.2,3l2.6,1.6l1.3,0.8
				l0.6,0.4c0.2,0.1,0.4,0.3,0.2,1.3c-0.6,2.9-2,5.5-3.8,7.6c-0.6,0.7-0.9,0.7-1.1,0.6l-0.7-0.3l-1.4-0.5l-2.8-1.1
				c-1.9-0.7-3.7-1.5-5.5-2.3l-10.9-4.8c-3.6-1.6-7.3-3.2-10.9-4.8c-3.6-1.6-7.2-3.3-10.8-5c-3.7-1.8-5.3-6.3-3.5-10
				c1.8-3.7,6.3-5.3,10-3.5C311.9,282.6,311.9,282.6,312,282.6z"/>
		</g>
		<g>
			<path class="st3" d="M318.3,264.5c-0.6-0.3-1-0.5-1-0.5c-0.1,0-0.2,0-0.2,0.1c0,0.1,0,0.2,0.1,0.2c0,0,0.4,0.2,1,0.5c0,0,0,0,0,0
				c0.1,0,0.2,0,0.2-0.1C318.4,264.6,318.4,264.5,318.3,264.5z"/>
			<path class="st3" d="M321.8,266.6c0.6,0.3,1.3,0.6,2,0.9c0,0,0,0,0,0c0.1,0,0.2,0,0.2-0.1c0-0.1,0-0.2-0.1-0.2
				c-0.7-0.3-1.3-0.6-2-0.9c-0.1,0-0.2,0-0.2,0.1C321.6,266.4,321.7,266.5,321.8,266.6z"/>
			<path class="st3" d="M327.6,269.2c1.4,0.6,2.8,1.1,4.1,1.6c0,0,0,0,0,0c0.1,0,0.2,0,0.2-0.1c0-0.1,0-0.2-0.1-0.2
				c-1.3-0.5-2.7-1-4.1-1.6c-0.1,0-0.2,0-0.2,0.1C327.4,269,327.5,269.1,327.6,269.2z"/>
			<path class="st3" d="M333.8,271.5c2.1,0.7,4,1.3,5.7,1.6c1.9,0.4,3.5,0.5,4.8,0.4c3.8-0.4,4.2-2,4.1-2.9c-0.2-1.9-2.9-4-4.8-3.8
				c-0.8,0.1-1.4,0.4-1.7,1c-0.3,0.6-0.1,1.3,0.3,1.9c0.5,0.7,1.4,1.1,2.4,1c0.1,0,0.2-0.1,0.1-0.2c0-0.1-0.1-0.2-0.2-0.1
				c-0.8,0.1-1.6-0.2-2-0.9c-0.4-0.5-0.5-1.1-0.3-1.5c0.2-0.5,0.7-0.8,1.4-0.8c1.7-0.2,4.3,1.8,4.4,3.5c0.1,1.3-1.2,2.2-3.8,2.5
				c-2.2,0.3-5.7-0.4-10.3-1.9c-0.1,0-0.2,0-0.2,0.1C333.6,271.4,333.7,271.5,333.8,271.5z"/>
			<path class="st3" d="M316.5,266.7c-0.8-0.5-1.3-0.7-1.3-0.7c-0.1,0-0.2,0-0.2,0.1c0,0.1,0,0.2,0.1,0.2c0,0,0.5,0.3,1.3,0.7
				c0,0,0,0,0,0c0.1,0,0.1,0,0.2-0.1C316.6,266.8,316.5,266.7,316.5,266.7z"/>
			<path class="st3" d="M323.5,270.4c-1.6-0.8-3.2-1.6-4.7-2.4c-0.1,0-0.2,0-0.2,0.1c0,0.1,0,0.2,0.1,0.2c1.6,0.8,3.2,1.7,4.8,2.4
				c0,0,0,0,0,0c0.1,0,0.2,0,0.2-0.1C323.6,270.5,323.6,270.4,323.5,270.4z"/>
			<path class="st3" d="M335.1,275.6c-3-1.2-6.3-2.7-9.8-4.4c-0.1,0-0.2,0-0.2,0.1c0,0.1,0,0.2,0.1,0.2c3.5,1.7,6.8,3.2,9.8,4.4
				c5.9,2.4,7.5,5,7.8,6.7c0.3,1.4-0.3,2.7-1,3.3c-0.6,0.6-1.8,0.7-3.1,0.4c-1.7-0.4-3-1.4-3.5-2.7c-0.2-0.6-0.1-1.1,0.5-1.5
				c1-0.6,2.8-0.6,3.5,0c0.3,0.3,0.4,0.7,0.1,1.3c0,0.1,0,0.2,0.1,0.2c0.1,0,0.2,0,0.2-0.1c0.5-0.9,0.1-1.4-0.1-1.7
				c-0.8-0.8-2.9-0.8-4-0.1c-0.7,0.5-0.9,1.1-0.6,1.9c0.6,1.4,2,2.5,3.7,2.9c0.1,0,0.1,0,0.2,0c1.3,0.3,2.6,0.1,3.2-0.5
				c0.7-0.6,1.4-1.9,1.1-3.6C342.8,280.8,341.1,278.1,335.1,275.6z"/>
			<path class="st3" d="M351.8,277.6c-0.1-0.8-1-1.5-2.1-1.8c-1-0.2-1.8,0.1-2.3,0.8c-0.1,0.1,0,0.2,0.1,0.2c0.1,0.1,0.2,0,0.2-0.1
				c0.5-0.8,1.5-0.7,1.9-0.6c0.9,0.2,1.7,0.9,1.8,1.5c0.1,0.6-0.4,0.9-0.8,1.2c-2.8,1.5-9-2.1-9.1-2.2c-0.1,0-0.2,0-0.2,0.1
				c0,0.1,0,0.2,0.1,0.2c0.2,0.1,3.1,1.8,5.9,2.4c1.3,0.3,2.6,0.3,3.5-0.2C351.7,278.6,351.9,278,351.8,277.6z"/>
			<path class="st3" d="M333.6,273c-0.1,0-0.2,0-0.2,0.1c0,0.1,0,0.2,0.1,0.2c0,0,2.5,1,5.9,2.6c0,0,0,0,0,0c0.1,0,0.2,0,0.2-0.1
				c0-0.1,0-0.2-0.1-0.2C336.1,274,333.6,273,333.6,273z"/>
			<g class="st4">
				<path class="st5" d="M318.3,264.5c-0.6-0.3-1-0.5-1-0.5c-0.1,0-0.2,0-0.2,0.1c0,0.1,0,0.2,0.1,0.2c0,0,0.4,0.2,1,0.5
					c0,0,0,0,0,0c0.1,0,0.2,0,0.2-0.1C318.4,264.6,318.4,264.5,318.3,264.5z"/>
				<path class="st5" d="M321.8,266.6c0.6,0.3,1.3,0.6,2,0.9c0,0,0,0,0,0c0.1,0,0.2,0,0.2-0.1c0-0.1,0-0.2-0.1-0.2
					c-0.7-0.3-1.3-0.6-2-0.9c-0.1,0-0.2,0-0.2,0.1C321.6,266.4,321.7,266.5,321.8,266.6z"/>
				<path class="st5" d="M327.6,269.2c1.4,0.6,2.8,1.1,4.1,1.6c0,0,0,0,0,0c0.1,0,0.2,0,0.2-0.1c0-0.1,0-0.2-0.1-0.2
					c-1.3-0.5-2.7-1-4.1-1.6c-0.1,0-0.2,0-0.2,0.1C327.4,269,327.5,269.1,327.6,269.2z"/>
				<path class="st5" d="M333.8,271.5c2.1,0.7,4,1.3,5.7,1.6c1.9,0.4,3.5,0.5,4.8,0.4c3.8-0.4,4.2-2,4.1-2.9c-0.2-1.9-2.9-4-4.8-3.8
					c-0.8,0.1-1.4,0.4-1.7,1c-0.3,0.6-0.1,1.3,0.3,1.9c0.5,0.7,1.4,1.1,2.4,1c0.1,0,0.2-0.1,0.1-0.2c0-0.1-0.1-0.2-0.2-0.1
					c-0.8,0.1-1.6-0.2-2-0.9c-0.4-0.5-0.5-1.1-0.3-1.5c0.2-0.5,0.7-0.8,1.4-0.8c1.7-0.2,4.3,1.8,4.4,3.5c0.1,1.3-1.2,2.2-3.8,2.5
					c-2.2,0.3-5.7-0.4-10.3-1.9c-0.1,0-0.2,0-0.2,0.1C333.6,271.4,333.7,271.5,333.8,271.5z"/>
				<path class="st5" d="M316.5,266.7c-0.8-0.5-1.3-0.7-1.3-0.7c-0.1,0-0.2,0-0.2,0.1c0,0.1,0,0.2,0.1,0.2c0,0,0.5,0.3,1.3,0.7
					c0,0,0,0,0,0c0.1,0,0.1,0,0.2-0.1C316.6,266.8,316.5,266.7,316.5,266.7z"/>
				<path class="st5" d="M323.5,270.4c-1.6-0.8-3.2-1.6-4.7-2.4c-0.1,0-0.2,0-0.2,0.1c0,0.1,0,0.2,0.1,0.2c1.6,0.8,3.2,1.7,4.8,2.4
					c0,0,0,0,0,0c0.1,0,0.2,0,0.2-0.1C323.6,270.5,323.6,270.4,323.5,270.4z"/>
				<path class="st5" d="M335.1,275.6c-3-1.2-6.3-2.7-9.8-4.4c-0.1,0-0.2,0-0.2,0.1c0,0.1,0,0.2,0.1,0.2c3.5,1.7,6.8,3.2,9.8,4.4
					c5.9,2.4,7.5,5,7.8,6.7c0.3,1.4-0.3,2.7-1,3.3c-0.6,0.6-1.8,0.7-3.1,0.4c-1.7-0.4-3-1.4-3.5-2.7c-0.2-0.6-0.1-1.1,0.5-1.5
					c1-0.6,2.8-0.6,3.5,0c0.3,0.3,0.4,0.7,0.1,1.3c0,0.1,0,0.2,0.1,0.2c0.1,0,0.2,0,0.2-0.1c0.5-0.9,0.1-1.4-0.1-1.7
					c-0.8-0.8-2.9-0.8-4-0.1c-0.7,0.5-0.9,1.1-0.6,1.9c0.6,1.4,2,2.5,3.7,2.9c0.1,0,0.1,0,0.2,0c1.3,0.3,2.6,0.1,3.2-0.5
					c0.7-0.6,1.4-1.9,1.1-3.6C342.8,280.8,341.1,278.1,335.1,275.6z"/>
				<path class="st5" d="M351.8,277.6c-0.1-0.8-1-1.5-2.1-1.8c-1-0.2-1.8,0.1-2.3,0.8c-0.1,0.1,0,0.2,0.1,0.2c0.1,0.1,0.2,0,0.2-0.1
					c0.5-0.8,1.5-0.7,1.9-0.6c0.9,0.2,1.7,0.9,1.8,1.5c0.1,0.6-0.4,0.9-0.8,1.2c-2.8,1.5-9-2.1-9.1-2.2c-0.1,0-0.2,0-0.2,0.1
					c0,0.1,0,0.2,0.1,0.2c0.2,0.1,3.1,1.8,5.9,2.4c1.3,0.3,2.6,0.3,3.5-0.2C351.7,278.6,351.9,278,351.8,277.6z"/>
				<path class="st5" d="M333.6,273c-0.1,0-0.2,0-0.2,0.1c0,0.1,0,0.2,0.1,0.2c0,0,2.5,1,5.9,2.6c0,0,0,0,0,0c0.1,0,0.2,0,0.2-0.1
					c0-0.1,0-0.2-0.1-0.2C336.1,274,333.6,273,333.6,273z"/>
			</g>
		</g>
		<rect x="260.4" y="337.8" class="st2" width="46.4" height="22.8"/>
		<g>
			<path class="st6" d="M252.9,278.9c0,0,32.8-7.2,60,3.3c0,0,0,8.8,1.6,21.5c1.3,10.3-2.9,23.3-5.6,36.4l-50.2,0.4
				c0,0,2.7-13.7-8.4-40.1L252.9,278.9z"/>
			<path class="st7" d="M252.9,278.9c0,0,32.8-7.2,60,3.3c0,0-0.5,8.3,1.6,21.5c1.6,10.2-2.9,23.3-5.6,36.4l-50.2,0.4
				c0,0,2.7-13.7-8.4-40.1L252.9,278.9z"/>
		</g>
		<g>
			<path class="st8" d="M267,252.6c2.7,6.3,5.3,7.9,11.4,7.5"/>
			<path class="st3" d="M308.6,226c4.5,4.1,6.7,9.9,6.3,15c-0.4,5.1-6.3,9.3-4.6,22.6c-3.7-4.1-13.7-27.6-19-44.6
				C291.3,219,303.1,221,308.6,226z"/>
			<path class="st3" d="M295.4,220.3c-8-3.6-15.8,0.7-20.3,3.8c-4.5,3.2-8.1,10.8-8.1,16.9c0,6.1-0.2,13.5,3.8,16.7
				c4,3.2,7.6,2.4,7.6,2.4l30.1-27.8C308.6,232.3,303.4,223.9,295.4,220.3z"/>
			<g>
				<path class="st2" d="M289.6,286.2c-11.5-2.8-14.5-8.3-14.5-8.3c5.3-4,5.2-10.7,4.4-15c-0.4-2.4-1-4-1-4l13.8,4.2
					c-0.6,2.3-1,4.2-1.2,5.9c-0.2,1.8-0.2,3.3-0.1,4.4c0.5,4.3,2.9,4.7,2.9,4.7C295.8,283,289.6,286.2,289.6,286.2z"/>
				<path class="st9" d="M291.1,269.1c-0.2,1.8-0.2,3.3-0.1,4.4c-5.5-1.4-9.2-6.3-11.5-10.5c-0.4-2.4-1-4-1-4l13.8,4.2
					C291.7,265.5,291.3,267.4,291.1,269.1z"/>
			</g>
			<g>
				<path class="st2" d="M295.3,227.2c12.2,1.8,15.2,8.9,14.3,21.6c-1.2,15.9-6.3,26.6-21,21C268.4,262.2,275,224.3,295.3,227.2z"/>
				<path class="st10" d="M301.7,247c0,0,1.2,3.4,2.8,5.6c0,0-1.3,1.5-3.4,0.9L301.7,247z"/>
				<g>
					<path class="st3" d="M289.9,238.1c0.1,0,0.3,0,0.4-0.1c2-1.8,5-1,5.1-1c0.3,0.1,0.6-0.1,0.6-0.4c0.1-0.3-0.1-0.6-0.4-0.6
						c-0.1,0-3.7-1-6.1,1.2c-0.2,0.2-0.2,0.5,0,0.7C289.7,238,289.8,238.1,289.9,238.1z"/>
				</g>
				<g>
					<path class="st3" d="M309.2,239.4c0.1,0,0.3-0.1,0.4-0.2c0.2-0.2,0.2-0.5,0-0.7c-2.6-2.3-5.1-1.9-5.2-1.8
						c-0.3,0.1-0.5,0.3-0.4,0.6c0.1,0.3,0.3,0.5,0.6,0.4l0,0c0.1,0,2.1-0.4,4.3,1.6C308.9,239.4,309.1,239.4,309.2,239.4z"/>
				</g>
				<path class="st3" d="M278.9,245.9c0,0,7.2-9.2,7.4-17.1c0,0,25.6-6.4,23.3,18.4c0,0,5.5-21.5-15.4-25
					c-20.9-3.5-25.3,27.2-15.8,37.9C278.5,260.1,274.5,251.6,278.9,245.9z"/>
				<path class="st2" d="M280.6,248.7c0.2-2-1.3-5.6-5.1-5.7c-3.8-0.1-6.8,7.4,2.4,10.6C279.2,254.1,280.1,252.9,280.6,248.7z"/>
				<path class="st11" d="M297.2,259.3c0,1,0.5,1.8,1.3,1.8c0.7,0,1.3-0.8,1.3-1.7c0-1-0.5-1.8-1.3-1.8
					C297.8,257.6,297.2,258.3,297.2,259.3z"/>
				<path class="st3" d="M295.3,244.8c0.1-0.1,0.1-0.2,0-0.3c-0.1-0.1-0.2-0.2-0.3-0.1c0,0,0,0,0,0c-1.9,1.1-3.3,0.8-5.3,0
					c-0.1-0.1-0.3,0-0.3,0.1c-0.1,0.1,0,0.3,0.1,0.3C291.6,245.8,293.3,246,295.3,244.8L295.3,244.8z"/>
				<path class="st3" d="M302.7,245.5c-0.1-0.1-0.1-0.2,0-0.3c0.1-0.1,0.2-0.1,0.3-0.1c0,0,0,0,0,0c1.8,1.2,3.3,1.1,5.3,0.3
					c0.1-0.1,0.3,0,0.3,0.1c0.1,0.1,0,0.3-0.1,0.3C306.4,246.7,304.7,246.9,302.7,245.5L302.7,245.5z"/>
			</g>
			<g>
				<ellipse class="st3" cx="263" cy="226" rx="10.3" ry="11.3"/>
			</g>
			<path class="st3" d="M305.7,224.9c2.8,2.4,5.9,8,5.9,11.1c0,3.1-4.2,5.3-4.2,5.3c-0.3-3.4-2.1-5.6-5.1-6.7c0,1.8-0.8,3.7-2.2,5.7
				c-0.7-6.3-6.7-9.5-13.8-11.6l4.7-8.3C291,220.5,303,222.5,305.7,224.9z"/>
			<path class="st8" d="M286.5,228.5c0.4,9.2-4.6,11-3.7,17.2"/>
			<path class="st8" d="M314,236.1c3.7,9.6-6.1,15.3-2.4,27.5"/>
			<path class="st8" d="M249.7,225.1c0.5,5.5,4.8,11.6,13.1,11.8"/>
			<path class="st8" d="M264.6,215.1c-14.9-3.9-17.6,20.6-2.8,21.8"/>
		</g>
		<path class="st2" d="M258.7,311.7c-1.8,0.2-3.5-3-5.2-5.7l-3.3-5.6c-1.7-5.2,1.1-13.6,3.4-21.5c4.2-0.5,7.5,1.1,9,6.3
			c2,6.5,2.5,13.9,1.2,18.5C262.7,307.6,262.6,311.7,258.7,311.7z"/>
		<path class="st12" d="M250.2,300.1c1.1,1.5,2.2,1.7,3.4,1.8c1.8,0,2.6-2.5,3.9-5c1.2-2.8,2.4-8.9,1.2-13.3l-7.8,5.1
			C249.3,292.9,248.8,296.7,250.2,300.1z"/>
		<g>
			<g>
				<g>
					<g>
						<path class="st3" d="M307.7,352.4l7.3,12.8c19.6-4.6,82.2-14.1,89.9,7.4c9.6,26.7-59.6,48-97.8,49.3
							c-38.3,1.3-71.6-7.8-47.4-63.6L307.7,352.4z"/>
						<path class="st9" d="M307.7,352.4l7.3,12.8c19.6-4.6,82.2-14.1,89.9,7.4c9.6,26.7-59.6,48-97.8,49.3
							c-38.3,1.3-71.6-7.8-47.4-63.6L307.7,352.4z"/>
					</g>
					<g class="st13">
						<path class="st5" d="M307.7,352.4l7.3,12.8c19.6-4.6,82.2-14.1,89.9,7.4c9.6,26.7-59.6,48-97.8,49.3
							c-38.3,1.3-71.6-7.8-47.4-63.6L307.7,352.4z"/>
					</g>
					<path class="st12" d="M340.3,401.3c0,0,19.1-23.8,32.5-26.7c0,0-74.5-0.1-92.6,6l45.3,29.1L340.3,401.3z"/>
					<polygon class="st2" points="342,400.7 335.9,402.9 328.3,405.5 330.3,413.8 337.6,412.3 342,411.3 					"/>
					<path class="st2" d="M332.2,413.4l-1.2-8.8c-1.7,0.3-7.3,0.7-7.3,0.7s-5.2-0.2-6.5,1.5c-3.8,4.9-1.4,26.6,1.1,27.3
						c0.9,0.3,1.9-1,2.3-1.9c1.3-2.8,3.5-10.1,4.6-12.4C326.6,417.1,330.5,413.7,332.2,413.4z"/>
					<polygon class="st9" points="342,400.7 335.9,402.9 337.6,412.3 342,411.3 					"/>
					<g>
						<polygon class="st3" points="340.4,413.7 344.9,414 341.9,398.4 336.8,401.3 						"/>
						<polygon class="st14" points="340.4,413.7 344.9,414 341.9,398.4 336.8,401.3 						"/>
					</g>
				</g>
				<polygon class="st12" points="340.2,408.3 341.6,406.2 343.7,407.6 344.9,411.8 				"/>
				<g>
					<polygon class="st2" points="327.8,417.9 343.8,422.8 351.5,425.2 354.9,417.4 348.1,414.3 331.5,406.6 					"/>
					<path class="st2" d="M353.1,416.6l-4.3,7.8c1.7,0.8,5.4,3.3,5.4,3.3s4.9,3.8,7,3.2c6-1.7,17.1-20.4,15.5-22.6
						c-0.6-0.8-2.1-0.3-3,0.1c-2.7,1.5-8.9,6-11.1,7.2C359.2,417.3,355.8,417.7,353.1,416.6z"/>
					<polygon class="st9" points="327.8,417.9 343.8,422.8 348.1,414.3 331.5,406.6 					"/>
					<path class="st3" d="M345.5,412.2c0,0-61.4-46.6-84.6-48.7c-23.1-2.1-29.2,17.7-21.5,31.7c7.7,14,32,22.8,32,22.8
						s-16.8-21.8-14.4-26.3c2.4-4.5,8.2,3,8.2,3s40,19.3,76.2,27.5L345.5,412.2z"/>
					<path class="st15" d="M345.5,412.2c0,0-61.4-46.6-84.6-48.7c-23.1-2.1-29.2,17.7-21.5,31.7c7.7,14,32,22.8,32,22.8
						s-16.8-21.8-14.4-26.3c2.4-4.5,8.2,3,8.2,3s40,19.3,76.2,27.5L345.5,412.2z"/>
					<g>
						<polygon class="st3" points="346.7,411.3 343.3,408.3 336.4,422.5 342.2,423.3 						"/>
						<polygon class="st14" points="346.7,411.3 343.3,408.3 336.4,422.5 342.2,423.3 						"/>
					</g>
				</g>
			</g>
			<g>
				<polygon class="st3" points="259.5,355.4 259.7,358.3 307.7,352.4 307.7,350.5 				"/>
				<polygon class="st16" points="259.5,355.4 259.7,358.3 307.7,352.4 307.7,350.5 				"/>
			</g>
		</g>
		<polygon class="st12" points="260.4,347.9 271.8,350.5 280.6,347.9 280.6,340.3 260.4,340.4 		"/>
		<g>
			<g>
				<path class="st2" d="M256.8,343.8c0,0,12.9,4.3,14.4,4.1c1.5-0.2,7.8-1.7,7.8-2.2c0-0.5-2.2-10-2.2-10l-11.4-2.6
					c0,0-6.5,0.3-9.3,2.6L256.8,343.8z"/>
			</g>
			<g>
				<path class="st2" d="M259.4,291.5c-3.2,3.3-6.6,6.5-9.9,9.7l-10,9.4c-3.3,3.1-6.7,6.2-9.9,9.3c-3.2,3.1-6.4,6.2-9.2,9.5
					l-1.6-9.9c2.8,1.8,6.1,3.6,9.4,5.2c3.4,1.6,6.9,3.1,10.4,4.6c3.5,1.4,7.1,2.8,10.7,4c3.6,1.3,7.3,2.4,10.9,3.5l0,0
					c2,0.6,3.1,2.6,2.5,4.6c-0.5,1.7-2.1,2.8-3.8,2.7c-4.1-0.3-8.1-0.9-12.1-1.6c-4-0.8-7.9-1.7-11.8-2.7c-3.9-1.1-7.8-2.3-11.7-3.7
					c-3.9-1.5-7.7-3-11.7-5.3c-3.1-1.8-4.2-5.7-2.4-8.8c0.2-0.3,0.3-0.5,0.5-0.8l0.3-0.4c3-3.9,6.1-7.4,9.4-10.9
					c3.2-3.4,6.5-6.8,9.7-10c3.3-3.3,6.6-6.5,9.9-9.7l9.8-9.5c3-2.9,7.7-2.8,10.6,0.2C262.2,284,262.2,288.6,259.4,291.5
					L259.4,291.5z"/>
			</g>
		</g>
		<polygon class="st12" points="313.8,298 346.5,304.2 345,308.5 314.7,300.5 314,300.2 		"/>
		<g>
			<path class="st2" d="M311.1,308.3c0,0-12.4,5.2-13.8,5.1c-1.5-0.1-7.8-1.1-7.9-1.6c0-0.5,1.4-10,1.4-10l11-3.4
				c0,0,6.4-0.2,9.4,1.8L311.1,308.3z"/>
		</g>
		<g>
			<path class="st2" d="M349.7,315.7c-3.5-0.6-7-1.2-10.4-1.8c-3.5-0.6-6.9-1.3-10.4-1.9l-10.4-2c-1.7-0.3-3.5-0.7-5.2-1.1l-2.6-0.6
				l-1.3-0.3l-0.6-0.2c-0.2,0-0.4-0.1-0.5-0.8c-0.3-2.2,0-4.3,0.9-6.1c0.3-0.7,0.5-0.7,0.8-0.7l0.7,0l1.3,0.1l2.6,0.2
				c1.8,0.2,3.5,0.3,5.3,0.5l10.5,1.2c3.5,0.4,7,0.8,10.5,1.2c3.5,0.4,7,0.9,10.5,1.3c3,0.4,5.1,3.2,4.7,6.2c-0.4,3-3.2,5.1-6.2,4.7
				C349.8,315.7,349.7,315.7,349.7,315.7z"/>
		</g>
	</g>
	<g>
		<path class="st6" d="M366.2,242.4v-0.9h-41.1c-0.2-0.5-0.6-0.8-1.2-0.8c-0.7,0-1.3,0.6-1.3,1.3c0,0.7,0.6,1.3,1.3,1.3
			c0.5,0,1-0.3,1.2-0.8H366.2z"/>
		<g>
			<g>
				
					<ellipse transform="matrix(0.7071 -0.7071 0.7071 0.7071 -36.3658 388.5652)" class="st6" cx="450.9" cy="238.2" rx="81.6" ry="81.6"/>
				
					<ellipse transform="matrix(0.7071 -0.7071 0.7071 0.7071 -36.3658 388.5652)" class="st17" cx="450.9" cy="238.2" rx="81.6" ry="81.6"/>
			</g>
			<path class="st6" d="M412.4,306.3l6-29.2c15,0.6,36.2,3.1,38.6,0c3-3.2,3-10.8,3.1-18l4.2-4.7c0.5-2.4,0.1-4.5-2.3-6.3
				c3-0.5,5.5-1.6,6.8-4.2l-3.1-9.4c4.9-0.4,9.9-0.8,12.3-3.9c1.5-3.2-8.2-21.2-14.6-34.7c2.1-2.1,4-3.6,3.9-9.1l-1.3-15.7
				c-1.2-5.4-3.6-9-7.3-10.7c-36-1.8-67.5,13.1-81.7,53.7C367.5,250.8,379.6,286,412.4,306.3z"/>
			<g>
				<g>
					<path class="st6" d="M484.1,239.2c-2,0-3.8-0.2-5.3-0.4l0.3-2.1c4.5,0.7,11.3,0.8,18.4-2.6c10.8-5.2,11-14.6,11-15l2.2,0
						c0,0.5-0.1,11.2-12.2,17C493.3,238.4,488.3,239.2,484.1,239.2z"/>
				</g>
				<g>
					<g>
						<polygon class="st6" points="480.5,234.7 474.4,236.7 479.2,241 						"/>
					</g>
				</g>
			</g>
		</g>
		<g>
			<path class="st18" d="M366.2,238c0-0.4,0-0.7,0-1.1c0-1.8,0.1-3.5,0.2-5.3"/>
			<path class="st18" d="M366.5,245.2c-0.2-1.9-0.3-3.8-0.3-5.7"/>
			<path class="st18" d="M374.8,275.1c-4.2-8.6-7-17.9-8.1-27.8"/>
			<path class="st18" d="M380.5,285.1c-1.1-1.7-2.2-3.4-3.2-5.2"/>
			<path class="st18" d="M386.8,293.4c-1.5-1.7-3-3.6-4.3-5.4"/>
			<path class="st18" d="M411.3,312.9c-8.2-4.4-15.7-10.1-22-16.8"/>
			<path class="st18" d="M419.8,316.8c-1.5-0.6-3.1-1.3-4.5-2"/>
			<path class="st18" d="M428.3,319.6c-2-0.6-4-1.2-5.9-1.9"/>
			<path class="st18" d="M460.8,322.1c-3.3,0.4-6.6,0.6-10,0.6c-6.6,0-13-0.8-19.1-2.2"/>
			<path class="st18" d="M471.3,320.2c-2.1,0.5-4.1,0.9-6.3,1.3"/>
			<path class="st18" d="M480.3,317.4c-1.9,0.7-3.9,1.4-5.9,1.9"/>
			<path class="st18" d="M513,295.5c-8.3,8.9-18.4,16.1-29.9,20.8"/>
			<path class="st18" d="M519,288.1c-1.2,1.6-2.5,3.2-3.8,4.8"/>
			<path class="st18" d="M524.9,279c-1.1,2-2.3,3.9-3.6,5.8"/>
			<path class="st18" d="M534.9,248.5c-1.1,9.1-3.7,17.8-7.5,25.8"/>
			<path class="st18" d="M535.5,238c0,2-0.1,4-0.2,5.9"/>
			<path class="st18" d="M534.7,226.4c0.3,2.1,0.5,4.3,0.6,6.5"/>
			<path class="st18" d="M520,189.3c6.1,8.6,10.6,18.3,13.1,28.9"/>
			<path class="st18" d="M513,180.6c1.6,1.7,3.1,3.5,4.6,5.3"/>
			<path class="st18" d="M505,173c1.6,1.4,3.2,2.8,4.7,4.2"/>
			<path class="st18" d="M471.8,156c10.8,2.8,20.7,7.6,29.4,14"/>
			<path class="st18" d="M463.1,154.3c1.9,0.3,3.8,0.6,5.7,1"/>
			<path class="st18" d="M453.9,153.5c2.3,0.1,4.7,0.3,6.9,0.5"/>
			<path class="st18" d="M424,157.8c8.2-2.8,16.9-4.3,26-4.4c0.3,0,0.6,0,0.9,0"/>
			<path class="st18" d="M415.3,161.2c1.7-0.8,3.3-1.5,5.1-2.1"/>
			<path class="st18" d="M407.9,165.2c1.4-0.8,2.7-1.6,4.1-2.3"/>
			<path class="st18" d="M383,187.5c5.9-7.8,13-14.6,21.2-20"/>
			<path class="st18" d="M378.8,193.7c0.6-1,1.3-2,2-3"/>
			<path class="st18" d="M376,198.5c0.4-0.8,0.8-1.5,1.3-2.3"/>
			<path class="st18" d="M366.9,227.3c1.1-8.5,3.5-16.7,6.9-24.3"/>
		</g>
	</g>
	<g>
		<g>
			<path class="st6" d="M429.9,382.8v-5.1h9v5.1c0,1.4,0.6,2.7,1.6,3.6l0,0c1,0.9,1.6,2.2,1.6,3.6v29.5c0,1.4-1.2,2.6-2.6,2.6h-10.2
				c-1.4,0-2.6-1.2-2.6-2.6V390c0-1.4,0.6-2.7,1.6-3.6l0,0C429.3,385.4,429.9,384.1,429.9,382.8z"/>
			<path class="st9" d="M429.9,382.8v-5.1h9v5.1c0,1.4,0.6,2.7,1.6,3.6l0,0c1,0.9,1.6,2.2,1.6,3.6v29.5c0,1.4-1.2,2.6-2.6,2.6h-10.2
				c-1.4,0-2.6-1.2-2.6-2.6V390c0-1.4,0.6-2.7,1.6-3.6l0,0C429.3,385.4,429.9,384.1,429.9,382.8z"/>
			<path class="st19" d="M426.7,397.1V390c0-1.4,0.6-2.7,1.6-3.6c1-0.9,1.6-2.2,1.6-3.6v-5.1h9v5.1c0,1.4,0.6,2.7,1.6,3.6
				c1,0.9,1.6,2.2,1.6,3.6v7.1H426.7z"/>
			<path class="st20" d="M442.1,407.4v12.1c0,1.4-1.2,2.6-2.6,2.6h-10.2c-1.4,0-2.6-1.2-2.6-2.6v-12.1H442.1z"/>
			<path class="st6" d="M429.6,380.2h9.5c0.3,0,0.5-0.2,0.5-0.5v-3c0-0.3-0.2-0.5-0.5-0.5h-9.5c-0.3,0-0.5,0.2-0.5,0.5v3
				C429.1,380,429.3,380.2,429.6,380.2z"/>
		</g>
		<g>
			<path class="st6" d="M415.3,371.1V366h9v5.1c0,1.4,0.6,2.7,1.6,3.6l0,0c1,0.9,1.6,2.2,1.6,3.6v41.1c0,1.4-1.2,2.6-2.6,2.6h-10.2
				c-1.4,0-2.6-1.2-2.6-2.6v-41.1c0-1.4,0.6-2.7,1.6-3.6l0,0C414.7,373.8,415.3,372.5,415.3,371.1z"/>
			<path class="st20" d="M412.1,391.3v-12.9c0-1.4,0.6-2.7,1.6-3.6c1-0.9,1.6-2.2,1.6-3.6V366h9v5.1c0,1.4,0.6,2.7,1.6,3.6
				c1,0.9,1.6,2.2,1.6,3.6v12.9H412.1z"/>
			<path class="st20" d="M427.5,407.4v12.1c0,1.4-1.2,2.6-2.6,2.6h-10.2c-1.4,0-2.6-1.2-2.6-2.6v-12.1H427.5z"/>
			<path class="st6" d="M415,368.6h9.5c0.3,0,0.5-0.2,0.5-0.5v-3c0-0.3-0.2-0.5-0.5-0.5H415c-0.3,0-0.5,0.2-0.5,0.5v3
				C414.5,368.4,414.7,368.6,415,368.6z"/>
		</g>
	</g>
	<g>
		<path class="st6" d="M459.2,408.7h-53.1c-3.6,0-6.5,2.9-6.5,6.5v2.9c0,3.6,2.9,6.5,6.5,6.5h64.2c3.6,0,6.5-2.9,6.5-6.5l0,0
			c0-3.6-2.9-6.5-6.5-6.5h-10.2v-2C460.1,409.1,459.7,408.7,459.2,408.7z"/>
		<path class="st19" d="M418.3,408.7h-12.2c-3.6,0-6.5,2.9-6.5,6.5v2.9c0,3.6,2.9,6.5,6.5,6.5h23.3c3.6,0,6.5-2.9,6.5-6.5l0,0
			c0-3.6-2.9-6.5-6.5-6.5h-10.2v-2C419.2,409.1,418.8,408.7,418.3,408.7z"/>
		<path class="st12" d="M419.2,411.6l-6.9-0.2l-3.5-0.1c-0.6,0-1.1,0-1.8,0c-0.6,0.1-1.2,0.2-1.8,0.5c-2.3,1-3.7,3.6-3.3,6.1
			c0.4,2.5,2.7,4.6,5.3,4.7c4.7,0.1,9.3,0.1,13.9,0.1l6.9,0c0.6,0,1.1,0,1.8-0.1c0.7-0.1,1.3-0.4,1.9-0.8c1.1-0.8,1.9-2.1,2-3.5
			c0.1-1.4-0.5-2.8-1.5-3.7c-0.5-0.5-1.1-0.8-1.8-1c-0.7-0.2-1.4-0.2-1.9-0.2l-6.9,0c-4.6,0-9.2,0-13.9,0.1c-0.6-0.1-1.5,0.2-2,0.8
			c-0.5,0.6-0.6,1.4-0.4,2.1c0.2,0.7,0.8,1.3,1.5,1.5c0.4,0.1,0.7,0.1,1,0.1l0.9,0l6.9-0.1c4.6-0.1,9.2-0.2,13.9-0.4
			c-4.6-0.2-9.2-0.2-13.9-0.4l-6.9-0.1c-0.5,0-1.3,0-1.6-0.1c-0.4-0.1-0.7-0.5-0.8-0.8c-0.2-0.8,0.4-1.6,1.4-1.5
			c4.6,0.1,9.2,0.1,13.9,0.1l6.9,0c0.6,0,1.1,0,1.5,0.1c0.4,0.1,0.9,0.4,1.2,0.7c0.7,0.6,1.1,1.6,1,2.5c0,0.9-0.5,1.8-1.3,2.4
			c-0.4,0.3-0.8,0.5-1.3,0.5c-0.4,0.1-1,0-1.6,0.1l-6.9,0l-13.8,0.1c-2.1,0-4-1.7-4.4-3.8c-0.5-2.1,0.7-4.4,2.6-5.3
			c0.5-0.2,1-0.4,1.5-0.5c0.5-0.1,1.1,0,1.7-0.1l3.5-0.1L419.2,411.6z"/>
		<polygon class="st12" points="460.1,411.6 419.2,411.6 460.1,410.1 		"/>
	</g>
</g>
</svg>
