<?xml version="1.0" encoding="utf-8"?>
<!-- Generator: Adobe Illustrator 24.2.3, SVG Export Plug-In . SVG Version: 6.00 Build 0)  -->
<svg version="1.1" id="Layer_1" xmlns="http://www.w3.org/2000/svg" xmlns:xlink="http://www.w3.org/1999/xlink" x="0px" y="0px"
	 viewBox="0 0 750 500" style="enable-background:new 0 0 750 500;" xml:space="preserve">
<style type="text/css">
	.st0{fill:#9E383B;}
	.st1{fill:#5B090E;}
	.st2{opacity:0.5;fill:#9E383B;}
	.st3{fill:#DA3F48;}
	.st4{fill:#801B25;}
	.st5{opacity:0.4;fill:#DA3F48;}
	.st6{opacity:0.6;fill:#DA3F48;}
	.st7{fill:#F29F93;}
	.st8{fill:#8C1126;}
	.st9{fill:#BD4148;}
	.st10{opacity:0.4;}
	.st11{fill:#E20039;}
	.st12{fill:#FC8053;}
	.st13{fill:#CF4946;}
	.st14{opacity:0.6;fill:#FC8053;}
	.st15{fill:#CF5A46;}
	.st16{opacity:0.5;fill:#F29F93;}
	.st17{opacity:0.8;fill:#FC8053;}
	.st18{opacity:0.7;fill:#FC8053;}
	.st19{fill:none;}
</style>
<g>
	<g>
		<g>
			<g>
				<path class="st0" d="M485.8,437.2c-4.5-9.4-16.4-23.6-54.2-35.1c-37.8-11.6-46.5-2.6-46.7,3.8c0,0,0,11.6,3.8,23.9
					c3.9,12.4,10.2,16.7,25.6,21c13.8,3.8,40,7.2,53.3,5.6c7.6-1.8,13.5-4.7,17.7-7.7C487,446.2,488.2,442.3,485.8,437.2z"/>
				<path class="st1" d="M459.7,457.2L459.7,457.2c-13.4,0-33.4-2.6-45.4-6c-16.3-4.6-22.1-9.3-25.8-21.2c-3.8-12.3-3.9-23.9-3.9-24
					c0.1-2.3,1.6-9.8,17.2-9.8c7.8,0,17.9,1.9,30,5.6c29.3,9,47.6,20.9,54.4,35.3c2.5,5.3,1.1,9.3-0.5,11.8c0,0,0,0.1-0.1,0.1
					c-3.5,2.5-9.4,5.8-17.8,7.8C465.4,457,462.7,457.2,459.7,457.2z M401.7,396.8c-3.8,0-16.1,0.7-16.4,9.1c0,0.1,0,11.6,3.8,23.8
					c3.6,11.6,9.3,16.3,25.3,20.7c12,3.4,31.8,6,45.2,6l0,0c3,0,5.7-0.1,7.9-0.4c8.2-1.9,14-5.2,17.5-7.6c1.5-2.3,2.8-6.1,0.4-11.1
					c-6.8-14.3-24.9-26.1-54-35C419.4,398.7,409.4,396.8,401.7,396.8z"/>
			</g>
			<path class="st2" d="M485.8,437.2c-4.5-9.4-16.4-23.6-54.2-35.1c-37.8-11.6-46.5-2.6-46.7,3.8c0,0,0,11.6,3.8,23.9
				c0.6,1.8,1.2,3.3,1.8,4.8c-0.3-1.6-0.5-3.2-0.5-4.8c0-4.7,1.4-10.8,6.4-12.4c2.2-0.7,4.6,0.3,6.8,0.3c5,0,55.3,13.4,67.3,28.3
				c2.7,3.4,3,6.5-0.9,8.9c-0.9,0.5-1.8,1-2.7,1.5c0.2,0,0.5,0,0.7-0.1c7.6-1.8,13.5-4.7,17.7-7.7
				C487,446.2,488.2,442.3,485.8,437.2z"/>
			<g>
				<g>
					<path class="st3" d="M444.1,395.7c-3.5-9.7-20.1-12.7-38.3-28.1c-18.1-15.4-17.9-28.1-17.9-28.1h0c-0.6,3.8-1.3,7.7-2.2,11.9
						c0,0,0,0,0,0c-1.6,6.9-3.2,22-3.3,38.2c-0.1,7.9,0.2,16.1,1.1,23.6c0.9,7.6,2.3,14.7,4.5,20.2c8.9,22.4,30.2,20.9,56.9,24
						c8.8,1,16.3,0.4,22.8-1.1c-13.3,1.6-39.6-1.7-53.3-5.6c-15.4-4.3-21.7-8.6-25.6-21c-3.9-12.4-3.8-23.9-3.8-23.9
						c0.2-6.5,8.9-15.4,46.7-3.8c5,1.5,9.6,3.1,13.7,4.7C445.5,402.8,445.2,398.8,444.1,395.7z"/>
					<path class="st4" d="M453.4,458.4c-2.8,0-5.7-0.2-8.5-0.5c-3.8-0.4-7.4-0.8-11-1.1c-21.5-2-38.5-3.6-46.2-23.1
						c-2.1-5.2-3.6-12.1-4.6-20.3c-0.8-7-1.2-15-1.1-23.7c0.1-16,1.8-31.3,3.3-38.2c1.1-4.7,1.8-9,2.2-11.9c0-0.2,0.2-0.3,0.3-0.3
						c0.1,0,0.2,0,0.3,0.1c0.1,0.1,0.1,0.2,0.1,0.3c0,0,0,3.2,2.1,8.2c2,4.6,6.3,11.7,15.6,19.6c8.2,6.9,16.1,11.4,22.5,15
						c8.1,4.5,13.9,7.8,15.9,13.3c1,2.8,1.4,6.6,1.3,11.2c0,0.1-0.1,0.2-0.2,0.3c-0.1,0.1-0.2,0.1-0.3,0c-4.3-1.7-8.9-3.2-13.7-4.7
						c-12.1-3.7-22.1-5.6-29.8-5.6c-3.8,0-16.1,0.7-16.4,9.1c0,0.1,0,11.6,3.8,23.8c3.6,11.6,9.3,16.3,25.3,20.7
						c12,3.4,31.8,6,45.2,6c3,0,5.7-0.1,7.9-0.4c0.2,0,0.4,0.1,0.4,0.3c0,0.2-0.1,0.4-0.3,0.4C463.2,457.8,458.3,458.4,453.4,458.4z
						 M387.8,342.2c-0.4,2.6-1,5.9-1.8,9.3c-1.6,6.9-3.2,22.2-3.3,38.1c-0.1,8.6,0.3,16.6,1.1,23.6c0.9,8.2,2.5,15,4.5,20.1
						c7.6,19.1,24.4,20.7,45.6,22.7c3.5,0.3,7.2,0.7,11,1.1c5.6,0.7,11.1,0.7,16.3,0c-13.4,0.2-34.5-2.5-47-6
						c-16.3-4.6-22.1-9.3-25.8-21.2c-3.8-12.3-3.9-23.9-3.9-24c0.1-2.3,1.6-9.8,17.2-9.8c7.8,0,17.9,1.9,30,5.6
						c4.6,1.4,9.1,2.9,13.2,4.5c0.1-4.3-0.3-7.9-1.2-10.4c-1.9-5.2-7.6-8.4-15.5-12.9c-6.4-3.6-14.4-8.1-22.6-15.1
						C392.2,356.5,388.7,346.7,387.8,342.2z"/>
				</g>
				<g>
					<path class="st3" d="M497.2,395.9c-1.5-24.4-5-30.2-5-30.2c0-0.1,0-0.1,0-0.2c-1.5-14.6-3.5-14.8-4.3-15.8l0,0
						c0,0,3.2,14.2-9.4,33.3c-12.2,18.4-23.9,23.9-29.8,25.1c24.6,10.2,33.5,21.3,37.2,29.1c2.4,5,1.2,8.9-0.5,11.5
						c3-2.1,5.2-4.3,6.4-5.9C496,437,498.7,420.3,497.2,395.9z"/>
					<path class="st4" d="M485.4,449.1c-0.1,0-0.2,0-0.3-0.1c-0.1-0.1-0.1-0.3,0-0.5c1.5-2.3,2.8-6.1,0.5-11.1
						c-5.3-11.2-17.8-21-37-28.9c-0.2-0.1-0.2-0.2-0.2-0.4c0-0.2,0.1-0.3,0.3-0.3c14-2.8,26.1-19.8,29.5-24.9
						c12.5-18.8,9.4-32.9,9.4-33c0-0.1,0-0.2,0.1-0.3c0.1-0.1,0.2-0.1,0.3-0.1c0.1,0,0.2,0,0.3,0.1c0.1,0.1,0.2,0.2,0.3,0.3
						c1,1,2.7,2.7,4,15.7l0,0.1c0.4,0.8,3.6,7.2,5,30.3c1.4,22.5-0.7,40.5-5.5,47.1c-0.8,1.1-2.7,3.4-6.5,6
						C485.5,449,485.4,449.1,485.4,449.1z M449.8,408.2c18.8,8,31.1,17.7,36.4,28.9c2.1,4.3,1.5,7.8,0.3,10.3c2.8-2.1,4.3-3.9,5-4.9
						c4.6-6.3,6.7-24.6,5.3-46.6c-1.5-24-4.9-30-5-30c0,0,0-0.1,0-0.1l0-0.2c-1.1-10.8-2.4-13.6-3.4-14.8c0.4,3.8,0.9,16.5-9.7,32.4
						C466.4,401.8,455,406.8,449.8,408.2z"/>
				</g>
				<g>
					<path class="st3" d="M478.4,383c12.7-19.1,9.4-33.3,9.4-33.3l0,0c-0.2-0.3-0.3-0.6-0.4-1.3c0,0,0-0.1,0-0.1
						c0-3.5-2.3-20.9-19.4-52.7c-17-31.7-40.3-42.6-40.3-42.6c-10.1-4.6-25.2-6.2-31,9.7c-5.8,15.9-2.3,46.5-5,55
						c-1.9,5.9-2.6,13.3-4,21.8h0c0,0-0.2,12.7,17.9,28.1c18.1,15.4,34.8,18.4,38.3,28.1c1.1,3.1,1.4,7.1,1.2,11.1
						c1.1,0.4,2.2,0.9,3.3,1.3C454.5,406.9,466.2,401.5,478.4,383z"/>
					<path class="st4" d="M448.6,408.5c0,0-0.1,0-0.1,0c-1.1-0.4-2.2-0.9-3.3-1.3c-0.1-0.1-0.2-0.2-0.2-0.4
						c0.1-4.6-0.3-8.3-1.2-10.9c-1.9-5.2-7.6-8.4-15.5-12.9c-6.4-3.6-14.4-8.1-22.6-15.1c-17.5-14.8-18-27-18-28.3c0,0,0-0.1,0-0.1
						c0.3-2,0.6-3.9,0.9-5.7c0.9-6.2,1.7-11.6,3.1-16.1c1.1-3.4,1.2-10.5,1.3-18.7c0.1-12,0.3-26.8,3.8-36.3c4-10.8,12-13.1,18-13.1
						c4.2,0,9,1.1,13.5,3.2c0.1,0,5.9,2.8,13.8,9.4c7.3,6.1,17.8,16.8,26.6,33.3c7.3,13.6,12.7,26,16.1,37
						c3.2,10.4,3.3,15.3,3.3,15.8v0.1c0,0.6,0.1,0.9,0.3,1.1c0,0.1,0.1,0.2,0.1,0.2c0.2,1.3,2.6,15.2-9.5,33.5
						C465.5,403.2,453.3,407.5,448.6,408.5C448.7,408.5,448.6,408.5,448.6,408.5z M445.7,406.6c1,0.4,2,0.8,2.9,1.2
						c13.9-2.9,26-19.8,29.4-24.9c12.1-18.3,9.6-32.2,9.4-33c-0.2-0.4-0.4-0.8-0.4-1.4l0-0.1c0-0.2-0.2-16.9-19.3-52.5
						c-8.8-16.3-19.2-27-26.4-33.1c-7.8-6.6-13.6-9.3-13.7-9.4c-4.4-2-9.1-3.1-13.2-3.1c-5.8,0-13.5,2.2-17.3,12.6
						c-3.4,9.4-3.6,24.2-3.7,36.1c-0.1,8.2-0.2,15.4-1.3,18.9c-1.4,4.5-2.2,9.8-3.1,16c-0.3,1.8-0.5,3.7-0.8,5.7c0,0,0,0,0,0
						c0,0.1,0,12.7,17.8,27.8c8.2,6.9,16.1,11.4,22.5,15c8.1,4.5,13.9,7.8,15.9,13.3C445.4,398.3,445.8,402,445.7,406.6z"/>
				</g>
			</g>
		</g>
		<g>
			<g>
				<g>
					<g>
						<path class="st0" d="M262.5,348.4c0,0,0-0.1,0-0.1C262.5,348.3,262.5,348.4,262.5,348.4z"/>
						<path class="st1" d="M262.5,348.8C262.5,348.8,262.5,348.8,262.5,348.8c-0.2,0-0.4-0.1-0.4-0.3c0-0.1,0-0.2,0-0.2
							c0-0.2,0.2-0.3,0.4-0.3c0.2,0,0.3,0.2,0.3,0.4c0,0,0,0.1,0,0.1C262.9,348.6,262.7,348.8,262.5,348.8z"/>
					</g>
					<g>
						<path class="st3" d="M273.1,356.1c7.3,3.6,15.8,5.3,23.7,6.6c13.4,2.3,27.1,2.3,40.5-0.5c9.3-2,19.4-4.7,27.1-10.7
							c0,0,0,0,0,0c-3.1-13.6-3.5-25.2-6.2-33.7c-2.7-8.5,0.8-39.1-5-55c-5.8-15.9-20.9-14.3-31-9.7c0,0-23.2,10.8-40.3,42.6
							c-17,31.7-19.4,49.2-19.4,52.7c0,0,0,0.1,0,0.1C262.6,348.9,263.3,351.2,273.1,356.1z"/>
						<path class="st4" d="M316.3,364.7c-6.4,0-12.9-0.6-19.5-1.7c-8.1-1.4-16.6-3-23.8-6.6c-9.5-4.8-10.7-7.1-10.8-7.9v-0.1
							c0-5.8,4.1-24.2,19.4-52.8c8.8-16.4,19.3-27.2,26.6-33.3c7.9-6.6,13.8-9.4,13.8-9.4c4.5-2.1,9.3-3.2,13.5-3.2
							c6,0,14,2.3,18,13.1c3.5,9.5,3.6,24.4,3.8,36.3c0.1,8.2,0.2,15.3,1.2,18.7c1.5,4.6,2.2,9.9,3.1,16.1
							c0.8,5.3,1.6,11.3,3.1,17.6c0,0.1,0,0.3-0.1,0.4c-7.5,6-17.5,8.7-27.2,10.8C330.6,364,323.5,364.7,316.3,364.7z M335.5,250.3
							c-4.1,0-8.8,1.1-13.2,3.1c-0.1,0-5.9,2.8-13.7,9.4c-7.2,6.1-17.6,16.7-26.4,33.1c-19.1,35.6-19.3,52.3-19.3,52.5
							c0,0,0,0.1,0,0.1c0,0.2,0.5,2.3,10.4,7.3c7.2,3.6,15.6,5.2,23.6,6.6c14,2.4,27.7,2.2,40.3-0.5c9.5-2,19.3-4.7,26.7-10.5
							c-1.4-6.3-2.3-12.2-3-17.5c-0.9-6.2-1.7-11.5-3.1-16c-1.1-3.5-1.2-10.6-1.3-18.9c-0.1-11.9-0.3-26.7-3.7-36.1
							C348.9,252.5,341.3,250.3,335.5,250.3z"/>
					</g>
					<g>
						<path class="st0" d="M367.7,389.6c-1.5,7.4-5.7,21.4-16.8,27.9c-15.4,9.1-41.1,12.6-51.2,11.4c-10.1-1.2-12.8,2.2-18.7,4.8
							c-6,2.6-13.7,4.6-16.7,4.8c-3,0.2-6.3,3.5,2.6,9.5c9,6,21.6,7.6,28.8,7.5c7.3-0.2,18-1.8,27.2-2.2c9.1-0.3,26.5-2.7,34.3-14.6
							c4.7-7.2,7.8-18.1,9.4-25.5C367.4,405.7,367.7,397.5,367.7,389.6z"/>
						<path class="st1" d="M294.7,455.8L294.7,455.8c-8.1,0-19.7-2-28.1-7.5c-5.6-3.7-6.3-6.3-5.9-7.8c0.4-1.5,2-2.2,3.4-2.3
							c2.8-0.2,10.5-2,16.6-4.8c1.3-0.6,2.5-1.2,3.6-1.8c3.3-1.8,6.1-3.3,11.4-3.3c1.2,0,2.5,0.1,3.9,0.2c1.2,0.1,2.7,0.2,4.4,0.2
							c10.4,0,32.3-3.1,46.6-11.6c10.9-6.4,15.1-20.1,16.6-27.7c0-0.2,0.2-0.3,0.4-0.3c0.2,0,0.3,0.2,0.3,0.4
							c0.1,8.7-0.3,16.7-1.1,23.7c-1.7,7.7-4.7,18.4-9.4,25.6c-3.4,5.2-12.3,13.9-34.6,14.8c-4.6,0.2-9.5,0.7-14.3,1.1
							c-4.7,0.5-9.2,0.9-12.8,1C295.4,455.8,295,455.8,294.7,455.8z M295.8,429.1c-5.1,0-7.9,1.5-11.1,3.2c-1.1,0.6-2.3,1.2-3.6,1.8
							c-6.2,2.8-14,4.7-16.9,4.8c-1.1,0.1-2.4,0.6-2.7,1.8c-0.3,1,0.1,3.3,5.6,7c8.2,5.5,19.6,7.4,27.6,7.4l0,0c0.3,0,0.7,0,1,0
							c3.6-0.1,8.1-0.5,12.8-1c4.8-0.5,9.8-1,14.4-1.2c21.9-0.8,30.7-9.4,34-14.4c4.6-7.1,7.6-17.7,9.3-25.3
							c0.7-6.1,1.1-12.9,1.1-20.4c-2,7.9-6.5,19.3-16.3,25c-14.4,8.5-36.5,11.7-47,11.7c-1.7,0-3.2-0.1-4.4-0.2
							C298.3,429.2,297,429.1,295.8,429.1z"/>
					</g>
					<path class="st2" d="M350.9,417.5c-15.4,9.1-41.1,12.6-51.2,11.4c-10.1-1.2-12.8,2.2-18.7,4.8c-6,2.6-13.7,4.6-16.7,4.8
						c-3,0.2-6.3,3.5,2.6,9.5c2.2,1.5,4.7,2.7,7.2,3.7c-0.2-0.9-0.2-1.9,0.2-2.8c1-2.1,3.3-2.8,5.4-3.3c4.1-1,8.2-1.4,12.4-1.5
						c10.2-0.3,20-0.6,29.9-3.3c4.5-1.2,9.3-2.3,13.6-4.1c2.7-1.1,5.3-2.5,8-3.5c3.6-1.3,9.4-2.9,11.4,1.6c1.3,3-1.3,6.6-3.2,8.7
						c-1.3,1.4-2.8,2.8-4.3,4c3.8-2.1,7.2-4.9,9.7-8.7c4.7-7.2,7.8-18.1,9.4-25.5c0.9-7.6,1.2-15.7,1.1-23.6
						C366.2,397,361.9,411,350.9,417.5z"/>
				</g>
				<g>
					<g>
						<path class="st3" d="M292.3,429c2-0.3,4.3-0.4,7.3,0c10.1,1.2,35.8-2.3,51.2-11.4c11.1-6.5,15.3-20.5,16.8-27.9
							c-0.1-16.2-1.8-31.3-3.3-38.2c-7.6,6.1-17.7,8.7-27.1,10.7c-13.3,2.8-27.1,2.8-40.5,0.5c-7.9-1.3-16.4-3-23.7-6.6
							c-9.8-4.9-10.5-7.2-10.6-7.6c-0.1,3.3-2.7-1.4-4.6,17.1c1.8,2.3,10.7,14.3,19.6,35.6C284.1,417.1,288.1,424.8,292.3,429z"/>
						<path class="st4" d="M304.1,429.5c-1.7,0-3.2-0.1-4.4-0.2c-2.8-0.3-5.1-0.3-7.2,0c-0.1,0-0.2,0-0.3-0.1
							c-4.1-4-8.1-11.3-15-27.9c-8.9-21.3-17.8-33.4-19.5-35.5c-0.1-0.1-0.1-0.2-0.1-0.3c1.3-13,3-14.7,4-15.7
							c0.4-0.4,0.6-0.6,0.6-1.4c0-0.2,0.2-0.3,0.3-0.4c0.2,0,0.4,0.1,0.4,0.3c0,0.2,0.5,2.4,10.4,7.3c7.2,3.6,15.6,5.2,23.6,6.6
							c14,2.4,27.7,2.2,40.3-0.5c9.6-2,19.5-4.7,26.9-10.7c0.1-0.1,0.2-0.1,0.4-0.1c0.1,0,0.2,0.1,0.2,0.3
							c1.6,6.9,3.2,22.3,3.3,38.2c0,0,0,0.1,0,0.1c-1.6,7.7-5.9,21.6-17,28.1C336.6,426.3,314.6,429.5,304.1,429.5z M295.8,428.3
							c1.2,0,2.5,0.1,3.9,0.2c1.2,0.1,2.7,0.2,4.4,0.2c10.4,0,32.3-3.1,46.6-11.6c10.8-6.4,15.1-20,16.6-27.6
							c-0.1-15.5-1.7-30.4-3.2-37.5c-7.5,5.8-17.3,8.4-26.8,10.5c-12.7,2.7-26.5,2.9-40.6,0.5c-8.1-1.4-16.6-3-23.8-6.6
							c-6.7-3.4-9.3-5.6-10.3-6.8c-0.1,0.3-0.3,0.5-0.6,0.8c-0.9,0.9-2.5,2.5-3.8,15.1c1.9,2.5,10.7,14.5,19.5,35.6
							c6.8,16.3,10.7,23.6,14.7,27.5C293.5,428.4,294.6,428.3,295.8,428.3z"/>
					</g>
					<g>
						<path class="st3" d="M322.9,453.3c-9.1,0.3-19.9,2-27.2,2.2c-7.3,0.2-19.9-1.5-28.8-7.5c-8.9-6-5.6-9.3-2.6-9.5
							c3-0.2,10.8-2.2,16.7-4.8c4.2-1.9,6.8-4,11.4-4.8c-4.3-4.1-8.3-11.8-14.9-27.8c-8.9-21.4-17.8-33.3-19.6-35.6
							c0,0.1,0,0.1,0,0.2c0,0-3.5,5.8-5,30.2c-1.5,24.4,1.2,41,5.4,46.8c4.3,5.8,20.1,17.8,46.8,14.7c26.7-3.1,48-1.6,56.9-24
							c2.2-5.6,3.7-12.6,4.5-20.2c-1.6,7.4-4.7,18.2-9.4,25.5C349.4,450.7,332,453,322.9,453.3z"/>
						<path class="st4" d="M296.6,458.4c-21.6,0-34.7-10-38.6-15.4c-4.8-6.6-6.9-24.6-5.5-47.1c1.5-23.1,4.6-29.5,5-30.3v-0.1
							c0-0.1,0.1-0.3,0.3-0.3c0.1,0,0.3,0,0.4,0.1c1.7,2.2,10.7,14.3,19.6,35.7c6.9,16.5,10.8,23.8,14.8,27.7
							c0.1,0.1,0.1,0.2,0.1,0.4c0,0.1-0.2,0.2-0.3,0.3c-3.1,0.5-5.2,1.6-7.7,2.9c-1.1,0.6-2.3,1.2-3.6,1.8c-6.2,2.8-14,4.7-16.9,4.8
							c-1.1,0.1-2.4,0.6-2.7,1.8c-0.3,1,0.1,3.3,5.6,7c8.2,5.5,19.6,7.4,27.6,7.4c0.3,0,0.7,0,1,0c3.6-0.1,8.1-0.5,12.8-1
							c4.8-0.5,9.8-1,14.4-1.2c21.9-0.8,30.7-9.4,34-14.4c4.6-7.1,7.6-17.7,9.3-25.3c0-0.2,0.2-0.3,0.4-0.3c0.2,0,0.3,0.2,0.3,0.4
							c-1,8.3-2.5,15.1-4.6,20.3c-7.7,19.5-24.7,21.1-46.2,23.1c-3.6,0.3-7.2,0.7-11,1.1C302.3,458.2,299.4,458.4,296.6,458.4z
							 M258,366.3c-0.7,1.6-3.5,8.9-4.8,29.7c-1.4,22,0.7,40.3,5.4,46.6c3.8,5.2,16.7,15.1,38,15.1c2.8,0,5.6-0.2,8.5-0.5
							c3.8-0.4,7.4-0.8,11-1.1c21.3-2,38.1-3.6,45.6-22.7c1.4-3.6,2.6-8,3.5-13c-1.8,6.4-4.3,13.4-7.7,18.6
							c-3.4,5.2-12.3,13.9-34.6,14.8c-4.6,0.2-9.5,0.7-14.3,1.1c-4.7,0.5-9.2,0.9-12.8,1c-0.3,0-0.7,0-1,0c-8.1,0-19.7-2-28.1-7.5
							c-5.6-3.7-6.3-6.3-5.9-7.8c0.4-1.5,2-2.2,3.4-2.3c2.8-0.2,10.5-2,16.6-4.8c1.3-0.6,2.5-1.2,3.6-1.8c2.2-1.2,4.3-2.3,7.2-2.9
							c-4-4.1-7.8-11.5-14.5-27.4C268.8,381.3,260.4,369.5,258,366.3z"/>
					</g>
				</g>
			</g>
			<path class="st5" d="M322.9,453.3c-9.1,0.3-19.9,2-27.2,2.2c-7.3,0.2-19.9-1.5-28.8-7.5c-8.9-6-5.6-9.3-2.6-9.5
				c3-0.2,10.8-2.2,16.7-4.8c4.2-1.9,6.8-4,11.4-4.8c2-0.3,4.3-0.4,7.3,0c10.1,1.2,35.8-2.3,51.2-11.4c11.1-6.5,15.3-20.5,16.8-27.9
				c-0.1-16.2-1.8-31.3-3.3-38.2c0,0,0,0,0,0c-3.1-13.6-3.5-25.2-6.2-33.7c-2.7-8.5,0.8-39.1-5-55c-5.8-15.9-20.9-14.3-31-9.7
				c0,0-23.2,10.8-40.3,42.6c-17,31.7-19.4,49.2-19.4,52.7c0,0,0,0.1,0,0.1c-0.1,3.3-2.7-1.4-4.6,17.1c0,0.1,0,0.1,0,0.2
				c0,0-3.5,5.8-5,30.2c-1.5,24.4,1.2,41,5.4,46.8c4.3,5.8,20.1,17.8,46.8,14.7c26.7-3.1,48-1.6,56.9-24c2.2-5.6,3.7-12.6,4.5-20.2
				c-1.6,7.4-4.7,18.2-9.4,25.5C349.4,450.7,332,453,322.9,453.3z M330.5,392.9c-1.5,8.3-5.2,15.1-13.9,17.3
				c-21.5,5.5-29.8,4.6-35.8-10.9c-1.5-3.9-3.3-7.7-5.2-11.5c-3-5.8-6.3-11.4-9.7-17c-1.8-2.9-6-11.7-1.1-13.7
				c0.6-0.2,1.2-0.4,2-0.4c4.5-0.1,8.7,3.4,12.7,5.1c5.4,2.4,10.9,4.6,16.6,6.1c7.1,1.9,13.8,1.6,21,1.4c6.7-0.2,10.5,2.7,11.8,9.2
				C329.9,383.3,331.4,388.1,330.5,392.9z M273.8,317.4c20.9-44.5,32.6-51,46-59.2c11.3-6.9,16.9,6,13.1,23.3
				c-3.9,17.4-2.6,33.6-1.9,56.2c0.8,22.6-50.4,17.1-58.4,10.4C264.6,341.5,273.8,317.4,273.8,317.4z M256.9,429.3
				c-4.5-11.2-2.2-43-1-49.2c1.2-6.2,3.5-4,3.5-4c3.8,4.1,6.1,13.9,8.2,29.3c2,14.8,1,25.6-4.2,27.3
				C258.1,434.5,256.9,429.3,256.9,429.3z"/>
			<path class="st6" d="M335.3,250.5c6.4,1.6,11.2,6.8,13.3,13c5.1,15.1-0.8,31.8-2.4,47c-0.7,6.3-1.1,12.9,0.3,19.1
				c0.6,3.1,1.6,6.3,3.4,9c1.2,1.7,3.4,4.8,5.9,4.7c3.6-0.1,5-6.2,5.6-9.4c-0.9-6.2-1.7-11.7-3.1-16.3c-2.7-8.5,0.8-39.1-5-55
				c-4-10.9-12.4-13.6-20.5-12.7C333.5,250.1,334.4,250.3,335.3,250.5z"/>
			<path class="st3" d="M281.6,450.7c0,0,7,4.6,41.4-0.2c6.9-1,22.2-3.8,28-8.9c0,0-9.8,3.8-20.2,6
				C316.7,450.5,288.7,452.5,281.6,450.7z"/>
			<path class="st3" d="M321.1,259.9c0,0-19.6,7.5-38.8,45.7c0,0-14.2,26.1-9.7,39.3c0,0,0.2-15.8,11.9-39.8
				C298.5,276.8,321.1,259.9,321.1,259.9z"/>
			<path class="st3" d="M258.5,378.7c0,0-4.7,19.6-0.5,48.2c0,0,0.7,3.5,3,3.7C261,430.7,257.2,419.3,258.5,378.7z"/>
			<path class="st3" d="M267.9,358.8c0,0-4.2,0.5-1.7,5.7c2.5,5.2,10.2,17.4,14.9,29.3c4.7,11.9,8.7,17.4,17.4,18.1
				c0,0-7.2-3-12.9-13.9c-5.7-10.9-11.9-24.6-15.2-30.1C267.2,362.6,265.9,361.3,267.9,358.8z"/>
			<g>
				<path class="st7" d="M296.5,308c0.5,0.2,0.9,0.3,1.4,0.4c1.1,0.2,2.1,0.2,3.1,0.1c1.3,0.1,3,0,4.2-0.5c0.9,0,1.8,0.1,2.8,0.2
					c2.8,1.1,6.2,1,9.1-0.3c0.2,0.4,0.4,0.9,0.7,1.3c0.7,1,2,2.1,3.3,2.3c1.6,0.7,3.5,0.7,5.6,0.7c0.5-0.4,0.9-0.8,1.4-1.2
					c0.3-0.2,0.6-0.5,0.9-0.7c-1.2,0-2.5,0-3.7,0c-2-0.4-3.6-1-4.8-2.4c-3-6.8,2.8-10.4,7.6-14.3c1.1-0.8,2-1.4,2.3-1.8
					c1.4-1.4,2.5-3,3-4.7c1,0,2.7-1.1,3-1.2c0.1,0,0.1-0.1,0.2-0.1c0.6-0.7,1.1-1.4,1.5-2.2c-0.6,0.6-1.4,1.1-1.8,1.4
					c-0.6,0.4-1.2,0.8-1.8,1c-0.3,0.1-0.6,0.1-0.8,0c0.1-0.8,0-1.7-0.3-2.6c-0.1-0.6-0.2-1.2-0.3-1.7c0,2-0.5,3.9-1.4,5.6
					c-0.5,1.5-1.3,2.8-2.5,4.1c-3.7-4.4-2.7-11.4,0.8-15.6c-0.4,0.3-0.8,0.6-1.2,0.9c-3.4,4.4-4.5,11.5-0.4,15.6
					c-0.5,0.5-1,0.9-1.6,1.4c-0.6,0.5-1.3,1-1.9,1.5c-1.1,0.7-2.2,1.3-3.2,1.9c-0.4,0.2-1.6,1.1-2.6,2.1c0.4-2.8,0.2-5.6-0.4-8.4
					c-0.4-1.9-1.1-3.7-2.1-5.2c0.1-0.1,0.2-0.1,0.2-0.2c0.1-0.3,0.2-0.6,0.3-0.9c0,0,0,0,0-0.1c0.3-1.8,0.3-3.9-0.6-5.6
					c0.5,2,0,4.1-0.4,6.1c-1.4-2-3.3-3.6-5.8-4.4c-0.5,0-0.9,0-1.3,0c0.1,0.1,0.2,0.2,0.4,0.3c5.4,1.9,7.9,7.5,8.3,13.1
					c-1.9-0.2-4,0.5-6-0.1c-0.7-0.2-1.3-0.6-1.9-1c-1.4-0.5-2.6-1.4-3.3-2.5c0,0.3,0.1,0.6,0.1,0.8c1,1.3,2.2,2.5,3.7,3.4
					c2.4,1.3,4.9,0.6,7.4,0.5c0,1.7-0.1,3.4-0.4,5c-0.4,2.1-0.8,4.2-0.5,6.2c-2,0.7-4.1,1.1-6.2,0.9c-1.7,0.2-3.5,0-4.8-1.1
					c-1.8-1.5-3.1-3.4-4.2-5.5c0.4,1.4,0.7,2.8,1.6,4c0.7,0.9,1.3,1.6,2.1,2.2c0,0-0.1,0-0.1,0c-3.3,0.3-7.8,1.5-10.5-1.4
					C294.8,306.3,295.6,307.2,296.5,308z"/>
				<path class="st7" d="M342.9,368.7c-0.7-0.9-1.4-1.8-2.2-2.6c1.4,0.8,2.9,1.5,4.7,2.2c4.3,1.6,8.1,4.2,11.3,7.4
					c-0.2-0.5-0.4-0.9-0.5-1.1c-0.5-0.9-1.1-1.8-1.7-2.6c-1.7-1.5-3.6-2.8-5.8-3.9c-2-1-4.2-1.6-6.2-2.3
					c-7.6-2.6-12.4-10.3-14.9-17.6c-0.7-2.1-1.3-5.3-0.7-7.5c0.4-1.5,0.5-2.9-0.9-3.9c2-3.4,5.1-6.1,7.6-9.1c2.1-2.5,5.2-5.8,5-9.4
					c-0.1-3-2.1-4.3-4.8-5.1c-1-0.3-2.2-0.4-3.3-0.5c-0.8,0.6-1.6,1.3-2.4,2c1.2,0,2.3,0.1,3.5,0.2c8.9,1.3,1.7,10.6-1.4,14.4
					c-2.2,2.6-4.4,5.1-6.6,7.7c-0.9,0.4-1.5,1.2-1.8,2c-0.1,0.1-0.2,0.2-0.2,0.3c-3.1-0.1-5.9-0.4-8.5-2.8c-2.5-2.3-3.8-5.4-5.6-8.3
					c-0.4-0.8-0.8-1.6-1.4-2.3c-1.3-2-3.1-3.5-5.1-4.6c0-1-0.1-1.9-0.4-2.8c-0.7-0.6-1.4-1.2-2.1-1.9c0.3,0.5,0.6,1.1,0.9,1.7
					c0.3,0.7,0.4,1.6,0.6,2.4c-2.2-1-4.6-1.5-7-1.5c-0.3,0-0.6,0.1-0.8,0.2c-0.4,0.2-0.7,0.3-1,0.5c7,0,12.2,3.3,15.4,9.4
					c-2.6,0.3-5.1,0.3-7.4-0.6c0.5,0.6,1,1.2,1.7,1.6c2.1,0.7,4.3,0.8,6.2,0c0,0.1,0.1,0.1,0.1,0.2c2,4.2,2.8,6.7,6.3,9.2
					c-2.8,0.6-5.4,1.5-6.7,1.9c-2.9,1-5.5,1.5-8.6,1.5c-0.1,0-0.2,0-0.3,0c-0.2,0-0.5-0.1-0.7-0.1c-1.5-0.2-2.7-1-3.6-1.9
					c-0.4-0.3-0.7-0.7-1.1-1.1c-1.6-2-3-6.2-5.5-7c-0.2-0.1-0.4-0.1-0.6-0.1c2.6,2,3.6,6.9,5,9.1c0.4,0.6,0.8,1,1.3,1.4
					c-0.2,0.1-0.5,0.2-0.7,0.3c-0.6,0.2-1.1,0.3-1.7,0.5c-1,0.3-2.1,1.1-3.3,1.6c-2.9,0.7-6.1,0-7.9-2.2c0,0.5,0,1.1,0.2,1.6
					c1.1,1.3,2.6,2.1,4.6,2.3c2.7,0.3,4.8-1,6.9-2.2c1.1-0.3,2.3-0.6,3.5-0.8c0,0,0.1,0,0.1,0c1,0.4,2.1,0.6,3.1,0.7
					c7.8,0.9,16.4-6.9,23.9-3.2c0.9,5.7-6.9,9.9-11.3,11.5c-5.6,2-11.8,2.3-17.7,2.7c-3.2,0.2-6.4,0.5-9.6,1c-4.3,0.8-6.7,3.2-9,6.7
					c1.4-1.2,2.8-2.6,4.5-3.4c-0.2,3.1-0.3,6.1-2.1,8.7c1.8-1.8,3-3.5,3.3-6.1c0.3-3,1.1-4.2,4.2-4.5c5.8-0.6,11.4-0.3,17.1-1.3
					c-4.7,2.1-9.4,4.6-11.8,9.4c-1.2,2.4-2,4.7-3.7,6.9c-1.6,2-4.7,2.5-7.1,3.4c-3,1.1-5,2.4-6.5,5.2c3-3.2,7.1-4.1,11.1-5.5
					c-3.7,4.2-9,10.9-4.1,16.5c-0.9-3.8-0.8-7.6,1.4-10.9c2.1-3.1,4.9-6,7.4-8.9c0.4,3.6,1.6,7.6,4.9,9.7c-2.1-3.9-4.1-8-3-12.6
					c1-4.3,4.4-7.6,8.2-9.8c2.1-1.2,4.4-2,6.7-2.9c0,3.5,1.1,6.9,1,10.4c-0.1,2.8-0.7,4.6-2.4,6.8c3.3-0.5,3.5-7.5,3.8-9.9
					c1.6,1.5,3.3,3,4.7,4.7c1.6,2,1.6,3.6,1.8,6.1c3.1-6.6-4.7-8.8-6.6-13.9c-1.7-4.5,1.3-5.9,4.9-7.2c4-1.5,7.4-4.1,9.6-7.8
					c0.7-1.3,2.3-4,4.1-2.6c1.2,1,1.4,3.3,1.8,4.6c1.1,3.5,2.5,6.8,3.1,10.5c1.3,8.3-2.3,16.3-6.7,23.1c-1.2,1-2.4,1.3-4.2,1.3
					c-0.3,0-0.5,0-0.7,0c-9.4-1.3-19,8.3-25.1,14.5c-0.1,0.3-0.2,0.6-0.3,1c2.2-2,4.5-4.1,7-6c-0.5,1.6-0.4,3.6-0.6,5.2
					c0.4-0.6,0.8-1.2,1.1-1.8c0-0.2,0.1-0.5,0.1-0.7c0.1-0.8,0.2-1.5,0.4-2.2c0.1-0.6,0.5-1.2,0.6-1.8c5.8-4.3,12.3-7.4,19.7-6.5
					c-2.2,3.6-3.8,7.6-4.3,11.5c0,0,0,0,0,0c-3.3,4-8.4,5.8-11.6,9.8c-1.2,1.5-2.3,3.3-3.1,5.2c-0.1,0.4-0.1,0.8-0.1,1.2
					c0,0.2,0.1,0.6,0.1,1.2c1.9-4.2,4.3-7.5,8.3-10.4c2.3-1.7,4.7-3.1,6.2-5.4c-0.2,4.6,1.3,9.2,5,13.1c-0.5-1-1-2-1.5-3
					c-2.6-4.4-3-9.7-1.9-14.8c1.4-6,6.3-11.1,9.3-16.5c1.3,2.9,4,5.2,5.7,7.8c2.5,3.8,3.6,8.3,3.5,12.8c0.4-1.2,0.6-2.3,0.9-3.5
					c-0.1-2.6-0.6-5-1.6-7.6c-1.1-2.7-2.9-4.7-4.7-6.7c-0.6-0.9-1.1-1.9-1.5-2.9c-0.5-1.1-0.5-2.3-0.6-3.5c1.5-3.9,2.3-8.1,2.2-12.3
					c0.2-0.1,0.6-0.1,1,0.2c0.8,0.4,1.5,1,2.2,1.5c1.6,1.1,2.9,2.6,4.4,3.7c3.5,3.9,6,9.2,6.5,14.3c0.5-2.4,0-4.9-0.6-7.3
					C344.8,371.9,343.9,370.2,342.9,368.7z"/>
				<path class="st8" d="M295.7,307.3c0.5,0.2,0.9,0.3,1.4,0.4c1.1,0.2,2.1,0.2,3.1,0.1c1.3,0,3,0,4.2-0.6c0.9,0,1.8,0.1,2.8,0.2
					c2.8,1.1,6.2,1,9.1-0.3c0.2,0.4,0.4,0.9,0.7,1.3c0.7,1,2,2.1,3.3,2.3c1.6,0.7,3.5,0.7,5.6,0.7c0.5-0.4,0.9-0.8,1.4-1.2
					c0.3-0.2,0.6-0.5,0.9-0.7c-1.2,0-2.5,0-3.7,0c-2-0.4-3.6-1-4.8-2.5c-3-6.8,2.8-10.4,7.6-14.3c1.1-0.8,2-1.4,2.3-1.8
					c1.4-1.4,2.5-3,3-4.8c1,0,2.7-1.1,3-1.2c0,0,0.1-0.1,0.2-0.1c0.6-0.7,1.1-1.4,1.5-2.2c-0.6,0.6-1.4,1.1-1.8,1.4
					c-0.6,0.4-1.2,0.8-1.8,1c-0.3,0.1-0.6,0.1-0.8,0c0.1-0.8,0-1.7-0.3-2.6c-0.1-0.6-0.2-1.2-0.3-1.7c0,2-0.5,3.9-1.4,5.6
					c-0.5,1.5-1.3,2.8-2.5,4.1c-3.7-4.4-2.7-11.4,0.8-15.6c-0.4,0.3-0.8,0.6-1.2,0.9c-3.4,4.4-4.5,11.5-0.4,15.6
					c-0.5,0.5-1.1,0.9-1.6,1.4c-0.6,0.5-1.3,1-1.9,1.5c-1.1,0.7-2.2,1.3-3.2,1.9c-0.4,0.2-1.6,1.1-2.6,2.1c0.4-2.8,0.2-5.6-0.4-8.4
					c-0.4-1.9-1.1-3.7-2.1-5.2c0.1-0.1,0.2-0.1,0.2-0.2c0.1-0.3,0.2-0.6,0.3-0.9c0,0,0,0,0-0.1c0.3-1.8,0.3-3.9-0.6-5.6
					c0.5,2,0,4.1-0.4,6.1c-1.4-2-3.4-3.6-5.8-4.4c-0.5,0-0.9,0-1.3,0c0.1,0.1,0.2,0.2,0.4,0.3c5.4,1.9,7.9,7.5,8.3,13.1
					c-1.9-0.2-4,0.5-6-0.1c-0.7-0.2-1.3-0.5-1.9-1c-1.4-0.5-2.6-1.4-3.3-2.5c0,0.3,0.1,0.6,0.1,0.8c1,1.3,2.2,2.5,3.7,3.4
					c2.4,1.3,4.9,0.6,7.4,0.5c0,1.7-0.1,3.4-0.4,5c-0.4,2.1-0.8,4.2-0.5,6.2c-2,0.7-4.1,1.1-6.2,0.9c-1.7,0.2-3.4,0-4.8-1.1
					c-1.8-1.5-3.1-3.4-4.2-5.5c0.4,1.4,0.7,2.8,1.6,4c0.7,0.9,1.3,1.6,2.1,2.2c0,0-0.1,0-0.1,0c-3.4,0.3-7.8,1.5-10.5-1.4
					C294,305.6,294.8,306.5,295.7,307.3z"/>
				<path class="st8" d="M342.5,368.2c-0.7-0.9-1.4-1.8-2.2-2.7c1.4,0.8,2.9,1.5,4.7,2.2c4.2,1.6,8.1,4.2,11.3,7.3
					c-0.2-0.5-0.4-0.9-0.5-1.1c-0.5-0.9-1.1-1.8-1.7-2.6c-1.7-1.6-3.6-2.8-5.8-3.9c-2-1-4.2-1.6-6.2-2.3
					c-7.6-2.6-12.4-10.3-14.9-17.6c-0.7-2.2-1.3-5.3-0.7-7.5c0.4-1.5,0.5-2.9-0.9-3.9c2-3.4,5.1-6.1,7.6-9.1
					c2.1-2.5,5.2-5.8,5.1-9.4c-0.1-3-2.1-4.3-4.8-5.1c-1-0.3-2.2-0.4-3.3-0.5c-0.8,0.6-1.6,1.3-2.4,2c1.2,0,2.3,0.1,3.5,0.2
					c8.9,1.3,1.7,10.6-1.5,14.4c-2.2,2.6-4.4,5.1-6.6,7.6c-0.9,0.4-1.5,1.2-1.8,2.1c-0.1,0.1-0.2,0.2-0.2,0.3
					c-3.1-0.1-6-0.4-8.5-2.8c-2.5-2.3-3.8-5.4-5.6-8.3c-0.4-0.8-0.8-1.6-1.3-2.3c-1.3-2-3.1-3.5-5.1-4.6c0-1-0.2-1.9-0.5-2.8
					c-0.7-0.6-1.4-1.2-2.1-1.8c0.3,0.5,0.6,1.1,0.9,1.7c0.3,0.7,0.4,1.6,0.6,2.4c-2.2-1-4.6-1.5-7-1.5c-0.3,0-0.6,0.1-0.8,0.2
					c-0.4,0.2-0.7,0.3-1,0.5c7,0,12.2,3.3,15.4,9.4c-2.6,0.2-5.1,0.3-7.4-0.6c0.5,0.6,1,1.2,1.7,1.6c2.1,0.7,4.4,0.8,6.2,0
					c0,0.1,0.1,0.1,0.1,0.2c2,4.2,2.8,6.7,6.3,9.2c-2.8,0.6-5.4,1.5-6.7,1.9c-2.9,1-5.5,1.5-8.6,1.5c-0.1,0-0.2,0-0.3,0
					c-0.2,0-0.5-0.1-0.7-0.1c-1.5-0.2-2.7-1-3.6-1.9c-0.4-0.3-0.7-0.7-1.1-1.1c-1.6-2-3-6.2-5.5-7c-0.2,0-0.4-0.1-0.6-0.1
					c2.6,2,3.6,6.9,5,9.1c0.4,0.5,0.8,1,1.3,1.4c-0.2,0.1-0.5,0.2-0.7,0.3c-0.6,0.2-1.1,0.3-1.7,0.5c-1,0.3-2.2,1.1-3.3,1.6
					c-2.9,0.6-6.1,0-7.9-2.2c0,0.5,0.1,1.1,0.2,1.6c1.1,1.3,2.6,2,4.5,2.3c2.7,0.3,4.8-1,7-2.2c1.1-0.3,2.3-0.6,3.5-0.8
					c0.1,0,0.1,0,0.2,0c1,0.4,2,0.6,3.1,0.7c7.8,0.9,16.4-6.9,23.9-3.2c0.9,5.7-6.9,9.9-11.3,11.5c-5.6,2-11.8,2.3-17.7,2.7
					c-3.2,0.2-6.4,0.5-9.6,1c-4.3,0.8-6.7,3.2-9,6.7c1.4-1.2,2.8-2.6,4.5-3.4c-0.2,3.1-0.3,6-2.1,8.7c1.8-1.8,3-3.5,3.3-6.1
					c0.3-3,1.1-4.2,4.2-4.5c5.8-0.6,11.4-0.3,17.1-1.3c-4.7,2.1-9.4,4.6-11.8,9.4c-1.2,2.4-2,4.7-3.7,6.9c-1.6,2-4.7,2.5-7.1,3.4
					c-3,1.1-5,2.4-6.5,5.2c3-3.2,7.1-4.1,11.1-5.5c-3.7,4.2-9,10.9-4.1,16.5c-0.9-3.8-0.8-7.6,1.4-10.9c2.1-3.1,4.9-6,7.4-8.9
					c0.4,3.6,1.6,7.6,4.9,9.7c-2.1-3.9-4.1-8-3-12.5c1-4.3,4.4-7.6,8.2-9.8c2.1-1.2,4.4-2,6.7-2.9c0,3.5,1.1,6.9,1,10.4
					c-0.1,2.8-0.7,4.6-2.4,6.8c3.3-0.5,3.5-7.5,3.8-9.9c1.6,1.5,3.3,3,4.7,4.7c1.6,2,1.6,3.6,1.8,6.1c3.1-6.6-4.7-8.8-6.6-13.9
					c-1.7-4.5,1.3-5.9,4.9-7.2c4-1.5,7.4-4.1,9.6-7.8c0.7-1.3,2.3-4,4.1-2.6c1.2,1,1.4,3.3,1.8,4.7c1.1,3.5,2.5,6.8,3.1,10.5
					c1.3,8.3-2.4,16.3-6.7,23.1c-1.2,1-2.4,1.3-4.2,1.3c-0.2,0-0.5,0-0.7,0c-9.4-1.3-19,8.3-25.1,14.5c-0.1,0.3-0.2,0.6-0.3,1
					c2.2-2,4.5-4.1,7-6c-0.5,1.6-0.4,3.6-0.6,5.2c0.4-0.6,0.8-1.2,1.1-1.8c0-0.2,0.1-0.5,0.1-0.7c0.1-0.8,0.2-1.5,0.4-2.2
					c0.2-0.6,0.5-1.2,0.6-1.8c5.8-4.3,12.3-7.4,19.7-6.5c-2.2,3.6-3.8,7.6-4.3,11.5c0,0,0,0,0,0c-3.3,4-8.4,5.8-11.6,9.8
					c-1.2,1.5-2.3,3.3-3.1,5.2c-0.1,0.4-0.1,0.8-0.1,1.2c0,0.2,0.1,0.6,0.1,1.2c1.9-4.2,4.3-7.5,8.3-10.4c2.3-1.7,4.7-3.1,6.2-5.4
					c-0.2,4.6,1.3,9.2,5,13.1c-0.5-1-1-2-1.5-3c-2.6-4.4-3-9.7-1.9-14.8c1.4-6,6.3-11.1,9.3-16.5c1.3,2.9,4,5.2,5.7,7.8
					c2.5,3.8,3.6,8.3,3.6,12.8c0.4-1.2,0.6-2.3,0.9-3.5c-0.1-2.5-0.6-5-1.6-7.6c-1.1-2.7-2.9-4.7-4.7-6.7c-0.6-0.9-1.1-1.9-1.5-2.9
					c-0.5-1.1-0.5-2.3-0.6-3.5c1.5-3.9,2.3-8.1,2.2-12.3c0.2-0.1,0.6-0.1,1,0.2c0.8,0.4,1.5,1,2.2,1.5c1.6,1.1,2.9,2.5,4.4,3.7
					c3.5,3.9,6,9.2,6.5,14.3c0.5-2.4,0-4.9-0.6-7.3C344.4,371.4,343.5,369.7,342.5,368.2z"/>
				<path class="st4" d="M295.7,307.3c0.5,0.2,0.9,0.3,1.4,0.4c1.1,0.2,2.1,0.2,3.1,0.1c1.3,0,3,0,4.2-0.6c0.9,0,1.8,0.1,2.8,0.2
					c2.8,1.1,6.2,1,9.1-0.3c0.2,0.4,0.4,0.9,0.7,1.3c0.7,1,2,2.1,3.3,2.3c1.6,0.7,3.5,0.7,5.6,0.7c0.5-0.4,0.9-0.8,1.4-1.2
					c0.3-0.2,0.6-0.5,0.9-0.7c-1.2,0-2.5,0-3.7,0c-2-0.4-3.6-1-4.8-2.5c-3-6.8,2.8-10.4,7.6-14.3c1.1-0.8,2-1.4,2.3-1.8
					c1.4-1.4,2.5-3,3-4.8c1,0,2.7-1.1,3-1.2c0,0,0.1-0.1,0.2-0.1c0.6-0.7,1.1-1.4,1.5-2.2c-0.6,0.6-1.4,1.1-1.8,1.4
					c-0.6,0.4-1.2,0.8-1.8,1c-0.3,0.1-0.6,0.1-0.8,0c0.1-0.8,0-1.7-0.3-2.6c-0.1-0.6-0.2-1.2-0.3-1.7c0,2-0.5,3.9-1.4,5.6
					c-0.5,1.5-1.3,2.8-2.5,4.1c-3.7-4.4-2.7-11.4,0.8-15.6c-0.4,0.3-0.8,0.6-1.2,0.9c-3.4,4.4-4.5,11.5-0.4,15.6
					c-0.5,0.5-1.1,0.9-1.6,1.4c-0.6,0.5-1.3,1-1.9,1.5c-1.1,0.7-2.2,1.3-3.2,1.9c-0.4,0.2-1.6,1.1-2.6,2.1c0.4-2.8,0.2-5.6-0.4-8.4
					c-0.4-1.9-1.1-3.7-2.1-5.2c0.1-0.1,0.2-0.1,0.2-0.2c0.1-0.3,0.2-0.6,0.3-0.9c0,0,0,0,0-0.1c0.3-1.8,0.3-3.9-0.6-5.6
					c0.5,2,0,4.1-0.4,6.1c-1.4-2-3.4-3.6-5.8-4.4c-0.5,0-0.9,0-1.3,0c0.1,0.1,0.2,0.2,0.4,0.3c5.4,1.9,7.9,7.5,8.3,13.1
					c-1.9-0.2-4,0.5-6-0.1c-0.7-0.2-1.3-0.5-1.9-1c-1.4-0.5-2.6-1.4-3.3-2.5c0,0.3,0.1,0.6,0.1,0.8c1,1.3,2.2,2.5,3.7,3.4
					c2.4,1.3,4.9,0.6,7.4,0.5c0,1.7-0.1,3.4-0.4,5c-0.4,2.1-0.8,4.2-0.5,6.2c-2,0.7-4.1,1.1-6.2,0.9c-1.7,0.2-3.4,0-4.8-1.1
					c-1.8-1.5-3.1-3.4-4.2-5.5c0.4,1.4,0.7,2.8,1.6,4c0.7,0.9,1.3,1.6,2.1,2.2c0,0-0.1,0-0.1,0c-3.4,0.3-7.8,1.5-10.5-1.4
					C294,305.6,294.8,306.5,295.7,307.3z"/>
				<path class="st4" d="M342.5,368.2c-0.7-0.9-1.4-1.8-2.2-2.7c1.4,0.8,2.9,1.5,4.7,2.2c4.2,1.6,8.1,4.2,11.3,7.3
					c-0.2-0.5-0.4-0.9-0.5-1.1c-0.5-0.9-1.1-1.8-1.7-2.6c-1.7-1.6-3.6-2.8-5.8-3.9c-2-1-4.2-1.6-6.2-2.3
					c-7.6-2.6-12.4-10.3-14.9-17.6c-0.7-2.2-1.3-5.3-0.7-7.5c0.4-1.5,0.5-2.9-0.9-3.9c2-3.4,5.1-6.1,7.6-9.1
					c2.1-2.5,5.2-5.8,5.1-9.4c-0.1-3-2.1-4.3-4.8-5.1c-1-0.3-2.2-0.4-3.3-0.5c-0.8,0.6-1.6,1.3-2.4,2c1.2,0,2.3,0.1,3.5,0.2
					c8.9,1.3,1.7,10.6-1.5,14.4c-2.2,2.6-4.4,5.1-6.6,7.6c-0.9,0.4-1.5,1.2-1.8,2.1c-0.1,0.1-0.2,0.2-0.2,0.3
					c-3.1-0.1-6-0.4-8.5-2.8c-2.5-2.3-3.8-5.4-5.6-8.3c-0.4-0.8-0.8-1.6-1.3-2.3c-1.3-2-3.1-3.5-5.1-4.6c0-1-0.2-1.9-0.5-2.8
					c-0.7-0.6-1.4-1.2-2.1-1.8c0.3,0.5,0.6,1.1,0.9,1.7c0.3,0.7,0.4,1.6,0.6,2.4c-2.2-1-4.6-1.5-7-1.5c-0.3,0-0.6,0.1-0.8,0.2
					c-0.4,0.2-0.7,0.3-1,0.5c7,0,12.2,3.3,15.4,9.4c-2.6,0.2-5.1,0.3-7.4-0.6c0.5,0.6,1,1.2,1.7,1.6c2.1,0.7,4.4,0.8,6.2,0
					c0,0.1,0.1,0.1,0.1,0.2c2,4.2,2.8,6.7,6.3,9.2c-2.8,0.6-5.4,1.5-6.7,1.9c-2.9,1-5.5,1.5-8.6,1.5c-0.1,0-0.2,0-0.3,0
					c-0.2,0-0.5-0.1-0.7-0.1c-1.5-0.2-2.7-1-3.6-1.9c-0.4-0.3-0.7-0.7-1.1-1.1c-1.6-2-3-6.2-5.5-7c-0.2,0-0.4-0.1-0.6-0.1
					c2.6,2,3.6,6.9,5,9.1c0.4,0.5,0.8,1,1.3,1.4c-0.2,0.1-0.5,0.2-0.7,0.3c-0.6,0.2-1.1,0.3-1.7,0.5c-1,0.3-2.2,1.1-3.3,1.6
					c-2.9,0.6-6.1,0-7.9-2.2c0,0.5,0.1,1.1,0.2,1.6c1.1,1.3,2.6,2,4.5,2.3c2.7,0.3,4.8-1,7-2.2c1.1-0.3,2.3-0.6,3.5-0.8
					c0.1,0,0.1,0,0.2,0c1,0.4,2,0.6,3.1,0.7c7.8,0.9,16.4-6.9,23.9-3.2c0.9,5.7-6.9,9.9-11.3,11.5c-5.6,2-11.8,2.3-17.7,2.7
					c-3.2,0.2-6.4,0.5-9.6,1c-4.3,0.8-6.7,3.2-9,6.7c1.4-1.2,2.8-2.6,4.5-3.4c-0.2,3.1-0.3,6-2.1,8.7c1.8-1.8,3-3.5,3.3-6.1
					c0.3-3,1.1-4.2,4.2-4.5c5.8-0.6,11.4-0.3,17.1-1.3c-4.7,2.1-9.4,4.6-11.8,9.4c-1.2,2.4-2,4.7-3.7,6.9c-1.6,2-4.7,2.5-7.1,3.4
					c-3,1.1-5,2.4-6.5,5.2c3-3.2,7.1-4.1,11.1-5.5c-3.7,4.2-9,10.9-4.1,16.5c-0.9-3.8-0.8-7.6,1.4-10.9c2.1-3.1,4.9-6,7.4-8.9
					c0.4,3.6,1.6,7.6,4.9,9.7c-2.1-3.9-4.1-8-3-12.5c1-4.3,4.4-7.6,8.2-9.8c2.1-1.2,4.4-2,6.7-2.9c0,3.5,1.1,6.9,1,10.4
					c-0.1,2.8-0.7,4.6-2.4,6.8c3.3-0.5,3.5-7.5,3.8-9.9c1.6,1.5,3.3,3,4.7,4.7c1.6,2,1.6,3.6,1.8,6.1c3.1-6.6-4.7-8.8-6.6-13.9
					c-1.7-4.5,1.3-5.9,4.9-7.2c4-1.5,7.4-4.1,9.6-7.8c0.7-1.3,2.3-4,4.1-2.6c1.2,1,1.4,3.3,1.8,4.7c1.1,3.5,2.5,6.8,3.1,10.5
					c1.3,8.3-2.4,16.3-6.7,23.1c-1.2,1-2.4,1.3-4.2,1.3c-0.2,0-0.5,0-0.7,0c-9.4-1.3-19,8.3-25.1,14.5c-0.1,0.3-0.2,0.6-0.3,1
					c2.2-2,4.5-4.1,7-6c-0.5,1.6-0.4,3.6-0.6,5.2c0.4-0.6,0.8-1.2,1.1-1.8c0-0.2,0.1-0.5,0.1-0.7c0.1-0.8,0.2-1.5,0.4-2.2
					c0.2-0.6,0.5-1.2,0.6-1.8c5.8-4.3,12.3-7.4,19.7-6.5c-2.2,3.6-3.8,7.6-4.3,11.5c0,0,0,0,0,0c-3.3,4-8.4,5.8-11.6,9.8
					c-1.2,1.5-2.3,3.3-3.1,5.2c-0.1,0.4-0.1,0.8-0.1,1.2c0,0.2,0.1,0.6,0.1,1.2c1.9-4.2,4.3-7.5,8.3-10.4c2.3-1.7,4.7-3.1,6.2-5.4
					c-0.2,4.6,1.3,9.2,5,13.1c-0.5-1-1-2-1.5-3c-2.6-4.4-3-9.7-1.9-14.8c1.4-6,6.3-11.1,9.3-16.5c1.3,2.9,4,5.2,5.7,7.8
					c2.5,3.8,3.6,8.3,3.6,12.8c0.4-1.2,0.6-2.3,0.9-3.5c-0.1-2.5-0.6-5-1.6-7.6c-1.1-2.7-2.9-4.7-4.7-6.7c-0.6-0.9-1.1-1.9-1.5-2.9
					c-0.5-1.1-0.5-2.3-0.6-3.5c1.5-3.9,2.3-8.1,2.2-12.3c0.2-0.1,0.6-0.1,1,0.2c0.8,0.4,1.5,1,2.2,1.5c1.6,1.1,2.9,2.5,4.4,3.7
					c3.5,3.9,6,9.2,6.5,14.3c0.5-2.4,0-4.9-0.6-7.3C344.4,371.4,343.5,369.7,342.5,368.2z"/>
			</g>
		</g>
		<g>
			<g>
				<path class="st7" d="M481.3,378c-1.5-2.9-3.5-4.1-6.5-5.2c-2.4-0.9-5.4-1.3-7.1-3.4c-1.7-2.1-2.5-4.5-3.7-6.9
					c-2.4-4.8-7.1-7.3-11.8-9.4c5.7,1.1,11.4,0.8,17.1,1.3c3.2,0.3,3.9,1.5,4.2,4.5c0.3,2.6,1.4,4.3,3.3,6.1c-1.8-2.7-2-5.6-2.1-8.7
					c1.7,0.8,3.1,2.3,4.5,3.4c-2.3-3.5-4.7-6-9-6.7c-3.2-0.6-6.4-0.8-9.6-1c-5.9-0.4-12.1-0.7-17.7-2.7c-4.3-1.6-12.1-5.8-11.3-11.5
					c7.4-3.7,16.1,4.1,23.9,3.2c1.1-0.1,2.1-0.3,3.1-0.7c0,0,0.1,0,0.1,0c1.2,0.2,2.3,0.5,3.5,0.8c2.2,1.2,4.2,2.6,7,2.2
					c1.9-0.2,3.5-1,4.5-2.3c0.1-0.5,0.2-1,0.2-1.6c-1.9,2.2-5.1,2.9-7.9,2.2c-1.2-0.5-2.4-1.2-3.3-1.6c-0.6-0.2-1.1-0.4-1.7-0.5
					c-0.2-0.1-0.4-0.2-0.7-0.3c0.5-0.4,0.9-0.8,1.2-1.4c1.4-2.2,2.4-7.1,5-9.1c-0.2,0-0.4,0.1-0.6,0.1c-2.6,0.7-4,5-5.5,7
					c-0.3,0.4-0.7,0.8-1.1,1.1c-1,1-2.1,1.7-3.6,1.9c-0.2,0-0.5,0-0.7,0.1c-0.1,0-0.2,0-0.3,0c-3,0-5.7-0.5-8.6-1.4
					c-1.2-0.4-3.9-1.3-6.7-1.9c3.5-2.6,4.3-5.1,6.3-9.2c0-0.1,0.1-0.1,0.1-0.2c1.9,0.8,4.1,0.7,6.2,0c0.6-0.4,1.2-1,1.7-1.6
					c-2.3,0.9-4.8,0.8-7.4,0.6c3.3-6.1,8.4-9.4,15.4-9.4c-0.3-0.2-0.7-0.4-1-0.5c-0.3-0.1-0.6-0.2-0.8-0.2c-2.4,0-4.8,0.5-7,1.5
					c0.2-0.8,0.3-1.7,0.6-2.4c0.2-0.6,0.6-1.2,0.9-1.7c-0.7,0.6-1.4,1.2-2.1,1.8c-0.3,0.9-0.5,1.8-0.5,2.8c-2,1.1-3.8,2.6-5.1,4.6
					c-0.5,0.8-1,1.5-1.4,2.3c-1.7,2.8-3.1,5.9-5.6,8.3c-2.6,2.4-5.4,2.8-8.5,2.8c-0.1-0.1-0.1-0.2-0.2-0.3c-0.3-0.9-0.9-1.6-1.8-2
					c-2.3-2.5-4.5-5.1-6.6-7.7c-3.2-3.8-10.4-13.1-1.4-14.4c2.6-0.4,5.2-0.2,7.4-0.3c-0.3-0.6-0.6-1.3-0.9-1.9c0,0,0,0,0,0
					c-0.1,0-0.1,0-0.2,0c-2.8,0.1-5.9-0.3-8.5,0.5c-2.7,0.8-4.7,2.1-4.8,5.1c-0.2,3.5,2.9,6.8,5.1,9.4c2.5,3,5.6,5.7,7.6,9.1
					c-1.4,1-1.3,2.4-0.9,3.9c0.6,2.2,0,5.4-0.7,7.5c-2.5,7.3-7.2,15-14.9,17.6c-2.1,0.7-4.3,1.3-6.2,2.3c-2.2,1.1-4.1,2.3-5.8,3.9
					c-0.6,0.8-1.2,1.7-1.7,2.6c-0.1,0.2-0.3,0.6-0.4,1.1c3.2-3.2,7.1-5.7,11.3-7.4c1.8-0.7,3.3-1.4,4.7-2.2
					c-0.8,0.8-1.5,1.7-2.2,2.7c-1,1.5-1.9,3.1-2.6,4.9c-0.6,2.4-1.1,4.9-0.6,7.3c0.4-5.2,2.9-10.4,6.5-14.3c1.6-1.1,2.9-2.6,4.4-3.7
					c0.7-0.5,1.4-1.1,2.2-1.5c0.4-0.2,0.8-0.3,1-0.2c-0.1,4.2,0.7,8.4,2.2,12.3c-0.2,1.2-0.2,2.4-0.6,3.5c-0.4,1-1,2-1.5,2.9
					c-1.8,2-3.6,4-4.7,6.7c-1,2.5-1.5,5-1.6,7.6c0.2,1.2,0.5,2.4,0.9,3.5c0-4.5,1.1-9,3.5-12.8c1.7-2.7,4.4-4.9,5.7-7.8
					c1.3,2.5,3.1,4.8,4.7,7.2c0.6,0.8,1.1,1.6,1.6,2.5c0.9,1.5,1.7,3,2.3,4.6c0,0,0,0.1,0,0.1c0.5,0.8,1.1,1.6,1.7,2.4
					c-0.7-3-2-5.9-3.7-8.6c7.4-0.9,13.9,2.2,19.7,6.5c0.1,0.6,0.5,1.2,0.7,1.8c0.2,0.7,0.3,1.5,0.4,2.2c0,0.2,0.1,0.5,0.1,0.7
					c0.4,0.6,0.8,1.2,1.1,1.8c-0.2-1.7-0.1-3.7-0.6-5.2c2.4,1.9,4.8,4,7,6c-0.1-0.3-0.2-0.7-0.3-1c-6.1-6.2-15.7-15.8-25.1-14.5
					c-0.3,0-0.5-0.1-0.7-0.1c-1.8,0-3-0.3-4.2-1.3c-4.4-6.8-8.1-14.8-6.7-23.1c0.6-3.6,2-7,3.1-10.5c0.4-1.3,0.6-3.7,1.8-4.7
					c1.8-1.5,3.3,1.3,4.1,2.6c2.1,3.7,5.6,6.3,9.6,7.8c3.6,1.3,6.6,2.8,4.9,7.2c-2,5.1-9.8,7.4-6.6,13.9c0.2-2.4,0.2-4.1,1.8-6.1
					c1.4-1.7,3.1-3.2,4.7-4.7c0.3,2.4,0.5,9.4,3.8,9.9c-1.6-2.2-2.3-4-2.4-6.8c-0.1-3.6,0.9-6.9,1-10.4c2.3,0.8,4.6,1.7,6.7,2.9
					c3.8,2.1,7.2,5.4,8.2,9.8c1.1,4.5-0.9,8.7-3,12.6c3.2-2.1,4.5-6.1,4.9-9.7c2.5,2.9,5.3,5.8,7.4,8.9c2.2,3.3,2.3,7.1,1.4,10.9
					c4.9-5.6-0.4-12.3-4.1-16.5C474.2,373.9,478.3,374.8,481.3,378z"/>
				<path class="st7" d="M415.8,280.5c0.2,0.2,2,1.2,3,1.2c0.5,1.8,1.6,3.4,3,4.8c0.3,0.4,1.2,1,2.3,1.8c4.8,3.9,10.6,7.5,7.6,14.3
					c-0.9,1.1-2.1,1.7-3.5,2.1c0.5,0.9,0.9,1.6,1.1,2.1c0.6-0.1,1.3-0.2,1.9-0.5c1.3-0.2,2.6-1.3,3.3-2.3c0.3-0.4,0.5-0.9,0.7-1.3
					c2.9,1.3,6.2,1.3,9.1,0.3c0.9-0.1,1.8-0.2,2.8-0.2c1.2,0.6,2.9,0.6,4.2,0.6c1,0.1,2,0,3.1-0.1c0.5-0.1,1-0.2,1.4-0.4
					c0.9-0.8,1.7-1.7,2.2-2.8c-2.6,2.8-7.1,1.7-10.5,1.4c0,0-0.1,0-0.1,0c0.8-0.6,1.5-1.3,2.1-2.2c0.9-1.2,1.1-2.6,1.6-4
					c-1.1,2-2.4,4-4.2,5.5c-1.4,1.1-3.1,1.2-4.8,1.1c-2.1,0.2-4.2-0.2-6.2-0.9c0.3-2-0.1-4.1-0.5-6.2c-0.3-1.6-0.4-3.3-0.4-5
					c2.5,0.1,5.1,0.9,7.4-0.5c1.5-0.9,2.7-2.1,3.7-3.4c0.1-0.3,0.1-0.6,0.1-0.8c-0.6,1.2-1.9,2-3.3,2.5c-0.6,0.4-1.2,0.7-1.9,1
					c-2,0.6-4.1-0.1-6,0.1c0.4-5.6,2.9-11.3,8.3-13.1c0.1-0.1,0.2-0.2,0.4-0.3c-0.4,0-0.9,0-1.3,0c-2.4,0.9-4.3,2.4-5.8,4.4
					c-0.4-2-0.9-4.1-0.4-6.1c-0.8,1.7-0.9,3.8-0.6,5.6c0,0,0,0,0,0.1c0.1,0.3,0.2,0.6,0.3,0.9c0,0.1,0.1,0.2,0.2,0.2
					c-1,1.6-1.7,3.3-2.1,5.2c-0.6,2.8-0.8,5.6-0.4,8.4c-1-1-2.2-1.8-2.5-2.1c-1-0.6-2.1-1.2-3.2-1.9c-0.7-0.5-1.3-1-1.9-1.5
					c-0.6-0.5-1.1-0.9-1.6-1.4c4.2-4.1,3-11.2-0.4-15.6c-0.4-0.3-0.8-0.6-1.2-0.9c3.5,4.2,4.5,11.3,0.8,15.6c-1.2-1.3-2-2.6-2.5-4.1
					c-1-1.7-1.4-3.7-1.4-5.6c-0.1,0.6-0.3,1.2-0.3,1.7c-0.3,0.9-0.4,1.7-0.3,2.6c-0.3,0-0.5,0.1-0.8,0c-0.7-0.3-1.2-0.6-1.8-1
					c-0.5-0.3-1.2-0.8-1.8-1.4c0.4,0.8,0.9,1.5,1.5,2.2C415.6,280.4,415.7,280.4,415.8,280.5z"/>
				<path class="st4" d="M480.6,378c-1.6-2.9-3.6-4.1-6.5-5.2c-2.4-0.9-5.4-1.3-7.1-3.4c-1.7-2.1-2.5-4.5-3.7-6.9
					c-2.4-4.8-7.1-7.3-11.8-9.4c5.7,1.1,11.4,0.8,17.1,1.3c3.2,0.3,3.9,1.5,4.2,4.5c0.3,2.6,1.4,4.3,3.3,6.1c-1.8-2.7-2-5.6-2.1-8.7
					c1.7,0.8,3.1,2.3,4.5,3.4c-2.3-3.5-4.7-6-9-6.7c-3.2-0.6-6.4-0.8-9.6-1c-5.9-0.4-12.1-0.7-17.7-2.7c-4.3-1.6-12.1-5.8-11.3-11.5
					c7.4-3.7,16.1,4.1,23.9,3.2c1.1-0.1,2.1-0.3,3.1-0.7c0,0,0.1,0,0.1,0c1.2,0.2,2.3,0.5,3.5,0.8c2.2,1.2,4.2,2.6,7,2.2
					c2-0.2,3.5-1,4.5-2.3c0.1-0.5,0.2-1,0.2-1.6c-1.9,2.2-5.1,2.9-7.9,2.2c-1.2-0.5-2.4-1.2-3.3-1.6c-0.6-0.2-1.1-0.4-1.7-0.5
					c-0.2-0.1-0.4-0.2-0.7-0.3c0.5-0.4,0.9-0.8,1.2-1.4c1.4-2.2,2.4-7.1,5-9.1c-0.2,0-0.4,0.1-0.6,0.1c-2.6,0.7-4,5-5.5,7
					c-0.3,0.4-0.7,0.8-1.1,1.1c-0.9,1-2.1,1.7-3.6,1.9c-0.2,0-0.5,0-0.7,0.1c-0.1,0-0.2,0-0.3,0c-3,0-5.7-0.5-8.6-1.4
					c-1.2-0.4-3.9-1.3-6.7-1.9c3.4-2.6,4.3-5.1,6.3-9.2c0-0.1,0.1-0.1,0.1-0.2c1.9,0.8,4.1,0.7,6.2,0c0.6-0.4,1.2-1,1.7-1.6
					c-2.3,0.9-4.8,0.8-7.4,0.6c3.3-6.1,8.4-9.4,15.4-9.4c-0.3-0.2-0.7-0.4-1-0.5c-0.3-0.1-0.5-0.2-0.8-0.2c-2.4,0-4.8,0.5-7,1.5
					c0.2-0.8,0.3-1.7,0.6-2.4c0.3-0.6,0.6-1.2,0.9-1.7c-0.7,0.6-1.4,1.2-2.1,1.8c-0.3,0.9-0.4,1.8-0.4,2.8c-2,1.1-3.8,2.6-5.1,4.6
					c-0.5,0.8-1,1.5-1.4,2.3c-1.7,2.8-3.1,5.9-5.6,8.3c-2.6,2.4-5.4,2.8-8.5,2.8c-0.1-0.1-0.2-0.2-0.2-0.3c-0.3-0.9-0.9-1.6-1.8-2
					c-2.3-2.5-4.5-5.1-6.6-7.7c-3.2-3.8-10.4-13.1-1.5-14.4c2.6-0.4,5.2-0.2,7.4-0.3c-0.3-0.6-0.6-1.3-0.9-1.9c0,0,0,0,0,0
					c-0.1,0-0.1,0-0.2,0c-2.8,0.1-5.9-0.3-8.5,0.5c-2.7,0.8-4.7,2.1-4.8,5.1c-0.2,3.5,2.9,6.8,5.1,9.4c2.5,3,5.6,5.7,7.6,9.1
					c-1.4,1-1.3,2.4-0.9,3.9c0.6,2.2,0,5.4-0.7,7.5c-2.5,7.3-7.2,15-14.9,17.6c-2.1,0.7-4.3,1.3-6.2,2.3c-2.2,1.1-4.1,2.3-5.8,3.9
					c-0.6,0.8-1.2,1.7-1.7,2.6c-0.1,0.2-0.3,0.6-0.5,1.1c3.2-3.2,7.1-5.7,11.3-7.4c1.8-0.7,3.3-1.4,4.7-2.2
					c-0.8,0.8-1.5,1.7-2.2,2.7c-1,1.5-1.9,3.1-2.6,4.9c-0.6,2.4-1.1,4.9-0.6,7.3c0.4-5.2,2.9-10.4,6.5-14.3c1.6-1.1,2.9-2.6,4.4-3.7
					c0.7-0.5,1.4-1.1,2.2-1.5c0.5-0.2,0.8-0.3,1-0.2c-0.1,4.2,0.7,8.4,2.2,12.3c-0.2,1.2-0.2,2.4-0.6,3.5c-0.4,1-1,2-1.5,2.9
					c-1.8,2-3.6,4-4.7,6.7c-1,2.5-1.5,5-1.6,7.6c0.2,1.2,0.5,2.4,0.9,3.5c0-4.5,1.1-9,3.6-12.8c1.7-2.7,4.4-4.9,5.7-7.8
					c1.3,2.5,3.1,4.8,4.7,7.2c0.6,0.8,1.1,1.6,1.6,2.5c0.9,1.5,1.7,3,2.3,4.6c0,0,0,0.1,0.1,0.1c0.5,0.8,1.1,1.6,1.7,2.4
					c-0.7-3-2-5.9-3.7-8.6c7.4-0.9,13.9,2.2,19.7,6.5c0.1,0.6,0.5,1.2,0.7,1.8c0.2,0.7,0.3,1.5,0.4,2.2c0,0.2,0.1,0.5,0.1,0.7
					c0.4,0.6,0.8,1.2,1.1,1.8c-0.2-1.7-0.1-3.7-0.6-5.2c2.4,1.9,4.8,4,7,6c-0.1-0.3-0.2-0.7-0.3-1c-6.1-6.2-15.7-15.8-25.1-14.5
					c-0.2,0-0.5-0.1-0.7-0.1c-1.8,0-3-0.3-4.2-1.3c-4.4-6.8-8.1-14.8-6.7-23.1c0.6-3.6,2-7,3.1-10.5c0.4-1.3,0.6-3.7,1.8-4.7
					c1.8-1.5,3.3,1.3,4.1,2.6c2.1,3.7,5.6,6.3,9.6,7.8c3.6,1.3,6.6,2.8,4.9,7.2c-2,5.1-9.8,7.4-6.6,13.9c0.2-2.4,0.2-4.1,1.8-6.1
					c1.4-1.7,3.1-3.2,4.7-4.7c0.3,2.4,0.5,9.4,3.8,9.9c-1.6-2.2-2.3-4-2.4-6.8c-0.1-3.6,1-6.9,1-10.4c2.3,0.8,4.6,1.7,6.7,2.9
					c3.8,2.1,7.2,5.4,8.2,9.8c1.1,4.5-0.9,8.7-3,12.6c3.2-2.1,4.5-6.1,4.9-9.7c2.5,2.9,5.3,5.8,7.4,8.9c2.2,3.3,2.3,7.1,1.4,10.9
					c4.9-5.6-0.4-12.3-4.1-16.5C473.5,373.9,477.6,374.8,480.6,378z"/>
				<path class="st4" d="M415.1,280.5c0.3,0.2,2,1.2,3,1.2c0.5,1.8,1.6,3.4,3,4.8c0.4,0.4,1.2,1,2.3,1.8c4.8,3.9,10.6,7.5,7.6,14.3
					c-0.9,1.1-2.1,1.7-3.5,2.1c0.5,0.9,0.9,1.6,1.1,2.1c0.7-0.1,1.3-0.2,1.9-0.5c1.3-0.2,2.6-1.3,3.3-2.3c0.3-0.4,0.5-0.9,0.7-1.3
					c2.9,1.3,6.2,1.3,9.1,0.3c0.9-0.1,1.8-0.2,2.7-0.2c1.2,0.6,2.9,0.6,4.2,0.6c1,0.1,2,0,3.1-0.1c0.5-0.1,1-0.2,1.4-0.4
					c0.9-0.8,1.7-1.7,2.2-2.8c-2.6,2.8-7.1,1.7-10.5,1.4c0,0-0.1,0-0.1,0c0.8-0.6,1.5-1.3,2.1-2.2c0.9-1.2,1.2-2.6,1.6-4
					c-1.1,2-2.4,4-4.2,5.5c-1.4,1.1-3.1,1.2-4.8,1.1c-2.1,0.2-4.2-0.2-6.2-0.9c0.3-2-0.1-4.1-0.5-6.2c-0.3-1.6-0.4-3.3-0.4-5
					c2.5,0.1,5.1,0.9,7.4-0.5c1.5-0.9,2.7-2.1,3.7-3.4c0.1-0.3,0.1-0.6,0.1-0.8c-0.6,1.2-1.9,2-3.3,2.5c-0.6,0.4-1.2,0.7-1.9,1
					c-2,0.6-4.1-0.1-6,0.1c0.4-5.6,2.8-11.3,8.3-13.1c0.1-0.1,0.3-0.2,0.4-0.3c-0.4,0-0.9,0-1.3,0c-2.4,0.9-4.3,2.4-5.8,4.4
					c-0.4-2-0.9-4.1-0.4-6.1c-0.9,1.7-0.9,3.8-0.6,5.6c0,0,0,0,0,0.1c0.1,0.3,0.2,0.6,0.4,0.9c0,0.1,0.1,0.2,0.2,0.2
					c-1,1.6-1.7,3.3-2.1,5.2c-0.6,2.8-0.8,5.6-0.4,8.4c-1-1-2.2-1.8-2.6-2.1c-1-0.6-2.1-1.2-3.2-1.9c-0.6-0.5-1.3-1-1.9-1.5
					c-0.6-0.5-1.1-0.9-1.6-1.4c4.2-4.1,3-11.2-0.4-15.6c-0.4-0.3-0.8-0.6-1.2-0.9c3.5,4.2,4.5,11.3,0.8,15.6c-1.2-1.3-2-2.6-2.5-4.1
					c-1-1.7-1.4-3.7-1.4-5.6c-0.1,0.6-0.3,1.2-0.3,1.7c-0.3,0.9-0.4,1.7-0.3,2.6c-0.3,0-0.5,0.1-0.8,0c-0.7-0.3-1.2-0.6-1.8-1
					c-0.5-0.3-1.2-0.8-1.8-1.4c0.4,0.8,0.9,1.5,1.5,2.2C415,280.4,415,280.4,415.1,280.5z"/>
			</g>
			<path class="st5" d="M497.2,395.9c-1.5-24.4-5-30.2-5-30.2c0-0.1,0-0.1,0-0.2c-1.5-14.6-3.5-14.8-4.3-15.8
				c-0.2-0.3-0.3-0.6-0.4-1.3c0,0,0-0.1,0-0.1c0-3.5-2.3-20.9-19.4-52.7c-17-31.7-40.3-42.6-40.3-42.6c-10.1-4.6-25.2-6.2-31,9.7
				c-5.8,15.9-2.3,46.5-5,55c-1.9,5.9-2.6,13.3-4,21.8c-0.6,3.8-1.3,7.7-2.2,11.9c0,0,0,0,0,0c-1.6,6.9-3.2,22-3.3,38.2
				c-0.1,7.9,0.2,16.1,1.1,23.6c0.9,7.6,2.3,14.7,4.5,20.2c8.9,22.4,30.2,20.9,56.9,24c8.8,1,16.3,0.4,22.8-1.1
				c-13.3,1.6-39.6-1.7-53.3-5.6c-15.4-4.3-21.7-8.6-25.6-21c-3.9-12.4-3.8-23.9-3.8-23.9c0.2-6.5,8.9-15.4,46.7-3.8
				c5,1.5,9.6,3.1,13.7,4.7c1.1,0.4,2.2,0.9,3.3,1.3c24.6,10.2,33.5,21.3,37.2,29.1c2.4,5,1.2,8.9-0.5,11.5c3-2.1,5.2-4.3,6.4-5.9
				C496,437,498.7,420.3,497.2,395.9z M426.8,397c-6.5-2.7-26.5-4.1-32-3.8c-5.5,0.3-9.6,1-9-11.8c0.7-12.8,2.6-19.6,2.6-19.6
				c1.3-7,4.2,14.6,25.7,21.2C432.5,388.7,433.2,399.6,426.8,397z M411.7,330.5c3.3-18.9-1-47.7-0.7-59.3c0.3-11.6,9.9-9.6,9.9-9.6
				c20.9,5.6,44.1,38.1,51.7,60.3c7.6,22.2-1.3,48.4-19.6,48.4C434.9,370.3,408.4,349.4,411.7,330.5z M488.9,414.4
				c-2.7,11.6-12.3,5.6-20.6,0.5c-14.1-8.6,2.4-14.2,12.3-26.7c5.7-7.2,8.3,0.7,8.3,0.7C490.2,394.1,491.6,402.8,488.9,414.4z"/>
			<path class="st5" d="M390.8,339.3c1.8,2.3,3.8,6.6,7,4.8c2.4-1.3,5-5,6.2-7.3c3.1-5.6,5.3-12.2,5.4-18.6
				c0.1-8.1-1.9-15.9-3.7-23.8c-3-13.6-6-35.7,6.6-44.4c-6.4,0.6-12.3,4.1-15.5,12.7c-5.8,15.9-2.3,46.5-5,55
				c-1.6,5-2.4,11-3.4,17.8C389.1,336.9,389.9,338.1,390.8,339.3z"/>
			<path class="st3" d="M393.8,437c0,0,4.8,8.6,20.8,12.4c15.9,3.9,39.4,7.1,49.2,5.3c0,0-20.3-0.4-39.4-4.8
				C405.3,445.5,397.9,441.5,393.8,437z"/>
		</g>
		<g>
			<g>
				<g>
					<path class="st9" d="M415.9,313c11.5,0.7,16.6-4.6,15.6-7.6c-1.1-3.2-4.6-0.2-12.8-0.6c-4.3-0.2-7.7-1-10-1.8
						c-2.7-3.4-5.6-6.7-8.8-9.9c-15.2-15.3-18.2-16.8-19-20.4v-3.5h0V139.7h-11.6v129.8v3.5c-0.7,3.6-3.7,5.1-19,20.4
						c-3.2,3.2-6.1,6.5-8.7,9.9c-2.3,0.8-5.7,1.6-10,1.8c-8.2,0.4-11.8-2.6-12.8,0.6c-1,3,4.1,8.3,15.6,7.6
						c-6.2,9.3-10.5,17.5-12.9,21c-4.1,6-0.7,8.2,1.8,7.5c2.5-0.7,9.3-9.5,16.1-18.7c6.8-9.2,16.9-20.8,24.5-25.6
						c7.6-4.8,15.8-4.5,22.6-0.1c7.6,4.8,17.7,16.4,24.5,25.6c6.8,9.2,13.6,17.9,16.1,18.7c2.5,0.7,5.9-1.5,1.8-7.5
						C426.4,330.5,422.1,322.3,415.9,313z"/>
					<path class="st4" d="M322.3,342.1c-1.2,0-2.3-0.6-2.8-1.6c-0.6-1.1-0.8-3.1,1.6-6.6c1-1.4,2.2-3.5,3.8-6.2
						c2.3-3.9,5.2-8.8,8.7-14.1c-0.4,0-0.9,0-1.3,0c-9,0-12.4-3.6-13.2-4.8c-0.8-1.1-1.1-2.3-0.7-3.3c0.4-1.2,1.2-1.7,2.5-1.7
						c0.7,0,1.6,0.1,2.7,0.3c2,0.3,4.6,0.8,7.9,0.6c4.2-0.2,7.6-1,9.8-1.7c2.9-3.6,5.8-6.9,8.7-9.9c4.9-4.9,8.5-8.4,11.2-11
						c5.6-5.4,7.2-6.9,7.7-9.2V139.7c0-0.2,0.2-0.4,0.4-0.4H381c0.2,0,0.4,0.2,0.4,0.4v129.5c0,0,0,0.1,0,0.1v3.4
						c0.5,2.3,2,3.8,7.7,9.2c2.7,2.6,6.3,6.1,11.2,11c2.9,2.9,5.9,6.2,8.7,9.8c2.1,0.7,5.5,1.6,9.8,1.7c3.4,0.2,6-0.3,7.9-0.6
						c1.1-0.2,2-0.3,2.7-0.3c1.3,0,2.1,0.5,2.5,1.7c0.3,1,0.1,2.2-0.7,3.3c-0.8,1.1-4.1,4.8-13.2,4.8c-0.4,0-0.9,0-1.3,0
						c3.6,5.3,6.4,10.2,8.7,14.1c1.6,2.7,2.8,4.8,3.8,6.2c2.4,3.5,2.2,5.5,1.6,6.6c-0.5,1-1.6,1.6-2.8,1.6l0,0c-0.4,0-0.7,0-1.1-0.1
						c-2.4-0.7-8.3-8-16.3-18.8c-6.8-9.1-16.8-20.6-24.4-25.5c-3.4-2.2-7.2-3.3-10.9-3.3c-3.9,0-7.6,1.2-11.2,3.4
						c-7.6,4.9-17.6,16.4-24.4,25.5c-8,10.8-13.8,18.1-16.3,18.8C323,342,322.7,342.1,322.3,342.1z M334.4,312.8
						c0.1,0,0.2,0.1,0.3,0.2c0.1,0.1,0.1,0.3,0,0.4c-3.7,5.5-6.7,10.6-9.1,14.7c-1.6,2.7-2.9,4.8-3.8,6.3c-2.3,3.3-2,5.1-1.6,5.9
						c0.4,0.7,1.2,1.2,2.1,1.2c0.3,0,0.6,0,0.8-0.1c2.4-0.7,9.1-9.3,15.9-18.5c6.8-9.2,16.9-20.8,24.6-25.7
						c3.7-2.4,7.6-3.6,11.6-3.6c3.9,0,7.8,1.2,11.3,3.4c7.7,4.9,17.7,16.5,24.6,25.7c6.9,9.2,13.5,17.8,15.9,18.5
						c0.3,0.1,0.6,0.1,0.9,0.1c0.9,0,1.7-0.4,2.1-1.2c0.4-0.8,0.7-2.5-1.6-5.9c-1-1.4-2.2-3.6-3.8-6.3c-2.4-4.1-5.4-9.2-9.1-14.7
						c-0.1-0.1-0.1-0.3,0-0.4c0.1-0.1,0.2-0.2,0.3-0.2c0.7,0,1.4,0.1,2,0.1c6.9,0,11-2.3,12.6-4.5c0.7-1,0.9-1.9,0.6-2.7
						c-0.3-0.9-0.8-1.2-1.8-1.2c-0.7,0-1.5,0.1-2.6,0.3c-2,0.3-4.6,0.8-8.1,0.6c-4.4-0.2-7.9-1.1-10.1-1.8c-0.1,0-0.1-0.1-0.2-0.1
						c-2.9-3.6-5.8-6.9-8.7-9.9c-4.9-4.9-8.5-8.4-11.2-11c-5.8-5.6-7.3-7.1-7.9-9.6c0,0,0-0.1,0-0.1v-3.4c0,0,0-0.1,0-0.1V140.1
						h-10.9v132.9c0,0,0,0.1,0,0.1c-0.5,2.5-2.1,4-7.9,9.6c-2.7,2.6-6.3,6.1-11.2,11c-2.9,2.9-5.9,6.3-8.7,9.9
						c0,0.1-0.1,0.1-0.2,0.1c-2.2,0.7-5.7,1.6-10,1.8c-3.5,0.2-6.1-0.3-8.1-0.6c-1.1-0.2-1.9-0.3-2.6-0.3c-1,0-1.5,0.3-1.8,1.2
						c-0.3,0.8,0,1.7,0.6,2.7c1.5,2.2,5.7,4.5,12.6,4.5C333.1,312.8,333.7,312.8,334.4,312.8C334.4,312.8,334.4,312.8,334.4,312.8z"
						/>
				</g>
				<g class="st10">
					<path class="st9" d="M357.8,294.4c-14.1,8.6-37.5,46.6-37.5,46.6s0,0,0,0c0.7,0.7,1.9,0.9,2.9,0.6c2.5-0.7,9.3-9.5,16.1-18.7
						c6.8-9.2,16.9-20.8,24.5-25.6c5.3-3.4,10.9-4.2,16.1-2.9C373.6,291.6,365.2,289.9,357.8,294.4z"/>
					<path class="st9" d="M416.1,308.3c0,0-2.2-1-1.6,0.4c0.4,0.9,1,2.8,2,4.4c11.1,0.5,16-4.7,15-7.6
						C431.5,305.5,424,309.3,416.1,308.3z"/>
					<path class="st9" d="M336.3,307.4c-6.5,2.5-14.2-0.5-17.4-2.1c0,0.1-0.1,0.2-0.1,0.3c-1,3,4.1,8.3,15.6,7.6
						c-0.1,0.2-0.3,0.4-0.4,0.6C337.7,309.7,336.3,307.4,336.3,307.4z"/>
					<path class="st9" d="M415.9,313C415.9,313,415.9,313,415.9,313c-1-1.5-2-3-3.1-4.4c-1.4-1.8-2.8-3.5-3.9-5.4
						c-0.1,0-0.1,0-0.2-0.1c-2.7-3.4-5.6-6.7-8.8-9.9c-15.2-15.3-18.2-16.8-19-20.4v-3.5h0V139.7h-5.5v132.6c0,0-0.7,6,3,8.7
						c3.7,2.7,21.9,16.9,34.3,34.5c9.1,12.9,14.6,21.7,16.9,25.5c1.3-0.9,1.8-3.2-0.8-7.1C426.4,330.5,422.1,322.3,415.9,313z"/>
				</g>
				<g>
					<g>
						<path class="st11" d="M388.6,129.5c-1.6-0.4-3.1,0.1-5.5,0.6c-1.7,0.3-3.9,0.7-6.9,0.7v0c-0.4,0-0.7,0-1.1,0
							c-0.3,0-0.7,0-1.1,0v0c-3,0-5.2-0.4-6.9-0.7c-2.4-0.5-3.9-1-5.5-0.6c-3.1,0.8-1,7.2-1,7.2c0.4,1.3,1.7,2.1,4.8,3.1
							c3.1,0.9-0.6,4.6,1.6,7.6c1.1,1.5,2.8,0.7,4.7-0.2c1.1-0.5,2.2-1,3.3-1c0,0,0,0,0,0c0,0,0,0,0,0c1.1,0.1,2.2,0.5,3.3,1
							c1.9,0.9,3.6,1.8,4.7,0.2c2.2-3-1.5-6.7,1.6-7.6c3.1-0.9,4.4-1.8,4.8-3.1C389.7,136.7,391.8,130.3,388.6,129.5z"/>
						<path class="st8" d="M381.7,148.6L381.7,148.6c-1,0-2-0.5-3.1-1l-0.2-0.1c-1-0.5-2.1-1-3.2-1c0,0,0,0,0,0
							c-1,0.1-2.1,0.5-3.1,1l-0.2,0.1c-1.1,0.5-2.2,1-3.1,1c-0.8,0-1.4-0.3-1.9-1c-1.1-1.6-0.8-3.3-0.6-4.7c0.3-1.6,0.4-2.4-0.9-2.8
							c-3.2-0.9-4.6-1.9-5.1-3.3c-0.1-0.2-1.4-4.3-0.2-6.4c0.3-0.6,0.9-1,1.5-1.2c0.4-0.1,0.9-0.2,1.3-0.2c0.9,0,1.9,0.2,3.1,0.5
							c0.4,0.1,0.8,0.2,1.2,0.3c1.4,0.3,3.6,0.7,6.7,0.7c0,0,0.1,0,0.1,0c0.3,0,0.7,0,1,0l0.1,0l0.1,0c0.3,0,0.6,0,1,0
							c0,0,0.1,0,0.1,0c3.1,0,5.3-0.4,6.7-0.7c0.4-0.1,0.9-0.2,1.2-0.3c1.2-0.3,2.1-0.5,3.1-0.5c0.5,0,0.9,0.1,1.3,0.2
							c0.7,0.2,1.2,0.6,1.5,1.2c1.2,2.1-0.1,6.3-0.2,6.4c-0.5,1.4-1.9,2.4-5.1,3.3c-1.2,0.4-1.2,1.2-0.9,2.8
							c0.3,1.4,0.6,3.1-0.6,4.7C383.1,148.2,382.4,148.6,381.7,148.6z M375.2,145.7C375.2,145.7,375.2,145.7,375.2,145.7
							c1.2,0.1,2.4,0.6,3.5,1.1l0.2,0.1c1,0.5,2,0.9,2.8,0.9l0,0c0.5,0,0.9-0.2,1.3-0.7c0.9-1.3,0.7-2.8,0.4-4.1
							c-0.3-1.5-0.6-3.1,1.4-3.6c2.9-0.9,4.2-1.6,4.6-2.8c0,0,1.3-4,0.3-5.9c-0.2-0.4-0.6-0.7-1.1-0.8c-1.2-0.3-2.4-0.1-4.1,0.3
							c-0.4,0.1-0.8,0.2-1.2,0.3c-1.4,0.3-3.7,0.7-7,0.7c0,0-0.1,0-0.1,0c-0.3,0-0.6,0-0.9,0h-0.1h-0.1c-0.3,0-0.6,0-0.9,0
							c0,0-0.1,0-0.1,0c-3.3,0-5.5-0.4-7-0.7c-0.4-0.1-0.9-0.2-1.2-0.3c-1.7-0.4-2.9-0.6-4.1-0.3c-0.5,0.1-0.8,0.4-1.1,0.8
							c-1,1.9,0.3,5.8,0.3,5.9c0.4,1.2,1.7,2,4.6,2.8c1.9,0.6,1.7,2.1,1.4,3.6c-0.2,1.3-0.5,2.8,0.4,4.1c0.3,0.5,0.7,0.7,1.3,0.7
							c0.8,0,1.8-0.5,2.8-0.9l0.2-0.1C372.8,146.3,374,145.8,375.2,145.7C375.1,145.7,375.2,145.7,375.2,145.7
							C375.2,145.7,375.2,145.7,375.2,145.7z"/>
					</g>
					<g>
						<g>
							<path class="st12" d="M404.4,75c-3.3-2.1-8.2-3.1-11.1-5.5c-4.8-4-6.7-10.4-7.3-16.3c-0.8-7.4-5.9-11-10.8-11.1v0
								c0,0,0,0,0,0c0,0,0,0,0,0v0c-4.9,0.1-10,3.7-10.8,11.1c-0.6,5.9-2.5,12.4-7.3,16.3c-2.9,2.4-7.8,3.4-11.1,5.5
								c-7,4.4-10.5,14.1-9,22c1.5,8.3,6.5,16,13.9,20.1c6.8,3.7,14.1,5.1,21.8,5.3c0.8,0,1.6,0,2.4,0l0,0c0,0,0,0,0,0c0,0,0,0,0,0
								l0,0c0.8,0,1.6,0,2.4,0c7.7-0.2,15-1.6,21.8-5.3c7.4-4.1,12.5-11.8,13.9-20.1C414.8,89.1,411.4,79.4,404.4,75z"/>
							<path class="st13" d="M375.6,122.7h-0.4l-0.1-0.4v0.4h-0.4c-0.7,0-1.4,0-2,0c-8.8-0.2-15.8-1.9-22-5.4
								c-7.3-4-12.5-11.6-14.1-20.4c-1.5-8.5,2.4-18.1,9.2-22.3c1.5-0.9,3.2-1.6,4.9-2.3c2.2-0.9,4.5-1.8,6.1-3.2
								c4-3.3,6.4-8.7,7.2-16.1c0.8-7.8,6.2-11.3,11.1-11.4c0,0,0.1,0,0.2,0v0c4.9,0.1,10.3,3.6,11.1,11.4
								c0.8,7.4,3.2,12.8,7.2,16.1c1.6,1.3,3.9,2.3,6.1,3.2c1.7,0.7,3.5,1.4,4.9,2.3c6.8,4.3,10.8,13.9,9.2,22.3
								c-1.6,8.8-6.9,16.4-14.1,20.4c-6.2,3.4-13.2,5.1-22,5.4C377,122.7,376.3,122.7,375.6,122.7z M375.1,122L375.1,122h0.5
								c0.7,0,1.3,0,2,0c8.6-0.2,15.5-1.9,21.7-5.3c7.1-3.9,12.2-11.3,13.8-19.8c1.5-8.2-2.3-17.5-8.9-21.6
								c-1.4-0.9-3.1-1.6-4.8-2.3c-2.3-0.9-4.6-1.9-6.3-3.3c-4.1-3.4-6.6-9-7.4-16.6c-0.8-7.4-5.8-10.7-10.4-10.8c0,0,0,0,0,0
								c0,0,0,0,0,0c-4.6,0.1-9.6,3.4-10.4,10.8c-0.8,7.6-3.3,13.2-7.4,16.6c-1.7,1.4-4,2.4-6.3,3.3c-1.7,0.7-3.4,1.4-4.8,2.3
								c-6.6,4.1-10.4,13.4-8.9,21.6c1.6,8.5,6.7,16,13.8,19.8c6.1,3.4,13,5.1,21.7,5.3c0.7,0,1.4,0,2,0H375.1z"/>
						</g>
						<path class="st14" d="M399,81.8c-2.7-1.5-13.4-2.3-15.8-4.1c-3.9-2.9,1.3-7.7,0.8-12c-0.7-5.5-4.8-8.1-8.8-8.2l0,0
							c0,0,0,0,0,0c0,0,0,0,0,0l0,0c-4,0-8.1,2.7-8.8,8.2c-0.5,4.4,4,9.5,0.1,12.4c-2.4,1.8-12.5,2.1-15.1,3.7
							c-5.8,3.3-8.5,10.4-7.4,16.2c1.2,6.1,5.3,11.8,11.4,14.8c5.5,2.8,11.5,3.8,17.8,3.9c0.7,0,1.3,0,2,0v0c0,0,0,0,0,0
							c0,0,0,0,0,0v0c0.7,0,1.3,0,2,0c6.3-0.2,12.3-1.2,17.8-3.9c6-3,10.2-8.7,11.4-14.8C407.5,92.2,404.8,85,399,81.8z"/>
						<g>
							<path class="st9" d="M389.4,116.1c-5.9-4.9-8.4-2.5-11.1,2c-1,1.6-1.9,2.4-2.8,2.6v0c-0.1,0-0.3,0.1-0.4,0.1
								c-0.1,0-0.3,0-0.4-0.1v0c-0.9-0.2-1.8-1-2.8-2.6c-2.7-4.6-5.2-6.9-11.1-2c-5.9,4.9-7.1,4.6-4.4,8.6c2.7,4.1,1.9,7.1,2.5,10.8
								c0.3,2.2,4.2,5.2,6.8,6.8c0.4,0.3,0.9,0.5,1.3,0.6c1.4,0.5,5.1,1.1,8.1,1c3.1,0.1,6.8-0.5,8.2-1c0.4-0.1,0.9-0.4,1.3-0.6
								c2.6-1.6,6.4-4.6,6.8-6.8c0.6-3.8-0.2-6.8,2.5-10.8C396.5,120.7,395.4,121,389.4,116.1z"/>
							<path class="st4" d="M375.6,144.4L375.6,144.4c-0.1,0-0.3,0-0.4,0c-0.1,0-0.3,0-0.4,0c-3.1,0-6.6-0.6-7.8-1
								c-0.4-0.1-0.9-0.4-1.4-0.6c-2.4-1.5-6.6-4.6-6.9-7c-0.2-1.1-0.2-2.1-0.3-3c-0.1-2.5-0.3-4.8-2.2-7.7c-2.4-3.7-1.8-4.2,2-7.1
								c0.7-0.6,1.6-1.2,2.5-2c2.3-1.9,4.2-2.8,5.8-2.8c2.4,0,4.1,2,5.8,4.9c0.8,1.4,1.6,2.2,2.4,2.4c0,0,0.1,0,0.1,0
								c0.1,0,0.2,0,0.3,0c0.1,0,0.2,0,0.3,0c0,0,0.1,0,0.1,0c0.8-0.2,1.6-1,2.4-2.4c1.7-3,3.4-4.9,5.8-4.9c1.6,0,3.5,0.9,5.8,2.8
								c1,0.8,1.8,1.4,2.5,2c3.7,2.9,4.4,3.4,1.9,7.1c-1.9,2.9-2,5.2-2.2,7.7c0,1-0.1,2-0.3,3c-0.4,2.5-4.5,5.6-6.9,7
								c-0.5,0.3-0.9,0.5-1.4,0.6C382.1,143.8,378.7,144.4,375.6,144.4z M375.2,143.6c0.1,0,0.3,0,0.4,0c3,0,6.4-0.6,7.6-1
								c0.4-0.1,0.8-0.3,1.2-0.6c2.5-1.5,6.3-4.5,6.6-6.5c0.2-1,0.2-2,0.3-2.9c0.1-2.6,0.3-5,2.3-8c2.1-3.1,1.9-3.2-1.8-6.1
								c-0.7-0.6-1.6-1.2-2.5-2c-2.2-1.8-3.9-2.6-5.4-2.6c-2.1,0-3.6,1.7-5.2,4.6c-1,1.7-1.9,2.6-3,2.8c0,0-0.1,0-0.1,0
								c-0.1,0-0.3,0-0.4,0c-0.1,0-0.3,0-0.4,0c0,0-0.1,0-0.1,0c-1-0.2-2-1.1-3-2.8c-1.7-2.8-3.1-4.6-5.2-4.6
								c-1.5,0-3.2,0.9-5.4,2.6c-1,0.8-1.8,1.5-2.5,2c-3.7,2.9-3.8,3-1.8,6.1c2,3,2.1,5.5,2.3,8c0,0.9,0.1,1.9,0.3,2.9
								c0.3,2,4.1,5,6.6,6.5c0.4,0.3,0.8,0.5,1.2,0.6C368.4,143.1,372.1,143.7,375.2,143.6z"/>
						</g>
						<path class="st9" d="M373.3,136.8c0,0,1-8.3-0.1-12.2c-1.1-3.9-4.2-9.2-7.5-8.2c-3.2,1-8.8,4.4-6.6,6.5c2.2,2.1,3.2,5.1,3,8.3
							C361.7,137.6,372.6,143.6,373.3,136.8z"/>
						<path class="st9" d="M372.6,136.7c0,0,0.6-5.4-0.1-8c-0.7-2.5-2.8-6-4.9-5.4c-2.1,0.7-5.8,2.8-4.3,4.2
							c1.5,1.4,2.1,3.3,1.9,5.4C365,137.2,372.1,141.1,372.6,136.7z"/>
						<path class="st9" d="M377.7,136.8c0,0-1-8.3,0.1-12.2c1.1-3.9,4.2-9.2,7.5-8.2c3.2,1,8.8,4.4,6.6,6.5c-2.2,2.1-3.2,5.1-3,8.3
							C389.2,137.6,378.4,143.6,377.7,136.8z"/>
						<path class="st9" d="M378.2,136.5c0,0-0.6-5.5,0.1-8.1c0.7-2.5,2.8-6.1,4.9-5.4c2.1,0.7,5.8,2.9,4.4,4.3
							c-1.5,1.4-2.1,3.4-2,5.5C385.8,137,378.7,141,378.2,136.5z"/>
					</g>
				</g>
				<g>
					<g>
						<g>
							<path class="st7" d="M385.4,153.8c0,2-1.6,3.5-3.5,3.5h-13.4c-1.9,0-3.5-1.6-3.5-3.5l0,0c0-2,1.6-3.5,3.5-3.5h13.4
								C383.8,150.3,385.4,151.9,385.4,153.8L385.4,153.8z"/>
							<path class="st15" d="M381.9,157.7h-13.4c-2.2,0-3.9-1.8-3.9-3.9c0-2.2,1.8-3.9,3.9-3.9h13.4c2.2,0,3.9,1.8,3.9,3.9
								C385.8,156,384,157.7,381.9,157.7z M368.5,150.7c-1.8,0-3.2,1.4-3.2,3.2c0,1.8,1.4,3.2,3.2,3.2h13.4c1.8,0,3.2-1.4,3.2-3.2
								c0-1.8-1.4-3.2-3.2-3.2H368.5z"/>
						</g>
						<path class="st7" d="M364.9,153.9c0,1.9,1.6,3.4,3.5,3.4h13.4c1.9,0,3.5-1.5,3.5-3.4H364.9z"/>
						<path class="st7" d="M366,152.9c0,0,0.6-1.6,2.3-1.7h13.5l-13.4,0.5C368.4,151.7,367.3,151.7,366,152.9z"/>
					</g>
					<g>
						<g>
							<path class="st7" d="M385.4,163.1c0,2-1.6,3.5-3.5,3.5h-13.4c-1.9,0-3.5-1.6-3.5-3.5l0,0c0-2,1.6-3.5,3.5-3.5h13.4
								C383.8,159.5,385.4,161.1,385.4,163.1L385.4,163.1z"/>
							<path class="st15" d="M381.9,167h-13.4c-2.2,0-3.9-1.8-3.9-3.9c0-2.2,1.8-3.9,3.9-3.9h13.4c2.2,0,3.9,1.8,3.9,3.9
								C385.8,165.2,384,167,381.9,167z M368.5,159.9c-1.8,0-3.2,1.4-3.2,3.2c0,1.8,1.4,3.2,3.2,3.2h13.4c1.8,0,3.2-1.4,3.2-3.2
								c0-1.8-1.4-3.2-3.2-3.2H368.5z"/>
						</g>
						<path class="st7" d="M364.9,163.2c0,1.9,1.6,3.4,3.5,3.4h13.4c1.9,0,3.5-1.5,3.5-3.4H364.9z"/>
						<path class="st7" d="M366,162.1c0,0,0.6-1.6,2.3-1.7h13.5l-13.4,0.5C368.4,160.9,367.3,160.9,366,162.1z"/>
					</g>
					<g>
						<g>
							<path class="st7" d="M385.4,172.3c0,2-1.6,3.5-3.5,3.5h-13.4c-1.9,0-3.5-1.6-3.5-3.5l0,0c0-2,1.6-3.5,3.5-3.5h13.4
								C383.8,168.8,385.4,170.3,385.4,172.3L385.4,172.3z"/>
							<path class="st15" d="M381.9,176.2h-13.4c-2.2,0-3.9-1.8-3.9-3.9c0-2.2,1.8-3.9,3.9-3.9h13.4c2.2,0,3.9,1.7,3.9,3.9
								C385.8,174.4,384,176.2,381.9,176.2z M368.5,169.1c-1.8,0-3.2,1.4-3.2,3.2c0,1.8,1.4,3.2,3.2,3.2h13.4c1.8,0,3.2-1.4,3.2-3.2
								c0-1.7-1.4-3.2-3.2-3.2H368.5z"/>
						</g>
						<path class="st7" d="M364.9,172.4c0,1.9,1.6,3.4,3.5,3.4h13.4c1.9,0,3.5-1.5,3.5-3.4H364.9z"/>
						<path class="st7" d="M366,171.4c0,0,0.6-1.6,2.3-1.7h13.5l-13.4,0.5C368.4,170.1,367.3,170.1,366,171.4z"/>
					</g>
					<g>
						<g>
							<path class="st7" d="M385.4,181.5c0,2-1.6,3.5-3.5,3.5h-13.4c-1.9,0-3.5-1.6-3.5-3.5l0,0c0-2,1.6-3.5,3.5-3.5h13.4
								C383.8,178,385.4,179.6,385.4,181.5L385.4,181.5z"/>
							<path class="st15" d="M381.9,185.4h-13.4c-2.2,0-3.9-1.8-3.9-3.9c0-2.2,1.8-3.9,3.9-3.9h13.4c2.2,0,3.9,1.8,3.9,3.9
								C385.8,183.7,384,185.4,381.9,185.4z M368.5,178.3c-1.8,0-3.2,1.4-3.2,3.2c0,1.8,1.4,3.2,3.2,3.2h13.4c1.8,0,3.2-1.4,3.2-3.2
								c0-1.8-1.4-3.2-3.2-3.2H368.5z"/>
						</g>
						<path class="st7" d="M364.9,181.6c0,1.9,1.6,3.4,3.5,3.4h13.4c1.9,0,3.5-1.5,3.5-3.4H364.9z"/>
						<path class="st7" d="M366,180.6c0,0,0.6-1.6,2.3-1.7h13.5l-13.4,0.5C368.4,179.3,367.3,179.3,366,180.6z"/>
					</g>
					<g>
						<g>
							<path class="st7" d="M385.4,190.7c0,2-1.6,3.5-3.5,3.5h-13.4c-1.9,0-3.5-1.6-3.5-3.5l0,0c0-2,1.6-3.5,3.5-3.5h13.4
								C383.8,187.2,385.4,188.8,385.4,190.7L385.4,190.7z"/>
							<path class="st15" d="M381.9,194.7h-13.4c-2.2,0-3.9-1.7-3.9-3.9c0-2.1,1.8-3.9,3.9-3.9h13.4c2.2,0,3.9,1.8,3.9,3.9
								C385.8,192.9,384,194.7,381.9,194.7z M368.5,187.6c-1.8,0-3.2,1.4-3.2,3.2c0,1.8,1.4,3.2,3.2,3.2h13.4c1.8,0,3.2-1.4,3.2-3.2
								c0-1.7-1.4-3.2-3.2-3.2H368.5z"/>
						</g>
						<path class="st7" d="M364.9,190.9c0,1.9,1.6,3.4,3.5,3.4h13.4c1.9,0,3.5-1.5,3.5-3.4H364.9z"/>
						<path class="st7" d="M366,189.8c0,0,0.6-1.6,2.3-1.7h13.5l-13.4,0.5C368.4,188.6,367.3,188.6,366,189.8z"/>
					</g>
					<g>
						<g>
							<path class="st7" d="M385.4,200c0,1.9-1.6,3.5-3.5,3.5h-13.4c-1.9,0-3.5-1.6-3.5-3.5l0,0c0-2,1.6-3.5,3.5-3.5h13.4
								C383.8,196.4,385.4,198,385.4,200L385.4,200z"/>
							<path class="st15" d="M381.9,203.9h-13.4c-2.2,0-3.9-1.8-3.9-3.9c0-2.2,1.8-3.9,3.9-3.9h13.4c2.2,0,3.9,1.8,3.9,3.9
								C385.8,202.1,384,203.9,381.9,203.9z M368.5,196.8c-1.8,0-3.2,1.4-3.2,3.2c0,1.8,1.4,3.2,3.2,3.2h13.4c1.8,0,3.2-1.4,3.2-3.2
								c0-1.8-1.4-3.2-3.2-3.2H368.5z"/>
						</g>
						<path class="st7" d="M364.9,200.1c0,1.9,1.6,3.4,3.5,3.4h13.4c1.9,0,3.5-1.5,3.5-3.4H364.9z"/>
						<path class="st7" d="M366,199.1c0,0,0.6-1.6,2.3-1.7h13.5l-13.4,0.5C368.4,197.8,367.3,197.8,366,199.1z"/>
					</g>
					<g>
						<g>
							<path class="st7" d="M385.4,209.2c0,2-1.6,3.5-3.5,3.5h-13.4c-1.9,0-3.5-1.6-3.5-3.5l0,0c0-2,1.6-3.5,3.5-3.5h13.4
								C383.8,205.7,385.4,207.3,385.4,209.2L385.4,209.2z"/>
							<path class="st15" d="M381.9,213.1h-13.4c-2.2,0-3.9-1.8-3.9-3.9c0-2.2,1.8-3.9,3.9-3.9h13.4c2.2,0,3.9,1.8,3.9,3.9
								C385.8,211.4,384,213.1,381.9,213.1z M368.5,206c-1.8,0-3.2,1.4-3.2,3.2c0,1.8,1.4,3.2,3.2,3.2h13.4c1.8,0,3.2-1.4,3.2-3.2
								c0-1.8-1.4-3.2-3.2-3.2H368.5z"/>
						</g>
						<path class="st7" d="M364.9,209.3c0,1.9,1.6,3.4,3.5,3.4h13.4c1.9,0,3.5-1.5,3.5-3.4H364.9z"/>
						<path class="st7" d="M366,208.3c0,0,0.6-1.6,2.3-1.7h13.5l-13.4,0.5C368.4,207,367.3,207,366,208.3z"/>
					</g>
					<g>
						<g>
							<path class="st7" d="M385.4,218.4c0,2-1.6,3.5-3.5,3.5h-13.4c-1.9,0-3.5-1.6-3.5-3.5l0,0c0-2,1.6-3.5,3.5-3.5h13.4
								C383.8,214.9,385.4,216.5,385.4,218.4L385.4,218.4z"/>
							<path class="st15" d="M381.9,222.3h-13.4c-2.2,0-3.9-1.7-3.9-3.9c0-2.2,1.8-3.9,3.9-3.9h13.4c2.2,0,3.9,1.8,3.9,3.9
								C385.8,220.6,384,222.3,381.9,222.3z M368.5,215.3c-1.8,0-3.2,1.4-3.2,3.2c0,1.8,1.4,3.2,3.2,3.2h13.4c1.8,0,3.2-1.4,3.2-3.2
								c0-1.7-1.4-3.2-3.2-3.2H368.5z"/>
						</g>
						<path class="st7" d="M364.9,218.5c0,1.9,1.6,3.4,3.5,3.4h13.4c1.9,0,3.5-1.5,3.5-3.4H364.9z"/>
						<path class="st7" d="M366,217.5c0,0,0.6-1.6,2.3-1.7h13.5l-13.4,0.5C368.4,216.3,367.3,216.3,366,217.5z"/>
					</g>
					<g>
						<g>
							<path class="st7" d="M385.4,227.7c0,2-1.6,3.5-3.5,3.5h-13.4c-1.9,0-3.5-1.6-3.5-3.5l0,0c0-2,1.6-3.5,3.5-3.5h13.4
								C383.8,224.1,385.4,225.7,385.4,227.7L385.4,227.7z"/>
							<path class="st15" d="M381.9,231.6h-13.4c-2.2,0-3.9-1.8-3.9-3.9c0-2.2,1.8-3.9,3.9-3.9h13.4c2.2,0,3.9,1.8,3.9,3.9
								C385.8,229.8,384,231.6,381.9,231.6z M368.5,224.5c-1.8,0-3.2,1.4-3.2,3.2c0,1.8,1.4,3.2,3.2,3.2h13.4c1.8,0,3.2-1.4,3.2-3.2
								c0-1.8-1.4-3.2-3.2-3.2H368.5z"/>
						</g>
						<path class="st7" d="M364.9,227.8c0,1.9,1.6,3.4,3.5,3.4h13.4c1.9,0,3.5-1.5,3.5-3.4H364.9z"/>
						<path class="st7" d="M366,226.7c0,0,0.6-1.6,2.3-1.7h13.5l-13.4,0.5C368.4,225.5,367.3,225.5,366,226.7z"/>
					</g>
					<g>
						<g>
							<path class="st7" d="M385.4,236.9c0,2-1.6,3.5-3.5,3.5h-13.4c-1.9,0-3.5-1.6-3.5-3.5l0,0c0-2,1.6-3.5,3.5-3.5h13.4
								C383.8,233.4,385.4,234.9,385.4,236.9L385.4,236.9z"/>
							<path class="st15" d="M381.9,240.8h-13.4c-2.2,0-3.9-1.8-3.9-3.9c0-2.2,1.8-3.9,3.9-3.9h13.4c2.2,0,3.9,1.8,3.9,3.9
								C385.8,239.1,384,240.8,381.9,240.8z M368.5,233.7c-1.8,0-3.2,1.4-3.2,3.2c0,1.8,1.4,3.2,3.2,3.2h13.4c1.8,0,3.2-1.4,3.2-3.2
								c0-1.8-1.4-3.2-3.2-3.2H368.5z"/>
						</g>
						<path class="st7" d="M364.9,237c0,1.9,1.6,3.4,3.5,3.4h13.4c1.9,0,3.5-1.5,3.5-3.4H364.9z"/>
						<path class="st7" d="M366,236c0,0,0.6-1.6,2.3-1.7h13.5l-13.4,0.5C368.4,234.7,367.3,234.7,366,236z"/>
					</g>
					<g>
						<g>
							<path class="st7" d="M385.4,246.1c0,2-1.6,3.5-3.5,3.5h-13.4c-1.9,0-3.5-1.6-3.5-3.5l0,0c0-2,1.6-3.5,3.5-3.5h13.4
								C383.8,242.6,385.4,244.2,385.4,246.1L385.4,246.1z"/>
							<path class="st15" d="M381.9,250h-13.4c-2.2,0-3.9-1.8-3.9-3.9c0-2.2,1.8-3.9,3.9-3.9h13.4c2.2,0,3.9,1.8,3.9,3.9
								C385.8,248.3,384,250,381.9,250z M368.5,242.9c-1.8,0-3.2,1.4-3.2,3.2c0,1.8,1.4,3.2,3.2,3.2h13.4c1.8,0,3.2-1.4,3.2-3.2
								c0-1.8-1.4-3.2-3.2-3.2H368.5z"/>
						</g>
						<path class="st7" d="M364.9,246.2c0,1.9,1.6,3.4,3.5,3.4h13.4c1.9,0,3.5-1.5,3.5-3.4H364.9z"/>
						<path class="st7" d="M366,245.2c0,0,0.6-1.6,2.3-1.7h13.5l-13.4,0.5C368.4,244,367.3,244,366,245.2z"/>
					</g>
					<g>
						<g>
							<path class="st7" d="M385.4,255.4c0,2-1.6,3.5-3.5,3.5h-13.4c-1.9,0-3.5-1.6-3.5-3.5l0,0c0-2,1.6-3.5,3.5-3.5h13.4
								C383.8,251.8,385.4,253.4,385.4,255.4L385.4,255.4z"/>
							<path class="st15" d="M381.9,259.3h-13.4c-2.2,0-3.9-1.8-3.9-3.9c0-2.2,1.8-3.9,3.9-3.9h13.4c2.2,0,3.9,1.8,3.9,3.9
								C385.8,257.5,384,259.3,381.9,259.3z M368.5,252.2c-1.8,0-3.2,1.4-3.2,3.2c0,1.7,1.4,3.2,3.2,3.2h13.4c1.8,0,3.2-1.4,3.2-3.2
								c0-1.8-1.4-3.2-3.2-3.2H368.5z"/>
						</g>
						<path class="st7" d="M364.9,255.5c0,1.9,1.6,3.5,3.5,3.5h13.4c1.9,0,3.5-1.5,3.5-3.5H364.9z"/>
						<path class="st7" d="M366,254.4c0,0,0.6-1.6,2.3-1.7h13.5l-13.4,0.5C368.4,253.2,367.3,253.2,366,254.4z"/>
					</g>
					<g>
						<g>
							<path class="st7" d="M385.4,264.6c0,2-1.6,3.5-3.5,3.5h-13.4c-1.9,0-3.5-1.6-3.5-3.5l0,0c0-2,1.6-3.5,3.5-3.5h13.4
								C383.8,261,385.4,262.6,385.4,264.6L385.4,264.6z"/>
							<path class="st15" d="M381.9,268.5h-13.4c-2.2,0-3.9-1.8-3.9-3.9c0-2.2,1.8-3.9,3.9-3.9h13.4c2.2,0,3.9,1.8,3.9,3.9
								C385.8,266.7,384,268.5,381.9,268.5z M368.5,261.4c-1.8,0-3.2,1.4-3.2,3.2c0,1.8,1.4,3.2,3.2,3.2h13.4c1.8,0,3.2-1.4,3.2-3.2
								c0-1.8-1.4-3.2-3.2-3.2H368.5z"/>
						</g>
						<path class="st7" d="M364.9,264.7c0,1.9,1.6,3.4,3.5,3.4h13.4c1.9,0,3.5-1.5,3.5-3.4H364.9z"/>
						<path class="st7" d="M366,263.7c0,0,0.6-1.6,2.3-1.7h13.5l-13.4,0.5C368.4,262.4,367.3,262.4,366,263.7z"/>
					</g>
					<g>
						<g>
							<path class="st7" d="M385.4,273.8c0,2-1.6,3.5-3.5,3.5h-13.4c-1.9,0-3.5-1.6-3.5-3.5l0,0c0-2,1.6-3.5,3.5-3.5h13.4
								C383.8,270.3,385.4,271.9,385.4,273.8L385.4,273.8z"/>
							<path class="st15" d="M381.9,277.7h-13.4c-2.2,0-3.9-1.8-3.9-3.9c0-2.2,1.8-3.9,3.9-3.9h13.4c2.2,0,3.9,1.8,3.9,3.9
								C385.8,276,384,277.7,381.9,277.7z M368.5,270.6c-1.8,0-3.2,1.4-3.2,3.2c0,1.8,1.4,3.2,3.2,3.2h13.4c1.8,0,3.2-1.4,3.2-3.2
								c0-1.8-1.4-3.2-3.2-3.2H368.5z"/>
						</g>
						<path class="st7" d="M364.9,273.9c0,1.9,1.6,3.4,3.5,3.4h13.4c1.9,0,3.5-1.5,3.5-3.4H364.9z"/>
						<path class="st7" d="M366,272.9c0,0,0.6-1.6,2.3-1.7h13.5l-13.4,0.5C368.4,271.6,367.3,271.6,366,272.9z"/>
					</g>
				</g>
				<path class="st16" d="M381.9,150.3H376v7.1h5.8c0.2,0,0.5,0,0.7-0.1c0.1,0,0.2-0.1,0.3-0.1c0.1,0,0.2-0.1,0.3-0.1
					c0.2-0.1,0.3-0.1,0.4-0.2c0.1,0,0.1-0.1,0.2-0.1c0.2-0.1,0.3-0.2,0.5-0.4c0,0,0,0,0,0c0.6-0.6,1-1.5,1.1-2.4l0,0
					c0,0,0-0.1,0-0.1C385.4,151.9,383.8,150.3,381.9,150.3z"/>
				<path class="st16" d="M381.9,159.5H376v7.1h5.8c0.2,0,0.5,0,0.7-0.1c0.1,0,0.2-0.1,0.3-0.1c0.1,0,0.2-0.1,0.3-0.1
					c0.1-0.1,0.3-0.1,0.4-0.2c0.1,0,0.1-0.1,0.2-0.1c0.2-0.1,0.3-0.2,0.5-0.4c0,0,0,0,0,0c0.6-0.6,1-1.5,1.1-2.4v0c0,0,0-0.1,0-0.1
					C385.4,161.1,383.8,159.5,381.9,159.5z"/>
				<path class="st16" d="M381.9,168.8H376v7.1h5.8c0.2,0,0.5,0,0.7-0.1c0.1,0,0.2-0.1,0.3-0.1c0.1,0,0.2-0.1,0.3-0.1
					c0.2-0.1,0.3-0.1,0.4-0.2c0.1,0,0.1-0.1,0.2-0.1c0.2-0.1,0.3-0.2,0.5-0.4c0,0,0,0,0,0c0.6-0.6,1-1.5,1.1-2.4l0,0
					c0,0,0-0.1,0-0.1C385.4,170.3,383.8,168.8,381.9,168.8z"/>
				<path class="st16" d="M381.9,178H376v7.1h5.8c0.2,0,0.5,0,0.7-0.1c0.1,0,0.2-0.1,0.3-0.1c0.1,0,0.2-0.1,0.3-0.1
					c0.2-0.1,0.3-0.1,0.4-0.2c0.1,0,0.1-0.1,0.2-0.1c0.2-0.1,0.3-0.2,0.5-0.4c0,0,0,0,0,0c0.6-0.6,1-1.5,1.1-2.4c0,0,0,0,0,0
					c0,0,0-0.1,0-0.1C385.4,179.6,383.8,178,381.9,178z"/>
				<path class="st16" d="M381.9,187.2H376v7.1h5.8c0.2,0,0.5,0,0.7-0.1c0.1,0,0.2-0.1,0.3-0.1c0.1,0,0.2-0.1,0.3-0.1
					c0.2-0.1,0.3-0.1,0.4-0.2c0.1,0,0.1-0.1,0.2-0.1c0.2-0.1,0.3-0.2,0.5-0.4c0,0,0,0,0,0c0.6-0.6,1-1.5,1.1-2.4v0c0,0,0-0.1,0-0.1
					C385.4,188.8,383.8,187.2,381.9,187.2z"/>
				<path class="st16" d="M381.9,196.4H376v7.1h5.8c0.2,0,0.5,0,0.7-0.1c0.1,0,0.2-0.1,0.3-0.1c0.1,0,0.2-0.1,0.3-0.1
					c0.1-0.1,0.3-0.1,0.4-0.2c0.1,0,0.1-0.1,0.2-0.1c0.2-0.1,0.3-0.2,0.5-0.4c0,0,0,0,0-0.1c0.6-0.6,1-1.5,1.1-2.4l0,0
					c0,0,0-0.1,0-0.1C385.4,198,383.8,196.4,381.9,196.4z"/>
				<path class="st16" d="M381.9,205.7H376v7.1h5.8c0.2,0,0.5,0,0.7-0.1c0.1,0,0.2-0.1,0.3-0.1c0.1,0,0.2-0.1,0.3-0.1
					c0.2-0.1,0.3-0.1,0.4-0.2c0.1,0,0.1-0.1,0.2-0.1c0.2-0.1,0.3-0.2,0.5-0.4c0,0,0,0,0,0c0.6-0.6,1-1.5,1.1-2.4l0,0
					c0,0,0-0.1,0-0.1C385.4,207.3,383.8,205.7,381.9,205.7z"/>
				<path class="st16" d="M381.9,214.9H376v7.1h5.8c0.2,0,0.5,0,0.7-0.1c0.1,0,0.2-0.1,0.3-0.1c0.1,0,0.2-0.1,0.3-0.1
					c0.2-0.1,0.3-0.1,0.4-0.2c0.1,0,0.1-0.1,0.2-0.1c0.2-0.1,0.3-0.2,0.5-0.4c0,0,0,0,0,0c0.6-0.6,1-1.5,1.1-2.4v0c0,0,0-0.1,0-0.1
					C385.4,216.5,383.8,214.9,381.9,214.9z"/>
				<path class="st16" d="M381.9,224.1H376v7.1h5.8c0.2,0,0.5,0,0.7-0.1c0.1,0,0.2-0.1,0.3-0.1c0.1,0,0.2-0.1,0.3-0.1
					c0.2-0.1,0.3-0.1,0.4-0.2c0.1,0,0.1-0.1,0.2-0.1c0.2-0.1,0.3-0.2,0.5-0.4c0,0,0,0,0,0c0.6-0.6,1-1.5,1.1-2.4v0c0,0,0-0.1,0-0.1
					C385.4,225.7,383.8,224.1,381.9,224.1z"/>
				<path class="st16" d="M381.9,233.4H376v7.1h5.8c0.2,0,0.5,0,0.7-0.1c0.1,0,0.2-0.1,0.3-0.1c0.1,0,0.2-0.1,0.3-0.1
					c0.1-0.1,0.3-0.1,0.4-0.2c0.1,0,0.1-0.1,0.2-0.1c0.2-0.1,0.3-0.2,0.5-0.4c0,0,0,0,0,0c0.6-0.6,1-1.5,1.1-2.4v0c0,0,0-0.1,0-0.1
					C385.4,234.9,383.8,233.4,381.9,233.4z"/>
				<path class="st16" d="M381.9,242.6H376v7.1h5.8c0.2,0,0.5,0,0.7-0.1c0.1,0,0.2-0.1,0.3-0.1c0.1,0,0.2-0.1,0.3-0.1
					c0.2-0.1,0.3-0.1,0.4-0.2c0.1,0,0.1-0.1,0.2-0.1c0.2-0.1,0.3-0.3,0.5-0.4c0,0,0,0,0,0c0.6-0.6,1-1.5,1.1-2.4l0,0
					c0,0,0-0.1,0-0.1C385.4,244.2,383.8,242.6,381.9,242.6z"/>
				<path class="st16" d="M381.9,251.8H376v7.1h5.8c0.2,0,0.5,0,0.7-0.1c0.1,0,0.2-0.1,0.3-0.1c0.1,0,0.2-0.1,0.3-0.1
					c0.2-0.1,0.3-0.2,0.4-0.2c0.1,0,0.1-0.1,0.2-0.1c0.2-0.1,0.3-0.2,0.5-0.4c0,0,0,0,0,0c0.6-0.6,1-1.5,1.1-2.4c0,0,0,0,0,0
					c0,0,0-0.1,0-0.1C385.4,253.4,383.8,251.8,381.9,251.8z"/>
				<path class="st16" d="M381.9,261H376v7.1h5.8c0.2,0,0.5,0,0.7-0.1c0.1,0,0.2-0.1,0.3-0.1c0.1,0,0.2-0.1,0.3-0.1
					c0.2-0.1,0.3-0.2,0.4-0.2c0.1,0,0.1-0.1,0.2-0.1c0.2-0.1,0.3-0.2,0.5-0.4c0,0,0,0,0,0c0.6-0.6,1-1.5,1.1-2.4l0,0
					c0,0,0-0.1,0-0.1C385.4,262.6,383.8,261,381.9,261z"/>
				<path class="st16" d="M381.9,270.3H376v7.1h5.8c0.2,0,0.5,0,0.7-0.1c0.1,0,0.2-0.1,0.3-0.1c0.1,0,0.2-0.1,0.3-0.1
					c0.2-0.1,0.3-0.1,0.4-0.2c0.1,0,0.1-0.1,0.2-0.1c0.2-0.1,0.3-0.2,0.5-0.4c0,0,0,0,0,0c0.6-0.6,1-1.5,1.1-2.4l0,0
					c0,0,0-0.1,0-0.1C385.4,271.9,383.8,270.3,381.9,270.3z"/>
				<g>
					<g>
						<path class="st7" d="M334.7,304.5c0.4,1-1.1,0.8-2.7,9.3c-0.2,1-3.9-0.2-3.9-1.2c0-3.5,1-7.8,2.9-8.9
							C331.6,303.2,334.1,303.3,334.7,304.5L334.7,304.5z"/>
						<path class="st15" d="M331.2,314.5c-1.2,0-3.5-0.9-3.5-2c0-3.7,1.1-8.1,3.1-9.3c0.8-0.5,3.6-0.4,4.2,1c0.2,0.5,0,0.9-0.2,1.4
							c-0.5,0.9-1.4,2.8-2.4,8.1C332.3,314.1,332.1,314.5,331.2,314.5z M332.1,303.7c-0.5,0-0.8,0.1-1,0.2c-1.8,1-2.8,5.2-2.8,8.6
							c0,0.4,1.6,1.3,2.8,1.3c0.3,0,0.4-0.1,0.4-0.1c1-5.4,2-7.3,2.5-8.3c0.3-0.6,0.3-0.6,0.2-0.8C334.1,304,333,303.7,332.1,303.7z
							"/>
					</g>
					<g>
						<path class="st7" d="M326.8,304c0.4,0.9-1,0.7-2.3,8c-0.2,0.9-3.4-0.2-3.4-1.1c0-3,0.9-6.7,2.5-7.7
							C324.2,302.9,326.4,302.9,326.8,304L326.8,304z"/>
						<path class="st15" d="M323.8,312.7c-1,0-3.1-0.8-3.1-1.8c0-3.2,0.9-7,2.7-8c0.7-0.4,3.1-0.4,3.7,0.9c0.2,0.5,0.1,0.8-0.2,1.3
							c-0.4,0.8-1.2,2.4-2.1,6.9C324.8,312.2,324.6,312.7,323.8,312.7z M324.7,303.4c-0.4,0-0.7,0.1-0.8,0.1
							c-1.5,0.8-2.3,4.4-2.3,7.4c0,0.3,1.4,1,2.4,1c0.3,0,0.3-0.1,0.3-0.1c0.9-4.7,1.7-6.3,2.1-7.1c0.3-0.5,0.3-0.5,0.2-0.6
							C326.3,303.6,325.4,303.4,324.7,303.4z"/>
					</g>
					<g>
						<path class="st7" d="M372,294c-0.7-1.2-1.4-2.4-2-3.7c-0.6-1.3-1.6-2.9-2.2-4.3c-1-2.5-2.1-5.1-2.9-7.2
							c-0.1-0.3-0.4-0.7-0.7-0.9c-2-1.2-4.7,1.1-5,2.3c-0.3,1.2,0.2,2.5,0.5,3.7c0.5,1.6,1.1,3.2,1.8,4.7c1.2,2.7,2.9,5,4.7,7.4
							C367.4,297.6,372.9,295.7,372,294z"/>
						<path class="st15" d="M367.9,297L367.9,297c-0.9,0-1.5-0.2-1.9-0.7c-1.8-2.3-3.6-4.7-4.8-7.4c-0.6-1.5-1.3-3.1-1.8-4.7
							l-0.1-0.2c-0.3-1.1-0.7-2.4-0.5-3.6c0.3-1.1,2.3-2.9,4.1-2.9c0.5,0,1,0.1,1.4,0.4c0.4,0.2,0.7,0.6,0.8,1.1
							c0.5,1.5,1.2,3.2,2,5c0.3,0.7,0.6,1.5,0.9,2.2c0.3,0.8,0.8,1.7,1.3,2.5c0.3,0.6,0.6,1.2,0.9,1.7c0.5,1.1,1.2,2.2,1.8,3.2
							l0.3,0.5c0.2,0.4,0.2,0.8,0,1.2C371.6,296.2,369.4,297,367.9,297z M363,278c-1.6,0-3.2,1.6-3.4,2.4c-0.2,1,0.1,2.2,0.4,3.2
							l0.1,0.2c0.5,1.6,1.2,3.2,1.8,4.7c1.2,2.7,2.9,5,4.7,7.3c0.2,0.3,0.7,0.4,1.3,0.4l0,0c1.5,0,3.3-0.8,3.8-1.5
							c0.1-0.2,0.1-0.4,0-0.5l-0.3-0.5c-0.6-1-1.2-2.1-1.8-3.2c-0.3-0.5-0.6-1.1-0.9-1.7c-0.5-0.9-1-1.8-1.3-2.6
							c-0.3-0.7-0.6-1.4-0.9-2.2c-0.7-1.8-1.4-3.5-2-5c-0.1-0.3-0.3-0.5-0.5-0.7C363.7,278.1,363.3,278,363,278z"/>
					</g>
					<path class="st7" d="M369.9,290.3c-0.6-1.2-1.4-2.6-2-3.9c-2.1,0.9-4.1,1.9-6,3.2c1.1,2.3,2.7,4.4,4.3,6.5
						c1.2,1.5,6.7-0.4,5.7-2C371.2,292.8,370.5,291.6,369.9,290.3z"/>
					<g>
						<path class="st7" d="M356,285.2c1.6,0.7,0,2.1,8.6,13.3c1.1,1.4-3.9,3.8-5.2,2.6c-4.1-3.9-8.4-9.9-7.9-13.1
							C351.6,286.8,354,284.4,356,285.2L356,285.2z"/>
						<path class="st15" d="M360.4,301.7c-0.6,0-1-0.1-1.3-0.4c-4.4-4.2-8.5-10.1-8-13.4c0.2-1.1,2.1-3.2,4-3.2c0.3,0,0.7,0.1,1,0.2
							c0.7,0.3,0.9,0.8,1.3,1.7c0.6,1.5,2,4.6,7.4,11.7c0.3,0.3,0.3,0.8,0.1,1.2C364.3,300.6,361.9,301.7,360.4,301.7z M355.1,285.4
							c-1.5,0-3.2,1.8-3.3,2.6c-0.5,3,3.7,8.8,7.8,12.8c0.1,0.1,0.4,0.2,0.8,0.2c1.3,0,3.4-1,3.8-1.9c0.1-0.2,0.1-0.3,0-0.4
							c-5.5-7.1-6.9-10.3-7.5-11.8c-0.4-0.9-0.5-1.1-0.9-1.3C355.6,285.4,355.4,285.4,355.1,285.4z"/>
					</g>
					<g>
						<path class="st7" d="M348.3,292.5c1.6,0.4,0.1,2,9.6,11.8c1.2,1.2-3.6,4.2-5,3.2c-4.4-3.3-9.2-8.5-8.9-11.7
							C344.1,294.7,346.3,291.9,348.3,292.5L348.3,292.5z"/>
						<path class="st15" d="M353.7,308c-0.4,0-0.7-0.1-1-0.3c-4.7-3.5-9.3-8.7-9.1-12c0.1-1.2,2.1-3.7,4.1-3.7c0.2,0,0.4,0,0.7,0.1
							c0.7,0.2,1,0.6,1.5,1.5c0.8,1.4,2.4,4.3,8.3,10.4c0.3,0.3,0.4,0.7,0.2,1.2C357.8,306.5,355.2,308,353.7,308z M347.8,292.8
							c-1.6,0-3.3,2.2-3.4,3c-0.2,3,4.3,8.1,8.8,11.4c0.1,0.1,0.3,0.1,0.5,0.1c1.3,0,3.6-1.4,4-2.4c0.1-0.3,0-0.4,0-0.4
							c-6-6.2-7.7-9.1-8.4-10.6c-0.5-0.8-0.6-1-1-1.1C348.1,292.8,347.9,292.8,347.8,292.8z"/>
					</g>
					<g>
						<path class="st7" d="M342.3,301c1.5,0.2,0.2,1.8,9.6,9.7c1.1,1-3,4.2-4.3,3.4c-4.3-2.5-9-6.8-8.9-9.7
							C338.6,303.4,340.4,300.7,342.3,301L342.3,301z"/>
						<path class="st15" d="M348,314.5c-0.3,0-0.5-0.1-0.7-0.2c-4.6-2.7-9.1-7-9.1-10c0-1.2,2-4.1,4.1-3.8c0.7,0.1,1,0.5,1.5,1.2
							c0.8,1.2,2.4,3.6,8.3,8.5c0.2,0.2,0.5,0.5,0.2,1.1C351.8,312.8,349.4,314.5,348,314.5z M342,301.3c-1.5,0-3,2.2-3,3.1
							c0,2.7,4.5,6.9,8.8,9.4c0.1,0,0.2,0.1,0.3,0.1c1.1,0,3.3-1.5,3.6-2.5c0.1-0.2,0-0.3,0-0.3c-5.9-5-7.6-7.5-8.4-8.7
							c-0.5-0.7-0.6-0.8-1-0.9C342.1,301.3,342.1,301.3,342,301.3z"/>
					</g>
					<g>
						<path class="st7" d="M335.7,309c1.5,0.1,0.4,1.7,10,8.4c1.2,0.8-2.5,4.2-3.8,3.6c-4.3-2-9.1-5.7-9.4-8.4
							C332.4,311.5,333.9,308.8,335.7,309L335.7,309z"/>
						<path class="st15" d="M342.2,321.4c-0.2,0-0.4,0-0.5-0.1c-4.6-2.2-9.3-5.9-9.6-8.7c-0.1-0.7,0.5-1.9,1.3-2.8
							c0.7-0.8,1.5-1.2,2.3-1.1c0.7,0.1,1,0.4,1.5,1c0.9,1,2.6,3.2,8.6,7.4c0.3,0.2,0.5,0.7,0.3,1.2
							C345.8,319.5,343.6,321.4,342.2,321.4z M335.6,309.3c-0.7,0-1.3,0.5-1.6,0.9c-0.7,0.8-1.1,1.8-1.1,2.3
							c0.2,2.6,4.9,6.1,9.1,8.1c0.1,0,0.1,0,0.2,0c1,0,3-1.6,3.3-2.6c0.1-0.3,0-0.3,0-0.3c-6.1-4.3-7.9-6.5-8.8-7.6
							C336.1,309.5,336,309.4,335.6,309.3L335.6,309.3z"/>
					</g>
					<g>
						<path class="st7" d="M330.8,317.6c1.3,0,0.5,1.4,9.2,6.6c1.1,0.6-1.9,3.8-3,3.3c-3.8-1.5-8.3-4.3-8.6-6.7
							C328.2,320.1,329.3,317.6,330.8,317.6L330.8,317.6z"/>
						<path class="st15" d="M337.2,328c-0.1,0-0.3,0-0.4-0.1c-4.1-1.6-8.5-4.5-8.9-7c-0.1-0.7,0.3-1.8,1-2.6c0.6-0.7,1.2-1,1.9-1
							c0.6,0,0.9,0.3,1.4,0.8c0.8,0.8,2.5,2.6,7.9,5.9c0.2,0.1,0.6,0.4,0.4,1.1C340.2,326.2,338.4,328,337.2,328z M330.8,318
							c-0.6,0-1,0.4-1.3,0.8c-0.6,0.7-0.9,1.7-0.9,2.1c0.4,2.2,4.6,5,8.4,6.4c0,0,0.1,0,0.1,0c0.8,0,2.4-1.5,2.6-2.4
							c0-0.2,0-0.3,0-0.3c-5.5-3.3-7.3-5.1-8.1-6C331.2,318.1,331.1,318,330.8,318z"/>
					</g>
					<g>
						<path class="st7" d="M326.5,325.1c1.2,0,0.4,1.4,8.7,6.3c1,0.6-1.8,3.6-2.9,3.2c-3.7-1.4-7.9-4.1-8.3-6.4
							C324,327.4,325,325.1,326.5,325.1L326.5,325.1z"/>
						<path class="st15" d="M332.6,335c-0.1,0-0.3,0-0.4-0.1c-3.2-1.2-8-4-8.5-6.7c-0.1-0.6,0.3-1.8,1-2.5c0.5-0.6,1.1-1,1.8-1
							c0.6,0,0.9,0.3,1.3,0.8c0.8,0.8,2.4,2.5,7.6,5.6c0.2,0.1,0.5,0.4,0.3,1.1C335.5,333.3,333.7,335,332.6,335z M326.5,325.4
							c-0.5,0-1,0.4-1.2,0.7c-0.6,0.7-0.9,1.6-0.8,2c0.3,2,4.3,4.7,8,6.1c0,0,0.1,0,0.1,0c0.7,0,2.3-1.4,2.5-2.3c0-0.1,0-0.2,0-0.3
							c-5.3-3.1-6.9-4.9-7.7-5.7C326.9,325.5,326.8,325.4,326.5,325.4z"/>
					</g>
					<g>
						<path class="st7" d="M322.8,332.6c0.9,0,0.3,1.1,6.7,4.9c0.8,0.5-1.4,2.8-2.2,2.4c-2.8-1.1-6.1-3.2-6.4-4.9
							C320.8,334.4,321.7,332.6,322.8,332.6L322.8,332.6z"/>
						<path class="st15" d="M327.5,340.3c-0.1,0-0.2,0-0.3-0.1c-2.4-1-6.2-3.1-6.6-5.2c-0.1-0.5,0.3-1.4,0.8-2
							c0.4-0.5,0.9-0.8,1.4-0.8c0.5,0,0.7,0.2,1.1,0.6c0.6,0.6,1.8,1.9,5.8,4.3c0.1,0.1,0.5,0.4,0.3,0.9
							C329.8,339,328.4,340.3,327.5,340.3z M322.8,333c-0.4,0-0.7,0.3-0.9,0.5c-0.5,0.6-0.7,1.2-0.6,1.5c0.3,1.5,3.3,3.6,6.1,4.7
							l0,0c0.3,0,1.1-0.5,1.5-1.2c0.3-0.4,0.3-0.6,0.3-0.7c-4.1-2.4-5.3-3.7-6-4.4C323,333,323,333,322.8,333z"/>
					</g>
				</g>
				<g>
					<g>
						<path class="st7" d="M416.1,304.5c-0.4,1,1.1,0.8,2.7,9.3c0.2,1,3.9-0.2,3.9-1.2c0-3.5-1-7.8-3-8.9
							C419.1,303.2,416.6,303.3,416.1,304.5L416.1,304.5z"/>
						<path class="st15" d="M419.6,314.5L419.6,314.5c-0.9,0-1.1-0.4-1.1-0.7c-1-5.3-2-7.2-2.4-8.1c-0.3-0.6-0.5-0.9-0.2-1.4
							c0.7-1.5,3.4-1.5,4.2-1.1c2.1,1.2,3.1,5.5,3.1,9.3c0,0.6-0.7,1.1-1.4,1.4C421,314.3,420.2,314.5,419.6,314.5z M418.6,303.7
							c-0.9,0-1.9,0.3-2.2,0.9c-0.1,0.2-0.1,0.2,0.2,0.8c0.5,0.9,1.5,2.9,2.5,8.3c0,0,0.1,0.1,0.4,0.1l0,0c0.5,0,1.2-0.2,1.9-0.5
							c0.7-0.3,0.9-0.7,0.9-0.8c0-3.4-1-7.6-2.8-8.6C419.5,303.8,419.1,303.7,418.6,303.7z"/>
					</g>
					<g>
						<path class="st7" d="M423.9,304c-0.4,0.9,1,0.7,2.3,8c0.2,0.9,3.4-0.2,3.4-1.1c0-3-0.9-6.7-2.5-7.7
							C426.6,302.9,424.4,302.9,423.9,304L423.9,304z"/>
						<path class="st15" d="M426.9,312.7L426.9,312.7c-0.8,0-1-0.4-1-0.6c-0.9-4.6-1.7-6.2-2.1-6.9c-0.3-0.5-0.4-0.8-0.2-1.3
							c0.6-1.3,3-1.3,3.7-0.9c1.8,1,2.7,4.8,2.7,8c0,0.6-0.6,1-1.2,1.3C428.2,312.5,427.5,312.7,426.9,312.7z M426.6,311.9
							c0,0,0.1,0,0.3,0l0,0c0.4,0,1.1-0.2,1.6-0.4c0.6-0.3,0.8-0.5,0.8-0.6c0-3-0.9-6.5-2.3-7.4c-0.1-0.1-0.4-0.1-0.8-0.1
							c-0.7,0-1.6,0.2-1.8,0.7c-0.1,0.1-0.1,0.2,0.2,0.6C424.9,305.6,425.7,307.3,426.6,311.9L426.6,311.9z"/>
					</g>
					<g>
						<path class="st7" d="M386.6,278c-1.6,1,0.2,2.3-7.8,16c-1,1.7,4.5,3.6,5.7,2c4-5,7.9-12.2,7.1-15.7
							C391.3,279.1,388.5,276.8,386.6,278L386.6,278z"/>
						<path class="st15" d="M382.9,297L382.9,297c-1.6,0-3.7-0.8-4.4-1.9c-0.2-0.4-0.3-0.9,0-1.2c5-8.6,6.2-12.3,6.7-14.1
							c0.3-1.1,0.5-1.6,1.2-2c0.4-0.3,0.9-0.4,1.4-0.4c1.8,0,3.9,1.8,4.1,2.9c0.9,3.6-2.9,10.8-7.1,16
							C384.4,296.7,383.8,297,382.9,297z M387.8,278c-0.4,0-0.7,0.1-1,0.3c-0.5,0.3-0.6,0.6-0.9,1.6c-0.5,1.8-1.7,5.6-6.8,14.3
							c-0.1,0.1-0.1,0.3,0,0.5c0.5,0.8,2.3,1.5,3.8,1.5l0,0c0.6,0,1.1-0.1,1.3-0.4c4-5,7.8-12.1,7-15.4
							C391,279.6,389.3,278,387.8,278z"/>
					</g>
					<g>
						<path class="st7" d="M394.8,285.2c-1.6,0.7,0,2.1-8.6,13.3c-1.1,1.4,3.9,3.8,5.2,2.6c4.1-3.9,8.4-9.9,7.9-13.1
							C399.1,286.8,396.7,284.4,394.8,285.2L394.8,285.2z"/>
						<path class="st15" d="M390.3,301.7L390.3,301.7c-1.5,0-3.9-1.1-4.5-2.3c-0.2-0.4-0.2-0.8,0.1-1.2c5.4-7,6.8-10.2,7.4-11.7
							c0.4-0.9,0.6-1.4,1.3-1.7c0.3-0.1,0.6-0.2,1-0.2c1.9,0,3.8,2.1,4,3.2c0.5,3.3-3.6,9.2-8,13.4
							C391.3,301.5,390.9,301.7,390.3,301.7z M395.6,285.4c-0.2,0-0.5,0-0.7,0.1c-0.4,0.2-0.5,0.4-0.9,1.3c-0.7,1.5-2,4.7-7.5,11.8
							c-0.1,0.1-0.1,0.2,0,0.4c0.4,0.9,2.5,1.9,3.8,1.9l0,0c0.4,0,0.6-0.1,0.8-0.2c4.1-3.9,8.3-9.7,7.8-12.8
							C398.8,287.2,397.1,285.4,395.6,285.4z"/>
					</g>
					<g>
						<path class="st7" d="M402.4,292.5c-1.6,0.4-0.1,2-9.6,11.8c-1.2,1.2,3.6,4.2,5,3.2c4.4-3.3,9.2-8.5,8.9-11.7
							C406.7,294.7,404.5,291.9,402.4,292.5L402.4,292.5z"/>
						<path class="st15" d="M397.1,308L397.1,308c-1.6,0-4.2-1.6-4.7-2.8c-0.2-0.5-0.1-0.9,0.2-1.2c6-6.1,7.5-9,8.3-10.4
							c0.5-0.8,0.7-1.3,1.5-1.5c0.2-0.1,0.4-0.1,0.6-0.1c2,0,4,2.5,4.1,3.7c0.3,3.3-4.4,8.6-9.1,12C397.8,307.9,397.5,308,397.1,308
							z M403,292.8c-0.2,0-0.3,0-0.5,0.1c-0.4,0.1-0.6,0.3-1,1.1c-0.8,1.4-2.4,4.3-8.4,10.6c0,0-0.1,0.1,0,0.4c0.4,1,2.8,2.4,4,2.4
							l0,0c0.2,0,0.4,0,0.5-0.1c4.4-3.3,9-8.4,8.8-11.4C406.3,295,404.6,292.8,403,292.8z"/>
					</g>
					<g>
						<path class="st7" d="M408.5,301c-1.5,0.2-0.2,1.8-9.6,9.7c-1.2,1,3,4.2,4.3,3.4c4.3-2.5,9-6.8,8.9-9.7
							C412.2,303.4,410.4,300.7,408.5,301L408.5,301z"/>
						<path class="st15" d="M402.8,314.5L402.8,314.5c-1.4,0-3.8-1.7-4.3-3c-0.2-0.6,0-1,0.2-1.1c5.9-4.9,7.5-7.4,8.3-8.5
							c0.5-0.7,0.7-1.1,1.5-1.2c2.1-0.3,4.1,2.5,4.1,3.8c0,3-4.6,7.3-9.1,10C403.3,314.5,403,314.5,402.8,314.5z M408.8,301.3
							c-0.1,0-0.2,0-0.2,0c-0.4,0.1-0.5,0.2-1,0.9c-0.8,1.2-2.5,3.7-8.4,8.7c0,0-0.1,0.1,0,0.3c0.4,1,2.5,2.5,3.6,2.5l0,0
							c0.1,0,0.2,0,0.3-0.1c4.3-2.5,8.8-6.6,8.8-9.4C411.8,303.6,410.3,301.3,408.8,301.3z"/>
					</g>
					<g>
						<path class="st7" d="M415.1,309c-1.5,0.1-0.4,1.7-10,8.4c-1.2,0.8,2.5,4.2,3.8,3.6c4.3-2,9.1-5.7,9.4-8.4
							C418.4,311.5,416.9,308.8,415.1,309L415.1,309z"/>
						<path class="st15" d="M408.6,321.4L408.6,321.4c-1.4,0-3.6-1.9-4-3.2c-0.2-0.5,0-0.9,0.3-1.2c6-4.2,7.8-6.4,8.6-7.4
							c0.5-0.6,0.8-1,1.5-1c0.8-0.1,1.6,0.3,2.3,1.1c0.8,0.9,1.4,2.1,1.3,2.8c-0.2,2.9-5,6.6-9.6,8.7
							C408.9,321.3,408.8,321.4,408.6,321.4z M415.2,309.3L415.2,309.3c-0.5,0-0.6,0.1-1.1,0.8c-0.9,1.1-2.7,3.3-8.8,7.6
							c0,0-0.1,0.1,0,0.3c0.3,1,2.3,2.6,3.3,2.6l0,0c0.1,0,0.1,0,0.2,0c4.3-2,8.9-5.6,9.1-8.1c0-0.4-0.4-1.5-1.1-2.3
							C416.5,309.8,415.9,309.3,415.2,309.3z"/>
					</g>
					<g>
						<path class="st7" d="M419.9,317.6c-1.3,0-0.5,1.4-9.2,6.6c-1.1,0.6,1.9,3.8,3.1,3.3c3.8-1.5,8.2-4.3,8.6-6.7
							C422.6,320.1,421.5,317.6,419.9,317.6L419.9,317.6z"/>
						<path class="st15" d="M413.5,328L413.5,328c-1.2,0-3-1.8-3.3-2.9c-0.2-0.7,0.2-1,0.4-1.1c5.4-3.3,7.1-5,7.9-5.9
							c0.5-0.5,0.8-0.8,1.4-0.8c0.7,0,1.3,0.4,1.9,1c0.7,0.8,1.1,2,1,2.6c-0.4,2.5-4.8,5.4-8.9,7C413.8,328,413.7,328,413.5,328z
							 M419.9,318c-0.3,0-0.4,0.1-0.9,0.6c-0.8,0.9-2.6,2.7-8.1,6c-0.1,0-0.1,0.1,0,0.3c0.3,0.9,1.9,2.4,2.6,2.4l0,0
							c0,0,0.1,0,0.1,0c3.8-1.5,8.1-4.3,8.4-6.4c0.1-0.3-0.2-1.3-0.9-2.1C420.9,318.4,420.5,318,419.9,318z"/>
					</g>
					<g>
						<path class="st7" d="M424.3,325.1c-1.2,0-0.4,1.4-8.7,6.3c-1,0.6,1.8,3.6,2.9,3.2c3.7-1.4,7.9-4.1,8.3-6.4
							C426.8,327.4,425.7,325.1,424.3,325.1L424.3,325.1z"/>
						<path class="st15" d="M418.2,335L418.2,335c-1.1,0-2.9-1.7-3.2-2.8c-0.2-0.7,0.2-1,0.3-1.1c5.2-3.1,6.8-4.8,7.6-5.6
							c0.5-0.5,0.7-0.8,1.3-0.8c0.6,0,1.2,0.3,1.8,1c0.6,0.8,1.1,1.9,1,2.5c-0.5,2.7-5.3,5.4-8.5,6.7
							C418.4,334.9,418.3,335,418.2,335z M424.2,325.4c-0.3,0-0.4,0.1-0.8,0.6c-0.8,0.8-2.4,2.6-7.7,5.7c-0.1,0,0,0.2,0,0.3
							c0.2,0.9,1.8,2.3,2.5,2.3l0,0c0,0,0.1,0,0.1,0c3.7-1.4,7.7-4.1,8-6.1c0.1-0.3-0.2-1.3-0.8-2
							C425.2,325.8,424.8,325.4,424.2,325.4z"/>
					</g>
					<g>
						<path class="st7" d="M428,332.6c-0.9,0-0.3,1.1-6.7,4.9c-0.8,0.5,1.4,2.8,2.2,2.4c2.8-1.1,6-3.2,6.4-4.9
							C429.9,334.4,429.1,332.6,428,332.6L428,332.6z"/>
						<path class="st15" d="M423.3,340.3L423.3,340.3c-0.9,0-2.3-1.3-2.5-2.2c-0.2-0.6,0.2-0.8,0.3-0.9c4-2.4,5.2-3.7,5.8-4.3
							c0.4-0.4,0.6-0.6,1.1-0.6c0.5,0,1,0.3,1.4,0.8c0.5,0.6,0.9,1.5,0.8,2c-0.4,2.1-4.1,4.3-6.6,5.2
							C423.5,340.3,423.4,340.3,423.3,340.3z M428,333c-0.2,0-0.2,0-0.6,0.4c-0.6,0.6-1.9,2-6,4.4c0,0,0,0.2,0.3,0.6
							c0.5,0.7,1.2,1.2,1.5,1.2c0,0,0,0,0,0c2.8-1.1,5.9-3.1,6.1-4.7c0-0.2-0.2-0.9-0.6-1.4C428.6,333.3,428.3,333,428,333z"/>
					</g>
				</g>
				<g>
					<path class="st7" d="M417.2,307.6c0.5,1.3,1,3.2,1.6,6.1c0.2,1,3.9-0.2,3.9-1.2c0-1.5-0.2-3.2-0.6-4.7
						C420.5,307.8,418.9,307.7,417.2,307.6z"/>
					<path class="st7" d="M425.2,307.7c0.3,1,0.7,2.4,1,4.3c0.2,0.9,3.4-0.2,3.4-1.1c0-1.3-0.2-2.7-0.5-4
						C427.9,307.3,426.6,307.5,425.2,307.7z"/>
					<path class="st7" d="M386.2,288.1c0.8,0.6,1.6,1.3,2.4,1.9c2.1-3.7,3.5-7.5,3-9.7c-0.3-1.2-3-3.6-5-2.3
						c-1.2,0.7-0.5,1.6-3.3,7.7C384.2,286.5,385.2,287.4,386.2,288.1z"/>
					<path class="st7" d="M394.2,294.8c0.5,0.4,1,0.9,1.5,1.4c2.3-3,3.9-6.2,3.6-8.3c-0.2-1.1-2.5-3.6-4.5-2.7
						c-1.2,0.5-0.6,1.4-3.9,6.7C392,292.9,393.1,293.8,394.2,294.8z"/>
					<path class="st7" d="M402.7,303.1c2.4-2.6,4.2-5.4,4-7.4c-0.1-1.1-2.3-3.8-4.3-3.3c-1.2,0.3-0.7,1.3-4.4,5.9
						C399.7,299.9,401.2,301.5,402.7,303.1z"/>
					<path class="st7" d="M408.3,309.5c0.1,0.2,0.3,0.4,0.4,0.5c2.1-1.9,3.5-4,3.5-5.6c0-1-1.8-3.7-3.7-3.4c-1.1,0.2-0.8,1-3.8,4.3
						C405.9,306.6,407.1,308,408.3,309.5z"/>
					<path class="st7" d="M414.3,317.6c2.2-1.7,3.8-3.6,3.9-5.1c0.1-1-1.4-3.6-3.2-3.5c-1.1,0.1-0.8,0.9-4.2,3.9
						C412.1,314.4,413.2,316,414.3,317.6z"/>
					<path class="st7" d="M419.1,324.8c1.8-1.3,3.1-2.6,3.4-3.9c0.1-0.8-1-3.2-2.5-3.2c-0.9,0-0.8,0.7-3.6,2.9
						C417.2,321.9,418.2,323.3,419.1,324.8z"/>
					<path class="st7" d="M423.5,331.9c1.7-1.2,3-2.5,3.2-3.7c0.1-0.8-0.9-3.1-2.4-3.1c-0.8,0-0.7,0.6-3.3,2.7
						C421.8,329.1,422.6,330.5,423.5,331.9z"/>
					<path class="st7" d="M427.1,338.1c1.5-1,2.6-2.1,2.7-3.1c0.1-0.6-0.7-2.4-1.8-2.4c-0.7,0-0.6,0.5-2.8,2.2
						C425.8,335.9,426.5,337,427.1,338.1z"/>
				</g>
				<g>
					<path class="st7" d="M329.3,307.8c-0.2,0-0.5,0-0.7,0c-0.4,1.5-0.6,3.2-0.6,4.7c0,1,3.8,2.3,3.9,1.2c0.5-2.5,0.9-4.3,1.4-5.5
						C332,308.2,330.7,307.9,329.3,307.8z"/>
					<path class="st7" d="M325.1,307.5c-1.2-0.2-2.4-0.5-3.4-1c-0.4,1.4-0.6,3-0.6,4.4c0,0.9,3.2,2,3.4,1.1c0.4-2,0.7-3.4,1.1-4.4
						C325.4,307.6,325.3,307.5,325.1,307.5z"/>
					<path class="st7" d="M359.5,291.3c-1.8,1.1-3.6,2.4-5.2,3.8c1.4,2.1,3.3,4.2,5.1,5.9c1.2,1.2,6.2-1.2,5.2-2.6
						C362.2,295.4,360.6,293.1,359.5,291.3z"/>
					<path class="st7" d="M351.8,297.3c-1.6,1.6-3.2,3.2-4.6,4.9c1.6,1.9,3.7,3.9,5.8,5.3c1.3,1,6.1-2,5-3.2
						C354.9,301.2,353,298.9,351.8,297.3z"/>
					<path class="st7" d="M345.3,304.4c-1.2,1.4-2.3,2.8-3.4,4.2c-0.2,0.2-0.4,0.5-0.6,0.7c1.7,1.8,4,3.5,6.2,4.8
						c1.3,0.8,5.5-2.4,4.3-3.4C348.5,307.8,346.5,305.8,345.3,304.4z"/>
					<path class="st7" d="M339.1,312.2c-1.2,1.6-2.3,3.2-3.3,4.9c1.8,1.5,3.9,2.8,6,3.8c1.3,0.6,5-2.8,3.8-3.6
						C342.4,315.1,340.4,313.4,339.1,312.2z"/>
					<path class="st7" d="M340,324.3c-3-1.8-4.9-3.1-6.1-4.1c-0.9,1.5-1.8,2.9-2.6,4.4c1.6,1.2,3.7,2.3,5.6,3
						C338.1,328,341.1,324.9,340,324.3z"/>
					<path class="st7" d="M335.3,331.4c-2.8-1.6-4.5-2.9-5.7-3.8c-0.8,1.4-1.6,2.8-2.4,4.2c1.5,1.1,3.4,2.1,5.1,2.7
						C333.5,335,336.3,332,335.3,331.4z"/>
					<path class="st7" d="M329.5,337.5c-1.9-1.1-3.1-2-4-2.7c-0.6,1.1-1.2,2.2-1.8,3.2c1.1,0.7,2.4,1.4,3.6,1.9
						C328.2,340.3,330.3,338,329.5,337.5z"/>
				</g>
				<path class="st7" d="M360.8,279.7c0,0-1.2,0.6-0.3,3.8c0.9,3.2,4,8.7,6,11.1C366.5,294.7,359.7,283.3,360.8,279.7z"/>
				<path class="st7" d="M352.7,287.3c0,0-1,0.7,0.4,3.7c1.4,2.9,5.2,7.6,7.4,9.6C360.5,300.6,352.3,290.9,352.7,287.3z"/>
				<path class="st7" d="M345.2,295.3c0,0-0.9,0.8,0.8,3.5c1.6,2.7,5.9,6.9,8.3,8.6C354.2,307.5,345.1,298.9,345.2,295.3z"/>
				<path class="st7" d="M339.7,303.5c0,0-1,1.2,0.7,3.5c1.7,2.3,5.8,5.2,7.9,6.5C348.3,313.5,340.2,306.5,339.7,303.5z"/>
				<path class="st7" d="M333.7,311.1c0,0-0.9,1.5,1,3.6c1.9,2.1,5.2,4.4,7.4,5.5C342.1,320.2,333.8,314.4,333.7,311.1z"/>
				<path class="st7" d="M329.9,319.4c0,0-1.1,1.5,0.7,3.3c1.8,1.8,5.1,3.6,7.4,4.4C337.9,327,329.6,322.5,329.9,319.4z"/>
				<path class="st7" d="M325.4,326.7c0,0-0.9,1.3,0.7,3c1.6,1.7,4.5,3.4,6.4,4.2C332.5,333.9,325.3,329.5,325.4,326.7z"/>
				<path class="st7" d="M322,333.7c0,0-0.7,1.1,0.6,2.4s3.6,2.8,5.2,3.5C327.8,339.6,321.9,335.9,322,333.7z"/>
				<path class="st7" d="M331.2,304.3c0,0-2,1.6-2.5,7.6c0,0,2.2-6.5,4.1-7.5C332.8,304.4,331.9,303.7,331.2,304.3z"/>
				<path class="st7" d="M323.9,304c0,0-1.7,1.5-2,6.7c0,0,1.7-5.7,3.4-6.6C325.2,304.1,324.4,303.5,323.9,304z"/>
				<path class="st7" d="M389.7,279.7c0,0,1.2,0.6,0.3,3.8c-0.9,3.2-4,8.7-6,11.1C384.1,294.7,390.8,283.3,389.7,279.7z"/>
				<path class="st7" d="M397.9,287.3c0,0,1,0.7-0.4,3.7c-1.4,2.9-5.2,7.6-7.4,9.6C390,300.6,398.3,290.9,397.9,287.3z"/>
				<path class="st7" d="M405.4,295.3c0,0,0.9,0.8-0.8,3.5c-1.6,2.7-5.9,6.9-8.3,8.6C396.4,307.5,405.4,298.9,405.4,295.3z"/>
				<path class="st7" d="M410.8,303.5c0,0,1,1.2-0.7,3.5c-1.7,2.3-5.8,5.2-7.9,6.5C402.3,313.5,410.4,306.5,410.8,303.5z"/>
				<path class="st7" d="M416.8,311.1c0,0,0.9,1.5-1,3.6c-1.9,2.1-5.2,4.4-7.4,5.5C408.4,320.2,416.7,314.4,416.8,311.1z"/>
				<path class="st7" d="M420.7,319.4c0,0,1.1,1.5-0.7,3.3c-1.8,1.8-5.1,3.6-7.4,4.4C412.6,327,420.9,322.5,420.7,319.4z"/>
				<path class="st7" d="M425.2,326.7c0,0,0.9,1.3-0.7,3c-1.6,1.7-4.5,3.4-6.4,4.2C418,333.9,425.2,329.5,425.2,326.7z"/>
				<path class="st7" d="M428.6,333.7c0,0,0.7,1.1-0.6,2.4c-1.3,1.4-3.7,2.8-5.2,3.5C422.8,339.6,428.6,335.9,428.6,333.7z"/>
				<path class="st7" d="M419.3,304.3c0,0,2,1.6,2.5,7.6c0,0-2.2-6.5-4.1-7.5C417.8,304.4,418.6,303.7,419.3,304.3z"/>
				<path class="st7" d="M426.7,304c0,0,1.7,1.5,2,6.7c0,0-1.7-5.7-3.4-6.6C425.3,304.1,426.1,303.5,426.7,304z"/>
			</g>
		</g>
		<path class="st3" d="M348,259.1c1.5,3.8,2.1,7.9,2.1,11.9c-0.1,9.9-2.1,19.7-4,29.3c-2,9.9-3.6,20-0.2,29.7
			c1.8,5.1,4.4,9.7,7.6,14c-1.2-2.9-2.4-5.7-3-9c-1-4.8-1.3-9.8-1.3-14.7c-0.1-10.5,1.5-20.5,3.3-30.8c2-11.2,3.6-31.3-9.1-37.1
			C345,254.6,346.9,256.6,348,259.1z"/>
		<path class="st3" d="M403,259.1c-1.5,3.8-2.1,7.9-2.1,11.9c0.1,9.9,2.1,19.7,4,29.3c2,9.9,3.6,20,0.2,29.7
			c-1.8,5.1-4.4,9.7-7.5,14c1.2-2.9,2.3-5.7,3-9c1-4.8,1.3-9.8,1.3-14.7c0.1-10.5-1.5-20.5-3.3-30.8c-2-11.2-3.6-31.3,9.1-37.1
			C405.9,254.6,404,256.6,403,259.1z"/>
		<path class="st3" d="M389.3,363.3c0,0-4,15.6-0.7,27c0,0-1.2-14.8,2.3-22.7L389.3,363.3z"/>
		<path class="st3" d="M483.4,386.7c0,0-8.4,11.1-18.4,18.2C465,404.9,475.7,401.4,483.4,386.7z"/>
		<path class="st3" d="M414.5,298.7c0,0,0.2-6.1-0.7-15.9c-0.8-9.8-3.5-20,5-20.2c0,0-4.3,0.2-4.5,5.5
			C414.2,273.3,415.8,292.4,414.5,298.7z"/>
		<path class="st17" d="M373.9,43.8c0,0-6.4,0.6-7.9,7.8c-1.8,8.6-1.2,15.7-8.7,19.6c-7,3.6-17.4,5-19.1,18.7c0,0,1.7-9.5,11.4-13.1
			c9.8-3.6,13.8-4.3,15.7-15.2C367.3,51.5,367.3,45.1,373.9,43.8z"/>
		<path class="st18" d="M397.4,73.7c0,0,12.6,3.6,14.3,15.9c1.7,12.3-6.3,22.9-15.7,27.5c0,0,12.4-8.8,13.9-18.6
			C411.4,88.7,409,80.4,397.4,73.7z"/>
	</g>
	<g>
		<path class="st19" d="M352.8,343.3c0.4,0.6,0.6,0.9,0.6,0.9C353.2,343.8,353,343.6,352.8,343.3z"/>
		<path class="st3" d="M350.4,335.1c-1-4.8-1.3-9.8-1.3-14.7c-0.1-10.5,1.5-20.5,3.3-30.8c2-11.2,3.6-31.3-9.1-37.1
			c0.1,0.1,0.2,0.3,0.4,0.4c0.1,0,0.1,0.1,0.2,0.1c12.2,7.4,8.7,29.5,6.8,38.2c-1.9,8.7-4,18-3.7,31.5c0.2,10.9,4.3,18.1,5.9,20.5
			c0.2,0.3,0.4,0.6,0.6,0.9C352.2,341.2,351,338.4,350.4,335.1z"/>
	</g>
	<g>
		<path class="st3" d="M407.7,252.6c0,0-5.6,3.8-7.5,11c-1.9,7.2-0.1,17.7,0.9,24.8c1,7.1,5.3,23.9,4.4,32.4c-0.8,8-5,18.6-7.1,22.2
			c2.8-3.9,5.1-8.2,6.7-12.8c3.4-9.7,1.8-19.9-0.2-29.7c-1.9-9.7-3.9-19.5-4-29.3c0-4.1,0.6-8.1,2.1-11.9
			C404,256.6,405.9,254.6,407.7,252.6z"/>
	</g>
</g>
</svg>
