<?xml version="1.0" encoding="utf-8"?>
<!-- Generator: Adobe Illustrator 24.2.3, SVG Export Plug-In . SVG Version: 6.00 Build 0)  -->
<svg version="1.1" id="Layer_1" xmlns="http://www.w3.org/2000/svg" xmlns:xlink="http://www.w3.org/1999/xlink" x="0px" y="0px"
	 viewBox="0 0 750 500" style="enable-background:new 0 0 750 500;" xml:space="preserve">
<style type="text/css">
	.st0{fill:#6DAEEF;}
	.st1{fill:#FFDB4C;}
	.st2{fill:#FFAD1D;}
	.st3{fill:#50A0EF;}
	.st4{fill:#146DC7;}
</style>
<g>
	<path class="st0" d="M113.7,200.6c8.8,2.9,20.6,6,25.9,9.1c-4.9,3.5-52.5,9.6-52.8,9.7c-1.5,3.8,57-6.4,56.9-6.3
		c9.7-2.4,33.6,6.3,48.3,12.2c-12.7,4.8-38.5,15.7-40.4,16.8c-2.6,1.5-1,2.5-1,2.5c15.5-9.5,41.3-14.8,49-16.2
		c2.7,1.1,4.4,1.9,4.7,2c34.5,10.5,58.1,9,63.3,26.8c2.5,8.4,6.8,17-22.3,49.4c-4.6,5.1-10.1,9.7-12.1,10.8
		c-7.1,3.9-47.9,26.2-63.2,34.6c-0.4,0.2-0.1,1,0.3,0.8c11-4.4,34.7-14.2,55-25.6c2.2,2.3-2,7-2.3,7.4c-27.5,32.2-54.5,36.3-77.3,55
		c6.2,1,38.3-23.4,57.9-30.9c-1.6,7.2-14.9,28.9-23,33.6c0.1,0,0.9,4.8,14.7-11.8c4.4-5.3,5.6-11.4,8.8-16.1
		c6.2-7.8,7.6,0.6,10,12.5c1.3-0.1,0.1-8.7-1.2-14.7c-1.4-6.1,1.1-10,1.3-10.4c8.5-8.6,16.4-18.3,22.9-26.5
		c4.2-4.5,10.4-10.8,17.7-17.1c0.7-0.3,1.3-0.4,1.9-0.2c2,0.8-4,14.8-4.2,15.8c0,0,0,0,0,0c-10.4,21.3-16.2,51.5-12.5,50
		c-0.7-0.1,2.9-29.1,10.8-30.6c2.1-0.7,12,20.9,12.3,21.1c2-0.2-9.8-26.7-7.9-34.2c0.7-4.9,7.2-23.6,12.2-29.5
		c17.7-20.9,31.1-18.3,34-17.8c6,0.9,11.4,5,17,11.8c0.6,0.8,1.3,1.9,1.9,3c0,0,0,0.1,0,0.1c17.6,34.3,21.1,58.7,21.8,60.4
		c4.2,10.1,4.6,21.9,3.7,25.7c6.5-4.3-0.1-29.2-8.1-55.6c15.9,20.3,27.9,44.6,34.1,66.5c2.7,9.4,14.2,38.9,18.4,36.2
		c-0.9-1.3-11.6-15-14.6-31.7c-2.4-13.9-6.6-24.7-15.3-42.8c-8.4-17.9-15.1-25.2-14.9-27.5c0.4-2.2,4.2,2.6,10.5,10.4
		c23.5,28.8,41.1,58.9,41.1,59.1c2.5-0.5-20.5-38.4-31.1-51.2c0,0,0,0,0-0.1c-0.4-0.5-0.8-1-1.2-1.5c-1.5-1.9-3.4-5-1-5.3
		c3.8-0.4,10,2,13.3,3.5c0.3,0.1,0.6-0.3,0.3-0.6c-8.9-6.7-21.2-8.3-21.6-8.4c-9.7-10.8-16-24.9-19.2-36.5c-4-17.2-3.9-39,14.9-30.9
		c0,0,0,0,0,0c5.5,1.9,11.6,5,13.6,6.5c8,5.9,14,13.9,19.7,22.7c13.5,22.1,31.6,10.2,51.4,35.9c0.8,1.2,2.5,1.1,3.7,1.6
		c20.1,7.7,26.1-8,49.2,1.3c10.2,3.9,18.4,11.8,30.2,20.4c10,8.3,16.6,19.8,21.7,29c-2.4,3.9-6.7,7.6-11.8,10
		c-4.2,1.9-8.9,3.8-12.5,6.5c-5.2,0.6-9.4,3.3-13.3,6c-0.1,0.8,6.9-3.4,10.6-4c-3.4,2.8-8.1,9.8-6.2,10c1.3-3.2,3.5-6.1,6.4-8.5
		c3.2-2.6,7.1-4.6,11.1-6.3c-0.7,1.5-1.4,3-2.1,4.6c-0.7,2.1-0.7,4.5,0.5,6.3c0.8-0.1-0.4-2-0.3-3.1c0.1-1.1,0.4-2.2,1-3.2
		c1.3-2,2.6-3.9,3.9-5.9c5.6-2.2,10.7-5.9,13.8-10.1c0.8,1.9,1.4,3.9,1.6,5.9c0,0,0,0,0,0c0,0,0,0.1,0.1,0.1
		c1.2,9.3-3.7,19.1-12.1,28.2c2.1,1.7,12.9-15.7,14.3-23.8c3.6,5.8,6,9,14.1,13.2c1.9,0.9,3.4,1.5,4.8,2.4c1.8,1.1,3.1,2.4,4.1,3.6
		c0,0,0,0,0,0c-1.1,0.8-2.1,1.6-3.1,2.5c-2.8,0.4-8,2.4-8.6,4.7c0.2,0.5,5-3.4,7.3-3.4c-2.7,2.3,2,6-3.2,16.1
		c0.8-0.1,3.6-3.3,3.8-15.4c1.8-1.4,2.7-1.6,4.8-2.9c3.8,7.5,3.6,12.5-2.9,26.5c1.4,0.7,8.3-15.9,5.6-20.3c2.8,1.6,5,2.4,7.1,5
		c0.3-1.7-0.9-2.5-2.7-3.5c-1.5-0.9-3.4-1.8-3.8-2.8c-1.8-5.2-0.9-9-14-15.8c-6.8-5.1-9.6-8.9-12.7-15.3c0,0,0,0-0.1,0
		c-4.1-13.2-8.5-25.7-19.7-37c12.6,4.1,25.4,0.7,39-3.7c1.3-0.5,2.6-1,3.9-1.5c12-0.2,25.5-1.1,38,0.3c2.9,0.4,5.6,1.4,8.1,2.5
		c1,4.7,2.4,10,10.1,12.2c-3.4-1.4-5.5-3.5-6.2-5.8c-0.5-1.7-0.7-3.4-0.8-5.1c7.3,3.9,18,6,29.2,4.1c-7.9,0.5-15.6,0-21.2-2.6
		c-5.9-2.6-11.4-6.6-19-7.6c6.7-1.7,14.8-2,22.3-1.6c-8.9-1-18.6-1.4-26.6,1c-5.6-0.5-11.1-0.5-16.5-0.5c-3.9,0.1-7.6,0.2-11.4,0.4
		c2.8-1.3,5.5-2.8,7.9-4.4c1.9-1.2,5.7-3.7,7.6-4.9c2.3-1.7,5.1-3,7.8-4.4c17.1-8.2,41.6-10,64.8-5.6c-21.5-5.2-46.1-4.9-63.8,2
		c2-2.1,3.8-4.2,5-6.6c1.7-3.1,1.2-6.5,0-9.7c0.2,0,0.4-0.1,0.6-0.2c0.8-0.2,1.5-0.5,2.1-0.9c2.4-1.3,3.8-3,4.9-4.8
		c0.3-0.4,0.6-0.8,0.8-1.2c0.4-0.3,0.7-0.7,1.2-1c3.6-2.7,9.5-3.9,15.2-4.2c-6,0-12.2,0.9-16.4,3.5c-0.6,0.3-1,0.7-1.4,1.1
		c-0.4,0.4-0.8,0.8-1.2,1.3c-1.4,1.8-3.7,3.9-6.3,4.5c-0.1-0.8-0.3-1.5-0.3-2.3c-0.1-2.2,0.6-4.4,1.5-6.5
		c2.5-6.4,8.9-12.6,19.8-13.6c-9.3,0-16.8,4.6-20.5,9.8c-6-4.1,1-10.3,0-15.7c-0.1-1-0.3-2.1-0.6-3.1c-0.2-0.5-0.3-1-0.7-1.5
		c-0.3-0.4-0.6-0.8-1.2-1c1,0.5,1.3,1.6,1.5,2.6c0.2,1,0.3,2,0.2,3.1c0.1,4.3-3.6,7.6-4,11.8c-0.3,2.1,1.2,4.3,3.4,5.8
		c-1.5,2.6-2.7,5.4-2.8,8.3c-0.2,2.4,0.6,4.9,1,7c1.4,6.3-4.5,11.4-9.2,16.6c-1.8,0.8-3.5,1.7-5,2.7c-7.8,4.9-15.4,9.3-24.4,12.1
		c-17.1,5.1-33,5.2-46.6-2.7c-39.6-36.1-43.4-8.2-74.5-19.1c-1.1-0.6,0.6,1.8-0.1,0.7c-19.1-27.2-47.1-28-59.3-49.3
		c-2.8-4.9-5.6-9.7-9-14.3c-3.5-4.7-7.8-8.7-11.7-12.8c-8.9-9.5-6.5-21.6-1.9-26.4c10.4-10.6,39.9-17.3,58.3-13.9
		c16.2,3-5.4-2.8-15.4-3.3c0,0,0,0,0.1,0c-10.4-3,8-7.7,11.3-8.7c6.4,0,10.8,2.3,17.9,7.4c7.6,5.3,23.8,11.9,23.8,11.9
		c1.4-2.4-8.9-4.1-17-9.4c-8-5.3-14.8-12.4-14.9-12.4c1.7-0.3,6.7-3.2,16.4-2.7c12.5,0.7,32.8,4.8,62.6,2.1
		c0.6-2.1-36.1-0.5-58.6-3.7c2.8-1.5,8.6-4.5,15.1-7.1c9-3.7,35.1-8.6,35.1-8.6c-5.8-3.4-108,28.5-100.2,22.3
		c14-10.4,43.4-35.5,48-48.7c-0.3,0.4-33,39.6-62.7,51.2c-18.9,7.4-33.2-3.4-34.4-22.6c-0.3-3.5,0-6.6,0.5-8.4
		c2.4-7.6,16.5-16.2,24.1-22.5c15.8-11.8,20.5-18.2,16.4-15.5c0,0-36.8,30.3-40.1,29.2c0.4-3.3,7.1-15.2,8.4-17.7
		c3.7-7.2,15.2-12.8,15.2-12.8c0.7-2.6-12.3,3.8-21.5,17.7c-1.2-5.3,2-18.2,3.1-23.2c2.5-11.9,12.4-41,13.6-44.3
		c0.2-4.7-15.8,38.3-18.3,50.2c-4.2-8.1-5.1-55.4-7.1-53.2c0,0,0,16.9,1.7,31.2c0.6,5.2,3.8,25.5,4.4,27.1c-1.2,7-3.2,17.3-6.7,26.3
		c0,0,0,0,0,0c-3.2,8.6-7.6,16.1-12.6,19.3c-13.3,8.3-25.2,3.6-31,0.3c-1.4-1.1-2.9-2.3-4.3-3.5c-0.7-0.8-1.4-1.6-2.1-2.5
		c0,0,0,0,0,0c-12.2-14.2-19.8-72.4-13.4-84.6c-5.2,3.7-5.5,35.2-3.3,49.9c0.6,3.9-2.4,7.1-2.9,5.8c-1-2.7-5.6-15.7-7.5-20.9
		c-8.7-24-3.1-49.8-3.2-49.9c-0.1,0-4.3,11.2-4.4,28c-2.1-4.3-2.7-13.9-5.6-24c-3.6-12.1-8.6-23.2-9.9-24.7
		c1.1,2.2,11.7,37.5,15.8,57.6c0.6,7.2,11.3,33.6,11.7,35.6c0.6,3-8.3-5-9.5-6.2c-0.2-0.2-0.4-0.4-0.6-0.6c0,0,0,0,0,0
		c-11.1-11.9-40.4-16.8-54-17.3c-3.1-0.1-2.4,0.4,0.1,0.8c14.2,2.4,38.8,11.6,46.3,16.6c-3.8,0.2-12.6,1.8-23.3,10.7
		c1-0.6,13.9-8.2,22.4-6.4c8.3,1.6,21.6,16.5,23.6,19.1c8.7,13.7,9,35.4-1.4,50.6c-10.9,16-50.7,13.7-57.3,7.5
		c-8.1-7.6-38.4-56.1-38.4-56c-0.6,5.8,23.4,39.6,22.8,45.4c-5,1.2-61.4-44.2-62.8-44.4c3.2,8.8,46.4,40.6,61.7,51.3
		c1.2,0.8-0.2,2.5-1.8,2c-25.7-9.5-63.1-17.4-80.3-21.7C113.4,199.7,113.2,200.5,113.7,200.6z"/>
	<path class="st1" d="M409.3,302.2l-5.9,9.4c-1.7,2.6-5,3.3-7.6,1.4l-17.2-12.6c-2.5-1.8-3.2-5.5-1.6-8.1l5.9-9.4
		c1.7-2.6,5-3.3,7.6-1.4l17.2,12.6C410.2,295.9,410.9,299.5,409.3,302.2z"/>
	<path class="st1" d="M440.9,326.8l-7,8.5c-2,2.4-5.4,2.5-7.7,0.4l-15.6-14.9c-2.3-2.2-2.5-5.9-0.6-8.2l7-8.5c2-2.4,5.4-2.5,7.7-0.4
		l15.6,14.9C442.6,320.7,442.9,324.4,440.9,326.8z"/>
	<path class="st1" d="M474.1,324.6l0.9,11.5c0.3,3.2-2,6-5,6.2l-20.5,1.3c-3,0.2-5.6-2.3-5.9-5.5l-0.9-11.5c-0.3-3.2,2-6,5-6.2
		l20.5-1.3C471.2,318.9,473.9,321.4,474.1,324.6z"/>
	<path class="st1" d="M513.6,341.1l-5.5,9.7c-1.5,2.7-4.9,3.5-7.5,1.8l-17.7-11.8c-2.6-1.7-3.4-5.3-1.9-8.1l5.5-9.7
		c1.5-2.7,4.9-3.5,7.5-1.8l17.7,11.8C514.3,334.7,515.2,338.3,513.6,341.1z"/>
	<path class="st2" d="M396.2,293c3.3,2.4,5,6,3.8,7.9c-1.2,2-4.9,1.6-8.2-0.8c-3.3-2.4-5-6-3.8-7.9
		C389.2,290.2,392.9,290.6,396.2,293z"/>
	<path class="st2" d="M425.2,319.7c3.1,2.7,4.4,6.4,3,8.2c-1.4,1.8-5,1.1-8.1-1.7c-3.1-2.7-4.4-6.4-3-8.2
		C418.5,316.2,422.1,317,425.2,319.7z"/>
	<path class="st2" d="M458.7,330.6c3.9-0.4,7.3,1.1,7.6,3.5c0.3,2.4-2.6,4.6-6.5,5.1c-3.9,0.4-7.3-1.1-7.6-3.5
		C451.8,333.3,454.8,331,458.7,330.6z"/>
	<path class="st2" d="M500.5,330.7c3.4,2.3,5.2,5.7,4.1,7.7c-1.1,2-4.8,1.8-8.2-0.5c-3.4-2.3-5.2-5.7-4.1-7.7
		C493.4,328.3,497.1,328.5,500.5,330.7z"/>
	<path class="st3" d="M284.3,206.5c-0.4-6,10.4-10.9,19.7-10.7c9.3,0.2,19.4,12,28.6,9c9.2-3,17.7,10.8,18.6,15.4
		s-14.5,26.6-15.3,40.3c-0.8,13.7-20.6,1.1-33.6,3.8s-29.5-13.2-28.5-22.5C274.9,232.5,286.3,233.5,284.3,206.5z"/>
	<path class="st4" d="M331.4,224.9c3.8,12.1-3.7,25.4-15,29.1c-11.2,3.7-22.4-5.2-26.2-17.4c-3.8-12.1,3.8-20.2,15-23.9
		C316.4,209.1,327.6,212.7,331.4,224.9z"/>
	<g>
		<path class="st0" d="M239.9,57.8c1.9-0.6,0.9-3.8-1-3.2C237,55.2,238,58.4,239.9,57.8L239.9,57.8z"/>
	</g>
	<g>
		<path class="st0" d="M259.3,78.4c1.9-0.6,0.9-3.8-1-3.2C256.4,75.8,257.4,79,259.3,78.4L259.3,78.4z"/>
	</g>
	<g>
		<path class="st0" d="M275.9,93.8c1.9-0.6,0.9-3.8-1-3.2C273,91.3,274,94.5,275.9,93.8L275.9,93.8z"/>
	</g>
	<g>
		<path class="st0" d="M201.7,126.4c1.9-0.6,0.9-3.8-1-3.2C198.8,123.8,199.8,127,201.7,126.4L201.7,126.4z"/>
	</g>
	<g>
		<path class="st0" d="M226.8,153.5c1.9-0.6,0.9-3.8-1-3.2C223.9,151,224.9,154.2,226.8,153.5L226.8,153.5z"/>
	</g>
	<g>
		<path class="st0" d="M174.5,170.1c2,0.3,2.4-3,0.4-3.3C172.9,166.5,172.5,169.8,174.5,170.1L174.5,170.1z"/>
	</g>
	<g>
		<path class="st0" d="M134.7,170.5c2,0.3,2.4-3,0.4-3.3C133.1,166.9,132.7,170.2,134.7,170.5L134.7,170.5z"/>
	</g>
	<g>
		<path class="st0" d="M113.2,201.8c2,0.3,2.4-3,0.4-3.3C111.6,198.2,111.2,201.5,113.2,201.8L113.2,201.8z"/>
	</g>
	<g>
		<path class="st0" d="M150.6,245.1c2,0.3,2.4-3,0.4-3.3C149,241.5,148.6,244.8,150.6,245.1L150.6,245.1z"/>
	</g>
	<g>
		<path class="st0" d="M87.4,221.2c2,0.3,2.4-3,0.4-3.3C85.8,217.6,85.4,220.9,87.4,221.2L87.4,221.2z"/>
	</g>
	<g>
		<path class="st0" d="M170.1,354.1c2-0.3,1.5-3.6-0.5-3.3C167.6,351.1,168.1,354.4,170.1,354.1L170.1,354.1z"/>
	</g>
	<g>
		<path class="st0" d="M146.7,391.2c2-0.3,1.5-3.6-0.5-3.3C144.2,388.2,144.7,391.5,146.7,391.2L146.7,391.2z"/>
	</g>
	<g>
		<path class="st0" d="M181.2,394.1c2-0.3,1.5-3.6-0.5-3.3C178.7,391.1,179.2,394.4,181.2,394.1L181.2,394.1z"/>
	</g>
	<g>
		<path class="st0" d="M214.5,377.4c2-0.3,1.5-3.6-0.5-3.3C212,374.4,212.5,377.7,214.5,377.4L214.5,377.4z"/>
	</g>
	<g>
		<path class="st0" d="M240.3,374.3c2-0.3,1.5-3.6-0.5-3.3C237.8,371.3,238.4,374.6,240.3,374.3L240.3,374.3z"/>
	</g>
	<g>
		<path class="st0" d="M263.6,364.7c2-0.3,1.5-3.6-0.5-3.3C261.1,361.7,261.6,365,263.6,364.7L263.6,364.7z"/>
	</g>
	<g>
		<path class="st0" d="M346.7,384.5c1.9-0.6,0.9-3.8-1-3.2C343.8,381.9,344.8,385.1,346.7,384.5L346.7,384.5z"/>
	</g>
	<g>
		<path class="st0" d="M390,431.9c1.9-0.6,0.9-3.8-1-3.2C387.1,429.3,388.1,432.5,390,431.9L390,431.9z"/>
	</g>
	<g>
		<path class="st0" d="M396.9,399.4c1.9-0.6,0.9-3.8-1-3.2C394,396.8,395,400,396.9,399.4L396.9,399.4z"/>
	</g>
	<g>
		<path class="st0" d="M377.5,344.8c1.9-0.6,0.9-3.8-1-3.2C374.6,342.2,375.6,345.4,377.5,344.8L377.5,344.8z"/>
	</g>
	<g>
		<path class="st0" d="M423.3,212.6c1.9-0.6,0.9-3.8-1-3.2C420.4,210.1,421.4,213.2,423.3,212.6L423.3,212.6z"/>
	</g>
	<g>
		<path class="st0" d="M456,218.4c1.9-0.6,0.9-3.8-1-3.2C453.1,215.8,454.1,219,456,218.4L456,218.4z"/>
	</g>
	<g>
		<path class="st0" d="M502.9,197c1.9-0.6,0.9-3.8-1-3.2C500,194.4,501,197.6,502.9,197L502.9,197z"/>
	</g>
	<g>
		<path class="st0" d="M493.7,177.6c1.9-0.6,0.9-3.8-1-3.2C490.8,175,491.8,178.2,493.7,177.6L493.7,177.6z"/>
	</g>
	<g>
		<path class="st0" d="M442.2,152.2c1.9-0.6,0.9-3.8-1-3.2C439.3,149.6,440.3,152.8,442.2,152.2L442.2,152.2z"/>
	</g>
	<g>
		<path class="st0" d="M387.5,133.6c1.9-0.6,0.9-3.8-1-3.2C384.6,131,385.6,134.2,387.5,133.6L387.5,133.6z"/>
	</g>
	<g>
		<path class="st0" d="M369.7,131.8c1.9-0.6,0.9-3.8-1-3.2C366.8,129.2,367.8,132.4,369.7,131.8L369.7,131.8z"/>
	</g>
	<g>
		<path class="st0" d="M365.2,82.2c1.9-0.6,0.9-3.8-1-3.2C362.3,79.6,363.3,82.8,365.2,82.2L365.2,82.2z"/>
	</g>
	<g>
		<path class="st0" d="M340.4,80.2c1.9-0.6,0.9-3.8-1-3.2C337.5,77.6,338.5,80.8,340.4,80.2L340.4,80.2z"/>
	</g>
	<g>
		<path class="st0" d="M602.5,279.2c1-0.2,0.6-1.9-0.4-1.6C601.1,277.8,601.5,279.4,602.5,279.2L602.5,279.2z"/>
	</g>
	<g>
		<path class="st0" d="M625.3,290.9c1-0.2,0.6-1.9-0.4-1.6C624,289.5,624.4,291.1,625.3,290.9L625.3,290.9z"/>
	</g>
	<g>
		<path class="st0" d="M629.4,302.9c1-0.2,0.6-1.9-0.4-1.6C628,301.5,628.4,303.1,629.4,302.9L629.4,302.9z"/>
	</g>
	<g>
		<path class="st0" d="M663.4,329.2c1-0.2,0.6-1.9-0.4-1.6C662,327.8,662.4,329.4,663.4,329.2L663.4,329.2z"/>
	</g>
	<g>
		<path class="st0" d="M629.4,347.7c1-0.2,0.6-1.9-0.4-1.6C628,346.3,628.4,347.9,629.4,347.7L629.4,347.7z"/>
	</g>
	<g>
		<path class="st0" d="M647.5,359.5c1-0.2,0.6-1.9-0.4-1.6C646.1,358.1,646.5,359.7,647.5,359.5L647.5,359.5z"/>
	</g>
	<g>
		<path class="st0" d="M625.4,366c1-0.2,0.6-1.9-0.4-1.6C624.1,364.6,624.4,366.2,625.4,366L625.4,366z"/>
	</g>
	<g>
		<path class="st0" d="M503.3,407.8c0.9,0.5,1.6-1,0.7-1.5C503,405.9,502.4,407.4,503.3,407.8L503.3,407.8z"/>
	</g>
	<g>
		<path class="st0" d="M507.2,413.9c0.9,0.5,1.6-1,0.7-1.5C506.9,412,506.3,413.5,507.2,413.9L507.2,413.9z"/>
	</g>
	<g>
		<path class="st0" d="M523.5,409.8c0.9,0.5,1.6-1,0.7-1.5C523.2,407.9,522.6,409.4,523.5,409.8L523.5,409.8z"/>
	</g>
	<g>
		<path class="st0" d="M531.4,422.3c0.9,0.5,1.6-1,0.7-1.5C531.1,420.4,530.4,421.8,531.4,422.3L531.4,422.3z"/>
	</g>
	<g>
		<path class="st0" d="M557,425c0.9,0.5,1.6-1,0.7-1.5C556.8,423.1,556.1,424.6,557,425L557,425z"/>
	</g>
	<g>
		<path class="st0" d="M561,437.8c0.9,0.5,1.6-1,0.7-1.5C560.7,435.8,560,437.3,561,437.8L561,437.8z"/>
	</g>
	<g>
		<path class="st0" d="M566.9,445.4c0.9,0.5,1.6-1,0.7-1.5C566.7,443.5,566,444.9,566.9,445.4L566.9,445.4z"/>
	</g>
	<g>
		<path class="st0" d="M579.2,430.4c0.9,0.5,1.6-1,0.7-1.5C578.9,428.4,578.3,429.9,579.2,430.4L579.2,430.4z"/>
	</g>
</g>
</svg>
