<?xml version="1.0" encoding="utf-8"?>
<!-- Generator: Adobe Illustrator 24.2.3, SVG Export Plug-In . SVG Version: 6.00 Build 0)  -->
<svg version="1.1" id="Layer_1" xmlns="http://www.w3.org/2000/svg" xmlns:xlink="http://www.w3.org/1999/xlink" x="0px" y="0px"
	 viewBox="0 0 750 500" style="enable-background:new 0 0 750 500;" xml:space="preserve">
<style type="text/css">
	.st0{fill:#3C5C9E;}
	.st1{fill:#D93A2D;}
	.st2{fill:#E88789;}
	.st3{fill:#FF6A5E;}
	.st4{fill:#C73529;}
	.st5{fill:#E39C82;}
	.st6{fill:#304A80;}
	.st7{fill:#BA3226;}
	.st8{fill:#FFAF92;}
	.st9{opacity:0.4;fill:#E39C82;}
	.st10{opacity:0.2;fill:#3C5C9E;}
	.st11{opacity:0.2;fill:#FFFFFF;}
	.st12{fill:#820A00;}
	.st13{fill:#091E4A;}
</style>
<g>
	<g>
		<g>
			<g>
				<path class="st0" d="M297.1,316.2c5.1,20,8.6,42.2,11.7,62.8c1.7,11.3,0,29.3,8.2,37.6c6,6,21.8,9.6,29.8,9.1
					c16-1,14.4-10.3,14.4-23.9c0-16.4-1.9-32.4-2.8-48.8C338.5,349.7,312.9,336.5,297.1,316.2z"/>
				<path class="st1" d="M367.6,353.5c-1.4,18.4,2.1,37.7,1.2,56.2c-0.8,18.1-2,27.5,17.7,27.5c17.5-0.1,27.6-3.6,30.8-20.3
					c3.4-17.3,2-39.9,1.1-58C403.7,361.8,386.1,360,367.6,353.5z"/>
				<path class="st2" d="M465.7,247.6c1.7,1.6,3.7,3,6.3,4c8.2,3.5,21.6,3.1,21.1-8.6c-0.7-16-12.6-4.5-19.8-13.8
					c5.7-4,13.4-1.9,19.6-6.8c-0.2-2.7-1.4-7.6-2.6-10c-7.2-0.3-15.5,1.5-19.6-5.5c3.5-4.1,9-6.2,14-8.6c2.4-1.1,3.4-4.1,2.1-6.5
					c-4.6-8.7-7.4-8-19.7-4.2c-11.2,3.5-24.4,3.7-35.4,7.8c5.1,0.2,21.6,34.4,24.7,39.2C459.7,239.8,462,244.2,465.7,247.6z"/>
				<path class="st2" d="M298.3,262.1c-9.4-1.6-18.3-3.2-28.8-2.6c-12.5,0.7-17.9,2-13.2-12.5c5.3-16.2,18.2-18.4,33.6-13
					c16.7,5.8,8.6,12.8,9.7,28.1H298.3z"/>
				<path class="st0" d="M303.5,218.9c-4.1-10.1-28,11.8-38.3,19.7c-1.8,1.4-4.3,1.1-5.8-0.5c-1.7-1.9-3.4-4-5-6
					c-1.2-1.6-1-3.8,0.4-5.2c4.9-4.4,10.9-8.4,15.9-11.7c-5.7,0.9-13.4,1.3-19.2-1.2c-2.6-1.2-3.9-4.2-2.8-6.9
					c1.4-3.4,2.7-7,4.2-10.4c0.6-1.4,2.2-2.2,3.7-1.7c15.5,4.5,31.1,1.7,46.6,0.5C303.7,202.2,300.6,209.7,303.5,218.9z"/>
				<path class="st1" d="M367.6,232c-16.5,5.2-27.6-25.7-30.2-38.4c-3.7-17.8-3.1-35,5.6-51.4c11.7-22.1,5-24.1-8.2-43.4
					c-5.2-7.7-8.7-9.5-2.3-18c4.7-6.2,12.2-7.8,18.3-5.9c20.4,6.4,17.3,29.9,26.1,43.3c14.1-11-4.1-62.8,29.5-46.1
					c2.2,1.1,3.3,3.7,2.6,6c-2.1,6.7-3.3,15.9-0.7,21.8c4.7-4.6,5-11.5,6.7-18c0.6-2.2,2.8-3.6,5-3.1c3.7,0.8,7.6,1.8,11.3,3.3
					c1.7,0.7,2.7,2.4,2.5,4.3c-1.5,10.5-10.5,18.7-8.8,30.7c1.7,11.7,8.6,23.1,9.9,35.9c2.4,24.3-0.8,48.1-22.4,62
					C401.9,221.8,384.6,233.6,367.6,232z"/>
				<path class="st0" d="M378,205.8c2.3-5.4,6.1-9.6,7.5-15.4c1.5-6.3-1.8-12.9-1.1-18.6c2.2-16.2,11.8-18,23.6-12.6
					c12.3,5.7,28.3,12.4,41.2,4.6c4.8-2.9,8-12.2,13-12.9c5.1-0.7,15.6,6.7,15.1,12.3c-0.5,5.1-7.6,8.8-10,12.8
					c0.6-1,32.9,9,15.9,21.8c-5.3,4-12.1-0.7-17.6-2.6c-12.1-4.1-29.7-12.1-40.8-1.6c-6.2,5.8-7.3,18.4-15.3,21.3
					C401.7,217.8,386.9,208.8,378,205.8z"/>
				<path class="st0" d="M302.2,213.7c-13.7-31.9,8.2-67.4-0.3-100.6c-2.7-10.6-14.9-19.6-10.5-29.1c5.6-12.2,17.8-10.5,24.5-3.6
					c7.3,7.6,9,21.6,16.1,28.8c10.9,11,14.9-1.4,25.2-5.9c8.5-3.8,21.4,0.2,18.4,13.8c-1.9,8.5-16.6,15.7-21.8,22.8
					c-21.8,29.4-8.9,69.5,0.6,99.9C337.7,229,320.6,220,302.2,213.7z"/>
				<path class="st3" d="M374.6,207.6c-2.1,3.2-9.8,13.6-16.5,13.1c-8.2-0.5-13.6-15.9-19.2-21c-11.9-10.8-27.3-16.2-39.5-3.5
					c-5.7,6-8.1,15.6-10.5,23.7c-6.9,24.3-15.9,49.3-9.1,74.8c9.9,37.4,36.8,74.6,73.6,89.7c24.5,10.1,51.9,25.7,79.7,19.8
					c13.3-2.8,27.4-7.4,35.3-19c8.5-12.5,11.1-29.6,15.4-43.9c8.3-27.5-1.3-48.5-5.6-75.4c-3.5-22.2-3.8-36.5-22-52.3
					c-6.7-5.8-15.5-14.5-24.2-17.2c-12.7-4-9.8,6.1-18.9,10.1c-3.8-5.7-7.1-9.2-14.2-11C384.4,191.9,381.9,197.9,374.6,207.6z"/>
				<path class="st4" d="M409.8,223.3c-0.4,6.5-6.4,11.3-12.9,10.7c-5.2-0.5-10.4-1.9-14.2-8.1c-4.9-7.9-5.5-19.1,4.1-23.3
					C401.2,196.2,410.6,211.2,409.8,223.3z"/>
				<path class="st4" d="M415.5,225c-3,13.5-5.7,23.4-4.3,38.2c1.6,17.8,0.9,36.5,5.9,53.8c4,14.1,24.8,58.6,43.4,34.8
					c11-14.2,6.2-38.1,4.7-54.3c-1.2-13.3,3-23.2,5.4-35.5c3.5-18.1-8.5-41-21.8-52.9c-6-5.4-15.6-6.3-21.6-0.5
					c-5.8,5.6-1.5,16.4-8.1,19.9C417.8,228.2,418,227.3,415.5,225z"/>
				<path class="st4" d="M416.4,368.8c-4.4-19.2-20.2-35.2-24.5-55.4c-3.9-18.4-1.3-35.6,4.6-53.1c5.5-16.1,3.2-14.5-8.9-21.6
					c-5.8-3.4-11.1-17.2-17.5-15.9c-9.1,1.8-7.9,20.6-15.7,24.5c-9-10.2-7.4-28.4-18.3-39.7c-3.9-4-9.5-10.3-15.4-10.3
					c-8,0.1-17.3,10.3-20,17.2c-11.7,29.9-14.7,61.1-5.4,91.7c7.8,25.4,32.3,50.5,57.7,59.3C369.3,371.3,401.4,381.4,416.4,368.8z"
					/>
				<path class="st5" d="M424.2,232.9c9.8,11.1,11.6,28.5,27.9,32.5c11.6,2.8,18.9,3.5,14.6,18.8c-3.5,12.7-14.3,22.4-18.8,35
					c-4.3,11.9-3.7,23.1-4.7,35.7c-12.9-19.3-18.1-43.9-18.1-67.1c0-10.3,0-20.5,0-30.8C425.1,248.5,422.1,240.1,424.2,232.9z"/>
				<path class="st5" d="M393.3,323.5c-5.9-16.5-27.4-20.8-35.3-37c-4.9-10.1-3-27.2-3.3-40.6c-0.1-2.2-2.9-3-4.1-1.2
					c-4.9,7.3-10.3,16.9-16.3,22.8c-8.7,8.6-11.5,16.6-18.3,26.4c-4,5.8-15.3,10-15.3,16.5c0.1,14.3,18.8,13.2,27.3,13.9
					c24.7,2.1,30.2,25.3,47.8,37.7c6.7,4.7,27.4,14.4,33.8,5C415.8,358.1,396,331.1,393.3,323.5z"/>
				<path class="st6" d="M294.2,90c0.6,0.7,1.5,1,2.5,1c6.5,0,19.4-6.1,12.4-12.8C302.8,72.3,288.2,83.7,294.2,90z"/>
				<path class="st7" d="M333.7,91.5c0.9,0.5,1.9,0.6,2.9,0.4c7.2-1.6,20-10.8,10.8-15.5C339.2,72.1,325.7,86.9,333.7,91.5z"/>
				<path class="st8" d="M421.4,227.3c-0.4-0.9-1.7-0.5-1.6,0.5c1.6,12.2,9.3,36.6,9.3,44.9c0,9.6,1.3,19.2,0.5,28.7
					c-0.5,5.8,0.1,45.2,11.8,41.7c-2.1-8.8-6.5-17-7.8-26c-1.7-12.3,0.7-25,0.7-37.3C434.3,267.5,427.9,240.1,421.4,227.3z"/>
				<path class="st8" d="M303.5,313.7c9.6-7.1,30.5,1.1,42.1,3.9c12.2,3,19.6,10.6,28.8,18.6c3.2,2.9,13.2,8.9,13.3,14.1
					c0.3,12.2-22.8-11.5-26.3-14.6c-9.4-8.3-22-14.7-34.5-17C321.3,317.7,308.2,319.6,303.5,313.7z"/>
				<path class="st8" d="M462,278.6c-8.5,6.7-13.9,18.8-17.9,27.4c-4.2,9.1-10.4,32.3-4.8,41.4c3.3-6.9,2.7-16.6,4.8-24.1
					c2.5-9.3,6.2-16.6,10.9-24.9c3.6-6.3,14.8-17.2,15.2-24C467.1,275.2,464.4,276.7,462,278.6z"/>
				<path class="st8" d="M397.6,347c-1.2-9.2-12.8-14.7-19.3-20.2c-9.6-8.2-17.1-13.4-23.4-24c-4.2-7-12.5-44.8-4.3-52
					c5.2,11.9,0.5,22.9,4.5,35.6c3.7,11.7,12.6,20.8,22.2,27.8c10.1,7.4,21.9,20.6,26,32.7C402,348.7,400.7,348.9,397.6,347z"/>
				<path class="st9" d="M344.4,271.8c-0.3-1.5-0.1-3.5-1-4.8c-0.5-0.7-1.5-0.9-2.2-0.3c-1.5,1.6-1,4.2-0.3,6
					c0.5,1.3,2.1,3.6,3.8,3.5c0.2,0,0.3-0.1,0.4-0.3C345.5,274.7,344.7,273,344.4,271.8z"/>
				<path class="st9" d="M336.3,271.7c-0.9-0.6-2.5,0.2-2.4,1.4c0.3,2.6,1.9,4.9,3.2,7.2c1.5,2.7,2.9,5.3,4.6,7.8
					c0.3,0.5,1.1,0.3,1.1-0.3C342.7,282.6,340.8,274.7,336.3,271.7z"/>
				<path class="st9" d="M331.8,306.6c-4.6-3-12.8-5.1-17.6-1.6c-0.7,0.5-0.9,1.6,0,2.1c2.8,1.4,5.3,1.2,8.4,1.2
					c3.1-0.1,6.1-0.2,9.1-0.8C332.1,307.3,332.1,306.8,331.8,306.6z"/>
				<path class="st9" d="M340.6,302.8c-1.3-3-3-5.4-5.7-7.4c-2.4-1.8-5.4-3.9-8.5-4.1c-1.1-0.1-1.9,1.6-1,2.3c2.2,1.8,5,2.8,7.4,4.5
					c2.4,1.7,4.9,3.5,7.3,5.2C340.4,303.6,340.7,303.2,340.6,302.8z"/>
				<path class="st9" d="M351.8,303.1c-0.9-2.1-2.4-4.7-4.6-5.6c-1.5-0.7-2.9,0.4-2.6,2c0.3,2.1,2,4.2,3.3,5.8c1.6,2,3.6,3.7,5,5.8
					c0.3,0.4,1,0.2,0.9-0.4C353.1,308.1,352.9,305.6,351.8,303.1z"/>
				<path class="st9" d="M329.5,283.6c-0.9-0.1-1.2,1.1-0.7,1.6c0.7,0.8,1.3,1.5,2.1,2.1c0.8,0.6,1.6,1.2,2.3,1.9
					c1.4,1.4,2.8,2.8,4.1,4.2c0.3,0.3,1,0.1,0.9-0.4C337.7,288.5,334.2,284,329.5,283.6z"/>
				<path class="st9" d="M367.3,345.6c-1.4-0.4-2.3,1.1-1.8,2.3c1.1,2.6,3.6,4.7,5.7,6.6c2.2,1.9,4.5,3.4,7.1,4.7
					c0.2,0.1,0.5-0.1,0.5-0.4C377.2,353.6,373,347.1,367.3,345.6z"/>
				<path class="st9" d="M399.5,346.9c-2.1-2-5.3-5.1-8.5-4.9c-0.2,0-0.3,0.2-0.3,0.4c0.5,2.8,3.1,5.4,4.5,7.7
					c1.5,2.5,3,6.3,5.7,7.6c1.2,0.5,2.9,0.2,3.2-1.3C404.9,352.8,401.9,349.3,399.5,346.9z"/>
				<path class="st9" d="M396.8,359.8c-1.5-1.2-3.1-2.7-5-3.4c-0.5-0.2-1.1,0.4-0.9,0.9c0.6,1.8,2,3.4,3.1,4.9
					c0.6,0.7,1.2,1.4,1.9,2c0.8,0.8,1.4,1.6,2.5,1.8c0.8,0.1,2-0.4,1.9-1.4C400.1,362.6,398.2,360.9,396.8,359.8z"/>
				<path class="st9" d="M390.7,319.7c-0.8-1.7-2.7-3.2-4.3-4.3c-1.3-1-3-2.5-4.7-2.4c-0.3,0-0.5,0.2-0.5,0.5c0.2,1.8,1.9,3.2,3,4.4
					c1.3,1.4,3.1,3.1,5,3.6C390.5,321.9,391.2,320.7,390.7,319.7z"/>
				<path class="st9" d="M379.6,332.9c-1.4-2.9-3.8-4.4-6.2-6.3c-2.4-1.8-4.5-4.2-6.9-5.8c-0.5-0.3-1,0.2-0.9,0.7
					c0.5,3.1,2.8,6.2,4.7,8.6c2.2,2.7,4.6,4.8,8.2,5C379.5,335.2,380,333.9,379.6,332.9z"/>
				<path class="st9" d="M439,259c-0.6-0.4-1.3-0.2-1.8,0.2c-1.3,1.3-1.5,3.3-1.3,5c0.1,1,0.2,1.9,0.3,2.9c0.1,1.1,0.7,1.6,1.1,2.6
					c0.1,0.3,0.6,0.5,0.9,0.2c0.7-0.8,1.4-1.1,1.9-2c0.5-1,0.8-2.3,0.9-3.4C441.2,262.6,440.9,260.2,439,259z"/>
				<path class="st9" d="M457.5,272.1c-3.5-0.1-5.6,3.6-7.4,6.1c-1.8,2.7-3.7,6.2-3.6,9.6c0,0.4,0.5,0.7,0.8,0.5
					c2.5-1.9,4.4-4.8,6.5-7.2c1.9-2.3,5-4.3,5.1-7.5C459,272.7,458.3,272.1,457.5,272.1z"/>
				<path class="st9" d="M444.6,272.9c-0.2-1.6-1.7-2.2-2.9-1.2c-3.9,3.2-4.4,10.2-2,14.4c0.3,0.6,1.2,0.6,1.5,0
					c1.2-2.1,1.6-4,2.3-6.3C444.1,277.6,444.9,275.4,444.6,272.9z"/>
				<path class="st9" d="M441.1,300.4c-0.6-1.6-2.7-2-3.6-0.5c-1.3,2-1.3,4.9-1.2,7.2c0.1,1.9,0.1,4.1,1.4,5.6
					c0.1,0.1,0.3,0.2,0.5,0.1c1.6-1.1,2.1-3.2,2.6-5C441.3,305.5,441.9,302.7,441.1,300.4z"/>
				<path class="st9" d="M446.8,292c-0.8-0.5-1.9,0.2-2.4,0.8c-0.6,0.8-0.8,1.9-0.9,2.8c-0.1,0.9,1.1,1.5,1.8,1
					c0.8-0.5,1.5-1.1,1.9-2C447.6,294,447.6,292.5,446.8,292z"/>
				<path class="st9" d="M391,204.5c-5.3,1-8.2,6.3-6.3,11.2c0.2,0.4,0.9,0.4,0.8-0.1c-0.5-3.9,4-6.9,7.5-5.6c2.8,1,4.3,3.9,7.2,4.9
					c0.9,0.3,1.8-0.4,2.1-1.2C404.4,207.6,395.9,203.5,391,204.5z"/>
				<path class="st9" d="M402.7,221.8C402.7,221.8,402.7,221.8,402.7,221.8c-1.3,0.2-2.2,1.1-3.1,2.1c-0.7,0.8-1.5,1.5-1.9,2.4
					c-0.4,0.5-0.7,1-1.1,1.4c-0.4,0.4-0.1,1,0.3,1.2c0.8,0.3,1.4,0.6,2.2,0.8c1.5,0.4,2.9,0,4.4-0.7c1.6-0.8,2.6-2,2.8-3.6
					c0.1-0.2,0.1-0.5,0.1-0.7C406.8,222.4,404.7,220.7,402.7,221.8z"/>
				<path class="st9" d="M454.7,220.8c-3.5-4.3-8.6-9-14.5-9.7c-3.3-0.4-7.9,0.6-8.5,4.4c-0.1,0.4,0.4,0.8,0.8,0.5
					c6.7-6.9,17.5,18.7,18.7,22c2.5,6.9,2.6,15.6,8.7,20.4c1.2,0.9,3,1.3,4.1,0C473.1,247.9,461.8,229.4,454.7,220.8z"/>
				<path class="st9" d="M324.2,205.9c-1.6-2.4-4.3-3.6-7.2-2.9c-13.8,3.4-19.5,21.5-21.3,33.9c-2.3,15.4-0.8,32.6,5.1,47
					c0.2,0.5,1.1,0.5,1.1-0.1c0.1-8.9,1.9-17.5,3.2-26.2c1.1-7.3,2-14.6,3.6-21.7c1.5-6.6,4-13.7,9.1-18.4
					C321,214.5,327.9,211.4,324.2,205.9z"/>
				<path class="st9" d="M386.5,241c-3.6-3.4-10.7-10.8-16.3-8.6c-6.4,2.5-4.8,15-4.1,20.2c0,0.3,0.3,0.4,0.5,0.1
					c2.5-3.7,3.8-7.6,5.5-11.4c1.8,2.7,4.7,8.1,5.1,9.1c2.2,4.4-0.6,9.3-1.4,14c-1.6,9.3-1.5,18.7,3.7,26.8c1.5,2.3,4.9,1.9,5.7-0.7
					c3-9.3,3.2-19.2,5.8-28.6C393.3,253.5,393.1,247.3,386.5,241z"/>
				<path class="st9" d="M355.6,352.4c-3.6-4.3-8.1-5.9-13.1-8.2c-4.9-2.3-9.3-5.2-14.1-7.6c-0.5-0.2-1.1,0.2-0.9,0.7
					c3.3,10.4,15.2,22.4,26.8,19.8C356.6,356.6,356.9,353.9,355.6,352.4z"/>
				<path class="st9" d="M481.4,320.2c-0.1-2-2.8-2.4-3.5-0.5c-5.8,16.4-5.8,33.9-14.5,49.5c-8,14.3-20.8,22.9-36.8,25.8
					c-0.3,0-0.3,0.5,0,0.5c15.1,2.5,29.5-7.9,38.2-19.3C476.4,361.3,482.5,338.9,481.4,320.2z"/>
				<path class="st9" d="M431.7,352.8c-3.1-6-8.1-10.8-11.3-16.7c-3.7-6.7-6.4-13.9-8.3-21.3c-4.3-16.3-4.6-33.3-3.8-50
					c0-0.3-0.6-0.4-0.6-0.1c-3.2,17.5-5.5,35.4-2.2,53.1c2.5,13.3,9.2,32.6,22.3,39C430.4,358.1,433.2,355.5,431.7,352.8z"/>
				<path class="st9" d="M425.1,151.6c-10.8-14.1-37.2-11.4-48.2,1.5c-6.1,7.2-5.3,16-4.9,24.8c0.5,11.6-2.3,20.4-8.2,30.2
					c-0.1,0.2,0.1,0.6,0.4,0.5c13.8-5.4,14.6-24,15.1-36.4c0.4-10.3,5.4-18.4,16.6-18.4c9.3,0,17.8,5.4,27,3
					C425,156.2,426.5,153.4,425.1,151.6z"/>
				<path class="st9" d="M357.7,80.1c-0.9-0.1-1.8,0.6-2.3,1.3c-1.7,2.9,0.3,5.9,1.5,8.5c1.2,2.5,2.2,5.5,4.1,7.5
					c0.4,0.5,1.1,0.3,1.5-0.2C365.6,92.9,364.2,80.7,357.7,80.1z"/>
				<path class="st9" d="M487.6,218.3c-2.8-0.7-5.6,0.2-8.2,0.9c-2.4,0.6-5,1-6.9,2.5c-0.3,0.3-0.3,0.9,0,1.2
					c3.8,3.2,12.8,2.6,16.1-1C489.6,220.7,489.2,218.7,487.6,218.3z"/>
				<path class="st9" d="M488.2,244.4c-1.6-0.6-3.4-0.1-5,0.5c-1.5,0.6-3.1,1.1-4.5,2.1c-0.4,0.3-0.4,0.8,0,1.1
					c2.8,1.7,8.5,1.9,10.4-1.4C489.6,245.7,489.1,244.7,488.2,244.4z"/>
				<path class="st9" d="M467.3,201c-4.7,0.8-8.8,2.3-13.6,1.9c-0.8-0.1-0.9,1.1-0.2,1.3c4.6,1.4,10.6,1.8,14.7-1.2
					C469.3,202.3,468.6,200.8,467.3,201z"/>
				<path class="st9" d="M272.6,251.6c-2.1-0.3-3.6,0-5.7,0.3c-1,0.2-2,0.3-2.9,0.5c-0.9,0.2-1.8,0.7-2.7,0.8
					c-0.6,0.1-0.7,1-0.2,1.3c0.9,0.5,1.5,1.2,2.5,1.6c1.2,0.4,2.3,0.6,3.6,0.6c2.6,0.1,4.3-0.3,6.3-1.9
					C274.6,254,274,251.8,272.6,251.6z"/>
				<path class="st10" d="M356.8,391.8c-3-5.2-10.3-3.6-12.2,1.6c-2,5.6-1.3,14.3,0.1,20c0.4,1.6,3.1,8.5,5.9,7.4
					C360.8,417.1,361.6,400,356.8,391.8z"/>
				<path class="st10" d="M286,212.6c-6.5-4.8-21.9,13.9-18.4,16.4c1.8,1.3,4.5,0,6.4-0.7c2.6-1,4.9-2.4,7.2-4
					C283.8,222.4,290.6,216,286,212.6z"/>
				<path class="st10" d="M284.2,201.8c-2.3,0.2-4.5,1.3-6.8,1.7c-2.7,0.4-5.7,0.5-8.4-0.3c-0.6-0.2-0.8,0.6-0.4,0.9
					c4.4,3.3,12.6,5.9,16.8,0.8C286.3,203.8,285.9,201.6,284.2,201.8z"/>
				<path class="st10" d="M359,120.3c-14-0.8-23.7,19.4-27.6,30.5c-4.2,11.9-6.1,29.3,2.4,39.9c0.2,0.3,0.7,0.1,0.7-0.2
					c2.7-12.2,2.2-24.3,7.4-36c2.5-5.8,6-11.4,10.2-16.1c3.9-4.4,8.5-7.9,10.1-13.8C362.8,122.3,361.1,120.4,359,120.3z"/>
				<path class="st10" d="M325.5,103.4c-1.8-5.5-4.4-12.1-10.7-13.4c-1.2-0.3-2.8,0.1-3.4,1.4c-2.8,5.8,0.2,11.5,3.2,16.6
					c2.7,4.4,6.1,9.8,11.3,11.3c0.2,0.1,0.4,0,0.5-0.2C328.7,114.4,327.1,108.2,325.5,103.4z"/>
				<path class="st10" d="M467.3,185.1c-8.8-8.3-25.9-10.5-37.1-6.7c-8.1,2.8-17.7,9.7-16.5,19.3c0,0.4,0.6,0.7,0.9,0.4
					c5.4-6.9,11.4-11.9,20.6-12.1c10.3-0.2,19.2,6.3,29.3,6.1C467.8,192,469.9,187.6,467.3,185.1z"/>
				<path class="st10" d="M472.3,162.3c-1.1-1.4-3.5-2.2-5-1c-2,1.5-3.8,3.1-5.2,5.2c-0.9,1.2-2.1,3.5-1.6,5.2
					c-0.1,0.9,0.5,1.5,1.4,1.4c1.5,0.5,3.9-0.4,5.1-1.1c2-1.1,3.7-2.8,5.2-4.5C473.3,166,473.6,163.9,472.3,162.3z"/>
				<path class="st11" d="M312.2,83.3c-2.7,2.2-4.5,5.1-7.6,6.8c-3.9,2.2-9.2,2-11.7-2.2c-0.3-0.4-0.9,0-0.7,0.4
					c5,9,17,1.9,20.6-4.6C313.2,83.4,312.6,83,312.2,83.3z"/>
				<path class="st11" d="M352.2,78.8c-2,8.5-10.8,14.1-19.4,12.2c-0.4-0.1-0.6,0.5-0.2,0.6c9.1,2.2,18.4-3.5,20.5-12.6
					C353.4,78.4,352.4,78.1,352.2,78.8z"/>
				<path class="st11" d="M413.3,215.4c-2.4-8.8-8.9-19.5-19-20.2c-10.9-0.8-16.9,9.6-18.8,18.9c-0.1,0.5,0.6,0.7,0.8,0.2
					c2.5-9.9,10.6-21.4,22.3-15.7c7.1,3.5,9.3,11.2,12.7,17.6C411.9,217.3,413.6,216.5,413.3,215.4z"/>
				<path class="st11" d="M335.2,200.6c-0.4-0.4-0.9,0.2-0.6,0.6c8.8,11.3,12.3,23.3,16.5,36.7c0.3,1,2.1,0.9,2-0.3
					C352.2,223.9,344.1,210.7,335.2,200.6z"/>
				<path class="st11" d="M308.3,193.7c-12.6,1.3-17.6,16.4-19.7,26.9c-3.5,17.4-5.8,35.3-6.2,53.1c0,0.5,0.7,0.5,0.8,0
					c1.9-14.8,3.8-29.6,6.8-44.2c1.4-6.6,2.6-13.6,5.5-19.7c3.1-6.4,7.7-9.7,13.6-13.1C310.4,196,309.9,193.6,308.3,193.7z"/>
				<path class="st11" d="M285.3,290.8c-0.1-0.1-0.1-0.2-0.2-0.3c0,0,0,0,0,0c0-0.2-0.1-0.5-0.3-0.7c-0.3-0.3-1-0.4-1.3,0
					c-0.3,0.4-0.4,1,0,1.3c0.2,0.1,0.3,0.2,0.5,0.3c0.1,0,0.1,0,0.2,0c0.1,0.1,0.2,0.1,0.3,0.2C285.1,291.7,285.5,291.2,285.3,290.8
					z"/>
				<path class="st11" d="M289.4,302.3c-0.3-0.7-0.6-1.6-1.5-1.7c-0.5-0.1-1.1,0.1-1.4,0.6c-0.1,0.2-0.2,0.5-0.2,0.8
					c0,0.3,0.2,0.6,0.3,0.9c0.1,0.3,0.3,0.5,0.4,0.8c0.3,0.7,1.3,0.9,1.9,0.5C289.6,303.8,289.8,303,289.4,302.3z"/>
				<path class="st11" d="M293.2,313.1c-0.2,0-0.4-0.1-0.6-0.1c-0.5-0.1-1.1,0-1.4,0.4c-0.3,0.3-0.4,0.6-0.4,1c0,0.4,0.2,0.8,0.4,1
					c0.4,0.4,0.9,0.5,1.4,0.4c0.2,0,0.4-0.1,0.6-0.1c0.5-0.1,1-0.7,0.9-1.2C294.1,313.8,293.8,313.3,293.2,313.1z"/>
				<path class="st11" d="M399.8,392.6c-16.3-7.8-33.8-12.3-49.6-21.5c-16.3-9.4-31.1-21.1-44.3-34.4c-0.4-0.4-1,0.2-0.7,0.7
					c12.2,14.7,26.7,27.1,43,37.2c15.2,9.4,32.8,19.3,50.9,20.6C400.5,395.3,401,393.2,399.8,392.6z"/>
				<path class="st11" d="M420.8,351.5c-9.8-13.2-17.5-25.1-20.6-41.6c-3.6-18.9-0.9-38.9,3.4-57.5c0.1-0.6-0.8-0.9-1-0.3
					c-6.8,19.1-11,38.9-7.9,59.2c2.4,15.5,9.6,33.9,23.3,42.8C419.7,355.4,422.1,353.2,420.8,351.5z"/>
				<path class="st11" d="M429.9,198.1c-9.7,1.3-12.8,12.7-12.7,21.1c0,0.6,0.7,0.8,1.1,0.4c2.8-2.3,2.9-6.2,3.9-9.4
					c1.7-5.1,5.8-6.1,9.3-9.3C432.9,199.6,431.4,197.9,429.9,198.1z"/>
				<path class="st11" d="M474.7,305c-0.3-2.9-2.3-5.3-2.7-8.2c-0.5-3.7,0.4-7.3,0.6-11c0-0.5-0.8-0.8-1-0.3
					c-2.9,5.6-3.1,10.7-1.8,16.7c1,4.7-1,7.9-1.1,12.4c-0.1,3.9,0.5,7.5,2.1,11c0.7,1.6,3.1,0.7,3.1-0.8c0-3.4-0.9-6.8-0.8-10.2
					C473.2,311.5,475,308.3,474.7,305z"/>
				<path class="st11" d="M462.9,350.9c-1.9,3.1-3.5,6.3-6,9c-2.6,2.8-5.7,4.3-8.7,6.5c-0.2,0.1-0.2,0.4,0.1,0.5
					c8.1,1.7,17.5-7.4,17.4-15.2C465.6,350.2,463.6,349.7,462.9,350.9z"/>
				<path class="st11" d="M469.5,375.6c-3.5,3.4-6.4,7.4-9.9,10.8c-3.5,3.4-7.3,6.4-11.1,9.5c-0.4,0.3,0.1,0.8,0.5,0.6
					c8.4-3.7,18.3-10.9,22.5-19.4C472.1,375.9,470.6,374.6,469.5,375.6z"/>
				<path class="st11" d="M407,231.9c-0.5,1.5-1.3,2.9-2.1,4.3c-0.7,1.1-1.9,2.2-2.2,3.5c0,0.2,0.1,0.4,0.3,0.5
					c1.7,0.6,3.6-1.1,4.6-2.2c1.4-1.6,2-3.6,1.9-5.7C409.4,230.8,407.4,230.6,407,231.9z"/>
				<path class="st11" d="M299.7,98.6c-0.4-0.4-1,0.2-0.7,0.7c9.3,11.3,9.8,27.3,8.1,41.2c-1.6,13.4-8.6,31.8-2.9,44.8
					c0.6,1.3,2.8,0.9,3.1-0.4c2-8.7,1.2-18.3,2.4-27.2c1.1-8.2,2.6-16.4,2.7-24.7C312.7,120.1,309.2,107.7,299.7,98.6z"/>
				<path class="st11" d="M346.7,103.7c-1.1-1.5-2.2-2.9-3.5-4.3c-0.6-0.6-1.2-1.2-1.9-1.8c-0.7-0.6-1.3-0.9-2-1.4
					c-0.4-0.3-0.9,0.2-0.8,0.6c0.2,0.9,0.3,1.6,0.5,2.4c0.3,0.8,0.5,1.5,0.9,2.2c0.7,1.6,1.5,3.2,2.5,4.6
					C344.2,108.9,348.5,106.3,346.7,103.7z"/>
				<path class="st11" d="M373,113.2c-1.5-5.8-8-8.4-13.6-7.9c-7.5,0.6-11.5,7.1-16.8,11.5c-0.4,0.3,0,0.9,0.5,0.8
					c4.4-1.4,7.6-4.7,11.7-6.7c6.3-3,10.9,0.8,15.8,4.2C371.9,115.9,373.4,114.5,373,113.2z"/>
				<path class="st11" d="M396.1,75.3c-1-2.4-4.8-3.7-6.2-0.8c-2.2,4.7-1.8,9.8-2.2,14.9c-0.5,6.5-1.5,13-3.6,19.2
					c-4.4,13.2-15.8,19.4-24.5,29.4c-16.3,18.8-14.9,49.9-5.9,71.6c0.1,0.2,0.5,0.2,0.5-0.1c0.1-15-4-29.3-1.2-44.4
					c2.7-14.7,10.4-23.9,21.9-32.9c8.5-6.6,14.8-14.2,18.3-24.5c1.8-5.2,2.6-10.7,3.2-16.1C397,86.4,398.1,80.3,396.1,75.3z"/>
				<path class="st11" d="M421,82.3c-0.3-1.3-2.1-1.7-2.9-0.8c-2.8,3.1-3.1,7.4-3.9,11.3c-0.9,4.2-1.6,8.5-2,12.8
					c0,0.5,0.7,0.7,0.9,0.3c2.3-3.7,4.1-7.7,5.6-11.8C420.1,90.2,422,86.3,421,82.3z"/>
				<path class="st11" d="M461.2,153.8c-12,18.6-32.9,16.1-50.9,8.9c-5-2-11.1-4.1-16.1-1.1c-3.6,2.2-5.2,5.9-3.8,9.9
					c0.2,0.5,0.8,0.3,0.8-0.2c-0.8-5.3,4.3-7.9,8.6-7.9c3,0,5.3,1,8,2.2c2.9,1.2,5.7,2.6,8.6,3.6c7.1,2.5,14.7,3.9,22.3,3.1
					c10.6-1.1,21.1-6.7,25.8-16.6C465.5,153.6,462.5,151.8,461.2,153.8z"/>
				<path class="st11" d="M482.9,184.9c-1.9-1.8-5-2.7-7.3-3.7c-3.3-1.4-6.4-3-9.9-3.8c-0.5-0.1-1.1,0.6-0.6,1
					c3.6,2.8,7.8,4.8,11.8,6.9c2,1,4.4,1.8,3.8,4.4c-0.4,1.8-1.5,2.5-1.1,4.4c0.2,0.8,1.1,1.1,1.8,1
					C485.8,194.3,485.6,187.4,482.9,184.9z"/>
				<path class="st11" d="M370.1,220.8c-3.2-1.3-6.1,0.8-8,3.2c-2.4,3-3.3,6.7-4.2,10.3c-0.1,0.5,0.7,0.9,0.9,0.4
					c1.2-2.8,2.4-5.6,4.4-7.9c1.9-2.2,4.5-2.8,6.9-4.4C370.7,222.1,370.8,221.1,370.1,220.8z"/>
				<path class="st11" d="M281.8,198.2c-7-1-16-2.5-22.9-0.8c-5.3,1.3-6.9,9-7.7,13.5c-0.1,0.3,0.4,0.6,0.6,0.2c1.5-2.4,2.3-5.7,4-8
					c2.4-3,5.1-3.3,8.7-3.1c5.7,0.4,11.3,0.4,17-0.1C282.4,199.9,282.8,198.4,281.8,198.2z"/>
				<path class="st11" d="M270.2,215.2c-2.6,1.4-4.8,3.5-7.1,5.5c-1.8,1.6-4.5,3.4-5.4,5.7c-1.8,4.4,3.6,6,3.9,9.9
					c0.1,0.6,1,0.7,1,0c0.1-1-0.1-1.8-0.5-2.7c-1-2.3-2.9-3.2-1.8-5.8c2-4.5,8.3-6.7,11.4-10.6C272.6,216.1,271.6,214.4,270.2,215.2
					z"/>
				<path class="st11" d="M319.6,385.2c-1.2-7.9-2.5-16.9-6.5-23.9c-0.2-0.4-0.8-0.2-0.8,0.2c-0.7,9.2,1.4,19.1,1.8,28.4
					c0.4,7.4-0.3,15.8,4.9,21.7c1.4,1.6,4.1,0.3,4.1-1.7C323.2,401.8,320.8,393.2,319.6,385.2z"/>
				<path class="st11" d="M379.7,412.8c-0.4-6-1.1-13.3-5.7-17.6c-0.3-0.2-0.6-0.1-0.7,0.3c-0.8,7.1-0.6,14.9-0.8,22.1
					c-0.2,4.9-1.1,11.9,4.1,14.4c0.6,0.3,1.6,0.3,2.1-0.3C382.6,427.1,380.1,418.5,379.7,412.8z"/>
				<path class="st9" d="M402.7,413c-0.6,3-1.2,6.4-1.4,9.5c-0.1,2.8,0.7,4.7,1.8,7.2c0.2,0.4,0.8,0.5,1.1,0.3
					c2.9-1.3,4.8-2.6,6.1-5.6c1.4-3.1,2.1-6.6,2.3-10C413,408.7,403.8,407.3,402.7,413z"/>
			</g>
			<g>
				<path class="st12" d="M409.4,58.7c0-0.7,0-1.4-0.1-2.1c-0.1-1.4-0.2-2.8-0.2-4.1c0-0.4-0.5-0.6-0.8-0.3
					c-2.8,2.6-5.7,5.3-8.5,7.9c-0.3,0.2,0.1,0.6,0.4,0.4c1.9-1.7,3.9-3.3,5.8-5c-5.1,9-6.8,19.5-8.2,29.6
					c-1.5,11.5-2.5,23.2-6.6,34.2c-2.3,6.3-5.8,12.4-11.2,16.5c-2.4,1.3-4.7,2.7-6.9,4.4c-2.7,2.1-5.2,4.4-7.5,7
					c0.4-4.5,0.3-9-0.3-13.5c-0.3-2.4-0.8-4.8-1.3-7.1c-0.6-2.4-1.1-5.3-2.4-7.4c-0.3-0.6-1.1-0.2-1,0.4c0.5,2.4,1.7,4.8,2.3,7.3
					c0.6,2.3,1.1,4.6,1.5,6.9c0.7,4.6,0.9,9.2,0.8,13.8c-3.2,3.8-5.7,8.2-7.2,12.9c-3,9.8-1.7,20.9,0.9,30.6
					c2.4,8.8,6.5,17.5,12.8,24.1c6.6,6.8,16.4,12.5,26.2,11.8c0.2,0,0.3-0.4,0.1-0.4c-8.7-1.3-16.4-4.5-22.7-10.7
					c-6.1-6-10.5-13.8-13.2-21.9c-3-9.1-4.6-19.6-2.9-29.1c1.6-8.4,6.5-15.7,12.9-21.2c3.8-3.3,8.2-5.8,12.7-7.9
					c4.7-2.2,9.8-3.3,14.6-5.3c0.1,0,0.1-0.1,0.1-0.1c0.1,0,0.2,0.1,0.3,0.1c-1.2,0.8-2.4,1.7-3.4,2.7c-0.7,0.7-1.3,1.4-1.9,2.2
					c-0.3,0.4-0.7,0.8-0.9,1.3c-0.2,0.4-0.4,0.8-0.3,1.3c0,0.2,0.3,0.3,0.4,0.2c0.4-0.1,0.7-0.4,0.9-0.7c0.3-0.3,0.6-0.7,0.9-1.1
					c0.6-0.7,1.2-1.4,1.9-2.1c1.3-1.3,2.8-2.4,4.4-3.4c0.5-0.3,0.4-1.1-0.2-1.3c-1.8-0.5-3.6-0.9-5.4-1.4c-0.9-0.2-1.8-0.5-2.7-0.6
					c-0.5-0.1-0.9-0.2-1.4-0.2c-0.3-0.1-0.6-0.2-1,0c-0.1,0-0.1,0.1-0.1,0.2c0.2,0.3,0.5,0.4,0.8,0.5c0.4,0.2,0.9,0.4,1.3,0.5
					c0.9,0.3,1.8,0.6,2.6,0.8c0.1,0,0.3,0.1,0.4,0.1c-3.8,0.8-7.5,2.2-11,3.7c-1,0.4-2,0.9-3,1.4c7.5-6.5,10.9-17.1,13-26.5
					c2.5-11.6,3.2-23.5,5.9-35.1c1.5-6.2,3.6-12.2,6.6-17.8c0,0.5-0.1,1.1-0.1,1.6c0,0.7,0,1.4-0.1,2.1c0,0.7-0.1,1.4,0,2.1
					c0.2,0.7,1.3,0.7,1.5,0C409.5,60.1,409.4,59.4,409.4,58.7z"/>
				<path class="st12" d="M350.9,95.2c-2.3-3.8-4.6-7.5-7-11.2c-4.8-7.2-10.1-14-16.5-19.8c0,0-0.1-0.1-0.1-0.1c0,0,0-0.1,0-0.1
					c1.6,0.4,3.3,0.8,4.9,1.2c1,0.3,1.9,0.5,2.9,0.8c0.5,0.1,1,0.2,1.5,0.3c0.5,0.1,1,0.2,1.4,0.1c0.4-0.1,0.5-0.6,0.2-0.9
					c-0.3-0.3-0.8-0.5-1.3-0.7c-0.5-0.2-1-0.4-1.5-0.5c-1-0.2-2-0.5-2.9-0.6c-2-0.3-4.1-0.6-6.1-0.9c-0.5-0.1-0.8,0.4-0.6,0.8
					c0.1,0.3,0.3,0.6,0.4,1c-0.1,0.2-0.1,0.5,0.2,0.7c0.1,0.1,0.1,0.1,0.2,0.2c0.8,2.2,1.2,4.5,1.4,6.9c0,0.3,0.5,0.3,0.5,0
					c0.1-1.8,0-3.6-0.4-5.4c5.3,5.2,10.1,11.1,14.3,17.3c2.3,3.3,4.4,6.6,6.6,10c1.1,1.8,2.2,3.5,3.3,5.3c1.2,2,2.3,3.9,2.4,6.3
					c0,0.3,0.4,0.3,0.4,0C355.3,101.9,352.8,98.4,350.9,95.2z"/>
				<path class="st12" d="M411.2,378c-0.1-0.3-0.5-0.2-0.5,0.1c-0.3,2.7-0.2,5.4-0.6,8.1c-0.3,2.7-1,5.3-1.3,7.9
					c-0.1,0.7,0.9,0.7,1.1,0.1c1-2.5,1.2-5.4,1.4-8.1C411.5,383.4,411.6,380.6,411.2,378z"/>
				<path class="st12" d="M404.2,442.2c-2.2,0.9-4.2,2.5-6,4.1c0-0.2-0.1-0.4-0.1-0.6c0,0,0,0,0.1,0c1.6-2.4,2.3-5.6,3.2-8.4
					c1-3.1,2-6.3,2.8-9.4c1.6-6,2.9-12.2,3.7-18.4c0-0.3-0.5-0.4-0.5-0.1c-1.3,6.1-2.6,12.2-4.2,18.1c-0.8,2.9-1.7,5.9-2.7,8.8
					c-0.8,2.5-2,5-2.7,7.5c-0.1-0.4-0.2-0.9-0.3-1.3c-0.4-1.6-0.8-3.1-1.3-4.6c-0.1-0.3-0.6-0.2-0.5,0.1c0.2,1.6,0.5,3.2,0.8,4.8
					c0.3,1.6,0.7,3.2,1,4.8c0.1,0.5,0.7,0.5,1,0.3c1-0.9,2.1-1.7,3.2-2.5c1.1-0.8,2.2-1.5,3.3-2.3
					C405.2,442.7,404.8,442,404.2,442.2z"/>
				<path class="st12" d="M411.9,313.4c-0.6-19.2-0.8-38.3-0.2-57.5c0.2-5.4,0.4-10.9,0.8-16.3c0.3-5.4,0.9-10.8,1-16.3
					c0-0.7-1.1-0.8-1.2-0.2c-1.5,9.4-1.7,19-2.1,28.5c-0.4,9.7-0.6,19.4-0.5,29.1c0,19.4,0.7,38.8,1.7,58.2
					c0.5,10.9,1.3,21.8,2.3,32.6c0,0.2,0.3,0.2,0.3,0C413.9,352.2,412.5,332.8,411.9,313.4z"/>
				<path class="st12" d="M418.7,183.2c-0.1-0.5-0.8-0.4-0.9,0c-0.5,1.3-0.4,2.8-0.5,4.2c-0.1,1.4-0.2,2.7-0.3,4.1
					c-0.3,2.9-0.6,5.9-0.9,8.8c-0.7,6-1.8,12-2.8,18c0,0.2,0.3,0.3,0.3,0.1c1.5-5.9,2.5-12,3.4-18c0.4-2.7,0.7-5.5,1.1-8.2
					c0.2-1.6,0.3-3.2,0.5-4.7C418.7,186.1,419,184.6,418.7,183.2z"/>
				<path class="st12" d="M444.7,63.4c-3.7,1.5-7.4,3.2-10.9,5.1c-0.3,0.2,0,0.5,0.2,0.4c3.2-1.4,6.5-2.7,9.8-3.9
					c0,0.1-0.1,0.2-0.1,0.4c-0.1,0-0.2,0-0.4,0.1c-10.9,6.3-17.8,18.8-21.4,30.4c-4,12.9-4.4,26.3-4.1,39.7c0-0.1-0.1-0.2-0.1-0.3
					c-0.7-1.1-1.6-2.2-2.6-3c-2.1-1.7-4.6-2.6-7.3-2.4c-0.4,0-0.4,0.6,0,0.6c2.4,0,4.8,1.1,6.6,2.6c0.9,0.8,1.6,1.7,2.2,2.7
					c0.3,0.5,0.5,1,0.7,1.6c0.2,0.5,0.2,1.3,0.6,1.7c0,0,0,0,0,0c0,0.7,0,1.4,0.1,2.1c0.4,9.9,1,19.8,0.8,29.7c0,0.1,0.2,0.1,0.2,0
					c2.4-29.7-6-61.6,10-88.8c3.7-6.2,8.4-11,14.1-15.3c-0.3,0.8-0.6,1.6-0.8,2.4c-0.3,0.9-0.6,1.8-0.8,2.7
					c-0.2,0.9-0.4,1.8-0.4,2.7c0,0.5,0.6,0.6,0.9,0.2c0.5-0.8,0.9-1.7,1.1-2.5c0.3-0.9,0.6-1.8,0.8-2.7c0.5-1.8,0.9-3.7,1.5-5.5
					C445.6,63.8,445.2,63.3,444.7,63.4z"/>
				<path class="st12" d="M505.1,171.9c-1.8,1.7-3.4,3.8-5.2,5.5c-1.9,1.8-3.9,3.4-6.1,4.9c-2,1.4-4.2,2.6-6.4,3.7
					c-1.2,0.6-2.4,1.1-3.7,1.6c-1.1,0.4-2.2,0.7-3.1,1.5c-0.4,0.4-0.1,1,0.4,1.1c1.2,0.1,2.3-0.4,3.4-0.9c1.2-0.5,2.5-1.1,3.7-1.8
					c2.3-1.3,4.6-2.7,6.7-4.3c2-1.5,3.9-3.2,5.6-5c1.7-1.8,3.8-3.8,4.9-6.1C505.4,171.9,505.2,171.8,505.1,171.9z"/>
				<path class="st12" d="M471,193.9c-2.7,2.4-5.8,4.3-9,5.8c-2.6,1.2-5.3,1.8-8,2.3c1.3-0.9,2.4-2.1,3.3-3.4
					c0.2-0.2-0.2-0.5-0.4-0.2c-1.3,1.8-3.1,3.2-5.2,4.1c0,0,0,0-0.1,0c-0.2,0-0.3,0.1-0.4,0.2c-0.1,0-0.2,0.1-0.2,0.1
					c-0.3,0.1-0.5,0.6-0.1,0.8c0,0,0,0,0,0c0.1,0.5,0.4,0.9,1,0.9c0.1,0,0.3,0,0.4-0.1c0.7,0.4,1.4,0.9,2.2,1.3
					c1.2,0.6,2.4,1.4,3.8,1.8c0.5,0.1,0.9-0.5,0.5-0.9c-1.1-0.9-2.4-1.4-3.6-2.1c-0.3-0.2-0.6-0.3-1-0.5c2.9-0.6,5.8-1.7,8.3-3.1
					c3.3-1.7,6.3-4,8.9-6.7C471.8,194.1,471.3,193.6,471,193.9z"/>
				<path class="st12" d="M516.2,225.8c-1.2-2.7-3.8-4.2-6.6-5c-3.9-1.1-8.2-1.5-12.2-1.9c-4.7-0.4-9.4-0.7-14.1-0.8
					c-4.9-0.1-9.9-0.3-14.8,0.3c1.7-0.9,3.3-1.8,4.9-2.8c0.2-0.1,0-0.4-0.2-0.3c-2.3,1.3-4.7,2.4-7.2,3.3c-0.3,0.1-0.5,0.7-0.1,0.8
					c0.7,0.3,1.3,0.6,1.9,1c0.6,0.4,1.3,0.7,1.9,1c0.7,0.3,1.3,0.6,2,0.9c0.7,0.3,1.4,0.6,2.1,0.7c0.3,0,0.5,0,0.6-0.3
					c0.1-0.2,0.1-0.5-0.1-0.7c-0.6-0.5-1.2-0.7-1.9-1c-0.7-0.3-1.4-0.6-2.1-0.9c-0.3-0.1-0.5-0.2-0.8-0.3c4,0,7.9-0.2,11.9-0.2
					c4.4,0,8.7,0.2,13.1,0.5c4.2,0.3,8.4,0.6,12.6,1.2c3.3,0.5,7,1.5,8.6,4.8C515.9,226.3,516.3,226.1,516.2,225.8z"/>
				<path class="st12" d="M500.5,245.3c-3.7-1.3-7.5-2.3-11.3-3c-1.9-0.4-3.8-0.7-5.7-0.9c-1.8-0.2-3.9-0.5-5.7,0
					c-0.5,0.1-0.6,0.7-0.3,1c-0.1,0-0.1-0.1-0.2-0.1c-0.8-0.8,2.5-1.9,2.9-2.1c0.8-0.4,1.7-0.7,2.5-1.1c0.8-0.4,1.6-0.9,2.4-1.4
					c0.4-0.3,0.2-1-0.3-0.8c-1,0.3-2,0.6-3,1c-0.9,0.4-1.8,0.8-2.7,1.2c-1.2,0.5-3.4,1.3-3.3,3c0.1,0.8,0.7,1.3,1.3,1.6
					c0.8,0.3,1.5,0.7,2.2,1.2c0.6,0.5,1.2,1,1.8,1.6c0.6,0.6,1,1.3,1.5,1.9c0.1,0.1,0.3,0,0.3-0.2c-0.2-1.3-1.3-2.6-2.2-3.5
					c-0.5-0.5-1.1-0.9-1.7-1.3c-0.3-0.2-0.6-0.3-0.9-0.5c0,0-0.1,0-0.1,0c1.4,0.4,3,0.4,4.5,0.5c1.7,0.2,3.4,0.3,5.2,0.5
					c3.4,0.4,6.7,1.1,10,2c6.2,1.6,14.1,4.3,15,11.7c0,0.2,0.4,0.2,0.4,0C512.5,250.7,506.2,247.3,500.5,245.3z"/>
				<path class="st12" d="M448.6,353c-3.6-7.1-7-14.1-9.4-21.8c-2.4-7.5-3.9-15.3-4.4-23.2c-1-15.9,1.8-32.4-3.2-47.9
					c-2-6.2-5.5-13.1-10.9-17.1c0.4,0.2,0.9,0.4,1.3,0.5c0.8,0.3,1.6,0.6,2.4,0.8c0.4,0.1,0.7,0.2,1.1,0.2c0.4,0.1,0.8,0.2,1.2,0.1
					c0.4-0.1,0.5-0.6,0.2-0.9c-0.3-0.4-0.8-0.6-1.3-0.8c-0.4-0.2-0.8-0.4-1.3-0.5c-0.9-0.3-1.9-0.6-2.8-0.8c-1-0.3-3.6-1.1-3.5,0.8
					c0,0.1,0,0.2,0.1,0.3c-0.1,0.3,0,0.6,0.2,0.8c0,0,0,0,0,0c0,0,0,0.1,0,0.1c0.1,0.4,0.2,0.9,0.4,1.3c0.3,0.9,0.5,1.9,0.8,2.8
					c0.5,1.9,1,3.7,1.7,5.6c0.1,0.3,0.5,0.2,0.4-0.1c-0.4-2.7-1.1-5.4-1.7-8c1.9,1.9,3.7,3.8,5.1,6.1c1.8,2.8,3.3,5.9,4.4,9.1
					c2.5,7.1,3.3,14.6,3.4,22.1c0.2,8.6-0.3,17.2,0.3,25.7c0.6,7.5,2,14.9,4.2,22.1c2.5,7.9,6,16.1,10.9,22.8
					C448.4,353.3,448.7,353.2,448.6,353z"/>
				<path class="st12" d="M462.2,341.5c-0.6,0.4-1.1,1-1.7,1.5c-0.4,0.5-0.9,0.9-1.3,1.4c1.5-4.4,1.7-9.5,1.5-13.9
					c-0.4-6.6-2-12.9-3.8-19.2c-3.5-12.7-7.6-27.2-0.6-39.5c0.2-0.4-0.3-0.7-0.5-0.3c-6.8,11.2-4.3,24.7-1.1,36.6
					c1.8,6.8,3.8,13.6,4.4,20.6c0.3,3.4,0.3,6.8-0.3,10.2c-0.4,2.4-1.1,4.5-2,6.7c0-0.6-0.1-1.3-0.2-1.9c-0.3-1.6-0.9-3-1.8-4.3
					c-0.2-0.3-0.6,0-0.5,0.3c1.2,2.7,1.8,5.7,1.3,8.6c-0.1,0.5,0.5,1,0.9,0.6c0.2,0,0.5-0.1,0.6-0.3c0.1-0.2,0.3-0.4,0.4-0.7
					c0.8-0.8,1.5-1.5,2.3-2.3c0.5-0.5,1.1-1.1,1.6-1.6c0.5-0.5,1.1-1,1.5-1.7C463.3,341.8,462.7,341.1,462.2,341.5z"/>
				<path class="st12" d="M444.3,245.1c-0.3,0.6-0.5,1.2-0.6,1.9c-0.2,0.6-0.3,1.2-0.5,1.8c0,0,0,0.1,0,0.1c-0.1-2.1-0.5-4.3-1-6.3
					c-0.7-3.2-1.8-6.3-3.3-9.3c-1.4-2.8-3.1-5.6-5.3-8c-1.3-1.5-4.4-3.9-6.4-2.2c0,0,0,0.1,0,0.1c0.7,0.1,1.3,0,2,0.2
					c0.8,0.3,1.6,0.8,2.2,1.4c1.1,0.9,1.9,2.1,2.8,3.3c1.6,2.3,2.9,4.6,4,7.2c1.1,2.5,1.9,5.2,2.5,7.9c0.4,1.9,0.5,3.7,0.6,5.6
					c-1.1-1.7-2.3-3.2-3.7-4.7c-0.4-0.4-0.9,0.2-0.6,0.6c1.7,2.2,3.3,4.6,4.6,7.1c0,0,0,0.1,0,0.1c0,0.2,0.1,0.3,0.3,0.5
					c0.1,0.2,0.3,0.5,0.4,0.7c0.3,0.5,1.1,0.4,1.3-0.2l1-3.8c0.2-0.6,0.3-1.2,0.4-1.8c0.1-0.6,0.3-1.3,0.3-2
					C445.4,244.8,444.6,244.6,444.3,245.1z"/>
				<path class="st12" d="M465.5,242.2c-2.4,0.3-4.6,1.3-6.4,3.1c-0.9,0.8-1.6,1.8-2.2,2.9c-0.1,0.2-0.2,0.4-0.3,0.6
					c-1.3-3.5-3.1-6.8-4.9-10c-0.4-0.8-0.9-1.5-1.3-2.3c0,0,0,0,0,0c-0.4-5.3,2.7-10.7,7.6-12.9c0.3-0.1,0.1-0.6-0.2-0.4
					c-4.7,2-8,6.7-8.3,11.8c-1.5-2.8-2.9-5.7-3.9-8.8c-1.7-5.3-1.6-10.4-0.4-15.7c0.1-0.4-0.4-0.5-0.6-0.2c-3.5,8.8-0.1,18.1,4,26
					c2.5,4.7,5.4,9.7,7.2,14.9c0,0.2,0,0.4,0.1,0.6c0,0,0.1,0.1,0.1,0.1c0.9,2.8,1.4,5.6,1.3,8.5c-0.5-1.2-1.2-2.2-2.1-3.1
					c-0.2-0.2-0.6,0.1-0.5,0.4c1.1,1.7,1.9,3.5,2.3,5.5c-0.1,0.4-0.1,0.8-0.2,1.2c-0.1,0.4,0.2,0.8,0.5,0.9c0.2,0.4,0.9,0.4,1.1-0.1
					c0.4-0.9,0.9-1.8,1.5-2.6c0.6-0.8,1.4-1.4,2.1-2.2c0.4-0.5-0.1-1.2-0.7-0.9c-1,0.5-1.8,1.5-2.5,2.4c0,0,0,0.1,0,0.1
					c0.4-3.8-0.3-7.6-1.6-11.2c0-0.1,0.1-0.2,0.1-0.3c0.2-0.5,0.4-1,0.6-1.5c0.5-1,1.1-1.9,1.9-2.7c1.5-1.6,3.6-2.8,5.7-3.3
					C465.9,242.7,465.8,242.2,465.5,242.2z"/>
				<path class="st12" d="M276.4,246.4c-1-0.9-2.1-1.7-3.3-2.2c-1.2-0.5-2.5-0.7-3.8-0.8c-0.3,0-0.3,0.4-0.1,0.5
					c1.2,0.3,2.3,0.8,3.3,1.4c0.2,0.1,0.5,0.3,0.7,0.4c-1.1,0-2.1,0.1-3.2,0.2c-2,0.1-3.9,0.2-5.9,0.4c-3.8,0.2-7.6,0.4-11.4,0.7
					c-6.5,0.5-13.4,1.5-19,5.1c-0.1,0.1,0,0.3,0.1,0.2c6.4-2.9,13.1-3.9,20.1-4.1c3.5-0.1,7-0.1,10.5-0.1c1.9,0,3.7,0,5.6,0
					c0.8,0,1.6,0,2.5,0c-0.3,0.2-0.6,0.4-0.9,0.7c-0.6,0.5-1.2,0.9-1.8,1.5c-0.5,0.5-1.3,1.3-1.2,2c0,0.3,0.2,0.6,0.6,0.6
					c0.7-0.1,1.3-0.8,1.8-1.2c0.6-0.5,1.1-1.1,1.6-1.6c1.1-1,2.3-1.8,3.6-2.5C276.6,247.3,276.7,246.8,276.4,246.4z"/>
			</g>
			<g>
				<path class="st13" d="M325.1,128.9c0.1-0.5-0.6-0.8-0.8-0.3c-0.6,1.1-1,2.3-1.5,3.5c-0.2,0.5-0.4,1-0.6,1.4
					c-1.3-20.3-7.1-42-21.7-56.8c-3.9-3.9-8.3-7.2-13.3-9.6c-0.2-0.1-0.4,0.2-0.2,0.3c18.2,10.4,27.7,29.4,31.6,49.3
					c1,5.2,1.6,10.5,2.2,15.9c-0.6-1.1-1.3-2.2-2.1-3.2c-0.2-0.2-0.6,0.1-0.4,0.3c1.2,1.6,2.1,3.4,2.8,5.3c0,0.3,0.1,0.5,0.1,0.8
					c0.1,0.7,1.2,0.8,1.2,0c0-0.1,0-0.2,0-0.4c0.4-1,0.9-2,1.3-3.1C324.2,131.3,324.7,130.1,325.1,128.9z"/>
				<path class="st13" d="M378.1,104.9c-5.1,3.6-11,6.1-16.4,9.4c-4.9,3-9.5,6.5-13.8,10.2c-4.4,3.8-8.4,8-12.1,12.4
					c-1.8,2.1-3.5,4.3-5.1,6.5c-1.2,1.7-2.6,3.5-3.7,5.3c0.3-2.3,0.7-4.6,1.3-6.9c0.1-0.3-0.4-0.5-0.5-0.1c-0.9,2.9-1.4,5.8-1.7,8.8
					c-0.1,0.1-0.1,0.3-0.2,0.4c-0.1,0.2,0,0.4,0.1,0.6c0,0.2,0,0.3,0,0.5c0,0.3,0.4,0.5,0.6,0.4c1.3-0.9,2.6-1.8,3.8-2.7
					c1.2-0.9,2.6-1.7,3.7-2.8c0.3-0.3-0.1-0.8-0.5-0.6c-1.3,0.7-2.6,1.8-3.8,2.6c-0.9,0.7-1.8,1.3-2.7,2c1.5-2,2.7-4.2,4.1-6.2
					c1.7-2.5,3.6-4.9,5.6-7.2c3.7-4.4,7.7-8.4,12-12.2c4.4-3.8,9.1-7.3,14.1-10.4c5.2-3.3,10.8-5.8,15.6-9.7
					C378.6,105.1,378.3,104.8,378.1,104.9z"/>
				<path class="st13" d="M323.3,157.8c-0.5,4.5-0.9,9-1.4,13.5c-0.2,2.3-0.5,4.5-0.7,6.8c-0.2,2-0.7,4.4-0.2,6.4
					c0.2,0.7,1,0.5,1.2,0c0.7-1.9,0.6-4.4,0.6-6.4c0.1-2.3,0.2-4.5,0.3-6.8c0.2-4.5,0.4-9,0.5-13.5
					C323.7,157.6,323.3,157.6,323.3,157.8z"/>
				<path class="st13" d="M323.3,143.1c-0.1-0.6-0.1-1.3-0.2-1.9c-0.1-0.6-0.3-1.3-0.5-1.9c-0.1-0.3-0.6-0.3-0.6,0.1
					c0,0.6,0,1.3,0.1,1.9c0,0.6,0.1,1.3,0.2,1.9c0.1,1.3,0,2.6,0.2,3.8c0.1,0.5,0.9,0.5,1,0C323.6,145.7,323.4,144.3,323.3,143.1z"
					/>
				<path class="st13" d="M398.4,356c-0.1-1.7-0.2-3.5-0.6-5.1c-0.1-0.6-0.9-0.4-1,0.1c-0.1,1.7,0.2,3.4,0.4,5.1
					c0.1,0.7,0.2,1.3,0.2,2c-3.2-7-8.2-13.3-13.4-18.9c-6-6.5-12.7-12.3-19.6-17.9c-11.7-9.6-23.9-18.8-33.8-30.4
					c-0.3,0.2-0.6,0.4-0.9,0.5c2.8,3.3,5.7,6.4,8.8,9.4c13,12.6,28.2,22.7,41,35.5c7,7,12.6,14.6,17.5,23.1
					c-1.9-1.8-4.1-3.3-6.5-4.3c-0.1-0.1-0.2,0.1-0.1,0.2c2.7,1.8,5.3,3.8,7.5,6.2c0.2,0.3,0.8,0.1,0.8-0.3
					C398.6,359.5,398.5,357.7,398.4,356z"/>
				<path class="st13" d="M334.8,381.6c0.7,0.5,1.7,1.3,2.7,1.2c0.2,0,0.3-0.3,0.2-0.5c-0.2-0.4-0.6-0.7-1-0.9
					c-0.4-0.3-0.8-0.5-1.2-0.8c-0.8-0.5-1.6-1.2-2.3-1.9c-1.4-1.3-2.6-2.9-3.4-4.6c-0.1-0.1-0.2-0.2-0.3-0.2c-0.1-0.1-0.2-0.1-0.2,0
					c-0.2,0.1-0.4,0.3-0.3,0.5c0.4,1.7,0.5,3.4,0.3,5.2c-0.2,1.8-0.7,3.4-1.3,5.1c0,0.1,0.1,0.2,0.2,0.1c1.5-2.4,2.1-5.4,1.9-8.2
					c0.2,0.3,0.3,0.5,0.5,0.8c3.2,8.5,4.2,17.8,4.6,26.8c0.2,5.2,0.3,10.5,0.5,15.7c0.1,2.8,0.2,5.7,0.3,8.5c0.1,2.6,0,5.3,0.5,7.9
					c0.1,0.6,0.9,0.4,1-0.1c0.4-2.9,0-5.9-0.1-8.8c-0.1-2.8-0.2-5.7-0.2-8.5c-0.2-5.4-0.4-10.8-0.7-16.3c-0.5-8.2-1.7-16.2-4.7-23.8
					c0.2,0.3,0.5,0.6,0.8,0.8C333.3,380.3,334,381,334.8,381.6z"/>
				<path class="st13" d="M396.9,339.3c-5.7-8.6-11-17.6-14.8-27.2c-3.8-9.5-6-19.5-6-29.7c0.1-10.8,2.4-21.4,5.9-31.6
					c3.9-11.7,9.3-22.8,14.7-33.9c0,0,0,0,0-0.1c0.1,0.6,0.2,1.1,0.3,1.7c0.1,0.6,0.2,1.3,0.3,1.9c0,0.3,0.1,0.6,0.1,0.9
					c0.1,0.3,0.3,0.6,0.4,0.9c0.2,0.4,0.7,0.2,0.8-0.2c0-0.3,0.1-0.6,0.1-1c0-0.3-0.1-0.6-0.2-0.9c-0.1-0.6-0.2-1.3-0.4-1.9
					c-0.2-1.3-0.5-2.5-0.7-3.8c-0.1-0.3-0.5-0.5-0.7-0.3c-2.5,1.6-4.8,3.5-6.7,5.7c-0.3,0.3,0.2,0.7,0.4,0.4
					c1.8-1.9,3.9-3.5,6.2-4.9c0,0.2,0.1,0.5,0.1,0.7c-0.3-0.3-0.8-0.4-1.1,0.1c-9.4,19.2-19,39.3-20.6,61
					c-0.7,10.4,0.7,20.8,4.1,30.6c3.3,9.7,8.3,18.8,13.7,27.4c3.1,4.9,6.5,9.6,9.8,14.3c3.3,4.8,6.4,9.8,7.7,15.6
					c0.1,0.3,0.4,0.1,0.4-0.1C408.8,355.3,402.2,347.3,396.9,339.3z"/>
				<path class="st13" d="M396.3,166.3c-5.2-1.4-10.9,0.1-15.8,2.2c-3.2,1.3-6.5,3.3-8.7,6.1c0.5-2.2,1.1-4.3,1.5-6.5
					c0.1-0.4-0.4-0.5-0.6-0.2c-1.1,3.2-2,6.4-3,9.7c-0.1,0.4,0.2,0.8,0.6,0.8c1.2-0.1,2.4-0.2,3.7-0.3c0.6,0,1.1-0.1,1.7-0.2
					c0.6-0.1,1.2-0.2,1.8-0.4c0.3-0.2,0.2-0.6-0.1-0.7c-0.5-0.1-1.1-0.1-1.7-0.1c-0.6,0-1.2,0.1-1.8,0.1c-0.7,0.1-1.4,0.1-2.1,0.2
					c2.6-3.3,5.6-5.7,9.5-7.3c4.3-1.8,9.4-3.2,14-2.1c4.2,0.9,7.7,3.9,9.6,7.7c2.3,4.6,2,9.9,0.5,14.7c0,0.1,0.1,0.2,0.2,0.1
					C410.8,181.2,406.4,169,396.3,166.3z"/>
				<path class="st13" d="M500.9,204.2c-0.2-1.5-0.3-3-0.6-4.4c-0.1-0.7-0.2-1.5-0.4-2.2c-0.1-0.7-0.4-1.5-0.7-2.1
					c-0.3-0.4-1.1-0.4-1.2,0.2c-0.3,1.5,0.2,3.1,0.4,4.6c0.2,1,0.5,2.1,0.7,3.1c-0.1,0-0.2-0.1-0.3-0.1c-4.6-4.2-10.1-7.7-15.5-10.8
					c-5.6-3.2-11.6-6-17.7-8.2c-5.8-2.1-11.9-3.8-18-5c2.6-0.3,5.3-1.6,7.4-3c3.6-2.4,6.8-5.5,9.7-8.6c2.9-3.1,5.5-6.5,7.8-10
					c1.3-1.9,2.4-3.8,3.5-5.8c0.5-1,1.4-2.2,1.9-3.4c0.1,0.7,0.1,1.3,0.2,2c0.1,0.7,0.2,1.3,0.3,2c0.1,0.6,0.3,1.5,0.8,1.9
					c0.3,0.2,0.6,0.1,0.8-0.2c0.2-0.3,0.1-0.6,0.1-1c0-0.3-0.1-0.7-0.1-1c-0.1-0.6-0.3-1.3-0.4-1.9c-0.3-1.3-0.4-2.6-0.5-3.9
					c0-0.5-0.6-0.8-1.1-0.4c-2,1.7-4.5,3-7,3.9c-0.3,0.1-0.2,0.5,0.1,0.5c1.4-0.2,2.8-0.6,4-1.2c0.3-0.1,0.5-0.3,0.8-0.4
					c-0.4,0.8-0.7,1.6-1,2.2c-0.9,1.8-1.9,3.5-3,5.2c-2.2,3.5-4.7,6.8-7.4,9.9c-2.5,2.9-5.3,5.8-8.3,8.2c-1.8,1.5-3.7,2.8-5.9,3.6
					c-2.1,0.8-4.1,0.8-6.4,0.7c-0.1,0-0.1,0-0.2,0.1c-5.7-0.9-11.4-1.3-17.1-1.1c-6.8,0.2-13.6,1.6-18.9,6.1
					c-0.2,0.1,0.1,0.5,0.2,0.3c10.3-7.5,25-6.1,36.8-4.1c12.5,2.1,24.7,6.3,35.8,12.5c5.5,3.1,10.5,6.7,15.4,10.5
					c-0.7-0.1-1.4-0.1-2-0.1c-0.7,0-1.4,0.3-2.1,0.5c-0.2,0.1-0.2,0.4,0,0.4c0.6,0.1,1.3,0.2,1.9,0.3c0.7,0,1.4,0.1,2.1,0.2
					c0.9,0.1,1.7,0.4,2.6,0.6c0,0,0.1,0.1,0.1,0.1c0.2,0.1,0.3,0.2,0.5,0.1c0.2,0.1,0.5,0.2,0.7,0.3
					C500.6,205.4,501,204.7,500.9,204.2z"/>
				<path class="st13" d="M326.5,269.2c-0.4,1-0.6,2.1-0.7,3.2c-0.1,1-0.3,2.1-0.4,3.1c-0.1,0.9-0.2,1.9-0.2,2.8
					c-1.6-3.8-3.2-7.6-4.5-11.5c-1.6-5-2.8-10-3.7-15.2c-1.8-10.6-2-21.4-0.5-32c0.8-5.9,2.3-11.6,3.6-17.4c0.1-0.2-0.3-0.4-0.4-0.2
					c-4.2,9.6-5.4,20.8-5.6,31.2c-0.1,10.7,1.3,21.5,4.4,31.7c1.6,5.4,3.5,11.1,6.4,15.9c-2.5-2.1-4.9-4.3-7-6.8
					c-0.1-0.1-0.3,0.1-0.2,0.2c2.3,3,4.9,5.7,7.8,8.1c0.3,0.2,0.7,0.1,0.7-0.3c0,0,0,0,0-0.1c0.3-0.1,0.4-0.3,0.3-0.6
					c-0.1-0.2-0.1-0.3-0.2-0.5c0.1-0.7,0.2-1.3,0.3-2c0.1-1,0.2-2.1,0.3-3.1c0.1-1.1,0.3-2.1,0.4-3.2c0.2-1,0.4-2.1,0.4-3.1
					C327.6,268.9,326.8,268.6,326.5,269.2z"/>
				<path class="st13" d="M279.3,204.6c-6.5,1.4-13.2,1.7-19.7,0.5c-3.1-0.5-6.1-1.4-9-2.4c-2.7-1-5.2-2.3-7.8-3.4
					c1.7-0.1,3.3-0.1,5-0.3c2.1-0.2,4.3-0.3,6.2-1.1c0.5-0.2,0.4-0.9-0.1-0.9c-2.1-0.1-4.2,0.4-6.2,0.7c-2.1,0.3-4.2,0.5-6.3,0.7
					c-0.3,0-0.6,0.4-0.4,0.7c0.1,0.2,0.2,0.3,0.3,0.5c0,0.1,0.1,0.1,0.1,0.2c0,0,0,0,0,0c1.1,1.8,2.3,3.7,3.5,5.5
					c0.1,0.1,0.3,0,0.2-0.1c-0.7-1.4-1.4-2.8-2.1-4.2c2,1.4,4.4,2.3,6.6,3.1c3.2,1.2,6.5,1.9,9.8,2.3c6.7,0.9,13.5,0.4,20-1.5
					C279.6,204.9,279.5,204.6,279.3,204.6z"/>
				<path class="st13" d="M273.3,222.9c-3.8,3.9-8.1,7.3-12.7,10.1c-2.2,1.3-4.6,2.4-6.9,3.5c-1.7,0.8-3.5,1.4-5.2,2.2
					c0.9-1.6,1.6-3.3,2-5.1c0.1-0.3-0.3-0.4-0.4-0.1c-0.7,2.2-1.8,4.2-3.1,6c-0.2,0.1-0.5,0.2-0.7,0.4c-0.3,0.2-0.5,0.6-0.5,1
					c-0.1,0.1-0.3,0.3-0.4,0.5c-0.3,0.3-0.2,0.9,0.3,1c1.7,0.4,3.5,0.9,5.2,1.3c0.9,0.2,1.7,0.4,2.6,0.6c0.4,0.1,0.8,0.1,1.2,0.1
					c0.4,0,0.9,0.1,1.3,0c0.5-0.1,0.4-0.7,0.1-0.9c-0.3-0.3-0.8-0.3-1.2-0.5c-0.4-0.1-0.8-0.3-1.3-0.4c-0.8-0.2-1.7-0.3-2.5-0.5
					c-0.9-0.2-1.7-0.3-2.6-0.5c2-0.6,4-1.7,5.9-2.6c2.5-1.3,4.8-3,7.1-4.6c4.5-3.3,8.6-7,12.2-11.2
					C273.8,223,273.5,222.7,273.3,222.9z"/>
			</g>
		</g>
	</g>
</g>
</svg>
