<?xml version="1.0" encoding="utf-8"?>
<!-- Generator: Adobe Illustrator 24.2.3, SVG Export Plug-In . SVG Version: 6.00 Build 0)  -->
<svg version="1.1" id="Layer_1" xmlns="http://www.w3.org/2000/svg" xmlns:xlink="http://www.w3.org/1999/xlink" x="0px" y="0px"
	 viewBox="0 0 500 500" style="enable-background:new 0 0 500 500;" xml:space="preserve">
<style type="text/css">
	.st0{fill:#F59DAE;}
	.st1{fill:#235565;}
	.st2{fill:#0E7BA9;}
	.st3{fill:#ED2C3C;}
	.st4{fill:#CD202F;}
	.st5{fill:#D67A92;}
	.st6{fill:#E98CA1;}
	.st7{fill:#DC2226;}
	.st8{fill:#C52026;}
	.st9{fill:#EF4E3D;}
</style>
<path class="st0" d="M255,156.85c-20.09,0.52-41.15,0.03-57.74,11.34c-40.87,27.85-35.37,93.81-4.79,110.18
	c26.89,14.4,62.11,14.71,91.15,7.84C276.84,242.17,271.42,198.06,255,156.85"/>
<path class="st1" d="M205.38,122.82c-7.37,10.27-12.19,21.89-15.45,33.99c15.78-1.34,34.86-1.48,49.49,3.1
	c3.48-17.95,20.58-23.77,38.59-26.79C262.99,126.87,237.82,119.8,205.38,122.82"/>
<path class="st2" d="M162.94,132.04c-0.53,5.72-0.62,11.5-0.22,17.18c0.26,3.68,0.93,7.34,1.58,10.99
	c5.09-0.93,14.55-2.46,25.62-3.41c3.26-12.1,8.08-23.72,15.45-33.99C192.35,124.04,178.16,126.83,162.94,132.04"/>
<path class="st2" d="M239.42,159.91c8.11,2.54,14.85,6.52,18.87,12.56c19.09-14.14,35.49-31.24,35.49-31.24s-5.57-3.85-15.77-8.1
	C260,136.14,242.9,141.96,239.42,159.91"/>
<path class="st3" d="M311.06,111.21l8.27-15.36l-21.06-14.31l-11.88,17.11c-3.24-0.91-6.52-1.57-9.81-2.03l-2.88-22.32l-25.45,0.64
	l0.34,22.77c-5.51,1.16-10.93,2.87-16.18,5.05l-11.64-17.46l-22.52,11.88l10.21,19.85c-47.61,40.78,5.44,108.76,5.44,108.76
	s15.54,6.82,29.92,9.76c-13.92-21.17-24.11-43.26-22.37-69.72c-1.79-33.32,30.77-61.86,63.84-43.45
	c37.79,20.18,34.92,57.8,22.86,94.51c4.22,1.76,9.95,3.57,17.71,5.06C337.21,191.89,343.98,138.2,311.06,111.21"/>
<path class="st4" d="M285.28,122.38c-33.08-18.41-65.63,10.14-63.84,43.45c-1.74,26.46,8.46,48.55,22.37,69.72
	c11.3,2.32,21.89,2.24,23.67-5.43c-32.72-48.7-50.22-91.36-7.69-98.77c57.17-10.5,37.28,78.24,37.28,78.24s2.12,3.56,11.07,7.3
	C320.2,180.19,323.07,142.56,285.28,122.38"/>
<path class="st5" d="M303.35,171.65c-12.22-5.86-27.15-10.78-44.68-14.92c-1.27,0.01-2.43,0.09-3.67,0.12
	c16.42,41.21,2.49,90.21,28.62,129.37c16.65-3.95,31.82-10.7,43.09-20.09C304,238.21,287.72,204.95,303.35,171.65"/>
<path class="st6" d="M303.35,171.65c-15.62,33.3,0.66,66.56,23.35,94.48c1.84-1.54,3.61-3.12,5.23-4.8
	C353.41,218.41,342.16,190.26,303.35,171.65"/>
<path class="st2" d="M368.37,141.21c-1.09-2.84-2.58-6.38-4.57-10.78c-99.48-35.04-150.92,88.8-150.92,88.8s1.94,5.82,16.1,11.55
	C252.35,176.41,310.48,144.76,368.37,141.21"/>
<path class="st1" d="M228.98,230.78c8.1,3.28,20.19,6.52,38.25,8.63c-5.59-79.77,101.5-87.91,101.5-87.91s5.58,5.13-0.36-10.29
	C310.48,144.76,252.35,176.41,228.98,230.78"/>
<path class="st7" d="M255.59,321.83c31.33-28.67,41.38-65.8,33.87-100.86c-10.41-3.05-20.16-5.67-27.75-8.34
	c-11.84-4.16-23.88-8.36-36.41-9.06c-54.99-3.09-99.27,64.63-52.16,140.74C201.23,350.01,235.24,340.46,255.59,321.83"/>
<path class="st8" d="M360.85,267.9c-7.11-26.26-41.94-38.31-71.38-46.93c7.5,35.05-2.54,72.19-33.87,100.86
	c-20.36,18.63-54.36,28.18-82.45,22.48c8.63,13.96,20.34,28.2,35.62,42.33c13.64,12.61,22.1,32.96,42.83,35.13
	c33.24,3.5,55.95-30.08,67.6-46.3C339.45,347.25,371.01,305.48,360.85,267.9"/>
<path class="st9" d="M229.94,220.76c-22.69-12.57-48.74,12.6-56.47,32.51c-14.82,38.18,18.28,66.69,21.35,31.25
	c0.67-7.79,1.91-15.21,6.06-22.02c7.65-12.57,22.23-13.12,31.44-23.25C237.28,233.79,236.85,224.58,229.94,220.76"/>
</svg>
