<?xml version="1.0" encoding="utf-8"?>
<!-- Generator: Adobe Illustrator 24.2.3, SVG Export Plug-In . SVG Version: 6.00 Build 0)  -->
<svg version="1.1" id="Layer_1" xmlns="http://www.w3.org/2000/svg" xmlns:xlink="http://www.w3.org/1999/xlink" x="0px" y="0px"
	 viewBox="0 0 500 500" style="enable-background:new 0 0 500 500;" xml:space="preserve">
<style type="text/css">
	.st0{opacity:0.15;fill:#FF424C;}
	.st1{fill:#FC3848;}
	.st2{fill:#EA1938;}
	.st3{fill:#00B1F5;}
	.st4{opacity:0.55;fill:#00ABE0;}
	.st5{fill:#FFC500;}
	.st6{fill:#FF9700;}
	.st7{fill:#FFFFFF;}
	.st8{fill:#231F20;}
</style>
<ellipse class="st0" cx="242.9" cy="431.79" rx="100.22" ry="10.22"/>
<g>
	<path class="st1" d="M358.91,260.42c-3.72-11.88-16.4-33.53-27.14-40.28c-5.33-3.35-10.17-6.57-14.43-11.28
		c-4.02-4.44-7.64-9.22-12.19-13.15c-16.59-14.35-39.57-16.62-60.72-17.62c-0.11-0.7-0.26-1.4-0.46-2.11
		c-0.17-0.6-0.69-0.81-1.19-0.76c-1.62-3.55-3.37-6.58-4.47-8.11c-2.39-3.34-5.15-6.39-8.01-9.33c-3.95-4.05-6.62-6.56-4.42-12.71
		c3.06-8.57,7.28-16.5,11.99-24.26c4.39-7.24,5.7-13.38,4.86-21.8c-0.87-8.68-1.45-17.93-3.59-26.39
		c-3.68-14.56-20.14-11.99-28.23-2.62c-0.18,0.2-0.25,0.43-0.26,0.66c-0.16,0.15-0.29,0.35-0.37,0.62
		c-1.25,4.12-1.12,8.33-0.83,12.59c0.46,6.68,0.33,12.72-0.84,19.35c-2.44,13.81-6.28,28.17-11.39,41.26
		c-5.08,13.04-14.29,22.46-24.39,31.77c-4.78,4.41-9.44,8.94-14,13.58c-4.54,4.62-9.82,9.27-13.38,14.71
		c-6.23,9.51-3.43,18.5,2.22,27.43c5.21,8.24,5.04,18.77,2.02,27.79c-2.88,8.61-10.59,12.47-17.44,21.05
		c-2.5,3.13-7.94,1.86-10.89,4.84c-2.8,2.83-3.24,6.86-2.31,10.61c2.57,10.26,13.34,17.27,23.64,14.78c4.63-1.12,8.42-3.7,11.3-7.46
		c1.6-2.09,3-4.92,4.66-7.45c0.36,0.54,0.89,0.97,1.48,1.22c2.57,10.29,6.74,20.16,13.08,29.52c12.47,18.42,29.65,35.06,46.43,49.56
		c16.32,14.11,33.52,24.35,55.76,24.44c10.82,0.05,22.5-2.35,31.06-8.59c8.31-6.05,16.1-12.84,23.12-20.35
		c13.62-14.55,22.97-35.13,26.39-55.26C359.83,293.92,365.78,282.35,358.91,260.42z"/>
	<path class="st2" d="M331.77,220.15c-5.33-3.35-10.17-6.57-14.43-11.28c-4.02-4.44-7.64-9.22-12.19-13.15
		c-16.59-14.35-39.57-16.62-60.72-17.62c-0.01-0.05-0.02-0.1-0.03-0.15c-4.33,1.26-8.57,2.84-12.63,4.8
		c-4.78,2.3-9.21,5.13-13.75,7.87c-7.92,4.78-16.05,9.36-23.37,15.04c-2.95,2.29-5.69,4.77-8.25,7.43c2.13-0.72,4.32-1.23,6.6-1.48
		c3.87-0.43,7.82-0.19,11.7,0.02c3.33,0.19,6.67,0.39,10,0.08c3.75-0.35,7.53-1.52,10.9-3.19c6.41-3.18,12.7-7.28,20.17-6.02
		c4.04,0.68,7.31,2.91,10.89,4.71c3.36,1.69,7.08,2.03,10.79,1.87c3.74-0.16,7.45-0.79,11.19-0.79c4.02-0.01,7.97,0.78,11.55,2.66
		c6.01,3.16,10.03,8.53,14.65,13.31c4.71,4.88,10.43,8.18,17.37,8.31c6.28,0.12,12.11-2.12,17.13-5.71
		C336.79,224.03,334.23,221.69,331.77,220.15z"/>
	<path class="st2" d="M358.91,260.42c-1.76-5.6-5.5-13.37-10.1-20.73c0.14,6.58-0.2,13.14-1.45,19.7c-1.72,9.02-4.9,17.77-9.35,25.8
		c-8.52,15.38-21.82,28.02-37.52,35.9c-15.93,7.99-34.06,11.15-51.74,8.8c-9.54-1.27-18.51-4.23-27.35-7.94
		c-9.07-3.8-17.9-8.24-26.03-13.79c-7.9-5.39-15.14-11.75-21.01-19.32c-4.49-5.8-8.09-12.19-10.68-19.01
		c-0.01,0.04-0.03,0.07-0.04,0.11c-1.34,3.4-2.73,6.79-4.42,10.04c-2.26,4.35-6.06,10.84-11.82,10.43c-3.32-0.23-5.73-2.7-7.51-5.3
		c-1.41-2.06-2.53-4.32-3.33-6.68c-1.36,0.93-2.8,1.74-4.34,2.38c-3.71,1.53-7.94,1.86-10.89,4.84c-2.8,2.83-3.24,6.86-2.31,10.61
		c2.57,10.26,13.34,17.27,23.64,14.78c4.63-1.12,8.42-3.7,11.3-7.46c1.6-2.09,3-4.92,4.66-7.45c0.36,0.54,0.89,0.97,1.48,1.22
		c2.57,10.29,6.74,20.16,13.08,29.52c12.47,18.42,29.65,35.06,46.43,49.56c16.32,14.11,34.89,24,57.13,24.1
		c10.82,0.05,21.13-2.01,29.68-8.24c8.31-6.05,16.1-12.84,23.12-20.35c13.62-14.55,22.97-35.13,26.39-55.26
		C359.83,293.92,365.78,282.35,358.91,260.42z"/>
	<path class="st1" d="M319.8,96.26c-1.14-5.76,2.62-11.18,1.04-16.87c-1.29-4.66-5.61-8.53-9.96-10.37
		c-3.57-1.52-7.62-1.67-11.09,0.21c-5.59,3.02-5.03,7.98-5.8,13.44c-0.48,3.41-1.82,4.05-2.98,0.7c-0.4-1.16-1.2-4.62-1.3-5.84
		c-0.54-6.42-6.42-10.68-13.61-8.85c-3.75,0.95-6.1,3.87-7.16,7.47c-1.66,5.63,1.62,12.14-0.92,17.42
		c-2.78,5.77-11.07,7.55-16.31,10.26c-5.11,2.64-9.73,6.11-13.66,10.32c-9.07,9.71-13.5,23.28-14.91,36.35
		c-2.88,0.29-4.28,4.73-1.02,5.75c11.61,3.63,19.3,13.71,19.76,25.85c0.13,3.29,4.51,3.19,5.77,0.79
		c11.36-21.71,27.93-49.12,56.72-46.58c8.97,0.79,20.16,0.64,23.35-10.31C331.03,114.69,321.85,106.56,319.8,96.26z"/>
	<path class="st3" d="M193.29,150.47c0.02-1.35-1.27-2.69-2.71-2.51c-0.77,0.1-1.55,0.21-2.33,0.32c-0.14,0.02-0.28,0.04-0.42,0.06
		c-1.64,0.25-3.3,0.51-4.96,0.76c-2.79,0.14-5.57-0.07-8.31-0.59c-6.48-1.23-12.65-3.9-18.52-6.83c-0.74-0.37-1.47-0.32-2.1-0.02
		c-0.74-0.25-1.63-0.11-2.29,0.62c-3.16,3.49-5.71,9.77-4.57,14.56c0.86,3.62,3.59,5.96,6.61,7.83c-1.19,1.34-2.62,2.37-3.1,4.42
		c-0.5,2.16,0.13,4.52,1.37,6.32c3.03,4.41,9.8,6.09,14.81,6.08c6.7-0.01,7.8-4.93,10.99-10.07c2.64-4.25,5.54-8.32,8.65-12.22
		c0.26,0.03,0.53,0.03,0.82-0.04c2.88-0.67,6.12-1.9,6.69-5.23C194.12,152.74,193.88,151.49,193.29,150.47z"/>
	<path class="st3" d="M356.07,131.45c-7.45-1.25-15.93,0.29-23.37,1.15c-8.69,1-17.2,3.45-25.91,4.11
		c-4.35,0.33-8.98,0.09-13.1-1.47c-2.63-1-5.12-3.67-8.09-3.63c-1.85,0.02-3.04,1.1-4.36,2.27c-3.16,2.79-6.08,6.1-8.62,9.5
		c-0.54-0.4-1.12-0.77-1.77-1.1c-0.6-0.3-1.25,0.41-1.01,1c0.27,0.65,0.5,1.32,0.72,2c-0.66-0.04-1.31,0.13-1.8,0.57
		c-2.33,2.1-4.52,4.34-6.45,6.81c-1.99,2.55-3.36,5.57-5.38,8.05c-0.74,0.91-0.73,2.31-0.17,3.33c-0.21,0.08-0.42,0.17-0.63,0.29
		c-1.66,0.9-2.48,2.79-3.3,4.4c-2.79,5.49-4.29,11.55-1.08,17.19c3.09,5.41,8.92,9.69,14.14,12.84c10.61,6.39,20.2,0.87,27.62-7.65
		c9.18-10.56,14.81-23.31,29.64-26.97c0.85-0.21,1.45-0.69,1.84-1.29c7.61-0.63,15.2-1.53,22.73-2.84
		c5.31-0.92,11.04-1.99,15.34-5.5C372.27,146.96,367.1,133.29,356.07,131.45z"/>
	<path class="st4" d="M349.93,155.45c-8.19,1.53-16.67,1.95-24.96,2.64c-3.7,0.3-7.37,0.74-10.99,1.57
		c-1.99,0.46-4.03,0.97-5.93,1.71c-1.48,0.57-2.91,1.38-4.32,2.11c-2.98,1.54-5.99,3.17-9.24,4.06c-3.43,0.94-7.07,0.99-10.52,0.11
		c-4.56-1.16-8.58-3.86-10.31-8.36c-1.53-3.97-0.86-8.57,0.49-12.49c1.52-4.4,3.87-8.5,6.68-12.19c0.32-0.41,0.64-0.83,0.97-1.23
		c-0.19,0.16-0.38,0.33-0.57,0.5c-3.16,2.79-6.08,6.1-8.62,9.5c-0.54-0.4-1.12-0.77-1.77-1.1c-0.6-0.3-1.25,0.41-1.01,1
		c0.27,0.65,0.5,1.32,0.72,2c-0.66-0.04-1.31,0.13-1.8,0.57c-2.33,2.1-4.52,4.34-6.45,6.81c-1.99,2.55-3.36,5.57-5.38,8.05
		c-0.74,0.91-0.73,2.31-0.17,3.33c-0.21,0.08-0.42,0.17-0.63,0.29c-1.66,0.9-2.48,2.79-3.3,4.4c-2.79,5.49-4.29,11.55-1.08,17.19
		c3.09,5.41,8.92,9.69,14.14,12.84c10.61,6.39,20.2,0.87,27.62-7.65c9.18-10.56,14.81-23.31,29.64-26.97
		c0.85-0.21,1.45-0.69,1.84-1.29c7.61-0.63,15.2-1.53,22.73-2.84c5.31-0.92,11.04-1.99,15.34-5.5c2.34-1.92,3.75-4.24,4.37-6.66
		C362.22,151.66,356.34,154.25,349.93,155.45z"/>
	<path class="st3" d="M207.76,104.43c0.28-2.91,1.17-7.42-0.11-10.23c-0.19-0.42-0.44-0.8-0.7-1.17c0.07-0.07,0.15-0.13,0.21-0.22
		c0.27-0.39,0.47-0.84,0.37-1.33c-0.13-0.59-0.46-1.25-1.1-1.44c-1.08-0.32-2.26-0.38-3.37-0.21c-0.09,0.01-0.18,0.05-0.26,0.09
		c-3.07-1.36-6.82-1.86-9.54-1.98c-5.98-0.27-12.47,1.36-17.29,5.02c-5.68,4.31-4.67,13.52-4.76,19.88
		c-0.02,1.7,1.03,2.89,2.79,2.82c10.15-0.42,21.08-2.95,29.36,4.23c1.05,0.91,2.47-0.37,2.06-1.55c-0.1-0.28-0.21-0.55-0.32-0.81
		c0.12-0.16,0.23-0.35,0.32-0.57C207.01,113.03,207.36,108.63,207.76,104.43z"/>
	<path class="st4" d="M162.05,160.38c-5.43-2.43-10.8-6.03-14.43-10.88c-0.79,2.48-1.08,5.09-0.54,7.36
		c0.86,3.62,3.59,5.96,6.61,7.83c-1.19,1.34-2.62,2.37-3.1,4.42c-0.5,2.16,0.13,4.52,1.37,6.32c3.03,4.41,9.8,6.09,14.81,6.08
		c6.7-0.01,7.8-4.93,10.99-10.07c1.38-2.22,2.84-4.4,4.35-6.52C175.22,164.9,168.3,163.17,162.05,160.38z"/>
	<path class="st4" d="M171.22,111.32c0,0.51,0,1.02,0,1.51c-0.02,1.7,1.03,2.89,2.79,2.82c10.15-0.42,21.08-2.95,29.36,4.23
		c1.05,0.91,2.47-0.37,2.06-1.55c-0.1-0.28-0.21-0.55-0.32-0.81c0.12-0.16,0.23-0.35,0.32-0.57c1.59-3.92,1.94-8.33,2.33-12.53
		c0.24-2.57,0.96-6.37,0.26-9.16C200.13,106.65,184.7,110.03,171.22,111.32z"/>
	<path class="st1" d="M365.74,198.63c-2.33-2.24-7.24-1.99-10.35-2.29c-1.32-0.13-4.25,0.14-6.07-0.39
		c-0.19,0.11-0.39,0.2-0.59,0.24c-0.57,0.11-1.18,0.13-1.72,0.35c-0.27,0.09-0.54,0.14-0.83,0.14c-0.49,0-0.96-0.13-1.38-0.37
		c-0.83-0.49-1.36-1.4-1.36-2.37c0-0.28,0.04-0.58,0.1-0.86c0.18-0.78,0.78-1.31,1.4-1.74c0.21-0.15,0.44-0.27,0.68-0.38
		c0.5-0.23,1.01-0.41,1.53-0.56c0.24-0.46,0.68-0.86,1.34-1.2c0.45-0.57,1.08-1,1.57-1.54c4.36-4.78,4.13-12.33-1.61-16.06
		c-2.61-1.69-5.95-2.07-8.92-1.3c-1.17,0.3-2.24,0.75-3.28,1.38c-0.76,0.46-1.47,1.38-2.24,1.7c-2.1,0.87-1.4,0.63-2.95-0.52
		c-3.36-2.49-4.87-6.14-9.37-7.25c-3.91-0.97-4.02-0.14-7.34,1.98c-8.22,5.23-18.43,15.45-22.15,24.25
		c-0.71,1.67,1.32,3.08,2.65,2.2c2.74,7.49,8.03,14.52,12.61,20.74c4.45,6.03,9.7,13.66,17.55,15.36c3.48,0.76,6.94,0.22,10.1-1.39
		c4.11-2.09,5.67-5.41,8.74-8.52c4.01-4.06,7.93-0.22,12.4,0.55c2.88,0.5,5.47-0.01,7.08-2.57
		C366.32,213.43,370.26,202.98,365.74,198.63z"/>
	<path class="st5" d="M233.94,163.62c-4.66-3.81-9.24-8.41-14.92-9.96c-7.28-1.99-14.67-3.5-22.12-4.72
		c-0.5-0.08-0.95-0.06-1.34,0.05c-0.04-0.07-0.06-0.13-0.1-0.2c-1.19-2.11-3.97-0.05-3.43,1.91c1.79,6.47-3.7,11.74-7.82,15.9
		c-4.53,4.58-9.17,9.05-14.02,13.29c-7.43,6.5-15.37,12.73-20.72,21.17c-4.18,6.59-6.41,14.45-5.29,22.27
		c0.94,6.56,4.92,14.68,11.8,16.76c8.1,2.45,12.11-7.54,16.08-12.51c6.23-7.8,14.48-14.04,23.67-17.93
		c8.9-3.77,19.39-3.44,26.94-9.94c3.65-3.15,11.95-5.38,16.03-7.74C249.84,185.51,242.43,170.56,233.94,163.62z"/>
	<path class="st5" d="M346.21,206.84c-0.85-7.31-4.11-14-7.98-20.16c-3.69-5.87-9.23-16.02-15.55-19.36
		c-6.5-3.44-11.06,2.29-15.86,6.7c-5.25,4.83-10.27,10.6-12.49,17.49c-1.48,0.72-2.32,2.95-0.63,4.31
		c7.66,6.19,12.49,12.78,17.83,20.89c3.72,5.64,8.67,11.16,15.48,12.9C340.61,233.06,347.53,218.17,346.21,206.84z"/>
	<path class="st6" d="M233.94,163.62c-1.69-1.38-3.37-2.86-5.09-4.27c0.49,4.86,0.08,9.75-1.69,14.44
		c-4.2,11.13-14.94,18.91-25.89,22.7c-5.27,1.83-10.8,2.75-16.3,3.59c-2.49,0.38-5.03,0.61-7.42,1.45
		c-1.02,0.36-1.33,0.51-2.42,1.07c-0.85,0.44-1.69,0.93-2.5,1.44c-6.68,4.22-12.22,10.72-19.7,14.07c-2.85,1.28-5.94,1.97-9.01,1.62
		c0.02,1.19,0.1,2.39,0.27,3.58c0.94,6.56,4.92,14.68,11.8,16.76c8.1,2.45,12.11-7.54,16.08-12.51c6.23-7.8,14.48-14.04,23.67-17.93
		c8.9-3.77,19.39-3.44,26.94-9.94c3.65-3.15,11.95-5.38,16.03-7.74C249.84,185.51,242.43,170.56,233.94,163.62z"/>
	<path class="st6" d="M332.56,229.73c-6.31-3.56-11.38-9.11-15.31-15.13c-4.04-6.19-7.03-13.23-8.56-20.47
		c-1.39-6.55-1.79-13.71,0.38-20.14c0.34-1.02,0.77-1.98,1.23-2.91c-1.2,0.9-2.36,1.9-3.48,2.93c-5.25,4.83-10.27,10.6-12.49,17.49
		c-1.48,0.72-2.32,2.95-0.63,4.31c7.66,6.19,12.49,12.78,17.83,20.89c3.72,5.64,8.67,11.16,15.48,12.9
		c2.15,0.55,4.14,0.63,5.95,0.35C332.83,229.87,332.69,229.81,332.56,229.73z"/>
	<path class="st2" d="M320.12,100.88c-1.22-1.04-3.44,0.11-3.11,1.76c1.37,6.73-4.77,11.63-11.08,11.04
		c-5.14-0.48-9.6-2.26-14.89-1.77c-9.33,0.86-18.25,5.54-25.6,11.15c-12.49,9.52-22.78,23.94-25.51,39.66
		c-1.16,0.57-1.99,1.84-1.42,3.4c1.98,5.46,4.02,10.9,6.05,16.34c1.02,2.75,4.84,1.96,5.35-0.66c2.32-11.89,7.56-23.05,15.25-32.43
		c5.06-6.17,14.51-15.89,23.56-16.5c3.27,2.68,6.7,3.84,10.92,3.67c0.88-0.04,1.48-0.49,1.82-1.12c0.89,0.37,1.77,0.71,2.65,0.94
		c2.35,0.62,4.76,0.81,7.18,0.49c5.05-0.68,9.81-3.56,12.94-7.54C331.27,120.39,328.31,107.82,320.12,100.88z"/>
	<path class="st2" d="M238.85,104.32c-3.78,6.06-8.72,11.67-14.19,16.26c-1.82,1.53-2.63,2.05-5.15,2.3
		c-3.5,0.35-4.57-1.5-5.13-4.74c-0.69-3.94-0.22-8.19-0.19-12.17c0.05-7.09,0.1-14.19-0.07-21.28c-0.12-5.01-0.3-10.11-4.18-13.69
		c-0.26-0.24-0.77-0.04-0.78,0.32c-0.43,8.95-0.26,18.06-0.31,27.02c-0.02,4.28-0.06,8.57-0.05,12.86c-0.58,0.27-1.05,0.8-1.21,1.62
		c-2.15,10.91-5.17,21.84-11.57,31.12c-1,1.46-0.49,3.14,1.04,3.95c4.9,2.57,12.29,5.33,17.94,4.05c5.24-1.19,5-8.78,6.51-12.86
		c2.6-7.03,6.73-13.36,11.87-18.8c4.02-4.26,8.62-8.22,9.11-14.44C242.6,104.03,240,102.49,238.85,104.32z"/>
	<path class="st7" d="M179.2,234.64c-5.35,3.84-9.19,11.87-7.5,18.37c0.52,2,3.2,1.88,4.33,0.62c1.84-2.06,3.22-4.7,4.55-7.11
		c1.38-2.51,3.22-4.7,4.65-7.17C187.29,235.77,182.11,232.55,179.2,234.64z"/>
	<path class="st7" d="M175.63,261c-0.14-0.74-0.7-1.29-1.47-1.3c-0.76,0-1.35,0.54-1.49,1.28c-0.07,0.39-0.09,0.75-0.03,1.14
		c0.06,0.47,0.24,0.82,0.48,1.23c0.22,0.38,0.77,0.56,1.19,0.51c0.5-0.06,0.79-0.37,1.03-0.78
		C175.71,262.44,175.77,261.72,175.63,261z"/>
	<path class="st7" d="M199.53,159.6c-1.89-0.51-3.52,0.47-4.41,2.14c-0.33,0.63-0.54,1.31-0.78,1.98c-0.29,0.8-0.72,1.69-0.83,2.53
		c-0.23,1.76,0.73,4.14,2.74,4.4c3.82,0.49,5.25-4.02,6.01-6.98C202.73,161.88,201.14,160.03,199.53,159.6z"/>
	<path class="st7" d="M263.56,106.69c-1.09-1.47-2.86-1.46-4.31-0.64c-1.02,0.58-2,1.39-2.93,2.11c-1.08,0.84-2.55,1.9-2.96,3.25
		c-0.67,2.2,1.19,4.43,3.52,3.58c1.1-0.4,1.68-1.15,2.46-1.86c1.34-0.36,2.51-1.24,3.58-2.13
		C264.2,109.94,264.59,108.08,263.56,106.69z"/>
	<path class="st7" d="M250.4,122.31c-0.07-0.21-0.2-0.39-0.36-0.53c-0.14-0.17-0.32-0.3-0.53-0.38c-0.2-0.09-0.41-0.13-0.62-0.11
		c-0.53,0-0.96,0.22-1.31,0.62c-0.12,0.14-0.24,0.27-0.35,0.42c-0.09,0.12-0.19,0.28-0.25,0.41c-0.02,0.08-0.05,0.16-0.07,0.25
		c-0.04,0.07-0.05,0.14-0.05,0.22c0,0.08,0,0.16,0,0.24c-0.03,0.23,0,0.46,0.08,0.67c0.06,0.17,0.16,0.31,0.29,0.43
		c0.12,0.14,0.26,0.24,0.43,0.31c0.22,0.09,0.44,0.12,0.68,0.09c0.07,0,0.15,0,0.22,0c0.3-0.01,0.65-0.16,0.88-0.35
		c0.14-0.11,0.28-0.23,0.41-0.35c0.35-0.3,0.57-0.65,0.65-1.1C250.54,122.86,250.51,122.58,250.4,122.31z"/>
	<g>
		<path class="st8" d="M338.05,230.44c10.24,10.26,16.98,24.18,20.36,38.17c1.7,7.02,2.35,14.1,1.84,21.3
			c-0.55,7.95-2.02,15.82-4.1,23.51c-4.32,15.89-11.3,31.05-20.22,44.88c-8.28,12.83-18.38,24.66-31.61,32.57
			c-12.32,7.37-26.88,10.71-41.01,7.32c-7.32-1.75-13.82-5.23-20.19-9.13c-5.77-3.53-11.36-7.35-16.77-11.41
			c-11.45-8.59-22.11-18.28-31.69-28.91c-9.37-10.4-17.75-21.79-24.26-34.2c-5.97-11.38-10.42-23.82-11.62-36.68
			c-1.17-12.49,0.86-25.1,6.38-36.4c1.46-2.99,3.14-5.87,4.99-8.63c1.18-1.77-1.67-3.42-2.84-1.66c-7.41,11.12-11.7,24-12.11,37.38
			c-0.41,13.21,2.82,26.27,7.96,38.37c5.59,13.14,13.47,25.21,22.44,36.28c9.31,11.48,19.92,21.92,31.37,31.26
			c5.51,4.5,11.22,8.76,17.13,12.72c5.94,3.99,12.11,8.02,18.68,10.9c13.99,6.12,29.56,6.18,43.67,0.4
			c14.39-5.89,26.2-16.48,35.51-28.76c10.11-13.34,18.14-28.33,23.8-44.08c2.84-7.91,5.05-16.05,6.44-24.34
			c1.26-7.58,2.02-15.33,1.23-23c-1.56-15.03-7.41-30.06-16.32-42.26c-2.04-2.8-4.27-5.46-6.72-7.92
			C338.88,226.61,336.55,228.94,338.05,230.44L338.05,230.44z"/>
		<path class="st8" d="M188.45,155.35c-3.61,6.41-7.86,12.43-12.74,17.94c-4.69,5.3-9.96,9.9-15.43,14.36
			c-4.93,4.02-9.91,8.13-13.61,13.37c-4.04,5.73-5.51,12.4-4.45,19.32c0.59,3.86,1.86,7.59,3.29,11.21
			c1.22,3.09,2.38,6.39,4.53,8.97c4.53,5.42,12.22,3.45,16.55-1.14c2.44-2.58,4.06-5.77,5.85-8.81c1.65-2.81,3.58-5.35,5.94-7.6
			c4.54-4.31,10.2-7.3,15.97-9.59c6.6-2.62,13.48-4.25,20.22-6.4c5.88-1.88,12.61-5.31,13.12-12.22c-0.69,0.53-1.39,1.06-2.08,1.59
			c5.57,2.14,11.99-0.33,15.67-4.79c4.3-5.2,4.47-12.49,2.03-18.57c-2.65-6.61-8.03-11.48-14.02-15.08
			c-6.54-3.94-13.81-6.86-21.1-9.06c-4.7-1.42-16.19-5.26-17.26,2.78c-0.12,0.89,0.84,1.64,1.64,1.64c0.99,0.01,1.53-0.77,1.64-1.64
			c0.24-1.81,3.47-1.74,4.72-1.65c2.96,0.2,6.04,1.32,8.86,2.19c6.16,1.89,12.2,4.33,17.85,7.45c5.23,2.88,10.3,6.61,13.32,11.89
			c2.67,4.69,3.85,10.96,1.18,15.91c-2.57,4.76-8.42,7.78-13.66,5.76c-1.07-0.41-2.01,0.62-2.08,1.59
			c-0.39,5.31-6.71,7.81-11.05,9.16c-5.79,1.8-11.67,3.27-17.37,5.34c-5.55,2.02-11.03,4.48-15.81,7.98
			c-2.39,1.75-4.63,3.71-6.56,5.97c-2.07,2.42-3.68,5.1-5.26,7.85c-1.58,2.75-3.25,5.69-5.89,7.57c-2.24,1.6-5.36,2.68-7.98,1.34
			c-2.73-1.39-3.95-4.76-5.04-7.41c-1.42-3.46-2.76-6.98-3.58-10.63c-1.48-6.6-0.57-12.97,3.2-18.61
			c3.31-4.94,8.01-8.83,12.58-12.57c5.67-4.64,11.19-9.32,16.08-14.8c5.19-5.81,9.74-12.17,13.57-18.96
			C192.33,155.17,189.49,153.51,188.45,155.35L188.45,155.35z"/>
		<path class="st8" d="M151.92,243.84c0.62,9.32-5.32,17.3-10.6,24.4c-5.14,6.9-12.28,15.79-22.03,14.35
			c-1.11-0.16-1.99,0.43-2.08,1.59c-0.62,7.51,2.04,15.11,7.08,20.69c2.57,2.84,5.92,5.38,9.67,6.36c4.18,1.09,8.31-0.17,12.08-2.01
			c4.67-2.29,9.14-5.07,13.5-7.9c1.77-1.15,0.12-4-1.66-2.84c-4.29,2.79-8.69,5.51-13.28,7.79c-2.16,1.07-4.52,2.02-6.97,2.1
			c-2.46,0.07-4.73-0.82-6.77-2.14c-7.23-4.68-11.07-13.59-10.37-22.05c-0.69,0.53-1.39,1.06-2.08,1.59
			c8.22,1.21,15.4-3.46,20.64-9.4c2.63-2.99,4.99-6.24,7.32-9.47c2.32-3.22,4.52-6.55,6.17-10.17c1.85-4.06,2.97-8.4,2.67-12.89
			C155.07,241.74,151.78,241.72,151.92,243.84L151.92,243.84z"/>
		<path class="st8" d="M196.99,148.54c7.69-21.41,15.7-44.03,13.3-67.16c-0.29-2.75-1.22-5.94-0.17-8.62
			c0.83-2.1,2.74-3.67,4.53-4.94c3.88-2.74,8.83-6.02,13.81-4.68c9.04,2.45,10.58,13.96,11.17,21.82c0.34,4.51,0.49,9.04,0.53,13.56
			c0.03,3.94,0.04,7.93-0.38,11.85c-0.22,2.1,3.07,2.09,3.29,0c0.85-7.93,0.47-16.14-0.05-24.07c-0.58-8.85-1.84-19.6-10.07-24.75
			c-4.67-2.92-9.97-2.25-14.69,0.17c-4.24,2.18-9.41,5.31-11.22,9.97c-1.09,2.81-0.48,5.76-0.14,8.65c0.36,3.08,0.53,6.17,0.54,9.27
			c0.01,6.04-0.62,12.06-1.71,18c-2.5,13.73-7.19,26.95-11.9,40.05C193.1,149.67,196.28,150.53,196.99,148.54L196.99,148.54z"/>
		<path class="st8" d="M221.61,154.47c4.9-18.85,13.27-38.02,29.67-49.6c3.73-2.63,7.79-4.84,12.09-6.37
			c1.01-0.36,2.03-0.68,3.06-0.97c1.08-0.3,2.58-0.34,3.27-1.33c1.12-1.62,1.38-4.07,1.4-5.97c0.05-4.19-1.38-8.27-1.18-12.46
			c0.18-3.77,2.4-6.59,6.07-7.52c3.93-0.99,8.03,0.44,10.49,3.65c2.87,3.75,3.36,8.92,2.25,13.39c-0.32,1.3,1.18,2.71,2.42,1.86
			c3.01-2.08,4.02-5.39,4.7-8.82c0.63-3.18,1.03-7.27,4.1-9.12c3.47-2.1,8.21-0.57,11.68,0.74c3.24,1.22,8.12,3.05,8.67,7.02
			c0.27,1.96-0.6,3.94-1.38,5.69c-0.85,1.91-1.81,3.83-2.2,5.9c-0.9,4.82,1.12,9.53,3.69,13.51c3.27,5.06,5.5,10.82,5.63,16.91
			c0.06,2.96-0.39,6.02-2,8.55c-1.77,2.78-4.74,4.07-7.9,4.54c-2.09,0.31-1.2,3.48,0.87,3.17c3.26-0.48,6.45-1.87,8.63-4.4
			c2.02-2.34,3.08-5.25,3.48-8.29c0.86-6.54-1-13.51-4.11-19.25c-2.16-3.99-5.27-7.59-5.25-12.39c0.02-4.65,3.73-8.36,3.86-13.02
			c0.13-4.68-3.61-7.75-7.49-9.58c-3.92-1.85-8.43-3.58-12.84-3.35c-4.99,0.26-8.33,3.46-9.67,8.14c-1.01,3.53-0.79,8.91-4.14,11.22
			c0.81,0.62,1.61,1.24,2.42,1.86c2.02-8.13-0.94-18.82-10.01-21.09c-3.61-0.9-7.75-0.37-10.81,1.84c-3.56,2.57-4.7,6.76-4.42,10.99
			c0.31,4.68,2.46,10.16,0.2,14.63c0.33-0.25,0.66-0.5,0.98-0.76c-20.94,4.76-35.45,22.45-43.38,41.47
			c-2.48,5.95-4.42,12.1-6.04,18.34C217.9,155.64,221.07,156.52,221.61,154.47L221.61,154.47z"/>
		<path class="st8" d="M251.92,173.81c3.88-9.1,9.2-17.56,15.8-24.93c6.41-7.16,14.31-14.51,23.88-16.91
			c5.29-1.33,11.03-0.96,15.8,1.83c1.83,1.07,3.49-1.77,1.66-2.84c-9.44-5.53-20.93-2.74-29.55,3
			c-8.65,5.76-15.96,13.84-21.79,22.39c-3.39,4.97-6.28,10.27-8.64,15.8C248.25,174.07,251.09,175.75,251.92,173.81L251.92,173.81z"
			/>
		<path class="st8" d="M268.34,145.93c2.94,3.6,3.07,9.33,0.23,13.03c-2.79,3.62-7.87,4.96-12.12,3.47c-2-0.7-2.86,2.47-0.87,3.17
			c5.66,1.99,12.32-0.15,15.84-4.98c3.68-5.05,3.14-12.27-0.74-17.02c-0.56-0.69-1.74-0.58-2.33,0
			C267.66,144.28,267.78,145.24,268.34,145.93L268.34,145.93z"/>
		<path class="st8" d="M247.56,177.38c-0.56,1.98-1.13,3.95-1.69,5.93c-0.24,0.83,0.29,1.83,1.15,2.02c0.88,0.2,1.77-0.26,2.02-1.15
			c0.56-1.98,1.13-3.95,1.69-5.93c0.24-0.83-0.29-1.83-1.15-2.02C248.7,176.03,247.81,176.5,247.56,177.38L247.56,177.38z"/>
		<path class="st8" d="M283.16,134.23c15.52,7.03,32.6,3.66,48.72,0.98c4.23-0.7,8.46-1.38,12.73-1.83
			c3.55-0.37,7.22-0.74,10.77-0.19c2.95,0.46,6.13,1.57,7.75,4.26c1.01,1.68,1.24,3.67,1.35,5.59c0.1,1.74,0.18,3.5,0.09,5.25
			c-0.19,3.68-1.48,6.94-5.11,8.38c-3.88,1.54-8.42,1.75-12.54,2.14c-8.39,0.79-16.83,1.34-24.79,4.34
			c-6.78,2.56-13.03,6.39-18.39,11.28c-2.7,2.46-5.13,5.2-7.31,8.13c-2.28,3.09-3.99,6.48-6.01,9.74c-1.95,3.14-4.43,5.82-7.98,7.08
			c-3.22,1.14-6.74,1.26-10.07,0.57c-7.48-1.57-13.28-7.02-17.82-12.89c-1.2-1.55-2.32-3.16-3.42-4.79
			c-1.18-1.74-4.03-0.1-2.84,1.66c4.51,6.68,9.79,13.37,17.15,17.06c6.39,3.2,14.55,3.86,20.91,0.19c3.52-2.03,5.86-5.33,7.85-8.78
			c1.96-3.4,3.88-6.77,6.37-9.82c4.85-5.94,10.94-10.8,17.81-14.21c7.85-3.9,16.27-5.15,24.91-5.92c4.57-0.41,9.17-0.76,13.67-1.66
			c3.73-0.75,7.45-2.32,9.31-5.85c1.76-3.34,1.71-7.28,1.54-10.96c-0.18-3.86-0.75-7.81-3.78-10.52
			c-5.53-4.95-14.12-3.97-20.88-3.19c-8.9,1.03-17.68,2.92-26.57,4.05c-8.51,1.08-17.32,1.52-25.69-0.75
			c-2.08-0.56-4.11-1.28-6.07-2.17C282.91,130.52,281.23,133.36,283.16,134.23L283.16,134.23z"/>
		<path class="st8" d="M203.38,118.9c-4.25-3.1-9.31-4.52-14.48-5.11c-2.65-0.3-5.32-0.37-7.99-0.34c-1.34,0.02-2.67,0.06-4.01,0.11
			c-0.59,0.02-1.17,0.05-1.76,0.08c-0.22,0.01-0.58,0.07-0.82,0.03c-0.67-0.1-0.34,0.12-0.57-0.37c-0.22-0.47,0-1.76,0-2.29
			c0-0.81,0-1.61,0.01-2.42c0-1.61,0.01-3.23,0.01-4.84c0.01-2.5-0.16-5.26,0.85-7.61c1.07-2.5,3.54-3.5,5.96-4.31
			c2.77-0.92,5.65-1.57,8.56-1.87c6.66-0.68,13.34,0.23,19.57,2.65c1.97,0.77,2.83-2.41,0.87-3.17c-6.09-2.37-12.72-3.36-19.24-2.88
			c-3.29,0.24-6.56,0.83-9.72,1.8c-2.7,0.83-5.68,1.85-7.56,4.09c-1.81,2.17-2.37,4.95-2.53,7.7c-0.2,3.34-0.07,6.71-0.08,10.05
			c-0.01,2.86-0.34,6.53,3.48,6.75c2.89,0.17,5.86-0.24,8.76-0.22c6.68,0.05,13.49,0.97,19.02,5.01
			C203.43,122.98,205.08,120.13,203.38,118.9L203.38,118.9z"/>
		<path class="st8" d="M191.82,147.1c-6.12,1.95-12.58,1.17-18.69-0.43c-3.2-0.84-6.35-1.91-9.45-3.07
			c-1.45-0.54-2.88-1.1-4.32-1.67c-1.51-0.6-3.04-1.38-4.62-1.78c-3.21-0.81-5.24,1.18-6.59,3.85c-1.48,2.94-3,6.18-2.92,9.55
			c0.16,6.43,6.03,10.14,11.31,12.44c7.01,3.06,14.7,4.35,22.32,3.68c2.09-0.18,2.11-3.47,0-3.29c-6.22,0.54-12.44-0.22-18.32-2.32
			c-4.38-1.56-11.04-4.29-11.93-9.54c-0.52-3.07,1.04-6.2,2.38-8.86c0.42-0.83,0.96-2.18,1.98-2.42c1.23-0.29,3.14,0.92,4.26,1.36
			c5.43,2.17,10.92,4.29,16.63,5.63c6.17,1.45,12.71,1.98,18.84,0.03C194.71,149.63,193.85,146.45,191.82,147.1L191.82,147.1z"/>
		<path class="st8" d="M151.25,163.47c-3.11,3.19-3.22,7.99-1.4,11.86c2.05,4.37,6.61,6.61,11.24,7.03
			c2.71,0.25,5.49-0.15,8.08-0.94c2.02-0.62,1.16-3.8-0.87-3.17c-4.44,1.36-10.19,1.52-13.77-1.95c-2.76-2.68-3.75-7.63-0.95-10.51
			C155.06,164.27,152.73,161.95,151.25,163.47L151.25,163.47z"/>
		<path class="st8" d="M321.05,167.43c6.06,5.08,11.25,11.02,15.25,17.86c1.98,3.4,3.7,6.96,5.17,10.6
			c1.78,4.41,3.26,9.05,3.46,13.84c0.31,7.65-3.39,16.37-11.59,18.07c-8.47,1.76-16.07-4.37-20.9-10.63
			c-5.94-7.7-9.89-16.95-17.49-23.29c-1.61-1.35-3.95,0.97-2.33,2.33c7.31,6.1,11.18,14.98,16.84,22.44
			c5.31,7.01,13.06,13.39,22.42,12.65c8.62-0.68,14.73-7.98,16.02-16.22c1.51-9.62-2.43-19.36-6.74-27.77
			c-4.38-8.55-10.41-16.04-17.77-22.2C321.77,163.75,319.43,166.06,321.05,167.43L321.05,167.43z"/>
		<path class="st8" d="M330.87,176.1c2.73-1.01,5.46-2.01,8.19-3.02c1.42-0.53,2.84-1.07,4.28-1.57c1.11-0.39,2.57-0.97,3.68-0.29
			c0.85,0.52,1.31,1.56,1.72,2.43c0.57,1.22,1.07,2.48,1.53,3.74c0.97,2.66,1.74,5.38,2.33,8.14c0.25-0.62,0.5-1.24,0.76-1.86
			c-3.63,2.2-7.26,4.39-10.89,6.59c-1.81,1.09-0.16,3.94,1.66,2.84c3.63-2.2,7.26-4.39,10.89-6.59c0.65-0.4,0.91-1.13,0.76-1.86
			c-0.67-3.12-1.56-6.19-2.72-9.16c-0.97-2.49-1.96-5.65-4.38-7.12c-2.85-1.72-6.21-0.04-8.98,0.98c-3.23,1.19-6.46,2.38-9.69,3.57
			C328.02,173.66,328.87,176.84,330.87,176.1L330.87,176.1z"/>
		<path class="st8" d="M344.77,198.56c5.03,0.16,10.06,0.32,15.09,0.48c1.5,0.05,3.78-0.13,4.96,1.04c0.7,0.7,0.59,1.8,0.53,2.7
			c-0.08,1.16-0.23,2.32-0.4,3.46c-0.35,2.4-0.84,4.78-1.45,7.13c-0.32,1.21-0.66,2.42-1.05,3.61c-0.28,0.86-0.51,1.88-1.09,2.6
			c-0.65,0.82-1.62,0.64-2.55,0.46c-1.22-0.24-2.42-0.55-3.63-0.82c-2.46-0.56-4.91-1.11-7.37-1.67c-2.06-0.47-2.94,2.7-0.87,3.17
			c2.3,0.52,4.61,1.04,6.91,1.56c2.04,0.46,4.29,1.28,6.4,1.19c4.57-0.19,5.5-5.7,6.42-9.23c0.57-2.2,1.03-4.43,1.38-6.67
			c0.32-2.07,0.79-4.32,0.59-6.42c-0.38-4.09-4.1-5.22-7.64-5.37c-5.41-0.23-10.82-0.34-16.22-0.52
			C342.66,195.21,342.66,198.5,344.77,198.56L344.77,198.56z"/>
	</g>
</g>
<circle class="st1" cx="242.9" cy="213.15" r="18.91"/>
<circle class="st1" cx="242.9" cy="248.37" r="18.91"/>
<circle class="st1" cx="242.9" cy="171.44" r="10.18"/>
<circle class="st1" cx="242.9" cy="209.79" r="10.18"/>
<circle class="st1" cx="242.9" cy="296.16" r="10.18"/>
<circle class="st1" cx="242.9" cy="256.65" r="10.18"/>
</svg>
