<?xml version="1.0" encoding="utf-8"?>
<!-- Generator: Adobe Illustrator 24.2.3, SVG Export Plug-In . SVG Version: 6.00 Build 0)  -->
<svg version="1.1" id="Layer_1" xmlns="http://www.w3.org/2000/svg" xmlns:xlink="http://www.w3.org/1999/xlink" x="0px" y="0px"
	 viewBox="0 0 500 500" style="enable-background:new 0 0 500 500;" xml:space="preserve">
<style type="text/css">
	.st0{fill:#FFFFFF;}
	.st1{fill:#EA9553;}
	.st2{fill:#F07F33;}
	.st3{opacity:0.8;fill:#EA9553;}
	.st4{opacity:0.7;fill:#FFFFFF;}
	.st5{fill:#A368D4;}
	.st6{fill:#D9002C;}
	.st7{fill:#7A001D;}
	.st8{fill:#118CD5;}
	.st9{fill:#0B5B9E;}
	.st10{opacity:0.5;}
	.st11{fill:#107FCB;}
	.st12{fill:#0C62B3;}
	.st13{fill:#042455;}
	.st14{fill:#6D101C;}
	.st15{fill:#CF2C38;}
	.st16{fill:#EC2C38;}
	.st17{fill:#CE8453;}
	.st18{fill:#944A24;}
	.st19{opacity:0.6;fill:#CE8453;}
	.st20{opacity:0.8;}
	.st21{opacity:0.6;}
	.st22{fill:#992932;}
</style>
<g>
	<path class="st0" d="M344.48,142.76c-1.39-16.73-12.33-36.42-30.54-41.7c-3.46-1-7.04-1.53-10.36-1.53c-1.21,0-2.39,0.07-3.53,0.21
		c-5,0.64-9.28,2.52-12.74,5.59c-5.65,5.02-8.43,12.68-7.81,21.56c0.06,0.84,0.15,1.65,0.28,2.45c-2.05,0.67-4.06,1.01-6.01,1.01
		c-0.48,0-0.98-0.02-1.45-0.06c-1.4-0.12-2.78-0.34-4.12-0.64c0,0,0.03-51.29,0.03-51.34c0-2.13-1-9.1-13.93-9.1
		c-9.57,0-12.59,3.83-13.52,6.67c-10.75,0.77-11.63,7.01-11.63,9.02l-0.01,48.61c-2.14,0.24-4.14,0.31-5.73,0.31h-0.35
		c-1.39-0.01-2.71-0.11-3.95-0.29c0.7-1.89,1.21-4.09,1.38-6.65c0.61-8.88-2.16-16.54-7.81-21.56c-3.46-3.08-7.75-4.96-12.76-5.6
		c-1.12-0.14-2.31-0.21-3.52-0.21c-3.32,0-6.9,0.53-10.35,1.53c-18.21,5.28-29.15,24.98-30.53,41.7
		c-0.72,8.65-0.95,19.86,3.76,29.84c3.35,7.12,11.33,16.03,22.81,17.7c1.09,0.16,2.22,0.24,3.37,0.24c5.98,0,11.71-2.28,15.73-6.26
		c2.15-2.13,3.91-5.25,5.38-9.56c0.13-0.38,0.25-0.78,0.37-1.17c0.04-0.05,0.09-0.11,0.13-0.16c8.36,14.09,8.79,34.21,7.44,49.59
		c-2.2,25.21-9.72,48.44-13.38,57.21c-2.17,5.19-4.95,10.76-7.41,15.72c-8.07,16.25-16.41,33.05-13.56,49.2
		c2.48,14.05,12.52,21.95,20.2,26.03c0.09,0.39,0.19,0.77,0.3,1.15c2.59,8.68,10.78,15.19,25.76,20.48
		c0.26,0.09,0.53,0.17,0.79,0.23c4.06,0.92,9.07,3.26,10.45,5.26c0,0,3.11,25.86,3.11,25.9c0.33,2.42,1.84,4.51,4.04,5.59
		c0.04,0.02,0.07,0.03,0.11,0.05c1.74,0.82,3.45,0.92,4.16,0.96l0.29,0.02c0.34,0.02,0.66,0.03,0.99,0.03
		c1.42,0,2.78-0.22,4.04-0.67c0.15-0.05,0.29-0.11,0.43-0.17c2.37-1.02,4.05-3.23,4.4-5.86l3.1-25.84
		c1.29-1.86,5.83-4.18,10.52-5.28c0.07-0.02,0.18-0.04,0.25-0.06c0.17-0.05,0.35-0.1,0.52-0.16c14.94-5.28,23.12-11.78,25.72-20.45
		c0.12-0.38,0.22-0.77,0.31-1.17c7.68-4.08,17.72-11.98,20.2-26.03c2.84-16.17-5.5-32.97-13.58-49.24
		c-2.46-4.93-5.24-10.52-7.39-15.69c-3.67-8.75-11.18-31.96-13.38-57.2c-1.34-15.26-0.93-35.24,7.28-49.33
		c0.17,0.19,0.33,0.39,0.5,0.58c0.05,0.17,0.11,0.34,0.17,0.52c1.47,4.29,3.22,7.41,5.37,9.54c4.02,3.98,9.76,6.25,15.74,6.25
		c1.15,0,2.28-0.08,3.36-0.24c11.48-1.67,19.47-10.58,22.81-17.7C345.43,162.6,345.2,151.4,344.48,142.76z M224.95,161.21
		c1.45-0.47,2.85-0.85,4.18-1.16l0,9.13C227.9,166.49,226.51,163.83,224.95,161.21z M236.01,208.62c1.96,0.61,4.32,0.91,7.07,0.91
		c9.57,0,12.6-3.83,13.52-6.68c3.34-0.24,5.72-1.01,7.42-2.01c-0.93,26.84,6.44,54.98,14.75,81.65c2.26,7.25,5.61,14.93,8.85,22.36
		c6.63,15.18,14.14,32.37,9.96,42.29c-0.72,1.7-1.75,3.19-3.17,4.53c-0.12-0.16-0.23-0.31-0.35-0.47
		c-13.82-18.2-38.75-18.41-39.81-18.41h-8.55c-1.05,0-25.98,0.21-39.8,18.41c-0.12,0.16-0.24,0.31-0.35,0.47
		c-1.41-1.34-2.45-2.83-3.17-4.53c-4.17-9.9,3.34-27.09,9.97-42.29l0.06-0.13c3.23-7.4,6.56-15.05,8.8-22.22
		C228.73,258.39,235.47,233.08,236.01,208.62z M268.19,176l0.01-21.17c1.49,0.68,2.95,1.47,4.4,2.34c1.2,0.73,2.39,1.48,3.55,2.25
		C272.81,164.77,270.14,170.34,268.19,176z"/>
	<g>
		<g>
			<g>
				<g>
					<path class="st1" d="M297.49,145.48c0,0-21.98,17.59-25.4,45.92c-3.42,28.33,4.4,59.11,13.68,88.91
						c9.28,29.8,39.08,69.36,2.93,83.05v4.4c0,0,20.64-5.25,23.94-23.94c3.3-18.68-12.09-40.67-20.52-60.81
						c-8.43-20.15-30.05-96.72,4.03-124.57L297.49,145.48z"/>
					<path class="st2" d="M288.7,368.13c-0.08,0-0.15-0.03-0.22-0.08c-0.09-0.07-0.14-0.18-0.14-0.29v-4.4
						c0-0.15,0.1-0.29,0.24-0.34c7.91-2.99,12.96-7.3,15.43-13.18c5.33-12.65-2.46-30.5-10-47.77c-3.18-7.27-6.45-14.79-8.59-21.64
						c-9.15-29.38-17.14-60.49-13.69-89.06c3.4-28.16,25.32-45.98,25.54-46.16c0.11-0.09,0.27-0.11,0.4-0.03
						c0.13,0.07,0.21,0.21,0.19,0.36l-1.35,12.95c0,0.1-0.05,0.18-0.13,0.24c-18.12,14.81-19.69,43.44-17.82,64.86
						c2.28,26.06,10.08,50.18,13.9,59.29c2.2,5.27,4.93,10.78,7.58,16.1c7.57,15.25,15.4,31.02,12.96,44.93
						c-3.3,18.69-24,24.18-24.21,24.23C288.76,368.12,288.73,368.13,288.7,368.13z M289.06,363.61v3.66
						c3.04-0.91,20.26-6.82,23.21-23.51c2.41-13.67-5.37-29.33-12.89-44.47c-2.65-5.33-5.39-10.85-7.61-16.14
						c-3.82-9.15-11.66-33.36-13.95-59.51c-1.89-21.54-0.29-50.35,17.96-65.39l1.23-11.89c-3.74,3.28-21.56,20.07-24.58,45.1
						c-3.43,28.43,4.54,59.45,13.66,88.76c2.12,6.8,5.39,14.31,8.56,21.56c7.6,17.4,15.46,35.4,10,48.35
						C302.15,356.13,297.04,360.55,289.06,363.61z"/>
				</g>
				<path class="st3" d="M292.12,283c-8.43-20.15-30.05-96.72,4.03-124.57l1.34-12.95c0,0-9.36,7.5-16.82,20.59
					c1.79-1,3.67-1.61,4.89-0.81c0,0-10.75,15.39-11.73,43.72c-0.98,28.33,15.63,76.7,19.54,85c3.91,8.3,24.68,48.37,10.75,57.64
					c-0.3,0.2-0.59,0.38-0.87,0.55c-2.64,4.59-7.24,8.41-14.56,11.17v4.4c0,0,20.64-5.25,23.94-23.94
					C315.93,325.13,300.55,303.15,292.12,283z"/>
				<path class="st4" d="M277.98,173.08c0,0-10.26,24.18-3.91,59.36C274.07,232.44,269.92,198.74,277.98,173.08z"/>
				<path class="st4" d="M294.1,300.1c0,0,17.09,35.66,11.23,48.6c0,0,6.11-8.55-1.22-27.11C296.79,303.03,294.1,300.1,294.1,300.1z
					"/>
			</g>
			<g>
				<g>
					<path class="st1" d="M202.51,145.48c0,0,21.98,17.59,25.4,45.92c3.42,28.33-4.4,59.11-13.68,88.91
						c-9.28,29.8-39.08,69.36-2.93,83.05v4.4c0,0-20.64-5.25-23.94-23.94c-3.3-18.68,12.09-40.67,20.52-60.81
						c8.43-20.15,30.04-96.72-4.03-124.57L202.51,145.48z"/>
					<path class="st2" d="M211.3,368.13c-0.02,0-0.06-0.01-0.09-0.01c-0.21-0.05-20.91-5.53-24.2-24.23
						c-2.46-13.91,5.38-29.68,12.95-44.93c2.65-5.32,5.38-10.83,7.59-16.1c3.81-9.11,11.62-33.22,13.89-59.29
						c1.87-21.42,0.3-50.05-17.82-64.86c-0.07-0.06-0.12-0.15-0.13-0.24l-1.34-12.95c-0.02-0.15,0.06-0.29,0.19-0.36
						c0.13-0.07,0.29-0.06,0.4,0.03c0.22,0.18,22.14,18.01,25.54,46.16c3.45,28.57-4.54,59.68-13.69,89.06
						c-2.13,6.85-5.42,14.37-8.59,21.64c-7.53,17.27-15.33,35.12-10,47.77c2.48,5.88,7.53,10.19,15.44,13.18
						c0.14,0.06,0.24,0.2,0.24,0.34v4.4c0,0.11-0.05,0.22-0.14,0.29C211.46,368.1,211.38,368.13,211.3,368.13z M204.19,158.24
						c18.26,15.04,19.86,43.85,17.97,65.39c-2.29,26.15-10.12,50.36-13.95,59.51c-2.21,5.29-4.95,10.81-7.6,16.14
						c-7.53,15.15-15.3,30.8-12.89,44.47c2.94,16.7,20.17,22.6,23.21,23.51v-3.66c-7.97-3.06-13.08-7.48-15.62-13.49
						c-5.45-12.95,2.41-30.95,10.01-48.35c3.16-7.25,6.44-14.76,8.56-21.56c9.13-29.3,17.1-60.33,13.67-88.76
						c-3.02-25.04-20.84-41.82-24.59-45.1L204.19,158.24z"/>
				</g>
				<path class="st3" d="M202.51,145.48l1.34,12.95c3.4,2.79,6.25,6.06,8.6,9.71c0.25-0.69,0.72-1.08,1.53-0.91
					c3.66,0.73,11.48,13.19,11.48,44.21c0,31.02-7.33,51.78-14.41,68.88c-7.09,17.1-23.45,45.19-19.3,63.99c0,0,0.73,4.16,2.44,7.08
					c1.08,1.85,0.5,3.98-1.23,4.64c7.22,8.89,18.33,11.73,18.33,11.73v-4.4c-36.15-13.68-6.34-53.25,2.93-83.05
					c9.28-29.8,17.1-60.58,13.68-88.91C224.49,163.07,202.51,145.48,202.51,145.48z"/>
				<path class="st4" d="M195.06,311.76c0,0-10.44,22.35-6.59,33.71c0,0,1.83,4.94,3.66,7.14
					C192.13,352.61,183.15,340.71,195.06,311.76z"/>
				<path class="st4" d="M216.12,173.45c0,0,12.46,18.14,5.5,60.45l-5.68,30.41c0,0,7.72-26.76,8.79-50.01
					C226.02,186.46,216.12,173.45,216.12,173.45z"/>
			</g>
			<g>
				<path class="st5" d="M224.55,145.29c1.71-0.35,3.12-0.65,3.12-0.65C226.86,144.73,225.8,144.94,224.55,145.29z"/>
			</g>
			<g>
				<g>
					<path class="st6" d="M280.97,144.51c0,0,13.33-1.74,20.88-8.79l-6.96-2.93c0,0-12.46,9.71-27.11,5.31
						c-2.91-0.87-5.16-2.24-6.9-3.87l0.02-55.91h-13.19l-0.01,53.92c-4.15,6.66-14.36,8.97-24.68,8.91
						c-13.43-0.08-21.47-7.29-21.47-7.29l0.23,5.28c0,0,6.1,7.38,25.89,5.51c-5.38,0.51-21.99,7.43-31.51,16.04l0.98,4.15
						c0,0,22.72-17.34,41.52-18.08c0,0,3.85-0.79,9.03-0.61l-0.02,47.81h0.07c0.25,0.92,3.09,1.65,6.57,1.65
						c3.64,0,6.59-0.79,6.59-1.77c0-0.07-0.01-0.13-0.04-0.19l0.02-48.82c4.75,0.92,10.01,2.76,15.51,6.09
						c20.52,12.45,26.87,24.67,26.87,24.67l5.25-2.51C308.52,173.08,302.41,158.25,280.97,144.51z"/>
					<path class="st7" d="M254.32,195.97L254.32,195.97c-2.96,0-6.28-0.55-6.87-1.75l0,0c-0.07-0.06-0.14-0.16-0.14-0.26l0.02-47.45
						c-4.91-0.13-8.56,0.61-8.59,0.62c-9.7,0.38-20.41,5.25-27.71,9.27c-7.91,4.36-13.61,8.7-13.67,8.74
						c-0.09,0.08-0.22,0.09-0.34,0.05c-0.12-0.04-0.21-0.14-0.24-0.26l-0.97-4.15c-0.04-0.13,0.01-0.27,0.11-0.35
						c7.68-6.94,20.01-12.83,27.38-15.13c-0.61,0.02-1.2,0.03-1.8,0.03c-14.91,0-19.8-5.71-20-5.96c-0.05-0.06-0.08-0.14-0.08-0.22
						l-0.22-5.27c0-0.15,0.08-0.28,0.21-0.35c0.13-0.06,0.29-0.04,0.4,0.06c0.08,0.07,8.1,7.12,21.23,7.19h0.39
						c6.89,0,19.14-1.12,23.92-8.65l0.02-53.82c0-0.2,0.16-0.37,0.36-0.37l0,0h13.19c0.1,0,0.19,0.04,0.26,0.11
						c0.07,0.07,0.11,0.16,0.11,0.25l-0.03,55.75c1.83,1.67,4.07,2.91,6.64,3.68c2.5,0.75,5.1,1.13,7.72,1.13
						c10.75,0,18.98-6.32,19.06-6.38c0.1-0.08,0.24-0.1,0.36-0.05l6.96,2.93c0.12,0.05,0.2,0.15,0.23,0.27
						c0.02,0.12-0.02,0.25-0.12,0.33c-6.38,5.96-16.92,8.18-20.13,8.74c10.65,6.96,17.33,14.15,21.1,19
						c4.19,5.41,5.72,9.07,5.78,9.22c0.08,0.18-0.01,0.39-0.18,0.47l-5.25,2.51c-0.18,0.08-0.39,0.01-0.48-0.17
						c-0.07-0.12-6.56-12.27-26.73-24.52c-4.8-2.92-9.84-4.92-14.96-5.96l-0.02,48.31c0.03,0.09,0.05,0.17,0.05,0.26
						C261.28,195.24,257.77,195.97,254.32,195.97z M248.04,193.77c0.02,0.03,0.04,0.07,0.05,0.1c0.15,0.56,2.45,1.38,6.22,1.38
						l0.01,0.37v-0.37c4.02,0,6.22-0.92,6.22-1.4c-0.01-0.04-0.04-0.15-0.04-0.19l0.02-48.82c0-0.11,0.05-0.21,0.14-0.28
						c0.08-0.07,0.19-0.1,0.3-0.08c5.37,1.04,10.63,3.1,15.63,6.14c18.58,11.27,25.68,22.52,26.83,24.51l4.62-2.21
						c-1.03-2.22-7.89-15.68-27.25-28.09c-0.13-0.08-0.2-0.24-0.16-0.39c0.04-0.15,0.16-0.27,0.31-0.28
						c0.13-0.02,12.81-1.74,20.26-8.32l-6.24-2.62c-1.26,0.92-9.21,6.4-19.34,6.4c-2.7,0-5.37-0.39-7.93-1.16
						c-2.74-0.82-5.11-2.16-7.05-3.95c-0.07-0.07-0.11-0.17-0.11-0.27l0.02-55.54l-12.46-0.01l-0.02,53.56
						c0,0.06-0.01,0.14-0.05,0.19c-4.93,7.91-17.52,9.09-24.59,9.09h-0.4c-11.29-0.07-18.88-5.19-21.07-6.86l0.18,4.33
						c0.68,0.71,5.83,5.6,19.36,5.6c1.96,0,4.02-0.1,6.14-0.31c0.21-0.02,0.38,0.13,0.4,0.33c0.02,0.2-0.13,0.38-0.33,0.4
						c-5.32,0.5-21.68,7.34-31.14,15.8l0.81,3.4c1.5-1.11,6.61-4.77,13.3-8.46c7.36-4.05,18.19-8.97,27.98-9.35l0,0
						c-0.04,0,3.89-0.8,9.06-0.61c0.2,0.01,0.35,0.17,0.35,0.36L248.04,193.77z"/>
				</g>
				<path class="st4" d="M251.29,86.8v102.4c0,0,1.29-6.41,1.29-10.8C252.58,174,251.12,86.8,251.29,86.8z"/>
				<g>
					<path class="st5" d="M227.61,144.65h-0.01c0.02,0,0.05-0.01,0.07-0.01C227.64,144.65,227.63,144.65,227.61,144.65z"/>
					<path class="st5" d="M201.73,137.96l0.05,1.17c0,0,6.09,7.37,25.83,5.52l5.68-1.86C214.76,145.46,205.1,140.36,201.73,137.96z"
						/>
					<path class="st5" d="M227.6,144.65c-0.72,0.08-1.65,0.27-2.73,0.56l2.06-0.34L227.6,144.65z"/>
					<path class="st5" d="M219.12,149.51c-11.07,4.51-19.33,10.38-22.57,12.86l0.59,2.47c0,0,22.72-17.34,41.52-18.08
						c0,0,3.85-0.79,9.03-0.61C248.54,141.45,233.52,143.65,219.12,149.51z"/>
				</g>
				<g>
					<path class="st5" d="M276.76,145.48c0.2-1.22,3.37-1.08,4.42-1.01c1.68-0.25,13.66-2.21,20.67-8.76l-3.64-1.53
						c-3.18,2.18-7.75,4.88-13.02,6.66c-10.14,3.42-18.44,0.12-21.86-1.58c-3.42-1.71-2.44-5.04-2.44-5.04l0.02-55.91h-13.19v7.77
						c0.63-1.53,1.53-2.79,2.79-2.64c0,0,4.02-1.47,4.76,3.17v53.86v47.02c0,0-0.74,4.88-6.72,4.88c-0.28,0-0.57-0.03-0.87-0.07
						v1.65h0.07c0.25,0.92,3.09,1.65,6.57,1.65c3.64,0,6.59-0.79,6.59-1.77c0-0.07-0.01-0.13-0.04-0.19l0.02-48.82
						c4.75,0.92,10.01,2.76,15.51,6.09c20.52,12.45,26.87,24.67,26.87,24.67l2.47-1.18C292.92,153.4,276.52,146.95,276.76,145.48z"
						/>
				</g>
				<path class="st4" d="M207.79,138.92c0,0,18.78,8.88,38.93-3.12c0,0-7.05,6.41-22.07,6.96
					C224.65,142.76,214.02,142.86,207.79,138.92z"/>
				<path class="st4" d="M199.55,159.16c0,0,14.38-9.99,29.86-14.11C229.41,145.06,211.45,149.46,199.55,159.16z"/>
				<path class="st4" d="M268.15,139.84c0,0,15.75,2.57,27.3-6.32C295.45,133.52,285,143.59,268.15,139.84z"/>
				<path class="st4" d="M283.9,147.9c0,0,15.58,9.71,22.53,24C306.44,171.9,296.91,156.41,283.9,147.9z"/>
			</g>
			<g>
				<g>
					<path class="st8" d="M301.31,171.25l-0.92-6.96c0,0-13.73-15.1-23.49-20.51c0,0,15.01-3.41,19.73-9.46
						c4.72-6.05-0.62-6.53-0.62-6.53s-10.63,10.98-24.32,9.79c-12.3-1.07-18.93-7.36-22.04-9.56l0.02-43.11l-13.2-0.01l-0.01,54.42
						c-2.62,3.37-7.74,7.93-16.31,8.67c-10.62,0.91-18.87-7.52-18.87-7.52s-4.15,0.37-0.49,5.01c3.66,4.64,13.13,7.27,13.13,7.27
						c-7.57,4.16-15.76,14.29-15.76,14.29l1.47,4.03c12.58-17.85,31.78-18.66,36.81-19.86l-0.01,49.35h0.07
						c0.24,0.92,3.08,1.64,6.56,1.64c3.64,0,6.6-0.79,6.6-1.77c0-0.07-0.02-0.13-0.04-0.19l0.02-62.33
						C253.95,139.82,284.03,146.46,301.31,171.25z"/>
					<path class="st9" d="M243.09,202.57h-0.01c-2.95,0-6.27-0.55-6.87-1.75l0,0c-0.07-0.07-0.14-0.17-0.14-0.26l0.01-48.9
						c-0.6,0.12-1.34,0.25-2.23,0.4c-7.49,1.24-23.07,3.83-33.91,19.22c-0.08,0.11-0.21,0.17-0.35,0.15
						c-0.14-0.02-0.25-0.11-0.3-0.24l-1.46-4.03c-0.05-0.12-0.02-0.25,0.06-0.35c0.08-0.1,7.78-9.59,15.12-13.95
						c-2.41-0.76-9.4-3.22-12.5-7.14c-1.39-1.77-1.87-3.19-1.42-4.23c0.52-1.22,2.1-1.37,2.17-1.38c0.11-0.01,0.22,0.03,0.29,0.11
						c0.08,0.08,7.43,7.48,16.98,7.48c0.54-0.01,1.07-0.03,1.6-0.07c8.27-0.71,13.24-4.95,15.98-8.43l0.02-54.29
						c0-0.2,0.16-0.36,0.36-0.36l0,0h13.2c0.09,0,0.19,0.04,0.26,0.11c0.07,0.07,0.11,0.16,0.11,0.26l-0.01,42.92
						c0.36,0.26,0.76,0.57,1.22,0.92c3.44,2.63,9.84,7.54,20.47,8.46c0.68,0.06,1.37,0.09,2.06,0.09c12.36,0,21.87-9.67,21.96-9.77
						c0.08-0.08,0.18-0.12,0.3-0.11c0.09,0.01,2.05,0.2,2.7,1.72c0.57,1.31-0.04,3.12-1.81,5.39c-4.13,5.29-15.7,8.53-19.05,9.37
						c9.64,5.73,22.65,19.99,22.79,20.13c0.05,0.06,0.08,0.12,0.09,0.2l0.92,6.96c0.02,0.17-0.07,0.33-0.23,0.39
						c-0.15,0.07-0.34,0.01-0.43-0.13c-14.78-21.2-39.09-29.11-48.24-32.08c-1.18-0.39-2.1-0.68-2.76-0.92L250,200.18
						c0.03,0.09,0.04,0.17,0.04,0.26C250.04,201.84,246.54,202.57,243.09,202.57z M236.81,200.37c0.02,0.03,0.04,0.06,0.05,0.1
						c0.15,0.56,2.45,1.37,6.21,1.38l0.01,0.36v-0.36c4.02,0,6.22-0.93,6.22-1.4c-0.02-0.05-0.04-0.15-0.04-0.19l0.02-62.33
						c0-0.12,0.06-0.24,0.17-0.31c0.11-0.07,0.24-0.08,0.35-0.03c0.59,0.26,1.69,0.62,3.2,1.11c9.04,2.94,32.78,10.66,47.76,31.16
						l-0.71-5.39c-1.12-1.23-14.1-15.25-23.31-20.36c-0.14-0.08-0.21-0.22-0.19-0.37c0.02-0.15,0.13-0.27,0.29-0.31
						c0.15-0.03,14.93-3.45,19.52-9.32c1.57-2.01,2.16-3.62,1.73-4.65c-0.39-0.91-1.52-1.19-1.94-1.26
						c-1.21,1.18-10.49,9.86-22.36,9.86c-0.7,0-1.42-0.04-2.12-0.1c-10.84-0.95-17.36-5.93-20.86-8.61
						c-0.52-0.39-0.97-0.73-1.36-1.01c-0.1-0.07-0.16-0.18-0.16-0.3l0.01-42.74l-12.45-0.01l-0.03,54.05c0,0.08-0.02,0.16-0.07,0.22
						c-2.29,2.96-7.5,8.03-16.56,8.81c-0.54,0.05-1.1,0.07-1.66,0.07c-9.14,0-16.31-6.54-17.37-7.56c-0.34,0.07-1.13,0.28-1.41,0.92
						c-0.33,0.76,0.14,1.96,1.33,3.47c3.55,4.49,12.84,7.11,12.94,7.14c0.14,0.04,0.25,0.16,0.27,0.31c0.01,0.15-0.06,0.29-0.2,0.36
						c-6.91,3.79-14.43,12.74-15.51,14.04l1.15,3.18c11-15.13,26.5-17.7,34-18.95c1.11-0.18,1.98-0.33,2.63-0.49
						c0.11-0.02,0.22,0,0.31,0.07c0.09,0.07,0.14,0.18,0.14,0.28L236.81,200.37z"/>
				</g>
				<g>
					<g class="st10">
						<path class="st11" d="M199.31,142.59c0.08,0.7,0.5,1.64,1.49,2.89c3.66,4.64,13.13,7.27,13.13,7.27l2.38-2.38
							C210.25,149.48,203.6,145.55,199.31,142.59z"/>
						<path class="st11" d="M274.07,144.39c-1.35-0.98,2.83-0.61,2.83-0.61s15.01-3.41,19.73-9.46c4.08-5.23,0.63-6.3-0.37-6.48
							c-1.43,2.36-3.74,6.13-3.99,6.29c-0.37,0.24-9.89,5.86-16.24,6.35c-6.35,0.49-22.6-5.61-24.91-7.2
							c-2.32-1.59-1.47-5.25-1.47-5.25l0.02-43.11l-13.2-0.01v12.56c0.12-1.04,0.98-7.37,4.01-7.37c3.29,0,4.21,4.58,4.4,11.17
							v80.61c0,0,0.91,13.92-8.42,13.19c-0.01,0-0.02,0-0.02,0v5.49h0.07c0.24,0.92,3.08,1.64,6.56,1.64c3.64,0,6.6-0.79,6.6-1.77
							c0-0.07-0.02-0.13-0.04-0.19l0.02-62.33c4.3,1.91,34.38,8.55,51.67,33.33l-0.45-3.38
							C289.63,153.82,275.29,145.27,274.07,144.39z"/>
						<path class="st11" d="M214.11,155.25c-4.86,2.84-11,8.84-15.34,13.43l0.87,2.39c12.58-17.85,31.78-18.66,36.81-19.86
							l0.25-4.62C236.7,146.59,223.51,149.76,214.11,155.25z"/>
					</g>
					<path class="st8" d="M237.92,95.78l0.18,97.28c0,0,1.83-2.38,1.83-11.17c0-8.79,0-81.15,0-81.15S239.58,97.61,237.92,95.78z"/>
					<path class="st8" d="M211.08,147.62c0,0,13.74,4.67,25.56-5.77c0,0-5.49,7.14-15.85,7.51
						C212.37,149.66,211.08,147.62,211.08,147.62z"/>
					<path class="st8" d="M259.45,135.35c0,0,13.01,7.14,28.3-0.09c0,0-6.69,4.21-15.39,3.94
						C265.53,138.98,259.45,135.35,259.45,135.35z"/>
				</g>
				<g>
					<g>
						<path class="st8" d="M249.67,84.91c0,0.98-2.96,1.77-6.6,1.77c-3.64,0-6.6-0.79-6.6-1.77c0-0.98,2.96-1.77,6.6-1.77
							C246.71,83.13,249.67,83.93,249.67,84.91z"/>
						<path class="st9" d="M243.09,87.04h-0.01c-1.79,0-3.48-0.19-4.76-0.53c-1.46-0.39-2.2-0.93-2.2-1.61c0-1.4,3.5-2.14,6.96-2.14
							c3.47,0,6.97,0.74,6.97,2.14C250.04,86.3,246.54,87.04,243.09,87.04z M243.07,83.5c-4.03,0-6.22,0.92-6.22,1.4
							c0,0.18,0.44,0.57,1.65,0.9c1.22,0.33,2.84,0.5,4.57,0.5l0.01,0.37V86.3c4.02,0,6.22-0.92,6.22-1.4
							C249.3,84.42,247.1,83.5,243.07,83.5z"/>
					</g>
					<g>
						<path class="st12" d="M249.67,84.91c0,0.98-2.96,1.77-6.6,1.77c-3.64,0-6.6-0.79-6.6-1.77c0-0.98,2.96-1.77,6.6-1.77
							C246.71,83.13,249.67,83.93,249.67,84.91z"/>
						<path class="st13" d="M243.09,87.04h-0.01c-1.79,0-3.48-0.19-4.76-0.53c-1.46-0.39-2.2-0.93-2.2-1.61
							c0-1.4,3.5-2.14,6.96-2.14c3.47,0,6.97,0.74,6.97,2.14C250.04,86.3,246.54,87.04,243.09,87.04z M243.07,83.5
							c-4.03,0-6.22,0.92-6.22,1.4c0,0.18,0.44,0.57,1.65,0.9c1.22,0.33,2.84,0.5,4.57,0.5l0.01,0.37V86.3
							c4.02,0,6.22-0.92,6.22-1.4C249.3,84.42,247.1,83.5,243.07,83.5z"/>
					</g>
					<path class="st12" d="M247.07,84.85c0,0.59-1.79,1.07-3.99,1.07c-2.21,0-3.99-0.49-3.99-1.08c0-0.59,1.78-1.07,3.99-1.07
						C245.28,83.77,247.07,84.25,247.07,84.85z"/>
				</g>
			</g>
			<g>
				<g>
					<g>
						<path class="st14" d="M192.65,154.11c-0.08-0.04-0.24,0.13-0.16,0.19c1.7,1.28,3.27,2.39,4.62,4.05
							c1.52,1.85,2.45,4.12,2.98,6.43c0.05,0.2,0.38-0.06,0.37-0.21C200.18,159.7,196.58,156.38,192.65,154.11z"/>
						<path class="st14" d="M204.17,138.13c-0.82-2.95-3.32-6.03-6.47-6.53c-0.14-0.02-0.39,0.28-0.19,0.35
							c3.14,1.07,4.61,3.82,6.21,6.49C203.87,138.68,204.22,138.34,204.17,138.13z"/>
						<g>
							<g>
								<path class="st15" d="M207.83,110.8c-2.24-1.99-5.17-3.34-8.81-3.8c-3.54-0.45-7.49,0.09-10.92,1.08
									c-14.62,4.24-24.04,20.43-25.27,35.28c-0.72,8.64-0.66,18.16,3.08,26.11c3.02,6.43,9.64,12.46,17.24,13.56
									c4.59,0.67,9.58-0.68,12.9-3.97c1.64-1.62,2.85-4.52,3.59-6.7c0.43-1.25,0.75-2.54,0.91-3.85c0.11-0.76-0.2-3.08,0.19-3.65
									c0,0,9.63-13.74,3.62-26.96c0,0,8.1-0.96,8.84-11.52C213.63,120.04,211.85,114.38,207.83,110.8z"/>
								<path class="st14" d="M185.45,183.57C185.45,183.57,185.45,183.57,185.45,183.57c-0.79,0-1.59-0.05-2.37-0.17
									c-8.19-1.19-14.69-7.78-17.52-13.78c-4-8.48-3.77-18.51-3.12-26.3c1.19-14.35,10.35-31.19,25.54-35.59
									c3.85-1.12,7.81-1.51,11.07-1.1c3.59,0.46,6.61,1.77,9.01,3.89c4,3.56,5.95,9.19,5.49,15.88
									c-0.65,9.24-6.89,11.35-8.68,11.77c5.72,13.32-3.75,26.77-3.85,26.91c-0.18,0.25-0.14,1.44-0.12,2.15
									c0.02,0.55,0.04,1.02,0,1.32c-0.17,1.3-0.49,2.61-0.93,3.92c-1.1,3.21-2.34,5.51-3.69,6.85
									C193.57,182.03,189.61,183.57,185.45,183.57z M196.38,107.21c-2.57,0-5.4,0.42-8.17,1.23
									c-14.88,4.32-23.85,20.85-25.02,34.96c-0.63,7.69-0.87,17.6,3.05,25.93c2.74,5.82,9.05,12.2,16.97,13.35
									c0.73,0.11,1.5,0.17,2.25,0.17c3.98,0,7.74-1.47,10.33-4.04c1.25-1.23,2.46-3.51,3.51-6.56c0.43-1.26,0.74-2.54,0.9-3.78
									c0.02-0.24,0.01-0.7,0-1.2c-0.05-1.3-0.05-2.18,0.25-2.61c0.1-0.14,9.43-13.72,3.59-26.6c-0.05-0.1-0.05-0.22,0.01-0.33
									c0.06-0.1,0.16-0.17,0.28-0.18c0.32-0.04,7.81-1.07,8.51-11.19c0.45-6.45-1.41-11.88-5.24-15.28
									c-2.28-2.03-5.18-3.28-8.61-3.71C198.15,107.26,197.28,107.21,196.38,107.21z"/>
							</g>
							<path class="st14" d="M196.25,158.27c2.75,2.15,3.78,5.59,4.31,8.94c0.05,0.3,0.46,0.05,0.48-0.15
								c0.22-2.39-0.5-4.82-1.91-6.73C198.3,159.49,197.33,158.79,196.25,158.27z"/>
							<path class="st14" d="M202.22,137.64c1.9,0.56,3.98,0.47,5.63-0.76c0.18-0.14,0.23-0.59-0.1-0.42
								c-1.96,0.99-4.28,0.97-6.37,0.35C201.63,137.12,201.92,137.4,202.22,137.64z"/>
							<path class="st15" d="M207.83,110.8c-2.24-1.99-5.17-3.34-8.81-3.8c-2.79-0.36-5.83-0.09-8.67,0.52
								c1.61-0.12,3.14-0.04,4.48,0.32c5.7,1.51,10.2,7.33,9.46,13.35c-0.85,6.82-8.34,11.87-14.62,10.69
								c6.66,6.03,8.62,14.23,6.87,23.41c-0.06,0.34-0.59,0.71-0.9,0.42c-2.74-2.53-5.78-4.51-9.3-5.82
								c-0.8-0.3-1.62-0.54-2.43-0.75c3.08,4.6,4.82,10.23,3.24,15.54c-1.92,6.44-8.24,9.79-14.34,6.05
								c-6.12-3.74-9.1-9.85-10.28-16.58c0.23,5.32,1.15,10.6,3.38,15.32c3.02,6.43,9.64,12.46,17.24,13.56
								c4.59,0.67,9.58-0.68,12.9-3.97c1.64-1.62,2.85-4.52,3.59-6.7c0.43-1.25,0.75-2.54,0.91-3.85c0.11-0.76-0.2-3.08,0.19-3.65
								c0,0,9.63-13.74,3.62-26.96c0,0,8.1-0.96,8.84-11.52C213.63,120.04,211.85,114.38,207.83,110.8z"/>
						</g>
						<path class="st16" d="M194.45,109.33c0,0-18.81,1.47-26.63,21.99c-7.82,20.52,0.74,34.93,0.74,34.93
							S159.52,128.14,194.45,109.33z"/>
						<path class="st15" d="M189.92,156.47c0,0,4.9,8.19,0.87,15.51c-4.03,7.33-11,6.23-11,6.23s10.63,1.22,13.92-8.06
							C197.01,160.87,189.92,156.47,189.92,156.47z"/>
						<path class="st15" d="M193.96,134.74c0,0,7.94,9.65,5.13,18.81C199.09,153.55,203.97,141.33,193.96,134.74z"/>
						<path class="st15" d="M204.82,111.05c0,0,7.94,10.26,0.98,17.59c0,0,4.64-1.83,4.77-7.82
							C210.69,114.83,204.82,111.05,204.82,111.05z"/>
					</g>
				</g>
			</g>
			<g>
				<g>
					<g>
						<g>
							<path class="st14" d="M307.34,154.11c0.08-0.04,0.24,0.13,0.16,0.19c-1.69,1.28-3.27,2.39-4.63,4.05
								c-1.51,1.85-2.44,4.12-2.98,6.43c-0.04,0.2-0.38-0.06-0.37-0.21C299.82,159.7,303.42,156.38,307.34,154.11z"/>
							<path class="st14" d="M295.83,138.13c0.82-2.95,3.32-6.03,6.46-6.53c0.15-0.02,0.39,0.28,0.2,0.35
								c-3.14,1.07-4.61,3.82-6.22,6.49C296.13,138.68,295.78,138.34,295.83,138.13z"/>
							<g>
								<g>
									<path class="st15" d="M292.17,110.8c2.24-1.99,5.18-3.34,8.81-3.8c3.55-0.45,7.5,0.09,10.92,1.08
										c14.61,4.24,24.04,20.43,25.28,35.28c0.72,8.64,0.66,18.16-3.08,26.11c-3.03,6.43-9.65,12.46-17.24,13.56
										c-4.59,0.67-9.57-0.68-12.89-3.97c-1.64-1.62-2.84-4.52-3.6-6.7c-0.43-1.25-0.74-2.54-0.92-3.85
										c-0.1-0.76,0.21-3.08-0.18-3.65c0,0-9.63-13.74-3.62-26.96c0,0-8.1-0.96-8.84-11.52
										C286.36,120.04,288.15,114.38,292.17,110.8z"/>
									<path class="st14" d="M314.55,183.57c-4.17,0-8.12-1.55-10.85-4.25c-1.34-1.33-2.58-3.64-3.68-6.85
										c-0.45-1.31-0.76-2.62-0.94-3.92c-0.04-0.3-0.03-0.77-0.01-1.32c0.02-0.71,0.06-1.9-0.13-2.17
										c-0.39-0.56-9.44-13.82-3.84-26.89c-1.8-0.42-8.04-2.53-8.68-11.77c-0.46-6.69,1.48-12.32,5.49-15.88
										c2.4-2.13,5.42-3.44,9-3.89c3.27-0.41,7.23-0.01,11.07,1.1c15.19,4.4,24.35,21.24,25.54,35.59
										c0.65,7.79,0.88,17.82-3.11,26.3c-2.82,6-9.33,12.59-17.52,13.78C316.14,183.52,315.35,183.57,314.55,183.57z
										 M303.62,107.21c-0.9,0-1.77,0.05-2.59,0.15c-3.44,0.43-6.33,1.68-8.61,3.71c-3.83,3.4-5.69,8.83-5.24,15.28
										c0.7,10.15,8.43,11.18,8.52,11.19c0.11,0.01,0.21,0.08,0.27,0.18c0.06,0.11,0.06,0.23,0.01,0.33
										c-5.82,12.83,3.2,26.04,3.59,26.6c0.3,0.43,0.3,1.31,0.25,2.61c-0.01,0.49-0.03,0.95,0.01,1.2
										c0.17,1.25,0.47,2.52,0.9,3.78c1.05,3.05,2.26,5.33,3.51,6.56c2.59,2.57,6.35,4.04,10.33,4.04c0.75,0,1.51-0.06,2.25-0.17
										c7.92-1.15,14.22-7.53,16.96-13.35c3.92-8.33,3.69-18.23,3.05-25.93c-1.17-14.11-10.14-30.65-25.01-34.96
										C309.03,107.63,306.2,107.21,303.62,107.21z"/>
								</g>
								<path class="st15" d="M337.18,143.37c-1.24-14.85-10.67-31.04-25.28-35.28c-3.42-0.99-7.37-1.53-10.92-1.08
									c-2.58,0.33-4.81,1.11-6.7,2.25c5.58-1.85,11.94-1.48,16.93,1.55c9.41,5.72,15.47,16.82,17.3,27.49
									c1.67,9.72-0.32,22.5-9.76,27.92c-4.32,2.48-11.89,2.12-14.24-3.17c-1.24-2.79-0.46-5.56,0.95-8.08
									c-2.72,0.15-5.35-0.61-7.35-2.77c-2.95-3.21-2.02-8.86-0.53-12.49c0.86-2.1,2-4.47,3.69-6.1c-3.62,0.47-7.26,0.01-9.95-1.66
									c-2.67-1.65-4.04-3.9-4.56-6.41c0.01,0.28,0.02,0.57,0.04,0.87c0.74,10.56,8.84,11.52,8.84,11.52
									c-6,13.22,3.62,26.96,3.62,26.96c0.39,0.56,0.08,2.89,0.18,3.65c0.18,1.32,0.49,2.6,0.92,3.85c0.75,2.18,1.96,5.08,3.6,6.7
									c3.32,3.29,8.31,4.64,12.89,3.97c7.59-1.1,14.21-7.14,17.24-13.56C337.84,161.53,337.9,152,337.18,143.37z"/>
								<path class="st14" d="M303.75,158.27c-2.75,2.15-3.77,5.59-4.3,8.94c-0.05,0.3-0.46,0.05-0.49-0.15
									c-0.22-2.39,0.5-4.82,1.9-6.73C301.7,159.49,302.67,158.79,303.75,158.27z"/>
								<path class="st14" d="M297.78,137.64c-1.9,0.56-3.98,0.47-5.62-0.76c-0.19-0.14-0.23-0.59,0.1-0.42
									c1.96,0.99,4.28,0.97,6.37,0.35C298.36,137.12,298.09,137.4,297.78,137.64z"/>
							</g>
						</g>
					</g>
					<path class="st16" d="M296.91,110.07c0,0-9.89,4.95-8.06,15.76c0,0,1.47,6.23,9.89,6.41c0,0-5.22-0.79-6.96-8.61
						C289.95,115.38,296.91,110.07,296.91,110.07z"/>
					<path class="st16" d="M305.52,131.32c0,0-9.7,6.05-8.24,16.67c0,0,0.37,4.03,4.22,5.13
						C301.49,153.12,295.02,145.85,305.52,131.32z"/>
					<path class="st16" d="M307.42,154.52c0,0-5.25,4.64,0.12,10.01c0,0,0.19-8.55,8.06-12.95
						C315.6,151.59,310.65,151.65,307.42,154.52z"/>
					<path class="st15" d="M304.97,176.57c0,0,3.84,6.96,14.65,4.03c10.81-2.93,20.34-22.35,13.74-43.6c0,0,4.95,32.06-11.72,40.3
						C321.65,177.3,315.42,182.25,304.97,176.57z"/>
				</g>
			</g>
			<g>
				<g>
					<path class="st17" d="M288.24,355.62c-11.76-15.49-33.97-15.52-33.97-15.52h-8.55c0,0-22.2,0.03-33.97,15.52
						c-11.77,15.5,1.08,24.58,17.05,30.22c0,0,13.16,2.82,15.98,10.34l3.24,26.97c0.55,0.25,1.35,0.26,1.84,0.3
						c0.75,0.05,1.45-0.01,2.1-0.24l3.25-27.04c2.82-7.52,15.98-10.34,15.98-10.34C287.17,380.2,300.01,371.11,288.24,355.62z"/>
					<path class="st18" d="M250.36,423.83L250.36,423.83c-0.18,0-0.35,0-0.53-0.01l-0.25-0.02c-0.51-0.03-1.19-0.07-1.71-0.31
						c-0.12-0.06-0.2-0.17-0.21-0.29l-3.24-26.94c-2.75-7.21-15.57-10.03-15.7-10.06c-12.54-4.43-19.53-9.62-21.41-15.91
						c-1.35-4.49,0.05-9.5,4.14-14.89c11.73-15.46,34.03-15.66,34.26-15.66h8.55c0.23,0,22.53,0.2,34.27,15.66
						c4.09,5.39,5.49,10.4,4.15,14.89c-1.88,6.28-8.88,11.48-21.37,15.89c-0.17,0.05-12.99,2.87-15.74,10.08l-3.24,26.99
						c-0.02,0.14-0.11,0.25-0.24,0.3C251.57,423.74,251,423.83,250.36,423.83z M248.37,422.9c0.38,0.12,0.88,0.15,1.27,0.18
						l0.25,0.01c0.16,0.02,0.32,0.02,0.47,0.02l0,0c0.46,0,0.88-0.06,1.27-0.18l3.22-26.8c0-0.02,0.01-0.05,0.02-0.08
						c2.86-7.62,15.7-10.44,16.25-10.57c12.05-4.25,19.08-9.44,20.87-15.39c1.27-4.26-0.08-9.04-4.03-14.24
						c-11.51-15.16-33.46-15.38-33.68-15.38h-8.55c-0.22,0-22.16,0.21-33.68,15.38c-3.94,5.19-5.3,9.98-4.02,14.24
						c1.78,5.96,8.83,11.14,20.92,15.41c0.49,0.11,13.34,2.94,16.19,10.55c0.01,0.03,0.02,0.06,0.02,0.08L248.37,422.9z"/>
				</g>
				<path class="st19" d="M288.24,355.62c-3.32-4.37-7.47-7.52-11.72-9.77c3.62,4.43,4.9,10.38,2.45,15.81
					c-6.19,13.75-22.57,16.9-36.12,16.64c-9.63-0.19-24.99-1.07-30.15-10.88c-1.68-3.2-1.88-7.69-0.85-11.92
					c-0.04,0.04-0.07,0.08-0.1,0.11c-11.77,15.5,1.08,24.58,17.05,30.22c0,0,13.16,2.82,15.98,10.34l3.24,26.97
					c0.55,0.25,1.35,0.26,1.84,0.3c0.75,0.05,1.45-0.01,2.1-0.24l3.25-27.04c2.82-7.52,15.98-10.34,15.98-10.34
					C287.17,380.2,300.01,371.11,288.24,355.62z"/>
				<g class="st20">
					<path class="st1" d="M247.61,422.84L247.61,422.84c-0.06-0.82-0.2-2.48-0.39-4.81c-0.28-3.45-0.72-8.38-1.32-14.29
						c-0.18-1.48-0.37-3.01-0.58-4.6c-0.09-0.8-0.2-1.6-0.3-2.43c-0.07-0.82-0.32-1.67-0.72-2.43c-0.82-1.54-2.25-2.69-3.75-3.66
						c-1.53-0.95-3.19-1.74-4.89-2.47c-3.44-1.45-7.08-2.67-10.69-4.1c-3.6-1.43-7.28-3-10.43-5.36c-1.58-1.17-2.97-2.58-4.09-4.17
						c-1.11-1.6-1.9-3.41-2.31-5.3c-0.39-1.89-0.43-3.85-0.02-5.68c0.62-1.77,1.33-3.53,2.28-5.12c0.22-0.41,0.45-0.8,0.71-1.18
						c0.25-0.38,0.5-0.77,0.75-1.15c0.56-0.71,1.07-1.46,1.68-2.11c1.14-1.36,2.44-2.54,3.74-3.62c1.31-1.08,2.68-1.99,4.04-2.83
						c1.38-0.79,2.75-1.53,4.1-2.13c2.7-1.22,5.29-2.06,7.62-2.69c2.32-0.63,4.4-1.02,6.1-1.28c3.43-0.52,5.41-0.54,5.41-0.54
						s-1.99,0-5.42,0.48c-1.72,0.24-3.79,0.61-6.13,1.21c-2.34,0.6-4.95,1.42-7.66,2.64c-1.37,0.59-2.74,1.33-4.13,2.12
						c-1.37,0.84-2.76,1.75-4.09,2.83c-1.32,1.09-2.62,2.27-3.78,3.64c-0.62,0.66-1.12,1.4-1.69,2.12
						c-0.25,0.39-0.51,0.76-0.76,1.15c-0.27,0.38-0.5,0.78-0.72,1.2c-0.96,1.6-1.69,3.35-2.33,5.17c-0.43,1.9-0.39,3.89,0,5.82
						c0.4,1.93,1.2,3.79,2.34,5.42c1.14,1.64,2.56,3.08,4.15,4.28c3.22,2.38,6.91,3.94,10.54,5.37c3.64,1.42,7.28,2.62,10.7,4.05
						c1.7,0.72,3.36,1.49,4.87,2.42c1.48,0.96,2.87,2.08,3.67,3.56c0.4,0.74,0.65,1.53,0.71,2.35c0.11,0.82,0.21,1.63,0.32,2.42
						c0.2,1.59,0.4,3.12,0.59,4.59c0.31,2.95,0.6,5.66,0.85,8.06c0.24,2.4,0.44,4.49,0.6,6.22
						C247.38,420.36,247.53,422.01,247.61,422.84z"/>
					<path class="st1" d="M247.45,418.27c0.21,2.42,0.34,4.07,0.4,4.78c0.01,0.01,0.01,0.01,0.01,0.01
						c-0.05-0.71-0.17-2.36-0.35-4.78c-0.12-1.65-0.27-3.65-0.45-5.95c-0.2-2.28-0.43-4.88-0.68-7.69c-0.11-1.42-0.3-2.88-0.47-4.4
						c-0.08-0.76-0.17-1.53-0.26-2.31c-0.04-0.39-0.09-0.79-0.14-1.19l-0.07-0.6l-0.13-0.6c-0.4-1.62-1.5-3.02-2.82-4.11
						c-1.31-1.11-2.86-1.97-4.43-2.77c-3.19-1.58-6.63-2.84-10.04-4.3c-3.41-1.46-6.85-3.08-9.8-5.41
						c-1.46-1.16-2.76-2.55-3.79-4.09c-1.03-1.55-1.76-3.28-2.17-5.08c-0.41-1.79-0.51-3.65-0.27-5.44c0.07-0.9,0.46-1.71,0.72-2.58
						c0.31-0.83,0.66-1.65,1.02-2.45c1.52-3.18,3.55-5.99,5.89-8.21c0.56-0.59,1.19-1.07,1.77-1.6c0.63-0.47,1.21-0.98,1.85-1.4
						c1.24-0.9,2.51-1.62,3.76-2.3c2.51-1.3,4.93-2.25,7.13-2.92c2.19-0.67,4.16-1.11,5.79-1.39c3.26-0.56,5.16-0.58,5.16-0.58
						s-1.9,0.01-5.17,0.52c-1.63,0.27-3.59,0.68-5.81,1.33c-2.22,0.65-4.66,1.57-7.18,2.87c-1.24,0.68-2.54,1.4-3.78,2.31
						c-0.64,0.42-1.23,0.92-1.87,1.39c-0.59,0.53-1.23,1.02-1.79,1.61c-1.2,1.11-2.28,2.4-3.3,3.76c-1,1.39-1.9,2.9-2.67,4.5
						c-0.37,0.81-0.72,1.63-1.04,2.48c-0.26,0.85-0.66,1.7-0.75,2.64c-0.25,1.83-0.15,3.71,0.26,5.54c0.4,1.84,1.15,3.61,2.19,5.2
						c1.05,1.59,2.36,2.99,3.85,4.18c3.01,2.35,6.48,3.97,9.9,5.41c3.42,1.45,6.87,2.7,10.04,4.26c1.58,0.79,3.11,1.63,4.4,2.71
						c1.3,1.07,2.37,2.42,2.75,3.98l0.13,0.58l0.07,0.6c0.05,0.4,0.1,0.79,0.14,1.18c0.09,0.78,0.18,1.55,0.27,2.31
						c0.17,1.52,0.37,2.98,0.49,4.39c0.27,2.82,0.52,5.41,0.73,7.69C247.13,414.63,247.3,416.63,247.45,418.27z"/>
					<path class="st1" d="M247.27,412.85c0.18,2.18,0.33,4.09,0.46,5.66c0.18,2.44,0.31,4.05,0.35,4.66c0,0,0,0,0.01,0
						c-0.04-0.61-0.14-2.23-0.3-4.67c-0.21-3.14-0.5-7.63-0.95-13.02c-0.18-2.7-0.54-5.6-0.83-8.68c-0.05-0.76-0.22-1.57-0.5-2.32
						c-0.3-0.75-0.74-1.44-1.25-2.08c-1.07-1.27-2.42-2.28-3.87-3.15c-2.91-1.76-6.15-3.09-9.35-4.59
						c-3.19-1.51-6.43-3.15-9.15-5.47c-2.74-2.28-4.71-5.47-5.51-8.89c-0.42-1.7-0.54-3.46-0.44-5.18c0.05-0.86,0.16-1.69,0.45-2.5
						c0.13-0.41,0.25-0.81,0.37-1.22c0.15-0.4,0.29-0.79,0.44-1.19c1.17-3.15,2.9-5.95,4.87-8.31c2.01-2.34,4.27-4.23,6.55-5.64
						c2.28-1.44,4.55-2.46,6.6-3.21c2.06-0.76,3.92-1.22,5.46-1.54c1.54-0.31,2.77-0.46,3.61-0.55c0.84-0.08,1.29-0.09,1.29-0.09
						s-0.45,0.01-1.3,0.08c-0.84,0.07-2.07,0.21-3.62,0.5c-1.55,0.31-3.41,0.74-5.49,1.47c-2.08,0.73-4.36,1.72-6.66,3.17
						c-2.31,1.42-4.59,3.31-6.63,5.65c-2,2.37-3.76,5.19-4.95,8.36c-0.15,0.4-0.3,0.8-0.45,1.19c-0.12,0.42-0.25,0.82-0.38,1.23
						c-0.3,0.81-0.42,1.71-0.47,2.57c-0.11,1.75,0.01,3.53,0.42,5.27c0.81,3.49,2.8,6.74,5.59,9.09c2.77,2.36,6.05,3.98,9.26,5.48
						c3.21,1.5,6.45,2.8,9.34,4.53c1.44,0.86,2.77,1.86,3.81,3.08c0.5,0.62,0.93,1.29,1.23,2.01c0.28,0.74,0.44,1.48,0.5,2.25
						c0.31,3.08,0.68,5.99,0.87,8.67C246.87,408.2,247.09,410.67,247.27,412.85z"/>
					<path class="st1" d="M247.61,413.35c0.15,2.08,0.28,3.9,0.38,5.39c0.17,2.44,0.28,4.01,0.31,4.51l0,0
						c-0.02-0.5-0.12-2.07-0.25-4.51c-0.09-1.5-0.19-3.32-0.31-5.41c-0.12-2.08-0.32-4.43-0.52-7c-0.2-2.55-0.42-5.33-0.65-8.27
						c-0.07-0.74-0.09-1.47-0.2-2.23c-0.1-0.76-0.37-1.51-0.71-2.21c-0.7-1.42-1.84-2.6-3.11-3.6c-2.57-1.99-5.61-3.4-8.58-4.99
						c-2.98-1.56-6-3.24-8.49-5.56c-2.51-2.29-4.25-5.36-5.03-8.61c-0.4-1.63-0.58-3.3-0.55-4.93c0.01-0.82,0.07-1.64,0.2-2.43
						c0.2-0.77,0.4-1.57,0.63-2.32c0.96-3.06,2.27-5.9,3.94-8.32c0.82-1.21,1.74-2.3,2.67-3.32c0.97-0.98,1.94-1.9,2.98-2.67
						c2.02-1.58,4.09-2.71,6-3.56c1.91-0.83,3.66-1.37,5.11-1.72c1.46-0.34,2.62-0.52,3.43-0.61c0.8-0.09,1.23-0.1,1.23-0.1
						s-0.43,0.01-1.23,0.08c-0.8,0.08-1.97,0.24-3.44,0.57c-1.47,0.33-3.21,0.85-5.15,1.66c-1.92,0.82-4.04,1.94-6.08,3.52
						c-1.04,0.77-2.02,1.69-3,2.68c-0.95,1.01-1.88,2.11-2.72,3.34c-1.7,2.43-3.03,5.29-4,8.36c-0.24,0.78-0.44,1.55-0.65,2.36
						c-0.14,0.82-0.21,1.64-0.22,2.48c-0.03,1.67,0.14,3.35,0.54,5.01c0.78,3.3,2.54,6.46,5.09,8.81c2.55,2.35,5.61,4.02,8.6,5.58
						c2.99,1.56,6.02,2.96,8.56,4.91c1.25,0.98,2.36,2.13,3.05,3.5c0.33,0.68,0.59,1.4,0.69,2.13c0.12,0.73,0.14,1.5,0.21,2.22
						c0.24,2.94,0.47,5.71,0.69,8.27C247.24,408.92,247.44,411.27,247.61,413.35z"/>
					<path class="st1" d="M246.89,399.29c0.2,2.8,0.39,5.44,0.57,7.89c0.16,2.44,0.37,4.67,0.48,6.66c0.12,1.98,0.23,3.72,0.32,5.14
						c0.14,2.39,0.24,3.91,0.27,4.34h0.01c-0.02-0.43-0.09-1.95-0.21-4.34c-0.07-1.43-0.15-3.17-0.25-5.15
						c-0.08-1.99-0.25-4.22-0.41-6.67c-0.17-2.44-0.35-5.09-0.54-7.88c-0.05-0.7-0.09-1.41-0.14-2.12
						c-0.05-0.72-0.09-1.46-0.28-2.18c-0.33-1.47-1.13-2.83-2.17-3.97c-2.1-2.29-4.94-3.85-7.66-5.51c-2.75-1.64-5.55-3.37-7.81-5.7
						c-2.28-2.29-3.82-5.27-4.53-8.37c-0.37-1.55-0.57-3.14-0.59-4.69c-0.02-1.57,0.02-3.11,0.51-4.57
						c0.19-0.74,0.38-1.47,0.57-2.19c0.07-0.37,0.21-0.72,0.34-1.07c0.13-0.34,0.26-0.69,0.38-1.03c0.27-0.69,0.49-1.39,0.79-2.03
						c0.32-0.64,0.64-1.27,0.95-1.9c0.16-0.31,0.3-0.63,0.48-0.92c0.19-0.29,0.38-0.57,0.56-0.85c0.37-0.57,0.72-1.14,1.11-1.67
						c0.85-1,1.59-2.05,2.51-2.85c1.72-1.74,3.61-2.98,5.32-3.97c0.44-0.22,0.87-0.44,1.28-0.66c0.42-0.21,0.84-0.35,1.23-0.53
						c0.78-0.36,1.55-0.55,2.22-0.79c1.37-0.38,2.48-0.6,3.24-0.7c0.75-0.11,1.16-0.12,1.16-0.12s-0.41,0.01-1.17,0.1
						c-0.77,0.08-1.87,0.3-3.25,0.66c-0.68,0.22-1.45,0.41-2.24,0.76c-0.4,0.17-0.82,0.31-1.25,0.52c-0.41,0.21-0.85,0.42-1.3,0.65
						c-1.73,0.96-3.66,2.18-5.38,3.94c-0.94,0.81-1.68,1.86-2.55,2.86c-0.39,0.53-0.74,1.11-1.13,1.68
						c-0.19,0.28-0.37,0.57-0.57,0.86c-0.18,0.3-0.33,0.62-0.49,0.92c-0.32,0.64-0.64,1.26-0.97,1.91
						c-0.32,0.65-0.53,1.35-0.81,2.04c-0.13,0.34-0.26,0.69-0.39,1.04c-0.13,0.35-0.27,0.69-0.35,1.06c-0.2,0.73-0.38,1.47-0.58,2.2
						c-0.49,1.47-0.55,3.08-0.54,4.65c0.02,1.58,0.2,3.19,0.58,4.77c0.72,3.15,2.27,6.19,4.59,8.55c2.31,2.37,5.14,4.09,7.9,5.72
						c2.75,1.64,5.56,3.18,7.62,5.41c1.03,1.12,1.8,2.43,2.13,3.85c0.19,0.7,0.23,1.42,0.28,2.13
						C246.79,397.88,246.83,398.59,246.89,399.29z"/>
					<path class="st1" d="M247.41,400.43c0.16,2.66,0.32,5.19,0.46,7.51c0.13,2.33,0.29,4.46,0.38,6.35
						c0.11,1.89,0.19,3.53,0.26,4.9c0.12,2.33,0.2,3.8,0.23,4.17l0,0c-0.01-0.36-0.07-1.83-0.17-4.17c-0.05-1.36-0.12-3.01-0.19-4.9
						c-0.06-1.9-0.19-4.03-0.33-6.36c-0.13-2.33-0.27-4.84-0.42-7.51c-0.08-1.33-0.15-2.7-0.23-4.11c-0.18-1.39-0.46-2.86-1.26-4.12
						c-0.75-1.26-1.74-2.42-2.89-3.4c-1.14-0.98-2.36-1.88-3.62-2.76c-2.49-1.77-5.05-3.56-7.06-5.91c-0.47-0.6-0.99-1.16-1.38-1.84
						c-0.2-0.33-0.44-0.65-0.62-0.98l-0.53-1.02c-0.65-1.39-1.14-2.84-1.47-4.33c-0.34-1.48-0.53-2.98-0.6-4.47
						c-0.05-1.49-0.05-2.97,0.2-4.39c0.15-0.7,0.31-1.41,0.46-2.11c0.17-0.69,0.27-1.39,0.5-2.06c0.21-0.66,0.42-1.32,0.63-1.97
						c0.11-0.32,0.19-0.66,0.31-0.97c0.14-0.31,0.26-0.62,0.39-0.93c0.27-0.61,0.52-1.21,0.77-1.81c0.29-0.57,0.62-1.13,0.91-1.67
						c0.56-1.13,1.33-2.07,1.97-3.04c0.36-0.46,0.75-0.86,1.11-1.28c0.18-0.21,0.36-0.42,0.55-0.62c0.19-0.18,0.39-0.37,0.58-0.55
						c0.39-0.36,0.76-0.72,1.14-1.05c0.4-0.3,0.79-0.59,1.16-0.87c1.55-1.08,3.02-1.85,4.3-2.3c0.63-0.27,1.22-0.4,1.73-0.56
						c0.52-0.11,0.95-0.23,1.31-0.28c0.72-0.12,1.1-0.13,1.1-0.13s-0.39,0.01-1.11,0.12c-0.36,0.04-0.79,0.15-1.32,0.26
						c-0.5,0.16-1.1,0.28-1.73,0.54c-1.29,0.43-2.78,1.19-4.36,2.25c-1.59,1.04-3.13,2.57-4.62,4.36c-0.65,0.97-1.45,1.92-2.01,3.05
						c-0.3,0.55-0.63,1.1-0.93,1.68c-0.25,0.59-0.51,1.2-0.78,1.81c-0.13,0.31-0.27,0.62-0.4,0.93c-0.13,0.32-0.22,0.65-0.33,0.97
						c-0.21,0.65-0.41,1.32-0.63,1.99c-0.24,0.66-0.35,1.37-0.52,2.07c-0.15,0.7-0.31,1.4-0.47,2.12c-0.27,1.45-0.27,2.94-0.22,4.45
						c0.07,1.5,0.25,3.03,0.59,4.53c0.34,1.51,0.82,2.98,1.47,4.4l0.53,1.04c0.2,0.36,0.41,0.66,0.63,1
						c0.39,0.67,0.91,1.27,1.4,1.89c2.06,2.38,4.66,4.18,7.16,5.92c2.48,1.74,5,3.53,6.46,6.04c0.78,1.22,1.06,2.65,1.24,4.01
						C247.24,397.73,247.32,399.1,247.41,400.43z"/>
					<path class="st1" d="M247.39,394.56c0.07,0.33,0.1,0.67,0.15,1c0.12,0.67,0.11,1.35,0.15,2.01c0.07,1.34,0.13,2.64,0.19,3.91
						c0.12,2.55,0.24,4.95,0.33,7.17c0.43,8.36,0.72,14.09,0.75,14.74l0,0c-0.02-0.65-0.24-6.38-0.56-14.74
						c-0.09-2.22-0.19-4.63-0.3-7.17c-0.06-1.27-0.11-2.58-0.16-3.92c-0.05-0.66-0.03-1.34-0.15-2.02
						c-0.05-0.34-0.08-0.69-0.14-1.03c-0.1-0.34-0.19-0.68-0.28-1.01c-0.44-1.33-1.11-2.63-2.03-3.74
						c-0.91-1.11-1.97-2.13-3.08-3.09c-1.1-0.96-2.22-1.91-3.3-2.91c-1.06-1.02-2.08-2.09-2.95-3.27c-0.83-1.17-1.64-2.46-2.13-3.82
						l-0.4-1.02c-0.12-0.34-0.27-0.68-0.35-1.04c-0.18-0.71-0.37-1.41-0.54-2.11c-0.56-2.85-0.74-5.73-0.54-8.48
						c0.02-0.69,0.19-1.36,0.3-2.03c0.12-0.67,0.24-1.33,0.35-1.99c0.26-1.31,0.64-2.56,0.94-3.8c0.19-0.6,0.41-1.18,0.6-1.77
						c0.22-0.57,0.36-1.17,0.63-1.71c0.51-1.08,0.92-2.16,1.51-3.09c1.05-1.96,2.36-3.54,3.62-4.81c1.27-1.29,2.62-2.12,3.76-2.73
						c1.15-0.61,2.14-0.87,2.81-1.04c0.68-0.15,1.05-0.17,1.05-0.17s-0.37,0.01-1.06,0.15c-0.67,0.16-1.67,0.41-2.83,1
						c-1.14,0.59-2.52,1.42-3.82,2.69c-1.29,1.27-2.64,2.85-3.69,4.81c-0.6,0.95-1.03,2.03-1.54,3.12
						c-0.28,0.54-0.43,1.13-0.65,1.71c-0.2,0.59-0.43,1.18-0.62,1.78c-0.31,1.24-0.69,2.5-0.96,3.81c-0.12,0.66-0.24,1.33-0.37,2
						c-0.11,0.67-0.28,1.35-0.31,2.04c-0.21,2.79-0.05,5.69,0.5,8.57c0.18,0.72,0.36,1.43,0.54,2.15c0.08,0.37,0.22,0.71,0.36,1.06
						l0.4,1.04c0.51,1.41,1.29,2.67,2.16,3.9c0.89,1.2,1.93,2.28,3.01,3.3c1.09,1,2.22,1.95,3.32,2.9c1.1,0.96,2.15,1.95,3.05,3.04
						c0.91,1.08,1.57,2.34,2,3.63C247.21,393.9,247.3,394.23,247.39,394.56z"/>
					<path class="st1" d="M247.96,394.81c0.18,1.3,0.18,2.61,0.24,3.88c0.05,1.27,0.09,2.53,0.14,3.75
						c0.09,2.43,0.17,4.74,0.26,6.86c0.34,8.14,0.56,13.66,0.59,14.11l0,0c-0.02-0.44-0.17-5.97-0.39-14.11
						c-0.07-2.13-0.14-4.43-0.22-6.86c-0.04-1.22-0.08-2.47-0.12-3.74c-0.05-1.28-0.05-2.58-0.22-3.92
						c-0.22-1.32-0.56-2.66-1.2-3.89c-0.62-1.23-1.45-2.37-2.35-3.44c-1.82-2.13-3.86-4.11-5.28-6.55c-0.4-0.59-0.68-1.22-1-1.84
						c-0.27-0.65-0.58-1.3-0.78-1.96c-0.21-0.67-0.41-1.34-0.61-2.01c-0.15-0.68-0.28-1.36-0.43-2.04
						c-0.47-2.73-0.63-5.48-0.57-8.13c0.01-1.32,0.24-2.61,0.4-3.87c0.09-0.63,0.15-1.26,0.28-1.87c0.12-0.61,0.24-1.22,0.36-1.81
						c0.46-2.39,1.14-4.59,1.87-6.58c0.81-1.95,1.65-3.72,2.67-5.11c0.23-0.35,0.47-0.7,0.74-1c0.27-0.3,0.5-0.61,0.76-0.88
						c0.27-0.26,0.52-0.5,0.77-0.74c0.24-0.24,0.52-0.42,0.76-0.61c1-0.74,1.89-1.16,2.53-1.35c0.63-0.19,0.99-0.22,0.99-0.22
						s-0.35,0.02-1,0.2c-0.64,0.18-1.54,0.59-2.55,1.3c-0.25,0.2-0.54,0.37-0.78,0.61c-0.25,0.23-0.52,0.47-0.79,0.73
						c-0.26,0.27-0.51,0.57-0.78,0.86c-0.28,0.3-0.53,0.64-0.77,1c-1.05,1.38-1.92,3.15-2.74,5.11c-0.75,2-1.44,4.21-1.93,6.6
						c-0.12,0.59-0.24,1.2-0.37,1.82c-0.12,0.61-0.18,1.24-0.28,1.88c-0.17,1.26-0.41,2.56-0.43,3.89
						c-0.08,2.67,0.06,5.43,0.53,8.19c0.13,0.69,0.26,1.38,0.41,2.07c0.2,0.68,0.4,1.36,0.61,2.04c0.2,0.69,0.5,1.32,0.76,1.98
						c0.34,0.64,0.63,1.3,1.02,1.9c1.46,2.48,3.54,4.47,5.35,6.56c0.89,1.06,1.71,2.18,2.32,3.37
						C247.4,392.21,247.73,393.52,247.96,394.81z"/>
					<path class="st1" d="M248.57,395.9c0.1,2.54,0.15,5.02,0.21,7.35c0.07,2.34,0.12,4.55,0.18,6.59
						c0.25,7.95,0.42,13.29,0.43,13.58l0,0c-0.01-0.29-0.1-5.64-0.24-13.59c-0.04-2.04-0.1-4.25-0.14-6.59
						c-0.06-2.34-0.09-4.8-0.18-7.36c-0.07-1.28-0.23-2.58-0.57-3.87c-0.36-1.27-0.88-2.52-1.54-3.7c-0.65-1.19-1.41-2.31-2.13-3.45
						c-0.72-1.15-1.39-2.32-1.95-3.55c-0.59-1.22-0.99-2.5-1.36-3.81c-0.3-1.3-0.6-2.62-0.76-3.95c-0.37-2.64-0.51-5.28-0.5-7.82
						c0-1.28,0.06-2.52,0.2-3.74c0.13-1.22,0.21-2.42,0.4-3.57c0.17-1.15,0.29-2.28,0.52-3.36c0.2-1.08,0.4-2.13,0.67-3.1
						c0.12-0.49,0.24-0.98,0.36-1.45c0.14-0.46,0.28-0.92,0.43-1.36c0.25-0.89,0.62-1.7,0.91-2.47c0.68-1.51,1.38-2.77,2.15-3.69
						c0.76-0.91,1.51-1.49,2.08-1.78c0.56-0.29,0.92-0.31,0.92-0.31s-0.36,0.02-0.93,0.31c-0.57,0.27-1.34,0.84-2.12,1.75
						c-0.78,0.91-1.52,2.18-2.22,3.67c-0.3,0.77-0.69,1.58-0.95,2.47c-0.14,0.44-0.29,0.9-0.44,1.36c-0.12,0.47-0.25,0.96-0.37,1.46
						c-0.28,0.98-0.47,2.03-0.68,3.11c-0.24,1.08-0.37,2.21-0.55,3.37c-0.19,1.16-0.28,2.35-0.41,3.57
						c-0.15,1.22-0.23,2.49-0.23,3.76c-0.04,2.56,0.09,5.2,0.46,7.87c0.14,1.34,0.45,2.65,0.74,3.99c0.36,1.3,0.77,2.63,1.36,3.87
						c0.58,1.24,1.26,2.44,1.99,3.58c0.73,1.14,1.5,2.25,2.15,3.41c0.65,1.16,1.17,2.38,1.52,3.63
						C248.32,393.36,248.49,394.64,248.57,395.9z"/>
					<path class="st1" d="M248.5,391.13c0.11,0.64,0.22,1.26,0.33,1.88c0.09,0.62,0.1,1.26,0.15,1.88c0.04,0.63,0.1,1.24,0.1,1.86
						c0.08,4.94,0.17,9.56,0.24,13.51c0.18,7.81,0.29,13.04,0.3,13.17l0,0c0-0.14-0.04-5.36-0.1-13.17
						c-0.04-3.95-0.1-8.57-0.16-13.51c0.01-0.62-0.05-1.25-0.09-1.87c-0.05-0.62-0.06-1.26-0.14-1.9c-0.11-0.63-0.21-1.27-0.32-1.91
						c-0.09-0.64-0.32-1.26-0.47-1.89c-0.74-2.5-1.88-4.91-2.56-7.43c-0.4-1.24-0.62-2.55-0.88-3.84c-0.21-1.28-0.31-2.59-0.47-3.87
						c-0.18-1.29-0.21-2.57-0.27-3.84c-0.06-1.27-0.12-2.52-0.11-3.76c-0.07-2.47,0.14-4.85,0.26-7.11
						c0.09-1.13,0.18-2.22,0.28-3.29c0.12-1.05,0.24-2.08,0.35-3.06c0.28-1.95,0.56-3.74,0.93-5.31c0.32-1.57,0.77-2.9,1.19-3.97
						c0.43-1.07,0.92-1.85,1.35-2.3c0.2-0.22,0.4-0.36,0.55-0.44c0.13-0.07,0.22-0.08,0.22-0.08s-0.08,0.01-0.22,0.08
						c-0.14,0.07-0.34,0.21-0.56,0.43c-0.43,0.44-0.94,1.21-1.39,2.28c-0.44,1.07-0.91,2.4-1.26,3.97c-0.39,1.56-0.7,3.36-0.99,5.31
						c-0.12,0.98-0.24,2-0.37,3.06c-0.1,1.06-0.2,2.16-0.3,3.29c-0.14,2.27-0.36,4.65-0.3,7.13c-0.02,1.24,0.03,2.5,0.08,3.77
						c0.05,1.27,0.08,2.56,0.25,3.85c0.15,1.3,0.23,2.6,0.45,3.91c0.25,1.29,0.46,2.59,0.86,3.86c0.71,2.57,1.86,4.96,2.6,7.43
						C248.18,389.9,248.4,390.5,248.5,391.13z"/>
					<path class="st1" d="M249.68,340.89c-0.02-0.02-0.21,0.25-0.34,0.85c-0.15,0.58-0.29,1.46-0.42,2.59
						c-0.27,2.24-0.46,5.47-0.61,9.35c-0.08,1.94-0.13,4.04-0.18,6.27c-0.02,1.11-0.04,2.25-0.06,3.41c0,1.16,0,2.36,0,3.57
						c0.01,2.43,0.13,4.93,0.18,7.47c0.05,1.27,0.03,2.56,0.15,3.83c0.1,1.29,0.21,2.57,0.31,3.86c0.09,1.29,0.29,2.57,0.43,3.85
						c0.16,1.27,0.27,2.56,0.41,3.83l0.09,0.95l0.03,0.95c0.03,0.64,0.05,1.26,0.07,1.89c0.04,1.25,0.11,2.48,0.09,3.69
						c0.01,4.85,0.02,9.38,0.02,13.26c-0.02,7.76-0.04,12.94-0.04,12.94s-0.06-5.18-0.16-12.94c-0.03-3.88-0.07-8.41-0.11-13.26
						c0.01-1.22-0.07-2.44-0.12-3.69c-0.02-0.62-0.05-1.25-0.07-1.87l-0.04-0.95l-0.1-0.94c-0.15-1.27-0.25-2.54-0.43-3.82
						c-0.15-1.28-0.36-2.57-0.46-3.86c-0.1-1.29-0.19-2.58-0.29-3.87c-0.11-1.29-0.08-2.57-0.12-3.85
						c-0.05-2.55-0.14-5.06-0.14-7.48c0.01-1.21,0.01-2.41,0.02-3.57c0.03-1.17,0.06-2.31,0.08-3.42c0.07-2.22,0.13-4.33,0.22-6.27
						c0.08-1.94,0.2-3.72,0.33-5.29c0.14-1.57,0.26-2.94,0.42-4.06c0.15-1.12,0.3-2,0.46-2.58
						C249.47,341.14,249.66,340.87,249.68,340.89z"/>
					<path class="st1" d="M250.2,340.89c0.02-0.02,0.21,0.25,0.36,0.85c0.17,0.59,0.31,1.46,0.46,2.58
						c0.16,1.13,0.28,2.49,0.42,4.06c0.12,1.58,0.24,3.36,0.33,5.29c0.08,1.94,0.15,4.04,0.21,6.27c0.03,1.11,0.05,2.25,0.08,3.42
						c0.01,1.16,0.02,2.36,0.02,3.57c0.01,2.43-0.09,4.94-0.14,7.48c-0.05,1.27-0.02,2.56-0.13,3.85c-0.09,1.29-0.2,2.58-0.29,3.87
						c-0.1,1.29-0.31,2.58-0.46,3.86c-0.17,1.28-0.29,2.55-0.43,3.82l-0.1,0.94l-0.04,0.95c-0.02,0.63-0.05,1.25-0.08,1.87
						c-0.04,1.25-0.12,2.48-0.11,3.69c-0.04,4.84-0.07,9.38-0.11,13.26c-0.09,7.76-0.16,12.94-0.16,12.94s-0.02-5.18-0.04-12.94
						c0.01-3.88,0.01-8.41,0.02-13.26c-0.01-1.21,0.06-2.44,0.09-3.69c0.02-0.63,0.04-1.26,0.07-1.89l0.04-0.95l0.09-0.95
						c0.14-1.27,0.25-2.56,0.4-3.83c0.14-1.28,0.34-2.55,0.43-3.85c0.11-1.29,0.21-2.58,0.31-3.86c0.11-1.27,0.09-2.56,0.14-3.83
						c0.06-2.54,0.18-5.05,0.19-7.47c0-1.21,0-2.41,0-3.57c-0.02-1.17-0.04-2.31-0.06-3.41c-0.05-2.22-0.11-4.33-0.18-6.27
						c-0.15-3.88-0.34-7.11-0.61-9.35c-0.13-1.13-0.27-2.01-0.41-2.59C250.41,341.14,250.22,340.87,250.2,340.89z"/>
					<path class="st1" d="M250.71,340.89c0,0,0.08,0.01,0.23,0.08c0.14,0.07,0.35,0.21,0.56,0.43c0.43,0.44,0.94,1.21,1.39,2.28
						c0.44,1.07,0.91,2.4,1.26,3.97c0.39,1.56,0.7,3.36,0.99,5.31c0.12,0.98,0.24,2,0.37,3.06c0.1,1.06,0.2,2.16,0.3,3.29
						c0.14,2.27,0.35,4.65,0.3,7.13c0.02,1.24-0.03,2.5-0.08,3.77c-0.05,1.27-0.08,2.56-0.25,3.85c-0.15,1.3-0.24,2.6-0.45,3.91
						c-0.25,1.29-0.46,2.59-0.87,3.86c-0.71,2.57-1.87,4.96-2.61,7.43c-0.15,0.62-0.37,1.23-0.48,1.86
						c-0.11,0.64-0.21,1.26-0.32,1.88c-0.09,0.62-0.1,1.26-0.15,1.88c-0.04,0.63-0.11,1.24-0.1,1.86
						c-0.09,4.94-0.17,9.56-0.24,13.51c-0.18,7.91-0.3,13.19-0.3,13.19s0.04-5.28,0.1-13.19c0.05-3.95,0.1-8.57,0.16-13.51
						c-0.01-0.62,0.06-1.25,0.09-1.87c0.06-0.62,0.07-1.26,0.15-1.9c0.11-0.63,0.21-1.27,0.31-1.91c0.1-0.64,0.32-1.26,0.48-1.89
						c0.73-2.5,1.87-4.91,2.55-7.43c0.4-1.24,0.63-2.55,0.89-3.84c0.21-1.27,0.3-2.59,0.46-3.87c0.18-1.29,0.21-2.57,0.27-3.84
						c0.07-1.27,0.12-2.52,0.1-3.76c0.07-2.47-0.13-4.85-0.26-7.11c-0.09-1.13-0.19-2.22-0.28-3.29c-0.12-1.05-0.24-2.08-0.35-3.06
						c-0.28-1.95-0.56-3.74-0.92-5.31c-0.33-1.57-0.77-2.9-1.19-3.97c-0.43-1.07-0.92-1.85-1.35-2.3c-0.2-0.22-0.4-0.36-0.54-0.44
						C250.79,340.9,250.71,340.89,250.71,340.89z"/>
					<path class="st1" d="M251.22,340.89c0,0,0.35,0.02,0.93,0.31c0.57,0.27,1.34,0.84,2.12,1.75c0.78,0.91,1.52,2.18,2.22,3.67
						c0.3,0.77,0.69,1.58,0.95,2.47c0.15,0.44,0.29,0.9,0.44,1.36c0.12,0.47,0.25,0.96,0.38,1.46c0.27,0.98,0.47,2.03,0.67,3.11
						c0.24,1.08,0.37,2.21,0.55,3.37c0.19,1.16,0.28,2.35,0.42,3.57c0.14,1.22,0.22,2.49,0.22,3.76c0.04,2.56-0.1,5.2-0.46,7.87
						c-0.15,1.34-0.46,2.65-0.75,3.99c-0.36,1.3-0.78,2.63-1.36,3.87c-0.57,1.24-1.26,2.44-1.99,3.58c-0.74,1.14-1.5,2.25-2.15,3.41
						c-0.65,1.17-1.17,2.38-1.52,3.63c-0.34,1.26-0.52,2.54-0.59,3.8c-0.1,2.54-0.15,5.02-0.21,7.35c-0.07,2.34-0.13,4.55-0.18,6.59
						c-0.26,8.16-0.43,13.61-0.43,13.61s0.1-5.45,0.24-13.62c0.04-2.04,0.09-4.25,0.14-6.59c0.06-2.34,0.09-4.8,0.17-7.36
						c0.07-1.28,0.24-2.58,0.58-3.87c0.36-1.27,0.88-2.52,1.54-3.7c0.65-1.19,1.41-2.31,2.13-3.45c0.72-1.15,1.39-2.32,1.95-3.55
						c0.59-1.22,0.99-2.5,1.36-3.81c0.29-1.3,0.6-2.62,0.77-3.95c0.37-2.64,0.51-5.28,0.49-7.82c0.01-1.28-0.06-2.52-0.19-3.74
						c-0.13-1.22-0.21-2.42-0.39-3.57c-0.18-1.15-0.3-2.28-0.53-3.36c-0.21-1.08-0.39-2.13-0.66-3.1c-0.12-0.49-0.25-0.98-0.36-1.45
						c-0.15-0.46-0.3-0.92-0.43-1.36c-0.24-0.89-0.62-1.7-0.91-2.47c-0.68-1.51-1.39-2.77-2.15-3.69c-0.76-0.91-1.52-1.49-2.09-1.78
						C251.57,340.91,251.22,340.89,251.22,340.89z"/>
					<path class="st1" d="M251.74,340.89c0,0,0.36,0.02,1,0.2c0.64,0.18,1.54,0.59,2.55,1.3c0.24,0.2,0.53,0.37,0.78,0.61
						c0.25,0.23,0.52,0.47,0.79,0.73c0.26,0.27,0.51,0.57,0.78,0.86c0.28,0.3,0.52,0.64,0.77,1c1.05,1.38,1.92,3.15,2.74,5.11
						c0.74,2,1.44,4.21,1.91,6.6c0.13,0.59,0.25,1.2,0.37,1.82c0.13,0.61,0.19,1.24,0.29,1.88c0.17,1.26,0.41,2.56,0.43,3.89
						c0.08,2.67-0.07,5.43-0.53,8.19c-0.14,0.69-0.27,1.38-0.42,2.07c-0.2,0.68-0.4,1.36-0.6,2.04c-0.21,0.69-0.51,1.32-0.78,1.99
						c-0.33,0.63-0.62,1.29-1.01,1.89c-1.46,2.48-3.55,4.47-5.35,6.56c-0.89,1.06-1.71,2.18-2.32,3.37c-0.64,1.2-0.97,2.51-1.2,3.8
						c-0.18,1.3-0.2,2.61-0.24,3.88c-0.05,1.27-0.1,2.53-0.14,3.75c-0.09,2.43-0.18,4.74-0.26,6.86
						c-0.35,8.49-0.59,14.15-0.59,14.15s0.16-5.67,0.39-14.16c0.07-2.13,0.14-4.43,0.22-6.86c0.04-1.22,0.08-2.47,0.11-3.74
						c0.05-1.28,0.05-2.58,0.22-3.92c0.22-1.32,0.56-2.66,1.2-3.89c0.63-1.23,1.45-2.37,2.35-3.44c1.81-2.13,3.87-4.11,5.28-6.55
						c0.39-0.59,0.68-1.22,1-1.84c0.27-0.64,0.58-1.3,0.78-1.96c0.21-0.67,0.41-1.34,0.61-2.01c0.15-0.68,0.29-1.36,0.42-2.04
						c0.48-2.73,0.64-5.48,0.57-8.13c-0.01-1.32-0.24-2.61-0.4-3.87c-0.1-0.63-0.16-1.26-0.28-1.87c-0.12-0.61-0.24-1.22-0.35-1.81
						c-0.47-2.38-1.15-4.59-1.88-6.58c-0.81-1.95-1.64-3.72-2.66-5.11c-0.24-0.35-0.48-0.7-0.75-1c-0.27-0.3-0.5-0.61-0.76-0.88
						c-0.27-0.26-0.53-0.5-0.78-0.74c-0.24-0.24-0.52-0.42-0.76-0.61c-1-0.74-1.88-1.16-2.53-1.35
						C252.1,340.91,251.74,340.89,251.74,340.89z"/>
					<path class="st1" d="M268.11,363.99c-0.03-0.69-0.21-1.37-0.32-2.04c-0.12-0.67-0.24-1.34-0.36-2
						c-0.27-1.32-0.66-2.57-0.96-3.81c-0.19-0.6-0.41-1.2-0.62-1.78c-0.22-0.58-0.37-1.17-0.65-1.71c-0.51-1.08-0.94-2.17-1.55-3.12
						c-1.05-1.96-2.41-3.54-3.7-4.81c-1.29-1.27-2.67-2.09-3.81-2.69c-1.17-0.59-2.16-0.83-2.83-1c-0.69-0.14-1.06-0.15-1.06-0.15
						s0.37,0.02,1.06,0.17c0.67,0.17,1.66,0.43,2.81,1.04c1.14,0.6,2.48,1.44,3.76,2.73c1.26,1.27,2.57,2.85,3.61,4.81
						c0.59,0.94,1.01,2.02,1.52,3.09c0.27,0.54,0.41,1.13,0.63,1.71c0.2,0.59,0.42,1.17,0.6,1.77c0.3,1.24,0.68,2.49,0.94,3.8
						c0.12,0.65,0.24,1.32,0.35,1.99c0.11,0.68,0.28,1.34,0.3,2.03c0.2,2.75,0.03,5.63-0.54,8.48c-0.18,0.7-0.37,1.4-0.55,2.11
						c-0.08,0.36-0.22,0.69-0.35,1.04l-0.39,1.02c-0.5,1.36-1.3,2.65-2.14,3.82c-0.88,1.18-1.89,2.25-2.95,3.27
						c-1.08,1-2.2,1.95-3.3,2.91c-1.1,0.96-2.16,1.97-3.07,3.09c-0.92,1.12-1.59,2.41-2.03,3.74c-0.1,0.34-0.19,0.68-0.28,1.01
						c-0.07,0.34-0.1,0.69-0.15,1.03c-0.12,0.68-0.11,1.36-0.14,2.02c-0.06,1.34-0.11,2.64-0.17,3.92c-0.1,2.54-0.2,4.95-0.3,7.17
						c-0.34,8.81-0.55,14.71-0.56,14.8l0,0c0.01-0.09,0.3-5.98,0.75-14.79c0.11-2.22,0.22-4.62,0.34-7.17
						c0.05-1.27,0.12-2.58,0.18-3.91c0.04-0.67,0.03-1.35,0.15-2.01c0.05-0.33,0.08-0.67,0.15-1c0.09-0.33,0.19-0.66,0.28-0.99
						c0.44-1.3,1.09-2.55,2-3.63c0.9-1.09,1.95-2.08,3.05-3.04c1.1-0.95,2.23-1.9,3.32-2.9c1.07-1.02,2.12-2.1,3.01-3.3
						c0.87-1.24,1.65-2.49,2.16-3.9l0.4-1.04c0.13-0.35,0.28-0.69,0.35-1.06c0.19-0.72,0.37-1.43,0.55-2.15
						C268.16,369.68,268.32,366.78,268.11,363.99z"/>
					<path class="st1" d="M271.98,363.05c-0.16-0.72-0.32-1.42-0.47-2.12c-0.17-0.7-0.28-1.4-0.52-2.07
						c-0.21-0.67-0.42-1.34-0.64-1.99c-0.11-0.32-0.19-0.65-0.33-0.97c-0.13-0.31-0.27-0.61-0.4-0.93
						c-0.26-0.61-0.53-1.22-0.78-1.81c-0.3-0.58-0.63-1.13-0.92-1.68c-0.57-1.13-1.36-2.08-2.02-3.05c-1.49-1.8-3.02-3.33-4.62-4.36
						c-1.58-1.06-3.06-1.82-4.35-2.25c-0.63-0.25-1.23-0.38-1.74-0.54c-0.52-0.1-0.96-0.22-1.31-0.26
						c-0.72-0.12-1.11-0.12-1.11-0.12s0.39,0.01,1.11,0.13c0.36,0.05,0.79,0.17,1.31,0.28c0.5,0.16,1.1,0.29,1.73,0.56
						c1.27,0.45,2.75,1.22,4.3,2.3c0.38,0.29,0.77,0.57,1.16,0.87c0.38,0.33,0.75,0.69,1.14,1.05c0.19,0.18,0.39,0.36,0.59,0.55
						c0.18,0.2,0.35,0.41,0.54,0.62c0.36,0.42,0.76,0.83,1.11,1.28c0.64,0.97,1.42,1.91,1.97,3.04c0.3,0.55,0.62,1.1,0.91,1.67
						c0.25,0.6,0.52,1.2,0.78,1.81c0.13,0.31,0.26,0.62,0.39,0.93c0.12,0.31,0.21,0.64,0.31,0.97c0.21,0.65,0.42,1.31,0.63,1.97
						c0.24,0.67,0.34,1.37,0.5,2.06c0.15,0.7,0.31,1.41,0.46,2.11c0.25,1.42,0.25,2.9,0.2,4.39c-0.07,1.49-0.26,2.99-0.6,4.47
						c-0.33,1.48-0.82,2.94-1.48,4.33l-0.53,1.02c-0.18,0.33-0.41,0.65-0.61,0.98c-0.39,0.68-0.91,1.24-1.38,1.84
						c-2.01,2.35-4.57,4.14-7.07,5.91c-1.25,0.87-2.48,1.77-3.62,2.76c-1.15,0.97-2.14,2.13-2.89,3.4c-0.8,1.26-1.07,2.73-1.25,4.12
						c-0.08,1.41-0.16,2.77-0.23,4.11c-0.15,2.67-0.3,5.19-0.43,7.51c-0.13,2.33-0.26,4.46-0.32,6.36c-0.07,1.88-0.14,3.54-0.2,4.9
						c-0.1,2.57-0.16,4.08-0.17,4.25c0,0,0,0,0-0.01c0.01-0.16,0.09-1.67,0.23-4.23c0.07-1.37,0.16-3.01,0.26-4.9
						c0.09-1.89,0.25-4.02,0.39-6.35c0.14-2.32,0.3-4.84,0.46-7.51c0.08-1.33,0.17-2.7,0.26-4.1c0.18-1.36,0.45-2.79,1.23-4.01
						c1.45-2.51,3.98-4.3,6.46-6.04c2.49-1.74,5.09-3.54,7.16-5.92c0.48-0.62,1.01-1.22,1.39-1.89c0.21-0.34,0.43-0.64,0.62-1
						l0.54-1.04c0.65-1.42,1.14-2.9,1.47-4.4c0.34-1.5,0.52-3.02,0.58-4.53C272.24,365.99,272.24,364.5,271.98,363.05z"/>
					<path class="st1" d="M275.7,362.08c-0.2-0.73-0.39-1.47-0.58-2.2c-0.08-0.36-0.22-0.71-0.35-1.06c-0.13-0.35-0.27-0.7-0.4-1.04
						c-0.27-0.69-0.48-1.39-0.81-2.04c-0.33-0.65-0.65-1.27-0.96-1.91c-0.17-0.31-0.3-0.63-0.49-0.92c-0.19-0.3-0.39-0.58-0.57-0.87
						c-0.39-0.57-0.74-1.14-1.13-1.68c-0.87-1-1.62-2.05-2.55-2.86c-1.73-1.76-3.66-2.97-5.39-3.94c-0.45-0.22-0.88-0.43-1.3-0.65
						c-0.41-0.2-0.84-0.35-1.24-0.52c-0.79-0.34-1.57-0.53-2.24-0.76c-1.39-0.36-2.49-0.58-3.25-0.66c-0.76-0.09-1.17-0.1-1.17-0.1
						s0.41,0.01,1.17,0.12c0.76,0.1,1.86,0.32,3.23,0.7c0.68,0.24,1.44,0.43,2.22,0.79c0.39,0.18,0.82,0.32,1.23,0.53
						c0.41,0.21,0.84,0.43,1.28,0.66c1.72,0.98,3.61,2.22,5.32,3.96c0.93,0.8,1.66,1.85,2.52,2.85c0.39,0.53,0.73,1.1,1.11,1.67
						c0.19,0.28,0.37,0.56,0.56,0.85c0.19,0.29,0.32,0.61,0.48,0.92c0.31,0.63,0.63,1.25,0.95,1.9c0.31,0.64,0.52,1.34,0.79,2.03
						c0.13,0.34,0.26,0.69,0.39,1.03c0.13,0.35,0.27,0.7,0.34,1.07c0.19,0.72,0.38,1.45,0.57,2.19c0.48,1.46,0.53,3.01,0.51,4.57
						c-0.03,1.56-0.22,3.15-0.59,4.69c-0.72,3.1-2.27,6.08-4.54,8.38c-2.26,2.33-5.06,4.05-7.8,5.7c-2.74,1.65-5.57,3.21-7.67,5.51
						c-1.04,1.14-1.83,2.51-2.17,3.97c-0.19,0.72-0.23,1.46-0.27,2.18c-0.05,0.71-0.1,1.42-0.15,2.12c-0.19,2.8-0.37,5.45-0.53,7.89
						c-0.17,2.44-0.33,4.68-0.41,6.66c-0.1,1.98-0.18,3.72-0.24,5.15c-0.12,2.51-0.2,4.07-0.22,4.41l0,0
						c0.02-0.35,0.12-1.9,0.27-4.41c0.09-1.42,0.2-3.15,0.32-5.14c0.11-1.99,0.32-4.22,0.48-6.66c0.18-2.44,0.37-5.09,0.57-7.89
						c0.05-0.69,0.11-1.4,0.15-2.13c0.05-0.72,0.09-1.43,0.29-2.13c0.33-1.42,1.1-2.73,2.12-3.85c2.07-2.23,4.88-3.77,7.63-5.41
						c2.76-1.63,5.59-3.35,7.9-5.72c2.32-2.36,3.87-5.41,4.59-8.55c0.37-1.58,0.56-3.18,0.57-4.77
						C276.26,365.16,276.2,363.54,275.7,362.08z"/>
					<path class="st1" d="M280.05,363.45c-0.21-0.81-0.41-1.58-0.65-2.36c-0.97-3.07-2.31-5.93-4-8.36
						c-0.83-1.22-1.77-2.32-2.71-3.34c-0.99-0.99-1.97-1.91-3.01-2.68c-2.05-1.58-4.15-2.7-6.07-3.52
						c-1.94-0.81-3.69-1.33-5.16-1.66c-1.46-0.33-2.63-0.49-3.43-0.57c-0.8-0.08-1.23-0.08-1.23-0.08s0.43,0.01,1.22,0.1
						c0.8,0.09,1.97,0.27,3.43,0.61c1.46,0.35,3.2,0.89,5.12,1.72c1.9,0.84,3.98,1.98,6,3.56c1.02,0.76,2,1.69,2.96,2.67
						c0.94,1.02,1.86,2.11,2.68,3.32c1.67,2.42,2.98,5.26,3.93,8.32c0.23,0.76,0.43,1.55,0.64,2.32c0.12,0.79,0.19,1.61,0.2,2.43
						c0.03,1.64-0.15,3.3-0.55,4.93c-0.78,3.25-2.52,6.33-5.03,8.61c-2.5,2.32-5.52,4-8.49,5.56c-2.98,1.58-6.02,2.99-8.58,4.99
						c-1.26,1-2.4,2.18-3.09,3.6c-0.34,0.71-0.61,1.45-0.71,2.21c-0.12,0.76-0.13,1.5-0.2,2.23c-0.24,2.94-0.45,5.72-0.66,8.27
						c-0.2,2.57-0.39,4.92-0.52,7c-0.12,2.09-0.22,3.91-0.31,5.41c-0.15,2.55-0.24,4.17-0.26,4.59h0.01
						c0.02-0.42,0.14-2.03,0.32-4.59c0.1-1.49,0.23-3.31,0.37-5.39c0.18-2.08,0.37-4.43,0.59-6.99c0.21-2.56,0.44-5.33,0.69-8.27
						c0.07-0.73,0.1-1.49,0.21-2.22c0.1-0.73,0.36-1.45,0.69-2.13c0.68-1.37,1.79-2.51,3.05-3.5c2.54-1.94,5.57-3.35,8.56-4.91
						c2.99-1.55,6.04-3.23,8.59-5.58c2.55-2.35,4.32-5.51,5.09-8.81c0.39-1.65,0.57-3.35,0.53-5.01
						C280.25,365.09,280.19,364.27,280.05,363.45z"/>
					<path class="st1" d="M284.26,365.11c-0.05-0.86-0.18-1.76-0.47-2.57c-0.13-0.41-0.26-0.82-0.39-1.23
						c-0.15-0.39-0.29-0.79-0.45-1.19c-1.19-3.17-2.95-5.99-4.95-8.36c-2.03-2.34-4.32-4.24-6.63-5.65
						c-2.3-1.45-4.59-2.44-6.66-3.17c-2.07-0.73-3.94-1.16-5.5-1.47c-1.54-0.29-2.77-0.43-3.61-0.5c-0.84-0.07-1.29-0.08-1.29-0.08
						s0.45,0.01,1.29,0.09c0.83,0.09,2.07,0.24,3.61,0.55c1.54,0.32,3.4,0.78,5.45,1.54c2.06,0.75,4.32,1.77,6.6,3.21
						c2.29,1.42,4.55,3.31,6.56,5.64c1.97,2.36,3.7,5.16,4.87,8.31c0.15,0.39,0.3,0.79,0.44,1.19c0.12,0.41,0.24,0.81,0.37,1.22
						c0.29,0.81,0.4,1.64,0.45,2.5c0.11,1.72-0.02,3.48-0.44,5.18c-0.81,3.42-2.77,6.6-5.52,8.89c-2.71,2.32-5.96,3.96-9.15,5.47
						c-3.2,1.5-6.45,2.83-9.35,4.59c-1.45,0.87-2.8,1.89-3.87,3.15c-0.51,0.64-0.95,1.33-1.25,2.08c-0.29,0.75-0.45,1.56-0.5,2.32
						c-0.3,3.08-0.65,5.98-0.84,8.68c-0.45,5.38-0.74,9.87-0.95,13.02c-0.16,2.57-0.27,4.23-0.31,4.76h0.01
						c0.04-0.53,0.17-2.19,0.36-4.75c0.12-1.57,0.28-3.48,0.45-5.66c0.19-2.19,0.4-4.65,0.63-7.35c0.2-2.69,0.57-5.59,0.87-8.67
						c0.05-0.78,0.22-1.52,0.5-2.25c0.3-0.72,0.72-1.39,1.23-2.01c1.04-1.23,2.38-2.22,3.81-3.08c2.89-1.72,6.14-3.03,9.34-4.54
						c3.21-1.49,6.48-3.12,9.25-5.48c2.79-2.34,4.78-5.6,5.59-9.09C284.25,368.65,284.37,366.86,284.26,365.11z"/>
					<path class="st1" d="M288.19,364.29c-0.08-0.93-0.49-1.78-0.75-2.63c-0.31-0.85-0.66-1.67-1.04-2.48
						c-0.77-1.6-1.66-3.1-2.67-4.49c-1.03-1.37-2.1-2.66-3.29-3.76c-0.57-0.59-1.21-1.08-1.8-1.61c-0.63-0.47-1.23-0.98-1.87-1.39
						c-1.24-0.9-2.54-1.63-3.78-2.31c-2.53-1.3-4.97-2.23-7.19-2.87c-2.21-0.65-4.18-1.06-5.81-1.33c-3.27-0.52-5.17-0.52-5.17-0.52
						s1.9,0.02,5.16,0.58c1.63,0.28,3.59,0.72,5.78,1.39c2.21,0.67,4.62,1.63,7.13,2.92c1.24,0.68,2.52,1.4,3.75,2.3
						c0.64,0.42,1.23,0.92,1.85,1.4c0.58,0.53,1.21,1.01,1.77,1.6c2.34,2.23,4.37,5.03,5.88,8.21c0.37,0.8,0.72,1.62,1.03,2.45
						c0.27,0.87,0.65,1.68,0.73,2.58c0.23,1.79,0.13,3.65-0.28,5.44c-0.41,1.8-1.14,3.53-2.17,5.08c-1.03,1.54-2.34,2.93-3.79,4.09
						c-2.96,2.33-6.39,3.95-9.8,5.41c-3.41,1.46-6.86,2.72-10.04,4.3c-1.58,0.8-3.12,1.66-4.44,2.77c-1.32,1.09-2.42,2.49-2.81,4.11
						l-0.12,0.6l-0.07,0.6c-0.05,0.4-0.1,0.8-0.14,1.19c-0.09,0.78-0.18,1.55-0.27,2.31c-0.16,1.52-0.36,2.97-0.47,4.4
						c-0.24,2.82-0.47,5.41-0.67,7.69c-0.17,2.3-0.33,4.3-0.45,5.95c-0.19,2.6-0.31,4.3-0.36,4.92h0.01
						c0.05-0.62,0.19-2.32,0.41-4.92c0.15-1.64,0.32-3.64,0.53-5.94c0.21-2.28,0.46-4.87,0.74-7.69c0.12-1.41,0.32-2.87,0.49-4.39
						c0.09-0.75,0.18-1.53,0.27-2.31c0.05-0.4,0.1-0.79,0.14-1.18l0.07-0.6l0.13-0.58c0.39-1.55,1.45-2.91,2.74-3.98
						c1.3-1.09,2.83-1.92,4.4-2.71c3.17-1.56,6.61-2.8,10.04-4.26c3.42-1.45,6.9-3.06,9.91-5.41c1.49-1.2,2.8-2.6,3.85-4.18
						c1.05-1.59,1.79-3.37,2.19-5.2C288.35,368.01,288.44,366.12,288.19,364.29z"/>
					<path class="st1" d="M292.04,363.46c-0.64-1.83-1.36-3.58-2.32-5.18c-0.22-0.42-0.46-0.82-0.72-1.2
						c-0.25-0.39-0.51-0.76-0.76-1.15c-0.56-0.72-1.08-1.46-1.7-2.12c-1.16-1.37-2.46-2.55-3.78-3.64
						c-1.32-1.08-2.71-1.99-4.08-2.83c-1.39-0.79-2.76-1.53-4.12-2.12c-2.71-1.23-5.33-2.04-7.67-2.64
						c-2.33-0.6-4.41-0.97-6.13-1.21c-3.43-0.48-5.42-0.48-5.42-0.48s1.98,0.02,5.41,0.54c1.71,0.26,3.77,0.65,6.1,1.28
						c2.32,0.63,4.92,1.47,7.62,2.69c1.36,0.59,2.71,1.34,4.1,2.13c1.36,0.84,2.74,1.75,4.05,2.83c1.3,1.08,2.59,2.26,3.73,3.62
						c0.6,0.65,1.11,1.4,1.67,2.11c0.25,0.38,0.5,0.77,0.75,1.15c0.26,0.38,0.49,0.77,0.71,1.18c0.94,1.59,1.65,3.35,2.27,5.12
						c0.4,1.83,0.37,3.79-0.02,5.68c-0.4,1.88-1.19,3.7-2.3,5.3c-1.12,1.59-2.52,3.01-4.1,4.17c-3.15,2.36-6.82,3.93-10.43,5.36
						c-3.62,1.43-7.27,2.65-10.7,4.1c-1.71,0.72-3.37,1.51-4.89,2.47c-1.5,0.97-2.92,2.12-3.74,3.66c-0.41,0.76-0.66,1.61-0.73,2.43
						c-0.1,0.82-0.2,1.63-0.3,2.43c-0.2,1.58-0.39,3.12-0.57,4.6c-0.6,5.91-1.03,10.84-1.32,14.29c-0.21,2.61-0.36,4.37-0.41,5.08
						c0.01,0,0.01,0,0.01,0c0.07-0.71,0.23-2.47,0.47-5.07c0.17-1.72,0.37-3.82,0.61-6.22c0.25-2.4,0.54-5.1,0.85-8.06
						c0.19-1.47,0.39-3.01,0.59-4.59c0.11-0.79,0.21-1.6,0.32-2.42c0.07-0.82,0.31-1.61,0.71-2.35c0.79-1.48,2.19-2.61,3.67-3.56
						c1.51-0.94,3.16-1.71,4.87-2.42c3.42-1.43,7.07-2.63,10.7-4.05c3.62-1.43,7.32-2.99,10.54-5.37c1.59-1.2,3.01-2.64,4.15-4.27
						c1.13-1.64,1.93-3.5,2.33-5.43C292.44,367.35,292.47,365.36,292.04,363.46z"/>
				</g>
				<g class="st21">
					<path class="st17" d="M239.52,390.25c2.31,1.52,4.35,3.47,5.26,5.93l0.34,2.87c0.56-0.76,1.26-1.48,2.13-1.98
						c2.99-1.71,6.59,0.36,7.39,3.77l0.56-4.67c1.4-3.74,5.37-6.32,8.99-7.96c-2.67,0.97-9.54,3.28-14.53,3.45
						C244.18,391.86,240.41,390.58,239.52,390.25z"/>
				</g>
				<path class="st17" d="M212.46,357.19c0,0,12.09-20.15,50.02-15.21c0,0-39.03,1.28-48.37,24.37
					C214.11,366.35,212.09,361.59,212.46,357.19z"/>
				<path class="st17" d="M245.99,399.39l2.55,23.21c0,0,1.11,0.37,1.35,0c0.25-0.37-1.94-25.04-1.94-25.04
					S246.59,397.69,245.99,399.39z"/>
			</g>
		</g>
		<g>
			<path class="st8" d="M260.9,78.31c0,0.98-2.95,1.77-6.59,1.77c-3.64,0-6.6-0.79-6.6-1.77c0-0.98,2.95-1.77,6.6-1.77
				C257.95,76.54,260.9,77.33,260.9,78.31z"/>
			<path class="st9" d="M254.32,80.44L254.32,80.44c-3.47,0-6.96-0.74-6.96-2.13c0-1.4,3.49-2.14,6.95-2.14
				c3.46,0,6.97,0.74,6.97,2.14C261.28,79.71,257.77,80.44,254.32,80.44z M254.31,76.9c-4.03,0-6.23,0.92-6.23,1.4
				c0,0.47,2.2,1.4,6.23,1.4l0.01,0.36v-0.36c4.02,0,6.22-0.93,6.22-1.4C260.54,77.83,258.34,76.9,254.31,76.9z"/>
		</g>
		<g>
			<path class="st6" d="M260.9,78.31c0,0.98-2.95,1.77-6.59,1.77c-3.64,0-6.6-0.79-6.6-1.77c0-0.98,2.95-1.77,6.6-1.77
				C257.95,76.54,260.9,77.33,260.9,78.31z"/>
			<path class="st7" d="M254.32,80.44L254.32,80.44c-3.47,0-6.96-0.74-6.96-2.13c0-1.4,3.49-2.14,6.95-2.14
				c3.46,0,6.97,0.74,6.97,2.14C261.28,79.71,257.77,80.44,254.32,80.44z M254.31,76.9c-4.03,0-6.23,0.92-6.23,1.4
				c0,0.47,2.2,1.4,6.23,1.4l0.01,0.36v-0.36c4.02,0,6.22-0.93,6.22-1.4C260.54,77.83,258.34,76.9,254.31,76.9z"/>
		</g>
		<path class="st22" d="M258.3,78.25c0,0.59-1.78,1.07-3.99,1.07c-2.21,0-3.99-0.48-3.99-1.07c0-0.59,1.79-1.07,3.99-1.07
			C256.52,77.18,258.3,77.66,258.3,78.25z"/>
	</g>
</g>
</svg>
