<?xml version="1.0" encoding="utf-8"?>
<!-- Generator: Adobe Illustrator 24.2.3, SVG Export Plug-In . SVG Version: 6.00 Build 0)  -->
<svg version="1.1" id="Layer_1" xmlns="http://www.w3.org/2000/svg" xmlns:xlink="http://www.w3.org/1999/xlink" x="0px" y="0px"
	 viewBox="0 0 300 300" style="enable-background:new 0 0 300 300;" xml:space="preserve">
<style type="text/css">
	.st0{fill:#EBCB42;}
	.st1{fill:#E0DBC0;}
	.st2{fill:#60A2A2;}
	.st3{fill:#A4A14F;}
	.st4{fill:#C45F43;}
</style>
<g id="XMLID_189_">
	<g id="XMLID_4402_">
		
			<ellipse id="XMLID_4403_" transform="matrix(0.7071 -0.7071 0.7071 0.7071 -58.4613 141.7125)" class="st0" cx="141.83" cy="141.43" rx="87.45" ry="87.45"/>
	</g>
	<g id="XMLID_4264_">
		<g id="XMLID_4267_">
			<path id="XMLID_4271_" class="st1" d="M177.53,188.91h-69.25c-4.96,0-9.01-4.06-9.01-9.01v-76.94c0-4.96,4.06-9.01,9.01-9.01
				h69.25c4.96,0,9.01,4.06,9.01,9.01v76.94C186.55,184.85,182.49,188.91,177.53,188.91z"/>
			<path id="XMLID_4268_" class="st2" d="M179.24,193.77h-72.67c-6.71,0-12.17-5.46-12.17-12.17v-80.35
				c0-6.71,5.46-12.17,12.17-12.17h72.67c6.71,0,12.17,5.46,12.17,12.17v80.35C191.41,188.31,185.95,193.77,179.24,193.77z
				 M106.57,98.8c-1.32,0-2.44,1.12-2.44,2.44v80.35c0,1.33,1.12,2.44,2.44,2.44h72.67c1.32,0,2.44-1.12,2.44-2.44v-80.35
				c0-1.32-1.12-2.44-2.44-2.44H106.57z"/>
		</g>
		<g id="XMLID_4265_">
			<path id="XMLID_4266_" class="st3" d="M212.34,108.35l-4.3-3.9c-3.11-2.81-8.12-2.63-11.15,0.4l-42.3,42.36l-17.21-15.42
				c-3.4-3.05-8.87-2.82-12.16,0.5l-2.63,2.66c-3.28,3.32-3.19,8.53,0.22,11.58l25.49,22.83l1.63,1.48
				c3.11,2.81,8.12,2.63,11.15-0.4l51.39-51.48C215.51,115.94,215.44,111.16,212.34,108.35z"/>
		</g>
	</g>
	<g id="XMLID_4262_">
		<path id="XMLID_4263_" class="st4" d="M168.23,224.07l-5.18-76.17c-0.2-3,2.81-5.16,5.58-4.02l74.47,30.63
			c2.94,1.21,3.41,5.17,0.83,7.03l-22.21,16.06c-1.8,1.3-2.22,3.82-0.93,5.63l19.82,27.89c1.3,1.82,0.87,4.35-0.95,5.65l-11.95,8.51
			c-1.88,1.34-4.5,0.84-5.76-1.11l-19.55-30.34c-1.22-1.89-3.74-2.43-5.62-1.2l-22.31,14.56
			C171.89,228.88,168.44,227.16,168.23,224.07z"/>
	</g>
</g>
</svg>
