<?xml version="1.0" encoding="utf-8"?>
<!-- Generator: Adobe Illustrator 24.2.3, SVG Export Plug-In . SVG Version: 6.00 Build 0)  -->
<svg version="1.1" id="Layer_1" xmlns="http://www.w3.org/2000/svg" xmlns:xlink="http://www.w3.org/1999/xlink" x="0px" y="0px"
	 viewBox="0 0 200 200" style="enable-background:new 0 0 200 200;" xml:space="preserve">
<style type="text/css">
	.st0{fill:#FFFFFF;fill-opacity:0;}
	.st1{clip-path:url(#SVGID_6_);fill:#F5EFEC;}
	.st2{clip-path:url(#SVGID_8_);}
	.st3{fill:#FF926C;}
	.st4{clip-path:url(#SVGID_10_);}
	.st5{fill:#313C73;}
	.st6{fill:#2C2A2B;}
	.st7{fill:#FFB287;}
	.st8{fill:#FFFFFF;}
	.st9{fill:#9BAB6C;}
	.st10{fill:#322924;}
	.st11{fill:#523223;}
	.st12{fill:#3B251C;}
	.st13{fill:#FFB09E;}
	.st14{fill:#C25040;}
	.st15{fill:#CC715C;}
	.st16{fill:#924426;}
	.st17{opacity:0.5;fill:#FFFFFF;enable-background:new    ;}
	.st18{fill:#FBF6F2;}
	.st19{fill:#669BBC;}
	.st20{fill:#003049;}
	.st21{font-family:'ArialMT';}
	.st22{font-size:10.1665px;}
</style>
<g>
	<g id="_x30_">
		<rect x="4.46" y="44.48" class="st0" width="190.62" height="127.08"/>
	</g>
	<g>
		<defs>
			
				<rect id="SVGID_1_" x="85.17" y="65.74" transform="matrix(0.5432 -0.8396 0.8396 0.5432 -26.1026 210.5881)" width="190.62" height="127.08"/>
		</defs>
		<clipPath id="SVGID_2_">
			<use xlink:href="#SVGID_1_"  style="overflow:visible;"/>
		</clipPath>
	</g>
	<g>
		<defs>
			
				<rect id="SVGID_3_" x="-70.22" y="6.15" transform="matrix(0.6613 -0.7501 0.7501 0.6613 -43.7791 42.423)" width="190.62" height="127.08"/>
		</defs>
		<clipPath id="SVGID_4_">
			<use xlink:href="#SVGID_3_"  style="overflow:visible;"/>
		</clipPath>
	</g>
	<g>
		<defs>
			<rect id="SVGID_5_" x="4.46" y="44.48" width="190.62" height="127.08"/>
		</defs>
		<clipPath id="SVGID_6_">
			<use xlink:href="#SVGID_5_"  style="overflow:visible;"/>
		</clipPath>
		<path class="st1" d="M165.65,102.99c-2.86-13.38-14.31-23.35-29.64-27.79c0.17-2.83-0.33-5.51-1.58-7.91
			c-6.28-12.09-29.11-12.67-50.99-1.3c-10.06,5.23-18.17,12.08-23.38,19.12c-18.15,0.42-33.1,8.62-37.19,22.13
			c-5.65,18.67,11.28,41.58,38.54,48.55c22.12,5.66,42.98,4.52,58.2,0.88C159.58,147.11,170.42,125.36,165.65,102.99z"/>
	</g>
	<g>
		<defs>
			<rect id="SVGID_7_" x="4.46" y="44.48" width="190.62" height="127.08"/>
		</defs>
		<clipPath id="SVGID_8_">
			<use xlink:href="#SVGID_7_"  style="overflow:visible;"/>
		</clipPath>
		<g class="st2">
			<g>
				<path class="st3" d="M123.94,95.47c-0.04,0-0.09-0.02-0.12-0.05c-0.06-0.07-0.05-0.17,0.01-0.23l9.68-8.56
					c0.04-0.03,0.1-0.05,0.15-0.03s0.09,0.06,0.11,0.11l0.89,3.43l14.64-12.09c0.07-0.05,0.17-0.05,0.22,0.02
					c0.06,0.07,0.05,0.17-0.02,0.22l-14.84,12.24c-0.04,0.03-0.1,0.04-0.15,0.03c-0.05-0.02-0.09-0.06-0.1-0.11l-0.89-3.42
					l-9.48,8.39C124.01,95.45,123.97,95.47,123.94,95.47z"/>
			</g>
			<g>
				<path class="st3" d="M54.78,109.11c-0.03,0-0.07-0.01-0.1-0.03l-7-5.78c-0.07-0.06-0.08-0.16-0.02-0.22s0.16-0.08,0.22-0.02
					l7,5.78c0.07,0.06,0.08,0.16,0.02,0.22C54.87,109.09,54.83,109.11,54.78,109.11z"/>
			</g>
			<g>
				<path class="st3" d="M115.26,78.98c-0.04,0-0.09-0.02-0.12-0.06c-0.05-0.07-0.04-0.17,0.02-0.22l9.28-7.58
					c0.07-0.05,0.17-0.04,0.22,0.02c0.05,0.07,0.04,0.17-0.02,0.22l-9.28,7.58C115.33,78.97,115.3,78.98,115.26,78.98z"/>
			</g>
			<g>
				<path class="st3" d="M23.94,142.4c-0.06,0-0.13-0.04-0.15-0.1c-0.03-0.08,0.01-0.17,0.1-0.2l23.06-8.46
					c0.08-0.03,0.17,0.01,0.2,0.1c0.03,0.08-0.01,0.17-0.1,0.2l-23.06,8.46C23.98,142.39,23.96,142.4,23.94,142.4z"/>
			</g>
			<g>
				<path class="st3" d="M49.09,116.13c-0.03,0-0.06-0.01-0.08-0.02l-10.11-6.05l-0.13,3c0,0.05-0.03,0.1-0.08,0.13
					c-0.04,0.03-0.1,0.03-0.15,0.01l-10.97-5.03c-0.08-0.04-0.11-0.13-0.08-0.21c0.04-0.08,0.13-0.11,0.21-0.08l10.75,4.93
					l0.13-3.03c0-0.06,0.03-0.1,0.08-0.13c0.05-0.03,0.11-0.03,0.16,0l10.33,6.19c0.08,0.04,0.1,0.14,0.05,0.22
					C49.2,116.1,49.14,116.13,49.09,116.13z"/>
			</g>
			<g>
				<path class="st3" d="M80.48,76.9c-0.05,0-0.1-0.02-0.13-0.06l-8.9-11.73c-0.05-0.07-0.04-0.17,0.03-0.22
					c0.07-0.05,0.17-0.04,0.22,0.03l8.9,11.73c0.05,0.07,0.04,0.17-0.03,0.22C80.55,76.89,80.52,76.9,80.48,76.9z"/>
			</g>
			<g>
				<path class="st3" d="M90.03,67.82c-0.08,0-0.15-0.06-0.16-0.15l-0.26-3.42c-0.01-0.09,0.06-0.17,0.15-0.17s0.17,0.06,0.17,0.15
					l0.26,3.42c0.01,0.09-0.06,0.17-0.15,0.17C90.04,67.82,90.04,67.82,90.03,67.82z"/>
			</g>
			<g>
				<path class="st3" d="M53.98,161.63c-0.03,0-0.06-0.01-0.09-0.03c-0.07-0.05-0.1-0.15-0.05-0.22l8.44-13.1
					c0.05-0.07,0.15-0.1,0.22-0.05s0.1,0.15,0.05,0.22l-8.44,13.1C54.08,161.6,54.03,161.63,53.98,161.63z"/>
			</g>
			<g>
				<path class="st3" d="M32.56,128.17c-0.09,0-0.16-0.07-0.16-0.15c0-0.09,0.07-0.16,0.15-0.17l5.8-0.21
					c0.09,0,0.16,0.07,0.17,0.15c0,0.09-0.07,0.16-0.15,0.17L32.56,128.17C32.57,128.17,32.57,128.17,32.56,128.17z"/>
			</g>
			<g>
				<path class="st3" d="M37.85,153.72c-0.05,0-0.1-0.03-0.13-0.07c-0.05-0.07-0.03-0.17,0.05-0.22l3.74-2.34
					c0.07-0.05,0.17-0.03,0.22,0.05c0.05,0.07,0.03,0.17-0.05,0.22l-3.74,2.34C37.91,153.72,37.88,153.72,37.85,153.72z"/>
			</g>
			<g>
				<path class="st3" d="M143.08,147.42c-0.03,0-0.07-0.01-0.1-0.03l-6.42-5.09c-0.07-0.05-0.08-0.16-0.03-0.22
					c0.05-0.07,0.16-0.08,0.22-0.03l6.42,5.09c0.07,0.05,0.08,0.16,0.03,0.22C143.18,147.41,143.13,147.42,143.08,147.42z"/>
			</g>
			<g>
				<path class="st3" d="M162.36,142.28c-0.01,0-0.02,0-0.03,0l-21.61-4.11c-0.09-0.02-0.14-0.1-0.13-0.18
					c0.02-0.09,0.1-0.14,0.18-0.13l21.61,4.11c0.09,0.02,0.14,0.1,0.13,0.18C162.49,142.23,162.43,142.28,162.36,142.28z"/>
			</g>
			<g>
				<path class="st3" d="M135.92,163.56c-0.06,0-0.12-0.03-0.15-0.1l-6.65-15.51l-1.93,2.02c-0.04,0.04-0.1,0.06-0.15,0.04
					c-0.05-0.01-0.1-0.05-0.11-0.11l-2.53-8.47c-0.03-0.08,0.02-0.17,0.11-0.2c0.08-0.03,0.17,0.02,0.2,0.11l2.45,8.21l1.91-2
					c0.04-0.04,0.09-0.05,0.14-0.05c0.05,0.01,0.1,0.04,0.12,0.09l6.75,15.73c0.03,0.08,0,0.17-0.08,0.21
					C135.96,163.55,135.94,163.56,135.92,163.56z"/>
			</g>
			<g>
				<path class="st3" d="M136.83,99.68c-0.07,0-0.14-0.05-0.16-0.12c-0.02-0.09,0.03-0.17,0.12-0.19l10.46-2.56
					c0.09-0.02,0.17,0.03,0.19,0.12c0.02,0.09-0.03,0.17-0.12,0.19l-10.46,2.56C136.85,99.68,136.84,99.68,136.83,99.68z"/>
			</g>
		</g>
	</g>
	<g id="_x31_">
		<g>
			<g>
				<defs>
					<path id="SVGID_9_" d="M165.65,102.99c-2.86-13.38-14.31-23.35-29.64-27.79c0.17-2.83-0.33-5.51-1.58-7.91
						c-6.28-12.09-29.11-12.67-50.99-1.3c-10.06,5.23-18.17,12.08-23.38,19.12c-18.15,0.42-33.1,8.62-37.19,22.13
						c-5.65,18.67,11.28,41.58,38.54,48.55c22.12,5.66,42.98,4.52,58.2,0.88C159.58,147.11,170.42,125.36,165.65,102.99z"/>
				</defs>
				<clipPath id="SVGID_10_">
					<use xlink:href="#SVGID_9_"  style="overflow:visible;"/>
				</clipPath>
				<g class="st4">
					<g>
						<path class="st5" d="M116.19,165.23H75.55l3.52-12.89l1.15-4.18c2.8-1.1,7.5-1.88,12.99-2.07c0.87-0.03,1.75-0.05,2.66-0.05
							c6.61,0,12.41,0.85,15.65,2.12l1.14,4.18L116.19,165.23z"/>
						<path class="st5" d="M108.81,193.41c-6.55,1.13-13.77-8.9-16.1-22.41c-0.28-1.59-0.47-3.17-0.59-4.7
							c-0.2-2.57-0.19-5.02,0.01-7.3c0.2-2.27,0.59-4.36,1.16-6.21c0.87-0.02,1.75-0.04,2.66-0.04c6.61,0,12.41,0.6,15.65,1.5
							c0.35,0.1,0.67,0.2,0.96,0.3c0.36,0.73,0.71,1.48,1.02,2.27c1.25,3,2.24,6.41,2.88,10.08
							C118.77,180.4,115.36,192.27,108.81,193.41z"/>
						<path class="st5" d="M100.66,166.36l-0.62,1.17l-1.58,2.98l-14.14,26.7l-4.9,9.25l0.23,3.39l4.06,60.19l-3.26,1.84l-27.7-1.84
							l4.46-66.03c0.14-2.05,0.68-4.04,1.59-5.88l20.43-41.18L100.66,166.36z"/>
						<path class="st6" d="M84.31,197.22l-4.9,9.25l0.23,3.39l-0.04-0.02c-0.41-4.54-0.76-5.78-1.4-6.96
							c1-0.48,3.71-1.12,11.5-20.23c3.22-7.9,2.53-13.44,2.61-13.63l6.15,1.49L84.31,197.22z"/>
						<path class="st6" d="M83.7,270.05c-0.31,1.41-2.68,2.34-6.93,2.74c-2.06,0.18-4.57,0.26-7.5,0.2
							c-1.07-0.02-2.09-0.04-3.06-0.09c-1.62-0.06-3.1-0.13-4.45-0.24c-1.7-0.13-3.17-0.3-4.41-0.51c-2.8-0.47-4.38-1.15-4.6-2.11
							c-0.3-1.36,2.61-2.76,9.66-1.76c1.47,0.21,3.11,0.52,4.95,0.96c2.45,0.58,4.54,0.99,6.33,1.26c0.61,0.1,1.18,0.17,1.71,0.23
							c0.47,0.06,0.91,0.1,1.33,0.13C82.54,271.36,83.7,270.05,83.7,270.05z"/>
						<path class="st6" d="M112.04,279.03l-2.73,0.93c-1.16,0.4-2.42,0.38-3.57-0.04l-2.82-1.05c-1.26-0.47-2.09-1.68-2.07-3.02
							l0.06-3.64c-0.52-1.75,1.18-3.35,2.9-2.72c0,0,8.44,1.2,9.68,2.39l0.69,3.39C114.52,276.89,113.6,278.5,112.04,279.03z"/>
						<path class="st7" d="M107.31,274.56c-4.49-1.99-6.27-3.33-6.27-3.33l11.53,0.06L107.31,274.56z"/>
						<path class="st5" d="M123.8,270.27c0.02,0.05,0.05,0.1,0.05,0.16c0,1.42-6.91,2.57-15.43,2.57c-8.12,0-14.76-1.05-15.37-2.37
							h-0.09l0.81-67.94l-1.81-38.25l25.21,11.01l-0.14,2.88l-0.02,0.43c0,0.07-0.01,0.13-0.01,0.21l-0.05,0.98v0.04l-1.02,20.58
							c-0.09,1.8-0.02,3.6,0.19,5.38l0.53,4.46c0.01,0.02,0.01,0.02,0.01,0.03l7.19,59.83L123.8,270.27z"/>
						<g>
							<path class="st6" d="M93.29,192.62c-0.06,0-0.12-0.05-0.12-0.11c-0.31-7.53-0.98-21.98-1.32-22.79
								c-0.41-0.99-2.52-2.12-2.54-2.13c-0.06-0.03-0.08-0.1-0.05-0.16c0.03-0.06,0.1-0.08,0.16-0.05c0.09,0.05,2.21,1.18,2.65,2.25
								c0.44,1.05,1.3,21.98,1.34,22.87C93.41,192.56,93.36,192.61,93.29,192.62C93.29,192.62,93.29,192.62,93.29,192.62z"/>
						</g>
						<g>
							<path class="st6" d="M91.04,159.4c-0.06,0-0.12-0.05-0.12-0.12c-0.03-1.08-0.05-2.39-0.07-3.77
								c-0.03-3.29-0.01-7.01,0.03-9.26c0-0.06,0.05-0.12,0.12-0.12c0,0,0,0,0,0c0.07,0,0.12,0.05,0.12,0.12
								c-0.04,2.24-0.06,5.97-0.03,9.25c0.02,1.38,0.04,2.68,0.07,3.77C91.16,159.34,91.11,159.4,91.04,159.4
								C91.04,159.4,91.04,159.4,91.04,159.4z"/>
						</g>
						<g>
							<path class="st6" d="M84.64,154.17C84.64,154.17,84.64,154.17,84.64,154.17l-5.79-0.37c-0.07,0-0.11-0.06-0.11-0.13
								s0.06-0.12,0.13-0.11l5.68,0.36l0.96-5.93c0.01-0.07,0.07-0.11,0.14-0.1c0.06,0.01,0.11,0.07,0.1,0.14l-0.98,6.04
								C84.75,154.13,84.7,154.17,84.64,154.17z"/>
						</g>
						<g>
							<path class="st6" d="M103.91,154.4c-0.05,0-0.1-0.04-0.11-0.09l-1.86-7.36c-0.02-0.06,0.02-0.13,0.09-0.15
								c0.07-0.02,0.13,0.02,0.15,0.09l1.83,7.27c2.55-0.16,8.87-0.55,9.1-0.59c0.07-0.01,0.13,0.03,0.14,0.1
								c0.01,0.06-0.03,0.13-0.1,0.14C112.86,153.85,104.28,154.37,103.91,154.4C103.91,154.4,103.91,154.4,103.91,154.4z"/>
						</g>
						<g>
							<path class="st6" d="M80.01,215.43c-0.06,0-0.11-0.05-0.12-0.11c-0.15-2.21-0.28-4-0.41-5.46c-0.4-4.45-0.75-5.73-1.39-6.92
								c-0.08-0.17-0.17-0.32-0.26-0.48c-0.03-0.06-0.02-0.13,0.04-0.16c0.06-0.03,0.13-0.02,0.16,0.04
								c0.09,0.15,0.18,0.31,0.27,0.49c0.65,1.21,1.01,2.51,1.41,7.01c0.13,1.46,0.26,3.25,0.41,5.47
								C80.13,215.37,80.08,215.43,80.01,215.43C80.01,215.43,80.01,215.43,80.01,215.43z"/>
						</g>
						<g>
							<path class="st6" d="M62.92,201.65c-0.02,0-0.03,0-0.05-0.01c-2.68-1.21-3.97-1.17-4.58-0.91c-0.38,0.16-0.47,0.38-0.48,0.39
								c-0.02,0.06-0.09,0.09-0.15,0.07c-0.06-0.02-0.09-0.09-0.07-0.15c0-0.01,0.12-0.32,0.59-0.52c0.66-0.28,2.02-0.34,4.79,0.91
								c0.06,0.03,0.09,0.1,0.06,0.16C63.01,201.62,62.96,201.65,62.92,201.65z"/>
						</g>
						<g>
							<path class="st6" d="M108.3,201.65c-0.02,0-0.03,0-0.05-0.01c-4.51-2.05-7.34-0.03-7.36-0.01c-0.05,0.04-0.13,0.03-0.17-0.03
								s-0.03-0.13,0.03-0.17c0.03-0.02,2.96-2.12,7.6-0.01c0.06,0.03,0.09,0.1,0.06,0.16C108.39,201.62,108.35,201.65,108.3,201.65
								z"/>
						</g>
						<path class="st6" d="M115.93,200.56c-0.09,1.8-0.02,3.6,0.19,5.38l0.53,4.46c-0.16-0.53-2.65-6.14-1.96-12.37
							c0.64-5.8,1.92-13.09,2.26-18.05L115.93,200.56z"/>
						<g>
							<path class="st6" d="M55,236.74C55,236.74,55,236.74,55,236.74c-0.08,0-0.12-0.06-0.12-0.13c0.5-7.45,5.22-18.49,6.05-19.04
								c0.05-0.03,0.13-0.02,0.17,0.03s0.02,0.13-0.03,0.17c-0.66,0.44-5.42,11.16-5.94,18.86C55.12,236.69,55.07,236.74,55,236.74z
								"/>
						</g>
						<g>
							<path class="st6" d="M83.12,261.52c-0.06,0-0.11-0.04-0.12-0.1c-0.82-7.3-5.46-15.4-7.95-19.75
								c-1.07-1.87-1.54-2.71-1.5-2.98c0.01-0.07,0.07-0.11,0.13-0.1c0.07,0.01,0.11,0.07,0.1,0.13c-0.03,0.21,0.67,1.42,1.47,2.83
								c2.5,4.37,7.16,12.49,7.98,19.85c0.01,0.07-0.04,0.12-0.1,0.13C83.13,261.52,83.13,261.52,83.12,261.52z"/>
						</g>
						<g>
							<path class="st6" d="M93.59,217.79C93.59,217.79,93.59,217.79,93.59,217.79c-0.07,0-0.12-0.05-0.12-0.12
								c0.1-8.91,3.69-18.3,4.9-19.55c0.04-0.05,0.12-0.05,0.17,0s0.05,0.12,0,0.17c-1.2,1.23-4.72,10.53-4.83,19.38
								C93.71,217.73,93.65,217.79,93.59,217.79z"/>
						</g>
						<g>
							<path class="st6" d="M120.34,241.16c-0.05,0-0.1-0.04-0.12-0.09c-1.41-5.91-8.22-17.17-8.77-17.85
								c-0.04-0.05-0.03-0.13,0.02-0.17s0.13-0.03,0.17,0.02c0.54,0.68,7.4,12,8.81,17.94c0.02,0.06-0.03,0.13-0.09,0.14
								C120.36,241.16,120.35,241.16,120.34,241.16z"/>
						</g>
						<g>
							<path class="st6" d="M65.75,184.24c-0.02,0-0.04,0-0.05-0.01c-0.06-0.03-0.08-0.1-0.05-0.16c0.03-0.05,2.72-5.19,9.32-7.53
								c0.06-0.02,0.13,0.01,0.15,0.07c0.02,0.06-0.01,0.13-0.07,0.15c-6.51,2.31-9.16,7.36-9.19,7.41
								C65.84,184.21,65.8,184.24,65.75,184.24z"/>
						</g>
						<g>
							<path class="st6" d="M116.95,177.29c-0.06,0-0.11-0.04-0.12-0.1c-0.52-3.1-2.81-4.87-4.18-5.93
								c-0.61-0.47-1.04-0.81-1.15-1.11c-0.02-0.06,0.01-0.13,0.07-0.15c0.06-0.02,0.13,0.01,0.15,0.07c0.08,0.24,0.52,0.57,1.07,1
								c1.4,1.08,3.73,2.89,4.27,6.08c0.01,0.06-0.03,0.13-0.1,0.14C116.96,177.29,116.96,177.29,116.95,177.29z"/>
						</g>
						<g>
							<path class="st6" d="M75.97,163.49c-0.03,0-0.05-0.01-0.08-0.03c-0.05-0.04-0.06-0.12-0.02-0.17
								c0.03-0.04,3.16-3.83,9.13-3.56c0.07,0,0.12,0.06,0.11,0.12c0,0.07-0.06,0.12-0.12,0.11c-5.85-0.28-8.9,3.43-8.93,3.47
								C76.04,163.48,76.01,163.49,75.97,163.49z"/>
						</g>
						<path class="st7" d="M75.39,270.74c-1.68,0.44-5.24,1.37-9.17,2.16c-3.96,0.8-8.37,1.46-11.55,1.31c0,0,1.14-0.87,2.68-2.05
							c1.52-1.16,3.44-2.63,5.05-3.86c1.47,0.21,3.11,0.52,4.95,0.96C70.62,270.03,73.26,270.49,75.39,270.74z"/>
						<path class="st6" d="M67.03,278.1v-2.53l-7.74,2.53H46.91c-1.2,0-2.38-0.3-3.44-0.87c-0.59-0.33-0.44-1.22,0.23-1.33
							l18.06-3.25l11.91-2.15c0.61,0.1,1.18,0.17,1.71,0.23c0.47,0.06,0.91,0.1,1.33,0.13l0.05,1.91l0.13,5.32L67.03,278.1
							L67.03,278.1z"/>
					</g>
					<path class="st8" d="M69.8,136.52c-3.77,3.05-12.48,4.69-14.32,0.87l4.14-0.47c-1.37-0.7-5.38-2.79-1.07-7.16l21.34-22.11
						c2.97-2.12,7.83,1.8,10.76,3.96l2.8,2.41L69.8,136.52z"/>
					<path class="st8" d="M108.49,107.1l-0.56,16.45l-0.52,9.39c-0.27,4.87-2.41,3.31-0.09,7.6c2.61,4.84,9.11,6.43,11.61,1.57
						c0.46-0.9,0.68-1.9,0.72-2.9l1.02-22.82c0-0.01,0-0.02-0.01-0.03l-0.07-1.01c-0.05-0.76-0.21-1.49-0.45-2.18
						c-0.7-2-2.91-4.51-4.86-5.34c-1.4-0.6-4.49-1.05-4.49-1.05L108.49,107.1z"/>
					<path class="st9" d="M112.68,127.27c-0.23,6.18-0.45,12.38-0.68,18.6c-0.01,0.2,0.13,0.36,0.34,0.51
						c0.79,0.57,0.5,1.82-0.45,2.02c-3.79,0.8-10.26,1.55-15.88,1.55c-5.68,0-12.1-0.84-15.82-1.67c-0.9-0.2-1.14-1.35-0.42-1.93
						c0.15-0.12,0.25-0.26,0.24-0.44c-0.1-2.56-0.19-5.1-0.28-7.64c-0.07-1.74-0.13-3.49-0.19-5.24c-0.11-3.16-0.23-6.32-0.34-9.47
						c1.43-1.8,1.91-7.9,1.02-15.01c-0.07-0.54-0.14-1.06-0.22-1.59c2.16-0.39,4.33-0.7,6.52-0.92h0
						c1.65,2.54,9.19,14.04,9.73,14.08c0.54,0.05,7.51-11.58,9.02-14.1c2.58,0.25,5.14,0.63,7.69,1.11
						c-0.64,1.95-1.19,4.27-1.55,6.8C110.48,120.42,111.06,125.98,112.68,127.27z"/>
					<path class="st8" d="M105.27,106.04c-1.5,2.52-8.48,14.14-9.02,14.1c-0.54-0.04-8.08-11.54-9.73-14.08
						c0.69-0.08,1.39-0.14,2.09-0.2c2.09-0.17,4.19-0.27,6.29-0.3h2.18c0.7,0.01,1.39,0.03,2.09,0.05c0.67,0.03,1.34,0.05,2.01,0.09
						c1.02,0.06,2.04,0.13,3.07,0.23C104.6,105.97,104.93,106,105.27,106.04z"/>
					<path class="st8" d="M86.53,106.05c0.7-0.07,1.39-0.14,2.09-0.19C87.92,105.91,87.22,105.98,86.53,106.05L86.53,106.05
						L86.53,106.05z"/>
					<path class="st8" d="M105.28,106.03C105.28,106.03,105.28,106.04,105.28,106.03c-0.34-0.03-0.68-0.07-1.02-0.1
						C104.6,105.96,104.94,106,105.28,106.03z"/>
					<path class="st10" d="M84.98,135.79c-1.18,1.12-2.88,2.35-4.92,2.64c-0.12,0.02-0.23,0.03-0.33,0.03
						c-0.04-1.21-0.09-2.41-0.14-3.61c1.4,0.82,3.19,1.17,5,0.98C84.73,135.82,84.86,135.81,84.98,135.79z"/>
					<path class="st10" d="M107.65,137.5c-4.07,0.92-8.04-1.47-9.2-2.5c2.16,1.08,5.14,1.16,7.82-0.07c0.85-0.39,1.26-0.85,1.41-1.4
						C109.24,134.86,110.77,136.8,107.65,137.5z"/>
					<path class="st11" d="M109.92,109.3c-2.31,1.13-5.88-1.43-7.98-5.72c-0.43-0.87-0.76-1.74-1-2.6h-7.78
						c-0.23,0.88-0.56,1.77-0.99,2.66c-2.1,4.29-5.83,6.77-8.32,5.55c-2.5-1.22-2.82-5.69-0.72-9.98c0.01-0.02,0.02-0.03,0.03-0.05
						c1.98-3.99,3.1-8.35,3.1-12.81v-1.19c0.74-7.71,5.7-10.24,9.39-10.81c6.25-0.98,10.65,4.27,11.1,9.87
						c0.03,0.31,0.04,0.63,0.04,0.94v1.17c0,4.44,1.19,8.76,3.27,12.68c0.08,0.16,0.17,0.32,0.24,0.48
						C112.4,103.78,112.23,108.17,109.92,109.3z"/>
					<path class="st9" d="M107.69,133.53c-0.14,0.55-0.56,1.02-1.41,1.4c-2.69,1.23-5.66,1.15-7.82,0.07c0,0,0,0,0,0
						c-1.95-0.98-3.23-2.79-3.01-5.18c0.44-4.97,3.68-9.98,5.96-10.12c2.33-0.22,3.74,3.68,4.48,7.42
						C106.41,129.9,108.08,132.02,107.69,133.53z"/>
					<path class="st9" d="M84.98,135.79c-0.12,0.02-0.25,0.03-0.38,0.04c-1.81,0.18-3.6-0.16-5-0.98c-2.04-1.19-3.26-3.37-2.61-6.39
						c1.06-5.05,5.59-9.32,8.43-8.78c2.91,0.46,4.23,4.94,4.76,9.06C90.63,132.76,89.16,135.25,84.98,135.79z"/>
					<g>
						<path class="st12" d="M110.69,136.14c-1.82,0-6.07-0.95-8.62-5.05c-0.03-0.06-0.02-0.13,0.04-0.17
							c0.05-0.03,0.13-0.02,0.17,0.04c2.53,4.08,6.58,4.78,7.76,4.9c0.86,0.09,1.33-0.01,1.4-0.08c0.01-0.07,0.06-0.1,0.13-0.09
							c0.07,0.01,0.1,0.08,0.1,0.15c-0.02,0.17-0.27,0.22-0.35,0.24C111.16,136.12,110.95,136.14,110.69,136.14z"/>
					</g>
					<g>
						<path class="st12" d="M120.26,125.49c-0.06,0-0.11-0.04-0.12-0.11c-0.32-3.16-2.68-6.72-2.71-6.75
							c-0.04-0.05-0.02-0.13,0.03-0.17c0.05-0.04,0.13-0.02,0.17,0.03c0.03,0.03,2.42,3.64,2.75,6.87c0.01,0.07-0.04,0.12-0.11,0.13
							C120.27,125.49,120.27,125.49,120.26,125.49z"/>
					</g>
					<path class="st10" d="M109.24,110.2l-9.5-0.53c0,0,1.88-2.58,2.05-2.59C101.96,107.06,109.24,110.2,109.24,110.2z"/>
					<path class="st8" d="M109.24,110.2c0.2,0.07-7.42-7.83-7.42-7.83l-1.38,6.5C100.44,108.87,102.5,107.91,109.24,110.2z"/>
					<path class="st10" d="M83.84,110.2l9.5-0.53c0,0-1.88-2.58-2.05-2.59C91.13,107.06,83.84,110.2,83.84,110.2z"/>
					<path class="st8" d="M83.84,110.2c-0.2,0.07,7.42-7.83,7.42-7.83l1.38,6.5C92.65,108.87,90.59,107.91,83.84,110.2z"/>
					<path class="st8" d="M118.97,135.31c1.14,4.33-0.11,7.63-1.44,8.57c-1.86,1.32-5.95,2.69-10.22-3.34
						c-6.11-9.47-8.16-17.18-12.27-26.59c-0.04-0.1-0.09-0.21-0.14-0.32c0.07-0.42,0.71-1.12,1.69-1.93
						c0.81-0.66,1.86-1.38,3.03-2.07c1.43-0.84,2.74-1.44,3.71-1.74c0.42-0.08,0.85-0.15,1.29-0.2c0.01,0,0.01,0,0.01,0
						c0.03-0.01,0.06-0.01,0.09-0.02c0.01,0.02,0.02,0.04,0.03,0.05c0.06,0.1,0.12,0.2,0.17,0.3
						C110.09,116.57,118.47,130.67,118.97,135.31z"/>
					<g>
						<path class="st12" d="M99.06,118.44c-0.38,0-0.73-0.05-1.06-0.15c-1.16-0.35-1.57-1.2-1.58-1.24c-0.03-0.06,0-0.13,0.06-0.16
							c0.06-0.03,0.13,0,0.16,0.06c0,0.01,0.39,0.79,1.44,1.12c1.27,0.38,2.94-0.03,4.95-1.24c5.06-3.03,3.82-5.34,3.81-5.37
							c-0.03-0.06-0.01-0.13,0.04-0.16c0.06-0.03,0.13-0.01,0.16,0.04c0.06,0.1,1.36,2.54-3.89,5.69
							C101.58,117.97,100.21,118.44,99.06,118.44z"/>
					</g>
					<path class="st10" d="M104.97,108.03c-0.01,0.21-0.21,0.52-0.52,0.88c-0.01,0.01-0.01,0.01-0.01,0.02
						c-0.27,0.3-0.64,0.63-1.07,0.98c-0.82,0.68-1.92,1.44-3.13,2.14c-0.98,0.57-1.9,1.04-2.69,1.37c-0.14,0.05-0.28,0.12-0.42,0.17
						c-0.09,0.03-0.17,0.07-0.26,0.09c-0.88,0.31-1.54,0.42-1.81,0.26c-0.08-0.04-0.12-0.09-0.14-0.17
						c-0.01-0.04-0.01-0.09-0.01-0.15c0.05-0.35,0.5-0.88,1.2-1.51c0.06-0.05,0.12-0.1,0.18-0.16c0.1-0.09,0.2-0.17,0.31-0.26
						c0.81-0.66,1.86-1.38,3.03-2.06c0.95-0.56,1.85-1.01,2.63-1.33c0.4-0.17,0.76-0.31,1.09-0.41c0.07-0.02,0.14-0.05,0.21-0.07
						c0.18-0.05,0.35-0.09,0.5-0.11c0.24-0.04,0.44-0.05,0.58-0.03c0.01,0,0.01,0,0.01,0c0.05,0.01,0.09,0.02,0.12,0.04
						c0.1,0.04,0.15,0.1,0.17,0.19C104.97,107.95,104.97,107.99,104.97,108.03z"/>
					<path class="st13" d="M102.13,92.91v13.55c0,1.74-0.76,3.38-2.08,4.51l-3.42,2.92l-3.29-3.41c-1.42-1.46-2.21-3.43-2.21-5.47
						v-12.1L102.13,92.91L102.13,92.91z"/>
					<path class="st10" d="M102.13,92.43v5.21c-1.29,1.36-3.16,3.89-5.24,3.89h-0.33c-2.21,0-4.18-2.37-5.44-3.9v-5.2L102.13,92.43
						L102.13,92.43z"/>
					<path class="st13" d="M89.66,89.38v4.85c0,3.6,3.09,6.51,6.9,6.51h0.33c3.89,0,7.04-2.98,7.04-6.65v-3.7l-0.13-4.88
						c-4.46-1.79-7.47-6.57-7.47-6.57s-2.24,4.11-7.11,6.57L89.66,89.38z"/>
					<path class="st13" d="M88.18,91.59c0.51,1.33,1.78,2.08,2.83,1.68c1.05-0.4,1.49-1.81,0.98-3.15
						c-0.51-1.33-1.78-2.08-2.83-1.68C88.1,88.85,87.67,90.26,88.18,91.59z"/>
					<path class="st13" d="M105.06,91.5c-0.51,1.33-1.78,2.08-2.83,1.68c-1.05-0.4-1.49-1.81-0.98-3.15
						c0.51-1.33,1.78-2.08,2.83-1.68C105.13,88.76,105.57,90.17,105.06,91.5z"/>
					<path class="st14" d="M93.98,94.73l1.82-0.81c0.24-0.11,0.51-0.17,0.78-0.17l0,0c0.29,0,0.57,0.06,0.83,0.19l1.66,0.8
						c0,0-0.44,2.16-2.37,2.37C95.12,97.29,93.98,94.73,93.98,94.73z"/>
					<g>
						<path class="st10" d="M94.9,87.79c-0.05,0-0.1-0.03-0.11-0.08c-0.19-0.51-0.44-1-1.23-1l0,0c-1.09,0-1.86,1.02-1.86,1.03
							c-0.04,0.05-0.11,0.06-0.17,0.03c-0.05-0.04-0.06-0.11-0.03-0.17c0.03-0.05,0.85-1.13,2.06-1.13l0,0
							c1.02,0,1.3,0.75,1.45,1.16c0.02,0.06-0.01,0.13-0.07,0.15C94.92,87.79,94.91,87.79,94.9,87.79z"/>
					</g>
					<path class="st10" d="M92.53,88.16c0,0.5,0.37,0.9,0.81,0.9c0.45,0,0.81-0.4,0.81-0.9s-0.37-0.9-0.81-0.9
						C92.9,87.26,92.53,87.66,92.53,88.16z"/>
					<g>
						<path class="st15" d="M96.64,93.19c-0.21,0-0.41-0.03-0.61-0.1l-0.63-0.22c-0.06-0.02-0.1-0.09-0.07-0.15
							c0.02-0.06,0.09-0.1,0.15-0.07l0.63,0.22c0.31,0.11,0.65,0.12,0.97,0.03c0.58-0.16,0.68-0.2,0.69-0.2
							c0.06-0.03,0.13,0,0.16,0.06c0.03,0.06,0,0.13-0.06,0.16c-0.02,0.01-0.08,0.03-0.73,0.22C96.98,93.17,96.81,93.19,96.64,93.19
							z"/>
					</g>
					<g>
						<path class="st10" d="M98.52,88.27c-0.03,0-0.07-0.02-0.09-0.04c-0.04-0.05-0.03-0.13,0.02-0.17c0.54-0.45,0.94-0.71,1.51-0.8
							c1.64-0.26,2.06,0.84,2.06,0.85c0.02,0.06-0.01,0.13-0.07,0.15s-0.13-0.01-0.15-0.07c-0.01-0.04-0.36-0.92-1.8-0.7
							c-0.51,0.08-0.87,0.31-1.39,0.75C98.57,88.27,98.55,88.27,98.52,88.27z"/>
					</g>
					<path class="st10" d="M100.97,88.42c0,0.33-0.22,0.51-0.3,0.57c-0.28,0-0.75-0.04-1.17-0.04c-0.1-0.15-0.16-0.33-0.16-0.52
						c0-0.5,0.37-0.9,0.82-0.9C100.61,87.52,100.97,87.93,100.97,88.42z"/>
					<path class="st10" d="M98.02,86.43c0.33-0.41,0.73-0.67,1.17-0.87c0.44-0.2,0.91-0.31,1.39-0.35c0.47-0.05,0.99,0,1.44,0.19
						c0.23,0.1,0.44,0.22,0.63,0.38c0.09,0.08,0.18,0.17,0.25,0.27c0.04,0.05,0.07,0.1,0.1,0.16c0.02,0.03,0.03,0.05,0.04,0.12
						c0,0.01-0.01,0.07-0.03,0.09c-0.02,0.01-0.04,0.02-0.06,0.02c-0.03,0-0.02,0-0.03,0c-0.03-0.01-0.03-0.02-0.04-0.03
						c-0.02-0.02-0.03-0.03-0.04-0.04c-0.03-0.03-0.03-0.07,0-0.1c0.02-0.02,0.05-0.02,0.07-0.02l0.02,0.01
						c0.01,0,0.02,0.01,0.03,0.01c0.01,0,0.01,0,0-0.01c-0.01,0,0.01,0-0.02,0c-0.02,0-0.04,0.01-0.05,0.02
						c-0.02,0.01-0.03,0.06-0.03,0.07c0,0.02-0.02-0.01-0.04-0.02c-0.03-0.03-0.08-0.06-0.12-0.09c-0.09-0.06-0.18-0.1-0.27-0.15
						c-0.19-0.09-0.38-0.15-0.58-0.19c-0.4-0.09-0.79-0.08-1.21-0.03c-0.41,0.05-0.82,0.16-1.2,0.3c-0.38,0.14-0.77,0.35-1.06,0.58
						l-0.03,0.02c-0.11,0.08-0.26,0.06-0.34-0.04C97.94,86.64,97.95,86.52,98.02,86.43z"/>
					<g>
						<path class="st13" d="M94.05,96.8c0.49,0.8,1,1.58,1.59,2.31c0.58,0.74,2.37,2.84,3.9,4.08c0.35,0.55-0.05,1.86-0.6,2.21
							c-0.52,0.33-1.21,0.21-1.58-0.28l-0.01-0.01l-1.74-2.29c-0.59-0.78-1.19-1.6-1.73-2.48c-0.53-0.88-1.04-1.8-1.4-2.77
							c-0.38-0.96-0.67-1.96-0.85-2.96c-0.06-0.32,0.53-0.68,1.36,0.28C93.34,95.3,93.57,96,94.05,96.8z"/>
						<path class="st13" d="M94.62,104.23c-0.84-1.21-1.62-2.45-2.4-3.7l-0.29-0.47l-0.14-0.24c-0.06-0.11-0.12-0.22-0.17-0.33
							c-0.19-0.42-0.29-0.82-0.35-1.22c-0.13-0.8-0.14-1.55-0.07-2.33c0.02-0.26,0.26-0.46,0.52-0.44c0.23,0.02,0.41,0.2,0.44,0.42
							l0,0.03c0.08,0.68,0.2,1.39,0.4,2.02c0.1,0.31,0.22,0.61,0.37,0.85l0.1,0.15l0.18,0.21l0.36,0.42
							c0.93,1.13,1.86,2.25,2.74,3.42c0.34,0.45,0.25,1.1-0.21,1.44s-1.1,0.25-1.44-0.21C94.63,104.26,94.62,104.24,94.62,104.23z"
							/>
						<path class="st13" d="M91.36,96.9c0.21,0.68,0.37,1.35,0.49,2.03c0.03,0.17,0.06,0.34,0.09,0.51l0.04,0.25
							c0.01,0.06,0.03,0.1,0.04,0.16c0.06,0.2,0.17,0.38,0.29,0.54c0.06,0.08,0.13,0.15,0.21,0.22c0.13,0.11,0.25,0.23,0.37,0.35
							c0.25,0.24,0.5,0.48,0.73,0.72c0.48,0.49,0.95,0.99,1.38,1.53c0.36,0.45,0.28,1.1-0.17,1.46c-0.39,0.31-0.94,0.29-1.31-0.02
							c-0.53-0.44-1.02-0.92-1.5-1.42c-0.24-0.24-0.47-0.5-0.7-0.75c-0.12-0.12-0.23-0.25-0.34-0.38c-0.16-0.18-0.31-0.38-0.43-0.59
							c-0.25-0.42-0.38-0.9-0.43-1.37c-0.01-0.12-0.01-0.24-0.01-0.35l0.02-0.26c0.01-0.17,0.02-0.34,0.03-0.52
							c0.05-0.69,0.13-1.38,0.28-2.07c0.05-0.26,0.3-0.42,0.56-0.37C91.17,96.61,91.31,96.74,91.36,96.9z"/>
						<path class="st13" d="M91.13,100.22c0.1,0.51,0.16,1.03,0.23,1.49c0.02,0.13,0.04,0.18,0.06,0.26c0.03,0.07,0.06,0.14,0.1,0.2
							c0.06,0.13,0.16,0.24,0.25,0.33l0.2,0.19c0.1,0.09,0.19,0.18,0.28,0.27c0.18,0.18,0.36,0.37,0.53,0.56
							c0.35,0.38,0.68,0.77,0.97,1.19c0.32,0.47,0.2,1.12-0.27,1.45c-0.39,0.27-0.91,0.23-1.25-0.06c-0.4-0.33-0.76-0.7-1.1-1.08
							c-0.17-0.19-0.34-0.38-0.5-0.58c-0.08-0.1-0.17-0.2-0.24-0.3l-0.13-0.17c-0.06-0.07-0.11-0.15-0.17-0.23
							c-0.21-0.31-0.35-0.67-0.43-1.04c-0.04-0.18-0.05-0.37-0.05-0.56c0-0.18,0.02-0.39,0.05-0.51c0.12-0.56,0.29-1.06,0.55-1.57
							c0.12-0.24,0.41-0.33,0.65-0.21c0.14,0.07,0.23,0.19,0.25,0.33L91.13,100.22z"/>
						<path class="st13" d="M101.55,99.23c-0.04,0.79,0.01,1.58,0.06,2.37c0.07,0.97-0.02,1.96-0.39,2.86
							c-0.39,0.97-1.42,2.22-2.4,1.02c-1.42-1.75-0.82-4.23-0.11-6.15c0.17-0.47,0.37-0.93,0.57-1.39c0.33-0.74,0.67-1.46,1.12-2.15
							c0.49-0.75,1.03-0.85,1.33-0.66C101.92,95.25,101.65,97.12,101.55,99.23z"/>
						<g>
							<path class="st15" d="M96.11,102.81c-0.03,0-0.05-0.01-0.08-0.03c-3.6-2.94-4.62-8.32-4.63-8.38
								c-0.01-0.04,0.01-0.08,0.03-0.1c0.04-0.04,0.45-0.4,1.37,0.4c0.31,0.27,0.56,0.74,0.85,1.27c0.28,0.53,0.61,1.13,1.07,1.72
								l3.17,3.78c0.04,0.05,0.03,0.13-0.02,0.17c-0.05,0.04-0.12,0.03-0.17-0.02l-3.18-3.78c-0.48-0.6-0.81-1.21-1.1-1.75
								c-0.28-0.52-0.51-0.96-0.79-1.21c-0.58-0.5-0.88-0.47-1-0.43c0.14,0.68,1.24,5.46,4.53,8.15c0.05,0.04,0.06,0.12,0.02,0.17
								C96.18,102.79,96.15,102.81,96.11,102.81z"/>
						</g>
						<g>
							<path class="st15" d="M94.82,103.86c-0.03,0-0.05-0.01-0.07-0.03c-0.05-0.03-1.16-0.89-2.77-3.04
								c-0.41-0.51-0.65-1.2-0.76-2.16l-0.47-3.07c-0.01-0.06,0.03-0.13,0.1-0.14s0.13,0.03,0.14,0.1l0.47,3.07
								c0.1,0.91,0.33,1.57,0.69,2.02c0,0,0.02,0.03,0.02,0.03c1.59,2.13,2.71,2.99,2.72,3c0.05,0.04,0.06,0.11,0.02,0.17
								C94.9,103.84,94.86,103.86,94.82,103.86z"/>
						</g>
						<g>
							<path class="st15" d="M93.07,104.63c-0.03,0-0.06-0.01-0.09-0.04c-0.1-0.11-2.57-2.72-2.83-4.03
								c-0.03-0.12-0.02-0.24-0.01-0.35c0.04-0.63,0.21-2.96,0.23-3.4c0.02-0.29,0.19-0.33,0.26-0.34c0.24-0.01,0.55,0.31,0.59,0.53
								c0.01,0.06-0.03,0.13-0.1,0.14c-0.06,0.01-0.13-0.03-0.14-0.1c-0.02-0.12-0.24-0.35-0.34-0.33c-0.02,0-0.03,0.06-0.04,0.11
								c-0.03,0.43-0.19,2.77-0.23,3.4c-0.01,0.09-0.01,0.19,0.01,0.28c0.25,1.24,2.75,3.88,2.77,3.91c0.04,0.05,0.04,0.12,0,0.17
								C93.13,104.62,93.1,104.63,93.07,104.63z"/>
						</g>
						<g>
							<path class="st15" d="M91.93,96.1c-0.04,0-0.08-0.02-0.1-0.06c-0.32-0.54-0.79-0.48-0.81-0.48c-0.07,0.01-0.12-0.03-0.13-0.1
								c-0.01-0.06,0.03-0.12,0.1-0.13c0.03,0,0.64-0.09,1.05,0.59c0.03,0.06,0.02,0.13-0.04,0.16
								C91.97,96.09,91.95,96.1,91.93,96.1z"/>
						</g>
						<path class="st13" d="M99.07,110.03l-2.03,2.2l-5.41-6.92l4.43-1.89l5.52-0.36l0,0C101.71,105.63,100.81,108.14,99.07,110.03z
							"/>
					</g>
					<path class="st13" d="M103.36,109.91c-0.82,0.68-1.92,1.44-3.13,2.14c-0.98,0.57-1.9,1.04-2.69,1.37
						c-0.14,0.05-0.28,0.12-0.42,0.17c-0.09,0.03-0.17,0.07-0.26,0.09l-0.75-1.56l-2.04-4.23l5.67-3.28l2.52,3.7L103.36,109.91z"/>
					<g>
						<path class="st15" d="M96.87,113.8c-0.04,0-0.09-0.03-0.11-0.07l-2.18-4.52l-3.55-4.12c-0.04-0.05-0.04-0.12,0.01-0.17
							c0.05-0.04,0.12-0.04,0.17,0.01l3.56,4.13c0.01,0.01,0.01,0.02,0.02,0.03l2.19,4.54c0.03,0.06,0,0.13-0.05,0.16
							C96.9,113.8,96.89,113.8,96.87,113.8z"/>
					</g>
					<g>
						<path class="st15" d="M101,106.98L101,106.98c-0.07,0-0.12-0.05-0.12-0.12c0-0.02,0.02-2.27,0.13-4.5
							c0.14-2.8,0.52-6.44,0.6-7.13c-0.01,0-0.02,0-0.03,0c-1.34,0-3.08,4.78-3.65,6.68c-0.02,0.06-0.09,0.1-0.15,0.08
							s-0.1-0.09-0.08-0.15c0.23-0.75,2.25-7.28,4.06-6.83c0.06,0.01,0.1,0.07,0.09,0.13c0,0.04-0.45,4.15-0.61,7.23
							c-0.11,2.22-0.13,4.47-0.13,4.49C101.12,106.93,101.07,106.98,101,106.98z"/>
					</g>
					<g>
						<path class="st15" d="M103.36,110.03c-0.04,0-0.08-0.02-0.1-0.06l-2.23-3.63c-0.03-0.06-0.02-0.13,0.04-0.17
							c0.05-0.03,0.13-0.02,0.17,0.04l2.23,3.63c0.03,0.06,0.02,0.13-0.04,0.17C103.41,110.02,103.39,110.03,103.36,110.03z"/>
					</g>
					<g>
						<path class="st12" d="M118.63,133.99c-0.05,0-0.1-0.03-0.11-0.09c-1.23-4.19-5.47-11.86-7.89-16.05
							c-0.09-0.15-0.14-0.24-0.16-0.28c-0.03-0.06-0.01-0.13,0.05-0.16c0.06-0.03,0.13-0.01,0.16,0.05
							c0.02,0.03,0.07,0.13,0.16,0.27c2.42,4.21,6.68,11.89,7.92,16.1c0.02,0.06-0.02,0.13-0.08,0.15
							C118.65,133.99,118.64,133.99,118.63,133.99z"/>
					</g>
					<g>
						<path class="st12" d="M106.25,138.94c-0.05,0-0.09-0.03-0.11-0.07c-1.36-3.35-1.72-9.8-1.43-10.24
							c0.03-0.05,0.11-0.07,0.17-0.03c0.05,0.03,0.07,0.11,0.03,0.17c-0.22,0.37,0.08,6.65,1.45,10.02c0.03,0.06,0,0.13-0.07,0.16
							C106.28,138.94,106.26,138.94,106.25,138.94z"/>
					</g>
					<g>
						<path class="st12" d="M114.23,144.98c-0.09,0-0.18,0-0.27-0.01c-0.07-0.01-0.11-0.06-0.11-0.13c0.01-0.07,0.06-0.11,0.13-0.11
							c0.64,0.06,1.21-0.12,1.62-0.53c0.6-0.59,0.85-1.64,0.73-2.95c-0.01-0.07,0.04-0.12,0.11-0.13c0.07-0.01,0.12,0.04,0.13,0.11
							c0.13,1.38-0.15,2.5-0.8,3.14C115.36,144.78,114.84,144.98,114.23,144.98z"/>
					</g>
					<g>
						<path class="st12" d="M99.27,124.48c-0.05,0-0.09-0.03-0.11-0.07l-4.22-10.41c-0.03-0.06,0-0.13,0.07-0.16
							c0.06-0.03,0.13,0.01,0.16,0.07l4.22,10.41c0.03,0.06,0,0.13-0.07,0.16C99.3,124.47,99.28,124.48,99.27,124.48z"/>
					</g>
					<g>
						<path class="st12" d="M114.22,124.22c-0.04,0-0.08-0.02-0.1-0.06c-1.72-3.28-5.24-4.54-6.4-4.96
							c-0.31-0.11-0.4-0.14-0.44-0.19c-0.04-0.05-0.04-0.12,0.01-0.17c0.04-0.04,0.11-0.04,0.16,0c0.04,0.02,0.19,0.08,0.35,0.13
							c1.18,0.42,4.77,1.71,6.53,5.07c0.03,0.06,0.01,0.13-0.05,0.16C114.26,124.22,114.24,124.22,114.22,124.22z"/>
					</g>
					<path class="st10" d="M98.76,95.06c0,0.4-0.96,1.02-2.14,1.02c-1.19,0-2.14-0.62-2.14-1.02c0-0.4,0.96-0.59,2.14-0.59
						C97.8,94.46,98.76,94.66,98.76,95.06z"/>
					<path class="st11" d="M103.84,87.05c0,0-0.16,2.13-1.05,6.45c-0.98,4.74-0.54,8.37-0.54,8.37l3.6-5.14c0,0-1.97-2.6-2.02-4.85
						c-0.05-2.25,0.48-4.46,0.48-4.46L103.84,87.05z"/>
					<path class="st16" d="M89.23,87.78c-0.09,0.07,0.6,2.06,0.95,3.08c0.03,0.08,0.05,0.15,0.07,0.22c0.31,0.92-0.74-4.7-0.15-5.91
						c0.6-1.21-2.38-0.56-2.38-0.56L89.23,87.78z"/>
					<path class="st10" d="M95.08,83.94c-0.17-0.05-0.4-0.1-0.61-0.11c-0.22-0.02-0.44-0.02-0.66,0c-0.44,0.03-0.89,0.12-1.33,0.24
						c-0.22,0.06-0.44,0.14-0.65,0.21c-0.2,0.08-0.41,0.17-0.6,0.28c-0.38,0.22-0.75,0.5-1.04,0.85l-0.01,0.01
						c-0.03,0.03-0.07,0.03-0.1,0.01c-0.02-0.02-0.03-0.05-0.03-0.07c0.12-0.51,0.47-0.93,0.87-1.25c0.4-0.33,0.9-0.54,1.37-0.69
						c0.48-0.16,0.98-0.25,1.5-0.25c0.26,0,0.52,0.02,0.78,0.07c0.26,0.06,0.5,0.12,0.77,0.29c0.11,0.07,0.15,0.22,0.08,0.33
						c-0.06,0.1-0.17,0.14-0.28,0.1L95.08,83.94z"/>
					
						<ellipse transform="matrix(0.8019 -0.5975 0.5975 0.8019 -30.5646 70.5884)" class="st11" cx="91.16" cy="81.38" rx="7.67" ry="3.1"/>
					<g>
						<path class="st10" d="M86.99,86.73c-2.09,0-2.2-0.89-2.21-0.93c-0.01-0.07,0.04-0.12,0.11-0.13c0.07-0.01,0.12,0.04,0.13,0.1
							c0,0.02,0.15,0.83,2.43,0.7c3.91-0.22,8.32-5.34,8.36-5.39c0.04-0.05,0.12-0.06,0.17-0.01c0.05,0.04,0.06,0.12,0.01,0.17
							c-0.18,0.21-4.51,5.25-8.53,5.47C87.29,86.72,87.14,86.73,86.99,86.73z"/>
					</g>
					<g>
						<path class="st10" d="M105.68,85.76c-1.94,0-3.76-1.07-5.48-2.2c-1.4-0.91-4.23-4.59-4.42-6.32c-0.01-0.07,0.04-0.12,0.1-0.13
							c0.07-0.01,0.12,0.04,0.13,0.1c0.17,1.65,2.98,5.27,4.31,6.15c2,1.31,4.16,2.55,6.43,2.03c0.06-0.02,0.13,0.03,0.14,0.09
							c0.02,0.06-0.03,0.13-0.09,0.14C106.43,85.73,106.05,85.76,105.68,85.76z"/>
					</g>
					<g>
						<path class="st10" d="M106.93,89.11L106.93,89.11c-1.42-0.05-3.14-2.87-3.21-2.99c-0.03-0.06-0.02-0.13,0.04-0.16
							c0.06-0.03,0.13-0.02,0.16,0.04c0.02,0.03,1.72,2.83,3.01,2.88c0.07,0,0.12,0.06,0.11,0.12
							C107.05,89.06,106.99,89.11,106.93,89.11z"/>
					</g>
					<g>
						<path class="st10" d="M85.57,84.3c-0.43,0-0.68-0.05-0.7-0.06c-0.06-0.02-0.1-0.08-0.09-0.14s0.08-0.1,0.14-0.09
							c0.01,0,1.43,0.31,3.44-0.63c1.81-0.85,2.66-2.51,3.47-4.12c0.88-1.74,1.72-3.39,3.7-3.72c0.07-0.01,0.13,0.03,0.14,0.1
							s-0.03,0.13-0.1,0.14c-1.87,0.3-2.68,1.9-3.53,3.59c-0.83,1.65-1.69,3.35-3.58,4.23C87.22,84.18,86.2,84.3,85.57,84.3z"/>
					</g>
					<g>
						<path class="st10" d="M107.6,108.22c-0.04,0-0.09-0.03-0.1-0.07c-0.03-0.06-0.01-0.13,0.05-0.16c0.61-0.31,1-0.84,1.18-1.59
							c0.5-2.16-0.95-6.08-3.44-9.34c-2.46-3.22-1.44-7.7-1.42-7.74c0.03-0.06,0.1-0.09,0.16-0.06c0.06,0.03,0.09,0.09,0.06,0.15
							c-0.02,0.07-0.96,4.43,1.39,7.5c2.1,2.74,4.09,6.9,3.49,9.53c-0.19,0.83-0.63,1.41-1.3,1.75
							C107.64,108.21,107.62,108.22,107.6,108.22z"/>
					</g>
					<path class="st13" d="M79.38,100.43c0.46,1.6,0.72,3.21,0.97,4.82c0.14,0.91,0.29,1.83,0.3,2.76c0.02,1.57-2.13,2.27-2.55,0.59
						c-0.24-0.94-0.39-1.94-0.4-2.9c-0.01-1.64,0.38-3.28,0.59-4.93C78.37,100.14,79.15,99.51,79.38,100.43z"/>
					<g>
						<path class="st10" d="M89.62,89.11c-0.05,0-0.09-0.03-0.11-0.07c-0.19-0.47-0.46-0.77-0.79-0.88c-0.47-0.16-0.93,0.1-0.93,0.1
							c-0.06,0.03-0.13,0.01-0.16-0.04c-0.03-0.06-0.01-0.13,0.04-0.16c0.02-0.01,0.56-0.32,1.13-0.12c0.4,0.14,0.71,0.48,0.93,1.01
							c0.03,0.06,0,0.13-0.07,0.16C89.65,89.11,89.64,89.11,89.62,89.11z"/>
					</g>
					<g>
						<path class="st10" d="M84.79,109.26c-0.03,0-0.05-0.01-0.07-0.03c-0.61-0.49-0.95-1.21-1-2.14c-0.13-2.28,1.52-5.39,3.19-7.08
							c2.29-2.32,2.29-6.17,2.23-6.44c-0.03-0.05-0.02-0.11,0.03-0.15c0.05-0.04,0.12-0.04,0.17,0.01c0.15,0.17,0.1,4.36-2.25,6.74
							c-1.64,1.66-3.25,4.69-3.12,6.9c0.05,0.86,0.36,1.52,0.91,1.97c0.05,0.04,0.06,0.12,0.02,0.17
							C84.85,109.25,84.82,109.26,84.79,109.26z"/>
					</g>
					<g>
						<path class="st10" d="M81.75,104.26c-0.06,0-0.11-0.05-0.12-0.11c-0.09-1.8,0.59-3.43,2.02-4.87
							c1.57-1.56,3.65-2.41,4.06-2.41c0.01,0,0.01,0,0.02,0c0.07,0,0.12,0.06,0.11,0.13c0,0.07-0.07,0.12-0.12,0.11c0,0,0,0-0.01,0
							c-0.28,0-2.29,0.75-3.89,2.34c-1.39,1.38-2.04,2.96-1.95,4.69C81.87,104.19,81.82,104.25,81.75,104.26
							C81.75,104.26,81.75,104.26,81.75,104.26z"/>
					</g>
					<g>
						<path class="st12" d="M106.08,144.69c-0.02,0-0.03,0-0.05-0.01c-6.53-2.99-11.01-8.6-13.69-17.16
							c-0.02-0.06,0.02-0.13,0.08-0.15c0.06-0.02,0.13,0.02,0.15,0.08c2.66,8.49,7.09,14.06,13.56,17.01
							c0.06,0.03,0.09,0.1,0.06,0.16C106.17,144.66,106.13,144.69,106.08,144.69z"/>
					</g>
					<g>
						<path class="st12" d="M101.6,146.93c-0.01,0-0.02,0-0.03,0c-6.17-1.68-9.98-7.51-10.02-7.57c-0.03-0.05-0.02-0.13,0.03-0.17
							c0.05-0.03,0.13-0.02,0.17,0.03c0.04,0.06,3.8,5.81,9.88,7.47c0.06,0.02,0.1,0.08,0.08,0.15
							C101.71,146.9,101.66,146.93,101.6,146.93z"/>
					</g>
					<g>
						<ellipse class="st17" cx="90.3" cy="88.97" rx="5.96" ry="5.96"/>
						
							<rect x="79.75" y="97.01" transform="matrix(0.5892 -0.808 0.808 0.5892 -44.1765 107.9963)" class="st8" width="8.73" height="0.87"/>
						<path class="st5" d="M77.76,106.41l-0.24-0.17c-0.31-0.23-0.37-0.65-0.15-0.96l6.69-9.17c0.23-0.31,0.65-0.37,0.96-0.15
							l0.24,0.17c0.31,0.23,0.37,0.65,0.15,0.96l-6.69,9.17C78.49,106.57,78.07,106.64,77.76,106.41z"/>
						<g>
							<path class="st5" d="M86.42,94.29c-2.93-2.14-3.58-6.27-1.44-9.2c2.14-2.93,6.27-3.58,9.2-1.44c2.93,2.14,3.58,6.27,1.44,9.2
								C93.48,95.78,89.35,96.42,86.42,94.29z M93.64,84.39c-2.53-1.84-6.08-1.29-7.92,1.24c-1.84,2.53-1.28,6.08,1.24,7.92
								c2.53,1.84,6.08,1.28,7.92-1.24C96.72,89.78,96.16,86.23,93.64,84.39z"/>
						</g>
					</g>
					<g>
						<path class="st13" d="M81.37,106.36l-0.05,0.05l-0.8,5.6c-0.07,1.83-1.44,3.13-3.24,2.44l-3.87-1.5l1.9-8.31
							c0.08-0.35,0.33-0.64,0.66-0.77l1.65-0.63c1.07-0.41,2.28-0.2,3.16,0.54l0.42,0.35C81.87,104.7,81.94,105.7,81.37,106.36z"/>
					</g>
					<path class="st8" d="M55.56,129.55c6.49-8.1,8.47-10.71,14.98-18.15c0.01-0.01,0.02-0.03,0.03-0.03
						c0.09-0.1,0.18-0.2,0.27-0.31c0.45-0.41,0.44-0.28,1.19-0.24c3.04,1.56,5.43,4.08,7.46,7.23c0.03,0.45,0.57,0.79,0.57,0.79l0,0
						c-0.11,0.15-0.21,0.3-0.32,0.46c-4.25,6.13-9.66,14.94-13.46,17.96c-4.09,3.24-10.31,3.27-11.94-0.87
						C54.32,136.38,52.69,133.14,55.56,129.55z"/>
					<path class="st10" d="M79.08,119.39c-0.01,0-0.01,0-0.02,0c-0.69-0.03-1.68-0.45-2.76-1.19c-0.59-0.4-1.2-0.89-1.81-1.46
						c-0.72-0.67-1.36-1.37-1.89-2.06c-0.35-0.45-0.64-0.9-0.88-1.31c-0.55-0.97-0.79-1.81-0.61-2.34c0.01-0.01,0.01-0.02,0.02-0.02
						c0.01-0.05,0.03-0.09,0.06-0.13c0.03-0.03,0.05-0.06,0.07-0.1c0.24-0.28,0.7-0.34,1.27-0.21c0.3,0.07,0.63,0.19,0.99,0.37
						c0.11,0.05,0.23,0.11,0.34,0.17c0.85,0.45,1.82,1.16,2.79,2.05c0.72,0.67,1.35,1.37,1.87,2.05c0.67,0.86,1.15,1.7,1.39,2.4
						l0.03,0.1c0.12,0.38,0.17,0.72,0.13,1c0,0,0,0,0,0.01c-0.03,0.12-0.06,0.23-0.12,0.33c0,0.01-0.01,0.01-0.02,0.02
						C79.75,119.29,79.47,119.4,79.08,119.39z"/>
					<g>
						<path class="st12" d="M76.2,123.09c-1.08,0-2.89-0.44-5.17-2.68c-3.68-3.61-3.28-5.93-3.26-6.03
							c0.01-0.06,0.08-0.11,0.14-0.09c0.06,0.01,0.11,0.08,0.1,0.14c0,0.02-0.39,2.31,3.19,5.81c3.56,3.49,5.97,2.46,6,2.44
							c0.06-0.03,0.13,0,0.16,0.06c0.03,0.06,0,0.13-0.06,0.16C77.25,122.92,76.86,123.09,76.2,123.09z"/>
					</g>
					<path class="st13" d="M76.29,118.2c-0.59-0.4-1.2-0.89-1.81-1.46c-0.72-0.67-1.36-1.37-1.89-2.06
						c-0.35-0.45-0.64-0.9-0.88-1.31l1.79-2.43l1.1-1.5l5.28,3.88l-1.39,1.88L76.29,118.2z"/>
					<g>
						<path class="st12" d="M64.5,136.51c-0.93,0-1.97-0.24-3.07-0.89c-0.06-0.03-0.08-0.11-0.04-0.16c0.03-0.06,0.1-0.08,0.16-0.04
							c3.99,2.35,7.12-0.9,7.15-0.93c0.04-0.05,0.12-0.05,0.17-0.01c0.05,0.04,0.05,0.12,0.01,0.17
							C68.85,134.67,67.08,136.51,64.5,136.51z"/>
					</g>
					<g>
						<path class="st12" d="M57.83,126.51c-0.03,0-0.05-0.01-0.07-0.02c-0.05-0.04-0.06-0.11-0.03-0.17
							c1.95-2.69,5.89-5.25,6.23-5.25l0,0c0.07,0,0.12,0.05,0.12,0.12c0,0.06-0.05,0.11-0.11,0.12c-0.33,0.07-4.12,2.52-6.04,5.16
							C57.91,126.49,57.87,126.51,57.83,126.51z"/>
					</g>
					<g>
						<path class="st13" d="M81.9,108.89l-1.81-0.98l0.21-0.38l-4.52,0.34l-0.16-2.06l5.36-0.4c0.58-0.04,1.21-0.06,1.59,0.39
							c0.42,0.49,0.22,1.46-0.06,1.98L81.9,108.89z"/>
					</g>
					<g>
						<path class="st12" d="M67.86,136.15c-0.03,0-0.05-0.01-0.08-0.03c-0.05-0.04-0.06-0.12-0.02-0.17
							c3.2-3.86,11.96-16.85,12.04-16.98c0.04-0.05,0.11-0.07,0.17-0.03c0.05,0.04,0.07,0.11,0.03,0.17
							c-0.09,0.13-8.85,13.13-12.06,17C67.93,136.13,67.9,136.15,67.86,136.15z"/>
					</g>
					<g>
						<path class="st13" d="M81.53,110.92l-1.2-1.26c-3.98,0.5-4.13,0.5-4.26,0.49l0.03-1.03l-0.02-1.03
							c0.09-0.01,0.71-0.06,4.84-0.59c0.69-0.09,1.59,0.1,1.65,0.9C82.63,109.1,81.53,110.92,81.53,110.92z"/>
					</g>
					<g>
						<path class="st13" d="M76.6,112.2l-0.19-2.05l0.09,1.03l-0.14-1.02c0.09-0.01,0.62-0.11,3.71-0.77c0.71-0.15,1.6-0.1,1.7,0.62
							c0.04,0.28-0.28,1.29-0.65,2.05c-0.15,0.31-0.61,0.24-0.67-0.1l-0.09-0.52C76.67,112.21,76.69,112.19,76.6,112.2z"/>
					</g>
					<g>
						<path class="st15" d="M76.57,105.98c-0.06,0-0.11-0.04-0.12-0.1c-0.01-0.07,0.04-0.12,0.1-0.13c0.17-0.02,4.31-0.58,5.2-0.48
							c0.07,0.01,0.11,0.07,0.1,0.13c-0.01,0.07-0.07,0.11-0.13,0.1c-0.85-0.1-5.1,0.47-5.14,0.48
							C76.58,105.98,76.58,105.98,76.57,105.98z"/>
					</g>
					<g>
						<path class="st15" d="M82.55,108.75c-0.01,0-0.02,0-0.03,0c-0.06-0.02-0.1-0.09-0.08-0.15c0.05-0.18,0.03-0.35-0.08-0.51
							c-0.16-0.25-0.5-0.44-0.88-0.49c-0.51-0.07-3.36,0.33-4.8,0.55c-0.06,0.01-0.13-0.03-0.14-0.1c-0.01-0.06,0.03-0.13,0.1-0.14
							c0.17-0.03,4.19-0.64,4.87-0.55c0.45,0.06,0.85,0.28,1.05,0.59c0.14,0.22,0.18,0.46,0.11,0.71
							C82.65,108.72,82.61,108.75,82.55,108.75z"/>
					</g>
					<g>
						<path class="st15" d="M80.7,112.37c-0.13,0-0.23-0.06-0.29-0.11c-0.26-0.24-0.32-0.84-0.16-1.52c0.02-0.06,0.08-0.1,0.14-0.09
							c0.06,0.02,0.1,0.08,0.09,0.14c-0.14,0.57-0.1,1.11,0.09,1.28c0.04,0.03,0.1,0.08,0.24,0.03c0.38-0.13,0.72-0.99,0.83-1.31
							c0.14-0.32,0.15-0.61,0.04-0.84c-0.11-0.24-0.34-0.41-0.65-0.51c-0.53-0.16-3.36,0.5-4.42,0.77
							c-0.06,0.02-0.13-0.02-0.15-0.09s0.02-0.13,0.09-0.15c0.39-0.1,3.85-0.97,4.54-0.77c0.38,0.11,0.66,0.33,0.8,0.63
							c0.14,0.3,0.13,0.65-0.03,1.02c-0.04,0.12-0.41,1.26-0.97,1.45C80.81,112.37,80.76,112.37,80.7,112.37z"/>
					</g>
					<g>
						<path class="st15" d="M77.67,111.67c-0.06,0-0.11-0.04-0.12-0.1c-0.01-0.06,0.03-0.13,0.1-0.14c0.02,0,2-0.32,2.62-0.47
							c0.06-0.02,0.13,0.03,0.14,0.09s-0.03,0.13-0.09,0.14c-0.63,0.15-2.56,0.46-2.64,0.47C77.69,111.67,77.68,111.67,77.67,111.67
							z"/>
					</g>
					<g>
						<path class="st12" d="M93.02,147.68L93.02,147.68c-5.44-0.02-10.01-0.54-12.86-1.48c-0.06-0.02-0.1-0.03-0.11-0.03
							c-0.07-0.01-0.11-0.06-0.1-0.13c0.01-0.07,0.07-0.11,0.13-0.1c0.03,0,0.05,0.01,0.16,0.04c2.83,0.93,7.37,1.45,12.79,1.46
							c0.07,0,0.12,0.05,0.12,0.12C93.13,147.62,93.08,147.68,93.02,147.68z"/>
					</g>
					<g>
						<path class="st12" d="M107.59,146.92c-0.05,0-0.1-0.03-0.11-0.09c-0.02-0.06,0.02-0.13,0.08-0.15
							c0.07-0.02,0.37-0.06,1.14-0.15c1.14-0.14,2.86-0.35,3.36-0.49c0.06-0.02,0.13,0.02,0.15,0.08c0.02,0.06-0.02,0.13-0.08,0.15
							c-0.52,0.15-2.19,0.35-3.4,0.5c-0.53,0.06-1.04,0.13-1.1,0.14C107.61,146.92,107.6,146.92,107.59,146.92z"/>
					</g>
					<g>
						<g>
							<path class="st18" d="M85.05,89.73c-0.03,0-0.06-0.01-0.09-0.04c-0.04-0.05-0.04-0.12,0.01-0.17l6.17-5.81
								c0.05-0.04,0.12-0.04,0.17,0.01c0.04,0.05,0.04,0.12-0.01,0.17l-6.17,5.81C85.11,89.72,85.09,89.73,85.05,89.73z"/>
						</g>
						<g>
							<path class="st18" d="M85.99,91.15c-0.03,0-0.06-0.01-0.09-0.04c-0.04-0.05-0.04-0.12,0-0.17l4.93-4.7
								c0.05-0.04,0.12-0.04,0.17,0c0.04,0.05,0.04,0.12,0,0.17l-4.93,4.7C86.05,91.14,86.02,91.15,85.99,91.15z"/>
						</g>
						<g>
							<path class="st18" d="M89.66,92.48c-0.03,0-0.06-0.01-0.08-0.03c-0.05-0.04-0.05-0.12,0-0.17l2.98-3.02
								c0.05-0.05,0.12-0.05,0.17,0c0.05,0.04,0.05,0.12,0,0.17l-2.98,3.02C89.72,92.47,89.69,92.48,89.66,92.48z"/>
						</g>
					</g>
				</g>
			</g>
		</g>
	</g>
	<g id="Babl">
		<path class="st19" d="M175.58,108.25h-37.15l-9.28-1.55l5.18,6.45v15.15c0,2.09,1.69,3.78,3.78,3.78h37.46
			c2.09,0,3.78-1.69,3.78-3.78v-16.26C179.37,109.95,177.67,108.25,175.58,108.25z"/>
		<path class="st20" d="M60.73,67.8c-8.84-5.1-17.35-5.61-19.48-2.23c-0.72,1.14-0.59,2.7,0.21,4.49c-12.43,0.1-22.1,4.1-22.58,9.83
			c-0.25,3.01,2.09,5.97,6.14,8.41c-1.45,0.89-2.27,1.96-2.04,2.88c0.37,1.54,3.51,2.1,7,1.25c0.91-0.22,1.75-0.52,2.49-0.86
			c3.72,1.19,8,2.05,12.59,2.43c7.92,0.66,15.17-0.23,20.33-2.18l0,0c5.55-2.21,9.79,1.81,9.79,1.81S76.46,76.88,60.73,67.8z"/>
		<text transform="matrix(1 0 0 1 24.7335 84.5862)" class="st8 st21 st22">Verdadero</text>
		<text transform="matrix(1 0 0 1 146.6119 123.7727)" class="st8 st21 st22">Falso</text>
	</g>
</g>
</svg>
