<?xml version="1.0" encoding="utf-8"?>
<!-- Generator: Adobe Illustrator 24.2.3, SVG Export Plug-In . SVG Version: 6.00 Build 0)  -->
<svg version="1.1" id="Layer_1" xmlns="http://www.w3.org/2000/svg" xmlns:xlink="http://www.w3.org/1999/xlink" x="0px" y="0px"
	 viewBox="0 0 500 500" style="enable-background:new 0 0 500 500;" xml:space="preserve">
<style type="text/css">
	.st0{opacity:0.5;fill:#E2D3D2;}
	.st1{enable-background:new    ;}
	.st2{fill:#FFABA6;}
	.st3{fill:#F8958F;}
	.st4{fill:#FFC4C1;}
	.st5{fill:#FCDFC5;}
	.st6{fill:#EDD1B8;}
	.st7{fill:#FFE8D3;}
	.st8{fill:#FFC15E;}
	.st9{fill:#F2B151;}
	.st10{opacity:0.3;}
	.st11{fill:#F9C06B;}
	.st12{fill:#35A5E6;}
	.st13{fill:#F44D5E;}
	.st14{fill:#DCBFA5;}
	.st15{fill:#665B51;}
	.st16{fill:#474039;}
	.st17{fill:#5C7D8E;}
	.st18{fill:#FE7482;}
	.st19{fill:#C92A39;}
	.st20{fill:#75CBFD;}
	.st21{fill:#2576A4;}
</style>
<g>
	<ellipse class="st0" cx="265.51" cy="352.37" rx="107.28" ry="53.65"/>
	<g>
		<g>
			<g class="st1">
				<g>
					<polygon class="st2" points="334.58,198.11 334.52,219.46 247.83,269.83 247.89,248.48 					"/>
				</g>
				<g>
					<polygon class="st3" points="247.9,248.48 247.83,269.83 203.57,244.28 178.69,229.92 152.09,214.56 149.72,213.19 
						127.48,200.35 127.54,179 147.21,190.35 148.77,191.25 185.28,212.33 199.99,220.82 					"/>
				</g>
				<g>
					<polygon class="st4" points="334.59,198.11 334.16,198.36 296.02,220.51 292.69,222.45 285.53,226.61 282.82,228.18 
						257.04,243.16 253.71,245.1 247.9,248.48 231.06,238.75 227.74,236.84 191.45,215.89 188.91,214.42 170.16,203.61 
						166.59,201.54 136.42,184.12 133.25,182.29 127.54,179 157.38,161.66 158.78,160.85 198.1,138 200.44,136.64 214.23,128.62 
						231.88,138.81 234.19,140.15 260.05,155.08 262.53,156.51 286.32,170.24 288.43,171.46 309.03,183.35 311.48,184.77 
						330.24,195.59 					"/>
				</g>
				<path class="st3" d="M330.24,195.59c-1.07,0.15-2.11,0.28-3.14,0.36c-6.13,0.5-12.11,0.23-18.14-0.22
					c-0.03-0.64-0.18-1.26-0.52-1.95c-0.28-0.56-0.71-1.12-1.18-1.53c-0.32-0.27-0.66-0.48-1.01-0.65c1.99-1.95,3.65-4.59,5.24-6.83
					l-2.44-1.41c-2.07,2.43-4.38,5.12-5.54,7.87c-0.82,0.18-1.59,0.64-2.19,1.41c-2.84-1.96-7.02-2.89-9.65-4.23
					c-3.2-1.63-6.86-4.71-10.63-5.8c-0.01-0.55-0.15-1.1-0.47-1.59c-0.1-0.15-0.2-0.28-0.3-0.41c2.77-3.01,5.51-6.04,8.18-9.15
					l-2.11-1.22c-2.57,3.02-5.21,5.98-7.9,8.91c-0.14-0.06-0.28-0.13-0.44-0.18c-0.82-0.25-1.72-0.12-2.5,0.27
					c-3.47-2.98-8.02-5.29-11.73-7.15c-2.92-1.47-5.95-2.68-8.93-4.02c-2.16-0.96-4.22-2.15-6.31-3.25
					c0.01-0.24-0.01-0.49-0.07-0.74c-0.02-0.07-0.04-0.14-0.06-0.21c3.3-0.66,6.75-3.2,9.35-4.66c1.55-0.87,3.18-1.76,4.8-2.7
					l-2.48-1.43c-0.49,0.32-0.98,0.64-1.47,0.94c-1.77,1.1-3.54,2.2-5.35,3.26c-1.4,0.82-4.23,1.87-5.74,3.12
					c-1.22-1.21-3.26-1.59-4.76-0.57c-0.09,0.06-0.17,0.13-0.26,0.2c-1.16-0.57-2.35-1.08-3.51-1.66c-2.86-1.45-5.7-2.94-8.53-4.46
					c-3.51-1.87-7.06-4.39-10.83-6.01c0.06-0.53,0.02-1.07-0.13-1.58c3.65-1.4,7.09-3.25,10.4-5.38c1.37-0.89,2.85-1.81,4.31-2.78
					l-2.3-1.34c-1,0.83-2.01,1.62-3.04,2.36c-3.18,2.24-6.48,4.24-9.91,6.04c-0.57-0.78-1.47-1.33-2.73-1.33
					c-0.46,0-0.87,0.09-1.23,0.22c-0.24-0.15-0.51-0.31-0.81-0.49c-2.56-1.53-5.23-2.83-7.74-4.46c-2.11-1.37-4.07-2.92-5.99-4.51
					L198.1,138c4.55,3.86,10.07,6.96,15.24,9.41c-0.58,0.92-0.71,2.12-0.4,3.17c-3.09,2.86-5.72,6.28-7.97,9.8
					c-1.83,2.85-3.85,6.22-4.97,9.65c-0.16-0.07-0.31-0.14-0.48-0.19c-0.92-0.25-2.16-0.14-2.98,0.39c-0.6,0.38-1.13,0.91-1.47,1.54
					c-4.65-0.05-9.37,0.4-13.95,0.62c-3.67,0.18-7.64-0.01-11.45,0.28c-0.05-0.59-0.16-1.19-0.52-1.65
					c-0.72-0.93-2.12-0.93-3.28-0.69c-0.59,0.12-1.17,0.29-1.74,0.49c-1.65-3.31-3.62-6.61-5.35-9.97l-1.4,0.81
					c1.64,2.79,3.19,5.63,4.66,8.51c0.36,0.71,0.57,1.51,0.78,2.31c0.05,0.43,0.19,0.71-0.79,1.13c-1.02,0.43-2.36,0.56-3.44,0.87
					c-3.47,1.02-6.91,2.16-10.35,3.26c-4.76,1.52-10.14,2.67-14.98,4.55l3.17,1.83c3.4-1.08,6.77-2.44,10.01-3.5
					c3.18-1.02,6.36-2.03,9.53-3.08c2.54-0.85,5.14-2.02,7.81-2.46c0.23,0.37,0.53,0.71,0.91,0.99c1.7,4.26,1.66,9.56,1.82,14.03
					c0.14,3.82,0.1,7.63,0.09,11.45l3.57,2.07c0.1-0.11,0.2-0.21,0.31-0.31c3.34-3.2,6.88-6.21,10.36-9.27
					c3.41-3.01,6.78-6.07,9.87-9.42c1.85-2.02,4.45-4.45,6.12-7.08c0.11,0.08,0.21,0.16,0.32,0.25c0.45,0.29,0.94,0.44,1.46,0.47
					c0.89,0.12,1.7-0.03,2.5-0.47c0.53-0.29,0.97-0.74,1.3-1.25c3.92,4.47,8.42,8.51,12.31,12.98c2.68,3.09,5.22,6.3,7.47,9.73
					c1.03,1.56,1.89,3.29,2.83,4.95c-0.07,0.2-0.12,0.4-0.15,0.61c-6.75-0.06-14.22,2.61-20.35,4.24
					c-4.27,1.13-11.75,1.97-15.6,5.39l2.54,1.47c4.78-2.3,10.36-3.4,15.35-4.71c6-1.58,12.06-3.22,18.24-3.89
					c0.01,0.38,0.1,0.77,0.31,1.09c0.46,0.71,1.31,1.24,2.18,1.23c0.65,7.36,0.92,14.64,0.69,22.07c-0.04,1.42-0.28,3.23-0.47,5.17
					l3.32,1.91c-0.15-9.67,0.73-19.41-0.93-29.02c0.38-0.06,0.76-0.18,1.06-0.37c0.51-0.33,0.92-0.79,1.19-1.32
					c4.45,0.82,8.82,2.51,13.05,3.92c4.07,1.35,8.09,2.81,12.09,4.34c-0.04,0.45-0.01,0.9,0.09,1.34c0.17,0.73,0.63,1.32,1.18,1.79
					c-0.04-0.03-0.08-0.07-0.13-0.1c0.15,0.12,0.27,0.24,0.4,0.39c-0.03-0.05-0.07-0.09-0.1-0.14c0.16,0.19,0.33,0.36,0.54,0.52
					c0.02,0.02,0.04,0.03,0.06,0.04c-1.62,3.98-2.45,8.23-3.18,12.49c-0.49,2.87-0.94,5.75-1.57,8.6c-0.29,1.3-0.68,2.58-1.09,3.86
					l3.33-1.94c0.62-2.87,0.94-5.85,1.36-8.46c0.76-4.71,1.65-9.31,2.96-13.86c0.55,0.06,1.1-0.01,1.66-0.24
					c1.03-0.44,1.61-1.19,1.99-2.22c0.01-0.02,0.01-0.03,0.01-0.05c0.02-0.05,0.05-0.1,0.07-0.15c3.03,1.75,5.88,4.27,8.8,5.94
					c2.69,1.55,5.81,3.47,8.95,4.06l2.71-1.57c-0.09-0.24-0.24-0.46-0.46-0.63c-3.7-2.81-9.06-3.77-13.25-5.9
					c-2.17-1.1-4.23-2.59-6.48-3.52c-0.05-0.9-0.39-1.76-1.06-2.43c-0.65-0.65-1.59-1.06-2.53-1.12c0.06-1.76,0.04-3.54,0.34-5.28
					c0.52-3.03,1.41-5.96,2.64-8.77c2.37-5.38,5.91-9.73,10.02-13.77c0.11,0.06,0.21,0.11,0.33,0.16c0.12,0.09,0.23,0.17,0.37,0.25
					c0.39,0.23,0.8,0.37,1.23,0.48l0-0.03c1.17,0.31,2.52,0.05,3.35-0.86c0.17-0.18,0.31-0.39,0.45-0.61
					c3.66,1.88,6.89,4.61,10.49,6.61c2.82,1.57,5.79,3.01,8.81,4.23c0.03,0.19,0.08,0.39,0.18,0.58c0.29,0.55,0.26,0.86,0.71,1.37
					c0.08,0.1,0.17,0.18,0.26,0.27c-1.32,2.95-2.33,6.07-3.39,9.07c-1.74,4.93-3.87,10.05-4.85,15.19
					c-0.04,0.19-0.03,0.38,0.02,0.55l3.33-1.94c2.81-6.89,4.49-14.39,6.46-21.62c0.28,0.2,0.57,0.41,0.87,0.59
					c1.61,1.03,4.3,0.38,5.21-1.36c5.86,0.95,11.91,1.14,17.72,0.88c2.64-0.12,5.26-0.37,7.87-0.64l0.43-0.25L330.24,195.59z
					 M188.6,183.65c-3.35,3.4-6.89,6.59-10.49,9.73c-3.12,2.72-6.25,5.4-9.24,8.24c-0.21-5.32-0.36-10.56-0.41-11.52
					c-0.19-3.69-0.01-9.45-1.87-13.28c0.79,0.1,1.6-0.02,2.31-0.36c0.26-0.12,0.51-0.29,0.65-0.54c0.03-0.05,0.03-0.11,0.05-0.16
					c4.12,0,8.41-0.61,12.36-0.84c4.17-0.24,8.49-0.36,12.69-0.9c0.05,0.52,0.21,1.03,0.49,1.49c0.05,0.08,0.1,0.16,0.14,0.25
					c0.03,0.05,0.06,0.1,0.09,0.15C192.91,178.21,190.81,181.41,188.6,183.65z M228.09,201.89c-0.26,0-0.51,0.03-0.75,0.09
					c-0.89-1.45-1.89-2.82-2.81-4.13c-2.18-3.13-4.57-6.12-7.09-8.99c-4.35-4.95-9.14-10.15-14.43-14.28
					c0.05-1.09-0.34-2.21-1.13-2.98c-0.01-0.01-0.01-0.02-0.02-0.02c2.02-3.95,3.5-8.13,6.07-11.88c1.66-2.42,3.53-4.68,5.53-6.81
					c0.09-0.1,0.3-0.34,0.55-0.64c0.55,0.45,1.27,0.74,2.19,0.74c1.32,0,2.25-0.6,2.81-1.44c3.83,2.47,7.64,4.97,11.56,7.29
					c3.21,1.9,7.06,4.59,10.9,6.06c0.06,0.24,0.14,0.47,0.27,0.67c0.11,0.17,0.24,0.32,0.38,0.46
					C234.85,176.24,230.43,189.54,228.09,201.89z M263.39,196.8c-0.58,1.18-4.29,12.46-4.5,16.8c-5.03-1.73-10.11-3.31-15.27-4.62
					c-3.47-0.89-7.19-2.06-10.87-2.33c0.02-0.57-0.1-1.14-0.43-1.66c-0.48-0.77-1.06-1.51-1.76-2.1c-0.09-0.08-0.19-0.14-0.29-0.21
					c2.06-6.1,3.78-12.31,6.07-18.33c1.53-4.02,3.29-7.94,5.39-11.7c0.99-1.77,2.47-3.55,3.7-5.38c0.86,0.13,1.69-0.04,2.34-0.69
					c0.04-0.04,0.06-0.08,0.09-0.12c3.47,2.81,8.06,4.63,11.84,6.56c2.98,1.52,5.87,3.16,8.63,5.03c1.78,1.2,3.44,2.65,5.17,3.97
					c-0.12,0.37-0.17,0.74-0.12,1.17c0.04,0.29,0.12,0.53,0.22,0.76C269.25,187.31,265.81,191.87,263.39,196.8z"/>
			</g>
		</g>
		<g>
			<g class="st1">
				<g>
					<path class="st5" d="M334.55,210.71l-0.11,40.01v0.96l-0.04,16.04l-0.01,1.66l-0.05,19.04v2.87l-0.02,4.93l-0.01,2.81v0.17
						l-25.63,14.89l-31.07,18.06l-29.99,17.43l0.01-2.29l0.01-4.51l0.01-0.97l0.01-3.57l0.22-77.94
						c7.62-2.64,4.53-14.44,28.11-11.21c6.11-1.75,6.11-13.97,14.84-15.71c1.75,0,4.36,1.75,6.11,1.75
						c8.73-3.49,11.35-15.71,21.83-16.59c2.62,0,3.49,6.11,4.37,5.24C328.3,220.67,330.72,214.5,334.55,210.71z"/>
				</g>
				<g>
					<path class="st6" d="M247.88,260.31l-0.18,61.99l-0.02,5.41l-0.01,4.67l-0.03,6.39l-0.03,10.82l-48.56-28.04l-0.44-0.25
						l-71.35-41.2l0.02-5.6v-0.79l0.02-5.96l0.01-3.95l0.01-2.71l0.02-5.84l0.02-7.32l0.01-1.92l0.03-10.34l0.01-0.7l0.06-21.46
						v-1.11l0.05-18.66c1.26-1.14,2.79-1.51,4.43-0.52c5.24,2.62,0.88,10.4,6.99,12.36c6.11,1.96,6.98-7.12,10.47-3.63
						c1.75,1.75,1.75,9.6,5.24,8.73c2.7-1.13,4.93-1.49,6.8-1.26c0.1,0.01,0.21,0.03,0.31,0.04c5.19,0.84,7.57,6.44,9.47,13.44
						c0,1.52,2.65,2.38,3.91,1.42c0.18-0.15,0.34-0.32,0.45-0.55c0.15-0.25,0.31-0.52,0.49-0.78c1.81-2.72,4.9-5.73,9.66-1.81
						c5.22,4.3,1.94,12.55,8.18,15.68c0.77,0.25,2.16,0.06,3.79-0.32c0.2-0.05,0.4-0.1,0.61-0.16c3.85-0.97,8.71-2.78,9.88-2.23
						l0.38,0.23c0.48,0.33,0.86,0.84,1.05,1.62v0.69c0.01,3.26,0.11,6.47,1.75,8.91c4.37,4.37,9.6-0.87,13.97,0
						c4.36,1.75,2.78,10.87,8.73,13.1C241.25,261.38,247.88,260.31,247.88,260.31z"/>
				</g>
			</g>
		</g>
		<g>
			<path class="st5" d="M248.15,320.1c-0.29,0.45-0.59,0.9-0.85,1.37c-0.02,0.03,0.03,0.07,0.05,0.04c0.34-0.42,0.65-0.87,0.96-1.32
				C248.38,320.09,248.21,319.99,248.15,320.1z"/>
			<path class="st5" d="M243.82,294.04c-2.14,3.52-4.3,6.29-8.3,7.71c-4.98,1.76-10.73,1.62-15.92,1.83
				c-4.2,3.13-8.67,5.93-12.71,9.25c-0.48,0.39-0.95,0.79-1.41,1.2c-0.88,0.78-1.77,1.63-2.64,2.56c-1.39,1.5-2.7,3.18-3.77,4.96
				c-2.76,4.6-3.9,9.93-0.65,14.84c0.08,0.13-0.11,0.24-0.2,0.12c-3.61-5.16-2.54-10.48,0.41-15.22c1.07-1.73,2.39-3.38,3.82-4.92
				c1.27-1.36,2.62-2.63,3.96-3.79c1.44-1.25,2.87-2.37,4.18-3.33c3.61-2.65,7.41-5.4,11-8.37c-0.24-2.82,0.79-5.12,1.55-7.89
				c1.38-5.01,1.16-9.8-1.45-14.37c-2.53-4.43-5.62-8.75-3.27-13.72c-4.56-1.45-10.47-3.36-11.17-3.65
				c1.29,2.17,2.79,4.09,3.35,6.67c0.85,3.94,2.09,7.18,4.04,10.71c0.12,0.22-0.19,0.39-0.33,0.19c-1-1.5-1.91-2.99-2.65-4.57
				c-0.46,1.02-1.24,1.82-1.9,2.73c-0.87,1.2-1.6,2.51-2.23,3.85c-0.04,0.1-0.19,0.03-0.16-0.07c0.46-1.18,1-2.3,1.7-3.36
				c0.78-1.18,1.93-2.22,2.4-3.55c-0.56-1.22-1.01-2.49-1.33-3.86c-0.59-2.56-1.2-4.43-2.71-6.63c-0.63-0.9-1.14-1.72-1.57-2.67
				c-6.26-2.46-12.76-4.45-19.56-3.84c-7.82,0.71-14.08,5.62-21.62,6.83c-5.85,0.93-13.1-0.81-17.85-4.38
				c-2.8-2.1-4.81-5.07-7.74-7.05c-1.74-1.18-7.8-4.44-11.74-4.32l0.01-1.92c3.26-0.02,7.17,1.96,9.6,3.1
				c1.95,0.92,3.52,2.07,4.99,3.35c8.31,0.44,12.09-5.4,15.02-12.17c-1.62-3.34-4.56-5.28-7.2-7.6c-0.01,0.12-0.07,0.24-0.22,0.3
				c-5.05,1.69-9.07,0.59-12.82-3.25c-3.59-3.67-4.85-8.65-3.48-13.58c0.02-0.05,0.09-0.03,0.08,0.02c-1.16,4.9,0.3,9.62,3.78,13.2
				c3.49,3.59,7.53,4.58,12.27,2.99h0.03c-0.84-0.76-1.64-1.56-2.36-2.47c-3.19-4.11-2.16-8.72-0.65-13.32
				c0.03-0.06,0.13-0.04,0.11,0.04c-1.15,3.86-2.21,7.96-0.07,11.74c1,1.77,2.6,3.13,4.14,4.42c2.55,2.15,5.06,4.05,6.6,7.04
				c2.36-5.54,4.23-11.63,7.58-15.35c0.04-0.04,0.1,0.02,0.06,0.06c-4.97,5.95-5.73,14.67-10.24,21.09c-2.97,4.23-6.84,7-11.87,7.53
				c0.96,0.87,1.9,1.81,2.91,2.77c4.13,3.95,9.22,5.75,14.87,6.17c2.76,0.21,5.23-0.38,7.64-1.27c1.96-3.66,0.22-7.46,0.65-11.36
				c0.31-2.72,1.61-4.52,3.82-6.06c0.11-0.08,0.25,0.11,0.15,0.2c-5.73,4.52-1.54,11.03-3.46,16.76c1.69-0.67,3.36-1.46,5.11-2.16
				c1.22-0.5,2.46-0.94,3.72-1.35c2.18-2.07,4.36-4.13,6.52-6.21c2.13-2.04,4.2-4.52,6.91-5.84c5.15-2.51,12.78-2.37,18.35-2.65
				c0.1,0,0.09,0.14,0,0.16c-3.13,0.36-6.77,0.4-10.3,0.82c4.73,3.72,10.7,11.01,17.02,6.75c0.11-0.08,0.22,0.1,0.1,0.19
				c-6.46,4.83-12.92-2.72-17.65-6.62c-0.1-0.07-0.11-0.17-0.09-0.24c-3.1,0.41-6.08,1.14-8.49,2.7
				c-4.09,2.64-7.64,6.81-11.09,10.54c2.25-0.65,4.55-1.13,6.88-1.34c5.57-0.47,16,2.94,24.89,6.33c2.8-1.03,4.43-3.56,6.94-5.03
				c2.1-1.22,4.5-1.44,6.88-1.33c0.09,0,0.09,0.14,0,0.13c-3.48-0.07-6.36,0.82-8.9,3.26c-1.3,1.25-2.42,2.47-3.92,3.35
				c2.31,0.9,4.51,1.78,6.46,2.58c0.07-0.13,0.12-0.25,0.2-0.38c0.02-0.03,0.05,0,0.04,0.02c-0.07,0.13-0.13,0.25-0.19,0.38
				c1.96,0.8,3.68,1.53,5.01,2.09c0.42,0.17-2.08-0.6-5.25-1.61c-3.3,7.38,4.7,12.23,5.86,19.06c0.35,2.09,0.4,4.29,0.11,6.39
				c-0.48,3.45-2.11,6.43-2.12,9.91c5.95-5.05,11.19-10.76,13.73-17.79c-0.03-0.03-0.07-0.05-0.08-0.11
				c-0.91-3.64-3.33-6.32-5.61-8.97c-0.14,0.14-0.4-0.02-0.28-0.2c0.01-0.03,0.03-0.05,0.04-0.07c-2.71-3.16-5.18-6.33-4.7-11.1
				c0,0,0,0,0.01,0c-0.38,4.93,2.1,7.58,5.01,10.58c2.81-4.64,2.74-9.69-1.09-13.93c-0.06-0.07,0.04-0.17,0.1-0.1
				c4.07,4.29,4.16,9.51,1.23,14.29c0.46,0.48,0.93,0.96,1.4,1.47c2.03,2.2,3.38,4.74,4.16,7.6c1.15-3.4,1.67-7.12,1.32-11.2
				c-0.05-0.58,0.86-0.58,0.9,0c0.06,0.73,0.1,1.47,0.1,2.19c0.82-0.87,1.77-1.55,2.88-2.14c3.16-1.67,3.74-5.47,3.98-8.76
				c0.01-0.08,0.13-0.08,0.12,0c-0.01,2.38-0.31,5.45-1.74,7.46c-0.58,0.82-1.32,1.18-2.16,1.64c-1.23,0.68-2.2,1.5-3.09,2.51
				c-0.23,11.41-7.53,20.73-16.19,27.81c0.03,0.24-0.22,0.37-0.43,0.34c-0.21,0.17-0.42,0.34-0.63,0.51c-0.33,0.26-0.67,0.52-1,0.77
				c4.14-0.18,8.38-0.19,12.45-1c2.88-0.57,5.07-1.67,6.94-3.27c0-0.01-0.01-0.01-0.02-0.02c-0.91-3.15-1.72-6.7-0.85-9.96
				c0.72-2.72,2.51-4.95,4.29-7.07c0.08-0.09,0.19,0.04,0.12,0.12c-1.66,2.12-3.42,4.37-4.07,7.05c-0.79,3.23,0.14,6.43,0.87,9.58
				c1.35-1.23,2.54-2.72,3.7-4.49C243.77,293.94,243.85,293.98,243.82,294.04z"/>
			<path class="st5" d="M147.64,268.65c0.15-0.59,0.42-1.12,0.83-1.57C147.97,267.53,147.71,268.07,147.64,268.65z"/>
			<path class="st5" d="M150.26,265.97c-0.76,0.21-1.35,0.61-1.8,1.11c0.43-0.39,1.02-0.72,1.84-0.95
				C150.4,266.1,150.36,265.94,150.26,265.97z"/>
			<path class="st5" d="M168.27,289.27c0.08,0.04,0.15-0.08,0.07-0.12c-1.75-0.83-3.39-0.79-5.26-0.31
				c-3.63,0.94-6.52,1.91-10.08,0.31c0.38-0.25,0.75-0.5,1.11-0.79c5.91-4.62,4.81-12.74,9.51-18.09c0.04-0.04-0.02-0.1-0.06-0.06
				c-2.84,3.28-3.87,7.37-5.46,11.09c-0.5-1.75-1.76-3.02-3.21-4.09c-1.15-0.84-2.44-1.48-3.6-2.29c-1.64-1.15-3.96-4.04-3.66-6.27
				c-0.24,0.97-0.15,2.07,0.34,3.1c2.1,4.47,7.95,5.04,9.95,9.78c0.01,0.03,0.04,0.05,0.07,0.06c-1.32,3.02-3.05,5.77-6.5,7.63
				c-4.13,2.22-8.98,2.69-13.45,3.84c-2.75,0.71-5.95,1.39-7.45,4.02c-0.27,0.47,0.4,0.83,0.71,0.41c2.86-3.91,10.16-4.17,14.5-5.34
				c2.36-0.63,4.71-1.46,6.8-2.73c1.71,0.8,3.49,1.24,5.4,1.08C161.56,290.2,164.59,287.63,168.27,289.27z"/>
			<path class="st5" d="M243.38,300.24c0.95,4.95,1.91,10.43,1.41,15.51c-0.49,4.97-4.32,7.19-7.87,9.84
				c0.25-0.96,0.44-1.93,0.52-2.94c0.68-8.57-7.09-10.87-14.19-10.81c-0.1,0-0.1,0.15,0,0.15c6.48,0.1,13.97,1.97,13.49,9.97
				c-0.09,1.57-0.5,3.07-1.01,4.55c-0.01,0-0.01,0.01-0.02,0.01c-0.11,0.09-0.13,0.21-0.1,0.31c-0.4,1.11-0.85,2.22-1.28,3.32
				c-3.29-1.6-5.99-4.4-9.57-5.36c-3.8-1.02-7.8,0.12-11.31,1.6c-0.09,0.04-0.06,0.19,0.04,0.16c4.74-1.44,9.48-2.54,14.04,0.11
				c2.27,1.32,4.14,3.07,6.58,4.06c-0.51,1.36-0.95,2.74-1.18,4.18c-1.21,7.71,3.25,12.48,7.49,18.22c0.41,0.56,1.33,0.07,0.95-0.56
				c-3.16-5.21-7.54-8.75-7.51-15.43c0.02-3.7,1.67-7.01,2.73-10.46c3.49-2.79,7.51-4.83,8.38-9.62c0.97-5.32-0.37-11.65-1.57-16.83
				C243.43,300.19,243.38,300.21,243.38,300.24z"/>
			<path class="st5" d="M144.27,261.52c-0.6,2.44-1.62,4.88-3.07,7.02c-0.94,1.39-2.06,2.65-3.37,3.68
				c-0.31,0.25-0.62,0.48-0.94,0.7c-1.52,1.03-2.99,1.46-4.79,1.61c-1.06,0.09-2.91-0.07-4.81-0.03v-0.79
				c3.18,0.09,6.46,0.42,9.24-1.32c-0.02-0.04-0.04-0.08-0.05-0.12c-0.12-0.45-0.31-0.87-0.52-1.26c-0.98-1.73-2.66-2.92-2.9-5.02
				c-0.05-0.46-0.07-0.93-0.05-1.39c0.04-2.55,0.87-5.12,0.65-7.7c0-0.02,0.03-0.02,0.03,0c0.34,2.6-0.49,5.25-0.34,7.8
				c0.02,0.26,0.03,0.52,0.07,0.77c0.38,2.61,2.75,3.79,3.51,6.15c0.05,0.12,0.09,0.24,0.11,0.38c0.07-0.05,0.15-0.1,0.22-0.17
				c1.34-0.98,2.51-2.2,3.51-3.56c1.52-2.06,2.65-4.44,3.45-6.77C144.22,261.47,144.28,261.49,144.27,261.52z"/>
			<path class="st5" d="M142.79,283.63c0.55-0.87,0.68-1.57,0.69-2.62c0.02-1.4-0.74-2.67-1.02-4.01c-0.69-3.29-0.04-6.12,1.81-8.88
				c0.04-0.07-0.06-0.13-0.11-0.06c-2.16,3-2.81,6.14-1.99,9.75c1.87,8.21-8.06,9.97-13.97,12.04c-0.54,0.19-0.31,1.06,0.24,0.87
				C132.42,289.28,140.36,287.47,142.79,283.63z"/>
			<path class="st5" d="M209.83,305.47c0.04-0.03-0.01-0.09-0.05-0.06c-2.33,1.49-4.95,2.65-7.8,2.47c-4.25-0.27-4.42-1.8-6.88-3.73
				c-2.44-1.92-5.47-2.54-7.51-4.98c1.89,0.29,3.78,0.65,5.63,0.98c6.05,1.07,16.64,2.23,16.92-6.61c0-0.15-0.22-0.13-0.23,0.01
				c-0.12,1.52-0.52,2.72-1.14,3.67c0.01-0.02,0.03-0.03,0.03-0.06c0.35-5.26-2.14-10.6,0.43-15.51c0.01-0.02-0.02-0.04-0.04-0.02
				c-2.98,5.04-0.37,10.08-0.75,15.54c-0.01,0.17,0.17,0.21,0.28,0.13c-3.46,5.16-13.42,2.53-18.54,1.53
				c-4.75-0.92-9.62-1.78-14.45-0.96c-6.73,1.14-13.32,6.11-15.18,12.84c-0.1,0.37,0.43,0.53,0.61,0.22
				c2.93-5.05,6.37-9.3,12.11-11.26c4.4-1.5,8.99-1.28,13.53-0.62c1.21,1.66,2.66,2.54,4.46,3.49c2.52,1.33,4.26,3.44,6.64,4.82
				C201.72,309.54,206.66,307.99,209.83,305.47z"/>
			<path class="st5" d="M157.78,239.79c-0.2-0.01-0.2,0.29,0,0.31c6.66,0.69,13.02-1.94,17.48-6.87c0.01-0.01-0.01-0.03-0.02-0.02
				C170.51,237.98,164.44,240.13,157.78,239.79z"/>
			<path class="st5" d="M156.03,212.51c3.85,0.62,1.89,7.28,2.67,9.68c0.62,1.9,2.37,3.59,3.71,5c0.11,0.12,0.28-0.06,0.17-0.17
				c-1.84-2.07-3.52-3.84-3.91-6.71c-0.24-1.76,0.29-3.64-0.03-5.39c-0.28-1.53-1.05-2.31-2.58-2.54
				C155.98,212.36,155.94,212.49,156.03,212.51z"/>
			<path class="st7" d="M273.3,319.4c-0.98-1.41-2.04-2.74-3.14-4.05c1.68-4.04,2.16-8.2,1.21-12.51c-0.11-0.52-0.25-1.03-0.4-1.54
				c0.03-0.02,0.06-0.04,0.08-0.07c3.06-4.03,9.35-2.33,13.06-5.24c3.28-2.57,5.25-6.7,6.45-10.59c0.04-0.12-0.14-0.17-0.18-0.05
				c-2.06,5.83-5.18,10.75-11.52,11.93c-2.59,0.48-6.22,1.32-8.06,3.41c-0.6-1.95-1.32-3.88-1.71-5.88
				c-0.95-4.91,0.55-8.22,3.69-11.88c0.05-0.06-0.03-0.15-0.09-0.09c-2.9,3.2-4.7,6.24-4.27,10.7c0.27,2.79,1.3,5.42,1.94,8.13
				c1.06,4.52,0.85,8.61-0.87,12.89c-2.81-3.27-5.79-6.41-8.14-10.04c-2.04-3.14-3.96-6.98-3.65-10.83c0.42-5.29,4.67-8.7,9.57-9.61
				c0.11-0.02,0.08-0.19-0.03-0.19c-1.25,0.03-2.46,0.29-3.61,0.72c0.79-3.33-0.54-5.99-1.52-8.89c0,0,0.01,0,0.01,0
				c2.58-0.25,6.66,0.01,8.62-2.06c2.06-2.17,2.73-5.98,3.38-8.76c0.04-0.15-0.19-0.22-0.24-0.07c-0.75,2.62-1.49,6.1-3.35,8.18
				c-1.85,2.08-5.9,1.73-8.5,2.1c-0.05,0.01-0.08,0.02-0.11,0.05c-0.3-0.94-0.54-1.91-0.66-2.95c-0.65-5.92,5.42-9.42,7.9-14.41
				c0.03-0.05-0.05-0.1-0.08-0.05c-1.69,2.8-3.77,5.07-6,7.42c-1,1.05-1.86,2.11-2.28,3.53c-1.64,5.49,3.56,10.3,1.98,15.94
				c-0.03,0.12-0.01,0.22,0.04,0.3c-1.18,0.55-2.27,1.29-3.21,2.19c-2.78-2.29-5.38-4.7-6.41-8.33c-1.29-4.55,0.16-8.88,3.34-12.21
				c0.02-0.02-0.01-0.05-0.03-0.03c-6.99,6.89-3.88,15.32,2.68,20.99c-0.98,1.05-1.78,2.29-2.3,3.67
				c-1.27,3.37-0.75,6.94,0.59,10.26c-1.62-0.88-3.2-1.69-4.42-3.22c-1.62-2.04-2.5-4.59-3.06-7.11c-0.02-0.08-0.13-0.04-0.12,0.03
				c0.79,5.33,3.22,9.54,8.26,11.78c0.94,1.94,2.1,3.77,3.3,5.37c3.37,4.5,7.39,8.46,10.51,13.1c-3.14-0.28-6.36,1.91-9.52,2.01
				c-6.62,0.21-7.81-5.43-11.71-9.24c-0.1-0.1-0.25,0.05-0.15,0.15c2.71,3.02,3.75,7.82,7.82,9.44c0.05,0.02,0.11,0.03,0.16,0.05
				c-0.9,0.43-1.78,0.89-2.72,1.27c-1.03,0.42-2.06,0.83-2.96,1.49c-1.29,0.96-2.06,2.3-1.95,3.93c0.01,0.1,0.16,0.11,0.16,0
				c0-4.41,5.27-4.51,8.16-6.47c4.58,1.17,9.11-2.74,13.39-1.6c0.71,1.14,1.37,2.32,1.95,3.57c1.91,4.14,3.07,8.55,3.48,13.09
				c0.15,1.73,0.41,11.35-0.6,11.67c-0.57,0.18-0.81,1.1-0.18,1.38c0.1,0.04,0.19,0.09,0.29,0.13c0.4,0.18,0.73,0.13,1.07-0.14
				c3.04-2.44,1.82-12.27,1.37-15.46C279.13,330.53,276.87,324.55,273.3,319.4z"/>
			<path class="st7" d="M334.39,267.72l-0.01,1.66c-1.2,0.24-2.36,0.43-3.34,0.59c-4.82,0.77-9.82,0.53-14.47-1.03
				c-2.61-0.87-4.75-2.14-6.73-3.64c-3.74,3.09-8.37,4.86-13.24,5c-2.78,0.07-5.34-0.81-8.08-0.94c-4.22-0.2-10.84,3.46-11.47,8.29
				c-0.02,0.14-0.23,0.14-0.22,0c0.35-3.58,4.09-6.9,7.74-8.29c-0.02-0.01-0.03-0.02-0.04-0.03c-3.34-3.37-6.59-7.86-12-6.97
				c-0.11,0.03-0.16-0.15-0.04-0.17c5.19-0.94,9.17,3.33,12.41,6.77c0.08,0.08,0.09,0.17,0.05,0.25c0.79-0.27,1.55-0.46,2.28-0.53
				c3.13-0.31,6.22,0.77,9.38,0.52c4.57-0.37,8.53-2.15,12.25-4.7c-1.43-1.17-2.82-2.46-4.27-3.83c-4.19-3.95-9.76-6.36-15.15-5.45
				c-0.04,0.04-0.1,0.07-0.18,0.05c-0.02,0-0.04-0.01-0.07-0.02c-1.83,0.35-3.65,1.09-5.38,2.3c-0.2,0.14-0.37-0.17-0.18-0.31
				c1.43-1.09,2.92-1.85,4.43-2.33c-0.93-0.34-1.79-0.82-2.58-1.47c-2.44-2.02-4.21-3.53-7.61-3.04c-0.05,0.01-0.08-0.06-0.03-0.08
				c1.7-0.34,3.38-0.25,4.94,0.54c0.94,0.48,1.57,1.15,2.37,1.82c1.2,1,2.34,1.48,3.7,1.99c4.66-1.19,9.5,0.18,13.72,2.86
				c-0.88-2.41-1.22-4.88-1.52-7.46c-0.42-3.54-0.96-6.35-4.7-7.74c-1.88-0.7-3.83-1.23-5.74-1.81c-0.16-0.04-0.09-0.29,0.07-0.24
				c3.02,0.78,8.08,1.11,9.88,4.14c0.88,1.49,0.95,3.38,1.16,5.06c0.37,3.06,0.66,5.94,1.92,8.77c1.03,0.72,2.01,1.51,2.93,2.36
				c4.85,4.44,10.21,7.41,16.88,7.92c1.76,0.13,3.97,0.13,6.29-0.09c0.51-1.54,1.17-2.97,0.83-4.47c-0.77,0.4-1.62,0.4-2.43,0.07
				c-0.53-0.21-0.93-0.61-1.42-0.88c-0.94-0.53-1.95-0.65-2.99-0.45c-0.19,0.04-0.28-0.26-0.08-0.31c0.97-0.22,1.92-0.21,2.85,0.17
				c0.44,0.18,0.79,0.46,1.2,0.68c0.91,0.49,1.73,0.48,2.71,0.32c0.02,0,0.04,0.01,0.05,0.01c-0.11-0.33-0.28-0.67-0.52-1.01
				c-1.1-1.62-2.97-3.01-4.94-3.21c-0.12-0.01-0.12-0.18,0-0.19c2.16-0.08,4.24,1.31,5.48,3.05c1.28,1.79,1,4.18,0.14,6.14
				C331.88,268.24,333.15,268.02,334.39,267.72z"/>
			<path class="st7" d="M334.44,250.72v0.96c-1.32,0.24-2.65,0.33-3.93,0.21c-0.01,0.03-0.01,0.07-0.03,0.1
				c-0.99,2.33-2.23,4.85-4.72,5.86c-1.78,0.72-3.84,0.37-5.67,0.86c-2.86,0.79-6.06,2.99-6.36,6.17c-0.01,0.1-0.15,0.1-0.15,0
				c-0.01-2.91,2.39-5.09,4.9-6.26c0.26-0.11,0.52-0.22,0.76-0.3c-0.73-0.22-1.41-0.64-2.07-1.05c-1.46-0.9-2.87-1.44-4.56-1.81
				c-0.14-0.03-0.08-0.24,0.06-0.21c1.27,0.22,2.51,0.47,3.68,1.06c1.34,0.68,2.51,1.35,3.99,1.69c0.01,0.01,0.02,0.02,0.03,0.03
				c1.36-0.26,2.69-0.24,4.16-0.61c2.83-0.72,4.03-3.24,5.1-5.67c-1.96-0.34-3.77-1.21-5.16-2.88c-0.88-1.06-1.28-1.99-1.41-2.92
				c-1.83-0.65-3.2-1.8-4.5-3.28c-1.04-1.19-1.96-2.52-3.08-3.63c-2.16-2.11-4.81-2.07-7.51-1.15c-0.12,0.04-0.17-0.14-0.05-0.18
				c2.58-1.02,4.86-1.51,7.19,0.28c2.92,2.23,4.36,5.58,7.88,6.93c0.03-1.18,0.36-2.43,0.55-3.94c0.57-4.44-1.29-8.08-5.48-9.85
				c-1.67-0.7-3.29-1.01-4.81-2.02c-0.13-0.08-0.05-0.29,0.1-0.24c3.43,0.91,6.84,1.46,9.16,3.52c0.11-1.36,0.52-2.63,1.82-3.42
				c2.82-1.73,6.54-1.2,8.35-4.51c0.07-0.13,0.24-0.02,0.19,0.11c-0.79,1.77-2.22,2.71-3.99,3.37c-1.28,0.47-2.83,0.69-4.02,1.4
				c-1.41,0.86-1.71,2.21-1.75,3.66c0.89,0.99,1.57,2.27,1.96,4c0.71,3.23-1.62,7.08-0.09,10.09
				C326.76,250.51,330.64,251.19,334.44,250.72z"/>
			<path class="st7" d="M331.67,278.81c-0.42,1.64-0.92,4.06-2.43,4.97c-0.74,0.44-0.89,0.4-1.66,0.2c-0.31-0.08-0.61-0.2-0.91-0.27
				c-0.4-0.1-0.71-0.15-1.07-0.09c0.01-0.06,0.03-0.11,0.04-0.17c0.36-1.61,0.72-8.29,3.55-7.76c0.14,0.03,0.21-0.19,0.06-0.22
				c-3.31-0.71-3.49,5.18-3.94,7.3c-0.21,0.98-0.51,1.86-0.88,2.65c-2.37-2.97-9.9-7.88-3.8-10.86c0.06-0.03,0.01-0.11-0.05-0.08
				c-1.82,0.83-3.14,2.72-2.26,4.74c1.11,2.55,4.11,4.43,5.92,6.55c-1.24,2.34-3.28,3.83-6.32,4.42c-1.37,0.27-2.6,0.31-3.76,0.79
				c-0.17-1.04-0.57-2.13-1.23-3.29c-1.44-2.51-2.53-5.82-4.32-8.17c1.4-1.19,2.98-2.48,3.34-4.28c0.37-1.89,0.13-4.46-0.94-6.07
				c-0.08-0.13-0.26-0.02-0.2,0.12c0.89,2,1.04,4.34,0.26,6.36c-0.56,1.45-1.66,2.43-2.81,3.41c-0.02-0.02-0.03-0.04-0.05-0.06
				c-1.9-2.2-5.2-3.46-7.67-4.9c-0.46-0.27-0.88,0.45-0.42,0.72c2.74,1.61,5.22,3.02,7.15,5.14c-0.09,0.2,0.12,0.43,0.33,0.38
				c0.8,0.96,1.51,2.06,2.07,3.38c0.02,0.05,0.04,0.09,0.06,0.14c-3.38,0.41-6.09-0.18-8.99-2.06c-1.51-0.98-2.95-2.08-4.76-2.42
				l-0.01,0c-0.68-0.93-0.66-2.4-1.23-3.44c-0.57-1.03-1.56-1.69-2.6-2.18c-0.06-0.03-0.12,0.06-0.06,0.09
				c0.86,0.47,1.68,1.06,2.2,1.91c0.55,0.89,0.57,1.87,0.86,2.85c0.07,0.24,0.16,0.47,0.28,0.69c-1.74-0.17-3.21,0.45-4.29,1.92
				c-0.11,0.15,0.14,0.34,0.26,0.2c1.35-1.71,2.84-2,4.36-1.62c0.33,0.41,0.78,0.7,1.37,0.74c0.1,0.01,0.16-0.07,0.18-0.15
				c2.16,1.06,4.33,2.97,6.19,3.68c2.13,0.81,4.3,0.71,6.5,0.4c0.74,1.68,1.54,3.47,1.89,5.25c0.71,3.61-0.67,5.57-2.99,8.1
				c-0.73,0.79-1.56,1.54-2.44,2.28c-3.58,0.73-6.88,1.24-10.62,1.11c-0.2-1,0.29-2.93,0.27-3.65c-0.03-0.95-0.22-1.89-0.53-2.79
				c-0.62-1.75-1.71-3.15-3.17-4.27c-0.12-0.09-0.29,0.12-0.17,0.21c2.18,1.73,3.54,4.33,3.46,7.16c-0.03,1.11-0.65,2.29-0.5,3.32
				c-0.03,0-0.06,0-0.09,0c-2.67-0.15-5.12-0.09-7.66,0.87c-4.33,1.64-7.51,5.01-9.2,9.26c-0.05,0.11,0.15,0.2,0.2,0.08
				c2.72-6.06,8.57-9.69,15.24-9.26c0.72,0.05,1.44,0.1,2.15,0.16c0.06,0.02,0.11,0.03,0.17,0.01c2.66,0.2,5.27,0.37,7.81-0.09
				c-2.77,2.21-5.5,4.53-6.71,7.71c-0.31,0.81-0.5,1.67-0.61,2.55c-4.84-0.16-9.28-2.17-14.01,0.17c-1.47,0.73-5.18,3.25-4.12,5.27
				c0.05,0.09,0.2,0.03,0.16-0.07c-0.68-1.74,2.49-3.85,3.74-4.51c1.91-1.02,4.02-1.35,6.17-1.28c2.72,0.09,5.29,1.06,7.98,1.35
				c-0.18,3.83,1.17,8.04,2.58,11.25c2.2,5.04,5.77,9.55,10.38,12.59c0.19,0.13,0.43-0.17,0.25-0.32
				c-5.91-5.04-10.31-11.21-11.68-18.99c-0.88-5,0.06-8.64,3.87-11.94c2.57-2.23,5.5-4.01,8.05-6.28c2.76-2.46,4.49-4.94,4.4-7.82
				c1.7-0.87,4.05-0.78,5.79-1.49c1.51-0.62,2.92-1.53,3.91-2.84c0.79-1.05,1.2-2.25,1.51-3.5c1.34,0.21,3.08,1.12,4.28,0.16
				c1.39-1.1,1.79-3.8,2.08-5.4C331.86,278.75,331.7,278.7,331.67,278.81z"/>
			<path class="st5" d="M148.06,208.4c-1.04,2.99-3.48,5.26-6.67,5.74c-4.44,0.65-8.55-2.33-13.01-1.28
				c-0.3,0.24-0.6,0.45-0.93,0.66v-1.11c0.52-0.32,1.02-0.7,1.5-1.13c3.95-3.6,3.82-9.01,2.92-13.84c-0.01-0.02,0.03-0.03,0.04-0.01
				c1.63,5.42,0.98,11.19-2.83,14.8c2.76-0.37,5.33,0.58,8.06,1.18c4.54,1,8.99-0.45,10.84-5.02
				C148,208.34,148.07,208.36,148.06,208.4z"/>
			<path class="st5" d="M140.37,236.62c-1.14,3.13-4.71,4.48-7.63,2.84c-1.97-1.11-3.42-2.73-5.35-3.79l0.01-0.7
				c0.64,0.32,1.2,0.72,1.75,1.13c0-0.02-0.01-0.03,0.01-0.06c0.87-1.77-0.1-3.77,0.5-5.67c0.4-1.27,1.19-2.27,2.23-3.07
				c0.04-0.04,0.1,0.04,0.05,0.08c-1.92,1.63-2.44,3.7-2.12,6.13c0.13,0.99,0.26,1.93-0.49,2.67c-0.02,0.02-0.04,0.02-0.05,0.03
				c1.04,0.8,2,1.7,3.15,2.49c2.8,1.91,6.39,1.02,7.8-2.13C140.27,236.48,140.4,236.55,140.37,236.62z"/>
		</g>
		<g>
			<g class="st1">
				<g>
					<polygon class="st8" points="334.31,295.87 334.25,317.22 247.57,367.6 247.63,346.25 					"/>
				</g>
				<g>
					<polygon class="st9" points="247.63,346.25 247.57,367.6 127.21,298.11 127.27,276.76 					"/>
				</g>
			</g>
		</g>
		<g class="st10">
			<path class="st11" d="M145.37,298.6c0.39,0,0.83-0.04,1.1-0.32c0.21-0.21,0.28-0.52,0.29-0.82c0.03-0.79-0.33-1.55-0.86-2.14
				c-0.53-0.59-1.2-1.02-1.9-1.39c-0.72-0.39-1.49-0.74-2.3-0.88c-2.29-0.39-3.87,1.15-2.15,3.05
				C140.98,297.69,143.27,298.58,145.37,298.6z"/>
			<path class="st11" d="M148.71,289.8c1.13,0.6,2.13,1.42,3.08,2.27c0.52,0.46,1.04,0.95,1.39,1.55c0.35,0.6,0.52,1.35,0.3,2.01
				c-0.35,1.01-1.53,1.54-2.59,1.44c-1.06-0.1-2.01-0.68-2.87-1.31c-1.15-0.84-2.23-1.81-3.03-2.99c-0.64-0.94-1.21-2.73-0.05-3.57
				C145.95,288.47,147.77,289.31,148.71,289.8z"/>
			<path class="st11" d="M134.51,293.11c-0.88-0.06-1.76-0.11-2.64-0.17c-0.45-0.03-0.91-0.06-1.34,0.09
				c-0.88,0.29-1.38,1.23-1.6,2.13c-0.2,0.8-0.23,1.67,0.12,2.41c0.43,0.9,1.36,1.46,2.32,1.72c0.96,0.26,1.96,0.27,2.95,0.36
				c0.67,0.06,1.35,0.16,2.03,0.08c0.67-0.08,1.36-0.38,1.72-0.95c0.37-0.57,0.36-1.29,0.27-1.96c-0.11-0.83-0.34-1.66-0.84-2.34
				C136.83,293.54,135.61,293.18,134.51,293.11z"/>
			<path class="st11" d="M141.68,303.86c0.23,0.31,0.56,0.53,0.92,0.68c1.37,0.6,4.4,0.85,5.39-0.5c0.79-1.08,0.58-2.84-0.47-3.65
				C145.52,298.84,139.56,301.02,141.68,303.86z"/>
			<path class="st11" d="M156.11,301.27c0.05-0.64,0.09-1.3-0.06-1.92c-0.66-2.73-5.66-1.63-5.24,0.95
				C151.15,302.41,155.92,303.88,156.11,301.27z"/>
			<path class="st11" d="M150.71,310.14c0.67,0.31,1.45,0.56,2.13,0.28c0.82-0.33,1.19-1.3,1.25-2.19c0.02-0.31,0.01-0.63-0.13-0.91
				c-0.18-0.36-0.53-0.58-0.87-0.79c-1-0.62-2.09-1.26-3.26-1.19c-1.09,0.07-2.57,0.9-2.35,2.16
				C147.7,308.76,149.7,309.67,150.71,310.14z"/>
			<path class="st11" d="M162.09,310.24c0.43-0.04,0.88-0.16,1.16-0.48c0.27-0.3,0.35-0.72,0.4-1.12c0.09-0.7,0.13-1.41,0.12-2.12
				c-0.01-0.62-0.06-1.26-0.36-1.81c-0.61-1.1-2.02-1.44-3.27-1.54c-1.69-0.14-7.16-0.42-5.73,2.8
				C155.43,308.25,159.68,310.47,162.09,310.24z"/>
			<path class="st11" d="M165.01,317.95c0.2-0.01,0.42-0.04,0.57-0.18c0.14-0.13,0.18-0.33,0.21-0.52c0.09-0.56,0.12-1.14,0.11-1.71
				c-0.01-0.39-0.05-0.8-0.27-1.13c-0.18-0.27-0.46-0.45-0.73-0.61c-1.21-0.71-2.53-1.21-3.86-1.62c-0.67-0.21-1.42-0.38-2.06-0.11
				c-1.9,0.81,0.34,3.32,1.16,4.07C161.44,317.35,163.23,318.05,165.01,317.95z"/>
			<path class="st11" d="M172.74,312.04c0.76-0.51,1.24-1.5,0.98-2.37c-0.24-0.81-1.01-1.34-1.77-1.7c-1.48-0.7-8.07-2.09-6.79,1.56
				C165.99,311.88,170.72,313.4,172.74,312.04z"/>
			<path class="st11" d="M172,321.85c0.59,0.33,1.35,0.59,1.91,0.21c0.36-0.24,0.53-0.69,0.6-1.11c0.19-1.05-0.07-2.17-0.69-3.03
				c-0.48-0.67-1.16-1.17-1.84-1.65c-0.86-0.6-1.73-1.18-2.62-1.72c-0.2-0.13-0.43-0.25-0.67-0.21c-1.45,0.27-0.32,3.22,0,3.91
				C169.39,319.74,170.55,321.03,172,321.85z"/>
			<path class="st11" d="M178.44,316.49c0.89,0.19,1.84,0.25,2.71-0.04c0.87-0.29,1.63-1,1.8-1.9c0.21-1.11-0.53-2.23-1.51-2.79
				c-0.98-0.56-2.14-0.69-3.27-0.76c-0.64-0.04-1.32-0.06-1.9,0.23c-0.61,0.3-1.02,0.92-1.23,1.57
				C174.24,315.34,176.21,316.02,178.44,316.49z"/>
			<path class="st11" d="M190.37,320.96c0.2-0.27,0.23-0.63,0.25-0.96c0.04-0.76,0.08-1.55-0.21-2.25
				c-0.31-0.73-0.96-1.28-1.69-1.61c-1.8-0.81-6.52-0.73-4.71,2.39C184.75,319.81,189.07,322.72,190.37,320.96z"/>
			<path class="st11" d="M180.6,322.86c0.8,0.22,1.83,0.24,2.27-0.47c0.2-0.32,0.22-0.72,0.23-1.1c0.01-0.56,0-1.12-0.18-1.65
				c-0.26-0.76-0.88-1.36-1.59-1.72c-0.71-0.37-1.51-0.52-2.31-0.58c-0.45-0.03-0.92-0.04-1.33,0.14
				C174.5,318.8,179.14,322.45,180.6,322.86z"/>
			<path class="st11" d="M185.39,329.63c0.17,0.03,0.35,0.06,0.5-0.04c0.15-0.1,0.19-0.3,0.22-0.49c0.15-1.08,0.21-2.31-0.5-3.15
				c-0.85-1-5.1-2.54-5.27-0.53C180.14,327.66,183.7,329.28,185.39,329.63z"/>
			<path class="st11" d="M191.64,329.01c0.72,0.25,1.54,0.38,2.21,0.02c0.73-0.4,1.06-1.34,0.88-2.15c-0.18-0.81-0.8-1.48-1.52-1.88
				c-0.73-0.4-1.56-0.57-2.39-0.67c-1.49-0.17-4.52-0.68-3.25,1.56C188.39,327.35,190.09,328.48,191.64,329.01z"/>
			<path class="st11" d="M197.86,319.78c-1.25-0.96-2.83-1.37-4.38-1.6c-0.29-0.04-0.6-0.07-0.84,0.09
				c-0.22,0.16-0.31,0.45-0.36,0.71c-0.55,2.84,0.36,6.11,3.61,5.65c0.93-0.13,3.32-0.07,3.74-0.75
				C200.4,322.63,198.76,320.47,197.86,319.78z"/>
			<path class="st11" d="M190.11,332.71c0.18,0.21,0.36,0.41,0.58,0.58c0.73,0.58,1.73,0.69,2.66,0.77
				c0.27,0.02,0.57,0.03,0.77-0.15c0.14-0.14,0.18-0.35,0.2-0.55c0.1-0.94-0.12-1.98-0.85-2.58c-0.43-0.36-0.99-0.52-1.53-0.67
				c-0.79-0.22-2.97-1.3-3.46-0.34C188.05,330.63,189.66,332.19,190.11,332.71z"/>
			<path class="st11" d="M196.69,333.09c0.15,0.22,0.33,0.43,0.57,0.55c0.42,0.2,0.93,0.08,1.37-0.08c0.82-0.29,1.63-0.68,2.24-1.3
				c0.62-0.62,1.02-1.49,0.92-2.35c-0.13-1.19-1.23-2.14-2.42-2.29C196.11,327.2,195.11,330.71,196.69,333.09z"/>
			<path class="st11" d="M205.69,329.01c0.43,0.1,0.93,0.15,1.26-0.15c0.22-0.2,0.3-0.52,0.37-0.81c0.13-0.56,0.25-1.16,0.03-1.69
				c-0.15-0.38-0.46-0.67-0.78-0.93c-1.07-0.9-5.05-3.68-5.58-0.8C200.6,326.75,204.13,328.63,205.69,329.01z"/>
			<path class="st11" d="M202.4,339.64c0.12,0,0.24-0.01,0.33-0.07c0.15-0.09,0.2-0.28,0.23-0.45c0.31-2.02-2.4-5.72-4.32-3.38
				C196.73,338.08,200.54,339.67,202.4,339.64z"/>
			<path class="st11" d="M208.87,338.56c0.39-0.31,0.56-0.84,0.59-1.34c0.05-1.01-0.4-2.01-1.08-2.77
				c-1.41-1.57-5.14-3.33-5.21,0.11C203.12,336.72,206.79,340.22,208.87,338.56z"/>
			<path class="st11" d="M216.19,336.47c0.2,0,0.42,0,0.59-0.11c0.21-0.13,0.32-0.38,0.38-0.63c0.25-0.98-0.03-2.04-0.56-2.9
				c-0.53-0.86-1.29-1.55-2.08-2.19c-0.58-0.47-1.19-0.92-1.9-1.15c-0.71-0.23-1.53-0.22-2.15,0.2
				C206.82,332.18,214.06,336.43,216.19,336.47z"/>
			<path class="st11" d="M215.06,345.94c0.18-0.02,0.37-0.05,0.5-0.17c0.12-0.11,0.17-0.28,0.2-0.43c0.35-1.62-0.51-3.34-1.87-4.3
				c-1.48-1.04-7.5-2.14-6.27,1.2C208.59,344.83,212.6,346.22,215.06,345.94z"/>
			<path class="st11" d="M220.48,342.1c0.21-0.68,0.4-1.39,0.34-2.1c-0.23-3.08-4.51-2.54-4.95,0.15
				C215.46,342.61,219.69,344.61,220.48,342.1z"/>
			<path class="st11" d="M226.28,337.36c0.07-0.93,0.11-1.94-0.43-2.7c-0.3-0.42-0.74-0.7-1.19-0.97c-1.08-0.64-3.2-2.13-4.5-2.08
				c-1.43,0.05-2.06,1.66-1.48,2.89C219.36,335.94,226.12,339.47,226.28,337.36z"/>
			<path class="st11" d="M227.03,347.93c0.69,0.24,1.53,0.14,2.04-0.39c0.5-0.52,0.58-1.31,0.55-2.03
				c-0.08-2.02-3.31-5.13-5.34-3.42C222.33,343.74,225.3,347.35,227.03,347.93z"/>
			<path class="st11" d="M233.48,344.22c0.43,0.04,0.89,0.02,1.24-0.22c0.62-0.43,0.64-1.34,0.45-2.06
				c-0.36-1.33-1.24-2.48-2.34-3.3c-1.1-0.82-2.41-1.33-3.76-1.62c-0.46-0.1-0.98-0.17-1.39,0.06c-1.55,0.87-0.59,3.45,0.32,4.36
				C229.33,342.76,231.61,344.05,233.48,344.22z"/>
			<path class="st11" d="M220.66,351.07c0.9,0.91,2.13,1.5,3.41,1.62c0.37,0.03,0.77,0.02,1.05-0.23c0.19-0.17,0.29-0.43,0.33-0.68
				c0.24-1.41-0.85-2.67-1.87-3.67c-0.9-0.89-1.86-1.8-3.09-2.1c-0.21-0.05-0.46-0.08-0.62,0.07
				C218.6,347.28,219.71,350.11,220.66,351.07z"/>
			<path class="st11" d="M233.43,358.04c0.44,0.04,0.91,0.03,1.26-0.23c0.43-0.32,0.56-0.9,0.65-1.43c0.17-0.98,0.32-2.05-0.18-2.9
				c-0.57-0.98-1.78-1.34-2.87-1.62c-1.99-0.5-5.13-0.14-4,2.63C229.08,356.44,231.41,357.84,233.43,358.04z"/>
			<path class="st11" d="M237.84,351.56c0.43,0.08,0.93,0.09,1.23-0.23c0.19-0.2,0.25-0.48,0.27-0.75c0.07-1.04-0.45-2.03-1.12-2.83
				c-1.4-1.66-3.54-2.67-5.71-2.68c-0.14,0-0.28,0-0.4,0.07c-0.11,0.06-0.18,0.17-0.24,0.28c-0.61,1.2,1.13,2.65,1.85,3.54
				C234.79,350.28,236.16,351.26,237.84,351.56z"/>
			<path class="st11" d="M242.21,348.03c0.42,0.16,0.94,0.28,1.3,0c0.21-0.16,0.31-0.43,0.37-0.69c0.31-1.54-0.86-2.97-2.03-4.02
				c-1.07-0.97-4.95-2.61-4.44,0.25C237.73,345.33,240.7,347.44,242.21,348.03z"/>
			<path class="st11" d="M246.7,353.81c0.94-2.75-4.18-6.96-5.35-3.34C240.38,353.47,245.46,357.43,246.7,353.81z"/>
			<path class="st11" d="M239.27,360.44c1.2,1.13,2.95,1.78,4.54,1.33c1.59-0.45,2.8-2.21,2.33-3.79c-0.67-2.26-4.67-3.57-6.77-3.24
				C235.94,355.29,237.61,358.88,239.27,360.44z"/>
			<path class="st11" d="M131.28,290.84c0.92,0.36,1.91,0.64,2.9,0.57c0.99-0.07,1.99-0.54,2.51-1.39c0.64-1.06,0.36-2.52-0.45-3.46
				c-0.81-0.94-2.04-1.43-3.27-1.61c-1.84-0.26-3.56,0.49-4.28,2.3C127.97,289.02,129.86,290.29,131.28,290.84z"/>
			<path class="st11" d="M141.04,291.46c0.59,0.21,1.32,0.25,1.78-0.17c0.26-0.25,0.39-0.6,0.49-0.95c0.25-0.86,0.41-1.78,0.23-2.66
				c-0.4-1.99-3.16-3.22-4.64-1.51C137.31,287.98,139.15,290.79,141.04,291.46z"/>
			<path class="st11" d="M131.75,284.72c0.45,0.09,0.97,0.07,1.28-0.27c0.17-0.19,0.24-0.44,0.3-0.69c0.09-0.4,0.16-0.81,0.08-1.21
				c-0.12-0.62-0.57-1.12-1.01-1.57c-0.96-0.98-3.37-1.35-3.61,0.53C128.61,283.02,130.44,284.46,131.75,284.72z"/>
			<path class="st11" d="M159.18,301.41c0.95,0.52,2.08,0.65,3.15,0.54c0.24-0.02,0.49-0.06,0.69-0.19c0.33-0.2,0.49-0.59,0.55-0.97
				c0.12-0.74-0.09-1.51-0.49-2.14c-0.4-0.63-0.98-1.14-1.61-1.54c-1.17-0.75-2.55-1.16-3.94-1.17c-0.23,0-0.48,0.02-0.63,0.19
				c-0.13,0.14-0.15,0.34-0.15,0.53c-0.01,0.91,0.41,1.77,0.64,2.62C157.65,300.19,158.36,300.96,159.18,301.41z"/>
			<path class="st11" d="M165.41,304.53c0.38,0.49,0.91,0.86,1.47,1.15c0.71,0.37,1.49,0.65,2.29,0.6c0.25-0.02,0.5-0.07,0.7-0.21
				c0.37-0.26,0.47-0.76,0.52-1.21c0.07-0.6,0.09-1.24-0.2-1.77c-0.2-0.36-0.53-0.62-0.87-0.84c-0.62-0.41-1.31-0.7-2.03-0.87
				c-0.6-0.14-1.26-0.19-1.82,0.09C164.23,302.07,164.76,303.68,165.41,304.53z"/>
			<path class="st11" d="M174.19,308.78c0.91,0.96,2.32,1.41,3.62,1.16c0.2-0.04,0.39-0.09,0.55-0.21c0.3-0.22,0.42-0.63,0.39-1.01
				c-0.06-0.79-0.62-1.44-1.16-2.03c-0.48-0.52-1-1.07-1.69-1.24C173.66,304.9,172.79,307.29,174.19,308.78z"/>
			<path class="st11" d="M156.22,313.51c0.17-0.04,0.33-0.1,0.46-0.21c0.24-0.19,0.34-0.5,0.42-0.8c0.24-0.93,0.57-2.34-0.33-3.01
				c-0.66-0.49-1.45-0.35-2.04,0.18C153.24,311.01,153.85,314.05,156.22,313.51z"/>
			<path class="st11" d="M187.33,315.44c0.11,0.02,0.22,0.04,0.32-0.02c0.09-0.05,0.14-0.14,0.18-0.24
				c0.24-0.52,0.42-1.13,0.19-1.66c-0.33-0.76-1.27-0.98-1.95-1.33c-0.68-0.36-1.33-0.8-1.86,0.05
				C183.23,313.8,186.18,315.22,187.33,315.44z"/>
			<path class="st11" d="M206.23,332.11c0.44,0.12,0.9,0.22,1.35,0.12c0.44-0.1,0.86-0.44,0.91-0.9c0.03-0.32-0.12-0.64-0.35-0.86
				c-0.23-0.22-0.52-0.37-0.82-0.49c-0.76-0.31-2.92-1.1-3.44-0.01C203.34,331.12,205.48,331.9,206.23,332.11z"/>
			<path class="st11" d="M210.82,328.69c0.57-0.16,1.01-0.7,1.09-1.29c0.02-0.19,0.02-0.38-0.05-0.56c-0.34-0.9-2.47-1.53-2.85-0.38
				C208.64,327.55,209.6,329.03,210.82,328.69z"/>
			<path class="st11" d="M210.69,338.48c0.45,0.71,1.4,1.02,2.21,0.8c0.3-0.08,0.58-0.22,0.82-0.41c0.25-0.2,0.45-0.45,0.55-0.74
				c0.1-0.3,0.09-0.64-0.07-0.91c-0.24-0.4-0.74-0.56-1.11-0.85c-0.63-0.5-1.44-1.38-2.29-0.6
				C210.17,336.35,210.27,337.82,210.69,338.48z"/>
			<path class="st11" d="M205.86,339.5c-0.37-1.71-2.54-0.13-2.15,1.26c0.14,0.48,0.5,0.88,1.04,0.85
				C205.64,341.55,206.02,340.23,205.86,339.5z"/>
			<path class="st11" d="M194.76,335.94c0.2,0.54,0.63,1.01,1.18,1.17c0.15,0.04,0.32,0.06,0.47,0.02c0.24-0.07,0.41-0.27,0.53-0.48
				c0.42-0.73,0.4-1.7-0.05-2.42c-0.17-0.26-0.38-0.48-0.62-0.68C194.8,332.36,194.42,335.04,194.76,335.94z"/>
			<path class="st11" d="M228.82,348.58c-0.47,0.32-0.95,0.72-1.07,1.27c-0.03,0.13-0.03,0.28,0.05,0.38
				c0.07,0.09,0.19,0.13,0.31,0.15c1.05,0.24,2.17,0.16,3.18-0.22c0.28-0.11,0.56-0.25,0.72-0.49c0.44-0.66,0.3-1.95-0.62-2.03
				C230.58,347.57,229.46,348.14,228.82,348.58z"/>
			<path class="st11" d="M222.67,340.63c0.38,0.41,0.9,0.72,1.46,0.73c0.15,0,0.3-0.02,0.42-0.1c0.11-0.08,0.17-0.21,0.22-0.34
				c0.19-0.48,0.28-1.01,0.24-1.53c-0.02-0.23-0.06-0.46-0.19-0.65c-0.21-0.3-0.59-0.41-0.94-0.5c-0.67-0.17-1.79-0.32-2.05,0.58
				C221.65,339.43,222.29,340.22,222.67,340.63z"/>
			<path class="st11" d="M216.19,348.92c0.36,0.19,0.82,0.19,1.17-0.01c0.56-0.32,0.78-1.01,0.89-1.65
				c0.05-0.28,0.08-0.59-0.05-0.84c-0.09-0.18-0.26-0.31-0.42-0.44c-0.64-0.51-1.86-0.72-2.28,0.17
				C215.14,346.98,215.33,348.46,216.19,348.92z"/>
			<path class="st11" d="M246.07,365.83c0.05,0.03,0.1,0.06,0.16,0.05c0.09-0.02,0.12-0.12,0.14-0.21c0.13-0.67,0.2-1.35,0.23-2.04
				c0.01-0.32,0.01-0.66-0.16-0.93c-0.11-0.18-0.28-0.31-0.46-0.41c-0.85-0.49-2.57-0.21-2.43,1.07
				C243.67,364.44,245.27,365.33,246.07,365.83z"/>
			<path class="st11" d="M177.79,326.4c0.47,0.11,1.05,0.09,1.31-0.31c0.12-0.18,0.14-0.4,0.15-0.61c0.02-0.5-0.02-1-0.12-1.49
				c-0.09-0.42-0.24-0.84-0.53-1.15c-0.23-0.24-0.53-0.4-0.83-0.54c-0.34-0.16-0.68-0.3-1.05-0.34c-0.57-0.07-1.41,0.13-1.77,0.62
				c-0.33,0.45-0.11,0.99,0.11,1.49C175.56,325.19,176.58,326.11,177.79,326.4z"/>
			<path class="st11" d="M172.99,315.95c0.23,0.13,0.55,0.21,0.73,0.02c0.07-0.07,0.1-0.17,0.13-0.27c0.11-0.41,0.12-0.86-0.02-1.26
				c-0.14-0.4-0.44-0.76-0.84-0.91c-0.28-0.11-0.59-0.11-0.89-0.08c-0.24,0.02-0.66,0.07-0.82,0.28c-0.28,0.35-0.11,0.38,0.15,0.68
				C171.89,314.95,172.35,315.58,172.99,315.95z"/>
			<path class="st11" d="M139.63,303.75c0.18,0.05,0.39,0.09,0.54-0.02c0.1-0.07,0.15-0.2,0.19-0.32c0.23-0.69,0.32-1.41,0.29-2.14
				c-0.02-0.32-0.06-0.66-0.26-0.91c-0.23-0.31-0.63-0.45-1.01-0.53c-0.75-0.17-1.55-0.19-2.31-0.01c-0.55,0.13-1.87,0.56-1.9,1.27
				c-0.03,0.72,1.35,1.32,1.86,1.61C137.86,303.14,138.73,303.49,139.63,303.75z"/>
			<path class="st11" d="M151.51,304.69c0.18-0.07,0.31-0.24,0.39-0.42c0.16-0.38,0.13-0.82,0-1.21c-0.37-1.06-1.81-2.93-2.52-1.09
				C148.92,303.16,150,305.28,151.51,304.69z"/>
			<path class="st11" d="M136.05,292.39c0.1,0.39,0.55,0.56,0.94,0.64c0.39,0.08,0.79,0.11,1.19,0.1c0.13,0,0.26-0.02,0.36-0.1
				c0.08-0.07,0.12-0.17,0.15-0.27c0.25-0.75,0.7-2.39-0.56-2.34C137.33,290.45,135.8,291.48,136.05,292.39z"/>
			<path class="st11" d="M136.76,286.18c0.15,0.12,0.32,0.23,0.51,0.23c0.32-0.01,0.51-0.36,0.6-0.66c0.19-0.61,0.23-1.32-0.15-1.83
				c-0.37-0.48-1.01-0.64-1.55-0.91c-0.66-0.32-2.35-0.85-1.83,0.56C134.71,284.57,135.94,285.55,136.76,286.18z"/>
			<path class="st11" d="M127.75,291.51c-0.16,0.35-0.15,0.76,0.01,1.11c0.07,0.16,0.18,0.31,0.33,0.4c0.14,0.1,0.32,0.14,0.49,0.16
				c0.47,0.06,0.97-0.02,1.36-0.29c0.39-0.26,0.66-0.72,0.64-1.19c-0.01-0.17-0.06-0.35-0.19-0.47c-0.07-0.07-0.17-0.11-0.26-0.13
				c-0.32-0.09-0.84-0.18-1.18-0.23C128.44,290.8,127.97,291.04,127.75,291.51z"/>
			<path class="st11" d="M166.37,313.6c0.05,0.02,0.11,0.03,0.15,0c0.04-0.02,0.05-0.08,0.06-0.12c0.05-0.23,0.08-0.46,0.11-0.7
				c0.02-0.17,0.03-0.35-0.03-0.52c-0.1-0.31-0.4-0.51-0.69-0.66c-0.54-0.28-3.02-1.33-2.88,0.03
				C163.2,312.67,165.55,313.32,166.37,313.6z"/>
			<path class="st11" d="M166.19,319.93c0.3,0.33,0.61,0.66,0.97,0.91c0.37,0.25,0.81,0.43,1.25,0.4c0.04,0,0.09-0.01,0.13-0.03
				c0.04-0.03,0.06-0.08,0.08-0.13c0.3-0.82,0.05-1.8-0.59-2.39c-0.57-0.52-1.61-0.82-2.35-0.48
				C164.77,318.62,165.75,319.45,166.19,319.93z"/>
			<path class="st11" d="M185.58,324.58c0.1,0,0.2,0,0.28-0.05c0.1-0.06,0.16-0.16,0.21-0.26c0.3-0.58,0.5-1.21,0.59-1.85
				c0.05-0.31,0.07-0.63-0.04-0.92c-0.48-1.31-2.5-0.79-2.87,0.35C183.42,322.88,184.5,324.53,185.58,324.58z"/>
			<path class="st11" d="M191.02,317.11c0.27,0.18,0.56,0.34,0.88,0.38c0.32,0.04,0.67-0.05,0.88-0.3c0.22-0.27,0.21-0.68,0.07-0.99
				c-0.15-0.32-0.42-0.56-0.69-0.77c-0.49-0.37-2.48-1.85-2.9-0.98C188.75,315.46,190.37,316.67,191.02,317.11z"/>
			<path class="st11" d="M182.36,311.31c0.09,0,0.19,0,0.28-0.04c0.12-0.07,0.17-0.21,0.2-0.35c0.1-0.56-0.13-1.15-0.54-1.54
				c-0.51-0.49-2.79-1.2-2.5,0.17C180.01,310.54,181.45,311.27,182.36,311.31z"/>
		</g>
		<path class="st12" d="M334.33,288.42v2.87c-2.33,0.36-5.01,1.29-6.29,1.66c-2.56,0.74-5.07,1.63-7.52,2.71
			c-4.57,2.02-8.86,4.63-12.92,7.51c-0.84,0.59-1.67,1.2-2.48,1.83c-0.67,0.51-1.34,1.02-1.99,1.55
			c-6.77,5.42-12.86,11.61-19.26,17.48c-1.44,1.32-2.92,2.67-4.43,4.02c-1.76,1.57-3.58,3.13-5.46,4.62
			c-4.34,3.45-8.98,6.51-14,8.44c-2.69,1.04-5.42,1.47-8.19,1.62c-1.38,0.08-2.76,0.09-4.16,0.07c-0.3,0-0.59-0.01-0.89-0.01
			c-0.61-0.01-1.22-0.03-1.83-0.04c-0.77-0.02-1.74,0.29-2.94,0.24l-0.52-4.22c1.86-0.62,4.02-0.62,6.2-0.52
			c1.14,0.04,2.3,0.12,3.41,0.16c1.23,0.03,2.43,0,3.53-0.19c1.25-0.22,2.46-0.55,3.64-0.99c2.09-0.75,4.09-1.8,6.01-2.98
			c1.91-1.16,3.74-2.45,5.51-3.73c0.51-0.37,1.01-0.74,1.52-1.12c3.12-2.31,6.09-4.79,9.04-7.34c0.51-2.19,1.22-4.69,1.4-6.91
			l1.42,0.28c-0.1,1.59-0.32,3.18-0.65,4.74c4.14-3.66,8.18-7.43,12.32-11.08c2.54-2.24,5.15-4.43,7.86-6.5
			c0.58-0.45,1.18-0.9,1.78-1.34c4.7-3.46,9.66-6.5,15.03-8.81C321.92,291.39,329.25,288.39,334.33,288.42z"/>
		<path class="st13" d="M334.32,296.22l-0.01,2.81c-9.92,0.87-17.15,7.14-24.34,13.87c-0.43,0.4-0.86,0.8-1.29,1.2
			c-5.58,5.14-11.41,9.96-18.19,13.45c-3.5,1.8-7.2,3.27-11.03,4.22c-0.61,0.15-1.23,0.28-1.85,0.39c-1.2,0.21-2.4,0.37-3.61,0.5
			c-2.79,0.31-5.59,0.51-8.3,1.18c-0.49,0.12-0.98,0.25-1.45,0.41c-2.16,0.7-4.15,1.73-6.01,2.98c-2.32,1.55-4.44,3.46-6.43,5.49
			c-1.46,1.48-2.84,3.04-4.17,4.58c-0.61,0.7-1.2,1.4-1.8,2.09l-3.02-2.15c1.27-1.46,2.57-2.97,3.94-4.46
			c0.3-0.32,0.59-0.65,0.9-0.96c1.1-1.18,2.23-2.32,3.42-3.41c3.33-3.11,7-5.78,11.15-7.29c1.95-0.72,3.95-1.08,5.97-1.35
			c0.14-1.85,0.59-3.62,0.38-5.54c-0.04-0.4-0.11-0.79-0.2-1.16c-2.81,0.45-6-0.07-8.54-1.34c-1.4-0.7-2.65-1.66-3.63-2.89
			c-1.35-1.71-1.99-5.19-5.1-4.87c-0.11,0.01-0.11-0.15,0-0.17c2.29-0.31,3.13,1.28,4.26,2.99c3.25,4.97,7.37,5.47,12.81,5.45
			c-0.53-1.8-1.47-3.4-2.64-4.97c-1.75-2.33-3.86-4.51-4.43-7.47c-1.06-5.54,3.03-9.98,7.64-12.25c0.08-0.04,0.15,0.07,0.07,0.11
			c-5.08,2.92-8.97,7.69-6.49,13.75c1.18,2.86,4.28,4.67,5.96,7.25c1.91,2.93,2.99,7.58,1.42,10.91c0.52-0.06,1.04-0.11,1.56-0.17
			c1.72-0.17,3.44-0.36,5.14-0.67c1.02-0.19,2.03-0.42,3.04-0.69c3.65-0.98,7.16-2.47,10.48-4.27c3.82-2.09,7.26-4.63,10.57-7.33
			c1.6-3.18,2.78-6.23,2.64-9.89c0-0.1,0-0.21-0.01-0.31c-0.07-1.2-0.24-2.43-0.48-3.65c-0.45-2.3-1.14-4.61-1.85-6.77
			c-0.72-2.2-1.8-4.22-2.93-6.19c-7.42-1.34-12.95-7.16-16.36-13.58c-2.16-4.07-3.94-8.56-7.56-11.6
			c-2.98-2.51-6.83-3.19-10.57-2.44c-2.19,0.45-6.5,1.48-7.48,3.82c-0.11,0.27-0.52,0.07-0.45-0.18c0.77-3.28,6.22-4.64,9.13-5.04
			c4.26-0.59,8.2,0.75,11.29,3.71c3.88,3.72,5.69,8.92,8.42,13.43c3.15,5.21,7.61,8.2,12.89,10.68c-1.43-2.44-2.88-4.86-3.82-7.53
			c-2.62-7.47,2.52-18.25,9.36-21.82c0.16-0.09,0.31,0.16,0.14,0.24c-5.28,2.96-7.95,8.9-8.97,14.68
			c-1.27,7.27,4.22,11.63,7.15,17.61c0.93,1.91,1.74,3.92,2.41,5.98c3.04-4.73,4.79-10.25,8.37-14.64
			c4.4-5.41,11.41-6.33,16.21-10.97c0.11-0.11,0.27,0.05,0.17,0.17c-3.95,4.95-11.07,5.81-15.16,10.99
			c-3.84,4.86-5.3,11.13-8.82,16.22c-0.06,0.08-0.13,0.13-0.19,0.18c0.16,0.57,0.3,1.14,0.43,1.72c0.29,1.24,0.52,2.49,0.7,3.75
			c0.04,0.31,0.08,0.64,0.11,0.95c0.28,2.59-0.1,4.92-0.86,7.18c2.92-2.55,5.82-5.15,8.86-7.61
			C319.23,300.68,326.48,296.36,334.32,296.22z"/>
		<path class="st12" d="M328.6,232.66c-1.92,4.05-3.49,8.26-7.61,10.62c-3.58,2.05-7.84,2.29-11.76,3.23
			c-2.66,0.64-7.73,2.38-9.6,5.3c-0.05-0.85-0.05-1.71,0.04-2.59c0.93-8.39,9.65-12.66,13.99-19.19c0.28-0.42-0.39-0.81-0.67-0.39
			c-3.98,5.93-11.24,9.64-13.88,16.46c-2.41,6.2,0.37,12.48,3.12,18.04c0.61,1.23,1.21,2.47,1.77,3.71
			c-8.21,2.41-17.03-0.7-25.5-1.13c-2.1-1.35-4.19-2.76-6.04-4.44c-1.76-1.6-3.17-3.59-5.03-5.07c-2.34-1.86-5.12-2.63-7.74-1
			c-0.13,0.08-0.02,0.26,0.12,0.2c5.65-2.63,8.85,3.15,12.23,6.3c1.6,1.49,3.38,2.76,5.19,3.97c-0.69-0.01-1.38-0.01-2.06,0.02
			c-6.41,0.32-12.48,3.4-16.26,8.61c-0.04,0.06,0.05,0.12,0.1,0.07c5.96-6.39,12.39-7.95,20.13-7.45c0.12,0.08,3.23,0.29,4.48,0.47
			c6.81,0.97,14.22,2.81,20.97,0.82c1.05,2.58,1.82,5.24,1.85,8.14c0.05,4.18-1.06,8.31-2.3,12.27c-1.33,4.27-2.81,8.53-4.72,12.58
			c-1.57,3.32-3.67,6.38-4.68,9.93c-0.06,0.22,0.28,0.37,0.37,0.16c5.51-12.18,16.11-26.17,12.2-40.38
			c-1.66-6.06-6.04-11.54-7.34-17.69c2.96-7.36,12.88-6.53,19.1-9.06c5.28-2.15,8.39-7.01,10.29-12.2
			C329.5,232.54,328.8,232.24,328.6,232.66z"/>
		<path class="st13" d="M311.31,226.38c0.03-0.05-0.04-0.08-0.07-0.04c-3.77,5.77-2.38,12-1.37,18.27
			c-0.06,0.01-0.13,0.03-0.19,0.07c-12.17,7.43-28.11-4.75-39.72,5.68c-0.07,0.06,0.03,0.15,0.1,0.1
			c12.21-10.22,27.68,3.48,39.99-4.71c0.36,2.43,0.62,4.86,0.44,7.27c-0.82,11.23-9.31,20.11-15.54,28.84
			c-0.59,0.83,0.75,1.56,1.34,0.78c5.77-7.56,12.76-15.62,14.91-25.13C313.56,247.12,305.68,236.1,311.31,226.38z"/>
		<path class="st12" d="M285.35,275.78c-0.7,3.79-0.85,9.26-3.41,12.32c-2.89,3.44-7.12,2.31-10.74,4.25
			c-0.45,0.24-0.05,0.93,0.4,0.68c3.47-1.9,7.75-0.83,10.4-4.27c2.7-3.5,2.81-8.75,3.53-12.94
			C285.55,275.71,285.37,275.65,285.35,275.78z"/>
		<path class="st12" d="M250.54,328.97c-0.68-0.32-2.17-0.99-2.87-1.25c-10.19-3.89-21.82-1.89-32.2-5.43
			c-4.36-1.49-8.56-3.47-12.65-5.69c-0.13-0.07-0.26-0.14-0.39-0.22c-5.93-3.24-11.65-6.97-17.34-10.4
			c-10.44-6.3-20.69-12.93-30.26-20.51c-4.34-3.43-8.49-7.12-12.96-10.37c-1.13-0.83-2.52-1.86-4.05-2.88
			c-0.18-0.12-0.38-0.24-0.57-0.38c-0.1-0.07-0.22-0.14-0.33-0.21c-0.32-0.21-0.65-0.41-0.98-0.62c-2.77-1.68-5.83-3.11-8.65-3.27
			l0.01-3.95c1.89-0.08,3.8,0.23,5.69,0.8c0.11,0.03,0.24,0.07,0.35,0.1c2.54,0.81,5.05,2.1,7.42,3.57
			c0.15,0.08,0.29,0.17,0.43,0.26c3.29,2.08,6.31,4.5,8.81,6.5c7.7,6.17,20.42,16.99,32.22,23.19c8.03,4.22,15.92,9.92,24.17,14.36
			c0.16,0.09,0.31,0.17,0.48,0.25c3.48,1.85,7.03,3.47,10.69,4.65c9.82,3.19,20.35,1.89,30.13,4.81c1.59,0.47,3.62,1.18,5.16,1.91
			L250.54,328.97z"/>
		<path class="st13" d="M249.11,339.65c-0.51-0.27-1-0.56-1.47-0.87c-4.51-2.86-7.95-7.03-12.01-10.5
			c-4.65-3.99-9.86-7.34-15.36-10.04c-5.5-2.72-11.35-4.66-17.36-5.92c-6.33-1.32-12.61-2.09-18.65-4.57
			c-10.73-4.4-31.73-18.98-31.82-19.9c-0.01-0.07-8.12-8.33-11.22-13.27c-1.55-2.49-6.23-10.27-13.92-13.48l0.02-5.84
			c3.78,1.25,9.01,4.94,11.17,6.95c0.35-0.41,0.68-0.84,0.94-1.31c2.03-3.65,0.79-7.28,0.54-11.11c-0.04-0.6-0.66-6.63,1.67-5.12
			c0.22,0.14,0.03,0.45-0.2,0.34c-1.15-0.55-0.04,8.47,0.07,9.31c0.14,1.17,0.24,2.34,0.07,3.51c-0.3,2.09-1.22,3.65-2.31,5.13
			c4.98,5.04,8.36,12.58,12.96,17.44c0.43-10.39,3.8-20.82,9.25-29.53c0.65-1.05,1.35-2.07,2.05-3.08c-0.1-0.06-0.19-0.15-0.26-0.27
			c-3.61-5.95-11.53-7.12-14.47-13.72c-3.57-7.98-1.89-17.34-4.78-25.54c-0.03-0.1,0.11-0.13,0.15-0.04
			c2.03,4.92,2.24,10.42,3.03,15.7c0.29-2.1,1.76-3.42,3.95-4.42c2.44-1.11,5.27-1.86,7.26-3.78c1.75-1.69,2.62-3.94,3.04-6.28
			c0.17-0.93,0.25-1.89,0.31-2.83c0.01-0.12,0.19-0.12,0.19,0c0.01,0.95-0.04,1.92-0.18,2.87c-0.35,2.44-1.25,4.77-3.05,6.55
			c-1.46,1.45-3.39,2.24-5.22,3.13c-3.13,1.5-4.62,3.2-5.81,6.51c-0.03,0.07-0.1,0.11-0.17,0.14c0.48,2.62,1.18,5.17,2.39,7.54
			c3.18,6.21,10.95,7.33,14.58,13.1c2.65-3.75,5.44-7.41,7.57-11.5c1.87-3.57,2.89-7.09,3.09-10.62c0.23-4.09-0.66-8.18-2.65-12.39
			c-0.07-0.15,0.13-0.27,0.22-0.13c2.4,3.71,3.39,7.47,3.38,11.19c0,3.95-1.1,7.85-2.79,11.62c5.15,0.21,9.51,5.26,14.17,7.13
			c2.91,1.16,5.6,1.46,8.18,1.18c1.06-1.82,1.89-3.39,2.03-5.67c0.02-0.24,0.03-0.47,0.04-0.71c0.05-0.98,0.11-1.89,0.41-2.86
			c0.7-2.27,2.07-4,4.01-5.33c0.05-0.04,0.11,0.05,0.06,0.09c-2.66,2.26-3.58,4.78-3.87,7.94c-0.04,0.43-0.06,0.86-0.08,1.3
			c-0.08,1.87-0.71,3.54-1.63,5.11c4.55-0.78,8.73-3.34,12.96-6.24c0.03-0.02,0.05-0.02,0.07,0c0.04,0.02,0.07,0.08,0.03,0.11
			c-0.01,0.01-0.02,0.02-0.03,0.02c-4.11,3.34-8.56,6.55-13.75,7.24c-0.02,0.03-0.04,0.07-0.07,0.1c-0.18,0.26-0.52,0.17-0.63-0.04
			c-1.03,0.09-2.09,0.09-3.18-0.04c-0.44-0.05-0.86-0.12-1.28-0.22v-0.42h-1.57c-5.83-1.86-10.29-6.69-16.29-7.76
			c-1.53,3.23-3.44,6.35-5.42,9.3c-4.24,6.33-8.04,12.69-10.27,20.05c-1.77,5.86-2.44,11.79-2.51,17.81
			c4.42,3.97,9.42,7.26,14.36,10.53c1.37,0.91,13.02,8.01,17.26,9.73c4.93,2,10.08,2.8,15.24,3.78c2.41-2.32,4.69-4.93,5.56-8.22
			c1.15-4.36-0.93-7.26-2.56-11.01c-1.2-2.76-1.55-5.56,0.42-8c0.08-0.1,0.24,0.03,0.17,0.13c-4.02,5.46,3.42,11.12,3.11,16.91
			c-0.23,4.14-2.58,7.52-5.32,10.45c0.93,0.17,1.84,0.37,2.77,0.58c5.73,1.29,11.29,3.29,16.59,5.82c1.32,0.63,2.61,1.3,3.89,2.01
			c3.85-4.34,5.43-8.7,4.85-14.99c-0.34-3.85-1.21-7.64-0.87-11.49c-7.26-6.75-9.11-16.85-5.09-25.84c0.04-0.11,0.23-0.04,0.18,0.08
			c-3.41,8.83-1.45,17.73,5.1,24.35c0.01-0.09,0.02-0.17,0.04-0.26c1.33-7.12,6.28-12.91,12.92-15.62c0.19-0.08,0.32,0.25,0.14,0.34
			c-4.91,2.16-8.73,5.91-10.78,10.89c-2.18,5.28-1.15,10.39-0.2,15.83c1.12,6.31,0.52,13.44-4.3,17.85
			c3.13,1.87,6.14,3.95,8.98,6.22c3.68,2.93,6.85,6.63,10.54,9.59c1.27,1.03,2.62,1.97,4.07,2.76
			C254.7,336.74,252.06,341.25,249.11,339.65z"/>
		<path class="st12" d="M189.06,222.22c-2.32,2.31-4.46,4.72-7.26,6.48c-3.3,2.07-6.77,2.5-10.56,2.84
			c-2.56,0.23-8.33,0.29-10.21,2.77c-1.33-3.04-2.27-6.27-2.09-9.61c0.2-3.85,2.1-7.31,2.34-11.15c0.01-0.11-0.16-0.13-0.19-0.03
			c-1.39,5.93-3.88,10.84-2.52,17.06c1.38,6.32,4.82,11.86,7.98,17.39c4.26,7.46,2.68,18.58,2.24,20.57
			c-0.72,3.2-1.89,6.28-3.53,9.13c-1.47,2.56-3.76,4.51-5.15,7.06c-0.33,0.6,0.33,1.25,0.92,0.92c4.29-2.32,7.04-8.55,8.55-12.97
			c1.88-5.53,2.33-11.51,1.23-17.24c-1.27-6.62-5.06-12.01-8.17-17.85c-0.39-0.73-0.76-1.48-1.12-2.24c0.1-0.07,0.16-0.18,0.15-0.31
			c0-0.04-0.01-0.08-0.01-0.12c-0.02-0.24-0.24-0.39-0.45-0.38c1.1-0.6,4.69-1.48,5.51-1.64c1.72-0.35,3.47-0.45,5.2-0.63
			c2.47-0.25,4.93-0.58,7.25-1.54c4.06-1.68,7.42-4.95,9.98-8.45C189.19,222.23,189.11,222.17,189.06,222.22z"/>
		<path class="st12" d="M237.57,303.93c-4.23-1.4-8.46,0.01-12.07-3.35c-3.04-2.83-5.32-6.59-7.8-9.94c2.51,0.3,4.96,0.88,7.65,1.62
			c2.98,0.82,6.15,1.32,9.04-0.1c6.2-3.05,8.79-12.26,9.78-18.48c0.02-0.1-0.13-0.15-0.16-0.04c-1.33,5.31-3.89,14.01-9.25,17.2
			c-0.05-1.63-0.14-3.26-0.53-4.85c-0.52-2.12-1.59-4.01-1.79-6.22c-0.41-4.69,2.14-9.02,6.1-11.37c0.1-0.06,0.01-0.22-0.09-0.16
			c-3.21,1.87-5.46,4.88-6.21,8.55c-0.34,1.65-0.32,3.33,0.03,4.99c0.7,3.25,1.68,6.06,1.79,9.44c-1.16,0.56-2.43,0.88-3.85,0.85
			c-6.15-0.09-11.27-3.53-17.48-2.62c-1.45-5.17-1.95-10.48,1.19-15.32c1.65-2.54,3.82-4.81,5.76-7.13c2.18-2.6,4.97-7.62,8.96-6.62
			c0.14,0.03,0.19-0.16,0.06-0.21c-4.47-1.66-7.84,4.58-10.28,7.41c-2.35,2.73-4.97,5.36-6.56,8.55c-0.89-1.31-2.04-2.42-2.83-3.81
			c-1.27-2.24-1.58-4.97-1.37-7.5c0.35-4.13,1.94-10.71,5.25-13.42c0.07-0.05-0.02-0.16-0.09-0.12c-3.69,2.24-5.11,8.92-5.72,12.81
			c-0.33,2.15-0.35,4.38,0.25,6.5c0.75,2.64,2.66,4.4,3.98,6.71c-0.34,0.86-0.6,1.76-0.76,2.72c-0.54,3.31-0.06,6.56,0.76,9.75
			c-0.23,0.21-0.14,0.69,0.19,0.73c0.66,2.43,1.47,4.83,2.14,7.22c2.13,7.58,1.41,14.48-3.9,20.56c-0.92,1.05,0.53,2.55,1.55,1.55
			c7.84-7.73,5.74-17.49,2.54-26.82c-0.29-0.85-0.57-1.7-0.83-2.56c1.32-0.05,2.59,0,3.83,0.12c2.68,3.7,5.45,8.22,9.09,11.02
			c3.68,2.83,7.42,1.26,11.57,2.53C237.63,304.13,237.68,303.97,237.57,303.93z"/>
		<path class="st14" d="M208.09,275.56c-0.07,2.98-0.4,6.02-1.69,8.7c-1.38,2.88-3.75,5.15-6.19,7.21c-3.49,2.94-7.46,5.7-12,6.21
			c-7.11,0.79-13.87-4.36-16.89-10.85c-3.02-6.48-2.97-13.95-2.11-21.05c1.49-12.31,5.22-24.17,9.48-35.86
			c0.54-1.5,1.09-2.99,1.65-4.49c1.41-3.76,2.84-7.51,4.25-11.25c0.24-0.61,0.46-1.23,0.69-1.85l14.71,8.49
			c0.47,5.81,1.34,11.59,2.4,17.34c0.38,2.04,0.77,4.09,1.18,6.12c0.29,1.46,0.59,2.92,0.9,4.37
			C206.32,257.53,208.31,266.49,208.09,275.56z"/>
		<path class="st15" d="M203.52,153.66c-6.23,19.39-10.43,39.58-15.23,59.24c-4.94,20.21-11.96,39.58-11.73,60.69
			c0.07,6.7,2.1,14.87,9.46,16.94c6.21,1.75,11.35-3.23,12.84-8.93c0.93-3.56,0.41-7.33-0.24-10.89
			c-1.07-5.82-2.28-11.55-3.08-17.42c-1.44-10.58-3.02-21.28-2.2-31.97c0.93-12.14,1.29-21.72,4.33-35.34
			C199.13,179.47,206.23,145.22,203.52,153.66z"/>
		<path class="st16" d="M190.42,283.15c-3.98-0.8-7.22,3.49-5.77,6.9c0.43,0.18,0.89,0.35,1.36,0.48c3.47,0.98,6.6-0.15,8.96-2.32
			C194.43,285.98,192.79,283.94,190.42,283.15z"/>
		<path class="st15" d="M195.54,253.29c-1.44-10.58-3.02-21.28-2.2-31.98c0.93-12.13,1.29-21.72,4.33-35.34
			c1.45-6.51,8.56-40.76,5.85-32.32c-6.23,19.39-10.43,39.58-15.23,59.24c-4.94,20.21-11.96,39.58-11.73,60.69
			c0.07,6.26,1.85,13.81,8.09,16.46c-1.45-3.41,1.79-7.7,5.77-6.9c2.37,0.79,4.01,2.83,4.55,5.07c1.86-1.72,3.23-4.09,3.89-6.61
			c0.93-3.56,0.41-7.33-0.24-10.89C197.55,264.9,196.34,259.16,195.54,253.29z"/>
		<path class="st14" d="M291.49,223.14c0.42,5.21,1.14,10.21,2,15.12c0.26,1.53,0.54,3.04,0.84,4.55c0.05,0.33,0.12,0.65,0.18,0.99
			c0.24,1.31,0.52,2.62,0.78,3.92c1.61,7.95,3.33,15.92,3.13,25.1c-0.06,3.01-0.34,6.22-1.47,9.54c-1.19,3.57-3.25,7.03-5.36,10.3
			c-3.02,4.69-6.45,9.43-10.39,12.2c-6.15,4.35-12.01,2.58-14.62-2.4c-2.62-4.97-2.58-12.47-1.83-19.99
			c0.8-8.12,2.36-16.48,4.3-24.97c1.19-5.18,2.52-10.4,3.92-15.63c0.46-1.77,0.94-3.54,1.42-5.32c0.38-1.38,0.76-2.76,1.14-4.14
			L291.49,223.14z"/>
		<path class="st13" d="M193.6,299.82c-0.08-0.66-0.72-1.88-1.53-3.32c0.01-0.03,0.03-0.06,0.03-0.1c0.16-2.32,1.27-4.04,0.98-6.44
			c-0.12-1-0.13-2.82-1.32-3.04c-0.05-0.01-0.09,0.06-0.04,0.09c1.83,1.01,0.88,5.34,0.38,6.61c-0.26,0.65-0.44,1.28-0.56,1.94
			c-2.01-3.56-4.45-7.94-2.12-8.81c0.03-0.01,0.02-0.06-0.01-0.05c-1.94,0.46-1.53,3.08-1.07,4.57c1.59,5.18,7.14,9.14,1.78,14.41
			c-0.5,0.49,0.25,1.22,0.76,0.76C192.78,304.77,193.9,302.41,193.6,299.82z"/>
		<path class="st12" d="M188.03,284.87c-0.04,0.01-0.03,0.08,0.01,0.07c1.2-0.06,2.11,1.96,2.34,2.83c0.28,1.06,0.18,2.09-0.21,3.11
			c-0.39,1.02-1.09,1.74-1.86,2.42c-0.37-2.1-2.59-3.6-1.74-6.1c0.06-0.19-0.23-0.27-0.3-0.08c-0.37,1.02-0.3,2.04,0.04,3.07
			c0.4,1.22,1.35,2.35,1.39,3.64c-0.31,0.26-0.62,0.52-0.92,0.79c-1.77,1.61-3.05,3.49-3.04,5.95c0,0.47,0.72,0.47,0.72,0
			c-0.02-5.09,6.1-6.01,6.61-10.66C191.23,288.57,190.08,284.21,188.03,284.87z"/>
		<g>
			<path class="st17" d="M156.46,241.7c0.89-1.65,1.29-3.59,1.13-5.46c-0.03-0.26-0.08-0.87-0.51-1.33
				c-0.46-0.49-1.04-0.55-1.57-0.46c-0.03-0.15-0.06-0.31-0.1-0.45c-0.44-1.72-1.48-2.96-2.79-3.32c-0.41-0.1-0.81-0.13-1.19-0.1
				c1.87-4.9,2.29-9.93,1.15-14.41c-0.14-0.54-0.3-1.07-0.48-1.6c-0.68-2.07-1.63-4.03-2.56-5.94c-0.32-0.66-0.65-1.33-0.96-2
				c-1.29-2.75-2.58-6.02-2.42-9.35c0.11-2.1,0.96-4.47,2.62-6.02l-1.56-0.9c-1.77,1.88-2.68,4.5-2.79,6.84
				c-0.19,3.71,1.2,7.23,2.58,10.18c0.31,0.67,0.64,1.35,0.97,2.03c0.6,1.24,1.22,2.51,1.75,3.8c0.47,1.11,0.87,2.24,1.16,3.39
				c1.11,4.38,0.6,9.37-1.41,14.17c-0.05-0.02-0.1-0.04-0.15-0.04c-0.72-0.24-1.39-0.28-1.93-0.14c-0.51-1.32-1.21-3.03-2.62-3.2
				c-1.1-0.12-2.23,0.3-3.44,1.3c-0.63,0.52-1.24,1.31-1.79,2.17c-0.47,0.16-0.97,0.37-1.46,0.64c-0.16-0.04-0.32-0.09-0.5-0.11
				c-0.9-0.18-1.66-0.14-2.31,0.11c-0.64,0.24-1.2,0.7-1.74,1.39c-1.54,1.99-1.89,4.82-0.87,7.05c0.47,1.06,1.24,1.95,2.17,2.59
				c0.23,0.53,0.52,1.02,0.8,1.46c0.01,0.01,0.02,0.02,0.02,0.03c-0.17,0.9-0.24,2.53,0.63,4.03c0.88,1.51,2.45,2.47,4.65,2.85
				c2.22,0.38,3.57-0.25,4.56-0.72c0.23-0.11,0.45-0.21,0.65-0.29c0.43-0.16,0.83-0.39,1.2-0.71c0.04,0.03,0.08,0.05,0.1,0.08
				c0.86,0.72,2.76,2.08,4.82,2.08c0.65,0,1.32-0.14,1.97-0.47c1.81-0.93,2.79-3.12,2.71-5.99c-0.03-0.86-0.13-1.94-0.65-2.89
				C156.35,241.88,156.4,241.79,156.46,241.7z M153.71,234.43c0.06,0.21,0.1,0.42,0.13,0.64c-0.1,0.04-0.21,0.07-0.31,0.1
				c-0.02-0.51-0.11-1-0.31-1.47c-0.2-0.46-0.48-0.87-0.84-1.25C153.24,232.85,153.61,234.05,153.71,234.43z M153.85,236.88
				c-0.09,0.67-0.28,1.34-0.55,1.95c-0.14-0.17-0.3-0.34-0.46-0.49c-0.1-0.08-0.19-0.16-0.3-0.23c0.25-0.35,0.46-0.72,0.62-1.1
				C153.4,236.97,153.63,236.94,153.85,236.88z M152.23,244.11c0.01,0,0.02,0,0.02,0.01c-0.09,0.29-0.19,0.57-0.32,0.84l-0.04-0.53
				C152,244.33,152.13,244.23,152.23,244.11z M151.69,234.62c0.06,0.21,0.09,0.43,0.09,0.65c-0.04-0.01-0.08-0.01-0.12-0.02
				C151.68,235.05,151.7,234.83,151.69,234.62z M150.96,236.91c0.09,0.02,0.17,0.04,0.26,0.05c-0.09,0.12-0.18,0.24-0.29,0.36
				c-0.1-0.02-0.2-0.03-0.3-0.03C150.75,237.17,150.86,237.04,150.96,236.91z M151.17,239.39c0.1,0.02,0.2,0.05,0.29,0.1
				c0.1,0.11,0.18,0.24,0.24,0.38c0.13,0.3,0.19,0.64,0.17,1l-0.71,0.73c-0.03-0.03-0.05-0.05-0.07-0.07
				c-0.52-0.47-0.9-1.17-0.85-1.66C150.57,239.73,150.88,239.57,151.17,239.39z M149.81,234.03c0.08,0.23,0.12,0.46,0.13,0.69
				c-0.14-0.07-0.27-0.15-0.4-0.24C149.63,234.34,149.72,234.19,149.81,234.03z M148.3,233.15c-0.02,0.03-0.04,0.07-0.06,0.11
				c-0.01-0.03-0.02-0.05-0.03-0.08C148.24,233.18,148.28,233.17,148.3,233.15z M147.91,236.63c0.22-0.22,0.42-0.46,0.63-0.72
				c0.2,0.13,0.41,0.25,0.63,0.37c-0.37,0.31-0.82,0.52-1.3,0.59C147.88,236.8,147.9,236.71,147.91,236.63z M148.07,238.61
				c-0.03,0.04-0.05,0.06-0.08,0.1c-0.04,0.01-0.09,0.01-0.13,0.02c0-0.03,0-0.06-0.01-0.09C147.93,238.63,148,238.62,148.07,238.61
				z M141.87,240.28c-0.04-0.02-0.09-0.04-0.14-0.06c-0.06-0.08-0.12-0.16-0.18-0.24c0.13-0.1,0.25-0.2,0.36-0.31
				c0.17,0.24,0.38,0.45,0.61,0.6c0.47,0.32,1.08,0.48,1.71,0.43c0.24-0.02,0.46-0.06,0.68-0.13c0.1,0.12,0.19,0.24,0.28,0.37
				C143.85,241.11,142.39,240.53,141.87,240.28z M141.95,245.74c-0.76,0.34-1.77,0.21-2.65-0.34c-0.65-0.41-1.19-1-1.63-1.57
				c0.1-0.07,0.22-0.13,0.34-0.18c0.23,0.02,0.47,0.02,0.71,0c0.84-0.04,1.55-0.31,2.04-0.76c0.14-0.01,0.28-0.01,0.41,0
				c0.64,0.03,1.44,0.35,1.69,0.97C143.12,244.49,142.67,245.41,141.95,245.74z M142.31,234.84c0.1,0.12,0.18,0.26,0.28,0.41
				c-0.02,0.03-0.04,0.05-0.07,0.08C142.46,235.17,142.39,235,142.31,234.84z M143.32,237.3c0.09-0.18,0.19-0.36,0.3-0.52
				c0.11,0.14,0.24,0.26,0.36,0.38C143.76,237.23,143.54,237.27,143.32,237.3z M144.79,235.45c0.16-0.15,0.32-0.3,0.49-0.44
				c0.06,0.4,0.15,0.79,0.24,1.18C145.25,235.99,145,235.74,144.79,235.45z M142.43,230.02c0.84-0.69,1.55-1,2.14-0.92
				c0.16,0.03,0.45,0.31,0.93,1.44c-0.67-0.25-1.41-0.38-2.22-0.38c-0.34,0-0.71,0.03-1.08,0.07
				C142.27,230.16,142.35,230.08,142.43,230.02z M140.68,232.32c0.16-0.04,0.32-0.09,0.49-0.12c1.63-0.38,2.85-0.37,3.84,0.04
				c0.15,0.06,0.29,0.14,0.43,0.23c-0.04,0.1-0.08,0.21-0.1,0.33c-0.52,0.35-1.03,0.74-1.5,1.17c-0.41-0.58-0.92-1.1-1.69-1.34
				c-0.23-0.07-0.47-0.1-0.71-0.1c-0.31,0-0.61,0.06-0.91,0.17c-0.01-0.01-0.03-0.03-0.04-0.04
				C140.55,232.54,140.61,232.43,140.68,232.32z M140.41,235.08c0.38,0.53,0.63,1.12,0.69,1.74l-0.01-0.01
				C140.53,236.38,140.24,235.65,140.41,235.08z M138.78,236.4c0.18,0.6,0.54,1.17,1.03,1.61c-0.03,0.03-0.05,0.05-0.08,0.07
				c-0.3-0.24-0.62-0.45-0.95-0.6C138.7,237.16,138.7,236.79,138.78,236.4z M137.92,233.76c-0.06,0.12-0.11,0.24-0.17,0.34
				c-0.31,0.64-0.53,1.23-0.66,1.79C137,235.1,137.41,234.3,137.92,233.76z M134.46,239.62c-0.08-0.14-0.16-0.29-0.22-0.44
				c-0.75-1.65-0.49-3.76,0.66-5.26c0.33-0.43,0.65-0.7,0.99-0.83c0.11-0.04,0.24-0.07,0.38-0.09c-0.79,1.06-1.12,2.37-0.83,3.53
				c0.09,0.38,0.24,0.72,0.41,1.03C135.16,238,134.67,238.75,134.46,239.62z M136.25,241.33c-0.06-0.21-0.11-0.43-0.13-0.65
				c-0.05-0.61,0.18-1.39,0.73-1.68c0.03-0.02,0.06-0.04,0.1-0.04c0.04,0.04,0.09,0.09,0.13,0.13c0.8,0.78,1.68,1.45,2.64,2.03
				c0,0.05,0.01,0.1,0.01,0.15c-0.63,0.13-1.22,0.33-1.78,0.52c-0.05,0.02-0.12,0.04-0.19,0.06
				C137.24,241.77,136.73,241.59,136.25,241.33z M145.54,248.23c-0.25,0.1-0.52,0.22-0.79,0.35c-0.91,0.42-1.84,0.86-3.52,0.57
				c-1.67-0.29-2.83-0.96-3.44-2.01c-0.19-0.32-0.31-0.66-0.38-1c0.29,0.27,0.6,0.52,0.96,0.74c1.37,0.86,3.02,1.02,4.3,0.45
				c0.58-0.26,1.05-0.67,1.39-1.16c0.31,0.82,0.85,1.55,1.51,2.05C145.56,248.23,145.55,248.23,145.54,248.23z M147.42,246.14
				c-0.14,0.16-0.26,0.31-0.38,0.49c-0.07,0.1-0.14,0.22-0.21,0.35c-0.53-0.33-0.97-0.88-1.18-1.54c-0.21-0.64-0.17-1.27,0.11-1.77
				c0.13-0.24,0.3-0.42,0.47-0.51c0.1-0.05,0.19-0.07,0.29-0.07c0.02,0,0.04,0,0.07,0.01c0.01,0.01,0.02,0.02,0.03,0.04
				c0.34,0.47,0.72,0.86,1.13,1.17C147.85,244.95,147.64,245.64,147.42,246.14z M147.74,241.65c0.32-0.28,0.6-0.59,0.86-0.91
				c0.21,0.76,0.69,1.5,1.31,2.07c0.02,0.02,0.03,0.03,0.04,0.04l-0.44,0.45c-0.1-0.04-0.19-0.07-0.29-0.12
				C148.94,242.53,148.4,241.98,147.74,241.65z M148.77,247.34c0.02-0.03,0.03-0.04,0.04-0.07c0.03-0.05,0.05-0.1,0.08-0.15
				c0.35-0.36,0.77-0.65,1.22-0.86c-0.06,0.27-0.15,0.52-0.26,0.78C149.5,247.19,149.14,247.29,148.77,247.34z M153.45,249.29
				c-1.14,0.58-2.49,0.13-3.5-0.45c0.91-0.28,1.77-0.8,2.45-1.52c0.84-0.9,1.41-2.05,1.68-3.33c0.32-0.12,0.64-0.3,0.93-0.53
				c0.11,0.39,0.17,0.87,0.18,1.45C155.23,245.71,155.17,248.4,153.45,249.29z M155.03,240.65c-0.18-0.1-0.38-0.2-0.58-0.27
				c0.74-1.26,1.16-2.72,1.2-4.17c0.06-0.02,0.11-0.03,0.16-0.04c0.01,0.04,0.03,0.11,0.03,0.23
				C155.98,237.85,155.69,239.35,155.03,240.65z"/>
		</g>
		<path class="st15" d="M216.96,99.61c-12.33,7.47-22.36,19.72-30.6,31.35c-8.83,12.46-18.68,26.39-21.61,41.62
			c-0.2,1.07,0.16,1.9,1.03,2.52c0.35,0.25,0.65,0.53,1.11,0.4l0.61-0.17c0.71-0.2,1.41-0.81,1.56-1.56
			c3.07-15.19,9.23-28.83,17.92-41.62c4.29-6.31,9.01-12.32,14.27-17.85c4.99-5.24,10.57-9.56,16.13-14.14
			C217.69,99.91,217.29,99.41,216.96,99.61z"/>
		<path class="st15" d="M280.09,130.02c-6.98,3.13-13.46,8.74-19.01,13.91c-5.93,5.52-11.24,11.71-15.84,18.38
			c-8.89,12.87-16.63,28.51-18.89,44.08c-0.46,3.14,4.35,3.81,4.86,0.69c1.26-7.7,2.47-15.61,5.13-22.98
			c2.69-7.47,6.42-14.54,10.86-21.11c4.33-6.4,9.38-12.32,15.01-17.61c5.79-5.44,12.34-9.36,18.65-14.07
			C281.53,130.81,280.88,129.67,280.09,130.02z"/>
		<path class="st15" d="M335.15,157.91c-6.98,3.13-13.46,8.74-19.01,13.91c-5.93,5.52-11.24,11.71-15.84,18.38
			c-5.71,8.26-10.63,17.14-14.21,26.53c-3.74,9.83-5.2,20.22-8.11,30.3c-3.69,12.77-9.19,25.51-8.19,38.76
			c0.22,2.88,0.81,5.88,2.71,8.06c1.4,1.61,3.42,2.61,5.53,2.94c1.36,0.21,2.76,0.16,4.09-0.22c3.69-1.05,6.26-4.42,7.78-7.94
			c2.68-6.23,2.81-13.23,2.56-20c-0.16-4.27-0.44-8.53-1.11-12.75c-1.19-7.6-3.61-14.96-4.53-22.61c-0.38-3.14,0.84-6.64,1.48-9.74
			c0.8-3.9,1.77-7.78,3.12-11.53c2.69-7.47,6.42-14.54,10.86-21.11c4.33-6.4,9.38-12.32,15.01-17.61
			c5.79-5.44,12.34-9.36,18.65-14.07C336.59,158.69,335.95,157.55,335.15,157.91z"/>
		<path class="st16" d="M278.6,291.88c-1.76,0.59-3.52,1.97-3.68,3.87c0.97,0.52,2.02,0.87,3.11,1.04c1.36,0.21,2.76,0.16,4.09-0.22
			c1.39-0.4,2.62-1.12,3.7-2.06C284.6,291.7,281.84,290.58,278.6,291.88z"/>
		<path class="st15" d="M335.15,157.91c-6.98,3.13-13.46,8.74-19.01,13.91c-5.93,5.52-11.24,11.71-15.84,18.38
			c-5.71,8.26-10.63,17.14-14.21,26.53c-3.74,9.83-5.2,20.22-8.11,30.3c-3.69,12.77-9.19,25.51-8.19,38.76
			c0.22,2.88,0.81,5.88,2.71,8.06c0.68,0.78,1.51,1.42,2.42,1.9c0.17-1.9,1.92-3.28,3.68-3.87c3.24-1.3,6-0.18,7.21,2.63
			c1.78-1.55,3.13-3.69,4.08-5.88c2.68-6.23,2.81-13.23,2.56-20c-0.16-4.27-0.44-8.53-1.11-12.75c-1.19-7.6-3.61-14.96-4.53-22.61
			c-0.38-3.14,0.84-6.64,1.48-9.74c0.8-3.9,1.77-7.78,3.12-11.53c2.69-7.47,6.42-14.54,10.86-21.11c4.33-6.4,9.38-12.32,15.01-17.61
			c5.79-5.44,12.34-9.36,18.65-14.07C336.59,158.69,335.95,157.55,335.15,157.91z"/>
		<path class="st15" d="M261.92,94c-11.23,4.93-20.83,13.15-28.42,22.69c-7.91,9.95-14.98,21.39-18.74,33.62
			c-0.48,1.55,1.79,2.48,2.6,1.1c6.29-10.73,9.83-22.85,17.14-33.04c7.25-10.1,16.87-17.92,27.7-23.89
			C262.52,94.3,262.24,93.86,261.92,94z"/>
		<path class="st15" d="M322.58,125.85c-5.96,1.42-10.79,5.71-15.31,9.63c-5.3,4.59-10.3,9.53-14.88,14.84
			c-4.33,5.01-8.3,10.32-11.95,15.84c-3.46,5.23-6.91,11.13-7.75,17.44c-0.26,1.99,2.73,2.53,3.62,0.98
			c2.97-5.19,4.64-11.22,7.13-16.66c2.68-5.85,6.21-11.32,10.17-16.37c7.5-9.57,17.51-20.68,29.21-24.81
			C323.38,126.54,323.16,125.71,322.58,125.85z"/>
		<path class="st12" d="M280.82,302.03c0.06-2.4,0.93-4.54,2.29-6.5c0.78-1.13,1.49-2.03,1.28-3.44c0-0.03-0.05-0.02-0.05,0.01
			c-0.24,2.02-2.38,3.83-3.3,5.61c-0.41,0.78-0.7,1.56-0.91,2.36c-0.79-2.49-1.18-4.99-0.34-7.53c0.02-0.08-0.08-0.12-0.12-0.05
			c-2.42,3.88-0.7,7.77,0.49,11.81c0.88,3.01,1.63,6.06,1.52,9.22c-0.11,3.1-1.05,6.09-0.92,9.19c0.03,0.63,1.06,0.85,1.17,0.16
			c0.66-4.27,2.31-8.44,1.61-12.81C283.1,307.38,281.85,304.71,280.82,302.03z"/>
		<path class="st13" d="M290.94,311.09c0.01-0.03,0.02-0.06,0.02-0.1c0.06-2.93-0.58-5.55-1.95-8.14c-2.26-4.3-3.62-7.42-3.17-12.39
			c0.01-0.08-0.11-0.09-0.13-0.02c-1.95,6.86,3.05,11.95,4.2,18.29c-2.66-4.93-8.23-7.21-11.86-10.89c0.84-1.2,2.11-1.99,2.87-3.27
			c0.8-1.35,1.13-2.9,1.43-4.41c0.07-0.32-0.43-0.47-0.5-0.14c-0.36,1.68-0.72,3.44-1.84,4.8c-0.75,0.9-1.83,1.5-2.48,2.47
			c-1.59-1.78-2.71-3.9-2.86-6.77c0-0.08-0.12-0.08-0.12,0c-0.21,3.32,0.91,5.56,2.69,7.46c0.02,0.17,0.16,0.31,0.31,0.33
			c1.46,1.46,3.3,2.73,5.2,4.14c3.53,2.62,6.2,5.79,7.3,10.11c1.2,4.68-0.2,8.71-0.93,13.28c-0.07,0.43,0.48,0.72,0.74,0.31
			C292.46,321.96,292.58,315.86,290.94,311.09z"/>
		<path class="st18" d="M250.87,339.88c1.04-0.51,1.94-1.86,2.02-3.01c0.08-1.15-0.7-1.67-1.74-1.16c-1.04,0.51-1.94,1.86-2.02,3.01
			C249.05,339.87,249.83,340.39,250.87,339.88z"/>
		<path class="st19" d="M250.89,339.52c0.86-0.42,1.61-1.54,1.67-2.5c0.06-0.96-0.58-1.39-1.44-0.97c-0.86,0.42-1.61,1.54-1.67,2.5
			C249.39,339.51,250.03,339.94,250.89,339.52z"/>
		<path class="st18" d="M242.89,348.89c0.55,0.81,1.61,1.24,2.37,0.96c0.76-0.28,0.93-1.16,0.38-1.97
			c-0.55-0.81-1.61-1.24-2.37-0.96C242.51,347.2,242.34,348.08,242.89,348.89z"/>
		<path class="st19" d="M243.13,348.8c0.46,0.67,1.34,1.03,1.97,0.79c0.63-0.23,0.77-0.97,0.32-1.64c-0.46-0.67-1.34-1.03-1.97-0.79
			C242.81,347.4,242.67,348.13,243.13,348.8z"/>
		<g>
			<path class="st20" d="M240.34,340.08c-0.26,1.09,0.2,2.32,1.02,2.75c0.83,0.43,1.71-0.11,1.97-1.2c0.26-1.09-0.2-2.32-1.02-2.75
				C241.49,338.46,240.61,338.99,240.34,340.08z"/>
			<path class="st21" d="M240.6,340.21c-0.22,0.9,0.16,1.93,0.85,2.28c0.69,0.36,1.42-0.09,1.63-0.99c0.22-0.9-0.16-1.93-0.85-2.28
				C241.55,338.86,240.82,339.31,240.6,340.21z"/>
		</g>
		<g>
			<path class="st20" d="M250.66,324.73c-1.03,0.94-1.42,2.53-0.87,3.54c0.55,1.02,1.83,1.08,2.86,0.14
				c1.03-0.94,1.42-2.53,0.87-3.54C252.97,323.85,251.69,323.79,250.66,324.73z"/>
			<path class="st21" d="M250.83,325.04c-0.85,0.78-1.18,2.1-0.72,2.94c0.46,0.84,1.52,0.9,2.37,0.12c0.85-0.78,1.18-2.1,0.72-2.94
				C252.75,324.32,251.68,324.26,250.83,325.04z"/>
		</g>
	</g>
</g>
</svg>
