<?xml version="1.0" encoding="utf-8"?>
<!-- Generator: Adobe Illustrator 24.2.3, SVG Export Plug-In . SVG Version: 6.00 Build 0)  -->
<svg version="1.1" id="Layer_1" xmlns="http://www.w3.org/2000/svg" xmlns:xlink="http://www.w3.org/1999/xlink" x="0px" y="0px"
	 viewBox="0 0 500 500" style="enable-background:new 0 0 500 500;" xml:space="preserve">
<style type="text/css">
	.st0{fill:#EA9553;}
	.st1{fill:#F07F33;}
	.st2{opacity:0.8;fill:#EA9553;}
	.st3{opacity:0.7;fill:#FFFFFF;}
	.st4{fill:#A368D4;}
	.st5{fill:#D9002C;}
	.st6{fill:#7A001D;}
	.st7{fill:#118CD5;}
	.st8{fill:#0B5B9E;}
	.st9{opacity:0.5;}
	.st10{fill:#107FCB;}
	.st11{fill:#0C62B3;}
	.st12{fill:#042455;}
	.st13{fill:#6D101C;}
	.st14{fill:#CF2C38;}
	.st15{fill:#EC2C38;}
	.st16{fill:#CE8453;}
	.st17{fill:#944A24;}
	.st18{opacity:0.6;fill:#CE8453;}
	.st19{opacity:0.8;}
	.st20{opacity:0.6;}
	.st21{fill:#992932;}
	.st22{font-family:'MyriadPro-Regular';}
	.st23{font-size:25px;}
</style>
<g>
	<g>
		<g>
			<g>
				<path class="st0" d="M212.53,152.46c0,0-20.51,16.41-23.7,42.85c-3.19,26.44,4.11,55.16,12.77,82.97
					c8.66,27.81,36.47,64.73,2.73,77.5v4.1c0,0,19.26-4.9,22.34-22.34c3.08-17.43-11.28-37.95-19.15-56.75
					c-7.87-18.8-28.04-90.26,3.76-116.25L212.53,152.46z"/>
				<path class="st1" d="M204.33,360.24c-0.07,0-0.14-0.03-0.21-0.07c-0.08-0.07-0.13-0.17-0.13-0.27v-4.1
					c0-0.14,0.09-0.27,0.22-0.32c7.38-2.79,12.09-6.81,14.4-12.3c4.97-11.81-2.3-28.47-9.33-44.58c-2.96-6.79-6.02-13.8-8.01-20.2
					c-8.54-27.41-16-56.45-12.78-83.11c3.17-26.27,23.63-42.91,23.83-43.08c0.11-0.09,0.25-0.1,0.37-0.03
					c0.12,0.07,0.19,0.2,0.18,0.34l-1.26,12.08c0,0.09-0.05,0.17-0.12,0.23c-16.91,13.82-18.38,40.54-16.63,60.53
					c2.12,24.32,9.41,46.82,12.97,55.33c2.05,4.92,4.6,10.06,7.08,15.02c7.07,14.23,14.38,28.95,12.09,41.93
					c-3.08,17.45-22.4,22.56-22.59,22.61C204.39,360.23,204.36,360.24,204.33,360.24z M204.67,356.03v3.41
					c2.84-0.85,18.91-6.37,21.66-21.94c2.25-12.76-5.01-27.37-12.03-41.5c-2.47-4.98-5.03-10.13-7.1-15.06
					c-3.57-8.54-10.89-31.13-13.01-55.54c-1.76-20.1-0.27-46.98,16.76-61.02l1.15-11.09c-3.49,3.06-20.12,18.73-22.93,42.08
					c-3.2,26.53,4.23,55.48,12.75,82.83c1.97,6.35,5.03,13.35,7.99,20.12c7.09,16.24,14.43,33.04,9.33,45.12
					C216.89,349.04,212.12,353.17,204.67,356.03z"/>
			</g>
			<path class="st2" d="M207.52,280.8c-7.87-18.8-28.04-90.26,3.76-116.25l1.25-12.08c0,0-8.73,7-15.7,19.22
				c1.67-0.93,3.43-1.5,4.56-0.75c0,0-10.03,14.36-10.94,40.8c-0.91,26.44,14.59,71.57,18.23,79.32
				c3.65,7.75,23.03,45.14,10.03,53.79c-0.28,0.18-0.55,0.35-0.81,0.52c-2.46,4.28-6.76,7.85-13.58,10.43v4.1
				c0,0,19.26-4.9,22.34-22.34C229.75,320.12,215.39,299.6,207.52,280.8z"/>
			<path class="st3" d="M194.33,178.22c0,0-9.57,22.57-3.65,55.39C190.69,233.61,186.81,202.16,194.33,178.22z"/>
			<path class="st3" d="M209.38,296.76c0,0,15.95,33.28,10.48,45.36c0,0,5.7-7.98-1.13-25.3
				C211.89,299.49,209.38,296.76,209.38,296.76z"/>
		</g>
		<g>
			<g>
				<path class="st0" d="M123.9,152.46c0,0,20.51,16.41,23.7,42.85c3.19,26.44-4.1,55.16-12.77,82.97
					c-8.66,27.81-36.47,64.73-2.74,77.5v4.1c0,0-19.26-4.9-22.34-22.34c-3.08-17.43,11.28-37.95,19.15-56.75
					c7.87-18.8,28.03-90.26-3.76-116.25L123.9,152.46z"/>
				<path class="st1" d="M132.1,360.24c-0.02,0-0.06-0.01-0.08-0.01c-0.19-0.04-19.51-5.16-22.59-22.61
					c-2.3-12.98,5.02-27.7,12.09-41.93c2.47-4.97,5.02-10.11,7.08-15.02c3.56-8.5,10.84-31,12.97-55.33
					c1.75-19.99,0.28-46.71-16.63-60.53c-0.07-0.05-0.11-0.14-0.12-0.23l-1.25-12.08c-0.02-0.14,0.06-0.27,0.18-0.34
					c0.12-0.07,0.27-0.06,0.38,0.03c0.21,0.17,20.66,16.81,23.83,43.08c3.22,26.66-4.24,55.7-12.78,83.11
					c-1.99,6.39-5.05,13.41-8.02,20.2c-7.03,16.11-14.3,32.77-9.33,44.58c2.31,5.49,7.03,9.51,14.4,12.3
					c0.13,0.05,0.22,0.18,0.22,0.32v4.1c0,0.1-0.04,0.2-0.13,0.27C132.26,360.21,132.18,360.24,132.1,360.24z M125.47,164.37
					c17.04,14.04,18.53,40.92,16.77,61.02c-2.14,24.41-9.45,47-13.02,55.54c-2.06,4.94-4.62,10.08-7.09,15.06
					c-7.02,14.13-14.28,28.74-12.03,41.5c2.74,15.59,18.82,21.09,21.66,21.94v-3.41c-7.44-2.86-12.21-6.98-14.57-12.59
					c-5.09-12.08,2.24-28.88,9.34-45.12c2.95-6.77,6.01-13.77,7.99-20.12c8.52-27.34,15.95-56.3,12.76-82.83
					c-2.82-23.36-19.45-39.03-22.94-42.08L125.47,164.37z"/>
			</g>
			<path class="st2" d="M123.9,152.46l1.25,12.08c3.17,2.6,5.83,5.65,8.03,9.06c0.23-0.65,0.68-1.01,1.43-0.85
				c3.42,0.68,10.71,12.31,10.71,41.26c0,28.95-6.84,48.32-13.45,64.28c-6.62,15.96-21.88,42.17-18.01,59.72
				c0,0,0.69,3.88,2.28,6.61c1.01,1.73,0.47,3.72-1.15,4.33c6.74,8.3,17.1,10.95,17.1,10.95v-4.1c-33.73-12.77-5.92-49.69,2.74-77.5
				c8.66-27.81,15.96-56.53,12.77-82.97C144.41,168.88,123.9,152.46,123.9,152.46z"/>
			<path class="st3" d="M116.94,307.64c0,0-9.74,20.86-6.15,31.46c0,0,1.71,4.61,3.42,6.67
				C114.21,345.76,105.84,334.65,116.94,307.64z"/>
			<path class="st3" d="M136.6,178.56c0,0,11.63,16.93,5.13,56.42l-5.3,28.38c0,0,7.2-24.98,8.21-46.67
				C145.84,190.7,136.6,178.56,136.6,178.56z"/>
		</g>
		<g>
			<path class="st4" d="M144.47,152.29c1.59-0.33,2.91-0.6,2.91-0.6C146.63,151.76,145.63,151.96,144.47,152.29z"/>
		</g>
		<g>
			<g>
				<path class="st5" d="M197.12,151.55c0,0,12.44-1.62,19.49-8.2l-6.49-2.74c0,0-11.63,9.06-25.3,4.96
					c-2.71-0.81-4.81-2.09-6.44-3.61l0.02-52.17h-12.31l-0.01,50.32c-3.87,6.21-13.4,8.37-23.03,8.32
					c-12.53-0.08-20.03-6.8-20.03-6.8l0.21,4.92c0,0,5.7,6.89,24.16,5.14c-5.02,0.48-20.52,6.94-29.41,14.97l0.91,3.88
					c0,0,21.2-16.18,38.75-16.87c0,0,3.59-0.74,8.43-0.57l-0.02,44.62h0.06c0.23,0.86,2.89,1.54,6.13,1.54
					c3.4,0,6.15-0.74,6.15-1.65c0-0.06-0.01-0.12-0.04-0.18l0.02-45.56c4.44,0.86,9.34,2.57,14.47,5.69
					c19.15,11.62,25.08,23.02,25.08,23.02l4.9-2.34C222.83,178.22,217.13,164.37,197.12,151.55z"/>
				<path class="st6" d="M172.25,199.58L172.25,199.58c-2.77,0-5.86-0.51-6.41-1.63l0,0c-0.06-0.06-0.13-0.15-0.13-0.24l0.02-44.28
					c-4.58-0.12-7.99,0.57-8.02,0.58c-9.05,0.35-19.05,4.9-25.85,8.65c-7.38,4.07-12.7,8.11-12.76,8.15
					c-0.09,0.07-0.21,0.09-0.32,0.05c-0.11-0.04-0.19-0.13-0.22-0.24l-0.91-3.87c-0.03-0.12,0.01-0.25,0.1-0.33
					c7.16-6.47,18.68-11.97,25.55-14.12c-0.57,0.02-1.12,0.03-1.68,0.03c-13.91,0-18.47-5.33-18.66-5.56
					c-0.04-0.05-0.08-0.13-0.08-0.2l-0.21-4.92c0-0.14,0.08-0.27,0.2-0.33c0.12-0.06,0.27-0.03,0.38,0.06
					c0.07,0.07,7.56,6.64,19.81,6.71h0.36c6.43,0,17.86-1.05,22.32-8.08l0.02-50.22c0-0.19,0.15-0.34,0.34-0.34l0,0h12.31
					c0.09,0,0.18,0.04,0.24,0.11c0.06,0.06,0.11,0.15,0.11,0.24l-0.03,52.02c1.71,1.56,3.79,2.72,6.2,3.44
					c2.33,0.7,4.76,1.06,7.21,1.06c10.03,0,17.71-5.9,17.79-5.95c0.09-0.08,0.23-0.09,0.34-0.05l6.5,2.74
					c0.11,0.04,0.18,0.14,0.21,0.25c0.02,0.12-0.02,0.23-0.11,0.31c-5.95,5.56-15.79,7.63-18.79,8.15
					c9.94,6.5,16.18,13.2,19.69,17.73c3.91,5.04,5.34,8.46,5.39,8.61c0.07,0.17-0.01,0.36-0.17,0.44l-4.9,2.34
					c-0.17,0.08-0.37,0.01-0.45-0.16c-0.06-0.11-6.12-11.45-24.95-22.88c-4.48-2.72-9.18-4.59-13.96-5.56l-0.02,45.09
					c0.03,0.08,0.04,0.16,0.04,0.24C178.74,198.9,175.47,199.58,172.25,199.58z M166.39,197.52c0.02,0.03,0.04,0.06,0.05,0.09
					c0.14,0.53,2.29,1.28,5.8,1.28l0,0.34v-0.34c3.76,0,5.8-0.86,5.8-1.31c-0.01-0.04-0.04-0.14-0.04-0.18l0.02-45.56
					c0-0.1,0.05-0.2,0.13-0.26c0.08-0.07,0.18-0.09,0.28-0.08c5.01,0.97,9.92,2.89,14.59,5.73c17.34,10.52,23.96,21.02,25.04,22.87
					l4.31-2.06c-0.96-2.07-7.36-14.64-25.43-26.22c-0.12-0.08-0.18-0.22-0.15-0.36c0.03-0.14,0.15-0.25,0.29-0.27
					c0.12-0.02,11.95-1.63,18.91-7.76l-5.82-2.45c-1.18,0.86-8.6,5.97-18.05,5.97c-2.52,0-5.01-0.36-7.4-1.08
					c-2.55-0.77-4.77-2.01-6.58-3.69c-0.07-0.07-0.11-0.16-0.11-0.25l0.02-51.83l-11.62-0.01l-0.02,49.98
					c0,0.06-0.01,0.13-0.05,0.18c-4.6,7.38-16.35,8.49-22.95,8.49h-0.37c-10.53-0.07-17.62-4.85-19.66-6.41l0.17,4.04
					c0.63,0.66,5.44,5.23,18.07,5.23c1.83,0,3.75-0.09,5.73-0.29c0.19-0.02,0.35,0.12,0.38,0.31c0.02,0.19-0.12,0.35-0.31,0.38
					c-4.97,0.47-20.24,6.85-29.06,14.75l0.75,3.17c1.4-1.03,6.17-4.45,12.41-7.89c6.87-3.78,16.97-8.37,26.11-8.73l0,0
					c-0.03,0,3.63-0.75,8.45-0.57c0.19,0.01,0.33,0.16,0.33,0.34L166.39,197.52z"/>
			</g>
			<path class="st3" d="M169.43,97.7v95.56c0,0,1.2-5.98,1.2-10.08C170.63,179.08,169.26,97.7,169.43,97.7z"/>
			<g>
				<path class="st4" d="M147.32,151.69L147.32,151.69c0.01,0,0.03-0.01,0.06-0.01C147.36,151.68,147.35,151.69,147.32,151.69z"/>
				<path class="st4" d="M123.17,145.44l0.04,1.1c0,0,5.68,6.88,24.1,5.15l5.3-1.73C135.33,152.44,126.32,147.68,123.17,145.44z"/>
				<path class="st4" d="M147.31,151.69c-0.67,0.07-1.54,0.25-2.54,0.52l1.92-0.32L147.31,151.69z"/>
				<path class="st4" d="M139.4,156.23c-10.33,4.2-18.04,9.69-21.06,12l0.55,2.31c0,0,21.2-16.18,38.75-16.87
					c0,0,3.59-0.74,8.43-0.57C166.86,148.7,152.84,150.75,139.4,156.23z"/>
			</g>
			<g>
				<path class="st4" d="M193.2,152.46c0.19-1.14,3.14-1.01,4.13-0.94c1.57-0.23,12.74-2.06,19.29-8.18l-3.4-1.43
					c-2.97,2.03-7.23,4.56-12.15,6.22c-9.46,3.19-17.21,0.12-20.4-1.48c-3.19-1.6-2.28-4.7-2.28-4.7l0.02-52.17h-12.31v7.25
					c0.59-1.43,1.43-2.61,2.61-2.46c0,0,3.76-1.37,4.44,2.96v50.26v43.88c0,0-0.69,4.56-6.27,4.56c-0.26,0-0.54-0.03-0.81-0.06v1.54
					h0.06c0.23,0.86,2.89,1.54,6.13,1.54c3.4,0,6.15-0.74,6.15-1.65c0-0.06-0.01-0.12-0.04-0.18l0.02-45.56
					c4.44,0.86,9.34,2.57,14.47,5.69c19.15,11.62,25.08,23.02,25.08,23.02l2.31-1.1C208.28,159.85,192.97,153.83,193.2,152.46z"/>
			</g>
			<path class="st3" d="M128.82,146.34c0,0,17.53,8.29,36.33-2.91c0,0-6.58,5.99-20.59,6.49
				C144.56,149.93,134.64,150.01,128.82,146.34z"/>
			<path class="st3" d="M121.14,165.23c0,0,13.42-9.32,27.86-13.17C149,152.07,132.24,156.17,121.14,165.23z"/>
			<path class="st3" d="M185.16,147.19c0,0,14.7,2.39,25.47-5.9C210.63,141.3,200.89,150.7,185.16,147.19z"/>
			<path class="st3" d="M199.86,154.72c0,0,14.54,9.06,21.03,22.4C220.89,177.11,212,162.66,199.86,154.72z"/>
		</g>
		<g>
			<g>
				<path class="st7" d="M216.1,176.51l-0.86-6.49c0,0-12.81-14.09-21.92-19.14c0,0,14.01-3.19,18.41-8.83
					c4.41-5.64-0.58-6.09-0.58-6.09s-9.92,10.25-22.7,9.13c-11.48-1-17.66-6.87-20.57-8.92l0.02-40.23l-12.31-0.01l-0.01,50.78
					c-2.45,3.14-7.22,7.4-15.22,8.09c-9.91,0.85-17.61-7.01-17.61-7.01s-3.87,0.34-0.45,4.67c3.42,4.33,12.25,6.78,12.25,6.78
					c-7.07,3.88-14.7,13.34-14.7,13.34l1.37,3.76c11.74-16.66,29.65-17.42,34.36-18.54l-0.01,46.06h0.07
					c0.22,0.86,2.88,1.53,6.12,1.53c3.39,0,6.16-0.74,6.16-1.65c0-0.06-0.02-0.12-0.04-0.18l0.02-58.17
					C171.91,147.18,199.97,153.38,216.1,176.51z"/>
				<path class="st8" d="M161.77,205.74h-0.01c-2.76,0-5.85-0.52-6.41-1.63l0,0c-0.06-0.07-0.13-0.16-0.13-0.24l0.01-45.63
					c-0.56,0.12-1.25,0.23-2.09,0.37c-6.99,1.16-21.53,3.57-31.64,17.93c-0.08,0.11-0.2,0.16-0.33,0.14
					c-0.13-0.02-0.23-0.11-0.28-0.22l-1.37-3.76c-0.04-0.12-0.02-0.24,0.06-0.33c0.08-0.1,7.26-8.95,14.11-13.02
					c-2.25-0.71-8.77-3.01-11.66-6.67c-1.3-1.65-1.75-2.98-1.33-3.94c0.49-1.14,1.96-1.28,2.02-1.28c0.1-0.01,0.2,0.03,0.27,0.1
					c0.07,0.07,6.93,6.98,15.85,6.98c0.5-0.01,1-0.03,1.49-0.07c7.72-0.66,12.36-4.62,14.91-7.87l0.02-50.66
					c0-0.19,0.15-0.34,0.34-0.34l0,0h12.31c0.09,0,0.18,0.04,0.24,0.1c0.06,0.07,0.1,0.15,0.1,0.24l-0.01,40.05
					c0.34,0.24,0.71,0.53,1.14,0.86c3.21,2.46,9.19,7.04,19.11,7.9c0.63,0.05,1.28,0.08,1.92,0.08c11.54,0,20.41-9.02,20.49-9.12
					c0.08-0.07,0.17-0.11,0.28-0.1c0.08,0.01,1.91,0.18,2.52,1.6c0.53,1.22-0.03,2.92-1.69,5.03c-3.86,4.93-14.65,7.96-17.77,8.75
					c9,5.34,21.14,18.65,21.26,18.79c0.04,0.05,0.07,0.11,0.08,0.19l0.86,6.5c0.02,0.16-0.07,0.31-0.21,0.36
					c-0.14,0.06-0.32,0.01-0.4-0.12c-13.8-19.79-36.48-27.16-45.02-29.94c-1.1-0.36-1.96-0.64-2.57-0.86l-0.02,57.59
					c0.03,0.08,0.04,0.16,0.04,0.24C168.25,205.05,164.99,205.74,161.77,205.74z M155.91,203.68c0.02,0.03,0.04,0.06,0.05,0.09
					c0.14,0.53,2.29,1.28,5.8,1.28l0.01,0.34v-0.34c3.76,0,5.8-0.87,5.8-1.31c-0.02-0.04-0.04-0.14-0.04-0.18l0.02-58.17
					c0-0.12,0.06-0.23,0.16-0.29c0.1-0.06,0.22-0.07,0.32-0.03c0.55,0.24,1.58,0.58,2.99,1.03c8.44,2.74,30.59,9.95,44.57,29.08
					l-0.66-5.03c-1.05-1.14-13.15-14.23-21.76-19c-0.13-0.07-0.19-0.21-0.18-0.35c0.02-0.14,0.12-0.25,0.27-0.29
					c0.14-0.03,13.93-3.22,18.22-8.7c1.47-1.88,2.02-3.38,1.61-4.34c-0.37-0.85-1.42-1.11-1.81-1.18c-1.13,1.11-9.78,9.2-20.86,9.2
					c-0.66,0-1.32-0.03-1.98-0.09c-10.11-0.88-16.2-5.54-19.46-8.04c-0.48-0.37-0.9-0.68-1.27-0.95c-0.09-0.06-0.15-0.17-0.15-0.28
					l0.01-39.89l-11.62-0.01l-0.03,50.44c0,0.07-0.02,0.15-0.06,0.21c-2.14,2.76-7,7.49-15.46,8.22c-0.51,0.04-1.03,0.07-1.55,0.07
					c-8.53,0-15.22-6.1-16.21-7.05c-0.32,0.06-1.05,0.26-1.31,0.86c-0.3,0.71,0.13,1.83,1.24,3.24c3.31,4.19,11.99,6.64,12.07,6.67
					c0.13,0.03,0.23,0.15,0.26,0.29c0.01,0.14-0.06,0.27-0.18,0.34c-6.44,3.54-13.47,11.89-14.48,13.1l1.08,2.96
					c10.26-14.12,24.73-16.52,31.72-17.68c1.03-0.17,1.85-0.3,2.45-0.45c0.1-0.02,0.21,0,0.29,0.07c0.08,0.07,0.13,0.17,0.13,0.27
					L155.91,203.68z"/>
			</g>
			<g>
				<g class="st9">
					<path class="st10" d="M120.92,149.77c0.08,0.66,0.46,1.53,1.39,2.7c3.42,4.33,12.25,6.78,12.25,6.78l2.23-2.22
						C131.12,156.2,124.92,152.53,120.92,149.77z"/>
					<path class="st10" d="M190.69,151.44c-1.26-0.91,2.64-0.57,2.64-0.57s14.01-3.19,18.41-8.83c3.81-4.88,0.59-5.88-0.35-6.05
						c-1.33,2.21-3.49,5.72-3.72,5.87c-0.34,0.23-9.23,5.47-15.16,5.92c-5.93,0.46-21.09-5.24-23.25-6.72
						c-2.17-1.48-1.37-4.9-1.37-4.9l0.02-40.23l-12.31-0.01v11.72c0.11-0.97,0.92-6.88,3.75-6.88c3.07,0,3.93,4.28,4.1,10.43v75.22
						c0,0,0.85,12.99-7.86,12.31c-0.01,0-0.02,0-0.02,0v5.13h0.07c0.22,0.86,2.88,1.53,6.12,1.53c3.39,0,6.16-0.74,6.16-1.65
						c0-0.06-0.02-0.12-0.04-0.18l0.02-58.17c4.02,1.78,32.08,7.98,48.21,31.11l-0.42-3.15
						C205.2,160.24,191.82,152.27,190.69,151.44z"/>
					<path class="st10" d="M134.72,161.58c-4.53,2.65-10.27,8.25-14.31,12.53l0.81,2.23c11.74-16.66,29.65-17.42,34.36-18.54
						l0.23-4.31C155.81,153.49,143.5,156.45,134.72,161.58z"/>
				</g>
				<path class="st7" d="M156.95,106.08l0.17,90.78c0,0,1.71-2.22,1.71-10.43c0-8.21,0-75.73,0-75.73S158.49,107.79,156.95,106.08z"
					/>
				<path class="st7" d="M131.9,154.46c0,0,12.82,4.36,23.85-5.39c0,0-5.13,6.67-14.79,7.01
					C133.11,156.36,131.9,154.46,131.9,154.46z"/>
				<path class="st7" d="M177.04,143.01c0,0,12.14,6.67,26.41-0.08c0,0-6.24,3.93-14.36,3.67
					C182.71,146.4,177.04,143.01,177.04,143.01z"/>
			</g>
			<g>
				<g>
					<path class="st7" d="M167.91,95.93c0,0.91-2.76,1.65-6.16,1.65c-3.4,0-6.16-0.74-6.16-1.65c0-0.91,2.76-1.65,6.16-1.65
						C165.15,94.28,167.91,95.02,167.91,95.93z"/>
					<path class="st8" d="M161.77,97.92h-0.01c-1.67,0-3.25-0.18-4.44-0.5c-1.36-0.36-2.05-0.87-2.05-1.5
						c0-1.31,3.26-1.99,6.49-1.99c3.23,0,6.5,0.69,6.5,2C168.25,97.24,164.99,97.92,161.77,97.92z M161.76,94.62
						c-3.76,0-5.81,0.86-5.81,1.31c0,0.17,0.41,0.54,1.54,0.84c1.14,0.3,2.65,0.47,4.27,0.47l0.01,0.34v-0.34
						c3.76,0,5.8-0.86,5.8-1.31C167.57,95.48,165.52,94.62,161.76,94.62z"/>
				</g>
				<g>
					<path class="st11" d="M167.91,95.93c0,0.91-2.76,1.65-6.16,1.65c-3.4,0-6.16-0.74-6.16-1.65c0-0.91,2.76-1.65,6.16-1.65
						C165.15,94.28,167.91,95.02,167.91,95.93z"/>
					<path class="st12" d="M161.77,97.92h-0.01c-1.67,0-3.25-0.18-4.44-0.5c-1.36-0.36-2.05-0.87-2.05-1.5
						c0-1.31,3.26-1.99,6.49-1.99c3.23,0,6.5,0.69,6.5,2C168.25,97.24,164.99,97.92,161.77,97.92z M161.76,94.62
						c-3.76,0-5.81,0.86-5.81,1.31c0,0.17,0.41,0.54,1.54,0.84c1.14,0.3,2.65,0.47,4.27,0.47l0.01,0.34v-0.34
						c3.76,0,5.8-0.86,5.8-1.31C167.57,95.48,165.52,94.62,161.76,94.62z"/>
				</g>
				<path class="st11" d="M165.48,95.88c0,0.55-1.67,1-3.73,1c-2.06,0-3.72-0.45-3.72-1.01c0-0.55,1.66-1,3.72-1
					C163.82,94.88,165.48,95.32,165.48,95.88z"/>
			</g>
		</g>
		<g>
			<g>
				<g>
					<path class="st13" d="M114.7,160.52c-0.07-0.04-0.22,0.12-0.15,0.18c1.58,1.19,3.05,2.23,4.32,3.78c1.42,1.73,2.29,3.85,2.78,6
						c0.04,0.19,0.35-0.06,0.35-0.19C121.73,165.73,118.37,162.64,114.7,160.52z"/>
					<path class="st13" d="M125.45,145.6c-0.77-2.75-3.1-5.63-6.03-6.1c-0.13-0.02-0.36,0.27-0.18,0.33c2.93,1,4.3,3.56,5.8,6.05
						C125.17,146.11,125.5,145.8,125.45,145.6z"/>
					<g>
						<g>
							<path class="st14" d="M128.86,120.1c-2.09-1.86-4.83-3.11-8.23-3.55c-3.31-0.42-6.99,0.09-10.19,1.01
								c-13.64,3.96-22.43,19.06-23.59,32.92c-0.67,8.06-0.62,16.95,2.88,24.37c2.82,6,9,11.63,16.09,12.66
								c4.28,0.62,8.94-0.64,12.04-3.71c1.53-1.51,2.66-4.22,3.35-6.26c0.4-1.17,0.7-2.37,0.85-3.6c0.1-0.71-0.19-2.88,0.18-3.4
								c0,0,8.98-12.82,3.38-25.16c0,0,7.56-0.9,8.25-10.75C134.28,128.72,132.61,123.43,128.86,120.1z"/>
							<path class="st13" d="M107.98,188.01C107.98,188.01,107.98,188.01,107.98,188.01c-0.74,0-1.48-0.05-2.21-0.16
								c-7.64-1.11-13.71-7.26-16.35-12.86c-3.73-7.91-3.52-17.27-2.91-24.54c1.11-13.39,9.66-29.11,23.84-33.22
								c3.59-1.04,7.29-1.41,10.33-1.03c3.35,0.43,6.17,1.65,8.41,3.63c3.73,3.32,5.55,8.58,5.12,14.82
								c-0.6,8.62-6.43,10.59-8.1,10.99c5.34,12.43-3.5,24.99-3.59,25.11c-0.17,0.23-0.13,1.34-0.11,2.01
								c0.02,0.51,0.03,0.95,0,1.23c-0.16,1.21-0.45,2.44-0.87,3.66c-1.02,2.99-2.19,5.15-3.44,6.39
								C115.56,186.57,111.87,188.01,107.98,188.01z M118.18,116.75c-2.4,0-5.04,0.39-7.63,1.15
								c-13.88,4.03-22.25,19.46-23.35,32.63c-0.59,7.18-0.81,16.42,2.85,24.2c2.56,5.43,8.45,11.39,15.83,12.46
								c0.69,0.1,1.4,0.16,2.1,0.16c3.71,0,7.22-1.37,9.64-3.77c1.17-1.15,2.3-3.27,3.28-6.12c0.4-1.18,0.69-2.37,0.84-3.53
								c0.02-0.23,0.01-0.66,0-1.12c-0.04-1.21-0.05-2.04,0.23-2.43c0.09-0.13,8.8-12.81,3.35-24.83c-0.05-0.09-0.04-0.21,0.01-0.3
								c0.06-0.09,0.15-0.16,0.26-0.17c0.3-0.04,7.29-1,7.94-10.44c0.42-6.02-1.32-11.08-4.89-14.26c-2.12-1.89-4.84-3.06-8.03-3.46
								C119.83,116.8,119.02,116.75,118.18,116.75z"/>
						</g>
						<path class="st13" d="M118.06,164.4c2.57,2.01,3.53,5.22,4.02,8.34c0.04,0.28,0.43,0.04,0.45-0.14
							c0.21-2.23-0.46-4.5-1.78-6.28C119.98,165.54,119.07,164.88,118.06,164.4z"/>
						<path class="st13" d="M123.63,145.15c1.77,0.52,3.72,0.44,5.25-0.71c0.17-0.13,0.22-0.55-0.09-0.39
							c-1.83,0.92-3.99,0.91-5.95,0.33C123.08,144.66,123.35,144.92,123.63,145.15z"/>
						<path class="st14" d="M128.86,120.1c-2.09-1.86-4.83-3.11-8.23-3.55c-2.6-0.33-5.44-0.08-8.09,0.49
							c1.5-0.12,2.93-0.03,4.18,0.3c5.31,1.4,9.52,6.84,8.83,12.46c-0.79,6.36-7.78,11.07-13.64,9.97
							c6.21,5.63,8.05,13.28,6.41,21.84c-0.06,0.31-0.55,0.66-0.84,0.39c-2.56-2.36-5.39-4.21-8.68-5.43
							c-0.75-0.28-1.51-0.5-2.27-0.7c2.88,4.29,4.5,9.55,3.02,14.5c-1.79,6.01-7.69,9.13-13.39,5.64
							c-5.71-3.49-8.49-9.19-9.59-15.47c0.21,4.96,1.07,9.89,3.15,14.3c2.82,6,9,11.63,16.09,12.66c4.28,0.62,8.94-0.64,12.04-3.71
							c1.53-1.51,2.66-4.22,3.35-6.26c0.4-1.17,0.7-2.37,0.85-3.6c0.1-0.71-0.19-2.88,0.18-3.4c0,0,8.98-12.82,3.38-25.16
							c0,0,7.56-0.9,8.25-10.75C134.28,128.72,132.61,123.43,128.86,120.1z"/>
					</g>
					<path class="st15" d="M116.38,118.73c0,0-17.56,1.37-24.85,20.52c-7.3,19.15,0.69,32.6,0.69,32.6S83.78,136.28,116.38,118.73z"
						/>
					<path class="st14" d="M112.15,162.72c0,0,4.57,7.64,0.81,14.48c-3.76,6.84-10.26,5.81-10.26,5.81s9.92,1.14,12.99-7.52
						C118.77,166.82,112.15,162.72,112.15,162.72z"/>
					<path class="st14" d="M115.92,142.44c0,0,7.41,9.01,4.79,17.55C120.71,159.99,125.26,148.59,115.92,142.44z"/>
					<path class="st14" d="M126.06,120.33c0,0,7.41,9.57,0.92,16.41c0,0,4.33-1.71,4.45-7.3
						C131.54,123.86,126.06,120.33,126.06,120.33z"/>
				</g>
			</g>
		</g>
		<g>
			<g>
				<g>
					<g>
						<path class="st13" d="M221.73,160.52c0.08-0.04,0.23,0.12,0.15,0.18c-1.58,1.19-3.05,2.23-4.32,3.78
							c-1.4,1.73-2.28,3.85-2.78,6c-0.04,0.19-0.35-0.06-0.34-0.19C214.71,165.73,218.07,162.64,221.73,160.52z"/>
						<path class="st13" d="M210.99,145.6c0.77-2.75,3.1-5.63,6.03-6.1c0.14-0.02,0.37,0.27,0.19,0.33c-2.93,1-4.3,3.56-5.8,6.05
							C211.27,146.11,210.94,145.8,210.99,145.6z"/>
						<g>
							<g>
								<path class="st14" d="M207.57,120.1c2.09-1.86,4.83-3.11,8.22-3.55c3.31-0.42,7,0.09,10.19,1.01
									c13.64,3.96,22.44,19.06,23.59,32.92c0.67,8.06,0.61,16.95-2.88,24.37c-2.83,6-9,11.63-16.09,12.66
									c-4.28,0.62-8.93-0.64-12.03-3.71c-1.53-1.51-2.66-4.22-3.36-6.26c-0.4-1.17-0.69-2.37-0.86-3.6
									c-0.09-0.71,0.19-2.88-0.17-3.4c0,0-8.98-12.82-3.38-25.16c0,0-7.56-0.9-8.25-10.75
									C202.15,128.72,203.82,123.43,207.57,120.1z"/>
								<path class="st13" d="M228.46,188.01c-3.89,0-7.58-1.44-10.12-3.96c-1.25-1.24-2.41-3.4-3.43-6.39
									c-0.42-1.22-0.71-2.45-0.87-3.66c-0.04-0.28-0.03-0.72,0-1.23c0.02-0.66,0.06-1.77-0.12-2.02
									c-0.36-0.53-8.81-12.9-3.58-25.1c-1.68-0.39-7.51-2.36-8.1-10.99c-0.43-6.24,1.38-11.5,5.12-14.82
									c2.24-1.99,5.06-3.21,8.4-3.63c3.05-0.38,6.75-0.01,10.33,1.03c14.18,4.11,22.72,19.83,23.84,33.22
									c0.61,7.27,0.82,16.63-2.91,24.54c-2.63,5.6-8.71,11.75-16.35,12.86C229.94,187.96,229.2,188.01,228.46,188.01z
									 M218.26,116.75c-0.84,0-1.65,0.05-2.42,0.14c-3.21,0.4-5.91,1.57-8.04,3.46c-3.57,3.18-5.31,8.24-4.89,14.26
									c0.66,9.47,7.87,10.43,7.95,10.44c0.1,0.01,0.2,0.07,0.25,0.17c0.06,0.1,0.06,0.22,0.01,0.31
									c-5.43,11.98,2.99,24.3,3.35,24.83c0.28,0.4,0.28,1.22,0.23,2.43c-0.01,0.46-0.03,0.89,0.01,1.12
									c0.16,1.16,0.44,2.35,0.84,3.53c0.98,2.85,2.11,4.97,3.28,6.12c2.41,2.4,5.93,3.77,9.64,3.77c0.7,0,1.41-0.06,2.1-0.16
									c7.39-1.07,13.27-7.03,15.83-12.46c3.66-7.77,3.44-17.02,2.84-24.2c-1.09-13.17-9.46-28.6-23.34-32.63
									C223.3,117.14,220.66,116.75,218.26,116.75z"/>
							</g>
							<path class="st14" d="M249.58,150.49c-1.16-13.86-9.96-28.97-23.59-32.92c-3.19-0.92-6.88-1.43-10.19-1.01
								c-2.41,0.3-4.49,1.04-6.25,2.1c5.21-1.73,11.15-1.38,15.8,1.44c8.78,5.34,14.43,15.7,16.14,25.65
								c1.56,9.07-0.3,21-9.11,26.05c-4.03,2.31-11.1,1.98-13.29-2.96c-1.16-2.6-0.43-5.19,0.89-7.54
								c-2.54,0.14-4.99-0.57-6.86-2.59c-2.76-3-1.89-8.27-0.49-11.65c0.8-1.96,1.87-4.18,3.45-5.69c-3.37,0.44-6.77,0.01-9.29-1.55
								c-2.49-1.54-3.77-3.64-4.26-5.98c0.01,0.27,0.02,0.54,0.03,0.81c0.69,9.86,8.25,10.75,8.25,10.75
								c-5.6,12.34,3.38,25.16,3.38,25.16c0.37,0.53,0.08,2.69,0.17,3.4c0.17,1.23,0.46,2.43,0.86,3.6c0.7,2.04,1.83,4.74,3.36,6.26
								c3.1,3.07,7.75,4.33,12.03,3.71c7.09-1.03,13.26-6.66,16.09-12.66C250.19,167.44,250.25,158.55,249.58,150.49z"/>
							<path class="st13" d="M218.38,164.4c-2.57,2.01-3.52,5.22-4.02,8.34c-0.04,0.28-0.43,0.04-0.45-0.14
								c-0.21-2.23,0.46-4.5,1.77-6.28C216.46,165.54,217.37,164.88,218.38,164.4z"/>
							<path class="st13" d="M212.81,145.15c-1.77,0.52-3.71,0.44-5.24-0.71c-0.18-0.13-0.22-0.55,0.09-0.39
								c1.83,0.92,4,0.91,5.95,0.33C213.35,144.66,213.09,144.92,212.81,145.15z"/>
						</g>
					</g>
				</g>
				<path class="st15" d="M212,119.41c0,0-9.23,4.62-7.52,14.7c0,0,1.37,5.81,9.23,5.99c0,0-4.87-0.74-6.5-8.04
					C205.5,124.37,212,119.41,212,119.41z"/>
				<path class="st15" d="M220.03,139.24c0,0-9.05,5.64-7.69,15.56c0,0,0.34,3.76,3.93,4.78
					C216.27,159.59,210.23,152.81,220.03,139.24z"/>
				<path class="st15" d="M221.8,160.9c0,0-4.9,4.33,0.11,9.34c0,0,0.18-7.98,7.52-12.08C229.43,158.16,224.82,158.22,221.8,160.9z"
					/>
				<path class="st14" d="M219.52,181.47c0,0,3.58,6.49,13.67,3.76c10.08-2.73,18.98-20.86,12.82-40.69c0,0,4.62,29.92-10.94,37.61
					C235.08,182.15,229.27,186.77,219.52,181.47z"/>
			</g>
		</g>
		<g>
			<g>
				<path class="st16" d="M203.9,348.56c-10.97-14.45-31.7-14.48-31.7-14.48h-7.98c0,0-20.72,0.03-31.7,14.48
					c-10.98,14.46,1.01,22.94,15.92,28.2c0,0,12.28,2.63,14.91,9.65l3.02,25.17c0.51,0.24,1.26,0.24,1.71,0.28
					c0.7,0.05,1.35-0.01,1.96-0.23l3.04-25.23c2.63-7.02,14.91-9.65,14.91-9.65C202.91,371.5,214.89,363.02,203.9,348.56z"/>
				<path class="st17" d="M168.56,412.22L168.56,412.22c-0.17,0-0.33,0-0.49-0.01l-0.23-0.02c-0.47-0.03-1.11-0.07-1.6-0.29
					c-0.11-0.05-0.18-0.16-0.2-0.27l-3.02-25.14c-2.57-6.73-14.53-9.36-14.65-9.39c-11.7-4.13-18.23-8.98-19.98-14.85
					c-1.26-4.19,0.04-8.86,3.87-13.9c10.95-14.43,31.76-14.61,31.97-14.61h7.98c0.21,0,21.02,0.19,31.98,14.61
					c3.82,5.03,5.13,9.71,3.87,13.9c-1.76,5.86-8.29,10.71-19.94,14.83c-0.16,0.04-12.12,2.68-14.69,9.41l-3.03,25.19
					c-0.02,0.13-0.11,0.23-0.23,0.28C169.68,412.14,169.15,412.22,168.56,412.22z M166.69,411.35c0.36,0.11,0.82,0.14,1.18,0.17
					l0.24,0.01c0.15,0.02,0.3,0.02,0.44,0.02l0,0c0.43,0,0.82-0.05,1.18-0.17l3-25.01c0-0.02,0.01-0.05,0.02-0.08
					c2.67-7.11,14.65-9.75,15.16-9.86c11.24-3.97,17.81-8.81,19.47-14.36c1.18-3.97-0.08-8.44-3.76-13.29
					c-10.74-14.15-31.22-14.35-31.43-14.35h-7.98c-0.21,0-20.68,0.2-31.43,14.35c-3.68,4.85-4.94,9.31-3.76,13.29
					c1.66,5.56,8.24,10.4,19.52,14.38c0.46,0.1,12.45,2.74,15.11,9.85c0.01,0.03,0.02,0.06,0.02,0.08L166.69,411.35z"/>
			</g>
			<path class="st18" d="M203.9,348.56c-3.1-4.08-6.97-7.01-10.94-9.11c3.37,4.13,4.57,9.69,2.29,14.76
				c-5.78,12.83-21.06,15.77-33.7,15.53c-8.98-0.18-23.32-1-28.13-10.15c-1.57-2.99-1.76-7.17-0.8-11.12
				c-0.03,0.03-0.06,0.07-0.1,0.1c-10.98,14.46,1.01,22.94,15.92,28.2c0,0,12.28,2.63,14.91,9.65l3.02,25.17
				c0.51,0.24,1.26,0.24,1.71,0.28c0.7,0.05,1.35-0.01,1.96-0.23l3.04-25.23c2.63-7.02,14.91-9.65,14.91-9.65
				C202.91,371.5,214.89,363.02,203.9,348.56z"/>
			<g class="st19">
				<path class="st0" d="M165.99,411.29L165.99,411.29c-0.06-0.76-0.18-2.31-0.36-4.49c-0.26-3.22-0.67-7.82-1.23-13.34
					c-0.17-1.38-0.35-2.81-0.54-4.29c-0.09-0.75-0.19-1.5-0.28-2.27c-0.06-0.77-0.3-1.56-0.68-2.27c-0.77-1.44-2.1-2.51-3.5-3.42
					c-1.43-0.89-2.97-1.63-4.56-2.3c-3.21-1.35-6.6-2.49-9.98-3.82c-3.36-1.34-6.79-2.8-9.74-5.01c-1.47-1.09-2.78-2.41-3.82-3.89
					c-1.04-1.49-1.77-3.19-2.15-4.94c-0.37-1.76-0.4-3.59-0.02-5.3c0.58-1.66,1.24-3.3,2.12-4.78c0.21-0.38,0.42-0.75,0.66-1.1
					c0.23-0.36,0.47-0.71,0.7-1.07c0.52-0.66,1-1.36,1.56-1.97c1.07-1.27,2.27-2.37,3.49-3.38c1.22-1.01,2.5-1.86,3.77-2.64
					c1.29-0.74,2.56-1.43,3.83-1.99c2.52-1.14,4.94-1.92,7.11-2.51c2.17-0.59,4.1-0.95,5.7-1.2c3.2-0.48,5.05-0.5,5.05-0.5
					s-1.85,0-5.06,0.45c-1.6,0.23-3.54,0.57-5.72,1.13c-2.18,0.56-4.62,1.32-7.15,2.47c-1.28,0.55-2.55,1.24-3.85,1.98
					c-1.28,0.78-2.58,1.63-3.81,2.64c-1.23,1.01-2.45,2.12-3.53,3.4c-0.58,0.61-1.05,1.31-1.58,1.98c-0.23,0.36-0.48,0.71-0.71,1.07
					c-0.25,0.36-0.47,0.73-0.67,1.12c-0.9,1.49-1.57,3.12-2.17,4.83c-0.4,1.78-0.36,3.63,0,5.43c0.38,1.8,1.12,3.53,2.18,5.06
					c1.06,1.53,2.39,2.88,3.87,3.99c3,2.22,6.45,3.68,9.83,5.01c3.39,1.32,6.79,2.44,9.98,3.78c1.59,0.67,3.14,1.39,4.54,2.26
					c1.38,0.89,2.68,1.94,3.42,3.33c0.38,0.69,0.6,1.43,0.66,2.19c0.1,0.76,0.2,1.52,0.3,2.26c0.18,1.48,0.38,2.91,0.55,4.29
					c0.29,2.75,0.56,5.28,0.79,7.52c0.22,2.24,0.41,4.19,0.56,5.8C165.78,408.98,165.92,410.52,165.99,411.29z"/>
				<path class="st0" d="M165.84,407.03c0.19,2.26,0.32,3.8,0.38,4.46c0,0.01,0,0.01,0,0.01c-0.05-0.66-0.16-2.21-0.33-4.46
					c-0.12-1.54-0.25-3.41-0.42-5.55c-0.18-2.13-0.4-4.55-0.63-7.18c-0.1-1.33-0.28-2.69-0.44-4.11c-0.08-0.71-0.16-1.43-0.24-2.16
					c-0.04-0.37-0.08-0.74-0.13-1.11l-0.06-0.56l-0.12-0.56c-0.37-1.51-1.4-2.82-2.63-3.84c-1.22-1.04-2.67-1.84-4.14-2.59
					c-2.97-1.47-6.19-2.65-9.37-4.01c-3.18-1.36-6.4-2.88-9.15-5.05c-1.36-1.08-2.58-2.38-3.54-3.81c-0.96-1.45-1.64-3.06-2.03-4.74
					c-0.38-1.67-0.48-3.4-0.25-5.07c0.07-0.84,0.42-1.6,0.67-2.41c0.29-0.78,0.61-1.54,0.95-2.29c1.42-2.97,3.32-5.59,5.49-7.67
					c0.53-0.55,1.11-1,1.66-1.49c0.59-0.44,1.13-0.91,1.72-1.31c1.15-0.84,2.35-1.52,3.51-2.15c2.34-1.21,4.6-2.1,6.65-2.73
					c2.05-0.62,3.88-1.03,5.4-1.3c3.04-0.52,4.81-0.54,4.81-0.54s-1.77,0-4.82,0.49c-1.52,0.25-3.35,0.63-5.42,1.24
					c-2.07,0.6-4.35,1.47-6.7,2.68c-1.16,0.63-2.37,1.31-3.53,2.15c-0.6,0.39-1.15,0.86-1.75,1.3c-0.55,0.49-1.15,0.96-1.67,1.5
					c-1.12,1.03-2.13,2.24-3.08,3.51c-0.93,1.29-1.78,2.7-2.49,4.2c-0.34,0.75-0.68,1.52-0.97,2.31c-0.24,0.8-0.62,1.59-0.7,2.46
					c-0.23,1.7-0.14,3.46,0.24,5.17c0.38,1.71,1.07,3.37,2.05,4.86c0.98,1.48,2.2,2.79,3.59,3.9c2.81,2.2,6.05,3.7,9.24,5.05
					c3.2,1.36,6.42,2.52,9.37,3.97c1.47,0.74,2.9,1.52,4.1,2.53c1.21,1,2.21,2.26,2.57,3.71l0.12,0.54l0.06,0.56
					c0.04,0.37,0.09,0.74,0.13,1.11c0.08,0.73,0.17,1.45,0.25,2.15c0.16,1.42,0.35,2.78,0.45,4.1c0.25,2.63,0.48,5.05,0.69,7.18
					C165.54,403.64,165.7,405.5,165.84,407.03z"/>
				<path class="st0" d="M165.67,401.98c0.17,2.04,0.31,3.82,0.43,5.28c0.17,2.27,0.29,3.78,0.33,4.35c0,0,0,0,0.01,0
					c-0.03-0.57-0.13-2.08-0.28-4.36c-0.19-2.93-0.47-7.13-0.89-12.15c-0.17-2.52-0.5-5.22-0.78-8.1c-0.05-0.71-0.21-1.47-0.47-2.17
					c-0.28-0.7-0.69-1.34-1.17-1.94c-1-1.18-2.26-2.13-3.61-2.94c-2.72-1.64-5.74-2.88-8.73-4.28c-2.98-1.41-6-2.94-8.54-5.1
					c-2.56-2.13-4.39-5.1-5.14-8.29c-0.39-1.59-0.51-3.23-0.41-4.84c0.04-0.8,0.15-1.58,0.42-2.33c0.12-0.38,0.23-0.76,0.35-1.14
					c0.14-0.37,0.27-0.74,0.41-1.11c1.1-2.94,2.71-5.55,4.55-7.75c1.88-2.18,3.99-3.94,6.12-5.27c2.13-1.34,4.24-2.29,6.16-2.99
					c1.92-0.71,3.65-1.13,5.1-1.43c1.44-0.29,2.59-0.43,3.37-0.51c0.79-0.07,1.21-0.08,1.21-0.08s-0.42,0-1.21,0.07
					c-0.78,0.07-1.93,0.19-3.38,0.46c-1.44,0.29-3.19,0.69-5.12,1.37c-1.94,0.68-4.07,1.61-6.21,2.96
					c-2.15,1.32-4.29,3.09-6.19,5.28c-1.87,2.21-3.51,4.85-4.62,7.81c-0.14,0.37-0.28,0.75-0.42,1.11
					c-0.11,0.39-0.23,0.77-0.35,1.15c-0.28,0.75-0.39,1.59-0.44,2.4c-0.11,1.63,0.01,3.3,0.39,4.92c0.76,3.25,2.62,6.29,5.22,8.48
					c2.59,2.2,5.64,3.72,8.64,5.12c2.99,1.4,6.02,2.62,8.72,4.22c1.34,0.81,2.59,1.73,3.56,2.88c0.47,0.58,0.87,1.2,1.15,1.88
					c0.26,0.69,0.41,1.38,0.46,2.1c0.29,2.88,0.63,5.59,0.81,8.09C165.3,397.63,165.5,399.94,165.67,401.98z"/>
				<path class="st0" d="M165.99,402.44c0.14,1.94,0.26,3.64,0.36,5.03c0.16,2.28,0.26,3.74,0.29,4.21l0,0
					c-0.02-0.47-0.11-1.93-0.24-4.21c-0.08-1.4-0.18-3.1-0.29-5.05c-0.12-1.94-0.3-4.13-0.49-6.53c-0.19-2.38-0.39-4.98-0.61-7.72
					c-0.07-0.69-0.08-1.37-0.19-2.08c-0.09-0.71-0.34-1.41-0.66-2.06c-0.65-1.32-1.71-2.42-2.9-3.36c-2.4-1.86-5.23-3.18-8-4.65
					c-2.78-1.45-5.6-3.02-7.93-5.19c-2.35-2.13-3.97-5.01-4.7-8.04c-0.37-1.52-0.54-3.08-0.51-4.6c0.01-0.76,0.06-1.53,0.18-2.27
					c0.19-0.72,0.38-1.46,0.59-2.17c0.89-2.85,2.12-5.5,3.67-7.76c0.77-1.13,1.62-2.15,2.5-3.1c0.91-0.91,1.81-1.78,2.78-2.49
					c1.89-1.47,3.82-2.53,5.6-3.32c1.78-0.77,3.41-1.28,4.77-1.61c1.37-0.32,2.45-0.49,3.2-0.57c0.75-0.08,1.15-0.09,1.15-0.09
					s-0.4,0-1.15,0.08c-0.75,0.07-1.84,0.23-3.21,0.53c-1.37,0.31-3,0.79-4.8,1.55c-1.79,0.76-3.77,1.81-5.67,3.28
					c-0.97,0.72-1.89,1.58-2.8,2.5c-0.89,0.95-1.75,1.97-2.53,3.11c-1.58,2.27-2.83,4.93-3.73,7.8c-0.22,0.72-0.42,1.45-0.6,2.2
					c-0.13,0.77-0.2,1.53-0.21,2.31c-0.03,1.55,0.13,3.13,0.5,4.68c0.72,3.08,2.37,6.03,4.75,8.22c2.38,2.19,5.23,3.76,8.02,5.21
					c2.79,1.45,5.62,2.76,7.99,4.58c1.16,0.92,2.2,1.99,2.84,3.27c0.31,0.63,0.55,1.31,0.64,1.99c0.11,0.69,0.13,1.4,0.2,2.07
					c0.23,2.74,0.44,5.33,0.64,7.72C165.64,398.3,165.83,400.5,165.99,402.44z"/>
				<path class="st0" d="M165.32,389.32c0.19,2.61,0.37,5.08,0.53,7.36c0.15,2.28,0.34,4.36,0.45,6.21c0.12,1.85,0.21,3.47,0.3,4.8
					c0.13,2.23,0.23,3.65,0.25,4.05h0c-0.02-0.4-0.09-1.82-0.2-4.05c-0.06-1.33-0.14-2.95-0.23-4.81c-0.07-1.85-0.24-3.94-0.38-6.22
					c-0.16-2.27-0.33-4.75-0.5-7.36c-0.04-0.65-0.09-1.32-0.13-1.98c-0.04-0.67-0.08-1.36-0.26-2.03c-0.31-1.37-1.06-2.65-2.03-3.71
					c-1.96-2.14-4.61-3.59-7.15-5.14c-2.57-1.53-5.18-3.14-7.29-5.32c-2.12-2.13-3.56-4.92-4.23-7.81
					c-0.35-1.44-0.53-2.93-0.55-4.38c-0.02-1.46,0.02-2.9,0.48-4.27c0.18-0.69,0.35-1.37,0.53-2.05c0.07-0.34,0.2-0.67,0.32-1
					c0.12-0.32,0.24-0.65,0.35-0.96c0.25-0.64,0.45-1.29,0.74-1.89c0.3-0.6,0.6-1.18,0.89-1.77c0.15-0.29,0.28-0.58,0.45-0.86
					c0.18-0.27,0.35-0.54,0.53-0.8c0.35-0.53,0.67-1.07,1.03-1.56c0.8-0.93,1.49-1.91,2.34-2.66c1.6-1.63,3.36-2.78,4.97-3.7
					c0.41-0.21,0.81-0.42,1.19-0.61c0.39-0.19,0.78-0.33,1.15-0.49c0.73-0.33,1.45-0.51,2.08-0.74c1.28-0.35,2.31-0.56,3.02-0.65
					c0.7-0.1,1.08-0.11,1.08-0.11s-0.38,0-1.09,0.09c-0.71,0.08-1.74,0.28-3.03,0.62c-0.63,0.21-1.35,0.39-2.09,0.71
					c-0.37,0.16-0.77,0.29-1.16,0.48c-0.39,0.2-0.79,0.4-1.21,0.6c-1.61,0.9-3.42,2.03-5.02,3.67c-0.87,0.76-1.57,1.74-2.38,2.66
					c-0.37,0.5-0.69,1.04-1.05,1.57c-0.18,0.27-0.35,0.53-0.53,0.8c-0.17,0.28-0.3,0.57-0.46,0.86c-0.3,0.59-0.6,1.18-0.91,1.78
					c-0.29,0.6-0.49,1.26-0.75,1.9c-0.12,0.32-0.24,0.65-0.37,0.97c-0.12,0.33-0.25,0.65-0.33,0.99c-0.18,0.68-0.36,1.37-0.54,2.06
					c-0.46,1.37-0.52,2.87-0.5,4.34c0.02,1.48,0.19,2.97,0.54,4.45c0.67,2.94,2.12,5.78,4.28,7.98c2.15,2.21,4.79,3.81,7.37,5.34
					c2.57,1.53,5.19,2.97,7.11,5.05c0.96,1.04,1.68,2.27,1.99,3.59c0.18,0.65,0.21,1.32,0.27,1.99
					C165.22,388.01,165.26,388.67,165.32,389.32z"/>
				<path class="st0" d="M165.8,390.38c0.15,2.48,0.3,4.84,0.43,7c0.13,2.17,0.27,4.16,0.36,5.93c0.1,1.77,0.18,3.3,0.24,4.57
					c0.12,2.18,0.19,3.55,0.21,3.89l0,0c-0.01-0.34-0.07-1.71-0.15-3.9c-0.04-1.27-0.11-2.81-0.18-4.57
					c-0.06-1.77-0.18-3.76-0.3-5.93c-0.12-2.17-0.25-4.52-0.39-7.01c-0.07-1.25-0.14-2.52-0.22-3.83c-0.17-1.3-0.42-2.67-1.17-3.85
					c-0.7-1.18-1.62-2.26-2.7-3.17c-1.06-0.92-2.21-1.76-3.38-2.57c-2.32-1.65-4.71-3.32-6.59-5.51c-0.44-0.56-0.92-1.08-1.29-1.71
					c-0.19-0.3-0.41-0.61-0.58-0.91l-0.5-0.95c-0.61-1.29-1.06-2.65-1.38-4.04c-0.32-1.38-0.49-2.78-0.56-4.17
					c-0.04-1.39-0.05-2.78,0.19-4.1c0.14-0.66,0.29-1.32,0.43-1.97c0.16-0.65,0.25-1.3,0.47-1.92c0.2-0.62,0.39-1.23,0.59-1.84
					c0.1-0.3,0.18-0.61,0.29-0.9c0.13-0.29,0.24-0.58,0.37-0.87c0.25-0.56,0.48-1.13,0.72-1.69c0.27-0.54,0.58-1.05,0.85-1.56
					c0.52-1.05,1.24-1.93,1.84-2.83c0.34-0.42,0.7-0.81,1.04-1.2c0.17-0.19,0.34-0.39,0.51-0.58c0.18-0.17,0.37-0.34,0.54-0.51
					c0.37-0.33,0.71-0.67,1.06-0.98c0.37-0.28,0.74-0.55,1.08-0.81c1.45-1,2.82-1.72,4.01-2.14c0.59-0.26,1.14-0.38,1.61-0.53
					c0.48-0.1,0.89-0.22,1.22-0.26c0.67-0.12,1.03-0.13,1.03-0.13s-0.36,0-1.03,0.12c-0.34,0.03-0.74,0.14-1.23,0.24
					c-0.47,0.15-1.02,0.26-1.62,0.5c-1.21,0.4-2.59,1.11-4.07,2.1c-1.49,0.97-2.93,2.4-4.31,4.07c-0.61,0.91-1.35,1.79-1.88,2.84
					c-0.28,0.51-0.58,1.03-0.87,1.57c-0.23,0.55-0.48,1.12-0.73,1.69c-0.12,0.29-0.25,0.58-0.37,0.87c-0.12,0.3-0.2,0.6-0.31,0.91
					c-0.19,0.61-0.39,1.23-0.59,1.85c-0.23,0.62-0.33,1.28-0.48,1.93c-0.14,0.65-0.29,1.31-0.44,1.98
					c-0.25,1.35-0.25,2.75-0.21,4.15c0.07,1.4,0.23,2.83,0.55,4.23c0.31,1.41,0.76,2.78,1.38,4.11l0.5,0.97
					c0.19,0.33,0.39,0.61,0.59,0.93c0.36,0.62,0.85,1.18,1.3,1.76c1.93,2.22,4.35,3.9,6.68,5.53c2.31,1.63,4.67,3.29,6.02,5.64
					c0.73,1.14,0.99,2.47,1.16,3.74C165.64,387.86,165.72,389.14,165.8,390.38z"/>
				<path class="st0" d="M165.78,384.91c0.07,0.31,0.1,0.63,0.14,0.93c0.11,0.62,0.1,1.26,0.14,1.88c0.06,1.25,0.12,2.46,0.17,3.65
					c0.11,2.38,0.22,4.62,0.31,6.69c0.4,7.8,0.68,13.15,0.7,13.75l0,0c-0.02-0.6-0.23-5.95-0.52-13.76
					c-0.09-2.07-0.18-4.32-0.28-6.69c-0.05-1.19-0.1-2.41-0.15-3.66c-0.04-0.62-0.03-1.25-0.14-1.89c-0.04-0.32-0.07-0.65-0.13-0.96
					c-0.09-0.32-0.18-0.63-0.26-0.95c-0.42-1.25-1.03-2.45-1.9-3.49c-0.85-1.04-1.84-1.98-2.87-2.88c-1.03-0.9-2.07-1.78-3.07-2.71
					c-0.99-0.95-1.94-1.95-2.76-3.05c-0.77-1.1-1.53-2.3-1.99-3.57l-0.38-0.95c-0.12-0.32-0.25-0.63-0.33-0.97
					c-0.17-0.66-0.34-1.31-0.51-1.97c-0.53-2.66-0.69-5.35-0.5-7.91c0.02-0.65,0.18-1.27,0.28-1.9c0.11-0.63,0.23-1.24,0.33-1.85
					c0.24-1.22,0.59-2.39,0.87-3.55c0.18-0.56,0.38-1.11,0.56-1.65c0.2-0.54,0.34-1.09,0.59-1.59c0.47-1.01,0.86-2.01,1.41-2.89
					c0.98-1.83,2.2-3.3,3.37-4.49c1.19-1.2,2.45-1.98,3.51-2.54c1.07-0.57,2-0.81,2.62-0.97c0.64-0.14,0.98-0.16,0.98-0.16
					s-0.34,0.01-0.99,0.14c-0.63,0.15-1.56,0.38-2.64,0.93c-1.07,0.55-2.35,1.32-3.56,2.51c-1.2,1.18-2.46,2.66-3.45,4.49
					c-0.56,0.89-0.96,1.9-1.44,2.91c-0.26,0.5-0.4,1.06-0.61,1.6c-0.19,0.55-0.4,1.1-0.58,1.66c-0.29,1.16-0.64,2.33-0.9,3.56
					c-0.11,0.61-0.22,1.24-0.34,1.86c-0.1,0.62-0.26,1.26-0.29,1.91c-0.2,2.61-0.05,5.31,0.47,7.99c0.17,0.67,0.33,1.33,0.5,2
					c0.07,0.34,0.21,0.66,0.33,0.98l0.37,0.97c0.48,1.32,1.21,2.49,2.02,3.64c0.83,1.12,1.8,2.13,2.81,3.08
					c1.02,0.93,2.07,1.82,3.1,2.7c1.03,0.89,2,1.82,2.84,2.83c0.85,1.01,1.46,2.18,1.87,3.39
					C165.62,384.29,165.7,384.6,165.78,384.91z"/>
				<path class="st0" d="M166.32,385.14c0.16,1.21,0.17,2.44,0.22,3.62c0.04,1.19,0.09,2.36,0.13,3.5c0.08,2.27,0.16,4.42,0.24,6.4
					c0.32,7.6,0.53,12.75,0.55,13.16l0,0c-0.02-0.41-0.16-5.57-0.37-13.17c-0.07-1.99-0.13-4.13-0.21-6.41
					c-0.03-1.13-0.07-2.3-0.11-3.49c-0.04-1.19-0.04-2.41-0.21-3.66c-0.21-1.23-0.52-2.48-1.12-3.63c-0.58-1.15-1.35-2.21-2.19-3.21
					c-1.7-1.98-3.6-3.84-4.93-6.11c-0.37-0.55-0.63-1.14-0.93-1.72c-0.25-0.6-0.54-1.21-0.72-1.83c-0.19-0.62-0.38-1.25-0.57-1.87
					c-0.14-0.64-0.27-1.27-0.4-1.9c-0.44-2.55-0.59-5.12-0.53-7.59c0.01-1.23,0.22-2.43,0.38-3.61c0.09-0.59,0.14-1.18,0.27-1.75
					c0.11-0.57,0.22-1.13,0.33-1.69c0.43-2.23,1.06-4.28,1.74-6.14c0.76-1.82,1.54-3.47,2.49-4.77c0.22-0.33,0.44-0.65,0.69-0.93
					c0.25-0.28,0.47-0.57,0.71-0.82c0.25-0.24,0.49-0.47,0.72-0.69c0.23-0.23,0.49-0.39,0.71-0.57c0.93-0.69,1.76-1.08,2.36-1.26
					c0.59-0.18,0.92-0.2,0.92-0.2s-0.33,0.02-0.93,0.19c-0.6,0.17-1.44,0.55-2.38,1.22c-0.23,0.18-0.5,0.34-0.73,0.57
					c-0.23,0.21-0.48,0.44-0.74,0.68c-0.24,0.25-0.47,0.53-0.73,0.81c-0.26,0.28-0.49,0.6-0.72,0.94c-0.98,1.29-1.79,2.94-2.55,4.77
					c-0.7,1.86-1.34,3.93-1.8,6.16c-0.11,0.55-0.22,1.12-0.34,1.69c-0.12,0.57-0.17,1.16-0.26,1.75c-0.16,1.18-0.39,2.39-0.4,3.63
					c-0.08,2.49,0.05,5.07,0.5,7.64c0.13,0.64,0.24,1.29,0.39,1.93c0.19,0.63,0.38,1.27,0.57,1.9c0.19,0.65,0.47,1.23,0.71,1.85
					c0.32,0.6,0.59,1.21,0.95,1.77c1.36,2.31,3.3,4.17,5,6.12c0.83,0.99,1.59,2.03,2.17,3.15
					C165.79,382.71,166.1,383.93,166.32,385.14z"/>
				<path class="st0" d="M166.88,386.16c0.09,2.37,0.14,4.68,0.2,6.86c0.07,2.18,0.12,4.24,0.17,6.15
					c0.24,7.42,0.39,12.41,0.4,12.67l0,0c-0.01-0.27-0.09-5.26-0.22-12.68c-0.04-1.9-0.09-3.97-0.13-6.15
					c-0.06-2.18-0.08-4.48-0.17-6.87c-0.06-1.2-0.21-2.41-0.54-3.61c-0.33-1.19-0.83-2.36-1.43-3.45c-0.61-1.11-1.32-2.16-1.99-3.22
					c-0.68-1.07-1.3-2.17-1.82-3.32c-0.55-1.14-0.92-2.33-1.27-3.56c-0.28-1.21-0.56-2.45-0.71-3.68c-0.35-2.47-0.48-4.93-0.47-7.3
					c0-1.2,0.05-2.35,0.19-3.49c0.12-1.14,0.19-2.26,0.37-3.34c0.16-1.07,0.27-2.13,0.49-3.14c0.19-1.01,0.37-1.99,0.63-2.9
					c0.11-0.46,0.23-0.91,0.34-1.36c0.13-0.43,0.27-0.86,0.4-1.27c0.23-0.83,0.57-1.58,0.85-2.31c0.63-1.41,1.29-2.58,2.01-3.44
					c0.71-0.85,1.41-1.39,1.94-1.66c0.52-0.27,0.86-0.29,0.86-0.29s-0.33,0.02-0.86,0.29c-0.54,0.25-1.25,0.78-1.98,1.63
					c-0.73,0.85-1.42,2.03-2.07,3.43c-0.28,0.72-0.65,1.47-0.89,2.31c-0.13,0.42-0.27,0.84-0.41,1.27c-0.12,0.44-0.23,0.9-0.35,1.36
					c-0.26,0.92-0.44,1.9-0.64,2.9c-0.22,1.01-0.35,2.06-0.51,3.15c-0.18,1.08-0.26,2.2-0.39,3.34c-0.14,1.14-0.21,2.32-0.21,3.51
					c-0.03,2.39,0.09,4.86,0.43,7.35c0.13,1.25,0.42,2.48,0.69,3.73c0.34,1.21,0.72,2.46,1.27,3.61c0.54,1.16,1.17,2.27,1.86,3.34
					c0.68,1.07,1.4,2.1,2,3.19c0.61,1.08,1.09,2.22,1.42,3.39C166.65,383.78,166.81,384.98,166.88,386.16z"/>
				<path class="st0" d="M166.82,381.71c0.11,0.59,0.21,1.17,0.31,1.75c0.08,0.58,0.09,1.17,0.14,1.75
					c0.04,0.59,0.09,1.16,0.09,1.74c0.08,4.61,0.16,8.92,0.22,12.61c0.17,7.29,0.27,12.16,0.28,12.29l0,0
					c0-0.13-0.04-5.01-0.1-12.29c-0.04-3.69-0.09-8-0.15-12.61c0.01-0.58-0.05-1.16-0.08-1.75c-0.05-0.58-0.06-1.18-0.13-1.77
					c-0.1-0.59-0.19-1.18-0.3-1.78c-0.09-0.6-0.3-1.17-0.44-1.77c-0.69-2.33-1.75-4.58-2.39-6.93c-0.37-1.16-0.58-2.38-0.82-3.58
					c-0.2-1.19-0.29-2.42-0.44-3.61c-0.17-1.2-0.2-2.4-0.25-3.58c-0.06-1.18-0.11-2.36-0.1-3.51c-0.06-2.3,0.13-4.53,0.24-6.64
					c0.09-1.06,0.17-2.08,0.26-3.07c0.11-0.98,0.22-1.94,0.33-2.85c0.27-1.82,0.52-3.49,0.86-4.96c0.3-1.46,0.72-2.71,1.11-3.71
					c0.4-1,0.86-1.72,1.26-2.14c0.19-0.2,0.38-0.34,0.51-0.41c0.13-0.07,0.2-0.08,0.2-0.08s-0.08,0.01-0.21,0.08
					c-0.13,0.07-0.32,0.19-0.52,0.4c-0.4,0.41-0.88,1.13-1.29,2.12c-0.41,1-0.85,2.24-1.18,3.71c-0.37,1.46-0.66,3.13-0.92,4.96
					c-0.11,0.92-0.23,1.87-0.34,2.86c-0.09,0.99-0.18,2.02-0.28,3.07c-0.13,2.11-0.33,4.34-0.28,6.66
					c-0.02,1.16,0.03,2.33,0.08,3.52c0.04,1.19,0.07,2.39,0.23,3.6c0.14,1.21,0.21,2.43,0.42,3.65c0.24,1.2,0.43,2.42,0.81,3.61
					c0.66,2.4,1.74,4.62,2.43,6.93C166.52,380.55,166.73,381.12,166.82,381.71z"/>
				<path class="st0" d="M167.92,334.82c-0.02-0.02-0.19,0.24-0.32,0.8c-0.14,0.54-0.27,1.37-0.39,2.42
					c-0.26,2.09-0.43,5.11-0.57,8.72c-0.07,1.81-0.12,3.77-0.17,5.85c-0.02,1.03-0.03,2.1-0.06,3.19c0,1.08,0,2.2,0,3.33
					c0.01,2.27,0.12,4.6,0.17,6.97c0.05,1.18,0.03,2.39,0.14,3.57c0.09,1.2,0.19,2.4,0.29,3.61c0.08,1.21,0.27,2.4,0.4,3.59
					c0.15,1.19,0.25,2.39,0.38,3.57l0.09,0.89l0.03,0.88c0.03,0.59,0.04,1.18,0.07,1.77c0.04,1.16,0.1,2.32,0.09,3.44
					c0,4.52,0.02,8.75,0.02,12.37c-0.02,7.24-0.03,12.07-0.03,12.07s-0.06-4.83-0.15-12.07c-0.03-3.62-0.07-7.85-0.1-12.37
					c0.01-1.13-0.07-2.28-0.11-3.44c-0.02-0.58-0.04-1.16-0.07-1.75l-0.04-0.89l-0.09-0.88c-0.14-1.18-0.24-2.37-0.4-3.56
					c-0.14-1.19-0.33-2.4-0.43-3.6c-0.09-1.2-0.18-2.41-0.27-3.61c-0.1-1.2-0.07-2.4-0.12-3.59c-0.04-2.38-0.13-4.72-0.13-6.98
					c0-1.13,0.01-2.25,0.02-3.33c0.03-1.09,0.06-2.16,0.07-3.19c0.06-2.07,0.12-4.04,0.2-5.85c0.08-1.81,0.19-3.47,0.31-4.94
					c0.13-1.47,0.24-2.75,0.39-3.79c0.14-1.05,0.28-1.87,0.43-2.41C167.72,335.06,167.9,334.8,167.92,334.82z"/>
				<path class="st0" d="M168.4,334.82c0.02-0.02,0.2,0.24,0.34,0.79c0.16,0.55,0.29,1.37,0.43,2.41c0.15,1.05,0.26,2.32,0.39,3.79
					c0.12,1.47,0.22,3.13,0.3,4.94c0.08,1.81,0.14,3.77,0.2,5.85c0.03,1.03,0.05,2.1,0.07,3.19c0.01,1.08,0.02,2.2,0.02,3.33
					c0,2.27-0.09,4.61-0.13,6.98c-0.04,1.19-0.02,2.39-0.12,3.59c-0.09,1.2-0.18,2.41-0.27,3.61c-0.09,1.2-0.29,2.41-0.42,3.6
					c-0.16,1.19-0.27,2.38-0.4,3.56l-0.09,0.88l-0.04,0.89c-0.02,0.59-0.04,1.17-0.07,1.75c-0.04,1.17-0.11,2.31-0.1,3.44
					c-0.04,4.52-0.07,8.75-0.1,12.37c-0.09,7.24-0.15,12.07-0.15,12.07s-0.02-4.83-0.03-12.07c0.01-3.62,0.01-7.85,0.02-12.37
					c-0.01-1.13,0.06-2.28,0.09-3.44c0.02-0.59,0.04-1.17,0.06-1.77l0.03-0.88l0.09-0.89c0.13-1.18,0.23-2.38,0.38-3.57
					c0.13-1.19,0.32-2.38,0.4-3.59c0.1-1.21,0.19-2.4,0.29-3.61c0.11-1.19,0.09-2.39,0.13-3.57c0.06-2.37,0.17-4.71,0.18-6.97
					c0-1.13,0-2.25,0-3.33c-0.02-1.09-0.04-2.15-0.06-3.19c-0.05-2.07-0.1-4.04-0.17-5.85c-0.14-3.62-0.32-6.63-0.57-8.72
					c-0.12-1.05-0.25-1.87-0.39-2.42C168.6,335.06,168.43,334.8,168.4,334.82z"/>
				<path class="st0" d="M168.88,334.82c0,0,0.08,0.01,0.21,0.08c0.13,0.07,0.33,0.19,0.52,0.4c0.4,0.41,0.88,1.13,1.3,2.12
					c0.41,1,0.85,2.24,1.18,3.71c0.37,1.46,0.65,3.13,0.92,4.96c0.11,0.92,0.22,1.87,0.34,2.86c0.09,0.99,0.18,2.02,0.28,3.07
					c0.13,2.11,0.33,4.34,0.28,6.66c0.02,1.16-0.03,2.33-0.07,3.52c-0.05,1.19-0.08,2.39-0.23,3.6c-0.14,1.21-0.22,2.43-0.42,3.65
					c-0.23,1.2-0.43,2.42-0.81,3.61c-0.66,2.4-1.74,4.62-2.43,6.93c-0.14,0.58-0.35,1.15-0.45,1.74c-0.1,0.59-0.2,1.17-0.3,1.75
					c-0.08,0.58-0.09,1.17-0.14,1.75c-0.03,0.59-0.1,1.16-0.09,1.74c-0.08,4.61-0.16,8.92-0.22,12.61
					c-0.17,7.38-0.28,12.31-0.28,12.31s0.03-4.93,0.09-12.31c0.04-3.69,0.09-8,0.15-12.61c-0.01-0.58,0.06-1.16,0.08-1.75
					c0.06-0.58,0.06-1.18,0.14-1.77c0.1-0.59,0.19-1.18,0.29-1.78c0.09-0.6,0.3-1.17,0.45-1.77c0.69-2.33,1.75-4.58,2.38-6.93
					c0.38-1.16,0.59-2.38,0.83-3.58c0.2-1.19,0.28-2.42,0.43-3.61c0.17-1.2,0.2-2.4,0.25-3.58c0.06-1.18,0.11-2.36,0.1-3.51
					c0.06-2.3-0.12-4.53-0.24-6.64c-0.09-1.06-0.18-2.08-0.26-3.07c-0.12-0.98-0.22-1.94-0.33-2.85c-0.26-1.82-0.52-3.49-0.86-4.96
					c-0.31-1.46-0.72-2.71-1.11-3.71c-0.4-1-0.86-1.72-1.26-2.14c-0.19-0.2-0.38-0.34-0.51-0.41
					C168.96,334.83,168.88,334.82,168.88,334.82z"/>
				<path class="st0" d="M169.36,334.82c0,0,0.33,0.02,0.86,0.29c0.54,0.25,1.25,0.78,1.98,1.63c0.73,0.85,1.42,2.03,2.07,3.43
					c0.28,0.72,0.64,1.47,0.89,2.31c0.14,0.42,0.27,0.84,0.42,1.27c0.12,0.44,0.23,0.9,0.35,1.36c0.25,0.92,0.44,1.9,0.63,2.9
					c0.23,1.01,0.34,2.06,0.51,3.15c0.18,1.08,0.26,2.2,0.39,3.34c0.13,1.14,0.2,2.32,0.2,3.51c0.03,2.39-0.09,4.86-0.43,7.35
					c-0.14,1.25-0.43,2.48-0.7,3.73c-0.34,1.21-0.72,2.46-1.27,3.61c-0.54,1.16-1.18,2.27-1.86,3.34c-0.69,1.07-1.4,2.1-2,3.19
					c-0.6,1.09-1.09,2.22-1.42,3.39c-0.32,1.17-0.48,2.37-0.55,3.55c-0.09,2.37-0.14,4.68-0.2,6.86c-0.07,2.18-0.12,4.24-0.17,6.15
					c-0.24,7.62-0.4,12.7-0.4,12.7s0.09-5.08,0.22-12.71c0.04-1.9,0.08-3.97,0.13-6.15c0.06-2.18,0.08-4.48,0.16-6.87
					c0.07-1.2,0.22-2.41,0.54-3.61c0.33-1.19,0.82-2.36,1.43-3.45c0.61-1.11,1.32-2.16,1.99-3.22c0.68-1.07,1.3-2.17,1.82-3.32
					c0.55-1.14,0.92-2.33,1.27-3.56c0.27-1.22,0.56-2.45,0.71-3.68c0.34-2.47,0.47-4.93,0.46-7.3c0.01-1.2-0.05-2.35-0.18-3.49
					c-0.12-1.14-0.19-2.26-0.37-3.34c-0.16-1.07-0.28-2.13-0.49-3.14c-0.19-1.01-0.36-1.99-0.62-2.9c-0.12-0.46-0.23-0.91-0.34-1.36
					c-0.14-0.43-0.28-0.86-0.4-1.27c-0.23-0.83-0.58-1.58-0.85-2.31c-0.63-1.41-1.3-2.58-2-3.44c-0.71-0.85-1.42-1.39-1.95-1.66
					C169.69,334.84,169.36,334.82,169.36,334.82z"/>
				<path class="st0" d="M169.84,334.82c0,0,0.34,0.02,0.93,0.19c0.6,0.17,1.44,0.55,2.38,1.22c0.23,0.18,0.5,0.34,0.72,0.57
					c0.23,0.21,0.48,0.44,0.74,0.68c0.24,0.25,0.48,0.53,0.72,0.81c0.26,0.28,0.49,0.6,0.72,0.94c0.98,1.29,1.79,2.94,2.55,4.77
					c0.69,1.86,1.34,3.93,1.78,6.16c0.12,0.55,0.23,1.12,0.35,1.69c0.12,0.57,0.18,1.16,0.27,1.75c0.16,1.18,0.38,2.39,0.4,3.63
					c0.07,2.49-0.06,5.07-0.49,7.64c-0.13,0.64-0.25,1.29-0.39,1.93c-0.19,0.63-0.38,1.27-0.56,1.9c-0.19,0.65-0.48,1.23-0.72,1.85
					c-0.31,0.59-0.58,1.21-0.95,1.77c-1.36,2.31-3.31,4.17-5,6.12c-0.83,0.99-1.6,2.03-2.17,3.15c-0.6,1.12-0.91,2.34-1.12,3.55
					c-0.17,1.21-0.18,2.44-0.23,3.62c-0.04,1.19-0.09,2.36-0.13,3.5c-0.08,2.27-0.17,4.42-0.24,6.4
					c-0.33,7.92-0.55,13.21-0.55,13.21s0.15-5.29,0.37-13.21c0.07-1.99,0.13-4.13,0.21-6.41c0.03-1.13,0.07-2.3,0.11-3.49
					c0.05-1.19,0.05-2.41,0.21-3.66c0.21-1.23,0.52-2.48,1.12-3.63c0.59-1.15,1.35-2.21,2.19-3.21c1.69-1.98,3.61-3.84,4.93-6.11
					c0.37-0.55,0.63-1.14,0.93-1.72c0.25-0.6,0.54-1.21,0.73-1.83c0.19-0.62,0.38-1.25,0.57-1.87c0.14-0.64,0.27-1.27,0.39-1.9
					c0.45-2.55,0.6-5.12,0.53-7.59c0-1.23-0.22-2.43-0.37-3.61c-0.1-0.59-0.15-1.18-0.26-1.75c-0.11-0.57-0.23-1.13-0.33-1.69
					c-0.44-2.22-1.07-4.28-1.75-6.14c-0.75-1.82-1.53-3.47-2.48-4.77c-0.23-0.33-0.45-0.65-0.7-0.93c-0.25-0.28-0.47-0.57-0.71-0.82
					c-0.25-0.24-0.49-0.47-0.72-0.69c-0.23-0.23-0.49-0.39-0.71-0.57c-0.93-0.69-1.76-1.08-2.36-1.26
					C170.18,334.84,169.84,334.82,169.84,334.82z"/>
				<path class="st0" d="M185.12,356.38c-0.03-0.65-0.2-1.28-0.3-1.91c-0.11-0.63-0.23-1.25-0.34-1.86c-0.25-1.23-0.61-2.4-0.9-3.56
					c-0.18-0.56-0.39-1.12-0.58-1.66c-0.21-0.54-0.35-1.1-0.6-1.6c-0.48-1.01-0.88-2.02-1.44-2.91c-0.98-1.83-2.25-3.3-3.45-4.49
					c-1.2-1.18-2.49-1.95-3.56-2.51c-1.09-0.55-2.02-0.78-2.64-0.93c-0.64-0.13-0.99-0.14-0.99-0.14s0.35,0.02,0.99,0.16
					c0.62,0.15,1.55,0.4,2.62,0.97c1.06,0.56,2.32,1.34,3.51,2.54c1.17,1.19,2.4,2.66,3.37,4.49c0.55,0.87,0.95,1.88,1.42,2.89
					c0.25,0.51,0.39,1.06,0.59,1.59c0.18,0.55,0.39,1.1,0.56,1.65c0.28,1.16,0.63,2.32,0.87,3.55c0.11,0.61,0.22,1.23,0.33,1.85
					c0.1,0.63,0.26,1.25,0.28,1.9c0.19,2.57,0.03,5.26-0.5,7.91c-0.17,0.65-0.34,1.31-0.51,1.97c-0.07,0.34-0.21,0.65-0.33,0.97
					l-0.37,0.95c-0.47,1.27-1.22,2.47-2,3.57c-0.82,1.1-1.77,2.1-2.76,3.05c-1.01,0.93-2.05,1.82-3.08,2.71
					c-1.02,0.9-2.01,1.84-2.86,2.88c-0.86,1.04-1.48,2.25-1.89,3.49c-0.09,0.32-0.18,0.63-0.26,0.95c-0.07,0.32-0.09,0.64-0.14,0.96
					c-0.11,0.64-0.1,1.27-0.13,1.89c-0.06,1.25-0.11,2.47-0.16,3.66c-0.09,2.37-0.19,4.62-0.28,6.69
					c-0.32,8.23-0.51,13.73-0.52,13.81l0,0c0.01-0.08,0.28-5.58,0.7-13.8c0.1-2.07,0.21-4.31,0.31-6.69
					c0.05-1.19,0.11-2.41,0.17-3.65c0.04-0.62,0.03-1.26,0.14-1.88c0.05-0.31,0.08-0.63,0.14-0.93c0.09-0.31,0.18-0.62,0.26-0.92
					c0.41-1.21,1.01-2.38,1.87-3.39c0.84-1.02,1.82-1.94,2.84-2.83c1.03-0.88,2.08-1.77,3.1-2.7c1-0.95,1.98-1.96,2.81-3.08
					c0.81-1.16,1.54-2.32,2.02-3.64l0.37-0.97c0.12-0.33,0.26-0.64,0.33-0.98c0.18-0.67,0.34-1.33,0.51-2
					C185.16,361.69,185.31,358.98,185.12,356.38z"/>
				<path class="st0" d="M188.73,355.5c-0.15-0.67-0.3-1.33-0.44-1.98c-0.16-0.65-0.26-1.31-0.49-1.93
					c-0.2-0.62-0.39-1.25-0.59-1.85c-0.1-0.3-0.18-0.61-0.3-0.91c-0.12-0.29-0.25-0.57-0.37-0.87c-0.24-0.57-0.49-1.14-0.73-1.69
					c-0.28-0.54-0.59-1.06-0.86-1.57c-0.53-1.06-1.27-1.94-1.88-2.84c-1.39-1.68-2.82-3.1-4.31-4.07c-1.47-0.99-2.86-1.7-4.06-2.1
					c-0.59-0.24-1.15-0.35-1.62-0.5c-0.49-0.09-0.9-0.21-1.23-0.24c-0.67-0.11-1.04-0.12-1.04-0.12s0.37,0.01,1.03,0.13
					c0.34,0.05,0.74,0.16,1.22,0.26c0.47,0.15,1.02,0.27,1.61,0.53c1.19,0.42,2.57,1.14,4.01,2.14c0.36,0.27,0.71,0.54,1.08,0.81
					c0.36,0.31,0.7,0.65,1.07,0.98c0.18,0.17,0.37,0.34,0.55,0.51c0.17,0.19,0.33,0.39,0.5,0.58c0.34,0.39,0.71,0.77,1.04,1.2
					c0.6,0.9,1.33,1.78,1.84,2.83c0.28,0.51,0.58,1.02,0.85,1.56c0.24,0.56,0.48,1.12,0.73,1.69c0.12,0.29,0.24,0.57,0.37,0.87
					c0.12,0.29,0.2,0.6,0.29,0.9c0.19,0.61,0.39,1.22,0.59,1.84c0.22,0.62,0.32,1.27,0.46,1.92c0.14,0.65,0.29,1.31,0.43,1.97
					c0.24,1.32,0.23,2.71,0.18,4.1c-0.06,1.39-0.24,2.79-0.56,4.17c-0.31,1.38-0.76,2.74-1.38,4.04l-0.49,0.95
					c-0.17,0.31-0.39,0.61-0.57,0.91c-0.37,0.63-0.85,1.16-1.29,1.71c-1.87,2.19-4.27,3.87-6.59,5.51
					c-1.17,0.81-2.32,1.65-3.38,2.57c-1.08,0.91-1.99,1.99-2.69,3.17c-0.75,1.18-1,2.55-1.17,3.85c-0.08,1.31-0.15,2.59-0.21,3.83
					c-0.14,2.49-0.28,4.84-0.4,7.01c-0.12,2.17-0.24,4.17-0.3,5.93c-0.07,1.76-0.13,3.3-0.18,4.57c-0.09,2.4-0.15,3.81-0.15,3.96
					c0,0,0,0,0,0c0.01-0.15,0.08-1.56,0.22-3.95c0.07-1.27,0.15-2.81,0.24-4.57c0.08-1.76,0.23-3.76,0.37-5.93
					c0.13-2.16,0.28-4.52,0.43-7c0.08-1.24,0.16-2.52,0.24-3.83c0.17-1.27,0.42-2.6,1.15-3.74c1.35-2.34,3.71-4.01,6.03-5.64
					c2.33-1.63,4.75-3.31,6.68-5.53c0.45-0.58,0.94-1.14,1.3-1.76c0.19-0.32,0.4-0.6,0.58-0.93l0.5-0.97
					c0.61-1.33,1.07-2.7,1.38-4.11c0.32-1.4,0.49-2.82,0.54-4.23C188.98,358.24,188.98,356.85,188.73,355.5z"/>
				<path class="st0" d="M192.21,354.59c-0.18-0.68-0.36-1.37-0.54-2.06c-0.08-0.34-0.2-0.66-0.33-0.99
					c-0.12-0.33-0.25-0.65-0.37-0.97c-0.26-0.64-0.45-1.3-0.75-1.9c-0.3-0.6-0.6-1.19-0.9-1.78c-0.16-0.29-0.28-0.58-0.46-0.86
					c-0.18-0.28-0.36-0.54-0.53-0.81c-0.36-0.53-0.69-1.07-1.05-1.57c-0.81-0.93-1.51-1.91-2.38-2.66
					c-1.61-1.64-3.41-2.78-5.03-3.67c-0.42-0.21-0.82-0.4-1.22-0.6c-0.39-0.19-0.78-0.32-1.16-0.48c-0.74-0.32-1.46-0.5-2.09-0.71
					c-1.29-0.34-2.32-0.54-3.03-0.62c-0.71-0.09-1.09-0.09-1.09-0.09s0.38,0.01,1.09,0.11c0.71,0.09,1.73,0.3,3.02,0.65
					c0.63,0.22,1.34,0.4,2.07,0.74c0.37,0.17,0.76,0.3,1.15,0.49c0.38,0.2,0.79,0.4,1.19,0.62c1.6,0.91,3.37,2.07,4.96,3.7
					c0.86,0.75,1.55,1.73,2.35,2.66c0.36,0.49,0.68,1.03,1.03,1.56c0.17,0.26,0.35,0.53,0.53,0.8c0.17,0.27,0.3,0.57,0.45,0.86
					c0.29,0.59,0.59,1.17,0.88,1.77c0.29,0.6,0.49,1.25,0.74,1.89c0.12,0.32,0.24,0.64,0.36,0.96c0.12,0.33,0.25,0.65,0.32,1
					c0.18,0.67,0.35,1.36,0.53,2.05c0.45,1.36,0.49,2.81,0.48,4.27c-0.03,1.45-0.2,2.94-0.55,4.38c-0.67,2.89-2.12,5.68-4.24,7.82
					c-2.11,2.17-4.72,3.78-7.28,5.32c-2.56,1.54-5.19,3-7.16,5.14c-0.97,1.06-1.71,2.34-2.03,3.71c-0.18,0.67-0.22,1.37-0.25,2.03
					c-0.04,0.66-0.09,1.33-0.14,1.98c-0.18,2.61-0.34,5.08-0.5,7.36c-0.16,2.28-0.31,4.36-0.39,6.22c-0.09,1.85-0.17,3.47-0.23,4.81
					c-0.12,2.34-0.19,3.79-0.21,4.12l0,0c0.02-0.32,0.11-1.78,0.25-4.12c0.08-1.33,0.18-2.94,0.3-4.8c0.1-1.85,0.3-3.93,0.45-6.21
					c0.17-2.28,0.34-4.75,0.53-7.36c0.05-0.65,0.1-1.31,0.14-1.99c0.05-0.67,0.09-1.34,0.27-1.99c0.31-1.32,1.03-2.55,1.98-3.59
					c1.93-2.08,4.56-3.52,7.12-5.05c2.57-1.53,5.22-3.13,7.37-5.34c2.16-2.2,3.61-5.05,4.28-7.98c0.34-1.47,0.52-2.97,0.54-4.45
					C192.73,357.46,192.67,355.96,192.21,354.59z"/>
				<path class="st0" d="M196.26,355.87c-0.19-0.75-0.38-1.48-0.6-2.2c-0.91-2.87-2.16-5.53-3.73-7.8
					c-0.78-1.14-1.65-2.17-2.53-3.11c-0.92-0.92-1.84-1.78-2.81-2.5c-1.91-1.47-3.87-2.52-5.66-3.28c-1.81-0.76-3.44-1.24-4.81-1.55
					c-1.37-0.3-2.45-0.46-3.2-0.53c-0.75-0.07-1.14-0.08-1.14-0.08s0.4,0.01,1.14,0.09c0.75,0.08,1.84,0.25,3.2,0.57
					c1.36,0.33,2.99,0.83,4.77,1.61c1.78,0.79,3.71,1.85,5.6,3.32c0.95,0.71,1.87,1.58,2.77,2.49c0.87,0.95,1.74,1.97,2.5,3.1
					c1.55,2.26,2.78,4.91,3.67,7.76c0.21,0.71,0.4,1.45,0.6,2.17c0.12,0.74,0.18,1.5,0.18,2.27c0.03,1.53-0.14,3.08-0.51,4.6
					c-0.73,3.03-2.35,5.9-4.7,8.04c-2.33,2.17-5.15,3.73-7.93,5.19c-2.78,1.48-5.61,2.79-8.01,4.65c-1.18,0.93-2.24,2.03-2.89,3.36
					c-0.32,0.66-0.57,1.35-0.66,2.06c-0.11,0.71-0.12,1.4-0.19,2.08c-0.22,2.74-0.42,5.34-0.61,7.72c-0.18,2.4-0.37,4.59-0.48,6.53
					c-0.11,1.95-0.2,3.64-0.29,5.05c-0.14,2.38-0.22,3.89-0.24,4.28h0c0.02-0.39,0.13-1.89,0.3-4.28c0.09-1.39,0.22-3.09,0.35-5.03
					c0.17-1.94,0.35-4.14,0.55-6.53c0.2-2.39,0.41-4.98,0.64-7.72c0.07-0.68,0.1-1.39,0.2-2.07c0.09-0.68,0.33-1.36,0.65-1.99
					c0.63-1.27,1.67-2.35,2.84-3.27c2.37-1.81,5.2-3.12,7.99-4.58c2.79-1.45,5.64-3.02,8.02-5.21c2.38-2.19,4.03-5.14,4.75-8.22
					c0.37-1.54,0.53-3.12,0.5-4.68C196.45,357.4,196.39,356.64,196.26,355.87z"/>
				<path class="st0" d="M200.19,357.43c-0.05-0.8-0.17-1.64-0.44-2.4c-0.12-0.38-0.24-0.76-0.36-1.15
					c-0.14-0.37-0.27-0.74-0.42-1.11c-1.11-2.96-2.75-5.59-4.62-7.81c-1.9-2.19-4.03-3.95-6.18-5.28c-2.14-1.35-4.28-2.28-6.21-2.96
					c-1.94-0.68-3.68-1.08-5.13-1.37c-1.44-0.27-2.59-0.4-3.37-0.46c-0.79-0.07-1.21-0.07-1.21-0.07s0.42,0.01,1.21,0.08
					c0.78,0.08,1.93,0.22,3.37,0.51c1.44,0.3,3.18,0.73,5.09,1.43c1.92,0.7,4.03,1.65,6.16,2.99c2.14,1.32,4.24,3.09,6.13,5.27
					c1.84,2.2,3.45,4.81,4.55,7.75c0.14,0.37,0.28,0.74,0.42,1.11c0.11,0.38,0.23,0.76,0.35,1.14c0.27,0.75,0.37,1.53,0.42,2.33
					c0.1,1.61-0.02,3.25-0.41,4.84c-0.76,3.19-2.58,6.16-5.15,8.29c-2.53,2.17-5.57,3.69-8.54,5.1c-2.99,1.4-6.02,2.64-8.73,4.28
					c-1.35,0.81-2.62,1.76-3.61,2.94c-0.48,0.6-0.89,1.25-1.17,1.94c-0.27,0.7-0.42,1.45-0.47,2.17c-0.28,2.88-0.61,5.58-0.78,8.1
					c-0.42,5.02-0.69,9.21-0.89,12.15c-0.15,2.4-0.25,3.95-0.29,4.44h0.01c0.03-0.5,0.16-2.05,0.34-4.44
					c0.12-1.47,0.26-3.25,0.42-5.28c0.18-2.04,0.37-4.34,0.59-6.85c0.18-2.51,0.53-5.22,0.81-8.09c0.05-0.72,0.21-1.42,0.46-2.1
					c0.28-0.67,0.67-1.3,1.14-1.88c0.97-1.15,2.22-2.07,3.56-2.88c2.69-1.61,5.73-2.83,8.72-4.23c2.99-1.39,6.05-2.91,8.64-5.11
					c2.61-2.19,4.46-5.23,5.22-8.48C200.18,360.72,200.29,359.06,200.19,357.43z"/>
				<path class="st0" d="M203.86,356.66c-0.08-0.87-0.45-1.66-0.7-2.46c-0.29-0.79-0.62-1.56-0.97-2.32
					c-0.72-1.49-1.55-2.9-2.49-4.19c-0.96-1.28-1.96-2.48-3.07-3.51c-0.54-0.55-1.13-1.01-1.68-1.5c-0.59-0.44-1.15-0.91-1.74-1.3
					c-1.16-0.84-2.37-1.52-3.53-2.15c-2.36-1.21-4.64-2.08-6.71-2.68c-2.06-0.61-3.9-0.99-5.43-1.24c-3.05-0.48-4.82-0.49-4.82-0.49
					s1.77,0.02,4.81,0.54c1.52,0.27,3.35,0.68,5.4,1.3c2.06,0.63,4.31,1.52,6.66,2.73c1.16,0.63,2.36,1.31,3.5,2.15
					c0.6,0.39,1.14,0.86,1.73,1.31c0.54,0.49,1.13,0.95,1.65,1.49c2.18,2.08,4.08,4.7,5.49,7.67c0.34,0.75,0.67,1.51,0.96,2.29
					c0.25,0.81,0.6,1.57,0.68,2.41c0.21,1.67,0.12,3.4-0.26,5.07c-0.38,1.68-1.06,3.29-2.02,4.74c-0.97,1.43-2.18,2.73-3.54,3.81
					c-2.76,2.17-5.96,3.69-9.14,5.05c-3.19,1.36-6.4,2.54-9.37,4.01c-1.48,0.75-2.91,1.55-4.14,2.59c-1.23,1.01-2.26,2.32-2.63,3.84
					l-0.12,0.56l-0.07,0.56c-0.04,0.38-0.09,0.75-0.13,1.11c-0.08,0.73-0.17,1.45-0.25,2.16c-0.15,1.42-0.34,2.78-0.44,4.11
					c-0.23,2.63-0.44,5.05-0.62,7.18c-0.16,2.15-0.31,4.01-0.42,5.55c-0.18,2.42-0.29,4.02-0.34,4.59h0.01
					c0.05-0.58,0.18-2.17,0.39-4.59c0.14-1.53,0.3-3.4,0.49-5.54c0.2-2.13,0.43-4.54,0.69-7.18c0.11-1.32,0.3-2.68,0.45-4.1
					c0.08-0.7,0.17-1.43,0.25-2.15c0.04-0.37,0.09-0.74,0.13-1.11l0.07-0.56l0.12-0.54c0.36-1.45,1.35-2.71,2.56-3.71
					c1.21-1.01,2.64-1.79,4.11-2.53c2.96-1.45,6.17-2.62,9.37-3.97c3.2-1.35,6.44-2.85,9.24-5.05c1.39-1.12,2.61-2.42,3.6-3.9
					c0.98-1.49,1.67-3.14,2.05-4.86C204.01,360.12,204.09,358.37,203.86,356.66z"/>
				<path class="st0" d="M207.46,355.89c-0.6-1.7-1.27-3.34-2.17-4.83c-0.21-0.39-0.43-0.76-0.67-1.12
					c-0.24-0.36-0.48-0.71-0.71-1.07c-0.52-0.67-1.01-1.37-1.58-1.98c-1.08-1.28-2.3-2.38-3.52-3.4c-1.23-1.01-2.53-1.86-3.81-2.64
					c-1.3-0.74-2.57-1.43-3.85-1.98c-2.53-1.15-4.97-1.9-7.16-2.47c-2.18-0.56-4.11-0.9-5.72-1.13c-3.2-0.45-5.06-0.45-5.06-0.45
					s1.85,0.02,5.05,0.5c1.59,0.24,3.52,0.61,5.7,1.2c2.17,0.58,4.59,1.37,7.11,2.51c1.27,0.55,2.53,1.25,3.82,1.99
					c1.27,0.78,2.55,1.63,3.78,2.64c1.21,1.01,2.42,2.11,3.48,3.38c0.56,0.61,1.04,1.31,1.56,1.97c0.23,0.35,0.47,0.71,0.7,1.07
					c0.24,0.35,0.46,0.72,0.66,1.1c0.88,1.48,1.54,3.12,2.12,4.78c0.38,1.71,0.35,3.54-0.02,5.3c-0.38,1.76-1.11,3.45-2.15,4.94
					c-1.05,1.49-2.35,2.8-3.82,3.89c-2.94,2.2-6.37,3.67-9.73,5.01c-3.38,1.33-6.78,2.47-9.98,3.82c-1.59,0.67-3.14,1.41-4.56,2.3
					c-1.4,0.91-2.73,1.98-3.49,3.42c-0.39,0.71-0.61,1.5-0.69,2.27c-0.09,0.77-0.19,1.52-0.28,2.27c-0.18,1.48-0.37,2.91-0.53,4.29
					c-0.56,5.51-0.97,10.12-1.23,13.34c-0.2,2.43-0.34,4.08-0.39,4.74c0,0,0,0,0,0c0.06-0.66,0.21-2.31,0.44-4.74
					c0.16-1.61,0.35-3.56,0.57-5.8c0.23-2.24,0.5-4.76,0.79-7.52c0.18-1.37,0.36-2.81,0.55-4.29c0.1-0.74,0.19-1.49,0.3-2.26
					c0.07-0.77,0.29-1.5,0.66-2.19c0.74-1.38,2.04-2.43,3.42-3.33c1.41-0.87,2.95-1.59,4.54-2.26c3.19-1.33,6.59-2.45,9.98-3.78
					c3.38-1.33,6.83-2.79,9.84-5.01c1.49-1.12,2.81-2.47,3.87-3.99c1.06-1.53,1.8-3.26,2.18-5.07
					C207.83,359.51,207.85,357.66,207.46,355.89z"/>
			</g>
			<g class="st20">
				<path class="st16" d="M158.44,380.88c2.16,1.41,4.06,3.24,4.91,5.53l0.32,2.68c0.52-0.71,1.18-1.38,1.99-1.85
					c2.79-1.59,6.15,0.34,6.9,3.52l0.53-4.36c1.31-3.49,5.01-5.9,8.39-7.43c-2.49,0.9-8.9,3.06-13.56,3.22
					C162.78,382.38,159.27,381.19,158.44,380.88z"/>
			</g>
			<path class="st16" d="M133.18,350.03c0,0,11.29-18.8,46.68-14.19c0,0-36.42,1.2-45.14,22.74
				C134.72,358.58,132.84,354.13,133.18,350.03z"/>
			<path class="st16" d="M164.48,389.41l2.38,21.66c0,0,1.03,0.34,1.26,0c0.23-0.34-1.81-23.37-1.81-23.37
				S165.04,387.82,164.48,389.41z"/>
		</g>
	</g>
	<g>
		<path class="st7" d="M178.39,89.77c0,0.91-2.75,1.65-6.15,1.65c-3.4,0-6.16-0.74-6.16-1.65c0-0.92,2.76-1.65,6.16-1.65
			C175.64,88.12,178.39,88.86,178.39,89.77z"/>
		<path class="st8" d="M172.25,91.77L172.25,91.77c-3.24,0-6.5-0.69-6.5-1.99c0-1.31,3.26-2,6.49-2c3.23,0,6.51,0.69,6.51,2
			C178.74,91.09,175.47,91.77,172.25,91.77z M172.24,88.46c-3.76,0-5.81,0.86-5.81,1.31c0,0.44,2.05,1.31,5.81,1.31l0,0.34v-0.34
			c3.76,0,5.8-0.87,5.8-1.31C178.05,89.33,176,88.46,172.24,88.46z"/>
	</g>
	<g>
		<path class="st5" d="M178.39,89.77c0,0.91-2.75,1.65-6.15,1.65c-3.4,0-6.16-0.74-6.16-1.65c0-0.92,2.76-1.65,6.16-1.65
			C175.64,88.12,178.39,88.86,178.39,89.77z"/>
		<path class="st6" d="M172.25,91.77L172.25,91.77c-3.24,0-6.5-0.69-6.5-1.99c0-1.31,3.26-2,6.49-2c3.23,0,6.51,0.69,6.51,2
			C178.74,91.09,175.47,91.77,172.25,91.77z M172.24,88.46c-3.76,0-5.81,0.86-5.81,1.31c0,0.44,2.05,1.31,5.81,1.31l0,0.34v-0.34
			c3.76,0,5.8-0.87,5.8-1.31C178.05,89.33,176,88.46,172.24,88.46z"/>
	</g>
	<path class="st21" d="M175.96,89.72c0,0.55-1.66,1-3.72,1c-2.06,0-3.73-0.45-3.73-1c0-0.55,1.67-1,3.73-1
		C174.3,88.72,175.96,89.17,175.96,89.72z"/>
</g>
<rect x="171.3" y="403.44" class="st16" width="77.76" height="5.04"/>
<text transform="matrix(1 0 0 1 197.0987 396.4199)" class="st16 st22 st23">Uretra</text>
</svg>
