<?xml version="1.0" encoding="utf-8"?>
<!-- Generator: Adobe Illustrator 24.2.3, SVG Export Plug-In . SVG Version: 6.00 Build 0)  -->
<svg version="1.1" id="Layer_1" xmlns="http://www.w3.org/2000/svg" xmlns:xlink="http://www.w3.org/1999/xlink" x="0px" y="0px"
	 viewBox="0 0 500 500" style="enable-background:new 0 0 500 500;" xml:space="preserve">
<style type="text/css">
	.st0{fill:#FF7472;}
	.st1{fill:#822230;}
	.st2{fill:#982533;}
	.st3{fill-rule:evenodd;clip-rule:evenodd;fill:#E03142;}
	.st4{fill-rule:evenodd;clip-rule:evenodd;fill:#D3273F;}
	.st5{fill-rule:evenodd;clip-rule:evenodd;fill:#A51631;}
	.st6{fill:#C12535;}
	.st7{fill:#B51D33;}
	.st8{fill-rule:evenodd;clip-rule:evenodd;fill:#C62C43;}
	.st9{fill-rule:evenodd;clip-rule:evenodd;fill:#B51D33;}
	.st10{fill:#A51631;}
	.st11{fill:#960B27;}
	.st12{fill:#CCCCCC;}
	.st13{fill-rule:evenodd;clip-rule:evenodd;fill:#FFFFFF;}
	.st14{fill-rule:evenodd;clip-rule:evenodd;fill:#CCCCCC;}
	.st15{fill:#F25661;}
	.st16{fill:#DF414A;}
	.st17{fill:#C12F3D;}
	.st18{fill:#EF6572;}
	.st19{fill:#E77F8E;}
	.st20{fill:#EC4E57;}
	.st21{fill:#EC5F67;}
	.st22{fill-rule:evenodd;clip-rule:evenodd;fill:#EC5F67;}
	.st23{fill-rule:evenodd;clip-rule:evenodd;fill:#ED6976;}
</style>
<g>
	<g>
		<path class="st0" d="M155.22,148.79c-27.05,15.72-49.01,48.84-47.34,85.22c1.65,35.82,8.19,74.62,30.76,100.31
			c39.64,45.14,107.36,47.52,157.1,47.82c54.62,0.32,96.81-87.76,95.75-149.35C389.47,114.83,229.13,105.85,155.22,148.79z"/>
		<path class="st1" d="M155.22,181.93c-27.05,13.49-49.01,41.91-47.34,73.11c1.65,30.73,8.19,64.03,30.76,86.07
			c39.64,38.73,107.36,40.78,157.1,41.03c54.62,0.28,96.81-75.3,95.75-128.15C389.47,152.79,229.13,145.08,155.22,181.93z"/>
		<path class="st2" d="M336.01,279.59c-22.63-26.91,9.23-43.16-2.68-57.83c-13.92-17.15-45.89-13.81-83.08,0.3
			c-37.19-14.11-69.56-17.46-83.48-0.3c-11.91,14.68,20.34,30.92-2.29,57.83c-21.55,25.63,32.97,44.65,85.19,49.22v0.1
			c0.19-0.02,0.38-0.03,0.57-0.05c0.19,0.02,0.38,0.03,0.57,0.05v-0.1C303.05,324.24,357.57,305.22,336.01,279.59z"/>
	</g>
	<g>
		<g>
			<path class="st3" d="M163.31,280.14c-5.55,21.68-22.93,37.66-35.53,29.19c-11.17-7.51-16.05-22.44-15.23-48.37
				c0.7-22.15,7.04-36.09,28.42-30.02C162.36,237,168.1,261.44,163.31,280.14z"/>
			<path class="st4" d="M158.57,251.32c-2.21,1.54-2.08,2.01-6.28,3.64c-3.08,1.19-5.11,0.51-6.55-0.49
				c-6.23-4.33-3.3-16.46-1.72-22.47c0.12-0.46-17.18-1.75-18.11-1.46c-3.38,1.05-5.79,3.11-7.63,5.61
				c-5.12,6.99-5.47,16.89-5.72,24.8c-0.82,25.93,4.06,40.87,15.23,48.37c12.59,8.46,29.96-7.5,35.52-29.17
				c2.46-9.58,2.42-23.13-2.51-32.29C160.83,247.93,160.04,250.29,158.57,251.32z"/>
			<path class="st5" d="M158.63,253.91c-2.62,1.02-5.48,1.97-9.7,3.84c-2.99,1.33-5.98,3.16-7.42,2.16
				c-6.23-4.33-0.46-23.07,1.71-29.16c0.16-0.46-17.63,2.05-18.56,2.34c-3.38,1.05-5.79,3.11-7.63,5.61
				c-5.12,6.99-5.47,16.89-5.72,24.8c-0.82,25.93,4.06,40.87,15.23,48.37c12.59,8.46,29.96-7.5,35.52-29.17
				c2.46-9.58,6.18-20.76,1.25-29.92C163.34,252.85,160.8,253.06,158.63,253.91z"/>
		</g>
		<g>
			<path class="st3" d="M335.91,280.14c5.55,21.68,22.93,37.66,35.53,29.19c11.17-7.51,16.05-22.44,15.23-48.37
				c-0.7-22.15-7.04-36.09-28.42-30.02C336.86,237,331.12,261.44,335.91,280.14z"/>
			<path class="st4" d="M340.75,251.4c2.21,1.54,2.26,1.52,6.46,3.15c3.08,1.19,4.32,1.49,5.75,0.49
				c6.23-4.33,3.92-16.95,2.33-22.96c-0.12-0.46,17.17-1.75,18.11-1.46c3.38,1.05,5.79,3.11,7.63,5.61
				c5.12,6.99,5.47,16.89,5.72,24.8c0.82,25.93-4.06,40.87-15.23,48.37c-12.59,8.46-29.96-7.5-35.52-29.17
				c-2.46-9.58-2.42-23.13,2.51-32.29C338.49,248.01,339.28,250.38,340.75,251.4z"/>
			<path class="st5" d="M341.56,253.98c2.62,1.02,5.3,1.87,9.52,3.75c2.99,1.33,6.09,3.75,7.52,2.75
				c6.23-4.33,0.46-23.07-1.71-29.16c-0.16-0.46,17.63,2.05,18.56,2.34c3.38,1.05,5.79,3.11,7.63,5.61
				c5.12,6.99,5.47,16.89,5.72,24.8c0.82,25.93-4.06,40.87-15.23,48.37c-12.59,8.46-29.96-7.5-35.52-29.17
				c-2.46-9.58-5.99-21.6-1.06-30.76C336.96,252.58,339.39,253.14,341.56,253.98z"/>
		</g>
	</g>
	<g>
		<path class="st6" d="M347.7,183.66c-24.48-11.77-59.65-19.19-95.8-20.3v-0.01c-0.04,0-0.09,0-0.13,0c-0.04,0-0.09,0-0.13,0v0.01
			c-0.23,0.01-0.47,0.02-0.7,0.02c-0.23-0.01-0.47-0.02-0.7-0.02v-0.01c-0.04,0-0.09,0-0.13,0c-0.04,0-0.09,0-0.13,0v0.01
			c-36.15,1.11-71.31,8.53-95.8,20.3c-27.05,13-46.67,43.95-44.99,74.03c1.65,29.62,7.1,48.73,29.66,69.98
			c4.05,3.81,19.74,13.62,24.33,16.73c-10.88-15.21-14.31-26.74-19.72-41.58c-16.65-45.64-2.96-80.68,29.69-91.33
			c10.67-3.48,22.69-5.71,37.83-2.29c8.96,2.03,30.94,5.98,27.74,23.07c-0.77,4.09-5.98,17.44,12.23,17.38
			c18.2,0.06,12.99-13.29,12.23-17.38c-3.2-17.09,18.78-21.04,27.74-23.07c15.14-3.43,27.35-1.2,38.02,2.29
			c32.65,10.65,45.15,45.69,28.5,91.33c-5.41,14.84-7.84,26.37-18.73,41.58c4.59-3.11,20.28-12.92,24.33-16.73
			c22.56-21.25,28.1-42.38,29.75-72.01C394.45,225.58,374.75,196.66,347.7,183.66z"/>
		<path class="st7" d="M280.36,206.86c-8.96,2.03-23.86,8.67-20.63,25.76c1.33,7.03-0.28,13.64-8.74,13.64
			c-8.46,0-10.07-6.62-8.74-13.64c3.24-17.09-11.66-23.73-20.63-25.76c-7.4-1.68-26.47-2.18-32.68,0.64
			c3.03,0.25,18.69,0.96,22.01,1.71c8.96,2.03,30.94,5.98,27.74,23.07c-0.77,4.09-5.98,17.44,12.23,17.38c0.02,0,0.04,0,0.06,0
			c0.02,0,0.04,0,0.06,0c18.2,0.06,12.99-13.29,12.23-17.38c-3.2-17.09,18.78-21.04,27.74-23.07c3.31-0.75,18.18-1.47,21.22-1.73
			C298.49,205.31,287.76,205.19,280.36,206.86z"/>
		<path class="st8" d="M257.11,240.34c0,2.32-2.78,4.2-6.21,4.2c-3.43,0-6.21-1.88-6.21-4.2c0-2.32,2.78-7.49,6.21-7.49
			C254.33,232.85,257.11,238.02,257.11,240.34z"/>
		<path class="st9" d="M250.13,185.89c33.56,0,65.76,3.83,89.76,13.42c23.99,9.59,39.78,31.61,46.21,46.91
			c1.82-4.33,2.78-8.82,2.78-13.41c0-37.04-62.12-60.47-138.74-60.47c-76.62,0-138.74,23.43-138.74,60.47
			c0,4.59,0.96,9.08,2.78,13.42c6.3-15.01,24.4-36.8,47.67-46.35C186.02,189.95,215.91,185.89,250.13,185.89z"/>
		<g>
			<g>
				<path class="st7" d="M136.39,269.17c-2.84-12.29-14.57-51.86,24.49-68.86c11.28-4.91-21.57,0.2-14.63-9.52
					c-15.67,15.53-38.29,45.26-37.08,66.9c1.65,29.62,7.1,48.73,29.66,69.98c4.05,3.81,19.74,13.62,24.33,16.73
					C152.28,329.2,138.74,279.32,136.39,269.17z"/>
				<path class="st10" d="M130.41,269.7c-2.84-12.29-9.92-50.84,26.8-71.06c41.59-22.9,73.88-40.25-16.94-7.31
					c-15.67,15.53-34.59,45.95-33.39,67.59c1.65,29.62,3.41,48.04,25.97,69.29c4.05,3.81,19.74,13.62,24.33,16.73
					C146.29,329.72,132.75,279.85,130.41,269.7z"/>
				<path class="st11" d="M164.83,183.66c22.39-12.63,56.83-18.58,91.44-20.13c-1.45-0.07-2.91-0.12-4.36-0.17v-0.01
					c-0.04,0-0.09,0-0.13,0c-0.04,0-0.09,0-0.13,0v0.01c-0.23,0.01-0.47,0.02-0.7,0.02c-0.23-0.01-0.47-0.02-0.7-0.02v-0.01
					c-0.04,0-0.09,0-0.13,0c-0.04,0-0.09,0-0.13,0v0.01c-36.15,1.11-71.31,8.53-95.8,20.3c-27.05,13-46.67,43.95-44.99,74.03
					c1.65,29.62,7.1,48.73,29.66,69.98c4.05,3.81,19.74,13.62,24.33,16.73c-33.44-48.84-38.08-53.41-41.82-73.69
					C115.51,239.03,129.72,203.47,164.83,183.66z"/>
			</g>
			<g>
				<path class="st7" d="M365.97,269.17c2.84-12.29,16.03-51.52-23.03-68.52c-11.28-4.91,20.1-0.13,13.17-9.85
					c15.67,15.53,38.29,45.26,37.08,66.9c-1.65,29.62-7.1,48.73-29.66,69.98c-4.05,3.81-19.74,13.62-24.33,16.73
					C350.09,329.2,363.63,279.32,365.97,269.17z"/>
				<path class="st10" d="M371.96,269.7c2.84-12.29,11.76-45.68-22.08-69.05c-20.53-14.18-75.93-43.6,12.22-9.32
					c15.67,15.53,31.88,42.7,30.68,64.34c-1.65,29.62-4.33,49.5-26.89,70.74c-4.05,3.81-16.11,15.41-20.7,18.52
					C356.07,329.72,369.62,279.85,371.96,269.7z"/>
				<path class="st11" d="M337.54,183.66c-22.39-12.63-56.83-18.58-91.44-20.13c1.45-0.07,2.91-0.12,4.36-0.17v-0.01
					c0.04,0,0.09,0,0.13,0c0.04,0,0.09,0,0.13,0v0.01c0.23,0.01,0.47,0.02,0.7,0.02c0.24-0.01,0.47-0.02,0.7-0.02v-0.01
					c0.04,0,0.09,0,0.13,0c0.04,0,0.09,0,0.13,0v0.01c36.15,1.11,71.32,8.53,95.8,20.3c27.05,13,46.67,43.95,44.99,74.03
					c-1.65,29.62-7.1,48.73-29.66,69.98c-4.05,3.81-19.74,13.62-24.33,16.73c33.44-48.84,38.08-53.41,41.82-73.69
					C386.86,239.03,372.65,203.47,337.54,183.66z"/>
			</g>
		</g>
	</g>
	<g>
		<g>
			<path class="st12" d="M117.36,201.99c5.84-0.75,11.69-1.47,17.55-2.16c-0.4,3.05-2.05,6.11-3.53,8.84
				c-1.04,1.92-3.89,3.86-4.68,5.26c-0.86,1.55-1.71,4.77-3.95,6.25c-2.98,1.96-7.37,5.07-11.37,4.52
				c-1.22-0.17-1.48-1.86-1.63-2.68c-0.29-1.64-0.28-3.33-0.24-4.98c0.07-2.33,0.27-4.66,0.58-6.97
				C112.5,207.36,114.92,204.67,117.36,201.99z"/>
			<path class="st12" d="M383.61,201.99c-5.84-0.75-11.69-1.47-17.55-2.16c0.4,3.05,2.05,6.11,3.53,8.84
				c1.04,1.92,3.89,3.86,4.68,5.26c0.87,1.55,1.71,4.77,3.95,6.25c2.98,1.96,7.37,5.07,11.37,4.52c2.41-0.33,1.9-5.87,1.88-7.26
				c-0.05-2.46-0.26-4.93-0.59-7.38C388.47,207.36,386.04,204.67,383.61,201.99z"/>
		</g>
		<path class="st13" d="M385.7,196.4c-0.14-1.64-0.25-3.65-1.81-4.86c-3.2-2.48-7.05-4.17-11.35-4.83c-1.44-0.22-3.51-0.2-4.38-0.6
			c-0.97-0.46-1.43-2.93-2.11-4.16c-1.1-2.02-2.67-4.31-5.25-5.19c-4.94-1.69-10.53-1.87-15.86-1.49c1.38-4.24-4.29-7.72-8.28-9.3
			c-3.59-1.42-10.01-2.94-12.57,0.61c0.96-4.51-6.71-8.06-10.77-9.57c-5.19-1.93-12.21-0.01-17.05,1.93
			c-0.19-0.57-0.22-1.19-0.37-1.76c-1.82-6.99-14.26-8.96-21.49-9.46c-4.99-0.34-10.03-0.18-14.9,0.78
			c-3.45,0.68-7.33,1.85-9.5,4.32c-2.24-2.55-6.3-3.73-9.86-4.39c-4.77-0.89-9.68-1.05-14.55-0.71c-7.23,0.5-18.42,2.58-20.24,9.46
			c-0.15,0.58-0.26,1.17-0.37,1.76c-2.31-0.22-4.67-1.31-6.93-1.79c-3.56-0.77-7.82-1.42-11.31-0.13
			c-4.09,1.52-10.98,5.02-10.03,9.46c-2.62-3.63-9.77-1.93-13.39-0.5c-3.99,1.58-9.65,5.07-8.27,9.31
			c-5.34-0.38-10.93-0.2-15.86,1.5c-4.53,1.56-5.64,8.43-7.35,9.37c-0.55,0.3-2.71-0.33-4.03-0.13c-4.46,0.66-8.37,3-11.7,5.58
			c-1.64,1.28-1.71,3.41-1.83,5.13c-0.18,2.54-0.03,5.09,0.25,7.62c0.27,2.39,0.67,4.79,1.17,7.17c0.17,0.82,0.31,2.71,0.86,2.89
			c0.67,0.21,2.03-2.6,2.53-3.31c1.06-1.51,3.56-3.16,5.58-3.86c2.16-0.75,4.31-1.65,6.01-3.02c1.62-1.31,2.88-2.9,4.22-4.4
			c4.27-0.14,8.62-0.12,12.65-1.28c4.93-1.41,10.11-5.87,9.68-10.52c1.99,1.17,4.43,1.76,6.77,2.08c2.27,0.31,5.19-0.26,7.36-0.86
			c1.48-0.41,2.64-1.42,3.74-2.3c1.36-1.1,2.83-2.35,3.41-3.89c0.49,0.73,1.57,1.04,2.49,1.21c4.72,0.86,9.55-0.11,14.22-0.96
			c3.3-0.6,9.87-1.64,9.94-5.37c0.52,0.71,1.15,1.36,1.84,1.96c1.87,1.63,6.45,1.32,8.91,1.22c5.03-0.2,10.11-0.08,15.16-0.13
			c5.36-0.05,11.28,0.26,16.51-0.82c2.9-0.6,1.62-3.71,2.84-5.22c1.17,1.47-0.1,4.69,2.75,5.22c5.08,0.94,10.67,0.71,15.84,0.77
			c5.01,0.06,11.09-0.03,16.09,0.17c2.46,0.1,6.01,0.41,7.89-1.22c0.69-0.6,1.32-1.25,1.84-1.96c0.06,3.73,6.64,4.77,9.94,5.37
			c4.67,0.85,9.51,1.81,14.22,0.95c0.92-0.17,2-0.48,2.49-1.21c0.53,1.41,1.83,2.57,3.06,3.6c1.18,0.99,2.46,2.14,4.09,2.59
			c1.95,0.54,4.43,0.54,6.47,0.27c2.46-0.33,5.39-0.42,7.5-1.64c-0.38,4.21,5.7,8.42,9.9,9.8c4.08,1.34,8.58,1.65,12.99,1.82
			c1.2,1.33,2.37,2.76,3.95,3.81c1.68,1.11,3.78,1.78,5.75,2.42c1.31,0.43,3.52,0.47,4.29,1.57c0.91,1.29,1.47,2.82,2.14,4.23
			c0.33,0.7,1.33,2.92,1.82,2.84c0.53-0.08,0.74-2.27,0.91-3.1c0.48-2.3,0.86-4.63,1.12-6.95
			C385.77,201.66,385.92,199.02,385.7,196.4z"/>
		<path class="st14" d="M388.08,197.66c-0.14-1.73-0.23-3.84-1.83-5.14c-3.28-2.65-7.23-5.18-11.88-5.88
			c-1.47-0.22-3.51-0.21-4.43-0.63c-1.16-0.53-1.97-3.07-2.91-4.41c-1.46-2.09-3.34-4.51-6.1-5.48c-4.57-1.61-9.28-1.28-14.17-0.9
			c1.38-4.4-4.3-7.98-8.45-9.67c-3.58-1.46-10.2-3.11-13.2,0.04c0.3-4.43-5.94-7.84-10.17-9.46c-3.6-1.39-8.12-0.7-11.81,0.08
			c-2.34,0.5-4.67,1.14-6.88,1.95c-0.19-0.61-0.22-1.25-0.37-1.86c-1.77-7.09-12.96-9.41-20.48-9.95
			c-5.07-0.36-10.19-0.18-15.13,0.83c-3.53,0.72-7.47,1.98-9.64,4.55c-2.24-2.65-6.35-3.92-10.01-4.63
			c-4.83-0.94-9.82-1.11-14.76-0.75c-7.52,0.54-18.74,2.83-20.56,9.95c-0.16,0.61-0.27,1.24-0.38,1.86
			c-2.34-0.24-4.75-1.38-7.03-1.89c-3.6-0.81-7.95-1.5-11.48-0.14c-4.29,1.65-11.13,5.34-10.19,9.96c-2.63-3.79-9.9-2.05-13.61-0.54
			c-4.18,1.71-9.78,5.4-8.4,9.8c-5.45-0.37-11.09-0.22-16.11,1.56c-3.82,1.36-5.5,5.14-6.7,8.19c-0.16,0.4-0.1,0.85-0.13,0.86
			c-1.02,0.25-2.78-0.45-4.18-0.26c-4.88,0.68-8.97,4.05-12.4,6.82c-1.69,1.36-1.73,3.6-1.86,5.41c-0.18,2.68-0.03,5.37,0.26,8.05
			c0.27,2.53,0.68,5.06,1.19,7.57c0.18,0.87,0.23,2.76,0.88,3.05c0.11,0.05,0.46-0.07,0.8-0.24c-0.11-0.52-0.2-1.05-0.27-1.39
			c-0.51-2.5-0.9-5.03-1.17-7.55c-0.28-2.67-0.43-5.35-0.25-8.03c0.12-1.8,0.16-4.04,1.83-5.4c3.22-2.63,7.16-5.25,11.68-5.88
			c0.69-0.1,1.62-0.14,2.14,0c0.99,0.28,1.58,2.65,1.96,3.63c0.5,1.29,1.48,3.91,1.48,3.91c0.02,0-0.41-2.69-0.61-4.03
			c-0.22-1.44-0.81-3.24-0.45-4.54c0.79-2.86,3.01-7.3,6.85-8.69c4.37-1.58,11.38-2.7,14.03-1.68c0.9,0.35,1.32,3.16,1.71,4.4
			c0.43,1.36,0.65,3.7,1.8,4.79c-0.49-1.94-0.66-3.96-0.91-5.93c-0.22-1.74-0.84-3.86-0.44-5.48c0.76-3.06,4.39-6.01,7.93-7.48
			c3.28-1.37,9.18-2.74,11.76-0.89c0.83,0.59,0.99,2.37,1.27,3.37c0.37,1.3,0.57,2.74,1.19,3.98c-0.23-1.39-0.36-2.8-0.5-4.2
			c-0.12-1.21-0.48-2.63-0.21-3.76c0.84-3.52,5.97-6.39,9.93-7.93c4.92-1.92,13.01-0.42,16.35,1.46c0.54,0.3,0.62,1.48,0.75,2.12
			c0.33,1.58,0.58,9.25,1.1,11.38c0.02-2.46,0.49-12.51,0.93-14.79c1.28-6.76,12.25-9.42,19.75-9.96c4.87-0.35,9.79-0.19,14.55,0.75
			c3.12,0.62,7.51,1.81,8.84,3.52c0.55,0.71,0.32,2.39,0.39,3.49c0.18,2.61,0.31,5.22,0.44,7.83c0.13,2.51,0.25,5.02,0.41,7.53
			c0.08,1.24-0.02,2.63,0.36,3.84c0.41-1.11,0.28-2.46,0.33-3.61c0.12-2.63,0.19-5.26,0.27-7.89c0.08-2.65,0.16-5.31,0.31-7.96
			c0.06-1.15-0.21-3.12,0.46-3.84c1.31-1.39,4.88-2.29,7.55-2.84c4.86-1.01,9.91-1.19,14.9-0.82c7.49,0.55,18.18,3.16,19.55,9.95
			c0.81,4.05,0.97,8.65,1.53,12.94c0.04-1.84,0.26-8.3,0.49-9.67c0.11-0.64,0.17-1.77,0.7-2.08c3.34-1.93,11.75-3.27,16.66-1.36
			c3.95,1.54,8.94,4.36,9.86,7.94c0.56,2.21,0.43,5.07,0.15,7.42c0.51-1.09,0.54-2.39,0.74-3.54c0.17-0.96,0.16-2.54,0.95-3.33
			c0.01-0.06,0.02-0.12,0.03-0.17c3.44-1.4,8.07-0.22,11.28,1.11c4.1,1.7,9.28,5.38,8.35,9.58c-0.57,2.6-0.95,5.38-1.45,8.07
			c0.56-2.33,0.87-5.13,2.17-7.3c0.22-0.37,0.52-0.72,1.04-0.67c4.09,0.33,9.65,0.1,14.03,1.68c3.9,1.41,5.75,5.81,6.72,8.71
			c0.52,1.56-0.2,5.37-0.2,5.37c0.01,0,0.44-2.54,0.98-3.64c0.24-0.47,0.45-0.68,1.1-0.71c0.86-0.04,1.88-0.16,2.77-0.03
			c4.53,0.64,8.47,3.23,11.68,5.86c1.58,1.29,1.67,3.4,1.81,5.12c0.22,2.76,0.07,5.54-0.22,8.29c-0.26,2.44-0.64,4.89-1.12,7.32
			c-0.05,0.25-0.11,0.61-0.18,0.98c0.53,0.36,1.51,1.11,1.93,1c0.66-0.18,0.75-2.4,0.93-3.27c0.49-2.43,0.88-4.89,1.15-7.34
			C388.14,203.22,388.3,200.43,388.08,197.66z"/>
	</g>
	<g>
		<path class="st15" d="M298.56,251.92c-18.19-0.01-34.99,2.36-48.57,6.39c-13.56-4.05-30.36-6.45-48.55-6.47
			c-45.06-0.04-80.22,14.57-80.24,32.63c-0.08,57.16,38.46,92.79,80.16,102.95c8.2,2,27.43,5.49,46.95,5.56
			c20.59,0.07,41.51-3.38,50.18-5.48c41.84-10.11,80.27-45.64,80.34-102.81C378.84,266.63,343.62,251.96,298.56,251.92z"/>
		<path class="st16" d="M298.56,251.92c-18.19-0.01-34.99,2.36-48.57,6.39c-13.56-4.05-30.36-6.45-48.55-6.47
			c-45.06-0.04-80.22,14.57-80.24,32.63c0,3.03,0.85,24.15,4.94,33.54c-0.58-24.92,10.82-60.2,70.75-62.4
			c16.07-0.59,39.5,3.6,45.97,12c5.99,7.79,7.48,13.26,7.48,13.26s0.5-5.55,6.78-13.25c6.97-8.53,26.12-11.77,42.19-12.01
			c54.68-0.82,70.98,30.6,76.76,52.14c2.04-5.35,2.75-20.06,2.76-23.05C378.84,266.63,343.62,251.96,298.56,251.92z"/>
		<g>
			<path class="st17" d="M125.61,283.72c1.72-4.98,5.75-10.49,11.79-15.29c5.78-4.6,20.21-11.12,21.27-11.73
				c-25.58,6.58-36.19,16.73-37.8,26.64c-0.61,3.75,1.37,17.39,1.58,20.29C122.31,301.69,124.39,287.24,125.61,283.72z"/>
			<path class="st17" d="M374.44,283.72c-1.72-4.98-5.75-10.49-11.79-15.29c-5.78-4.6-20.2-11.12-21.27-11.73
				c25.58,6.58,36.19,16.73,37.8,26.64c0.61,3.75-1.37,17.39-1.58,20.29C377.74,301.69,375.66,287.24,374.44,283.72z"/>
		</g>
		<path class="st18" d="M310.7,262.24c-41.42,0.53-51,10.8-55.52,23.62c-1.55,4.39-2.95,13.84-5.49,13.84
			c-2.53,0-3.53-9.44-5.08-13.84c-4.52-12.82-14.21-23.09-55.63-23.62c-45.34-0.58-60,28.26-51.21,42.56
			c13.15,21.39,41.35,45.86,103.15,44.86c3.7-0.06,14.13-0.06,17.83,0c61.8,1,90.33-23.47,103.48-44.86
			C371.03,290.5,356.05,261.66,310.7,262.24z"/>
		<g>
			<path class="st19" d="M145.19,292.77c0,0,1.9,28.15,69.85,34.2C215.04,326.97,156.32,316.96,145.19,292.77z"/>
			<path class="st19" d="M285.72,326.97c67.95-6.05,69.85-34.2,69.85-34.2C344.44,316.96,285.72,326.97,285.72,326.97z"/>
		</g>
		<path class="st16" d="M300.47,382.22c-8.93,2.09-30.5,5.55-51.73,5.48c-20.12-0.07-39.94-3.56-48.4-5.56
			c-28.56-6.75-55.69-26.1-70.66-54.19c13.61,31.9,41.83,52.2,71.66,59.47c8.2,2,27.43,5.49,46.95,5.56
			c20.59,0.07,41.51-3.38,50.18-5.48c27.18-6.57,52.91-23.86,67.63-50.84C350.53,359.86,326.12,376.21,300.47,382.22z"/>
		<path class="st15" d="M377.56,278.84c-6.77,27.07-41.55,48.52-79.09,53.7c-8.66,1.2-29.58,3.17-50.18,3.12
			c-19.52-0.05-38.75-2.06-46.95-3.2c-37.31-5.22-72.11-26.66-78.99-53.6c-0.76,1.83-1.16,3.7-1.17,5.62
			c-0.08,57.16,38.46,92.79,80.16,102.95c8.2,2,27.43,5.49,46.95,5.56c20.59,0.07,41.51-3.38,50.18-5.48
			c41.84-10.11,80.27-45.64,80.34-102.81C378.81,282.69,378.38,280.74,377.56,278.84z"/>
	</g>
	<g>
		<g>
			<path class="st12" d="M139.2,321.6c4.94,0.74,9.88,1.45,14.83,2.14c-0.51-2.91-1.96-5.58-3.57-8.16
				c-1.15-1.85-3.44-3.05-4.7-4.81c-1.36-1.92-2.29-4.33-4.6-5.69c-2.85-1.67-7.08-4.7-10.74-3.84c-2.06,0.48-0.01,5.6,0.3,6.78
				c0.56,2.11,1.13,4.26,1.71,6.38C134.75,316.76,137,319.16,139.2,321.6z"/>
			<path class="st12" d="M360.34,321.6c-4.94,0.74-9.88,1.46-14.83,2.14c0.51-2.91,1.96-5.58,3.57-8.16
				c1.15-1.85,3.44-3.05,4.7-4.81c1.37-1.92,2.29-4.33,4.6-5.69c2.84-1.67,7.08-4.7,10.74-3.84c2.06,0.48,0.01,5.6-0.3,6.78
				c-0.56,2.11-1.13,4.26-1.71,6.38C364.79,316.76,362.54,319.16,360.34,321.6z"/>
		</g>
		<path class="st13" d="M362.03,326.49c-0.07,1.46-0.03,3.15-1.28,4.31c-2.45,2.26-5.59,3.95-9.09,4.68
			c-1.13,0.23-2.79,0.17-3.63,0.71c-1.1,0.71-0.86,2.86-1.24,4.05c-0.56,1.75-1.38,3.8-3.39,4.73c-4,1.86-8.66,2.2-13.26,2.15
			c1.92,3.54-1.37,7.22-4.8,9.16c-3.16,1.79-8.35,3.03-11.12,0.07c1.87,4.04-3.21,7.91-6.89,9.85c-4.61,2.42-11.25,0.53-15.77-1.13
			c-0.03,0.59,0.05,1.19,0.05,1.78c0.01,7.02-11.64,9.65-18.43,10.31c-4.88,0.48-9.79,0.38-14.58-0.52
			c-3.43-0.64-7.21-1.88-9.25-4.4c-2.12,2.6-6.07,3.84-9.63,4.46c-4.68,0.83-9.48,0.9-14.23,0.43c-6.79-0.67-17.11-3.38-17.24-10.27
			c-0.01-0.59,0.01-1.19,0.05-1.78c-2.31,0.16-4.41,1.1-6.64,1.5c-3.24,0.59-7.23,1.12-10.2-0.44c-3.68-1.94-8.08-5.78-6.25-9.7
			c-2.88,3.06-8.58,1.59-11.8-0.23c-3.42-1.94-6.7-5.63-4.77-9.16c-4.6,0.04-9.26-0.3-13.26-2.16c-2.06-0.96-2.8-3.19-3.3-4.98
			c-0.31-1.09-0.39-3.34-1.32-3.8c-0.74-0.37-2.35,0.18-3.43-0.04c-3.7-0.76-6.71-3-9.29-5.36c-1.32-1.21-1.23-3.01-1.3-4.54
			c-0.09-2.24-0.05-4.48,0.01-6.71c0.06-2.13,0.15-4.28,0.2-6.4c0.02-0.77-0.09-2.51,0.25-2.61c0.47-0.14,2,2.16,2.65,2.97
			c1.19,1.48,3.17,2.74,5.15,3.48c3.93,1.46,6.65,3.94,9.08,6.84c3.65,0.16,7.33,0.25,10.74,1.3c4.6,1.43,8.47,5.91,7.7,10.1
			c1.83-0.99,3.8-1.58,5.92-1.85c2.03-0.26,4.29,0.28,6.16,0.95c1.27,0.45,2.13,1.43,2.94,2.3c1.07,1.14,2.14,2.41,2.43,3.87
			c0.5-0.64,1.39-0.99,2.26-1.13c4.04-0.64,10.02-0.08,13.94,0.86c3.13,0.75,9,2.04,8.57,5.57c0.52-0.69,1.13-1.34,1.8-1.95
			c1.65-1.51,4.53-1.27,6.73-1.14c4.25,0.26,19.85,0.43,24.16,1.5c2.67,0.66,1.27,3.83,2.35,5.38c0.92-1.51-0.3-4.78,2.28-5.38
			c4.22-0.98,19.38-1.23,23.52-1.48c2.2-0.13,5.09-0.37,6.73,1.14c0.66,0.61,1.27,1.26,1.79,1.95c-0.43-3.53,5.44-4.82,8.58-5.57
			c3.92-0.93,9.91-1.5,13.94-0.85c0.87,0.14,1.76,0.49,2.26,1.14c0.45-1.34,1.19-2.45,2.16-3.58c0.86-1,1.81-2.1,3.22-2.59
			c1.67-0.58,3.67-0.58,5.46-0.36c2.19,0.27,4.62,0.34,6.51,1.42c-0.72-3.96,3.88-7.94,7.87-9.44c3.43-1.29,7.22-1.62,11.01-1.82
			c1-1.2,1.99-2.45,3.32-3.42c1.48-1.08,3.37-1.75,5.17-2.34c1.22-0.4,3-0.45,3.75-1.42c0.9-1.17,1.56-2.55,2.32-3.82
			c0.43-0.72,1.66-2.63,1.98-2.56c0.35,0.07,0.24,2.03,0.26,2.8c0.05,2.06,0.14,4.14,0.2,6.21
			C362.09,321.86,362.14,324.18,362.03,326.49z"/>
	</g>
	<g>
		<path class="st16" d="M390.83,200.16c-3.84-16.2-14.49-38.51-25.4-50.08c-0.35-0.38-1.33-1.39-1.46-1.53
			c-24.21-25.01-54.73-36.61-84.96-36.51c-7.29,0.03-14.66,0.63-21.91,1.96c-1.28,0.23-4.17,0.76-7.11,1.25
			c-2.93-0.49-5.83-1.02-7.11-1.25c-7.25-1.33-14.62-1.94-21.91-1.96c-30.23-0.1-60.75,11.49-84.96,36.51
			c-0.13,0.13-1.1,1.15-1.46,1.53c-10.91,11.57-21.56,33.88-25.4,50.08c-5.12,21.62-8.2,43.95-1.92,72.88
			c5.76,26.56,14.08,50.64,29.5,73.37c18.04,26.58,43.48,42.74,79.33,51.39c8.48,2.05,21.27,3.44,33.91,3.73v0c0,0,0.01,0,0.01,0
			c0,0,0.01,0,0.01,0v0c12.63-0.3,25.42-1.69,33.91-3.73c35.85-8.65,61.29-24.81,79.33-51.39c15.42-22.72,23.74-46.81,29.5-73.37
			C399.03,244.11,395.95,221.77,390.83,200.16z M386.35,249.56c-1.13,17.42-7.94,33.11-17.29,50.64
			c-11.52,21.62-32.18,37.07-50.58,46.32c-18.49,9.3-27.05,14.31-57.62,16.68c-0.15,0.01-5.14,0.13-10.87,0.26
			c-5.73-0.13-10.72-0.25-10.87-0.26c-30.57-2.36-39.12-7.38-57.62-16.68c-18.4-9.25-39.05-24.7-50.58-46.32
			c-9.35-17.54-16.66-33.75-17.29-50.64c-0.18-4.85,0-29.03,7.68-48.79c5.1-13.12,15.44-30.35,25.68-37.74
			c31.41-22.68,66.84-29.42,102.59-30.92c0.13-0.01,0.27-0.01,0.4-0.01c0.13,0,0.27,0.01,0.4,0.01
			c35.75,1.5,71.18,8.24,102.59,30.92c10.24,7.39,20.58,24.62,25.68,37.74C386.35,220.54,386.66,244.72,386.35,249.56z"/>
		<path class="st20" d="M390.83,196.81c-3.84-16.2-14.84-39.9-25.4-52.09c-0.34-0.39-1.34-1.67-1.46-1.81
			c-22.78-27.19-54.73-44.52-84.96-44.42c-7.29,0.03-14.66,0.63-21.91,1.96c-1.28,0.23-4.17,0.76-7.11,1.25
			c-2.93-0.49-5.83-1.02-7.11-1.25c-7.25-1.33-14.62-1.94-21.91-1.96c-30.23-0.1-61.99,17.53-84.96,44.42
			c-0.12,0.14-1.13,1.41-1.46,1.81c-10.37,12.79-21.56,35.89-25.4,52.09c-5.12,21.62-8.2,43.95-1.92,72.88
			c5.76,26.56,14.08,50.64,29.5,73.37c18.04,26.58,43.48,40.71,79.33,49.36c8.48,2.05,21.27,3.44,33.91,3.73l0,0
			c12.63-0.3,25.45-1.69,33.93-3.73c35.85-8.65,61.29-22.78,79.33-49.36c15.42-22.72,23.74-46.81,29.5-73.37
			C399.03,240.76,395.95,218.42,390.83,196.81z M386.35,246.22c-1.13,17.42-7.94,33.11-17.29,50.64
			c-11.52,21.62-32.18,37.07-50.58,46.32c-18.49,9.3-27.05,14.31-57.62,16.68c-0.15,0.01-5.14,0.13-10.87,0.26
			c-5.73-0.13-10.72-0.25-10.87-0.26c-30.57-2.36-39.12-7.38-57.62-16.68c-18.4-9.25-39.05-24.7-50.58-46.32
			c-9.35-17.54-16.66-33.75-17.29-50.64c-0.18-4.85,0-29.03,7.68-48.79c5.1-13.12,15.44-30.35,25.68-37.74
			c31.41-22.68,66.84-29.42,102.59-30.92c0.13-0.01,0.27-0.01,0.4-0.01c0.13,0,0.27,0.01,0.4,0.01
			c35.75,1.5,71.18,8.24,102.59,30.92c10.24,7.39,20.58,24.62,25.68,37.74C386.35,217.19,386.66,241.37,386.35,246.22z"/>
		<g>
			<path class="st16" d="M144.04,345c-0.78-2.74-1.32-5.53-1.46-8.34c-0.1-2.02-0.02-4.1,0.6-6.06c0.43-1.36,1.12-2.71,2.32-3.74
				c1.01-0.86,2.32-1.42,3.76-1.61c1.64-0.22,3.33-0.01,4.9,0.38c0.3,0.08,0.6,0.16,0.9,0.25c-9.47-7.96-18.07-17.63-24.14-29.02
				c-9.32-17.47-16.61-33.64-17.28-50.47c-2.49-9-4.58-18.24-6.41-27.76c-0.44-2.3-0.84-4.56-1.19-6.79
				c-2.93,17.16-3.65,35.54,1.19,57.84c5.76,26.56,14.08,50.64,29.5,73.37c4.11,6.06,8.61,11.58,13.53,16.59
				C147.58,354.96,145.48,350.05,144.04,345z"/>
			<path class="st16" d="M393.94,211.84c-0.35,2.23-0.75,4.49-1.19,6.79c-1.83,9.53-3.92,18.78-6.42,27.79
				c-1.17,17.33-7.96,32.97-17.27,50.44c-6.65,12.48-16.35,22.91-26.9,31.27c-0.4,0.38-0.81,0.76-1.21,1.14c0,0,0,0,0,0
				c2.1,0.26,4.07,0.99,5.71,2.11c3.7,2.51,5.63,6.45,6.62,10.21c1.17,4.42,1.2,9.09,0.23,13.54c-0.05,0.21-0.1,0.42-0.15,0.63
				c3.52-3.94,6.81-8.17,9.89-12.7c15.42-22.72,23.74-46.81,29.5-73.37C397.59,247.38,396.87,229,393.94,211.84z"/>
		</g>
		<path class="st21" d="M334.86,127.52c-5.89-9.27-19.33-17.38-33.92-20.64c-14.96-3.35-32.63-2.2-45.49,4.03
			c-2.79,1.35-5.31,2.86-8.34,0.97c-3.19-1.99-6.93-3.69-11.08-4.78c-7.13-1.87-15.06-2.25-22.73-1.89
			c0.11-0.01,0.22-0.02,0.33-0.03c-1.72,0.06-3.49,0.21-5.17,0.36c-0.39,0.03-0.79,0.07-1.19,0.12c-8.89,0.96-17.36,3.6-24.37,7.42
			c-6.79,3.7-12.11,8.4-16.33,13.43c-1.68,2-7.2,9.48,0.09,9.5c4.2,0.01,8.23-1.32,11.81-2.61c3.95-1.43,30.83-7.74,40.67-8.92
			c28.29-3.38,33.59-3.38,58.28-0.07c10.63,1.42,45.71,9.67,53.45,11.51c1.47,0.35,3.51,0.67,4.86-0.05
			c1.1-0.59,1.28-1.65,1.28-2.51C337,131.37,336.02,129.34,334.86,127.52z"/>
		<g>
			<path class="st22" d="M204.32,377.63c-10.2-11.67,20.08-10.47,43.92-9.8c23.84,0.67,50.54,1.41,42.41,12.21
				c-4.67,6.2-20.18,11.44-44.02,10.77C222.79,390.15,209.74,383.84,204.32,377.63z"/>
			<path class="st23" d="M216.26,378.37c-5.58-6.38,10.98-5.73,24.02-5.36c13.04,0.36,27.64,0.77,23.2,6.68
				c-2.55,3.39-11.03,6.25-24.08,5.89C226.36,385.22,219.22,381.76,216.26,378.37z"/>
		</g>
	</g>
</g>
</svg>
