<?xml version="1.0" encoding="utf-8"?>
<!-- Generator: Adobe Illustrator 24.2.3, SVG Export Plug-In . SVG Version: 6.00 Build 0)  -->
<svg version="1.1" xmlns="http://www.w3.org/2000/svg" xmlns:xlink="http://www.w3.org/1999/xlink" x="0px" y="0px"
	 viewBox="0 0 502.1 510.16" style="enable-background:new 0 0 502.1 510.16;" xml:space="preserve">
<style type="text/css">
	.st0{fill:#A31F0D;}
	.st1{opacity:0.4;fill:#B72015;}
	.st2{fill:#961205;}
	.st3{opacity:0.53;fill:#820E08;}
	.st4{opacity:0.4;fill:#BF2413;}
	.st5{fill:#820E08;}
	.st6{fill:#720A05;}
	.st7{opacity:0.71;fill:#D1A26F;}
	.st8{fill:url(#SVGID_1_);}
	.st9{fill:url(#SVGID_2_);}
	.st10{opacity:0.42;fill:#FC8A7C;}
	.st11{opacity:0.42;fill:#FFAAA4;}
	.st12{fill:url(#SVGID_3_);}
	.st13{fill:url(#SVGID_4_);}
	.st14{opacity:0.51;fill:url(#SVGID_5_);}
	.st15{opacity:0.71;fill:#E0BE94;}
	.st16{opacity:0.51;fill:url(#SVGID_6_);}
	.st17{clip-path:url(#SVGID_7_);fill:#A59935;}
	.st18{clip-path:url(#SVGID_7_);fill:#A59A36;}
	.st19{clip-path:url(#SVGID_7_);fill:#A69A36;}
	.st20{clip-path:url(#SVGID_7_);fill:#A69B37;}
	.st21{clip-path:url(#SVGID_7_);fill:#A79B37;}
	.st22{clip-path:url(#SVGID_7_);fill:#A79C38;}
	.st23{clip-path:url(#SVGID_7_);fill:#A89D39;}
	.st24{clip-path:url(#SVGID_7_);fill:#A89E3A;}
	.st25{clip-path:url(#SVGID_7_);fill:#A99F3A;}
	.st26{clip-path:url(#SVGID_7_);fill:#A99F3B;}
	.st27{clip-path:url(#SVGID_7_);fill:#AAA03C;}
	.st28{clip-path:url(#SVGID_7_);fill:#AAA13D;}
	.st29{clip-path:url(#SVGID_7_);fill:#ABA23D;}
	.st30{clip-path:url(#SVGID_7_);fill:#ABA23E;}
	.st31{clip-path:url(#SVGID_7_);fill:#ACA33F;}
	.st32{clip-path:url(#SVGID_7_);fill:#ADA440;}
	.st33{clip-path:url(#SVGID_7_);fill:#ADA541;}
	.st34{clip-path:url(#SVGID_7_);fill:#AEA642;}
	.st35{clip-path:url(#SVGID_7_);fill:#AFA743;}
	.st36{clip-path:url(#SVGID_7_);fill:#AFA844;}
	.st37{clip-path:url(#SVGID_7_);fill:#B0A945;}
	.st38{clip-path:url(#SVGID_7_);fill:#B1AB46;}
	.st39{clip-path:url(#SVGID_7_);fill:#B2AC47;}
	.st40{clip-path:url(#SVGID_7_);fill:#B3AD48;}
	.st41{clip-path:url(#SVGID_7_);fill:#B3AE49;}
	.st42{clip-path:url(#SVGID_7_);fill:#B4B04B;}
	.st43{clip-path:url(#SVGID_7_);fill:#B5B14C;}
	.st44{clip-path:url(#SVGID_7_);fill:#B6B24D;}
	.st45{clip-path:url(#SVGID_7_);fill:#B7B44F;}
	.st46{clip-path:url(#SVGID_7_);fill:#B8B550;}
	.st47{clip-path:url(#SVGID_7_);fill:#B9B752;}
	.st48{clip-path:url(#SVGID_7_);fill:#BAB853;}
	.st49{clip-path:url(#SVGID_7_);fill:#BBBA55;}
	.st50{clip-path:url(#SVGID_7_);fill:#BCBC56;}
	.st51{clip-path:url(#SVGID_7_);fill:#BEBD58;}
	.st52{clip-path:url(#SVGID_7_);fill:#BFBF59;}
	.st53{clip-path:url(#SVGID_7_);fill:#C0C15B;}
	.st54{clip-path:url(#SVGID_7_);fill:#C1C25D;}
	.st55{clip-path:url(#SVGID_7_);fill:#C2C45F;}
	.st56{clip-path:url(#SVGID_7_);fill:#C4C660;}
	.st57{clip-path:url(#SVGID_7_);fill:#C5C862;}
	.st58{clip-path:url(#SVGID_7_);fill:#C6CA64;}
	.st59{clip-path:url(#SVGID_7_);fill:#C8CC66;}
	.st60{clip-path:url(#SVGID_7_);fill:#C9CE68;}
	.st61{fill:#897618;}
	.st62{fill:#77630E;}
	.st63{fill:#D3DB74;}
	.st64{fill:#FFC5BB;}
</style>
<g id="Layer_1">
</g>
<g id="font">
	<g>
		<path class="st0" d="M260.96,261.43c-10.45-10.41-26.08-18.95-30.79-33.21c-6.02-18.24,9.13-47.41,18.8-62.15
			c2.69-4.11,5.68-6.77,8.9-8.38c-9.77-10.16-25.47-12.16-38-17.31c-14.29-5.87-31.26-8.02-46.66-9.51
			c-32.13-3.12-67.04,4.04-90.87,26.02c-23.18,21.38-26.82,51.89-26.97,81.79c-0.08,15.73,5.27,30.37,5.04,46.35
			c-0.26,18.22-3.8,36.23-4.01,54.45c-0.14,12.3,1.54,27.2,12.18,35.42c9.05,6.99,22.53,5.32,32.95,3.31
			c11.67-2.26,24.09-2.98,35.47-6.86c22.69-7.74,40.58-24.91,59.92-38.33c14.28-9.91,25.33-18.77,42.15-24.05
			c14.7-4.61,30.34-9.61,43.23-18.1c2.75-1.8,4.94-3.95,6.7-6.34C277.32,281.3,269.86,270.29,260.96,261.43z"/>
		<path class="st1" d="M260.96,261.43c-10.45-10.41-26.08-18.95-30.79-33.21c-6.02-18.24,9.13-47.41,18.8-62.15
			c2.69-4.11,5.68-6.77,8.9-8.38c-9.77-10.16-25.47-12.16-38-17.31c-14.29-5.87-31.26-8.02-46.66-9.51
			c-32.13-3.12-67.04,4.04-90.87,26.02c-23.18,21.38-26.82,51.89-26.97,81.79c-0.08,15.73,5.27,30.37,5.04,46.35
			c-0.26,18.22-3.8,36.23-4.01,54.45c-0.14,12.3,1.54,27.2,12.18,35.42c9.05,6.99,22.53,5.32,32.95,3.31
			c11.67-2.26,24.09-2.98,35.47-6.86c22.69-7.74,40.58-24.91,59.92-38.33c14.28-9.91,25.33-18.77,42.15-24.05
			c14.7-4.61,30.34-9.61,43.23-18.1c2.75-1.8,4.94-3.95,6.7-6.34C277.32,281.3,269.86,270.29,260.96,261.43z"/>
		<path class="st2" d="M237.52,296.06c-15.15,4.81-27.41,14.29-40.6,22.83c-12.85,8.31-25.88,16.39-39.34,23.69
			c-11.97,6.48-24.08,13.31-36.87,18.02c-10.58,3.9-28.26,8.75-39.49,5.37c-14.94-4.5-19.27-18.27-24.65-32.25
			c-0.09,1.93-0.15,3.85-0.18,5.79c-0.14,12.3,1.54,27.2,12.18,35.42c9.05,6.99,22.53,5.32,32.95,3.31
			c11.67-2.26,24.09-2.98,35.47-6.86c22.69-7.74,40.58-24.91,59.92-38.33c14.28-9.91,25.33-18.77,42.15-24.05
			c14.7-4.61,30.34-9.61,43.23-18.1c0.16-0.11,0.31-0.23,0.47-0.34C267.65,292.2,251.75,291.54,237.52,296.06z"/>
		<path class="st2" d="M260.96,261.43c-10.45-10.41-26.08-18.95-30.79-33.21c-1.12-3.39-1.5-7.16-1.33-11.15
			c-26.72,3.69-54.08,4.06-80.17,11.69c-21.01,6.15-38.72,17.1-51.1,35.5c-4.74,7.04-9.35,14.26-13.58,21.62
			c-3.38,5.87-7.26,12.26-8.92,19c9.79-5.29,18.72-14.77,26.13-20.77c9.29-7.53,21.66-11.27,33.36-12.68
			c13.67-1.64,27.77-0.89,41.17,2.33c8.91,2.14,19.89,5.6,25.82,13.16c10.31,13.12,2.04,28.76-6.9,40.16
			c-8.04,10.25-17.49,19.16-27.2,27.79c10-7.08,19.54-14.95,29.47-21.84c14.28-9.91,25.33-18.77,42.15-24.05
			c14.7-4.61,30.34-9.61,43.23-18.1c2.75-1.8,4.94-3.95,6.7-6.34C277.32,281.3,269.86,270.29,260.96,261.43z"/>
		<path class="st3" d="M260.96,261.43c-5.85-5.82-13.32-11.07-19.59-17.05c-8.32,3.43-16.56,6.94-24.86,10.41
			c-11.8,4.94-24.03,9.06-36.7,11.07c-6.5,1.03-13.18,1.08-19.77,1.55c3.32,0.66,6.64,1.27,10.02,1.58
			c8.12,0.75,16.19-0.26,24.24-1.42c12.76-1.85,25.4-3.66,38.24-1.49c11,1.85,18.2,6.73,23.29,16.7c3.06,5.99,3.8,13.2,2.32,19.83
			c8.49-3.15,16.77-6.86,24.16-11.73c2.75-1.8,4.94-3.95,6.7-6.34C277.32,281.3,269.86,270.29,260.96,261.43z"/>
		<path class="st4" d="M233.35,234.86c-8.52,8.6-20.55,13.86-31.39,18.55c-12.56,5.43-39.82,10.21-52.61,4.63
			c-5.64-2.45-8.26-2.7-9.22-1.76c7.94,3.14,15.64,6.99,23.99,8.84c10.18,2.27,21,2.31,31.49,1.21c4.62-1.31,9.67-2.84,15.27-4.69
			c9.74-3.2,15.03-7.38,25.28-6.09c7.85,0.98,15.53,2.94,23.29,4.43C250.86,251.91,239.55,244.76,233.35,234.86z"/>
		<path class="st5" d="M260.96,261.43c-10.24-10.19-25.41-18.61-30.46-32.34c-4.72-0.41-9.44-0.59-14.18,0.29
			c1.64,5.67,21.64,21.55,26.48,25.31c7.61,5.9,20.72,15.26,19.71,26.54c-0.9,10.13-10.63,15.2-19,18.87
			c-11.3,4.95-22.59,9.3-33.52,15.15c-8.16,4.37-36.62,24.88-43.21,29.99c-5.53,4.29-21.78,22.96-43.6,25.81
			c-19.76,2.58-34.19,9.35-53.12,4.9c8.99,5.78,21.61,4.2,31.49,2.29c11.67-2.26,24.09-2.98,35.47-6.86
			c22.69-7.74,40.58-24.91,59.92-38.33c14.28-9.91,25.33-18.77,42.15-24.05c14.7-4.61,30.34-9.61,43.23-18.1
			c2.75-1.8,4.94-3.95,6.7-6.34C277.32,281.3,269.86,270.29,260.96,261.43z"/>
		<path class="st6" d="M260.96,261.43c-2.55-2.54-5.4-4.96-8.33-7.39c11.53,14.69,19.96,30.22,13.12,45.55
			c5.8-2.47,11.4-5.31,16.56-8.71c2.75-1.8,4.94-3.95,6.7-6.34C277.32,281.3,269.86,270.29,260.96,261.43z"/>
		<path class="st7" d="M210.88,232.11c4.97,12.31,17.91,14.54,29.06,19.57c3.17,1.43,25.85,13.67,29.08,15.16
			c-9.02-7.45-35.34-27.94-38.86-38.62c-1.3-3.95-1.61-8.42-1.2-13.15c-5.73-2.66-8.65-2.2-13.12,3.48
			C211.53,224.03,205.8,228.54,210.88,232.11z"/>
		<path class="st0" d="M230.16,228.23c4.71,14.26,20.34,22.8,30.79,33.21c10.64,10.58,19.2,24.23,35.4,24.05
			c33.63-0.37,45.34-35.19,71.36-49.47c13.92-7.64,30.86-10.87,46.45-13.27c12.48-1.92,43.86-0.66,28.37-19.64
			c-19.04-23.33-56.62-36.96-84.57-39.75c-17.43-1.74-34.4-1.79-51.88-1.08c-20.37,0.82-42.89-17.91-57.12,3.81
			C239.3,180.82,224.14,209.99,230.16,228.23z"/>
		<path class="st2" d="M442.52,203.1c-19.04-23.33-56.62-36.96-84.57-39.75c-17.43-1.74-34.4-1.79-51.88-1.08
			c-20.37,0.82-42.89-17.91-57.12,3.81c-9.67,14.74-24.82,43.91-18.8,62.15c4.71,14.26,20.34,22.8,30.79,33.21
			c10.64,10.58,19.2,24.23,35.4,24.05c33.63-0.37,45.34-35.19,71.36-49.47c13.92-7.64,30.86-10.87,46.45-13.27
			C426.64,220.83,458.01,222.08,442.52,203.1z M349.51,231.21c-1.99,1.05-3.95,2.17-5.86,3.5c-6.43,4.49-12.12,9.97-18.23,14.83
			c-6.49,5.15-12.97,10.95-20.42,14.69c-11.29,5.67-27.21,2.69-37.01-4.73c-4.19-3.18-9.85-9.85-9.32-15.52
			c0.63-6.66,10.46-6.64,15.3-6.88c6.41-0.32,12.86,1.99,19.24,0.71c5.86-1.17,11.5-3.33,16.8-6.11c3.55-1.86,7.39-3.2,11.1-4.83
			c4.08-1.79,8.1-3.9,12.22-5.63c9.74-4.11,19.31-8.24,29.63-10.77c3.19-0.78,7.72-2.05,11.11-0.85
			c8.71,3.06-13.16,15.47-16.15,17.18C355.16,228.39,352.31,229.73,349.51,231.21z"/>
		<path class="st5" d="M419.35,183.66c-0.23-0.03-0.47-0.06-0.71-0.09c-13.79-1.36-27.57-0.45-41.03,2.91
			c-6.43,1.6-17.63,3.53-20.94,10.23c11.71-1.69,33.82-5.01,36.08,9.23c0.96,6.06-4.5,11.66-8.91,14.57
			c-6.95,4.59-11.96,6.39-19.12,10.61c-19.04,11.19-32.84,29.86-53.17,39.44c-9.2,4.33-19.23,7.08-29.44,5.38
			c-3.61-0.6-7.03-1.62-10.3-2.96c6.73,6.91,14.03,12.63,24.55,12.5c33.63-0.37,45.34-35.19,71.36-49.47
			c13.92-7.64,30.86-10.87,46.45-13.27c12.48-1.92,43.86-0.66,28.37-19.64C436.41,195.6,428.37,189.12,419.35,183.66z"/>
		<path class="st6" d="M442.52,203.1c-6.12-7.5-14.16-13.99-23.18-19.45c-0.23-0.03-0.47-0.06-0.71-0.09
			c-11.91-1.18-23.81-0.64-35.51,1.69c-4.32,3.65-0.29,9.58,2.8,10.76c7.25,2.77,41.89,4.55,37.57,15.66
			c-4.68,12.04-24.68,8.83-38.55,17.24c9.57-2.92,19.64-4.71,29.21-6.18C426.64,220.83,458.01,222.08,442.52,203.1z"/>
		<linearGradient id="SVGID_1_" gradientUnits="userSpaceOnUse" x1="302.4472" y1="137.8156" x2="354.5975" y2="254.947">
			<stop  offset="0" style="stop-color:#EA9081"/>
			<stop  offset="0.9212" style="stop-color:#C5442C"/>
		</linearGradient>
		<path class="st8" d="M291.23,230.71c22.16-6.33,41.14-19.73,62.64-27.63c15.92-5.85,33.7-6.7,50.42-4.5
			c14.81,1.95,30.31,5.76,41.98,15.54c1.1-2.6,0.23-6.14-3.75-11.03c-19.04-23.33-56.62-36.96-84.57-39.75
			c-17.43-1.74-34.4-1.79-51.88-1.08c-20.37,0.82-42.89-17.91-57.12,3.81c-9.19,14.03-23.36,41.12-19.51,59.43
			C249.73,229.08,271.48,236.35,291.23,230.71z"/>
		<linearGradient id="SVGID_2_" gradientUnits="userSpaceOnUse" x1="302.4477" y1="137.8168" x2="354.5975" y2="254.9472">
			<stop  offset="0" style="stop-color:#E17561"/>
			<stop  offset="0.7152" style="stop-color:#BD3C21"/>
		</linearGradient>
		<path class="st9" d="M442.52,203.1c-4.28-5.25-9.51-10-15.35-14.25c-13.65,6.63-27.09,0.51-41.31-0.35
			c-30.15-1.81-54.46,18.06-82.23,25.8c-15.95,4.44-35.53,7.98-51.66,2.4c-11.33-3.92-16.84-11.91-17.99-21.62
			c-4,10.54-6.4,21.52-4.53,30.42c20.28,3.57,42.03,10.85,61.78,5.21c22.16-6.33,41.14-19.73,62.64-27.63
			c15.92-5.85,33.7-6.7,50.42-4.5c14.81,1.95,30.31,5.76,41.98,15.54C447.38,211.53,446.51,207.99,442.52,203.1z"/>
		<path class="st10" d="M433.37,202.7c-12.04-6.48-25.47-10.94-39.19-11.89c-13.83-0.96-27.49,1.09-40.53,5.75
			c-13.3,4.75-25.36,11.88-38.29,17.44c-20.6,8.85-44.26,13.46-66.66,9.2c-7.73-1.47-16.92-5.47-18.86-14
			c-1.13,5.79-1.41,11.37-0.38,16.31c20.28,3.57,42.03,10.85,61.78,5.21c22.16-6.33,41.14-19.73,62.64-27.63
			c15.92-5.85,33.7-6.7,50.42-4.5c14.81,1.95,30.31,5.76,41.98,15.54c0.02-0.04,0.02-0.08,0.04-0.12
			C442.95,209.49,438.3,205.35,433.37,202.7z"/>
		<path class="st11" d="M433.37,202.7c-2.22-1.2-4.49-2.32-6.79-3.37c-4.07-1.47-8.24-2.66-12.49-3.53
			c-11.11-2.26-21.68-1.3-32.19,0.52c7.82,0.19,15.65,0.94,23.51,2.32c0.25,0.04,0.47,0.11,0.67,0.19c14.26,2.02,29,5.9,40.21,15.29
			c0.02-0.04,0.02-0.08,0.04-0.12C442.95,209.49,438.3,205.35,433.37,202.7z"/>
		<path class="st11" d="M302.57,221.81c-12.96,4.71-25.99,7.79-39.47,7.42c-3.61,0.55-7.23,0.89-10.77,0.9
			c13.18,2.55,26.44,4.14,38.9,0.58c15.42-4.4,29.3-12.23,43.57-19.25C324.08,214.97,313.18,217.95,302.57,221.81z"/>
		<linearGradient id="SVGID_3_" gradientUnits="userSpaceOnUse" x1="150.827" y1="130.405" x2="163.2851" y2="368.1197">
			<stop  offset="0" style="stop-color:#EA9081"/>
			<stop  offset="0.7152" style="stop-color:#C5442C"/>
		</linearGradient>
		<path class="st12" d="M66.58,373.19c-1.31-5.43-2.11-10.85-2.6-15.67c-2.36-22.93,1.42-44.47,17.2-62.25
			c10.1-11.39,14.28-26.2,26.26-36.17c15.11-12.55,34.97-15.68,54.07-13.84c24.16,2.32,46.03-18.15,69.21-15.59
			c-0.18-0.48-0.39-0.95-0.55-1.44c-6.02-18.24,9.13-47.41,18.8-62.15c2.69-4.11,5.68-6.77,8.9-8.38
			c-9.77-10.16-25.47-12.16-38-17.31c-14.29-5.87-31.26-8.02-46.66-9.51c-32.13-3.12-67.04,4.04-90.87,26.02
			c-23.18,21.38-26.82,51.89-26.97,81.79c-0.08,15.73,5.27,30.37,5.04,46.35c-0.26,18.22-3.8,36.23-4.01,54.45
			C56.27,350.99,57.73,364.72,66.58,373.19z"/>
		<linearGradient id="SVGID_4_" gradientUnits="userSpaceOnUse" x1="135.741" y1="131.1963" x2="148.199" y2="368.91">
			<stop  offset="0" style="stop-color:#E17561"/>
			<stop  offset="0.7152" style="stop-color:#BD3C21"/>
		</linearGradient>
		<path class="st13" d="M230.21,207.35c-2.66,2.75-5.56,5.29-8.76,7.5c-15.84,10.97-33.27,14.15-52.18,14.83
			c-17.52,0.63-34.2,0.6-49.18,10.67c-16.62,11.18-45.15,35.98-59.94,8.19c-2.04-3.83-3.61-8.03-4.76-12.45
			c-0.01,0.87-0.02,1.74-0.02,2.6c-0.08,15.73,5.27,30.37,5.04,46.35c-0.26,18.22-3.8,36.23-4.01,54.45
			c-0.13,11.49,1.33,25.22,10.18,33.69c-1.31-5.43-2.11-10.85-2.6-15.67c-2.36-22.93,1.42-44.47,17.2-62.25
			c10.1-11.39,14.28-26.2,26.26-36.17c15.11-12.55,34.97-15.68,54.07-13.84c24.16,2.32,46.03-18.15,69.21-15.59
			c-0.18-0.48-0.39-0.95-0.55-1.44C228.17,222.16,228.51,214.89,230.21,207.35z"/>
		<path class="st10" d="M246.96,150.09c-1.3,6.44-3.66,12.77-6,18.33c-3.59,8.5-7.53,17.66-12.58,25.84
			c-2.64,5.9-6.48,11.36-11.01,16.16c-10.26,13.92-27.48,24.5-44.09,27.09c-19.19,2.99-40.58,0.2-58.22,9.8
			c-17.9,9.73-27.34,28.97-37.07,45.97c-3.05,5.33-6.08,10.67-9.28,15.91c-3.21,5.27-6.89,10.35-8.29,16.48
			c-2.5,10.92-1.16,22.14-1.06,33.23c0,0.6-0.15,1.09-0.39,1.51c1.54,4.81,3.92,9.26,7.62,12.78c-1.31-5.43-2.11-10.85-2.6-15.67
			c-2.36-22.93,1.42-44.47,17.2-62.25c10.1-11.39,14.28-26.2,26.26-36.17c15.11-12.55,34.97-15.68,54.07-13.84
			c24.16,2.32,46.03-18.15,69.21-15.59c-0.18-0.48-0.39-0.95-0.55-1.44c-6.02-18.24,9.13-47.41,18.8-62.15
			c2.69-4.11,5.68-6.77,8.9-8.38C254.73,154.45,251,152.04,246.96,150.09z"/>
		<path class="st11" d="M182.7,241.86c-11.65,2.02-17.96,2.52-37.9,0.72c-9.35-1.69-15.22-0.55-15.89-0.42
			c-4.78,1.13-9.44,2.74-13.85,5.14c-12.88,7-21.37,18.93-28.75,31.4c-2.86,6.88-5.6,13.81-8.49,20.67
			c1.06-1.39,2.17-2.77,3.36-4.11c10.1-11.39,14.28-26.2,26.26-36.17c15.11-12.55,34.97-15.68,54.07-13.84
			c10.88,1.04,21.29-2.54,31.58-6.55C192.44,238.79,183.33,241.75,182.7,241.86z"/>
		<linearGradient id="SVGID_5_" gradientUnits="userSpaceOnUse" x1="174.2501" y1="213.7758" x2="141.6327" y2="136.934">
			<stop  offset="0" style="stop-color:#EA9081"/>
			<stop  offset="0.7273" style="stop-color:#FFD0CC"/>
		</linearGradient>
		<path class="st14" d="M210.76,187.94c4.96-0.45,9.88-2.49,14.82-5.76c0.18-0.29,0.37-0.56,0.54-0.85
			c3.79-6.23,6.87-13.86,5.19-20.01c-1.03-3.77-6.73-6.64-10.06-7.85c-4.22-1.53-8.23-3-12.48-4.59c-10.7-4-22.24-4.57-33.4-6.42
			c-10.32-1.7-20.88-2.21-31.29-1.05c-21.92,2.43-43.3,9.53-57.59,27.47c-1.05,1.32-16.44,25.28,10.87,8.91
			c7.03-4.21,14.56-7.17,22.03-10.47c15.34-6.77,33.93-7.5,49.92-2.26c13.43,4.4,23.28,13.71,35.58,20.1
			C206.72,186.11,208.7,187.11,210.76,187.94z"/>
		<path class="st15" d="M243.42,148.52c-0.09,17.15-7.31,35.46-13.95,50.54c-4.73,10.77-10.57,23.15-18.6,33.05
			c6.56-2,13.14-3.18,19.83-2.44c-0.18-0.48-0.39-0.95-0.55-1.44c-6.02-18.24,9.13-47.41,18.8-62.15c2.69-4.11,5.68-6.77,8.9-8.38
			C253.84,153.52,248.82,150.73,243.42,148.52z"/>
		<linearGradient id="SVGID_6_" gradientUnits="userSpaceOnUse" x1="251.386" y1="175.7249" x2="393.9169" y2="175.7249">
			<stop  offset="0.2727" style="stop-color:#FFD0CC"/>
			<stop  offset="1" style="stop-color:#EA9081"/>
		</linearGradient>
		<path class="st16" d="M263.16,185.45c-6.41-1.16-11.9-3.51-11.77-8.07c0.62-22.2,43.61-7.88,52.98-7.54
			c15.14,0.54,30.5-1.29,44.94,0c6.67,0.6,41.56,2.07,43.85,10.34c0.24,0.25,0.49,0.49,0.76,0.71c-10.72,1.08-21.03-1.9-31.6-2.97
			c-8.4-0.85-15.87,0.81-24.25,1.53c-19.26,1.65-38.25,5.71-57.55,6.9C276.94,186.56,269.58,186.61,263.16,185.45z"/>
		<path class="st4" d="M276.04,256.15c3.33,4.51,10.46,3.44,15.15,2.12c3.59-1.01,6.63-2.13,10.39-2.12
			c4.92,0.01,6.76-1.14,9.89-4.91c3.21-3.88,5.89-6.96,10.02-10.02c3.86-2.86,8.15-4.85,12.01-7.6c2.95-2.11,5.86-4.46,8.71-6.67
			c1.79-1.39,4.26-3.23,2.35-5.11c-5.11-5.01-19.36,5.81-23.44,8.61c-3.8,2.6-7.7,4.57-12.01,6.15c-3.82,1.39-7.21,3.85-11.11,4.98
			c-6.7,1.95-14.73,0.75-21.24-0.99c-2.99-0.8-5.39-0.78-8.23,1.07c-3.78,2.46-2.66,3.73-0.05,5.86
			C271.51,250.01,273.74,253.02,276.04,256.15z"/>
		<path class="st4" d="M169.81,286c-9.81-4.31-21.96-5.1-33.77-3.69c-0.3,0.21-0.68,0.37-1.13,0.45
			c-11.76,2.15-24.09,3.91-32.76,12.76c-3.42,4.22-6.33,9.12-9.55,13.57c-6.56,9.08-17.25,21.88-14.24,34.09
			c3.57,14.5,21.55,12.06,32.17,7.68c13.2-5.46,26.63-11.23,39.54-17.33c6.97-3.29,13.87-6.76,20.61-10.52
			c5.06-2.82,11.38-5.89,13.05-12.03C186.5,300.79,179.06,290.06,169.81,286z"/>
		<g>
			<g>
				<g>
					<defs>
						<path id="SVGID_15_" d="M251.69,240.97c-2.5-1-5.33,0.22-6.34,2.72c-1.03,2.58-4.36,4.59-7.87,6.73
							c-2.95,1.8-6.25,3.8-8.84,6.57c-1.86-3.09-4.03-5.91-5.89-7.62c-1.99-1.82-5.07-1.68-6.89,0.3c-1.82,1.98-1.68,5.07,0.3,6.88
							c2.56,2.36,6.11,8.25,6.93,11.41c-0.87,3.51-0.96,9.71-1.06,13.44c-4.38-1.54-12.64-1.71-17.75,0.77
							c-1.64-14.82-19.3-5.93-33.56-13.72c-11.07-6.04-19.34-14.65-32.16-15.4c-46.42-2.72-34.04,53.05,6.25,45.15
							c7.79-1.52,12.79-4.56,20.87-5.49c3.7-0.43,8.28-0.91,13.12-0.52c3.26,0.27,8.04,3.06,10.8,3.84
							c12.07,3.4,24.99-8.68,32.95-1.59c0.32,3.07,0.69,6.27,1.06,9.54c1.8,15.75,3.84,33.59,2.01,45.58
							c-0.42,2.66,1.41,5.15,4.08,5.56c0.25,0.04,0.5,0.05,0.74,0.05c2.37,0,4.44-1.72,4.81-4.13c2.05-13.28-0.07-31.82-1.94-48.18
							c-0.45-3.95-0.89-7.78-1.26-11.42c-0.51-5.02-2.05-20.32,3.09-27.09c1.6-2.11,4.42-3.82,7.4-5.63
							c4.52-2.74,9.63-5.84,11.88-11.45C255.41,244.8,254.19,241.97,251.69,240.97z"/>
					</defs>
					<clipPath id="SVGID_7_">
						<use xlink:href="#SVGID_15_"  style="overflow:visible;"/>
					</clipPath>
					<rect x="92.14" y="239.97" class="st17" width="163.27" height="115.23"/>
					<path class="st17" d="M245.54,321.92c-11.26,29.31-51.72,41.03-90.37,26.18c-38.65-14.85-60.86-50.65-49.6-79.95
						c11.26-29.31,51.72-41.03,90.37-26.18C234.59,256.81,256.8,292.61,245.54,321.92z"/>
					<path class="st17" d="M243.48,320.79c-11.05,28.76-50.75,40.26-88.67,25.69c-37.92-14.57-59.71-49.69-48.67-78.45
						c11.05-28.76,50.75-40.26,88.67-25.69C232.74,256.91,254.53,292.04,243.48,320.79z"/>
					
						<ellipse transform="matrix(0.3586 -0.9335 0.9335 0.3586 -162.6048 350.929)" class="st17" cx="174.07" cy="293.79" rx="54.7" ry="72.15"/>
					<path class="st17" d="M239.36,318.54c-10.62,27.65-48.79,38.71-85.26,24.7c-36.47-14.01-57.42-47.78-46.8-75.43
						c10.62-27.65,48.79-38.71,85.26-24.7C229.03,257.12,249.98,290.89,239.36,318.54z"/>
					<path class="st17" d="M237.3,317.41c-10.41,27.1-47.82,37.93-83.55,24.21c-35.74-13.73-56.27-46.82-45.86-73.92
						c10.41-27.1,47.82-37.93,83.55-24.21C227.18,257.22,247.71,290.32,237.3,317.41z"/>
					<path class="st17" d="M235.24,316.29c-10.2,26.54-46.84,37.16-81.85,23.71c-35.01-13.45-55.12-45.87-44.92-72.41
						c10.2-26.54,46.84-37.16,81.85-23.71C225.33,257.32,245.44,289.74,235.24,316.29z"/>
					
						<ellipse transform="matrix(0.3586 -0.9335 0.9335 0.3586 -162.1862 346.5952)" class="st18" cx="171.12" cy="291.32" rx="50.41" ry="66.49"/>
					<path class="st19" d="M231.12,314.03c-9.77,25.44-44.89,35.61-78.44,22.72c-33.55-12.89-52.82-43.96-43.05-69.39
						c9.77-25.44,44.89-35.61,78.44-22.72C221.62,257.52,240.89,288.59,231.12,314.03z"/>
					<path class="st19" d="M229.06,312.91c-9.56,24.89-43.91,34.84-76.73,22.23c-32.82-12.61-51.67-43-42.11-67.89
						s43.91-34.84,76.73-22.23C219.77,257.63,238.62,288.02,229.06,312.91z"/>
					<path class="st20" d="M227,311.78c-9.35,24.33-42.94,34.06-75.03,21.74c-32.09-12.33-50.53-42.05-41.18-66.38
						c9.35-24.33,42.94-34.06,75.03-21.74C217.92,257.73,236.35,287.45,227,311.78z"/>
					<path class="st20" d="M224.94,310.65c-9.14,23.78-41.96,33.29-73.32,21.24c-31.36-12.05-49.38-41.09-40.24-64.87
						c9.14-23.78,41.96-33.29,73.32-21.24C216.06,257.83,234.08,286.87,224.94,310.65z"/>
					<path class="st21" d="M222.88,309.53c-8.92,23.23-40.99,32.52-71.62,20.75c-30.63-11.77-48.23-40.13-39.31-63.36
						c8.92-23.23,40.99-32.52,71.62-20.75C214.21,257.93,231.81,286.3,222.88,309.53z"/>
					
						<ellipse transform="matrix(0.3586 -0.9335 0.9335 0.3586 -161.5612 340.0652)" class="st22" cx="166.68" cy="287.6" rx="43.98" ry="58"/>
					<path class="st22" d="M218.77,307.27c-8.5,22.12-39.03,30.97-68.21,19.76c-29.17-11.21-45.93-38.22-37.44-60.34
						c8.5-22.12,39.03-30.97,68.21-19.76C210.5,258.14,227.26,285.15,218.77,307.27z"/>
					<path class="st23" d="M216.71,306.15c-8.29,21.57-38.06,30.19-66.5,19.27c-28.44-10.93-44.79-37.27-36.5-58.83
						c8.29-21.57,38.06-30.19,66.5-19.27C208.65,258.24,224.99,284.58,216.71,306.15z"/>
					<path class="st23" d="M214.65,305.02c-8.07,21.01-37.08,29.42-64.8,18.77c-27.71-10.65-43.64-36.31-35.56-57.33
						c8.07-21.01,37.08-29.42,64.8-18.77C206.8,258.34,222.72,284.01,214.65,305.02z"/>
					
						<ellipse transform="matrix(0.3586 -0.9335 0.9335 0.3586 -161.1452 335.7148)" class="st24" cx="163.73" cy="285.12" rx="39.69" ry="52.34"/>
					<path class="st25" d="M210.53,302.77c-7.65,19.91-35.13,27.87-61.39,17.78c-26.26-10.09-41.34-34.4-33.69-54.31
						c7.65-19.91,35.13-27.87,61.39-17.78C203.09,258.54,218.18,282.86,210.53,302.77z"/>
					<path class="st26" d="M208.47,301.64c-7.43,19.35-34.15,27.1-59.68,17.29c-25.53-9.81-40.19-33.45-32.76-52.8
						c7.43-19.35,34.15-27.1,59.68-17.29C201.24,258.64,215.9,282.28,208.47,301.64z"/>
					<path class="st27" d="M206.41,300.51c-7.22,18.8-33.18,26.32-57.98,16.8c-24.8-9.52-39.04-32.49-31.82-51.29
						c7.22-18.8,33.18-26.32,57.98-16.8C199.38,258.75,213.63,281.71,206.41,300.51z"/>
					<path class="st28" d="M204.35,299.39c-7.01,18.25-32.2,25.55-56.27,16.3c-24.07-9.25-37.89-31.53-30.88-49.78
						c7.01-18.25,32.2-25.55,56.27-16.3C197.53,258.85,211.36,281.14,204.35,299.39z"/>
					<path class="st29" d="M202.29,298.26c-6.8,17.7-31.23,24.77-54.57,15.81c-23.34-8.96-36.75-30.58-29.95-48.27
						c6.8-17.7,31.23-24.77,54.57-15.81C195.68,258.95,209.09,280.56,202.29,298.26z"/>
					<path class="st30" d="M200.23,297.13c-6.58,17.14-30.25,24-52.86,15.31c-22.61-8.68-35.6-29.62-29.01-46.77
						c6.58-17.14,30.25-24,52.86-15.31C193.82,259.05,206.81,279.99,200.23,297.13z"/>
					<path class="st31" d="M198.17,296.01c-6.37,16.59-29.28,23.23-51.16,14.82c-21.88-8.4-34.45-28.67-28.08-45.26
						c6.37-16.59,29.28-23.23,51.16-14.82C191.97,259.15,204.54,279.42,198.17,296.01z"/>
					<path class="st32" d="M196.11,294.88c-6.16,16.04-28.3,22.45-49.45,14.33c-21.15-8.12-33.3-27.71-27.14-43.75
						c6.16-16.04,28.3-22.45,49.45-14.33C190.12,259.26,202.27,278.84,196.11,294.88z"/>
					<path class="st33" d="M194.05,293.75c-5.95,15.48-27.33,21.68-47.75,13.83c-20.42-7.84-32.15-26.76-26.21-42.24
						c5.95-15.48,27.33-21.68,47.75-13.83C188.27,259.36,200,278.27,194.05,293.75z"/>
					<path class="st34" d="M191.99,292.63c-5.74,14.93-26.35,20.9-46.04,13.34c-19.69-7.57-31-25.8-25.27-40.73
						c5.74-14.93,26.35-20.9,46.04-13.34C186.41,259.46,197.73,277.7,191.99,292.63z"/>
					<path class="st35" d="M189.93,291.5c-5.52,14.38-25.37,20.13-44.33,12.84c-18.96-7.28-29.86-24.85-24.33-39.22
						c5.52-14.38,25.37-20.13,44.33-12.84C184.56,259.56,195.46,277.12,189.93,291.5z"/>
					<path class="st36" d="M187.87,290.37c-5.31,13.82-24.4,19.35-42.63,12.35c-18.23-7-28.71-23.89-23.4-37.71
						c5.31-13.82,24.4-19.35,42.63-12.35C182.71,259.66,193.18,276.55,187.87,290.37z"/>
					<path class="st37" d="M185.81,289.25c-5.1,13.27-23.42,18.58-40.92,11.86c-17.5-6.72-27.56-22.93-22.46-36.21
						c5.1-13.27,23.42-18.58,40.92-11.86C180.85,259.76,190.91,275.97,185.81,289.25z"/>
					<path class="st38" d="M183.75,288.12c-4.89,12.72-22.45,17.81-39.22,11.36c-16.77-6.44-26.41-21.98-21.53-34.7
						c4.89-12.72,22.45-17.81,39.22-11.36C179,259.87,188.64,275.4,183.75,288.12z"/>
					<path class="st39" d="M181.69,286.99c-4.67,12.17-21.47,17.03-37.51,10.87c-16.04-6.16-25.26-21.02-20.59-33.19
						s21.47-17.03,37.51-10.87C177.15,259.97,186.37,274.83,181.69,286.99z"/>
					<path class="st40" d="M179.63,285.87c-4.46,11.61-20.49,16.26-35.81,10.37c-15.32-5.88-24.11-20.07-19.65-31.68
						c4.46-11.61,20.49-16.26,35.81-10.37C175.3,260.07,184.09,274.25,179.63,285.87z"/>
					<path class="st41" d="M177.57,284.74c-4.25,11.06-19.52,15.48-34.1,9.88c-14.59-5.6-22.97-19.11-18.72-30.17
						c4.25-11.06,19.52-15.48,34.1-9.88C173.44,260.17,181.82,273.68,177.57,284.74z"/>
					<path class="st42" d="M175.51,283.61c-4.04,10.51-18.54,14.71-32.4,9.39c-13.86-5.32-21.82-18.16-17.78-28.66
						c4.04-10.51,18.54-14.71,32.4-9.39S179.55,273.11,175.51,283.61z"/>
					<path class="st43" d="M173.45,282.49c-3.82,9.95-17.57,13.94-30.69,8.89c-13.13-5.04-20.67-17.2-16.85-27.15
						c3.82-9.95,17.57-13.94,30.69-8.89C169.74,260.38,177.28,272.53,173.45,282.49z"/>
					<path class="st44" d="M171.4,281.36c-3.61,9.4-16.59,13.16-28.99,8.4c-12.4-4.76-19.52-16.25-15.91-25.65
						c3.61-9.4,16.59-13.16,28.99-8.4C167.88,260.48,175.01,271.96,171.4,281.36z"/>
					<path class="st45" d="M169.33,280.23c-3.4,8.85-15.61,12.39-27.28,7.9c-11.67-4.48-18.37-15.29-14.97-24.14
						c3.4-8.85,15.61-12.39,27.28-7.9C166.03,260.58,172.73,271.38,169.33,280.23z"/>
					<path class="st46" d="M167.28,279.11c-3.19,8.29-14.64,11.61-25.58,7.41c-10.94-4.2-17.22-14.33-14.04-22.63
						c3.19-8.29,14.64-11.61,25.58-7.41C164.18,260.68,170.46,270.81,167.28,279.11z"/>
					<path class="st47" d="M165.22,277.98c-2.97,7.74-13.66,10.84-23.87,6.92c-10.21-3.92-16.08-13.38-13.1-21.12
						c2.97-7.74,13.66-10.84,23.87-6.92C162.32,260.78,168.19,270.24,165.22,277.98z"/>
					<path class="st48" d="M163.16,276.85c-2.76,7.19-12.69,10.06-22.17,6.42c-9.48-3.64-14.93-12.42-12.17-19.61
						c2.76-7.19,12.69-10.06,22.17-6.42C160.47,260.88,165.92,269.66,163.16,276.85z"/>
					<path class="st49" d="M161.1,275.73c-2.55,6.64-11.71,9.29-20.46,5.93c-8.75-3.36-13.78-11.47-11.23-18.1
						c2.55-6.64,11.71-9.29,20.46-5.93C158.62,260.99,163.65,269.09,161.1,275.73z"/>
					<path class="st50" d="M159.04,274.6c-2.34,6.08-10.73,8.52-18.76,5.43c-8.02-3.08-12.63-10.51-10.29-16.59
						c2.34-6.08,10.73-8.52,18.76-5.43C156.76,261.09,161.37,268.52,159.04,274.6z"/>
					<path class="st51" d="M156.98,273.47c-2.12,5.53-9.76,7.74-17.05,4.94c-7.29-2.8-11.48-9.56-9.36-15.09
						c2.12-5.53,9.76-7.74,17.05-4.94C154.91,261.19,159.1,267.94,156.98,273.47z"/>
					<path class="st52" d="M154.92,272.35c-1.91,4.98-8.78,6.97-15.35,4.45c-6.56-2.52-10.33-8.6-8.42-13.58
						c1.91-4.98,8.78-6.97,15.35-4.45C153.06,261.29,156.83,267.37,154.92,272.35z"/>
					<path class="st53" d="M152.86,271.22c-1.7,4.42-7.81,6.19-13.64,3.95c-5.83-2.24-9.19-7.64-7.49-12.07
						c1.7-4.42,7.81-6.19,13.64-3.95C151.21,261.39,154.56,266.8,152.86,271.22z"/>
					<path class="st54" d="M150.8,270.09c-1.49,3.87-6.83,5.42-11.94,3.46c-5.11-1.96-8.04-6.69-6.55-10.56
						c1.49-3.87,6.83-5.42,11.94-3.46C149.35,261.49,152.29,266.22,150.8,270.09z"/>
					<path class="st55" d="M148.74,268.97c-1.28,3.32-5.86,4.65-10.23,2.96c-4.38-1.68-6.89-5.73-5.62-9.05
						c1.28-3.32,5.86-4.65,10.23-2.96C147.5,261.6,150.01,265.65,148.74,268.97z"/>
					<path class="st56" d="M146.68,267.84c-1.06,2.76-4.88,3.87-8.53,2.47c-3.65-1.4-5.74-4.78-4.68-7.54
						c1.06-2.76,4.88-3.87,8.53-2.47C145.65,261.7,147.74,265.07,146.68,267.84z"/>
					<path class="st57" d="M144.62,266.71c-0.85,2.21-3.9,3.1-6.82,1.98c-2.92-1.12-4.59-3.82-3.74-6.03
						c0.85-2.21,3.9-3.1,6.82-1.98C143.79,261.8,145.47,264.5,144.62,266.71z"/>
					<path class="st58" d="M142.56,265.59c-0.64,1.66-2.93,2.32-5.12,1.48c-2.19-0.84-3.44-2.87-2.81-4.53
						c0.64-1.66,2.93-2.32,5.12-1.48C141.94,261.9,143.2,263.93,142.56,265.59z"/>
					<path class="st59" d="M140.5,264.46c-0.43,1.11-1.95,1.55-3.41,0.99c-1.46-0.56-2.3-1.91-1.87-3.02
						c0.43-1.11,1.95-1.55,3.41-0.99C140.09,262,140.93,263.35,140.5,264.46z"/>
					<path class="st60" d="M138.44,263.33c-0.21,0.55-0.98,0.77-1.7,0.49c-0.73-0.28-1.15-0.96-0.94-1.51
						c0.21-0.55,0.98-0.77,1.7-0.49C138.23,262.11,138.65,262.78,138.44,263.33z"/>
				</g>
			</g>
			<path class="st61" d="M253.11,241.86c-0.94,8.87-10.99,15.94-18.85,18.5c-1.68,0.55-3.1-0.64-3.69-2.1
				c-0.33-0.81-0.52-1.63-0.66-2.46c-0.43,0.39-0.87,0.77-1.27,1.19c-1.86-3.09-4.03-5.91-5.89-7.62c-0.71-0.64-1.54-1.02-2.42-1.19
				c5.98,7.63,8.96,21.32,8.48,30.76c-0.98,19.26-3.58,3.32-17.5,6.09c-2.77,0.55-8.71-0.53-7.13-2.53c0.11-0.14,0.16-0.37,0.1-0.33
				c-0.4-3.55-1.71-5.73-3.68-7.12c0.01,0.94-0.08,1.88-0.33,2.82c-1.34,5.11-5.55,9.96-11.23,8.49c-1.45-0.38-2.63-1.5-3.94-2.16
				c-2.53-1.29-5.48-0.86-8.14-0.31c-4.37,0.9-8.58,2.2-12.84,3.52c-7.16,2.19-15.18,3.87-22.88,3.33
				c-26.75-1.89-25.94-21.58-20.69-34.93c-23.67,10.9-9.52,49.02,24.26,42.4c7.79-1.52,12.79-4.56,20.87-5.49
				c3.7-0.43,8.28-0.91,13.12-0.52c3.26,0.27,8.04,3.06,10.8,3.84c12.07,3.4,24.99-8.68,32.95-1.59c0.1,1.01,0.22,2.05,0.34,3.09
				c0.41,0.21,0.86,0.48,1.1,0.98c4.4,9.25,6.51,23.86,6.73,34.87c0.13,6.1-1.91,16.82-5.05,15.82c-0.02,0.12-0.03,0.26-0.05,0.37
				c-0.42,2.66,1.41,5.15,4.08,5.56c0.25,0.04,0.5,0.05,0.74,0.05c2.37,0,4.44-1.72,4.81-4.13c2.05-13.28-0.07-31.82-1.94-48.18
				c-0.45-3.95-0.89-7.78-1.26-11.42c-0.51-5.02-2.05-20.32,3.09-27.09c1.6-2.11,4.42-3.82,7.4-5.63
				c4.52-2.74,9.63-5.84,11.88-11.45C255.19,245.34,254.6,243.19,253.11,241.86z"/>
			<path class="st62" d="M243.59,256.4c-2.83,1.96-6.08,4.08-9.51,4.72c-3.47,0.66-5.45-1.48-5.57-4.35c-1.83-3-3.95-5.74-5.76-7.4
				c-0.3-0.26-0.62-0.47-0.95-0.65c7.45,7.4,9.64,20.48,8.28,31.36c-0.16,3.25-0.6,6.49-1.46,9.71c-0.54,2.03-2.68,2.55-4.41,1.79
				c-6.36-2.81-13.22,0.5-19.6-2.74c-1.09-0.55-1.86-2.22-1.38-3.39c0.27-0.65,1.1-3.33,1.04-3.29c-0.28-2.55-1.05-4.39-2.19-5.74
				c-0.34,8.29-5.27,17.66-14.71,14.69c-3.36-1.06-6.4-3.4-10.03-3.33c-3.87,0.07-7.66,0.63-11.42,1.57
				c-7.32,1.83-14.51,4.49-22,5.51c-11.94,1.63-22.35-1.47-28.37-12.58c-3.45-6.36-4.8-14.04-2.66-20.62
				c-11.75,14.68,2.76,42.25,31.9,36.53c7.79-1.52,12.79-4.56,20.87-5.49c3.7-0.43,8.28-0.91,13.12-0.52
				c3.26,0.27,8.04,3.06,10.8,3.84c12.07,3.4,24.99-8.68,32.95-1.59c0.03,0.25,0.05,0.52,0.09,0.77c8.77,6.39,9.18,23.64,9.87,33.4
				c0.58,8.28,0.96,18.31-2.18,26.56c0.04,0,0.07,0.01,0.1,0.01c2.37,0,4.44-1.72,4.81-4.13c2.05-13.28-0.07-31.82-1.94-48.18
				c-0.45-3.95-0.89-7.78-1.26-11.42c-0.51-5.02-2.05-20.32,3.09-27.09c1.6-2.11,4.42-3.82,7.4-5.63
				c4.52-2.74,9.63-5.84,11.88-11.45c0.46-1.14,0.43-2.35,0.05-3.42C252.92,248.89,246.71,254.24,243.59,256.4z"/>
			<path class="st63" d="M157.15,265.9c-8.07-5.37-22.13-12.93-26.07-8.63c-10.19,9.57,8.35,17.47,18.99,18.7
				c5.65,0.65,14.23,1.88,20.51-0.28C165.36,273.63,161.14,269.94,157.15,265.9z"/>
			<path class="st63" d="M220.6,257.91c1.7,2.79,3.16,4.36,3.68,7.61c0.88,5.5,2.99,12.97-1.44,17.67
				c-2.89-1.82-9.68-2.04-12.44-0.05c1.87,0.91,5.1,0.15,7.23,0.14c2.77-0.01,3.91,0.75,6.31,1.75c2.63,1.1,2.53,0.81,2.68-2.39
				c0.12-2.41,0-4.85,0-7.25c0.01-4.79-0.74-9.56-1.67-14.22c-0.51-2.5-1.14-5.33-2.63-7.47c-0.59-0.84-1.76-2.5-2.84-2.75
				C213.85,249.61,219.85,256.7,220.6,257.91z"/>
			<path class="st63" d="M243.5,253.05c1.77-1.39,7.61-7.47,6.61-9.86c-1.28-3.05-6.78,6.16-8.11,7.31
				c-2.75,2.38-9.97,3.25-10.11,7.43C235.22,258.67,241.02,255,243.5,253.05z"/>
		</g>
		<path class="st64" d="M98.95,161.25c-0.93,1.01-1.21,1.86-0.55,2.46c2.64,2.41,10.15-3.68,12.58-4.72c7.04-3,13.61-5.92,21.2-7.18
			c6.26-1.05,13.48,2.77,19.47,0.42c5.16-2.02,4.63-5.21-0.47-6.35c-4.22-0.95-8.71-1.37-13.16-1.27
			C126.42,144.91,106.87,152.66,98.95,161.25z"/>
		<path class="st64" d="M273.76,176.3c5.14-0.06,16.54-0.03,20.02-4.08c-3.02-3.6-11.86-3.19-16.39-3.63
			c-3.18-0.31-14.56-2.17-16.63,0.69C256.22,175.54,270.93,176.34,273.76,176.3z"/>
	</g>
</g>
</svg>
