<?xml version="1.0" encoding="utf-8"?>
<!-- Generator: Adobe Illustrator 24.2.3, SVG Export Plug-In . SVG Version: 6.00 Build 0)  -->
<svg version="1.1" xmlns="http://www.w3.org/2000/svg" xmlns:xlink="http://www.w3.org/1999/xlink" x="0px" y="0px"
	 viewBox="0 0 502.1 510.16" style="enable-background:new 0 0 502.1 510.16;" xml:space="preserve">
<style type="text/css">
	.st0{fill:#DB686B;}
	.st1{fill:#811B26;}
	.st2{fill:#B63039;}
	.st3{opacity:0.4;fill:#CE666B;}
	.st4{fill:#BF4248;}
	.st5{fill:#EA6C6E;}
</style>
<g id="Layer_1">
</g>
<g id="font">
	<g>
		<g>
			<g>
				<g>
					<path class="st0" d="M115.44,129.07c0,0-5.46,14.6,5.16,30.67c0,0-21.6,8.54-19.1,35.42c2.5,26.88,21.09,24.03,21.09,24.03
						s-10.43,21.68,3.93,35.74c14.36,14.05,33.1,12.22,33.1,12.22s24.99-1.85,8.92,30.97c-7.27,14.86-9.83,25.28-6.54,39.67
						c1.21,5.28,3.3,10.2,6.97,14.15c3.98,4.27,11.91,6.55,15,6.84c0,0-4.84,27.75,11.8,37.57c28.78,16.99,58.57-4.66,72.93-31.55
						c14.36-26.88,4.58-35.95,4.58-35.95s6.76,1.98,11.55,6.59c4.23,4.07,11.27,22.57,32.5,22.57c21.24,0,51.6-16.5,30.9-53.6
						c0,0,39.34,3.66,49.95-25.05c10.63-28.72-14.99-38.5-14.99-38.5s11.87-18.34,1.88-28.72c0,0,14.3-11.68,8.16-31.79
						c-4.01-13.16-10.04-12.81-10.04-12.81s9.78-12.39,6.82-31.12c-3.65-23.01-23.82-28.89-23.82-28.89s-34.21,31.9-127.88,28.85
						C144.63,133.34,115.44,129.07,115.44,129.07z"/>
					<path class="st1" d="M216.89,402.54c-7.27,0-14.37-2.02-21.2-6.05c-8.64-5.1-11.41-15.09-12.21-22.58
						c-0.79-7.43,0.15-13.93,0.32-14.99c-3.4-0.37-11.05-2.71-14.93-6.87c-3.35-3.6-5.64-8.25-7.01-14.21
						c-3.46-15.11-0.36-25.64,6.55-39.77c5.77-11.79,6.91-20.41,3.38-25.62c-3.85-5.69-12.09-5.15-12.17-5.15
						c-0.18,0.02-18.97,1.67-33.21-12.26c-7.46-7.3-8.14-16.68-7.4-23.26c0.71-6.29,2.83-11.29,3.33-12.41
						c-1.25,0.12-6.82,0.39-11.91-3.58c-5.13-4-8.19-10.94-9.08-20.6c-1.29-13.94,3.99-22.87,8.65-27.9
						c4.56-4.93,9.44-7.19,10.38-7.6c-5.42-8.28-6.52-16.14-6.49-21.29c0.04-5.62,1.4-9.32,1.41-9.36c0.02-0.06,0.09-0.09,0.15-0.09
						c0.29,0.04,30.26,4.31,122.84,7.33c48.35,1.57,80.52-6.34,98.99-13.26c20.01-7.5,28.7-15.47,28.79-15.55
						c0.04-0.03,0.09-0.05,0.14-0.03c0.05,0.01,5.13,1.53,10.59,5.84c5.04,3.98,11.44,11.23,13.33,23.16
						c2.73,17.21-5.4,29.24-6.68,31c1.27,0.1,6.35,1.26,9.9,12.91c3.18,10.44,0.78,18.56-1.79,23.54c-2.51,4.85-5.66,7.74-6.3,8.3
						c4.04,4.28,4.98,10.6,2.74,18.28c-1.53,5.25-4.1,9.53-4.61,10.36c1.03,0.43,6.78,2.99,11.38,8.46
						c8.43,10.03,6.58,21.94,3.53,30.16c-3.04,8.22-10.54,18.95-29.06,23.38c-10.04,2.41-19.12,1.9-20.77,1.78
						c7.8,14.09,8.89,26.69,3.16,36.45c-6.95,11.83-22.24,17.13-34.32,17.13c-16.9,0-24.8-11.6-29.52-18.53
						c-1.24-1.81-2.21-3.25-3.08-4.08c-3.95-3.81-9.33-5.83-10.98-6.39c0.72,0.88,2.27,3.22,2.77,7.58
						c1.08,9.34-3.59,20.46-7.69,28.14c-9.71,18.17-24.88,31.65-40.57,36.06C224.42,402.01,220.63,402.54,216.89,402.54z
						 M160.25,266.99c2.06,0,8.48,0.41,11.78,5.29c3.59,5.3,2.46,14.02-3.36,25.91c-6.89,14.07-9.97,24.55-6.53,39.58
						c1.35,5.91,3.62,10.52,6.94,14.08c3.89,4.17,11.62,6.48,14.9,6.8c0.04,0,0.08,0.02,0.1,0.06c0.02,0.03,0.03,0.07,0.03,0.11
						c-0.01,0.07-1.2,7.02-0.34,15.07c0.79,7.41,3.53,17.31,12.07,22.35c10.28,6.07,21.16,7.55,32.33,4.42
						c15.62-4.38,30.73-17.81,40.4-35.91c4.08-7.64,8.72-18.68,7.66-27.94c-0.63-5.52-3.03-7.82-3.06-7.84
						c-0.05-0.05-0.06-0.12-0.03-0.18c0.03-0.06,0.1-0.08,0.16-0.07c0.07,0.02,6.85,2.04,11.61,6.62c0.89,0.86,1.87,2.3,3.12,4.13
						c4.69,6.88,12.54,18.4,29.28,18.4c11.99,0,27.18-5.25,34.07-16.99c5.71-9.72,4.57-22.31-3.29-36.4
						c-0.03-0.05-0.02-0.1,0.01-0.15c0.03-0.04,0.08-0.07,0.13-0.06c0.1,0.01,9.94,0.88,20.96-1.76
						c10.15-2.43,23.39-8.43,28.85-23.2c3.02-8.15,4.86-19.96-3.48-29.88c-4.99-5.94-11.36-8.41-11.42-8.44
						c-0.04-0.02-0.07-0.05-0.08-0.09c-0.01-0.04-0.01-0.09,0.02-0.12c0.12-0.18,11.7-18.36,1.89-28.54
						c-0.03-0.03-0.04-0.07-0.04-0.11c0-0.04,0.02-0.08,0.05-0.1c0.14-0.12,14.15-11.85,8.12-31.64
						c-3.08-10.09-7.66-12.72-9.77-12.72c-0.04,0-0.09,0-0.13,0c-0.05,0-0.11-0.03-0.13-0.08c-0.03-0.05-0.02-0.11,0.01-0.15
						c0.1-0.12,9.71-12.56,6.79-31c-1.88-11.84-8.23-19.03-13.23-22.98c-5.05-3.99-9.77-5.56-10.42-5.77
						c-0.81,0.73-9.63,8.36-28.8,15.54c-18.5,6.93-50.71,14.86-99.12,13.29c-89.69-2.93-120.63-7.02-122.76-7.31
						c-0.46,1.36-4.8,15.34,5.18,30.43c0.02,0.04,0.03,0.08,0.02,0.12c-0.01,0.04-0.04,0.07-0.08,0.09
						c-0.05,0.02-5.44,2.19-10.44,7.61c-4.62,4.99-9.85,13.85-8.57,27.67c0.89,9.58,3.91,16.45,8.98,20.4
						c5.64,4.41,11.88,3.5,11.95,3.5c0.05-0.01,0.11,0.01,0.14,0.06c0.03,0.04,0.04,0.1,0.01,0.15c-0.03,0.05-2.61,5.49-3.41,12.56
						c-0.74,6.51-0.06,15.79,7.31,23.01c14.14,13.84,32.8,12.2,32.98,12.18C159.61,267.01,159.85,266.99,160.25,266.99z"/>
				</g>
				<path class="st2" d="M248.14,162.37c-1.83,3.05-4.87,5.68-8.25,7.88c-18.45,10.77-41.66,13.72-62.8,12.48
					c-11.19-0.66-23.24-1.9-33.3-7c-9.12-4.63-18.35-10.02-24.48-18.26c-0.06-0.08-0.24,0.08-0.19,0.16
					c5.27,8.41,14.57,13.35,23.13,18.02c0.62,0.34,1.25,0.66,1.89,0.97c-5.07,0.48-10.28,2.69-14.63,6.01
					c-5.96-0.34-10.72,1.72-15.2,5.42c-0.12,0.1-0.03,0.26,0.11,0.16c2.06-1.41,4.01-2.75,6.36-3.69c2.55-1.03,5.39-1.21,8.12-1.43
					c-7.35,5.88-11.95,14.95-8.49,23.98c0.07,0.18,0.38-0.06,0.33-0.21c-2.42-6.89,0.6-14.98,5.23-20.28
					c4.66-5.34,11.93-8.71,18.97-9.59c9.81,4.52,21.16,5.65,31.85,6.42c11.74,0.84,23.54,0.13,35.04-2.37
					c3.5-0.76,6.94-1.6,10.3-2.6c7.18-1.24,18.37,0.22,21.72,7.64c0.08,0.17,0.34-0.06,0.3-0.2c-1.04-3.79-4.84-5.54-8.23-7.09
					c-3.39-1.54-7.09-1.82-10.71-1.32c1.54-0.51,3.06-1.06,4.56-1.66c0.03,0,0.05,0.02,0.09,0c6.67-2.33,15.26-6.84,18.45-13.37
					C248.4,162.27,248.2,162.27,248.14,162.37z"/>
				<path class="st2" d="M239.86,335.66c-4.15,0.26-7.71,0.94-11.39,3.04c-2.34,1.33-4.63,2.76-6.79,4.35
					c2.95-4.52,4.64-9.78,4.41-15.22c-0.01-0.25-0.39-0.01-0.4,0.17c-0.46,20.68-24.52,33.68-43.78,30.24
					c-0.1-0.02-0.27,0.2-0.14,0.25c10.24,3.68,22.42-0.75,30.99-6.47c2.01-1.35,3.87-2.92,5.53-4.68
					c6.41-5.52,12.56-10.07,21.45-11.39C239.89,335.94,240.05,335.64,239.86,335.66z"/>
				<path class="st2" d="M336.08,294.87c-7.07-3.83-15.57-5.56-23.59-5.49c-0.09,0-0.22,0.19-0.09,0.2
					c7.22,0.29,14.24,2.04,20.77,5.05c6.39,2.95,13.61,7.5,17.02,13.77c0.06,0.12,0.27-0.05,0.22-0.16
					C347.95,302.15,341.75,297.94,336.08,294.87z"/>
				<path class="st2" d="M382.12,266.57c-10.55,13.02-34.48,17.24-48.91,8.16c6.18-4.52,11.1-10.75,14-18.9
					c0.09-0.24-0.24-0.19-0.3-0.02c-3.3,7.98-7.99,14.03-14.99,19.26c-6.36,4.74-15.92,7.28-23.75,8.13
					c-8.5,0.93-17.45,0.02-25.81-1.52c-7.62-1.41-14.81-4.92-21.87-8.01c-1.56-1.2-3.18-2.34-4.92-3.35
					c-10.13-5.87-23.03-7.92-33.64-2.21c-0.19,0.1-0.26,0.5,0.02,0.36c11.64-5.69,25.45-2.01,35.78,4.76
					c8.85,5.79,14.68,14.76,23.69,20.36c4.57,2.85,9.55,4.97,14.38,7.36c5.44,2.7,10.3,6.5,14.53,10.77
					c8.51,8.61,13.35,20.3,11.79,32.3c-0.02,0.15,0.19,0.05,0.21-0.04c1.59-6.96,0.17-14.24-2.85-20.76
					c2.92,3.06,6.82,5.05,11.28,5.05c4.26,0,12.17-2.47,13.71-6.92c0.06-0.17-0.16-0.13-0.21-0.01c-2.39,5.18-12.48,6.75-17.32,5.44
					c-3.63-0.98-6.56-3.51-8.86-6.36c-1.33-2.41-2.86-4.68-4.52-6.76c-8.02-10.02-19.56-14.16-30.33-20.49
					c-8.07-4.74-13.81-12.05-20.83-17.96c20.68,11.24,51.53,13.42,70.6-0.33c7.46,6.23,18.85,5.88,27.95,4.19
					c1.88-0.35,3.73-0.82,5.54-1.41c5.9,0.8,8.44,5.18,8.97,10.63c0.02,0.22,0.34,0.02,0.33-0.14c-0.18-5.08-2.55-10.64-8.28-10.84
					c5.9-2.09,11.24-5.54,15-10.58C382.73,266.41,382.31,266.33,382.12,266.57z"/>
				<path class="st2" d="M383.71,239.08c-6.36,8.09-18.89,12.4-26.33,3.17c-0.08-0.1-0.26,0.09-0.19,0.18
					c7.15,10.36,20.83,5.74,26.89-3.21C384.29,238.92,383.89,238.85,383.71,239.08z"/>
				<path class="st2" d="M386.4,210.49c-4.65,4.63-15.67,10.44-19.33,1.74c-0.05-0.13-0.28,0.04-0.23,0.16
					c3.54,9.38,15.26,3.97,19.78-1.76C386.76,210.45,386.54,210.35,386.4,210.49z"/>
				<path class="st2" d="M367.45,229.25c-5.33-1.28-8.54-6.52-9.1-11.64c0.34-1.41,0.59-2.85,0.77-4.28
					c0.22-1.74,0.18-3.5,0.03-5.25c-0.09-1.11-0.75-2.63-0.66-3.82c1.04-3.18,1.42-6.64,1.81-10.15c0.75-6.79,1.38-13.46-4.29-18.39
					c-0.42-0.36-0.85-0.7-1.3-1.02c0.03-0.04,0.06-0.09,0.08-0.13c0.96-3.78,1.03-7.48,0.58-11.15c0-4.39-0.7-8.7,0.04-13.08
					c0.83-4.92,4.05-8.88,8.35-11.37c0.14-0.08,0.13-0.35-0.06-0.25c-7.88,4.26-9.58,11.73-9.28,19.57
					c-0.51-2.15-1.15-4.29-1.84-6.43c-2.12-6.57-7.35-13.56-14.56-15.22c-0.13-0.03-0.31,0.2-0.17,0.24
					c7.16,1.92,11.75,9.04,13.94,15.5c2.43,7.16,3.86,14.52,2.46,22c-4.96-3.34-11.76-4.6-17.46-5.36
					c-8.58-1.14-16.68-0.08-24.36,2.44c-6.13,1.14-12.58,0.57-15.43-5.93c-0.05-0.11-0.23,0.04-0.2,0.13
					c2.04,5.8,7.27,7.35,12.65,6.86c-6.21,2.38-12.13,5.7-17.8,9.55c-0.13,0.09-0.08,0.29,0.08,0.18
					c12.47-8.05,25.39-13.22,40.57-12.63c6.66,0.25,13.58,1.76,19.53,4.73c7.82,3.89,8.39,10.89,7.65,18.65
					c-0.75,7.94-1.72,14.92-8.5,20.15c-5.34,4.12-11.93,6.89-18.31,9.08c-7,2.39-14.46,3.7-21.86,3.93
					c-7.53,0.24-14.99-2.1-22.08-4.36c0.35-4.04-0.12-8.2-1.07-12.08c-1-4.09-2.95-7.59-5.53-10.6c7.8,5.02,16.21,7.54,26.17,7.07
					c4.41-0.2,8.75-1.02,12.84-2.44c2.79-0.09,5.54,0.38,8.47,1.23c3.36,0.98,7.86,2.48,9.48,5.82c0.08,0.17,0.37-0.06,0.31-0.21
					c-1.48-4.14-6.52-5.8-10.39-6.93c-1.78-0.52-3.58-0.8-5.38-0.85c4.78-2.02,9.14-4.92,12.77-8.74c0.13-0.13-0.01-0.27-0.15-0.14
					c-4.27,4.32-9.31,7.17-14.78,8.95c-2.12,0.18-4.22,0.67-6.24,1.55c-2.94,0.52-5.97,0.8-9.04,0.87
					c-9.88,0.22-17.91-3.26-25.87-8.1c-4.21-4.15-9.64-7.29-15.23-9.71c6.01-10.43,4.3-24.65-1.52-34.87
					c-0.07-0.11-0.27,0.05-0.22,0.15c3.12,6.19,4.81,12.9,4.73,19.8c-0.09,8.07-3.04,15.24-8.59,21.13
					c-0.07,0.07-0.09,0.14-0.09,0.2c-16.11,17.36-44.23,19.49-66.61,15.49c-6.15-1.1-12.15-2.64-18.44-2.74
					c-5.91-0.1-11.96,0.77-17.66,2.22c-5.74,1.48-11.21,3.93-16.78,5.91c-2.84,1.01-5.75,1.81-8.63,2.73
					c-3.33,1.05-7.22,2.65-10.7,1.32c-0.1-0.04-0.26,0.15-0.15,0.21c4.24,2,9.15-0.34,13.32-1.51c6.44-1.81,12.61-4.45,18.91-6.67
					c7.53-2.67,16.03-3.66,24-3.26c7.1,0.36,13.99,2.59,21.03,3.45c5.24,0.63,10.72,0.93,16.24,0.79c5.27,1.4,10.06,3.81,15.49,4.83
					c5.28,1,10.85,1.46,16.23,1.32c0.27-0.01,0.54-0.03,0.81-0.04c3.7,0.26,6.91,1.21,10.15,3.45c2.36,1.64,7,5.12,6.45,8.35
					c-0.04,0.23,0.26,0.08,0.3-0.05c1.01-3.34-2.96-6.36-5.22-8.23c-2.56-2.13-5.31-3.36-8.31-3.83c6.25-0.86,12.3-3.39,15.96-8.63
					c0.12-0.17-0.11-0.22-0.21-0.09c-5.44,7.05-14.95,8.58-23.44,8.28c-4.58-0.16-9.19-0.7-13.7-1.55c-4.4-0.83-8.4-2.64-12.63-3.89
					c17.88-0.78,35.86-6.34,46.72-20.65c0.86-1.02,1.63-2.09,2.3-3.21c8.14,5.01,17.17,9.22,20.92,18.54
					c2.24,5.54,2.8,12.82,1.73,18.66c-1.21,6.63-6.66,11.84-12.07,15.53c-10.13,6.92-24.2,7.96-36.17,7.83
					c-4.73-0.05-9.43-0.47-14.12-1.05c-1.77-0.36-3.53-0.78-5.28-1.27c-4.9-1.36-9.84-2.43-14.66-4.09
					c-5.43-1.87-10.85-3.73-16.42-5.17c-8.63-2.23-18.31-4.27-27.26-3.55c-4.21,0.34-8.34,0.89-12.17,2.71
					c-3.51,1.66-6.45,4.34-9.11,7.05c-0.14,0.15,0.01,0.29,0.16,0.16c3.54-3.33,7.56-6.39,12.34-7.76c4.4-1.27,9.34-1.29,13.88-1.09
					c7.17,0.33,14.47,1.73,21.52,3.61c2.15,6.04-0.43,11-3.96,15.98c-0.26,0.29-0.53,0.59-0.83,0.88
					c-2.93,2.98-6.51,5.29-10.25,7.16c-7.45,3.74-18.32,5.8-26.53,3.62c-0.08-0.02-0.22,0.12-0.12,0.17c4,1.88,9.1,1.23,13.38,0.82
					c5.41-0.52,10.66-2.22,15.42-4.75c5.41-2.88,10.77-7.5,13.3-13.19c1.78-3.41,2.47-7.23,0.4-10.48c2.48,0.68,4.91,1.41,7.3,2.18
					c2.35,0.75,4.71,1.5,7.08,2.23c11.03,9.67,14.97,28.02,14.26,41.75c-0.42,8.19-2.44,15.11-5.8,22.59
					c-3.45,7.67-8.67,13.27-14.38,19.37c-0.12,0.13,0.01,0.26,0.14,0.14c4-3.95,7.85-7.84,10.97-12.36
					c8.35-6.16,20.31-8.3,30.47-6.57c4.92,0.84,9.28,3.1,12.88,6.24c0.75,0.87,1.51,1.75,2.28,2.6c0.74,0.84,1.51,1.64,2.29,2.4
					c1.95,2.7,3.47,5.73,4.46,8.9c3.7,11.82-4.29,23.91-12.09,32.25c-8.61,9.2-19.58,13.66-31.82,16.21
					c-0.13,0.02-0.25,0.3-0.05,0.26c12.63-2.47,23.29-6.83,32.36-16c8.28-8.37,15.21-19.99,12.88-31.98
					c-0.44-2.29-1.26-4.51-2.36-6.62c4.83,3.91,10.32,6.7,16.69,8.41c0.17,0.05,0.46-0.26,0.25-0.35c-4-1.57-7.94-3-11.66-5.15
					c-2.48-1.44-4.69-3.37-6.74-5.44c-1.67-2.54-3.78-4.82-6.17-6.77c-2.45-2.74-4.95-5.41-7.88-7.7
					c-3.48-2.72-7.05-4.11-11.15-5.69c-0.1-0.04-0.24,0.14-0.14,0.18c4.23,1.94,7.88,3.99,11.49,6.94c1.37,1.12,2.64,2.35,3.86,3.63
					c-2.43-1.4-5.04-2.45-7.73-3.02c-9.73-2.07-23.37-0.48-31.41,6.17c0.77-1.19,1.51-2.41,2.16-3.69
					c3.78-7.39,6.42-14.51,7.02-22.78c0.59-8.03-0.22-15.81-2.44-23.56c-1.98-6.89-5.37-15.07-11.19-19.92
					c0.44,0.13,0.87,0.27,1.31,0.41c3.34,0.65,6.67,1.37,9.95,2.26c6.71,1.25,13.31,2.75,20.18,3.19c1.48,0.09,2.99,0.16,4.5,0.22
					c1.7,0,3.4-0.05,5.08-0.13c9.04-0.44,18.49-1.69,26.53-5.84c0,0.01,0.01,0.02,0.01,0.03c0.08,0.19,0.36-0.05,0.35-0.21
					c0.01,0,0.01,0,0.01,0c1.08,4.02,7.82,6.14,11.28,7.25c4.75,1.53,9.91,2.51,14.87,2.89c1.62,0.12,3.27,0.15,4.95,0.08
					c6.3,0.74,14.53,3.43,16.66,9.45c0.06,0.16,0.32-0.05,0.29-0.19c-1.43-5.07-7.7-8.44-13.48-9.53c6.69-0.76,13.46-2.9,18.88-6.16
					c0.21-0.12,0.14-0.42-0.12-0.29c-7.98,4.43-17.71,6.3-26.84,5.85c-4.94-0.24-9.97-1.49-14.69-2.85
					c-4.62-1.33-7.94-3.73-11.61-6.61c1.97-1.06,3.86-2.29,5.62-3.74c3.85-3.17,7.72-7.16,9.19-12c0.47-1.53,0.77-3.11,0.95-4.7
					c7.55,2.49,15.03,4.72,23.1,4.54c7.54-0.16,15.06-1.92,22.16-4.35c6.8-2.32,13.65-5.65,19.16-10.25c2.47-2.06,4-4.48,5.02-7.13
					c0.06,1.01,0.38,2.1,0.46,3.01c0.34,4.01-0.4,8.18-1.7,11.97c-2.2,6.47-7.07,11.6-13.03,14.93c-0.12,0.07-0.11,0.29,0.05,0.21
					c5.37-2.74,9.5-6.93,12.34-12.14c0.77-1.42,1.34-2.93,1.79-4.47c0.51,5.02,3.79,10.13,9.23,10.75
					C367.4,229.61,367.64,229.3,367.45,229.25z"/>
				<path class="st2" d="M384.31,165.48c-4.93,5.75-11.83,8.77-19.53,8.56c-0.12,0-0.28,0.24-0.11,0.25
					c7.4,0.55,15.93-2.05,19.96-8.6C384.8,165.43,384.51,165.26,384.31,165.48z"/>
			</g>
			<g>
				<path class="st3" d="M383.37,241.24c0,0,11.87-18.34,1.88-28.72c0,0,14.3-11.67,8.16-31.79c-4.01-13.16-10.04-12.81-10.04-12.81
					s9.78-12.39,6.81-31.12c-3.65-23.02-23.81-28.89-23.81-28.89s-34.21,31.9-127.89,28.85c-93.67-3.06-122.86-7.33-122.86-7.33
					s-5.45,14.61,5.16,30.66c0,0-21.6,8.55-19.1,35.43c2.5,26.88,21.09,24.03,21.09,24.03s-4.61,9.6-3.47,20.17
					c1.03-9.5,12.84-21.13,33.05-26.25c20.84-5.28,39.44-0.37,62.51,3.28c23.07,3.64,28.65,21.85,11.54,24.21
					c-17.12,2.37-39.07-13.11-64-12.01c-24.93,1.09-29.02,18.92-33.11,22.02c-2.52,1.9-4.97,0.63-6.48-0.62
					c1.03,1.71,2.31,3.36,3.9,4.93c14.36,14.05,33.1,12.22,33.1,12.22s24.98-1.84,8.92,30.98c-7.27,14.86-9.82,25.28-6.54,39.67
					c1.2,5.27,3.3,10.2,6.97,14.15c3.98,4.26,11.91,6.55,15,6.84c0,0-4.84,27.75,11.79,37.56c28.78,16.99,58.57-4.66,72.93-31.55
					c14.36-26.88,4.57-35.95,4.57-35.95s6.77,1.98,11.55,6.59c4.23,4.06,11.27,22.57,32.5,22.57c21.24,0,51.6-16.5,30.91-53.6
					c0,0,39.33,3.67,49.95-25.04C408.99,251.01,383.37,241.24,383.37,241.24z M129.28,158.04c0.74-5.58,9.18-4.86,9.18-4.86
					c3.48,0,7.94,0.97,7.94,0.97c10.91,12.86,35.47,5.59,35.47,5.59c3.97,4.61,15.38,4.36,21.83,4.85c6.45,0.48,5.46,4.61,5.46,4.61
					c-3.47,7.77-19.35,8.5-19.35,8.5C143.67,181.58,128.54,163.62,129.28,158.04z M235.46,196.14c-4.47,8.01-24.81,10.43-45.89,5.09
					c-21.09-5.33-35.23-3.16-44.4-0.24c-9.18,2.91-22.08,6.56-20.09-3.16c1.98-9.7,8.93-12.62,8.93-12.62
					c5.71-2.43,6.7-3.4,21.33,0.73c14.64,4.13,34.23,2.91,49.37-0.73C219.82,181.58,239.92,188.13,235.46,196.14z M387.58,199.4
					c-1.44,5.08-5.95,12.8-11.97,13.91c-8.93,1.64-12.09-14.75-10.6-24.21c0.69-4.35,2.73-8.3,6.58-9.84
					c1.06-0.43,2.27-0.67,3.63-0.69C387.5,178.4,390.37,189.59,387.58,199.4z M358.12,152.33c2.61-13.29,12.84-13.47,12.84-13.47
					c6.14-0.55,15.07,2.55,13.95,14.01c-1.12,11.47-9.86,15.29-16.74,17.3C361.29,172.17,355.52,165.62,358.12,152.33z
					 M294.12,183.82c0,0,14.51-11.29,30.7-11.65c16.18-0.36,18.42,8.92,12.09,17.11c-6.33,8.18-21.9,19.35-39.63,12.74
					C281.66,196.2,289.66,188.01,294.12,183.82z M296.54,219.5c-4.72-4.3,1.85-10.56,23.07-12.38c14.54-1.24,15.44,7.65,15.44,7.65
					C337.1,224.05,304.91,227.14,296.54,219.5z M303.8,231.15c7.81,0.83,15.71,0.12,23.19-2.27c4.9-1.56,11.39-6.66,16.69-5.49
					c3.25,0.72,1.11,4.71,0.03,5.99c-0.62,0.73-1.27,1.44-1.96,2.13c-7.04,7.11-16.5,11.48-26.22,13.83
					c-6.76,1.64-17.4,2.78-23.81-1.46C284.26,238.97,286.68,229.33,303.8,231.15z M304.42,256.69c4.63,1,11.61,3.05,13.27,8.03
					c0.38,1.12,0.49,2.21,0.39,3.26c-0.45,4.52-4.93,8.17-9.23,9.64c-6.36,2.17-13.29,2.26-19.94,1.88
					c-11.41-0.65-24.65-4.14-31.81-13.61c-1.63-2.15-2.77-7.04-1.78-9.61c3.32-8.67,17.54-5.75,23.67-2.51
					C290.03,259.6,288.66,253.29,304.42,256.69z M248.54,208.94c9.86-2.91,15.44-13.83,15.44-13.83c2.42-4.73,9.67,2,3.53,10.19
					c-6.14,8.19-17.67,8.01-19.53,6.19C246.12,209.67,248.54,208.94,248.54,208.94z M172.82,258.27c-9.11,6.91-24,8.18-32,2.54
					c-8-5.65,3.35-16.93,3.35-16.93C163.14,228.78,181.93,251.35,172.82,258.27z M173.44,349.28c-13.58-11.59-5.7-39.56,0.5-50.72
					c3.5-6.3,6.33-13.99,5.38-21.28c-0.32-2.47-2.28-4.36-2.57-6.65c-0.28-2.15,1.87-5.06,3.36-6.55c1.29-1.29,2.81-2.18,4.46-2.73
					c5.16-1.74,11.53-0.2,15.87,2.66c6.07,3.99,8.3,10.73,8.41,17.71c0.18,11.54-3.11,22.88-7.87,33.35
					c-6.95,15.29-16.12,19.66-16.12,19.66c13.64-3.16,23.81-14.56,23.81-14.56s14.39,0.98,7.44,18.21
					C209.16,355.59,187.08,360.93,173.44,349.28z M244.04,388.66c-2.34,3.4-6.39,6.51-10.13,8.25c-14,6.51-36.53,2.8-44.92-10.88
					c-3.51-5.73-7.12-18.4,1.48-21.87c2.37-0.95,5.23-1.03,7.81-1.62c4.28-0.97,8.44-2.5,12.49-4.15
					c15.63-6.37,24.93,5.1,10.98,13.65c-12.95,7.95-20.93,6.79-22.01,6.58c17.97,3.94,28.37-2.59,40.24-6.94
					c3.66-1.34,6.52,0.82,7.43,4.21C248.61,380.35,246.57,384.99,244.04,388.66z M316.16,337.39c-2.03,3.37-5.89,5.49-9.81,3.79
					c-6.22-2.7-9.56-8.49-14.17-13c-4.42-4.32-10.59-5.93-16.27-8.05c-5.72-2.13-10.83-5.42-15.03-9.78
					c-5.22-5.42-10.83-10.36-16.08-15.74c-3.86-3.95-8.47-9.02-8.63-14.81c-0.13-4.52,3.66-7.5,8.1-7.92
					c6.79-0.64,13.45,3.55,18.04,8.04c6.15,6.01,11.17,12.39,18.57,17.09c4.67,2.95,10.58,4.97,15.33,7.79
					c5.97,3.54,10.83,8.12,15.29,13.43C315.66,323.21,320.02,331.01,316.16,337.39z M330.77,322.71
					c-15.25-2.18-19.16-18.39-15.81-25.3c3.35-6.92,14.51-2.54,14.51-2.54C350.87,304.32,346.03,324.89,330.77,322.71z
					 M378.36,267.14c-4.07,3.94-9.06,7.07-14.45,8.98c-2.88,1.02-5.91,1.66-9.04,1.8c-3.21,0.15-7.3,0.1-10.04-1.81
					c-1.89-1.31-3.25-4.65-2.34-6.91c4.57-11.37,21.15-14.58,31.89-16.16c3-0.44,7.14-1,9.56,1.23
					C388,258,380.91,264.69,378.36,267.14z"/>
				<path class="st4" d="M199.74,378.61c-0.04-0.01-0.08-0.02-0.13-0.03C199.61,378.59,199.65,378.59,199.74,378.61z"/>
			</g>
			<g>
				<path class="st5" d="M181,288.12c0,0-23.81,40.41-5.77,59.88c0,0,4.84,6.19,16.37,5.1c0,0-13.95-0.18-18.98-12.92
					C167.61,327.43,172.07,306.32,181,288.12z"/>
				<path class="st5" d="M187.89,370.03c0,0-2.98,15.11,12.28,23.66c15.26,8.55,32.19,4.37,41.12-5.28c0,0-12.09,9.83-30.51,7.64
					C192.35,393.87,187.33,374.58,187.89,370.03z"/>
				<path class="st5" d="M259.89,264.09c0,0,5.58,11.47,26.6,14.01c21.02,2.55,28.1-7.09,28.1-7.09s-11.91,9.1-28.1,5.82
					C270.31,273.56,259.89,264.09,259.89,264.09z"/>
				<path class="st5" d="M343.61,269.92c0,0-0.56,14.92,26.05,2.54C369.66,272.47,346.21,280.3,343.61,269.92z"/>
				<path class="st5" d="M288.91,239.16c0,0,3.17,7.83,22.51,5.1c19.35-2.73,26.23-11.65,26.23-11.65S311.24,252.26,288.91,239.16z"
					/>
				<path class="st5" d="M298.03,213.85c0,0-2.23,1.82,0.18,4.92c2.42,3.09,14.88,4.37,24.19,2.91
					C322.4,221.68,296.17,223.32,298.03,213.85z"/>
				<path class="st5" d="M295.05,196.92c-3.99-3.45-4.19-6.62-2.37-8.66c-0.01-0.08-0.02-0.16-0.02-0.25
					c-1.71,1.6-2.91,3.68-2.26,6.18c1.68,6.37,16.19,11.1,32.56,4.19C322.96,198.38,304.73,205.3,295.05,196.92z"/>
				<path class="st5" d="M123.82,247.35c0,0-4.47-5.58,0-13.1c4.47-7.53,13.34-15.33,28.53-19.67c17.86-5.09,49.49-0.73,64.75,4.25
					c0,0-39.44-8.62-63.38-2.91C129.77,221.62,119.36,237.88,123.82,247.35z"/>
				<path class="st5" d="M126.49,199.84c0,0,2.23-13.29,12.84-14.56c10.61-1.27,19.54,6.19,39.82,4.92
					c20.28-1.27,27.16-5.28,34.79-4.73c0,0-10.42,2.36-20.83,4.37c-10.42,2-22.7,2.37-32.75,0.36c-10.05-2-16.74-5.82-24.56-1.64
					C127.98,192.74,126.49,199.84,126.49,199.84z"/>
				<path class="st5" d="M322.27,296.13c0,0-7.94,2.91-2.48,16.26c0,0,1,2.67,5.21,6.32c0,0-6.7-1.94-8.93-11.41
					C313.84,297.83,321.28,294.67,322.27,296.13z"/>
				<path class="st5" d="M373.38,180.85c0,0-8.19,1.45-7.2,14.56c1,13.1,5.46,15.53,5.46,15.53S361.23,189.59,373.38,180.85z"/>
				<path class="st5" d="M373.63,139.83c0,0-11.66-1.21-13.89,13.59c-1.62,10.74,2.97,14.08,7.44,14.08c0,0-6.21-1.36-5.71-11.4
					C362.22,141.05,372.14,140.08,373.63,139.83z"/>
				<path class="st5" d="M240.91,275.74c0,0,9.42-4.12,18.85,5.1c9.43,9.22,11.91,15.29,23.32,20.87
					c11.41,5.58,29.52,13.1,31.76,28.15c0,0-1.24-11.17-17.86-18.93c-19.13-8.94-22.08-8.25-29.27-17.96
					C260.51,283.27,253.81,275.26,240.91,275.74z"/>
				<path class="st5" d="M131.76,161.19c0,0,13.89,21.6,67.73,13.35C199.49,174.54,154.09,181.33,131.76,161.19z"/>
				<path class="st5" d="M144.16,261.36c0,0,15.63,4.19,29.4-6.19C173.56,255.17,162.4,268.82,144.16,261.36z"/>
			</g>
		</g>
	</g>
</g>
</svg>
