<?xml version="1.0" encoding="utf-8"?>
<!-- Generator: Adobe Illustrator 24.2.3, SVG Export Plug-In . SVG Version: 6.00 Build 0)  -->
<svg version="1.1" xmlns="http://www.w3.org/2000/svg" xmlns:xlink="http://www.w3.org/1999/xlink" x="0px" y="0px"
	 viewBox="0 0 502.1 510.16" style="enable-background:new 0 0 502.1 510.16;" xml:space="preserve">
<style type="text/css">
	.st0{fill:#F7A1A1;}
	.st1{fill:#DB7057;}
	.st2{fill:#C95A4C;}
	.st3{opacity:0.4;fill:#F18A96;}
	.st4{fill:#F8C5BE;}
	.st5{fill:#CB6B7D;}
	.st6{opacity:0.5;fill:#F18A96;}
	.st7{fill:#FFFFFF;}
	.st8{opacity:0.5;}
	.st9{fill:#F18A96;}
	.st10{fill:#E87C7F;}
	.st11{fill:#CA6C60;}
	.st12{opacity:0.6;fill:#FFFFFF;}
</style>
<g id="Layer_1">
</g>
<g id="font">
	<g>
		<g>
			<path class="st0" d="M215.87,387.69c0,0-5.48,14.82,0.92,28.29c7.87,16.61,12.38,11.99,11.62,23.58
				c-0.76,11.58,1.9,19.05,3.8,24.66c1.9,5.6,15.57,5.23,17.84-0.75c2.28-5.98,3.04-17.19,1.9-22.79
				c-1.14-5.6,13.29-20.54,11.39-39.98c0,0,14.43,20.93,35.69,9.35c0,0,28.86,8.22,33.8-19.06c0,0,17.08,1.86,18.22-23.91
				c0,0,12.91-0.38,9.87-22.42c0,0,10.25-5.61,6.84-20.55c0,0,12.53-4.11,7.97-23.17c0,0,13.67-6.35,1.91-31.01
				c0,0,5.31-10.46-0.76-19.8c0,0,5.69-9.34-4.95-22.04c0,0,6.47-7.47-2.26-21.3c0,0,5.69-10.09-1.91-24.28
				c0,0,5.31-4.11,1.52-13.82c0,0,5.32-4.48,3.04-14.57c0,0,12.53-5.61,8.35-20.93c0,0,8.15-20.29-3.26-26.13
				c-7-3.59-11.95-2.61-16.09-1.62c-2.61,0.63-4.9,1.24-7.19,0.72c-5.93-1.35-12.78-7.18-21.44-4.5
				c-8.67,2.69-9.13,10.78-9.13,13.48c0,0-12.31,4.49-10.49,14.37c0,0-10.95,2.25-12.32,13.92c0,0-12.32,1.35-13.23,15.27
				c0,0-15.97,0.9-17.79,13.02c0,0-14.61-4.04-22.36,0.9c0,0-19.16-3.15-27.38,4.49c0,0-8.67-9.87-22.81-4.94
				c0,0-10.5-8.08-20.08-4.94c0,0-3.2-8.98-20.08-6.73c0,0-4.1-7.19-19.62-4.49c0,0-10.5-6.29-19.17,4.94c0,0-13.69-1.8-20.08,8.53
				c-6.39,10.33-0.91,17.51-0.91,17.51s-6.85,2.25-5.02,10.78c0,0-6.39,5.84-4.56,17.06c0,0-4.11,4.5-2.74,17.52
				c0,0-7.3,10.33-2.74,22c0,0-3.65,6.29,1.37,22.9c0,0-8.21,11.67,3.2,24.25c0,0-6.39,30.98,22.82,35.02
				c0,0,6.38,21.55,32.86,15.72c0,0,6.85,17.51,33.31,7.63c26.46-9.88,12.78-52.53-3.65-76.33c-16.42-23.8-50.65-45.36-45.63-60.62
				c5.01-15.27,29.66-16.61,39.7-15.72c10.03,0.9,115,4.49,141.92-8.53c26.92-13.02,29.04,63.76,19.46,84.41
				c-3.72,8.01-8.92,34.64-5.34,43.9c1.1,2.83-8.49,6.18-9.25,8.45c-5.37,16.09-10.25,16.74-21.75,17.7
				c-8.38,0.7-17.33-2.79-25.82-6.27c-13.23-5.43-25.36-10.86-32.58-0.47C220.89,363.44,215.87,387.69,215.87,387.69L215.87,387.69z
				"/>
			<path class="st1" d="M240.4,468.3c-0.09,0-0.18,0-0.27,0c-3.24-0.06-7.05-1.15-8.03-4.05l-0.16-0.46
				c-1.85-5.47-4.39-12.95-3.65-24.24c0.42-6.45-0.75-7.79-3.33-10.72c-2.03-2.32-4.82-5.49-8.28-12.8
				c-6.28-13.23-1.08-27.95-0.93-28.37c0.12-0.56,5.24-24.57,16.91-41.34c7.04-10.13,18.9-5.26,31.45-0.1l1.27,0.52
				c9.32,3.83,17.68,6.94,25.77,6.26c11.14-0.93,16.23-1.36,21.66-17.62c0.33-0.99,2.21-2.14,4.2-3.36
				c2.65-1.62,5.65-3.46,5.05-5.02c-3.54-9.16,1.54-35.79,5.35-43.99c3.77-8.12,5.79-25.1,5.04-42.26
				c-0.85-19.41-4.91-34.05-11.13-40.17c-3.72-3.66-8.16-4.28-13.21-1.83c-14.17,6.85-49.88,8.95-77.34,9.5
				c-30.83,0.62-59.69-0.51-64.64-0.95c-5.4-0.48-13.94-0.26-21.7,1.79c-9.7,2.57-15.71,7.23-17.89,13.85
				c-3.1,9.41,8.7,21.1,22.37,34.64c8.37,8.29,17.02,16.86,23.25,25.88c12.51,18.12,22.39,45.32,17.06,62.25
				c-2.18,6.93-6.71,11.73-13.47,14.25c-7.57,2.82-18.34,5.09-26.68-0.12c-4.6-2.88-6.46-6.84-6.74-7.48
				c-7.57,1.65-18.25,1.98-26.37-5.72c-4.57-4.34-6.3-9.38-6.51-10.03c-8.26-1.16-14.45-4.59-18.41-10.19
				c-7.09-10.04-4.63-23.89-4.44-24.89c-5.89-6.51-6.44-12.78-5.87-16.89c0.58-4.16,2.41-7.02,2.67-7.41
				c-4.72-15.67-1.69-22.26-1.37-22.89c-4.36-11.24,2.28-21.34,2.75-22.02c-1.28-12.23,2.33-17.03,2.74-17.52
				c-1.42-8.83,2.33-14.99,4.56-17.06c-1.39-6.65,2.55-9.93,4.96-10.8c-0.32-0.46-1.39-2.18-1.87-4.8
				c-0.52-2.84-0.45-7.34,2.87-12.71c6.13-9.9,19.08-8.7,20.12-8.59c8.37-10.77,18.54-5.33,19.24-4.94
				c8.02-1.39,12.94-0.08,15.66,1.25c2.68,1.32,3.78,2.89,4,3.24c8.71-1.14,13.71,0.76,16.38,2.55c2.59,1.75,3.52,3.69,3.71,4.16
				c9.17-2.93,19.24,4.36,20.04,4.95c13.31-4.61,21.89,3.95,22.8,4.9c8.02-7.31,26.33-4.61,27.35-4.45
				c7.34-4.64,20.86-1.29,22.29-0.92c1.83-11.46,16.42-12.88,17.78-12.99c0.92-13.14,12.12-15.1,13.24-15.26
				c1.33-10.92,11.15-13.62,12.29-13.9c-1.64-9.38,9.49-13.96,10.51-14.36c0.02-4.02,1.25-11.03,9.21-13.51
				c6.07-1.88,11.25,0.39,15.82,2.39c2,0.87,3.89,1.7,5.68,2.11c2.14,0.48,4.26-0.03,6.71-0.62l0.43-0.1
				c4.67-1.11,9.42-1.82,16.16,1.63c4.71,2.41,6.77,7.72,5.97,15.37c-0.58,5.5-2.46,10.4-2.64,10.87
				c2.15,7.94-0.25,13.23-2.64,16.27c-2.36,3-5.18,4.46-5.7,4.71c2.08,9.39-2.45,13.99-3.04,14.54c2.94,7.6,0.35,12.32-1.5,13.82
				c3.9,7.32,4.2,13.53,3.77,17.45c-0.43,3.91-1.66,6.39-1.88,6.8c8.16,12.97,2.91,20.47,2.28,21.3c10.04,12.04,5.4,21.2,4.94,22.04
				c5.77,8.94,1.14,19,0.75,19.81c4.68,9.82,5.93,17.92,3.72,24.07c-1.72,4.78-5.05,6.69-5.62,6.99c2.33,9.83,0.03,15.62-2.32,18.74
				c-2.3,3.06-5.1,4.23-5.65,4.44c3.19,14.14-5.96,20.01-6.85,20.54c1.17,8.58,0.09,14.9-3.2,18.8c-2.7,3.19-6.05,3.61-6.68,3.66
				c-0.43,9.41-3.02,16.21-7.69,20.21c-4.6,3.94-9.75,3.77-10.55,3.71c-1.41,7.66-4.84,13.23-10.22,16.58
				c-9.75,6.07-22.79,2.71-23.66,2.48c-11.01,5.98-20.16,3.11-25.89-0.35c-5.31-3.21-8.75-7.5-9.66-8.72
				c1.05,12.14-4.15,22.4-7.96,29.9c-2.16,4.26-3.87,7.63-3.46,9.65c1.09,5.39,0.5,16.55-1.91,22.86
				C248.89,466.82,244.27,468.3,240.4,468.3z M243.97,340.6c-4.8,0-8.38,1.89-11.13,5.85c-11.72,16.85-16.82,41.02-16.87,41.27
				l0,0.02c-0.05,0.15-5.39,14.93,0.91,28.2c3.45,7.28,6.22,10.44,8.25,12.75c2.54,2.89,3.81,4.34,3.38,10.89
				c-0.74,11.24,1.79,18.7,3.64,24.15l0.16,0.46c0.95,2.79,4.66,3.84,7.82,3.9c0.09,0,0.18,0,0.26,0c3.79,0,8.32-1.44,9.54-4.65
				c2.35-6.17,2.96-17.48,1.9-22.73c-0.42-2.1,1.3-5.5,3.48-9.8c3.84-7.57,9.1-17.93,7.9-30.19l-0.04-0.44l0.25,0.36
				c0.04,0.05,3.67,5.26,9.84,8.99c5.69,3.43,14.77,6.28,25.7,0.32l0.04-0.02l0.04,0.01c0.13,0.04,13.57,3.76,23.52-2.44
				c5.34-3.33,8.75-8.89,10.13-16.53l0.02-0.1l0.11,0.01c0.06,0,5.59,0.55,10.48-3.65c4.64-3.98,7.2-10.76,7.61-20.15l0-0.11l0.11,0
				c0.04,0,3.72-0.15,6.62-3.59c3.26-3.86,4.32-10.15,3.14-18.7l-0.01-0.08l0.07-0.04c0.1-0.06,10.14-5.74,6.78-20.43l-0.02-0.1
				l0.1-0.03c0.03-0.01,3.14-1.06,5.65-4.41c2.32-3.09,4.59-8.83,2.25-18.62l-0.02-0.09l0.08-0.04c0.04-0.02,3.75-1.79,5.59-6.91
				c2.19-6.1,0.94-14.16-3.73-23.94l-0.02-0.05l0.03-0.05c0.05-0.1,5.21-10.51-0.75-19.69l-0.04-0.06l0.04-0.06
				c0.06-0.09,5.52-9.42-4.94-21.91l-0.06-0.07l0.06-0.07c0.02-0.02,1.61-1.9,2.12-5.42c0.47-3.26,0.1-8.64-4.39-15.74l-0.04-0.06
				l0.03-0.06c0.01-0.03,1.42-2.56,1.88-6.79c0.43-3.9,0.12-10.08-3.79-17.39l-0.04-0.09l0.08-0.06c0.05-0.04,5.2-4.18,1.48-13.69
				l-0.03-0.08l0.06-0.05c0.05-0.04,5.24-4.56,3-14.46l-0.02-0.09l0.08-0.04c0.03-0.01,3.14-1.43,5.71-4.69
				c2.36-3.01,4.73-8.24,2.58-16.1l-0.01-0.04l0.01-0.04c0.08-0.2,7.98-20.26-3.2-25.98c-6.68-3.42-11.38-2.71-16.01-1.62l-0.43,0.1
				c-2.48,0.6-4.63,1.11-6.82,0.62c-1.82-0.41-3.71-1.24-5.72-2.12c-4.54-1.98-9.68-4.23-15.66-2.38
				c-7.87,2.45-9.05,9.43-9.05,13.37v0.08l-0.07,0.03c-0.12,0.04-12.2,4.57-10.42,14.24l0.02,0.11l-0.11,0.02
				c-0.11,0.02-10.89,2.37-12.23,13.82l-0.01,0.09l-0.09,0.01c-0.12,0.01-12.24,1.5-13.13,15.16l-0.01,0.1l-0.1,0.01
				c-0.16,0.01-15.9,1.03-17.69,12.93l-0.02,0.13l-0.12-0.03c-0.15-0.04-14.65-3.97-22.27,0.88l-0.04,0.02l-0.04-0.01
				c-0.19-0.03-19.2-3.05-27.28,4.46l-0.09,0.08l-0.08-0.09c-0.09-0.1-8.79-9.75-22.69-4.9l-0.06,0.02l-0.05-0.04
				c-0.1-0.08-10.56-8.01-19.98-4.92l-0.11,0.03l-0.04-0.1c-0.01-0.02-0.83-2.24-3.68-4.16c-2.64-1.77-7.6-3.65-16.28-2.5
				l-0.08,0.01l-0.04-0.07c-0.01-0.02-1.05-1.79-3.96-3.22c-2.69-1.32-7.57-2.6-15.54-1.22l-0.04,0.01l-0.04-0.02
				c-0.03-0.02-2.65-1.56-6.29-1.72c-3.36-0.15-8.28,0.88-12.73,6.64l-0.04,0.05l-0.06-0.01c-0.14-0.02-13.69-1.67-19.96,8.48
				c-3.28,5.3-3.35,9.74-2.84,12.54c0.56,3.03,1.91,4.83,1.92,4.85l0.1,0.13l-0.15,0.05c-2.33,0.77-6.37,3.99-4.94,10.65l0.01,0.06
				l-0.05,0.04c-2.19,2.01-5.96,8.13-4.53,16.95l0.01,0.05l-0.04,0.04c-0.04,0.04-4.06,4.62-2.71,17.43l0,0.04l-0.02,0.03
				c-0.07,0.1-7.21,10.41-2.73,21.89l0.02,0.05l-0.03,0.05c-0.04,0.06-3.56,6.45,1.38,22.81l0.02,0.05l-0.03,0.05
				c-0.02,0.03-2.05,2.95-2.66,7.37c-0.57,4.07-0.01,10.28,5.85,16.74l0.04,0.04l-0.01,0.06c-0.03,0.14-2.88,14.49,4.39,24.78
				c3.94,5.57,10.1,8.97,18.33,10.11l0.07,0.01l0.02,0.07c0.02,0.05,1.65,5.42,6.48,10c8.07,7.66,18.73,7.29,26.25,5.64l0.09-0.02
				l0.04,0.09c0.02,0.04,1.76,4.39,6.7,7.47c8.26,5.16,18.95,2.9,26.47,0.1c6.69-2.5,11.17-7.24,13.33-14.1
				c5.3-16.86-4.56-43.98-17.03-62.06c-6.22-9.01-14.86-17.57-23.22-25.85c-13.72-13.59-25.56-25.32-22.42-34.87
				c2.2-6.69,8.27-11.4,18.04-13.99c7.78-2.06,16.35-2.28,21.77-1.8c4.95,0.44,33.79,1.57,64.61,0.95
				c27.44-0.55,63.11-2.64,77.24-9.48c5.14-2.49,9.68-1.86,13.47,1.88c6.26,6.16,10.34,20.86,11.2,40.32
				c0.76,17.19-1.28,34.22-5.06,42.37c-3.8,8.18-8.86,34.7-5.34,43.82c0.67,1.73-2.28,3.54-5.14,5.29c-1.95,1.2-3.8,2.33-4.1,3.24
				c-5.47,16.4-10.61,16.83-21.85,17.77c-8.13,0.68-16.53-2.44-25.87-6.28l-1.27-0.52c-6.39-2.63-12.43-5.11-17.78-5.7
				C245.46,340.64,244.7,340.6,243.97,340.6z"/>
		</g>
		<g>
			<path class="st2" d="M253.86,423.29c-3.46,2.21-7.38,3.69-12.09,4.21c-4.36,0.48-8.79-0.03-12.93-1.42
				c-1.21-0.41-2.34-0.96-3.4-1.62c-1.08-0.39-2.08-0.88-3.04-1.45c1.69,1.61,3.62,2.95,5.88,3.88c4.17,1.72,8.88,1.85,13.32,1.51
				c6.28-0.47,11.84-3.29,16.37-7.32C256.64,421.9,255.26,422.63,253.86,423.29z"/>
			<path class="st2" d="M287.96,364.9c-0.45,2.76-1.65,4.75-3.71,6.65c-1.9,1.74-4.14,3.51-6.77,3.91c-0.2,0.03-0.3,0.32-0.16,0.37
				c-0.02,0.05-0.03,0.11-0.01,0.17c3.45,7.72-1.34,16.04-7.72,20.75c-3.41,2.52-7.7,3.49-11.83,4.11
				c-5.05,0.77-8.98-0.12-13.61-2.01c-0.09-0.04-0.23,0.13-0.13,0.18c1.93,0.9,3.92,1.95,6.02,2.42c2.55,0.56,5.02,0.37,7.59,0.06
				c4.68-0.57,9.11-1.97,12.9-4.77c6.14-4.55,10.96-13.59,7.31-20.88c2.61-0.07,4.96-2.36,6.78-3.94c2.12-1.82,3.82-4.3,3.75-7.14
				C288.36,364.51,287.98,364.75,287.96,364.9z"/>
			<path class="st2" d="M302.82,364.19c-0.1-0.07-0.29,0.1-0.2,0.19c4.44,3.91,3.24,13.15-0.16,17.3c-0.07,0.09,0.04,0.13,0.11,0.07
				C306.61,377.77,307.92,367.88,302.82,364.19z"/>
			<path class="st2" d="M302.12,381.97c-0.1-0.04-0.28,0.13-0.19,0.22c3.25,2.99,4.07,7.04,4.13,11.28
				c0.07,5.31-3.14,12.03-6.94,15.78c-0.13,0.13,0,0.25,0.14,0.14c1.88-1.56,3.16-3.92,4.33-6c1.62-2.9,2.7-5.88,3.06-9.17
				C307.06,390.5,306.24,383.6,302.12,381.97z"/>
			<path class="st2" d="M331.89,376.56c-1.64-5.11-4.76-8.34-10-9.78c-0.11-0.03-0.27,0.17-0.15,0.21c5.11,1.77,7.8,5.01,9.56,9.97
				c1.71,4.81,2.5,10.36,1.32,15.36c-0.04,0.16,0.2,0.05,0.23-0.05C334.48,387.15,333.5,381.56,331.89,376.56z"/>
			<path class="st2" d="M344.41,351.79c-3.76-2.34-8.07-3.51-11.87-1.43c-0.37-7.84-8.01-14.8-16.11-13.74
				c-0.13,0.02-0.25,0.28-0.05,0.26c8.39-0.78,14.59,6.23,15.64,13.8c-0.35,0.22-0.69,0.46-1.02,0.73c-0.11,0.09-0.03,0.25,0.1,0.16
				c0.32-0.22,0.64-0.42,0.96-0.6c0.04,0.32,0.07,0.64,0.09,0.97c0.02,0.25,0.37,0,0.38-0.17c0.02-0.35,0.02-0.7,0.02-1.05
				c4.35-2.08,8.93-0.21,12.74,2.59c4.3,3.15,5.43,7.74,5.75,12.74c0.01,0.13,0.18,0,0.19-0.08
				C351.43,360.09,349.67,355.06,344.41,351.79z"/>
			<path class="st2" d="M353.11,333.1c-3.62-2.58-7.12-2.58-10.86-1.15c-1.14-6.58-8.84-10.33-15.23-6.93
				c-0.1,0.05-0.14,0.26,0.01,0.19c3.59-1.66,8.21-1.14,11.3,1.32c1.8,1.43,2.76,3.52,3.26,5.68c-0.16,0.07-0.33,0.14-0.5,0.22
				c-0.11,0.05-0.15,0.26,0.01,0.19c0.18-0.07,0.36-0.14,0.54-0.21c0.15,0.71,0.26,1.43,0.33,2.12c0.03,0.26,0.38,0,0.4-0.17
				c0.05-0.76,0.02-1.49-0.08-2.2c1.65-0.6,3.09-0.94,5.08-0.72c2.5,0.28,4.84,1.89,6.72,3.38c3.38,2.68,5.77,6.69,7.15,10.68
				c0.04,0.13,0.28-0.04,0.25-0.14C360.31,340.29,357.42,336.16,353.11,333.1z"/>
			<path class="st2" d="M361.77,313.97c-1.48-1.3-3.25-2.2-5.18-2.65c-2.02-0.47-3.58,0.2-5.54,0.42c-0.06,0.01-0.15,0.16-0.05,0.16
				c1.47-0.07,2.74-0.43,4.28-0.37c2.59,0.11,4.91,1.89,6.74,3.49c2.79,2.43,4.56,5.86,5.76,9.26c0.03,0.08,0.18-0.03,0.15-0.1
				C366.76,320.14,365,316.81,361.77,313.97z"/>
			<path class="st2" d="M376.15,302.01c-1.2-4.41-4.93-7.74-9.18-9.39c-3.08-1.19-8.42-1.7-11.06,0.68
				c-0.06,0.06-0.02,0.14,0.07,0.09c3.31-2.21,8.86-1.13,12.21,0.47c3.59,1.71,6.07,4.86,7.7,8.33
				C375.96,302.35,376.18,302.14,376.15,302.01z"/>
			<path class="st2" d="M377.98,268.85c-1.59,1.97-2.83,3.96-4.88,5.56c-1.97,1.54-4.03,2.79-6.41,3.63
				c-2.7,0.97-9.87,1.98-11.63-1.24c-0.06-0.12-0.26,0.04-0.21,0.14c1.56,3.5,7.96,2.7,10.9,1.99c5.65-1.39,9.2-5.68,12.43-10
				C378.31,268.77,378.08,268.73,377.98,268.85z"/>
			<path class="st2" d="M377.14,249.35c-2.17,4.76-5.79,8.47-9.99,11.63c-3.06,2.3-10.04,4.82-12.99,1
				c-0.06-0.08-0.24,0.08-0.19,0.16c2.25,3.36,8,2.38,11.05,0.71c5.16-2.82,10.58-7.87,12.43-13.48
				C377.54,249.11,377.22,249.18,377.14,249.35z"/>
			<path class="st2" d="M372.17,227.47c-2.92,4.26-6.46,7.49-10.9,10.22c-3.1,1.91-8.79,2.96-11.03-0.62
				c-0.06-0.09-0.23,0.04-0.18,0.13c1.87,3.66,6.52,2.93,9.79,1.7c5.22-1.96,9.75-6.75,12.54-11.35
				C372.5,227.37,372.27,227.31,372.17,227.47z"/>
			<path class="st2" d="M370.11,205.71c-2.46,3.67-6.17,5.85-10.29,7.39c-2.16,0.81-4.42,1.07-6.71,0.86
				c-2.46-0.22-4.13-1.83-5.75-3.47c-0.07-0.07-0.21,0.08-0.15,0.14c3.18,3.63,6.82,4.84,11.64,3.3c4.48-1.43,9.2-3.93,11.47-8.18
				C370.43,205.6,370.19,205.6,370.11,205.71z"/>
			<path class="st2" d="M368.24,182.12c-3.05,3.88-6.32,6.87-10.75,9.18c-3.97,2.07-9.18,3.76-12.96,0.51
				c-0.09-0.08-0.26,0.09-0.18,0.17c3.36,3.24,7.86,2.18,11.77,0.51c5.01-2.13,9.51-5.66,12.33-10.27
				C368.57,182.02,368.35,181.99,368.24,182.12z"/>
			<path class="st2" d="M369.68,168.03c-3.62,2.71-7.58,4.29-12.03,5.25c-3.93,0.85-9.94,1.2-12.55-2.44
				c-0.05-0.07-0.2,0.06-0.15,0.12c2.18,3.52,6.66,3.52,10.43,3.2c5.33-0.46,10.23-2.75,14.39-5.95
				C369.88,168.12,369.83,167.92,369.68,168.03z"/>
			<path class="st2" d="M373.85,153.25c-3.25,1.14-6.46,1.23-9.86,0.8c-2.67-0.34-7.04-1.78-8.43-4.19
				c-0.07-0.11-0.26,0.04-0.21,0.14c1.19,2.52,4.79,3.98,7.42,4.47c3.78,0.72,7.63,0.78,11.09-0.94
				C374.01,153.46,374.08,153.18,373.85,153.25z"/>
			<path class="st2" d="M117.45,187.24c-6.72,3.2-14.38,4.07-20.39-0.89c-0.06-0.05-0.18,0.06-0.13,0.12
				c5.12,5.86,14.38,4.46,20.57,1.01C117.64,187.41,117.64,187.15,117.45,187.24z"/>
			<path class="st2" d="M129.45,207.5c-5.69,2.03-15.98,1.03-16.71-6.61c-0.01-0.14-0.21,0-0.21,0.09
				c-0.06,1.02,0.08,1.94,0.38,2.75c-6.62,3.41-17.14-0.27-20.53-6.72c-0.06-0.12-0.25,0.04-0.21,0.14
				c1.27,3.98,5.57,6.02,9.28,7.43c3.67,1.39,8.2,1.56,11.57-0.6c2.25,5.36,11.68,6.07,16.46,3.87
				C129.67,207.76,129.75,207.4,129.45,207.5z"/>
			<path class="st2" d="M125.26,225.03c-4.82,3.04-10.71,3.19-14.93-0.4c0-0.04-0.03-0.08-0.08-0.08c-0.48-0.41-0.93-0.85-1.36-1.36
				c-0.06-0.07-0.22,0.07-0.17,0.14c0.32,0.5,0.69,0.94,1.07,1.37c-4.64,1.56-9.13,0.83-13.37-1.57c-4.01-2.27-6.52-5.42-8.77-9.26
				c-0.06-0.1-0.21,0.03-0.18,0.12c3.27,7.98,13.74,15.05,22.55,10.95c3.99,4.05,10.83,3.96,15.4,0.42
				C125.62,225.19,125.56,224.84,125.26,225.03z"/>
			<path class="st2" d="M127.61,241.57c-3.15,2.73-6.63,4.26-10.91,3.86c-2.41-0.23-5.45-1.83-7.16-3.91
				c0.29-0.2,0.57-0.4,0.84-0.63c0.16-0.13,0.04-0.35-0.16-0.22c-0.3,0.2-0.61,0.39-0.92,0.56c-0.4-0.53-0.7-1.09-0.89-1.66
				c-0.03-0.11-0.22,0.03-0.2,0.11c0.12,0.63,0.35,1.23,0.66,1.77c-4.54,2.37-9.72,2-14.5,0.04c-5.06-2.07-7.57-6.14-9.6-10.86
				c-0.04-0.09-0.17,0.03-0.16,0.11c1.39,5.88,5.36,9.87,11.08,11.94c4.27,1.53,9.47,1.49,13.38-0.88c1.54,2.35,4.64,3.81,7.32,4.29
				c4.29,0.77,8.42-1.55,11.38-4.34C127.95,241.58,127.78,241.42,127.61,241.57z"/>
			<path class="st2" d="M132.1,256.07c-3.46,3.2-7.37,5.44-12.25,5.51c-2.8,0.04-6.63-1.39-8.72-3.69c0.05-0.05,0.1-0.1,0.15-0.15
				c0.18-0.2-0.02-0.4-0.21-0.21c-0.05,0.05-0.1,0.08-0.14,0.13c-0.44-0.54-0.8-1.11-1.02-1.73c-0.05-0.13-0.24,0.04-0.22,0.14
				c0.17,0.71,0.47,1.35,0.86,1.92c-4.86,4.3-10.9,4.7-17.06,2.89c-4.6-1.35-10.1-3.98-12.16-8.49c-0.03-0.08-0.16,0.03-0.14,0.09
				c1.7,5.42,8.66,8.34,13.85,9.49c5.74,1.27,11.5,0.44,15.71-3.69c1.93,2.54,5.81,3.78,8.82,3.95c4.86,0.27,9.67-2.47,12.78-5.91
				C132.55,256.08,132.33,255.85,132.1,256.07z"/>
			<path class="st2" d="M133.05,263.63c-1.17,4.05-4.86,8.33-8.78,10.1c-2.26,1.01-5.26,1.62-7.89,1.16
				c0.09-0.12,0.18-0.22,0.26-0.34c0.2-0.28-0.16-0.33-0.33-0.13c-0.11,0.13-0.23,0.26-0.35,0.39c-1-0.22-1.93-0.61-2.73-1.2
				c-0.11-0.08-0.3,0.1-0.21,0.21c0.65,0.78,1.48,1.27,2.41,1.58c-8.09,8.4-24.14,8.88-32.24,0.18c-0.05-0.06-0.19,0.06-0.15,0.12
				c3.54,5.36,11.79,7.22,18.02,6.69c5.57-0.47,11.22-2.56,14.82-6.86c2.98,0.74,6.81-0.41,9.27-1.53
				c3.59-1.64,7.45-6.63,8.21-10.41C133.41,263.34,133.09,263.49,133.05,263.63z"/>
			<path class="st2" d="M137.51,277.68c-0.01-0.23-0.33,0-0.35,0.14c-0.27,4.38-1.55,8.22-4.49,11.62c-1.92,2.22-5.4,4.17-8.72,4.47
				c0.07-0.15,0.14-0.3,0.2-0.45c0.13-0.33-0.29-0.22-0.4-0.03c-0.1,0.17-0.2,0.35-0.3,0.52c-1.1,0.04-2.18-0.11-3.17-0.5
				c-0.09-0.04-0.24,0.13-0.13,0.19c0.92,0.56,1.94,0.81,2.99,0.86c-1.67,2.82-3.5,5.15-6.41,7.04c-3.67,2.38-8.01,3.31-12.34,3.58
				c-7.12,0.44-14.36-1.1-19.53-6.15c-0.05-0.05-0.17,0.06-0.12,0.12c5.27,6.62,14.62,7.32,22.55,6.39
				c6.9-0.81,13.4-4.82,16.4-10.98c3.21-0.08,6.65-2.06,8.75-4.06C135.78,287.25,137.73,282.21,137.51,277.68z"/>
			<path class="st2" d="M159.84,297.89c-0.01-0.23-0.33,0-0.34,0.15c-0.69,10.01-12.57,16.71-22.26,14.63
				c-0.1-0.52-0.27-1-0.51-1.44c-0.11-0.19-0.4,0.07-0.35,0.24c2.05,6.85-3.79,13.79-8.87,17.73c-2.48,1.93-5.27,3.41-8.19,4.59
				c-3.52,1.41-7.74,2.77-11.56,2.3c-0.08-0.01-0.21,0.16-0.11,0.18c3.67,0.84,7.34-0.46,10.81-1.61c3.64-1.2,7.15-3.21,10.1-5.62
				c3.11-2.55,5.51-5.44,7.29-9.02c0.91-1.84,1.75-4.58,1.47-6.88c1.67,0.84,4.23,0.37,5.92,0.19c3.05-0.33,5.87-1.33,8.5-2.83
				C156.24,307.95,160.12,303.18,159.84,297.89z"/>
			<path class="st2" d="M172.8,307.98c-0.09-0.14-0.34,0.06-0.28,0.19c2.25,4.5,0.59,9.79-2.23,13.71
				c-3.27,4.54-8.37,5.46-13.57,4.78c-0.27-1.36-0.69-2.67-1.32-3.87c-0.09-0.17-0.37,0.06-0.31,0.21c0.42,1.21,0.72,2.39,0.92,3.56
				c-0.01,0-0.02,0-0.03,0c-0.08-0.01-0.22,0.16-0.11,0.19c0.06,0.03,0.12,0.04,0.18,0.06c0.74,4.72-0.27,9.2-2.28,13.88
				c-1.05,2.43-2.84,4.39-4.71,6.25c-1.95,1.95-4.86,4.85-7.76,5.32c-0.08,0.01-0.2,0.21-0.07,0.2c2.03-0.1,4.03-1.57,5.55-2.8
				c2.57-2.1,4.98-4.51,6.76-7.3c2.72-4.24,4.15-10.14,3.25-15.32c5.11,1.45,9.88-0.28,13.47-4.2
				C173.76,319.01,175.51,312.57,172.8,307.98z"/>
		</g>
		<path class="st3" d="M376.88,250.13c0,0,5.69-9.34-4.95-22.04c0,0,6.47-7.47-2.26-21.3c0,0,5.69-10.09-1.91-24.28
			c0,0,5.31-4.11,1.52-13.82c0,0,1.61-1.36,2.68-4.25c-4.04,3.88-13.37,6.46-17.18,5.09c-3.99-1.45,3.1-9.67,10.48-11.99
			c4.79-1.5,6.78-0.63,7.59,0.05c-0.07-1.07-0.24-2.22-0.52-3.46c0,0,1.83-0.82,3.85-2.69c-3.53,1.27-6.72,0.99-7.38-1.69
			c-0.89-3.61,4.57-10.54,8.56-11.26c3.35-0.61,3.98,1.53,4.1,2.24c0.18-2.19-0.01-4.69-0.78-7.52c0,0,8.15-20.29-3.26-26.13
			c-7-3.59-11.95-2.61-16.09-1.62c-2.61,0.63-4.9,1.24-7.19,0.72c-5.93-1.35-12.78-7.18-21.44-4.5c-8.67,2.69-9.13,10.78-9.13,13.48
			c0,0-12.31,4.49-10.49,14.37c0,0-10.95,2.25-12.32,13.92c0,0-12.32,1.35-13.23,15.27c0,0-15.97,0.9-17.79,13.02
			c0,0-14.61-4.04-22.36,0.9c0,0-19.16-3.15-27.38,4.49c0,0-8.67-9.87-22.81-4.94c0,0-10.5-8.08-20.08-4.94c0,0-3.2-8.98-20.08-6.73
			c0,0-4.1-7.19-19.62-4.49c0,0-10.5-6.29-19.17,4.94c0,0-10.08-1.32-16.98,4.84c1.55-0.39,3.4-0.47,5.61,0.03
			c8.46,1.92,4.33,24.25-6.3,22.71c0,0,0.2,1.73,4.53,3.08c4.33,1.35,0.39,14.25-7.67,10.78c0,0,6.89,6.73,3.74,14.05
			c-3.15,7.32-9.45,4.04-10.82,1.73c0,0,0,3.08,3.54,6.54c3.54,3.46,7.08,10.98,3.35,13.86c-3.74,2.89-8.07-0.38-10.82-4.42
			c0,0-0.39,5.2,5.31,10.01c5.71,4.81,7.48,11.74,1.97,13.67c-4.3,1.5-10.4-3.21-12.96-10.4c0.11,2.2,0.54,4.52,1.47,6.9
			c0,0-3.65,6.29,1.37,22.9c0,0-8.21,11.67,3.2,24.25c0,0-6.39,30.98,22.82,35.02c0,0,6.38,21.55,32.86,15.72
			c0,0,6.85,17.51,33.31,7.63c26.46-9.88,12.78-52.53-3.65-76.33c-16.42-23.8-50.65-45.36-45.63-60.62
			c5.01-15.27,29.66-16.61,39.7-15.72c10.03,0.9,115,4.49,141.92-8.53c26.92-13.02,29.04,63.76,19.46,84.41
			c-3.72,8.01-8.92,34.64-5.34,43.9c1.1,2.83-8.49,6.18-9.25,8.45c-5.37,16.09-10.25,16.74-21.75,17.7
			c-8.38,0.7-17.33-2.79-25.82-6.27c-13.23-5.43-25.36-10.86-32.58-0.47c-11.87,17.06-16.89,41.31-16.89,41.31
			s-5.48,14.82,0.92,28.29c6.02,12.7,10.07,13,11.3,17.6c0.01-0.61-0.06-1.15-0.23-1.53c-0.98-2.12,5.9,1.93,11.61,0
			c5.71-1.92,4.33,1.15,2.56,6.93c-1.64,5.34,2.77,19.56,0.03,29.13c3.57-0.37,6.96-1.92,7.99-4.64c2.28-5.98,3.04-17.19,1.9-22.79
			c-1.14-5.6,13.29-20.54,11.39-39.98c0,0,14.43,20.93,35.69,9.35c0,0,28.86,8.22,33.8-19.06c0,0,17.08,1.86,18.22-23.91
			c0,0,12.91-0.38,9.87-22.42c0,0,10.25-5.61,6.84-20.55c0,0,12.53-4.11,7.97-23.17c0,0,13.67-6.35,1.91-31.01
			C377.64,269.93,382.95,259.47,376.88,250.13z M154.35,312.48c0.86-1.14,2.01-1.95,2.94-3.01c1.01-1.15,1.8-2.42,2.43-3.77
			c0.18-1.42,0.6-3.19,1.98-3.78c1.65-0.7,3.3,1.53,3.83,2.75c1.51,3.44,1.08,8.01-1.15,11.09c-2.06,2.86-5.51,4.14-8.54,1.67
			C154.32,316.18,152.92,314.38,154.35,312.48z M150.63,351.08c1.05-1.27,2.19-2.47,3.28-3.71c0-0.04,0-0.09,0.04-0.15
			c0.72-1.29,1.76-2.79,2.92-3.76c0.06-0.11,0.13-0.21,0.19-0.31c0.06-0.1,0.22-0.12,0.25-0.03c1.57-1.09,3.3-1.06,4.68,1.86
			c1.69,3.58,2.69,10.53-0.65,13.66c-3.19,2.99-9.79,0.72-12.08-2.49C147.99,354.4,149.51,352.43,150.63,351.08z M84.21,261.68
			c2.75-3.27,11.21,3.27,11.21,3.27s8.66,5.58,9.05,10.78c0.26,3.46-7.08,7.31-14.95,1.73C81.65,271.88,81.45,264.95,84.21,261.68z
			 M83.62,289.21c-0.36-4.57,2.87-5.8,2.87-5.8c3.16-1.29,9.37,0.73,12.33,1.93c4.23,1.71,6.57,5.19,6.6,9.59
			c0.03,3.74-2.63,6.41-6.54,6.41C88.46,301.34,83.98,293.78,83.62,289.21z M112.45,327.54c-2.59,0.99-5.88,1.37-8.6,0.8
			c-4.65-0.96-8.41-4.08-11.25-7.66c-2.13-2.7-5.22-7.28-2.22-10.47c0.51-0.55,1.1-0.96,1.73-1.28c3.37-1.66,8.19-0.44,11.6-0.16
			c6.16,0.5,12.49,3.1,14.66,9.31C119.8,322.15,116.23,326.08,112.45,327.54z M142.34,336.33c-0.55,2.12-2.11,4.13-3.94,5.32
			c-3.6,2.37-8.31,3.63-12.65,3.43c-3.42-0.15-9.83-2.94-6.2-7.22c0.93-1.09,2.08-1.84,3.35-2.4c2.5-1.09,5.45-1.44,8.02-2.08
			C134.02,332.62,144.08,329.61,142.34,336.33z M132.85,295.4c0.54-1.64,2.7-8.17,5.67-6.98c2.26,0.9,1.05,4.13,1.15,5.92
			c0.18,3.38,1.57,6.54,1.79,9.85c0.08,1.29-1.33,1.89-2.39,1.73c-1.9-0.28-4.09-3.53-5.06-4.92c-1.15-1.64-1.38-3.47-1.04-5.32
			C132.86,295.65,132.8,295.57,132.85,295.4z M130.58,274.93c1.43,0.74,1.57,2.1,1.35,3.55c-0.45,3-1.53,7.13-4.22,8.98
			c-3.42,2.35-5.67-5.07-5.36-7.2c0.28-1.9,1-2.83,2.46-3.85c0.03-0.05,0.06-0.09,0.1-0.12
			C126.61,274.77,128.3,273.75,130.58,274.93z M127.29,263.75c0.53,1.07-0.13,2.36-0.84,3.2c-1.42,1.68-4.34,3.94-6.63,2.51
			c-1.6-0.99-1.52-3.69-0.34-5.04c0.83-1.39,2.78-1.75,4.58-1.75C125.04,262.67,126.77,262.7,127.29,263.75z M126.08,212.23
			c-0.7,0.88-1.99,1.33-2.81,2.12c-1.19,1.14-2.25,2.62-3.64,3.54c-1.24,0.82-2.65,0.85-3.15-0.77c-0.53-1.73-0.46-3.78,0.17-5.48
			c0.16-0.41,0.5-0.8,0.92-1.03c0.04-0.1,0.07-0.18,0.1-0.25c0.03-0.08,0.21-0.13,0.18-0.01c-0.01,0.04-0.03,0.1-0.04,0.16
			c0.2-0.08,0.42-0.12,0.63-0.12c1.7,0.07,3.18,0.57,4.93,0.43c0.54-0.05,2.87-0.5,3.14,0.29
			C126.66,211.56,126.41,211.94,126.08,212.23z M125.83,200.77c-1.37,1.34-5.03,3.88-6.34,1.05c-1.15-2.52,0.13-6.07,2.19-7.82
			c0.03-0.03,0.07-0.05,0.1-0.05c1.28-1.32,3.04-1.87,4.96-0.44C129.06,195.24,127.54,199.09,125.83,200.77z M236.71,424.73
			c-11.61-0.38-15.55-9.62-15.74-14.24c-0.2-4.62,7.67-4.81,7.67-4.81c3.35-0.58,19.48-1.73,21.45,2.69
			C252.06,412.8,248.32,425.11,236.71,424.73z M247.29,397.05c-7.39-2.12,4.15-16.57,12.07-18.16c7.93-1.59,10.63,6.34,10.63,6.34
			C272.52,394.06,254.68,399.16,247.29,397.05z M300.46,398.55c-6.1,16.36-29.51,7.51-26.17-0.39c3.34-7.89,15.55-8.47,21.84-5.58
			C302.43,395.47,300.46,398.55,300.46,398.55z M328.53,388.54c-0.76,10.18-11.73,20.17-19.1,19.06
			c-7.37-1.11,6.24-20.54,12.86-23.13C328.9,381.88,328.53,388.54,328.53,388.54z M376.17,260.47c0.74,10.25-9.3,16.32-12.25,13.14
			c-2.95-3.18,5.46-11.55,8.71-14.15C375.88,256.86,376.17,260.47,376.17,260.47z M374.41,238.19c0.26,0.66,0.45,1.36,0.56,2.03
			c0.66,4.13-0.73,8.6-3.18,11.96c-1.76,2.42-6.93,7.88-10.68,5.56c-4.43-2.75,1.63-17.18,6.49-21.8
			C370.73,232.96,373.27,235.29,374.41,238.19z M369.77,213.62c3.29,5.57-0.06,13.59-4.27,17.71c-2.08,2.05-6.89,5.77-8.52,0.98
			c-2.07-6.06,3.99-16.6,8.41-19.2C367.65,211.79,369,212.31,369.77,213.62z M367.52,202.46c-1.19,3.65-3.86,7.08-8.03,7.48
			c-9.15,0.86-2.51-15.16,2.51-18.63c2.64-1.82,4.24-1.7,5.14-0.55C369.55,193.84,368.61,199.12,367.52,202.46z M364.8,173.27
			c5.6-2.16,3.84,3.18,3.84,3.18c-3.54,9.09-15.35,15.3-15.35,9.82C353.29,180.78,359.2,175.43,364.8,173.27z M336.86,383.15
			c-5.9-1.93,0.59-25.41,5.71-26.95c5.11-1.54,6.1,7.32,6.1,7.32C349.26,376.6,342.76,385.08,336.86,383.15z M358.55,350.63
			c-0.38,3.04-3.06,9.82-7.31,5.99c-5.81-5.26-7.15-21.02-1.11-21.02c4.13,0,6.48,2.84,7.65,6.33
			C358.72,344.79,358.88,348.08,358.55,350.63z M356.45,332.95c-4.48-7.4-2.58-15.99,3.61-15.15c6.2,0.84,6.2,6.73,6.2,6.73
			C367.29,333.12,360.92,340.36,356.45,332.95z M365.96,314.87c-3.74-3.28-4.54-16.83,0.67-17.87c5.21-1.04,7.2,7.74,7.2,7.74
			C375.44,314.72,369.7,318.14,365.96,314.87z M378.68,283.28c1.04,11.41-6.35,9.1-9.74,5.78c-3.39-3.32-1.92-8.08,3.69-10.25
			C378.24,276.64,378.64,282.85,378.68,283.28z"/>
		<g>
			<path class="st4" d="M299.86,385.52c-5.33,0-11.27-1.4-17.71-4.16c-7.82-3.36-13.77-7.64-15.97-9.32
				c-7.49-5.73-11.14-4.55-11.18-4.53c0.1-0.04,0.15-0.07,0.15-0.07l-2.64-5.17c1.07-0.53,6.92-2.73,17.31,5.21
				c6.84,5.23,21.52,13.66,33.1,12.05c4.76-0.66,8.49-2.9,11.39-6.84c7.3-9.91,17.98-27,26.03-45.29
				c10.38-23.56,14.25-43.54,11.54-59.38c-0.59-3.42-1.14-6.64-1.67-9.68c-5.35-31.06-7.57-43.92-8.11-61.46
				c-0.18-5.62-0.3-11.03-0.41-15.81c-0.17-7.64-0.35-15.53-0.66-17.75c-0.79-1.31-0.41-3.02,0.91-3.87
				c0.92-0.6,2.09-0.66,3.08-0.16c1.81,0.92,1.96,2.54,2.2,8c0.15,3.41,0.26,8.16,0.38,13.66c0.11,4.76,0.23,10.16,0.4,15.76
				c0.54,17.14,2.74,29.88,8.04,60.67c0.52,3.05,1.08,6.26,1.66,9.68c2.91,16.96-1.1,38.02-11.93,62.62
				c-8.24,18.71-19.18,36.23-26.66,46.39c-3.84,5.2-9,8.3-15.34,9.18C302.48,385.43,301.19,385.52,299.86,385.52z"/>
			<path class="st5" d="M299.86,385.63c-5.34,0-11.31-1.4-17.75-4.17c-7.82-3.37-13.79-7.65-16-9.33
				c-7.36-5.63-10.93-4.56-11.07-4.51c0,0,0,0-0.01,0l-0.09-0.21c0,0,0.01,0,0.01,0v0c0.01,0,0.02-0.01,0.04-0.01l-2.64-5.16
				l0.1-0.05c1.07-0.53,6.96-2.78,17.42,5.22c6.83,5.22,21.47,13.63,33.01,12.02c4.73-0.66,8.43-2.88,11.31-6.79
				c7.3-9.9,17.97-27,26.01-45.27c10.36-23.53,14.24-43.48,11.53-59.31c-0.32-1.85-0.63-3.64-0.93-5.37l-0.77-4.49
				c-5.34-30.97-7.54-43.79-8.08-61.3c-0.18-5.81-0.31-11.59-0.41-15.81c-0.19-8.41-0.36-15.55-0.66-17.71
				c-0.81-1.37-0.4-3.12,0.95-4.01c0.95-0.62,2.17-0.69,3.19-0.17c1.87,0.95,2.02,2.58,2.26,8.1c0.15,3.33,0.25,7.93,0.37,13.26
				l0.01,0.4c0.1,4.61,0.23,10.08,0.4,15.76c0.54,17.11,2.73,29.83,8.02,60.56l0.02,0.1c0.23,1.35,0.47,2.73,0.71,4.14
				c0.31,1.79,0.62,3.63,0.95,5.54c2.92,16.98-1.1,38.07-11.93,62.69c-8.24,18.72-19.18,36.25-26.67,46.41
				c-3.86,5.24-9.05,8.34-15.42,9.22C302.49,385.54,301.18,385.63,299.86,385.63z M255.96,367.3c1.58,0,4.99,0.61,10.28,4.66
				c2.2,1.68,8.15,5.95,15.95,9.3c6.41,2.76,12.36,4.15,17.67,4.15c1.31,0,2.61-0.09,3.87-0.27c6.31-0.87,11.44-3.95,15.27-9.13
				c7.48-10.15,18.41-27.66,26.65-46.36c10.82-24.58,14.83-45.62,11.92-62.56c-0.33-1.91-0.64-3.75-0.95-5.54
				c-0.24-1.42-0.48-2.8-0.71-4.14l-0.02-0.1c-5.3-30.74-7.49-43.46-8.03-60.59c-0.17-5.68-0.3-11.16-0.4-15.76l-0.01-0.4
				c-0.12-5.33-0.23-9.93-0.37-13.26c-0.23-5.41-0.38-7.01-2.14-7.9c-0.94-0.48-2.08-0.42-2.96,0.16c-1.26,0.82-1.64,2.46-0.87,3.72
				l0.02,0.04c0.3,2.14,0.47,9.31,0.66,17.76c0.09,4.22,0.22,10,0.41,15.81c0.54,17.49,2.75,30.31,8.08,61.26l0.77,4.49
				c0.3,1.73,0.61,3.52,0.93,5.37c2.72,15.87-1.16,35.87-11.54,59.44c-8.05,18.29-18.73,35.4-26.04,45.32
				c-2.93,3.97-6.67,6.22-11.46,6.88c-11.63,1.61-26.33-6.83-33.18-12.07c-10.06-7.69-15.79-5.84-17.08-5.25l2.56,5.02
				C255.39,367.32,255.64,367.3,255.96,367.3z"/>
		</g>
		<path class="st6" d="M357.68,267.07c-0.58-3.42-1.14-6.63-1.66-9.68c-5.31-30.79-7.5-43.53-8.04-60.67
			c-0.16-5.6-0.29-11-0.4-15.76c-0.13-5.5-0.23-10.25-0.38-13.66c-0.23-5.46-0.38-7.08-2.2-8c-0.98-0.5-2.16-0.44-3.08,0.16
			c-1.31,0.86-1.7,2.56-0.91,3.87c0.31,2.22,0.49,10.11,0.66,17.75c0.11,4.78,0.23,10.19,0.41,15.81c0.5,16.26,2.45,28.51,7,54.98
			c0.39-0.54,0.92-1.1,1.64-0.99c1.15,0.17,1.63,2.4,1.86,3.25c0.79,2.92,1.25,5.9,1.91,8.85c1.45,6.41,2.58,13.16,2.19,19.77
			c-0.19,5.54-1.19,11.03-2.53,16.41c-1.53,6.19-3.2,12.41-5.47,18.39c-2.17,5.72-4.75,11.28-7.59,16.71
			c-3.4,6.49-6.44,13.44-10.18,19.84c-2.66,4.58-5.6,9.02-8.65,13.36c-2.34,3.32-4.92,6.55-8.05,9.2
			c-6.15,5.21-13.84,7.49-21.88,5.83c-5.03-1.04-9.85-3.03-14.29-5.56c-2.45-1.39-4.76-2.98-7.23-4.33
			c-2.02-1.11-4.31-2.16-6.06-3.66c-2.53-2.17-0.47-3.02,2.15-3.46c-8.57-5.49-13.43-3.65-14.4-3.18l2.64,5.17
			c0,0-0.05,0.03-0.15,0.07c0.04-0.02,3.69-1.2,11.18,4.53c2.2,1.68,8.16,5.95,15.97,9.32c6.44,2.77,12.38,4.16,17.71,4.16
			c1.33,0,2.63-0.09,3.89-0.27c6.34-0.88,11.5-3.97,15.34-9.18c7.48-10.15,18.42-27.67,26.66-46.39
			C356.57,305.09,360.59,284.03,357.68,267.07z"/>
		<path class="st7" d="M351.43,256.09c0,0,0.19,0.68,0.51,1.95c0.32,1.28,0.78,3.15,1.26,5.57c0.48,2.41,1.01,5.35,1.42,8.75
			c0.39,3.41,0.73,7.27,0.44,11.52c-0.33,4.2-1.23,8.73-2.33,13.43c-1.11,4.71-2.47,9.63-4.1,14.66
			c-1.63,5.02-3.47,10.17-5.64,15.29c-0.53,1.29-1.14,2.55-1.71,3.82c-0.28,0.65-0.62,1.26-0.93,1.9c-0.33,0.63-0.61,1.27-0.97,1.88
			c-0.69,1.24-1.38,2.47-2.11,3.68c-0.72,1.21-1.41,2.44-2.1,3.65c-2.79,4.9-5.47,9.85-8.24,14.68c-2.77,4.82-5.55,9.55-8.68,13.87
			c-1.57,2.15-3.18,4.25-5.08,6.04c-1.86,1.79-4.15,3.22-6.53,4.01c-2.39,0.81-4.86,1.07-7.21,1c-2.35-0.07-4.6-0.46-6.7-0.96
			c-2.11-0.51-4.07-1.12-5.93-1.77c-1.85-0.68-3.51-1.57-5.04-2.39c-3.05-1.68-5.61-3.31-7.7-4.66c-4.18-2.72-6.45-4.44-6.45-4.44
			s0.58,0.42,1.69,1.15c1.11,0.73,2.76,1.79,4.88,3.1c2.12,1.31,4.72,2.87,7.79,4.47c1.55,0.78,3.19,1.61,5.02,2.24
			c1.85,0.59,3.82,1.19,5.89,1.66c2.08,0.47,4.28,0.81,6.56,0.85c2.28,0.04,4.65-0.24,6.91-1.05c2.27-0.8,4.33-2.11,6.14-3.88
			c1.8-1.75,3.39-3.81,4.93-5.94c3.06-4.28,5.82-8.99,8.55-13.82c2.73-4.82,5.39-9.79,8.16-14.71c0.71-1.22,1.4-2.46,2.13-3.66
			c0.73-1.21,1.43-2.43,2.11-3.63c0.35-0.6,0.64-1.24,0.96-1.86c0.31-0.62,0.65-1.23,0.92-1.86c0.58-1.26,1.19-2.5,1.71-3.78
			c2.19-5.07,4.05-10.18,5.69-15.18c1.63-5,3.07-9.87,4.24-14.54c1.16-4.68,2.11-9.11,2.5-13.3c0.17-2.07,0.19-4.09,0.13-5.99
			c-0.02-0.48-0.03-0.95-0.05-1.42c-0.03-0.46-0.06-0.92-0.08-1.37c-0.05-0.91-0.14-1.78-0.21-2.63c-0.33-3.4-0.79-6.34-1.21-8.76
			C352.12,258.82,351.43,256.09,351.43,256.09z"/>
		<g>
			<path class="st4" d="M172.39,345.26c-3.45,0-7.68-1.72-11.53-9.45c-3.33-6.68-9.01-10.49-16.21-15.31
				c-3.83-2.57-8.17-5.48-12.58-9.17c-7.06-5.92-13.39-15.73-17.82-27.63c-5.12-13.74-7.69-30.12-7.41-47.38
				c0.59-37.29,10.04-53.58,10.43-54.25c0.82-1.38,2.63-1.84,4.04-1.05c1.41,0.8,1.89,2.57,1.07,3.94
				c-0.14,0.23-9.07,15.97-9.64,51.44c-0.59,37.22,12.11,61.26,23.17,70.53c4.16,3.49,8.18,6.18,12.07,8.79
				c7.6,5.09,14.17,9.49,18.18,17.55c3.45,6.92,5.95,6.39,7.61,6.04c0.88-0.18,1.99-0.42,3.16,0.16c1.46,0.71,2.05,2.44,1.32,3.87
				c-0.58,1.13-1.81,1.72-3.02,1.57c-0.07,0.01-0.14,0.03-0.21,0.04C174.22,345.13,173.33,345.26,172.39,345.26z"/>
			<path class="st5" d="M172.39,345.37c-4.64,0-8.45-3.11-11.63-9.51c-3.32-6.66-8.99-10.46-16.17-15.27
				c-3.84-2.57-8.18-5.48-12.59-9.18c-7.07-5.93-13.41-15.76-17.85-27.67c-5.13-13.75-7.69-30.15-7.42-47.42
				c0.59-37.17,10.05-53.62,10.45-54.3c0.85-1.43,2.73-1.92,4.19-1.09c0.71,0.4,1.22,1.06,1.43,1.84c0.2,0.77,0.09,1.57-0.31,2.26
				c-0.09,0.15-9.06,15.75-9.62,51.39c-0.59,37.18,12.09,61.18,23.13,70.44c4.16,3.48,8.17,6.18,12.06,8.78
				c7.61,5.1,14.19,9.51,18.22,17.6c3.41,6.84,5.86,6.32,7.49,5.98c0.91-0.19,2.03-0.42,3.23,0.16c0.74,0.36,1.28,0.98,1.54,1.75
				c0.25,0.76,0.19,1.57-0.17,2.28c-0.58,1.13-1.83,1.79-3.12,1.63c-0.02,0-0.05,0.01-0.07,0.02c-0.04,0.01-0.08,0.02-0.13,0.03
				C174.1,345.27,173.23,345.37,172.39,345.37z M119.83,180.75c-0.98,0-1.93,0.49-2.46,1.38c-0.4,0.68-9.82,17.08-10.42,54.19
				c-0.28,17.24,2.28,33.61,7.4,47.34c4.43,11.88,10.74,21.67,17.79,27.58c4.39,3.68,8.73,6.59,12.55,9.15
				c7.22,4.84,12.92,8.65,16.26,15.37c3.14,6.32,6.88,9.39,11.43,9.39c0.83,0,1.68-0.1,2.61-0.3c0.04-0.01,0.08-0.02,0.12-0.02
				c0.03-0.01,0.07-0.02,0.1-0.02l0.02,0l0.02,0c1.2,0.15,2.37-0.46,2.9-1.51c0.34-0.66,0.39-1.41,0.16-2.11
				c-0.24-0.71-0.74-1.28-1.43-1.61c-1.13-0.55-2.21-0.33-3.08-0.15c-1.7,0.36-4.26,0.9-7.74-6.1c-4-8.04-10.55-12.43-18.14-17.51
				c-3.89-2.61-7.91-5.3-12.08-8.79c-11.08-9.29-23.81-33.36-23.21-70.62c0.57-35.69,9.57-51.34,9.66-51.5
				c0.37-0.63,0.48-1.37,0.29-2.09c-0.19-0.72-0.66-1.33-1.32-1.7C120.81,180.87,120.32,180.75,119.83,180.75z"/>
		</g>
		<g class="st8">
			<path class="st9" d="M176.93,339.47c-1.17-0.57-2.27-0.34-3.16-0.16c-1.66,0.35-4.17,0.88-7.61-6.04
				c-4.01-8.06-10.58-12.46-18.18-17.55c-3.89-2.6-7.91-5.3-12.07-8.79c-11.06-9.28-23.77-33.31-23.17-70.53
				c0.57-35.47,9.5-51.21,9.64-51.44c0.81-1.37,0.33-3.14-1.07-3.94c-1.41-0.8-3.21-0.33-4.04,1.05c-0.18,0.31-2.2,3.8-4.42,10.94
				c0.65-0.41,1.28-0.62,1.85-0.44c0,0,1.77-0.38,1.18,1.54c-0.59,1.92-10.43,34.27-3.74,70.84c6.69,36.58,21.84,43.51,29.32,49.86
				c7.48,6.35,17.91,8.66,22.63,19.44c0,0,1.38,3.27-0.2,3.66c-0.6,0.15-1.26,0.16-1.84,0.11c3.51,5.85,7.24,7.24,10.33,7.24
				c0.94,0,1.83-0.13,2.63-0.3c0.07-0.01,0.15-0.03,0.21-0.04c1.21,0.15,2.44-0.44,3.02-1.57
				C178.98,341.91,178.39,340.18,176.93,339.47z"/>
		</g>
		<path class="st7" d="M111.36,203.15c0,0-0.12,0.58-0.32,1.67c-0.09,0.54-0.21,1.21-0.35,2c-0.12,0.79-0.26,1.7-0.42,2.72
			c-0.14,1.02-0.3,2.15-0.47,3.38c-0.14,1.23-0.29,2.56-0.46,3.99c-0.13,1.42-0.27,2.94-0.41,4.55c-0.11,1.6-0.23,3.29-0.35,5.05
			c-0.07,1.76-0.17,3.59-0.22,5.49c-0.01,1.9-0.07,3.87-0.05,5.88c0.02,1.01,0.05,2.03,0.07,3.07c0.03,1.03,0.03,2.08,0.11,3.14
			c0.06,1.06,0.12,2.13,0.18,3.2c0.06,1.08,0.11,2.17,0.23,3.26c0.38,4.38,0.93,8.9,1.78,13.44c0.46,2.26,0.82,4.56,1.47,6.82
			c0.29,1.13,0.58,2.26,0.87,3.4l0.44,1.71c0.15,0.56,0.32,1.12,0.49,1.68c1.35,4.48,3.09,8.86,5.13,13.01
			c2.05,4.14,4.39,8.07,7.06,11.58c1.33,1.76,2.74,3.41,4.19,4.97c1.47,1.54,3,2.96,4.56,4.25c1.58,1.27,3.21,2.38,4.83,3.45
			c1.6,1.08,3.16,2.12,4.65,3.11c2.97,2,5.72,3.8,8.09,5.5c2.36,1.75,4.17,3.55,5.52,5.14c1.33,1.61,2.22,2.99,2.76,3.96
			c0.29,0.47,0.45,0.87,0.59,1.12c0.13,0.26,0.19,0.39,0.19,0.39s-0.07-0.13-0.21-0.38c-0.15-0.25-0.32-0.64-0.63-1.1
			c-0.57-0.95-1.53-2.28-2.87-3.84c-1.39-1.54-3.23-3.27-5.6-4.93c-1.21-0.81-2.5-1.65-3.88-2.52c-1.38-0.89-2.82-1.82-4.33-2.79
			c-1.51-0.97-3.07-1.98-4.7-3.03c-1.62-1.03-3.32-2.15-4.95-3.42c-1.62-1.29-3.2-2.71-4.72-4.25c-1.52-1.55-2.94-3.24-4.31-5.02
			c-2.74-3.56-5.14-7.53-7.23-11.71c-2.09-4.2-3.87-8.61-5.27-13.15c-0.17-0.57-0.33-1.14-0.49-1.72l-0.43-1.71
			c-0.29-1.15-0.57-2.29-0.86-3.44c-0.63-2.28-0.99-4.6-1.44-6.89c-0.84-4.58-1.37-9.13-1.72-13.54c-0.12-1.1-0.16-2.2-0.21-3.29
			c-0.05-1.09-0.1-2.16-0.15-3.22c-0.06-1.07-0.04-2.12-0.05-3.16c-0.01-1.04-0.01-2.07-0.02-3.08c0.01-2.03,0.11-4,0.15-5.9
			c0.08-1.91,0.22-3.74,0.32-5.51c0.14-1.77,0.29-3.45,0.44-5.05c0.19-1.61,0.37-3.12,0.54-4.55c0.2-1.43,0.4-2.76,0.57-3.99
			c0.2-1.22,0.39-2.35,0.56-3.37c0.19-1.01,0.36-1.92,0.51-2.71c0.17-0.78,0.3-1.45,0.42-1.99
			C111.22,203.73,111.36,203.15,111.36,203.15z"/>
		<g>
			<g>
				<path class="st0" d="M309.02,192.18c0,0,20.07,0.42,24.68-19.42c0,0,16.12,2.71,18.89-18.93c0,0,13.83-0.9,16.59-18.48
					c0,0,4.85,1.05,11.42-2.8c2.95-1.73,9.74-19.35-2.67-26.04c-6.97-3.77-12.06-2.61-16.25-1.63c-2.63,0.62-4.94,1.24-7.26,0.72
					c-5.99-1.35-12.9-7.2-21.65-4.5c-8.76,2.7-9.21,10.82-9.21,13.52c0,0-12.44,4.51-10.59,14.42c0,0-11.06,2.26-12.44,13.98
					c0,0-12.44,1.34-13.36,15.32c0,0-16.13,0.9-17.97,13.08c0,0-14.75-4.06-22.58,0.9c0,0-19.35-3.15-27.65,4.51
					c0,0-8.76-9.91-23.04-4.95c0,0-6.84-9.82-19.14-5.49c0,0-2-8.97-20.56-6.35c0,0-5.16-7.97-20.47-4.42
					c-4.13,0.95-7.67,4.13-6.18,9.49c0,0-10.59,0.45-14.74,8.11c-4.15,7.67,0.46,19.84,20.74,18.94c0,0,4.61,8.11,22.12,5.86
					c0,0,9.67,13.53,27.64,4.96c0,0,1.98,2.75,5.91,5.02c3.88,3.63,17.38,2.79,20.97,0.37c4.49,6.38,25.03,9.66,38.96,0.86
					c-0.23,0.22,13.81,6.67,23.76-3.61c0.57-0.6,1.57-2.39,2.66-4.04c0,0,7.16,6.8,21.79,1.04c4.48-1.76,7.36-5.07,9.35-9.99
					L309.02,192.18z"/>
				<path class="st1" d="M231.13,214.69c-0.99,0-1.99-0.03-2.99-0.1c-7.39-0.51-13.64-2.9-15.96-6.08
					c-1.83,1.17-5.96,1.98-10.35,2.05c-5.03,0.07-8.91-0.84-10.67-2.49c-3.52-2.03-5.51-4.5-5.86-4.96
					c-5.15,2.44-12.86,4.51-20.58,0.69c-4.31-2.14-6.75-5.23-7.08-5.67c-16.53,2.11-21.65-5.12-22.13-5.86
					c-13.31,0.57-18.51-4.46-20.43-7.52c-2.22-3.55-2.35-7.88-0.34-11.59c3.87-7.14,13.42-8.07,14.7-8.16
					c-0.57-2.16-0.37-4.08,0.6-5.72c1.1-1.84,3.12-3.19,5.7-3.78c14.5-3.36,20.02,3.68,20.55,4.41c9.58-1.34,14.67,0.47,17.25,2.22
					c2.48,1.69,3.19,3.6,3.33,4.1c11.62-4.02,18.45,4.63,19.1,5.5c4.09-1.41,10.32-2.42,16.88,0.65c3.54,1.65,5.69,3.83,6.12,4.28
					c8.09-7.34,26.59-4.62,27.61-4.47c7.42-4.65,21.07-1.29,22.51-0.92c1-6.26,5.83-9.47,9.72-11.07c3.86-1.58,7.58-1.92,8.23-1.97
					c0.28-4,1.74-9.45,7.07-12.89c2.91-1.88,5.76-2.35,6.3-2.42c1.35-10.97,11.26-13.69,12.42-13.97c-0.9-5.12,2.03-8.77,4.66-10.93
					c2.62-2.15,5.46-3.29,5.95-3.48c0.02-4.03,1.26-11.07,9.29-13.55c6.12-1.89,11.35,0.38,15.97,2.39
					c2.02,0.88,3.93,1.71,5.74,2.11c2.15,0.49,4.27-0.02,6.73-0.6l0.47-0.11c4.13-0.97,9.26-2.17,16.33,1.64
					c5.86,3.16,7.17,8.58,7.25,12.58c0.12,6.63-2.93,12.7-4.57,13.66c-5.97,3.5-10.6,2.96-11.38,2.84
					c-0.81,5.02-3.09,11.8-9.37,15.79c-3.44,2.19-6.64,2.6-7.22,2.66c-0.97,7.45-3.62,12.84-7.88,16
					c-4.83,3.59-10.21,3.06-11.02,2.95c-2.41,10.22-9,14.95-14.11,17.13c-5.18,2.2-9.94,2.28-10.58,2.28c0,0-0.01,0-0.01,0
					l-0.26,0.38c-2.08,5.13-5.07,8.33-9.4,10.04c-13.61,5.35-20.88-0.19-21.81-0.98c-0.37,0.56-0.71,1.12-1.05,1.67
					c-0.63,1.01-1.17,1.89-1.55,2.28c-6.93,7.17-15.65,6.23-20.23,5.04c-1.7-0.44-3.24-1.05-3.63-1.36
					C245.66,212.8,238.5,214.69,231.13,214.69z M212.24,208.2l0.06,0.09c2.24,3.17,8.46,5.56,15.86,6.07
					c8.39,0.59,16.75-1.32,22.95-5.24l0.92-0.58l-0.69,0.68c0.58,0.37,4.46,2.01,9.3,2.08c5.63,0.09,10.43-1.85,14.21-5.77
					c0.36-0.38,0.89-1.24,1.52-2.25c0.36-0.58,0.73-1.18,1.13-1.78l0.07-0.11l0.1,0.09c0.07,0.07,7.28,6.68,21.67,1.02
					c4.27-1.68,7.22-4.84,9.29-9.93l0.34-0.5l0.06,0c0.04-0.01,5.06,0.08,10.57-2.27c5.08-2.16,11.62-6.87,13.99-17.07l0.02-0.1
					l0.11,0.02c0.06,0.01,5.82,0.92,10.96-2.9c4.22-3.14,6.85-8.5,7.8-15.93l0.01-0.09l0.09-0.01c0.03,0,3.48-0.25,7.21-2.64
					c3.45-2.2,7.85-6.71,9.27-15.75l0.02-0.12l0.12,0.03c0.05,0.01,4.89,0.99,11.34-2.79c1.64-0.96,4.58-7.16,4.46-13.46
					c-0.07-3.93-1.37-9.27-7.13-12.38c-6.99-3.77-12.08-2.58-16.17-1.62l-0.47,0.11c-2.49,0.59-4.63,1.11-6.84,0.6
					c-1.84-0.41-3.75-1.25-5.78-2.13c-4.58-1.99-9.77-4.24-15.81-2.38c-7.95,2.45-9.13,9.46-9.13,13.42v0.08l-0.07,0.03
					c-0.12,0.05-12.33,4.59-10.52,14.3l0.02,0.11l-0.11,0.02c-0.11,0.02-11,2.38-12.35,13.88l-0.01,0.09l-0.09,0.01
					c-0.12,0.01-12.36,1.5-13.26,15.22l-0.01,0.1l-0.1,0.01c-0.04,0-4.07,0.24-8.26,1.97c-3.86,1.58-8.66,4.78-9.6,11.01l-0.02,0.13
					l-0.12-0.03c-0.15-0.04-14.79-3.99-22.49,0.88l-0.04,0.02l-0.04-0.01c-0.19-0.03-19.39-3.06-27.55,4.48l-0.09,0.08l-0.08-0.09
					c-0.02-0.03-2.23-2.49-6.14-4.31c-3.61-1.68-9.44-3.16-16.78-0.61l-0.08,0.03l-0.05-0.07c-0.07-0.1-6.93-9.69-19-5.44
					l-0.12,0.04l-0.03-0.12c0-0.02-0.53-2.23-3.29-4.1c-2.56-1.73-7.61-3.51-17.15-2.16l-0.07,0.01l-0.04-0.06
					c-0.05-0.08-5.31-7.86-20.35-4.37c-2.52,0.58-4.49,1.89-5.56,3.68c-0.96,1.61-1.14,3.52-0.54,5.67l0.04,0.14l-0.14,0.01
					c-0.11,0-10.58,0.54-14.65,8.05c-1.97,3.64-1.84,7.88,0.34,11.36c1.89,3.02,7.04,8,20.29,7.41l0.07,0l0.03,0.06
					c0.05,0.08,4.78,8.01,22.01,5.8l0.07-0.01l0.04,0.05c0.02,0.03,2.46,3.39,7.05,5.66c4.23,2.09,11.22,3.67,20.45-0.74l0.09-0.04
					l0.06,0.08c0.02,0.03,2.01,2.75,5.87,4.98c1.71,1.6,5.64,2.51,10.54,2.44c4.43-0.06,8.57-0.89,10.32-2.07L212.24,208.2z"/>
			</g>
			<g>
				<path class="st2" d="M156.71,159.64c-1.6,0.73-3.32,0.91-4.91,1.72c-1.54,0.77-2.91,2.07-4.06,3.31
					c-1.68,1.81-2.76,4.21-2.32,6.56c-4.01-0.41-7.93,2.07-9.83,5.5c-2.27,4.09-3.53,11.56-0.13,15.46
					c0.08,0.09,0.27-0.08,0.21-0.18c-4.6-7.71-0.06-20.48,9.84-20.37c0.11,0.42,0.26,0.82,0.48,1.23c0.12,0.21,0.45-0.08,0.39-0.27
					c-0.11-0.34-0.19-0.67-0.25-0.99c0.11-0.08,0.19-0.25,0.03-0.28c-0.03,0-0.05,0-0.08-0.01c-0.53-3.49,1.6-6.25,4.4-8.5
					c1.92-1.55,4.29-1.71,6.28-2.99C156.86,159.77,156.88,159.56,156.71,159.64z"/>
				<path class="st2" d="M177.77,165.81c-3.92,1.24-7.56,2.39-10.24,5.64c-1.61,1.94-2.81,4.58-2.59,7.07
					c-4.35,1.59-6.69,3.84-8.39,8.07c-1.68,4.2-1.44,8.73,1.43,12.35c0.08,0.11,0.31-0.1,0.25-0.2c-1.99-3.39-2.56-6.74-1.56-10.56
					c1.21-4.59,3.87-7.53,8.28-9.44c0.11,0.9,0.4,1.78,0.94,2.6c0.12,0.17,0.4-0.06,0.35-0.23c-1.48-4.05,0-7.65,2.94-10.66
					c2.34-2.4,5.7-3.02,8.6-4.44C177.88,165.95,177.93,165.76,177.77,165.81z"/>
				<path class="st2" d="M196.46,171.61c-3.36,1.39-5.7,2.46-7.97,5.38c-1.7,2.18-2.68,4.84-2.37,7.45
					c-6.53,4.5-4.61,14.64-0.28,20.06c0.07,0.09,0.27-0.09,0.21-0.18c-3.77-5.61-5.55-14.7,0.1-19.59c0.14,0.89,0.44,1.78,0.91,2.64
					c0.09,0.17,0.34-0.06,0.3-0.2c-0.32-1.03-0.5-2.01-0.56-2.96c0.02-0.02,0.03-0.03,0.05-0.04c0.11-0.07,0.07-0.23-0.06-0.16
					c-0.11-2.97,1.06-5.59,3.27-8.17c1.8-2.1,4.2-2.69,6.43-4.11C196.56,171.69,196.57,171.56,196.46,171.61z"/>
				<path class="st2" d="M219.88,176.02c-4.25,1.86-6.96,8.84-5.22,13.16c-2.4,2.22-3.86,5.14-4.53,8.36
					c-0.67,3.2-0.35,8.84,2.38,11.19c0.08,0.07,0.25-0.08,0.19-0.16c-3.91-5.89-2.41-13.93,2.13-18.99c0.05,0.1,0.1,0.21,0.16,0.3
					c0.09,0.17,0.37-0.04,0.34-0.19c-0.04-0.18-0.07-0.36-0.1-0.54c0.35-0.36,0.71-0.71,1.09-1.03c0.14-0.12,0.03-0.31-0.13-0.19
					c-0.37,0.25-0.7,0.52-1.04,0.8c-0.7-4.65,0.62-9.71,4.75-12.55C219.99,176.13,220,175.97,219.88,176.02z"/>
				<path class="st2" d="M253.09,188.13c1.85-5.5-1.65-13.61-6.86-15.88c-0.09-0.04-0.27,0.13-0.17,0.2
					c4.49,3.14,7.96,9.77,6.72,15.3c-0.2-0.22-0.4-0.44-0.63-0.66c-0.09-0.08-0.25,0.09-0.18,0.18c0.24,0.35,0.46,0.68,0.67,1.02
					c-0.13,0.47-0.3,0.93-0.51,1.39c-0.08,0.17,0.16,0.17,0.23,0.05c0.2-0.33,0.37-0.68,0.53-1.03c1.74,2.91,2.32,5.53,1.91,9.27
					c-0.42,3.84-1.82,7.49-3.76,10.82c-0.14,0.24,0.15,0.3,0.27,0.11C255.19,202.98,257.88,194.06,253.09,188.13z"/>
				<path class="st2" d="M274.02,183.82c1.25-4.98-0.47-11.45-5.76-12.82c-0.1-0.03-0.27,0.15-0.15,0.21
					c5.79,2.64,7.17,10.62,4.27,15.77c-0.1,0.18,0.17,0.18,0.25,0.05c0.56-0.83,0.99-1.81,1.29-2.86c4.13,1.78,5.12,6.11,5.14,10.21
					c0.02,5.39-2.8,9.98-6.44,13.79c-0.15,0.16,0.01,0.32,0.17,0.17c4.03-3.77,6.54-8.72,6.94-14.17
					C280.03,190.21,278.73,184.48,274.02,183.82z"/>
				<path class="st2" d="M308.48,178.51c-1.65-4.29-4.19-7.07-8.31-8.47c-0.29-2.73-1.22-5.13-3.15-7.32
					c-1.29-1.46-2.98-2.6-4.74-3.44c-1.93-0.92-3.92-0.64-5.95-0.98c-0.09-0.02-0.22,0.16-0.11,0.19c1.62,0.48,3.29,0.47,4.92,0.99
					c1.86,0.6,3.45,1.89,4.86,3.18c2.12,1.93,3.23,4.54,3.76,7.25c-0.43-0.13-0.87-0.25-1.33-0.35c-0.08-0.02-0.22,0.16-0.12,0.2
					c0.52,0.2,1.02,0.38,1.52,0.58c0.08,0.46,0.15,0.93,0.2,1.4c0.02,0.16,0.25,0.01,0.24-0.1c-0.01-0.39-0.03-0.77-0.06-1.14
					c1.41,0.58,2.73,1.24,3.93,2.34c1.65,1.53,2.83,4.06,3.73,6.08c1.96,4.39,1.77,9.34,0.51,13.87c-0.05,0.18,0.21,0.07,0.25-0.04
					C310.16,188.04,310.27,183.14,308.48,178.51z"/>
				<path class="st2" d="M315.42,156.85c0.46-3.48-0.43-6.87-2.83-9.71c-1.52-1.79-3.76-3.01-5.94-3.85
					c-2.52-0.98-4.94-0.42-7.5-0.07c-0.07,0.01-0.17,0.17-0.06,0.17c2.16,0.01,4.13-0.29,6.27,0.25c2.26,0.57,4.34,1.93,6.03,3.46
					c3.45,3.12,4.19,7.81,3.24,12.11c-0.04,0.2,0.25,0.07,0.28-0.05c0.2-0.67,0.35-1.33,0.45-2c5.04-0.19,9.02,0.58,12.77,4.2
					c3.34,3.22,4.33,7.83,4.92,12.19c0.03,0.21,0.31,0,0.31-0.13C333.48,163.9,325.72,154.51,315.42,156.85z"/>
				<path class="st2" d="M346.19,141.31c-1.73-1.77-4.06-2.81-6.44-3.42c-0.73-0.18-5.96-1.01-6.4,0.08
					c0.03-0.06,0.01-0.1-0.03-0.12c-0.48-3.33-1.9-5.82-5.34-7.65c-4.74-2.51-10.32-2.06-15.4-1.09c-0.11,0.02-0.21,0.22-0.05,0.21
					c4.53-0.41,8.86-0.71,13.24,0.77c5.06,1.71,6.69,5.25,7.45,10.08c0.03,0.18,0.28,0.01,0.28-0.12c-0.02-0.63-0.06-1.24-0.13-1.82
					c4.68-0.14,8.64,0.34,12.26,3.58c3.76,3.35,5.8,8.17,6.49,13c0.02,0.16,0.26,0.01,0.25-0.11
					C352.13,149.62,349.77,144.98,346.19,141.31z"/>
				<path class="st2" d="M360.71,121.84c-4.31-1.97-9.08-1.98-13.2-0.15c-1.43-3.87-5.55-5.86-9.46-6.85
					c-4.65-1.18-10.94-1.94-15.48,0.03c-0.16,0.07-0.22,0.38,0.02,0.29c4.44-1.59,9.66-0.76,14.19,0.04
					c4.42,0.78,8.12,2.9,10.27,6.7c-1.25,0.6-2.42,1.36-3.5,2.3c-0.08,0.07-0.02,0.19,0.08,0.12c1.19-0.84,2.41-1.51,3.64-2.02
					c0.09,0.18,0.18,0.34,0.26,0.52c0.07,0.13,0.3-0.04,0.27-0.15c-0.04-0.18-0.1-0.35-0.15-0.53c3.99-1.54,8.18-1.39,12.58,0.35
					c5.36,2.11,9.36,7.27,8.8,13.04c-0.02,0.17,0.2,0.07,0.21-0.04C370.49,129.32,366.13,124.32,360.71,121.84z"/>
			</g>
			<path class="st3" d="M377.93,106.51c-6.97-3.77-12.06-2.61-16.25-1.63c-2.63,0.62-4.94,1.24-7.26,0.72
				c-5.99-1.35-12.9-7.2-21.65-4.5c-8.76,2.7-9.21,10.82-9.21,13.52c0,0-12.44,4.51-10.59,14.42c0,0-11.06,2.26-12.44,13.98
				c0,0-1.23,0.13-2.95,0.75c2.1-0.34,4.18,0.03,5.94,1.7c3.54,3.35,2.92,7.46-0.48,10.61c-2.9,2.68-7.75,4.03-10.72,0.63
				c-2.82-3.23-1.97-7.11,0.36-10.15c-2.69,2.25-5.14,5.89-5.52,11.79c0,0-1.17,0.07-2.9,0.4c1.83,0.17,3.54,0.94,4.73,2.55
				c3.76,5.11-0.88,10.16-5.78,12.22c-2.35,0.99-5.21,1.76-7.67,0.7c-2.03-0.88-3.4-2.58-3.16-4.83c0.25-2.49,1.68-5.14,3.69-7.13
				c-0.21-0.02-0.34-0.25-0.13-0.47c-3.21,1.93-6.03,4.94-6.74,9.63c0,0-2.75-0.76-6.5-1.22c0.22,0.12,0.44,0.24,0.65,0.36
				c1.24,0.73,3.28,2.46,2.21,4.1c-1.16,1.78-3.48,2.76-5.58,3.02c-2.4,0.3-5.06,0.05-7.13-1.3c-1.62-1.06-3.49-2.43-3.56-4.49
				c-0.01-0.34,0.05-0.63,0.17-0.91c-1.01,0.35-1.97,0.79-2.84,1.33c0,0-4.25-0.69-9.63-0.64c1.92,0.58,3.64,1.58,4.91,3.1
				c3.83,4.58-2.43,7.05-6.2,7.74c-2.52,0.46-5.12,0.71-7.69,0.68c-2.56-0.02-5.46-0.08-7.72-1.39c-2.36-1.37-1.79-4.27-0.09-5.92
				c0.09-0.09,0.19-0.17,0.29-0.26c-0.54,0.37-1.05,0.76-1.52,1.2c0,0-4.05-4.58-11.13-5.95c1.69,0.73,3.31,1.92,3.66,3.67
				c1,5-5.18,6.77-9.11,6.82c-2.26,0.03-4.47-0.29-6.66-0.82c-1.71-0.41-3.8-0.98-4.6-2.69c-0.73-1.56,0.65-3.52,1.81-4.46
				c0.87-0.71,1.84-1.25,2.85-1.7c-0.55-0.72-2.84-3.48-6.69-5.13c2.4,2.91-0.53,6.58-3.68,7.64c-2.54,0.86-5.36,1.03-8.01,0.64
				c-1.89-0.27-5.2-0.73-6.05-2.77c-1.28-3.07,2.22-4.83,5.34-5.97c-0.33-0.94-1.8-4.04-7.02-5.61c0.74,0.67,1.15,1.54,0.93,2.63
				c-0.36,1.8-2.14,2.81-3.69,3.58c-2.16,1.09-4.53,1.84-6.99,1.75c-2.11-0.08-8.84-0.77-8.84-3.9c0.01-2.71,2.53-3.91,5.02-4.68
				c-0.35-0.46-1.5-1.82-3.7-3.02c-0.43,0.77-1.18,1.48-1.74,1.96c-2.17,1.84-4.74,3.23-7.64,3.56c-3.39,0.39-7.35-0.23-9.8-2.76
				c-0.8-0.82-1.02-1.7-0.89-2.54c-2.37,1.6-3.8,4.28-2.76,8.04c0,0-10.59,0.45-14.74,8.11c-4.15,7.67,0.46,19.84,20.74,18.94
				c0,0,4.61,8.11,22.12,5.86c0,0,9.67,13.53,27.64,4.96c0,0,1.98,2.75,5.91,5.02c3.88,3.63,17.38,2.79,20.97,0.37
				c4.49,6.38,25.03,9.66,38.96,0.86c-0.23,0.22,13.81,6.67,23.76-3.61c0.57-0.6,1.57-2.39,2.66-4.04c0,0,7.16,6.8,21.79,1.04
				c4.48-1.76,7.36-5.07,9.35-9.99l0.29-0.43c0,0,20.07,0.42,24.68-19.42c0,0,16.12,2.71,18.89-18.93c0,0,13.83-0.9,16.59-18.48
				c0,0,4.85,1.05,11.42-2.8C383.54,130.82,390.33,113.21,377.93,106.51z M128.32,181.14c-3.46,1.87-9.24,1.08-11.64-2.23
				c-2.18-2.99-0.61-6.16,1.84-8.38c0.73-0.77,1.57-1.35,2.48-1.76c0.18-0.1,0.36-0.19,0.54-0.28c0.1-0.05,0.18-0.05,0.24-0.03
				c3.24-1.09,7.06-0.12,9.44,2.62C134,174.31,131.69,179.31,128.32,181.14z M151.85,184.25c-0.69,4.54-7.41,4.37-10.66,3.17
				c-2.57-0.95-4.61-2.53-4.85-5.34c-0.17-1.99,0.57-4.34,2.42-5.34c1.74-1.5,4.49-1.24,6.76-0.16
				C148.18,177.84,152.36,180.85,151.85,184.25z M175.65,191.66c-0.26,5.07-7.24,5.6-10.91,4.3c-4.78-1.69-8.98-6.22-5.44-11.04
				c0.13-0.18,0.29-0.18,0.4-0.1c1.89-1.17,5.65-0.4,7.27,0.04C169.92,185.66,175.84,187.81,175.65,191.66z M203.41,199.65
				c-2.81,2.78-8.43,2.73-11.99,1.88c-4.45-1.06-7.7-4.03-7.41-8.5c-0.06-0.2-0.1-0.41-0.08-0.61c0.4-3.7,9.55-0.75,11.65-0.33
				c2.64,0.52,6.63,1.06,8.26,3.47C204.78,196.96,204.6,198.48,203.41,199.65z M238.94,204.08c-4.31,2.03-9.42,2.83-14.18,2.54
				c-1.86-0.11-3.74-0.38-5.54-0.88c-1.61-0.45-3.5-1.32-4.66-2.54c-0.94-1-1.47-2.3-1.67-3.62c-0.18-1.15-0.35-2.7,0.83-3.45
				c1.95-1.24,4.72-0.94,6.91-0.71c4.69,0.48,9.4,0.59,14.09,1.16c2.29,0.28,6.89,0.85,7.23,3.86
				C242.15,202.23,240.42,203.4,238.94,204.08z M273.15,195.15c-0.56,1.94-2.06,3.36-3.81,4.35c-1.93,1.09-4.13,1.9-6.32,2.32
				c-1.54,0.29-3.72,0.64-5.07-0.39c-1.49-1.14-1.48-3.36-0.81-4.96c0.62-1.5,1.68-2.43,3.06-3.09c2.83-2.21,7.18-2.93,10.53-2.13
				C272.66,191.72,273.72,193.16,273.15,195.15z M299.12,191.88c-3.88,4.02-11.08,5.27-14.96,0.44c-4.21-5.23,4.03-8.37,8.31-10.07
				c0.15-0.09,0.31-0.18,0.47-0.27c1.71-0.93,4-2.16,6.05-1.86C304.48,180.92,301.48,189.43,299.12,191.88z M328.18,105.18
				c2.16-3.26,7.43-4.24,11.03-3.2c1.84,0.53,4.1,1.92,3.35,4.17c-0.68,2.09-2.79,3.5-4.8,4.28c-2.5,0.98-9.1,2.67-10.81-0.43
				C325.99,108.23,326.76,106.53,328.18,105.18z M305.51,140.05c-1.95-2.12-0.08-4.78,2.09-6.62c1.3-1.2,2.8-2.2,4.6-2.51
				c1.86-0.32,5.14-0.69,6.61,0.82c2.87,2.94-0.7,6.94-3.38,8.6C312.77,141.99,307.83,142.58,305.51,140.05z M322.47,171.36
				c-0.08,2.61-0.89,5.14-2.38,7.33c-1.05,1.53-2.9,3.8-5.09,3.44c-2.22-0.38-3.63-2.43-4.43-4.34c-0.86-2.05-1.48-4.26-0.73-6.42
				c0.21-0.62,0.55-1.17,0.96-1.67c0.58-1.21,1.46-2.27,2.62-3.22c1.68-1.39,3.9-2.67,6.11-1.73
				C321.91,165.75,322.55,169.14,322.47,171.36z M317.27,125.34c-2.79-3.54,2.83-7.29,5.46-8.73c0.2-0.1,0.31-0.03,0.34,0.11
				c2.83-1.3,6.05-1.43,8.44,1.09c2.88,3.03-0.87,7.03-3.82,8.03C325.04,126.74,319.35,127.98,317.27,125.34z M341.77,162.97
				c-1.52,1.53-4.09,3.88-6.49,2.65c-2.09-1.08-3.28-3.4-4.15-5.45c-0.96-2.29-1.97-4.71-1.58-7.22c0.38-2.46,2.21-4.5,3.99-6.23
				c1.05-1.27,2.36-2.32,4.03-2.47c2.6-0.23,5.06,1.06,6.4,3.28C346.77,152.21,345.59,159.13,341.77,162.97z M360.35,138.19
				c-2.26,4.77-8.13,6.28-11.88,2.06c-4.19-4.69-3.76-11,0.87-15.25c0.13-0.11,0.26-0.13,0.38-0.1c0.65-0.51,1.42-0.86,2.3-0.98
				c2.28-0.3,4.66,0.46,6.27,2.11C361.3,129.13,362.21,134.28,360.35,138.19z M374.51,120.02c-0.78,1.67-2.29,3.5-4.4,2.85
				c-1.44-0.44-2.6-1.28-3.84-2.09c-1.48-0.95-3.05-1.5-4.7-2.09c-1.96-0.71-5.1-1.78-4.93-4.35c0.12-1.65,0.92-3.14,1.94-4.46
				C363.6,101.07,378.96,110.42,374.51,120.02z"/>
			<g>
				<g>
					<path class="st10" d="M351.6,104.91c-0.18,0.21-12.27,25.26-37.06,50.31c-12.72,12.85-25.06,19.95-33.18,23.64
						c-8.8,4-14.67,4.98-14.72,4.98c-0.03,0-0.06,0.01-0.09,0.02c-18.74,3.54-62.62,11.86-123.96-16.58
						c-2.98-1.38-5.34-2.48-7.22-3.19c-7.99-3.06-14.5-4.48-18.67-5.13c-4.09-0.34-8.99-0.07-9.82,3.38c0.17,0.06,0.38,0.1,0.65,0.1
						c0.09,0,12.82,2.1,25.69,7.02c1.69,0.65,3.96,1.7,6.85,3.04c14.74,6.83,44.91,20.82,88.13,20.82c12.14,0,25.31-1.1,39.45-3.78
						c0.69-0.11,6.85-1.21,15.95-5.32c8.63-3.9,21.74-11.39,35.19-24.98c25.47-25.73,38.14-52.19,38.65-53.25
						C358.12,104.54,353.74,102.38,351.6,104.91z"/>
					<path class="st11" d="M228.18,193.43c-43.24,0-73.59-14.07-88.17-20.83c-2.75-1.28-5.13-2.38-6.84-3.04
						c-12.86-4.92-25.55-7-25.66-7.01c-0.27-0.01-0.49-0.04-0.68-0.11l-0.09-0.03l0.02-0.1c0.67-2.8,4.02-3.97,9.94-3.47
						c4.09,0.64,10.64,2.05,18.7,5.14c1.85,0.7,4.14,1.77,7.04,3.11l0.18,0.09c61.3,28.42,105.15,20.12,123.88,16.58
						c0.05-0.01,0.08-0.02,0.11-0.02c0.05-0.01,5.94-0.99,14.69-4.97c8.1-3.68,20.43-10.77,33.14-23.62
						c20.81-21.03,32.69-41.89,36.83-49.89c0.18-0.36,0.2-0.39,0.22-0.42l0,0c1.44-1.71,3.87-1.32,5.14-0.5
						c0.8,0.52,1.14,1.17,0.88,1.7c-1.38,2.86-14.06,28.41-38.67,53.28c-13.46,13.6-26.59,21.11-35.23,25.01
						c-9.38,4.23-15.71,5.29-15.98,5.33C254.41,192.16,241.13,193.43,228.18,193.43z M107.01,162.26c0.14,0.04,0.31,0.06,0.52,0.07
						c0.08,0,12.85,2.1,25.72,7.03c1.71,0.66,4.1,1.76,6.85,3.04c14.57,6.75,44.88,20.81,88.08,20.81c12.94,0,26.2-1.27,39.43-3.78
						c0.27-0.04,6.57-1.09,15.93-5.31c8.62-3.89,21.72-11.38,35.16-24.96c24.58-24.84,37.25-50.36,38.62-53.19
						c0.25-0.53-0.24-1.09-0.79-1.44c-1.19-0.77-3.48-1.14-4.84,0.45c-0.02,0.03-0.1,0.19-0.2,0.38c-4.15,8-16.04,28.89-36.87,49.94
						c-12.74,12.87-25.09,19.97-33.21,23.66c-8.89,4.05-14.7,4.99-14.75,4.99c-0.03,0-0.05,0.01-0.08,0.02
						c-18.77,3.55-62.68,11.86-124.04-16.59l-0.18-0.09c-2.9-1.34-5.19-2.4-7.03-3.1c-8.04-3.08-14.58-4.49-18.64-5.13
						C110.97,158.59,107.71,159.66,107.01,162.26z"/>
				</g>
				<g class="st8">
					<path class="st9" d="M351.6,104.9c-1.39,3.27-9.43,21.68-18.67,34.14c-10.19,13.71-25.68,30.47-47.82,41.44
						c-22.14,10.97-59.77,10.11-59.77,10.11c-46.78-1.01-64.34-11.84-82.2-19.93c-17.86-8.08-27.6-8.08-29.22-9.39
						c-1.43-1.15,1.04-2.18,1.64-2.41c-3.81-0.19-7.94,0.32-8.69,3.45c0.17,0.06,0.38,0.1,0.65,0.1c0.09,0,12.82,2.1,25.69,7.02
						c1.69,0.65,3.96,1.7,6.85,3.04c14.74,6.83,44.91,20.82,88.13,20.82c12.14,0,25.31-1.1,39.45-3.78
						c0.69-0.11,6.85-1.21,15.95-5.32c8.63-3.9,21.74-11.39,35.19-24.98c25.47-25.73,38.14-52.19,38.65-53.25
						C358.12,104.54,353.74,102.38,351.6,104.9z"/>
				</g>
				<path class="st12" d="M119.68,160.56c0,0,0.9,0.24,2.57,0.68c1.67,0.46,4.12,1.16,7.22,2.14c3.08,1,6.81,2.26,10.96,4.04
					c4.12,1.84,8.66,4.11,13.74,6.32c5.07,2.21,10.67,4.39,16.71,6.32c6.04,1.93,12.54,3.6,19.34,4.89
					c6.81,1.27,13.93,2.17,21.19,2.77c7.26,0.59,14.66,0.84,22.06,0.69c7.39-0.14,14.78-0.68,21.97-1.75
					c7.18-1.09,14.18-2.67,20.7-4.94c3.26-1.13,6.4-2.4,9.39-3.84c2.97-1.44,5.81-3.05,8.41-4.77c5.13-3.66,9.78-7.42,13.96-11
					c4.16-3.6,7.88-7.01,11.04-10.16c0.81-0.78,1.56-1.54,2.29-2.29c0.73-0.75,1.43-1.47,2.11-2.17c1.3-1.42,2.5-2.72,3.59-3.91
					c1.05-1.21,1.99-2.29,2.8-3.23c0.82-0.94,1.46-1.78,2.01-2.44c1.08-1.33,1.65-2.05,1.65-2.05s-0.56,0.72-1.6,2.08
					c-0.53,0.67-1.15,1.53-1.95,2.49c-0.79,0.96-1.71,2.06-2.73,3.29c-1.06,1.2-2.24,2.53-3.53,3.98c-0.66,0.71-1.35,1.44-2.06,2.2
					c-0.71,0.77-1.45,1.55-2.25,2.34c-3.11,3.22-6.78,6.7-10.93,10.34c-4.15,3.64-8.76,7.45-13.89,11.19
					c-2.65,1.8-5.48,3.45-8.48,4.94c-3,1.5-6.19,2.77-9.48,3.94c-6.58,2.32-13.64,3.94-20.88,5.06c-7.24,1.11-14.68,1.68-22.11,1.84
					c-7.44,0.12-14.88-0.16-22.17-0.77c-7.29-0.63-14.44-1.55-21.29-2.85c-6.85-1.31-13.36-3.07-19.42-5.07
					c-6.05-2-11.65-4.26-16.71-6.53c-2.53-1.15-4.94-2.27-7.2-3.39c-2.27-1.11-4.4-2.19-6.44-3.14c-4.09-1.84-7.8-3.16-10.86-4.22
					C123.25,161.53,119.68,160.56,119.68,160.56z"/>
			</g>
		</g>
		<g>
			<path class="st0" d="M237.08,422.42c-3.49-0.72-6.94-1.46-9.68-3.83c-2.78-2.41-4.51-6.79-4.61-10.32
				c-0.01-0.13-0.21-0.02-0.22,0.07c-0.36,3.74,1.23,7.45,3.51,10.39c2.42,3.13,7.15,3.76,10.83,4.08
				C237.1,422.82,237.33,422.48,237.08,422.42z"/>
			<path class="st0" d="M230.94,446.03c-0.32-4.59,1.63-9.45-1.23-13.54c-0.06-0.09-0.23,0.07-0.19,0.16
				c1.22,2.65,0.69,5.52,0.33,8.32c-0.34,2.63-0.33,5.16-0.08,7.8c0.55,5.92,3.09,11.83,5.77,17.11c0.07,0.14,0.31-0.05,0.26-0.17
				C233.3,459.41,231.41,452.78,230.94,446.03z"/>
			<path class="st0" d="M261.07,394.5c0.81-0.54,1.6-1.09,2.39-1.66c-4.74,1.9-10.93,4.03-15.62,2.01c1.23,1.14,3.16,1.57,5.19,1.62
				C255.69,396.37,258.54,395.52,261.07,394.5z"/>
			<path class="st0" d="M101.79,167.13c-4.94,3.7-5.99,10.99-4.19,16.61C96.98,177.99,98.29,171.76,101.79,167.13z"/>
			<path class="st0" d="M95.29,196.8c-0.77-2.39-0.5-4.97,0.75-7.08c-3.31,3.33-2.7,8.13,1.27,11.24
				C96.37,199.56,95.65,197.89,95.29,196.8z"/>
			<path class="st0" d="M90.92,201.33c-3.65,4.97-2.66,11.41,1.59,15.77C90.03,212.04,88.74,206.11,90.92,201.33z"/>
			<path class="st0" d="M86.51,220.69c-1.67,5.14-0.39,10.91,3.72,14.66C87.32,231.16,85.7,225.73,86.51,220.69z"/>
			<path class="st0" d="M83.49,247.25c-0.19-0.85-0.31-1.7-0.36-2.56c-0.19-1.91-0.16-3.82,0.24-5.66
				c-1.81,4.53-1.85,8.82,1.16,13.02c0.02,0.04,0.06,0.05,0.09,0.06C84.2,250.53,83.79,248.89,83.49,247.25z"/>
			<path class="st0" d="M84.16,265.36c-0.04,1.96,0.14,3.58,1.26,5.62c1.11,2.03,2.92,3.26,4.83,4.48c0.07,0.04,0.17,0,0.24-0.07
				C87.57,272.75,85.15,269.14,84.16,265.36z"/>
			<path class="st0" d="M91.52,296.71c-1.18-0.67-2.27-1.49-3.25-2.48c-1-1.01-1.66-2.25-2.27-3.5c-0.44-0.89-0.57-1.78-0.67-2.68
				c-0.14-0.6-0.26-1.21-0.4-1.81c-0.08,1.57-0.29,2.69,0.11,4.25c0.36,1.4,1.22,2.75,2.07,3.9c1.78,2.44,4.87,3.97,7.87,4.31
				C93.75,298.17,92.6,297.49,91.52,296.71z"/>
			<path class="st0" d="M99.85,323.57c-0.11-0.08-0.22-0.16-0.33-0.25c-3.07-1.91-5.65-4.54-7.14-7.72
				c-0.48-0.84-0.9-1.73-1.25-2.64c0.64,7.19,6.76,12.28,13.72,13.45C103.03,325.64,101.33,324.62,99.85,323.57z"/>
			<path class="st0" d="M118.84,171.88c1.11-1.28,2.51-2.19,4.17-2.68c0.31-0.16,0.62-0.33,0.93-0.48
				c-3.02,0.08-5.22,1.53-6.47,4.26C117.92,172.6,118.37,172.23,118.84,171.88z"/>
			<path class="st0" d="M137.45,181.61c0.07-1.31,0.4-2.49,1.38-3.5c0.65-0.68,1.52-1.12,2.44-1.38c0.4-0.23,0.81-0.43,1.24-0.61
				c-1.41-0.06-2.84,0.32-3.89,1.26c-1.51,1.35-1.9,3.1-1.57,5.03c0.03,0.14,0.14,0.13,0.24,0.06
				C137.32,182.17,137.38,181.88,137.45,181.61z"/>
			<path class="st0" d="M165.47,185.01c-2.39-0.81-5.94-0.2-6.82,2.44c-0.05,0.14,0.12,0.14,0.18,0.04c1.28-2.11,4.2-2.17,6.44-2.13
				C165.41,185.36,165.68,185.08,165.47,185.01z"/>
			<path class="st0" d="M184.83,192.99c0.59-0.89,1.73-1.18,3.02-1.18c0.34-0.04,0.68-0.06,1.06-0.05c1.75,0.07,3.46,0.36,5.17,0.68
				c-2.25-0.68-9.33-3.19-9.71,0.85C184.53,193.18,184.68,193.08,184.83,192.99z"/>
			<path class="st0" d="M219.64,196.03c0.74-0.09,1.46-0.15,2.18-0.2c-3.5-0.33-7.39-0.21-8.4,1.88
				C215.08,196.44,217.71,196.27,219.64,196.03z"/>
			<path class="st0" d="M260.95,193.66c-2.18,1.23-4.29,3.09-3.49,5.57C258.04,197.09,259.25,195.21,260.95,193.66z"/>
			<path class="st0" d="M288.11,184.74c-2.68,1.42-5.55,4.3-3.32,6.94c0,0,0.01,0,0.01,0C284.11,189.17,285.9,186.68,288.11,184.74z
				"/>
			<path class="st0" d="M311.45,172.8c0.11-1.2,0.14-2.6,0.64-3.73c0.09-0.2,0.18-0.41,0.28-0.62c-2.08,2.37-2.7,5.89-1.06,8.64
				C311.24,175.66,311.32,174.23,311.45,172.8z"/>
			<path class="st0" d="M332.03,158.03c-0.38-1.65-0.58-3.31-0.43-4.93c0.03-0.69,0.09-1.38,0.23-2.07
				c0.14-0.69,0.33-1.37,0.57-2.01c-2.54,3.09-2.25,7.13-0.44,10.62C332.07,159.11,332.07,158.57,332.03,158.03z"/>
			<path class="st0" d="M347.87,130.36c0.03-0.1,0.05-0.19,0.08-0.29c0.01-0.44,0.04-0.88,0.08-1.31c-1.88,3.5-2.48,8.05,1.24,10.68
				c0.07,0.04,0.14,0.04,0.22,0.03C348.48,136.52,347.18,133.52,347.87,130.36z"/>
			<path class="st0" d="M360.9,116.88c-0.89-0.65-1.83-1.45-2.32-2.47c-0.23-0.47-0.39-0.91-0.52-1.42
				c-0.02-0.09-0.03-0.18-0.03-0.26c-0.71,2.56,1.71,4.43,4.16,4.95C361.72,117.44,361.3,117.17,360.9,116.88z"/>
			<path class="st0" d="M356.92,180.67c0.75-1.15,1.58-2.22,2.49-3.22l0,0c-1.96,0.9-4.13,3.73-4.34,6.06
				C355.52,182.45,356.47,181.38,356.92,180.67z"/>
			<path class="st0" d="M359.74,162.27c1.22-1,2.45-2.02,3.76-2.9c0-0.05-0.06-0.09-0.14-0.04c-3.03,1.65-6.16,3.14-7.25,6.58
				C356.81,164.43,358.64,163.17,359.74,162.27z"/>
			<path class="st0" d="M370.39,145.51c-0.38,0.73-0.69,1.44-0.76,2.37c-0.08,1.11-0.06,2.41,1.09,2.97
				c0.01,0.01,0.02,0.01,0.03,0.01C370.24,149.12,370.05,147.19,370.39,145.51z"/>
			<path class="st0" d="M357.09,205.27c0.68-1.69,0.74-3.49,1.19-5.24c0.34-1.32,0.83-2.61,1.44-3.83c0.6-1.19,1.29-2.3,2.1-3.32
				c-3.46,3.28-5.59,7.35-4.87,12.21C356.97,205.2,357.02,205.25,357.09,205.27z"/>
			<path class="st0" d="M360.61,220.93c0.28-0.75,0.56-1.49,0.82-2.25c-2.51,3.64-5.27,8.62-3.39,13c0.01,0.02,0.02,0.02,0.02,0.04
				c0.23-0.86,0.21-1.92,0.33-2.74c0.16-1.1,0.29-2.22,0.5-3.31C359.21,224.04,359.83,222.45,360.61,220.93z"/>
			<path class="st0" d="M363.24,245.04c0.01-0.12-0.19-0.07-0.24,0.01c-1.86,2.95-4.24,8.72-0.71,11.38
				C360.39,252.9,361.61,248.7,363.24,245.04z"/>
			<path class="st0" d="M365,270.13c-0.05,0.76,0.17,1.46,0.82,1.98c0.82,0.65,1.83,0.85,2.78,0.34c0.13-0.07,0.31-0.29,0.38-0.5
				C367.55,271.93,366,271.2,365,270.13z"/>
			<path class="st0" d="M369.62,285.09c-0.05,0.05-0.08,0.12-0.07,0.16c0.33,1.4,1.7,4.81,3.7,4.12c0.17-0.06,0.31-0.2,0.4-0.37
				C371.91,288.28,370.63,286.7,369.62,285.09z"/>
			<path class="st0" d="M365.83,298.23c-0.95,0.6-1.47,1.94-1.78,2.9c-1.04,3.13-0.17,6.53,1.19,9.42
				C364.8,307.61,364.27,301.57,365.83,298.23z"/>
			<path class="st0" d="M357.15,319.25c-3,2.17-2.52,6.46-1.25,9.53c0.04,0.1,0.11,0.13,0.18,0.14
				C355.62,325.61,355.64,322.24,357.15,319.25z"/>
			<path class="st0" d="M348.45,348.38c0.13-0.6,0.21-1.21,0.26-1.83c-0.48-2.92-1.12-6.38,0.32-8.91c0.07-0.31,0.17-0.61,0.28-0.92
				c-3.61,2.79-2.3,7.91-0.93,11.57C348.39,348.33,348.42,348.36,348.45,348.38z"/>
			<path class="st0" d="M339.14,365.91c0.66-2.31,1.53-4.67,2.97-6.6c0.58-0.91,1.27-1.69,2.02-2.38
				c-4.32,1.65-6.33,7.44-6.47,11.58c0,0.03,0.01,0.04,0.01,0.06C338.39,367.96,338.8,366.89,339.14,365.91z"/>
			<path class="st0" d="M313.61,394.96c-1.75,1.92-3.36,4.22-3.68,6.79c-0.02,0.17,0.06,0.25,0.17,0.26
				c0.3-0.27,0.56-0.57,0.81-0.88c0.88-1.62,1.5-3.36,2.37-4.98C313.39,395.75,313.49,395.35,313.61,394.96z"/>
			<path class="st0" d="M275.41,399.23c1.09-1.99,3.08-3.49,5.04-4.63c0.99-0.58,2.01-1.1,3.06-1.57c-2,0.46-3.72,1.19-5.43,2.43
				c-1.18,0.85-2.77,2.12-2.71,3.69C275.36,399.2,275.38,399.22,275.41,399.23z"/>
			<path class="st0" d="M120.82,341.27c0.74-2.7,2.56-4.52,4.83-5.84c-1.45,0.31-2.72,0.79-3.85,1.81
				c-1.02,0.91-2.05,2.77-1.03,3.99C120.78,341.25,120.8,341.26,120.82,341.27z"/>
			<path class="st0" d="M152.93,356.98c-1.33-1.25-1.98-2.98-2.04-4.76c-0.06-0.01-0.17,0.05-0.2,0.12
				c-0.57,1.2-0.65,2.36-0.04,3.57c0.61,1.2,1.87,2.08,3.24,1.92c0.04,0,0.08-0.02,0.12-0.05
				C153.61,357.56,153.24,357.28,152.93,356.98z"/>
			<path class="st0" d="M133.83,157.72c2.63-0.88,5.15-1.2,7.84-1.46c0.52-0.2,1.05-0.4,1.59-0.59c-3.3-0.27-6.85,0.13-9.66,1.94
				C133.67,157.65,133.75,157.69,133.83,157.72z"/>
			<path class="st0" d="M153.97,162.37c1.37-0.56,2.87-0.86,4.39-1.04c0.53-0.14,1.07-0.27,1.6-0.39c0.7-0.16,1.39-0.29,2.09-0.42
				c-2.94-0.38-6.86,0.09-9.2,2C153.23,162.48,153.6,162.43,153.97,162.37z"/>
			<path class="st0" d="M174.21,168.98c2.1-0.86,4.25-1.27,6.48-1.65c0.71-0.26,1.41-0.53,2.12-0.8c-3.37-0.2-6.81,0.53-9.53,2.5
				C173.58,169.03,173.9,169.01,174.21,168.98z"/>
			<path class="st0" d="M193.35,174.94c0.55-0.37,1.17-0.68,1.76-0.95c0.52-0.32,1.04-0.63,1.59-0.88c1.89-0.86,3.87-1.47,5.88-1.86
				c-2.65,0.05-5.18,0.61-7.61,1.78c-0.92,0.44-2.6,1.6-3.22,2.76C192.28,175.49,192.81,175.21,193.35,174.94z"/>
			<path class="st0" d="M229.69,173.4c-3.86,0.35-7.36,1.36-9.93,4.35c-0.2,0.24,0.06,0.45,0.3,0.3c3.09-2.04,6.07-3.31,9.61-4.44
				C229.78,173.58,229.85,173.38,229.69,173.4z"/>
			<path class="st0" d="M276.82,163.58c0.01-0.02,0.02-0.03,0.04-0.05c0.03-0.04,0.05-0.08,0.07-0.11c0.1-0.14,0.21-0.27,0.31-0.41
				c0.07-0.09,0.14-0.19,0.21-0.28c0.22-0.27,0.44-0.54,0.68-0.81c-0.01,0-0.02-0.01-0.04,0c-2.7,0.83-4.18,4.56-4.23,7.08
				C275.02,167.28,275.65,165.3,276.82,163.58z"/>
			<path class="st0" d="M293.88,146.99c-1.91,1.92-2.98,4.79-1.45,7.3c0.02,0.04,0.05,0.06,0.08,0.08
				C292.31,151.83,292.69,149.23,293.88,146.99z"/>
			<path class="st0" d="M306.68,135.92c0.19-0.38,0.4-0.75,0.61-1.12c-0.44,0.45-0.87,0.86-1.17,1.45c-0.3,0.6-0.45,1.37-0.28,2.03
				C305.9,137.45,306.35,136.59,306.68,135.92z"/>
			<path class="st0" d="M319.07,120.31c-1.14,1.15-2.1,2.62-1.17,4.02c0.11,0.17,0.3,0.15,0.45,0.06
				C318.23,122.96,318.42,121.5,319.07,120.31z"/>
			<path class="st0" d="M328.03,108.78c0.18-0.44,0.43-0.89,0.56-1.22c0.36-0.91,0.86-1.79,1.51-2.54c0.49-0.57,1.03-1.07,1.6-1.52
				c-1.2,0.54-2.52,1.34-3.25,2.43C328.03,106.57,327.41,108.08,328.03,108.78z"/>
		</g>
	</g>
</g>
</svg>
