<?xml version="1.0" encoding="utf-8"?>
<!-- Generator: Adobe Illustrator 24.2.3, SVG Export Plug-In . SVG Version: 6.00 Build 0)  -->
<svg version="1.1" xmlns="http://www.w3.org/2000/svg" xmlns:xlink="http://www.w3.org/1999/xlink" x="0px" y="0px"
	 viewBox="0 0 502.1 510.16" style="enable-background:new 0 0 502.1 510.16;" xml:space="preserve">
<style type="text/css">
	.st0{fill:#F7A1A1;}
	.st1{fill:#DB7057;}
	.st2{fill:#C95A4C;}
	.st3{opacity:0.4;fill:#F18A96;}
	.st4{fill:#F8C5BE;}
	.st5{fill:#CB6B7D;}
	.st6{opacity:0.5;fill:#F18A96;}
	.st7{fill:#FFFFFF;}
	.st8{opacity:0.5;}
	.st9{fill:#F18A96;}
	.st10{fill:#E87C7F;}
	.st11{fill:#CA6C60;}
	.st12{opacity:0.6;fill:#FFFFFF;}
	.st13{font-family:'MyriadPro-Regular';}
	.st14{font-size:32px;}
</style>
<g id="Layer_1">
</g>
<g id="font">
	<g>
		<g>
			<path class="st0" d="M224.15,282.65c0,0-5.08,13.74,0.85,26.22c7.3,15.4,11.48,11.12,10.77,21.86
				c-0.7,10.74,1.76,17.66,3.52,22.86c1.76,5.19,14.44,4.84,16.54-0.7c2.11-5.54,2.82-15.93,1.76-21.13
				c-1.05-5.19,12.32-19.04,10.56-37.06c0,0,13.38,19.4,33.09,8.66c0,0,26.75,7.62,31.33-17.67c0,0,15.84,1.73,16.89-22.16
				c0,0,11.97-0.35,9.15-20.78c0,0,9.51-5.2,6.34-19.05c0,0,11.62-3.81,7.39-21.48c0,0,12.68-5.89,1.77-28.75
				c0,0,4.93-9.7-0.7-18.36c0,0,5.27-8.66-4.59-20.43c0,0,6-6.93-2.09-19.74c0,0,5.27-9.35-1.77-22.51c0,0,4.93-3.81,1.4-12.82
				c0,0,4.93-4.16,2.82-13.51c0,0,11.62-5.2,7.74-19.4c0,0,7.56-18.81-3.02-24.22c-6.49-3.33-11.08-2.42-14.91-1.51
				c-2.42,0.58-4.55,1.15-6.67,0.67c-5.5-1.25-11.85-6.66-19.88-4.17c-8.04,2.5-8.46,10-8.46,12.49c0,0-11.42,4.16-9.73,13.32
				c0,0-10.15,2.08-11.42,12.9c0,0-11.42,1.25-12.27,14.15c0,0-14.8,0.83-16.49,12.07c0,0-13.54-3.75-20.73,0.83
				c0,0-17.77-2.92-25.38,4.16c0,0-8.04-9.15-21.15-4.58c0,0-9.73-7.49-18.62-4.58c0,0-2.96-8.32-18.62-6.24
				c0,0-3.8-6.66-18.19-4.16c0,0-9.73-5.83-17.77,4.58c0,0-12.69-1.67-18.61,7.91c-5.92,9.58-0.85,16.24-0.85,16.24
				s-6.35,2.09-4.65,9.99c0,0-5.92,5.41-4.23,15.81c0,0-3.81,4.17-2.54,16.24c0,0-6.77,9.57-2.54,20.4c0,0-3.38,5.83,1.27,21.23
				c0,0-7.61,10.82,2.96,22.48c0,0-5.92,28.72,21.15,32.46c0,0,5.92,19.98,30.46,14.57c0,0,6.35,16.23,30.88,7.08
				c24.53-9.16,11.85-48.7-3.38-70.76c-15.23-22.06-46.95-42.05-42.3-56.2c4.65-14.16,27.5-15.4,36.81-14.57
				c9.3,0.83,106.61,4.16,131.57-7.91c24.96-12.07,26.92,59.11,18.04,78.26c-3.45,7.43-8.27,32.11-4.95,40.7
				c1.02,2.62-7.87,5.73-8.57,7.84c-4.98,14.91-9.51,15.51-20.17,16.41c-7.77,0.65-16.06-2.58-23.94-5.81
				c-12.26-5.03-23.51-10.07-30.21-0.43C228.81,260.17,224.15,282.65,224.15,282.65L224.15,282.65z"/>
			<path class="st1" d="M246.89,357.38c-0.08,0-0.16,0-0.25,0c-3-0.05-6.54-1.07-7.45-3.75l-0.15-0.43
				c-1.72-5.07-4.07-12.01-3.38-22.47c0.39-5.98-0.7-7.22-3.09-9.94c-1.89-2.15-4.47-5.09-7.68-11.87c-5.83-12.26-1-25.91-0.86-26.3
				c0.11-0.52,4.86-22.78,15.67-38.33c6.53-9.4,17.52-4.87,29.16-0.09l1.18,0.48c8.64,3.55,16.39,6.43,23.89,5.81
				c10.33-0.86,15.05-1.26,20.08-16.33c0.3-0.91,2.05-1.98,3.89-3.11c2.46-1.5,5.24-3.21,4.68-4.65
				c-3.28-8.49,1.43-33.18,4.96-40.78c3.49-7.53,5.37-23.27,4.67-39.18c-0.79-17.99-4.55-31.56-10.32-37.24
				c-3.45-3.39-7.57-3.96-12.25-1.7c-13.14,6.35-46.24,8.3-71.7,8.8c-28.58,0.57-55.33-0.47-59.92-0.88
				c-5.01-0.45-12.92-0.24-20.11,1.66c-8.99,2.38-14.57,6.7-16.58,12.84c-2.87,8.73,8.07,19.56,20.74,32.11
				c7.76,7.68,15.78,15.63,21.55,24c11.6,16.8,20.76,42.02,15.82,57.71c-2.02,6.43-6.22,10.87-12.49,13.21
				c-7.02,2.62-17,4.72-24.73-0.11c-4.26-2.67-5.99-6.34-6.25-6.94c-7.02,1.53-16.92,1.84-24.44-5.3c-4.24-4.02-5.84-8.69-6.04-9.3
				c-7.66-1.07-13.4-4.25-17.07-9.45c-6.57-9.3-4.29-22.15-4.12-23.08c-5.46-6.04-5.97-11.85-5.44-15.66
				c0.54-3.86,2.23-6.51,2.47-6.87c-4.38-14.53-1.57-20.63-1.27-21.22c-4.04-10.42,2.12-19.79,2.55-20.42
				c-1.18-11.34,2.16-15.79,2.54-16.25c-1.31-8.19,2.16-13.9,4.23-15.82c-1.29-6.16,2.37-9.2,4.6-10.01
				c-0.29-0.43-1.29-2.02-1.73-4.45c-0.49-2.63-0.42-6.81,2.66-11.78c5.68-9.18,17.69-8.07,18.65-7.96
				c7.76-9.99,17.19-4.95,17.84-4.58c7.44-1.28,12-0.08,14.52,1.16c2.48,1.22,3.51,2.68,3.71,3c8.08-1.06,12.71,0.7,15.18,2.37
				c2.4,1.62,3.26,3.42,3.44,3.86c8.5-2.72,17.84,4.05,18.57,4.59c12.34-4.27,20.29,3.66,21.13,4.55
				c7.43-6.78,24.41-4.27,25.35-4.12c6.81-4.3,19.34-1.2,20.67-0.85c1.7-10.62,15.22-11.94,16.48-12.04
				c0.85-12.18,11.23-14,12.27-14.15c1.23-10.13,10.34-12.63,11.4-12.89c-1.52-8.7,8.79-12.94,9.74-13.31
				c0.01-3.73,1.16-10.23,8.54-12.52c5.63-1.74,10.43,0.36,14.67,2.21c1.85,0.81,3.6,1.57,5.27,1.95c1.98,0.45,3.95-0.03,6.22-0.57
				l0.4-0.1c4.33-1.03,8.73-1.69,14.98,1.51c4.37,2.23,6.28,7.16,5.53,14.25c-0.54,5.1-2.28,9.65-2.45,10.08
				c2,7.36-0.23,12.26-2.45,15.08c-2.19,2.78-4.8,4.14-5.29,4.37c1.93,8.7-2.27,12.97-2.82,13.48c2.73,7.05,0.32,11.42-1.39,12.81
				c3.61,6.79,3.9,12.54,3.5,16.18c-0.4,3.62-1.54,5.92-1.74,6.31c7.57,12.02,2.7,18.98,2.11,19.75
				c9.31,11.17,5.01,19.65,4.58,20.43c5.34,8.29,1.06,17.62,0.7,18.36c4.34,9.11,5.5,16.62,3.45,22.32
				c-1.59,4.43-4.68,6.21-5.21,6.48c2.16,9.12,0.03,14.48-2.15,17.37c-2.13,2.84-4.73,3.92-5.24,4.12
				c2.95,13.11-5.52,18.55-6.35,19.04c1.09,7.95,0.09,13.82-2.97,17.43c-2.5,2.96-5.61,3.35-6.19,3.4
				c-0.4,8.72-2.8,15.02-7.13,18.74c-4.26,3.66-9.04,3.49-9.78,3.44c-1.31,7.1-4.49,12.27-9.47,15.37
				c-9.04,5.63-21.13,2.52-21.93,2.3c-10.21,5.54-18.69,2.88-24-0.33c-4.92-2.97-8.11-6.95-8.96-8.08
				c0.97,11.26-3.85,20.76-7.38,27.72c-2.01,3.95-3.59,7.08-3.21,8.95c1.01,4.99,0.46,15.34-1.77,21.19
				C254.77,356.01,250.48,357.38,246.89,357.38z M250.21,238.99c-4.45,0-7.77,1.75-10.31,5.42c-10.87,15.62-15.59,38.03-15.64,38.26
				l0,0.01c-0.05,0.14-4.99,13.84,0.85,26.14c3.2,6.75,5.77,9.68,7.65,11.82c2.35,2.68,3.54,4.03,3.14,10.09
				c-0.68,10.42,1.66,17.34,3.37,22.39l0.15,0.43c0.88,2.58,4.32,3.56,7.25,3.61c0.08,0,0.16,0,0.24,0c3.52,0,7.71-1.33,8.85-4.32
				c2.18-5.72,2.75-16.21,1.76-21.07c-0.39-1.95,1.21-5.1,3.23-9.09c3.56-7.02,8.44-16.62,7.33-27.99l-0.04-0.4l0.23,0.33
				c0.03,0.05,3.4,4.88,9.13,8.33c5.27,3.18,13.69,5.82,23.83,0.3l0.04-0.02l0.04,0.01c0.12,0.03,12.58,3.48,21.81-2.26
				c4.95-3.08,8.11-8.24,9.39-15.32l0.02-0.1l0.1,0.01c0.05,0,5.18,0.51,9.72-3.39c4.3-3.69,6.67-9.97,7.06-18.68l0-0.1l0.1,0
				c0.03,0,3.45-0.14,6.14-3.33c3.02-3.58,4-9.41,2.91-17.33l-0.01-0.07l0.06-0.04c0.09-0.05,9.4-5.32,6.29-18.94l-0.02-0.09
				l0.09-0.03c0.03-0.01,2.91-0.98,5.24-4.09c2.15-2.87,4.26-8.19,2.08-17.27l-0.02-0.08l0.08-0.04c0.03-0.02,3.47-1.66,5.18-6.41
				c2.03-5.66,0.87-13.12-3.46-22.2l-0.02-0.05l0.02-0.05c0.05-0.1,4.83-9.75-0.7-18.25l-0.04-0.06l0.03-0.06
				c0.05-0.09,5.12-8.73-4.58-20.31l-0.06-0.07l0.06-0.07c0.01-0.02,1.49-1.76,1.96-5.03c0.44-3.02,0.09-8.01-4.07-14.59l-0.03-0.05
				l0.03-0.05c0.01-0.02,1.32-2.37,1.75-6.29c0.4-3.62,0.11-9.35-3.52-16.12l-0.04-0.08l0.07-0.05c0.05-0.04,4.82-3.87,1.37-12.69
				l-0.03-0.07l0.06-0.05c0.05-0.04,4.85-4.23,2.79-13.4l-0.02-0.08l0.08-0.04c0.03-0.01,2.91-1.33,5.29-4.35
				c2.19-2.79,4.38-7.64,2.39-14.93l-0.01-0.03l0.01-0.03c0.08-0.19,7.4-18.78-2.97-24.09c-6.19-3.17-10.55-2.52-14.84-1.5l-0.4,0.1
				c-2.3,0.55-4.29,1.03-6.32,0.58c-1.69-0.38-3.44-1.15-5.31-1.97c-4.21-1.84-8.97-3.92-14.52-2.2c-7.3,2.27-8.39,8.74-8.39,12.39
				v0.07l-0.07,0.02c-0.11,0.04-11.31,4.24-9.66,13.2l0.02,0.1l-0.1,0.02c-0.1,0.02-10.09,2.19-11.34,12.81l-0.01,0.08l-0.08,0.01
				c-0.11,0.01-11.35,1.39-12.18,14.06l-0.01,0.09l-0.09,0.01c-0.15,0.01-14.74,0.96-16.4,11.99l-0.02,0.12l-0.11-0.03
				c-0.14-0.04-13.58-3.68-20.65,0.82l-0.03,0.02l-0.04-0.01c-0.18-0.03-17.8-2.83-25.29,4.13l-0.08,0.07l-0.07-0.08
				c-0.08-0.09-8.15-9.04-21.03-4.55l-0.05,0.02l-0.05-0.03c-0.1-0.07-9.79-7.43-18.52-4.56l-0.1,0.03l-0.03-0.1
				c-0.01-0.02-0.77-2.08-3.41-3.86c-2.45-1.65-7.05-3.38-15.09-2.32l-0.07,0.01l-0.04-0.06c-0.01-0.02-0.98-1.66-3.67-2.99
				c-2.49-1.22-7.02-2.41-14.41-1.13l-0.04,0.01l-0.03-0.02c-0.02-0.01-2.46-1.45-5.83-1.6c-3.11-0.14-7.68,0.82-11.8,6.15
				l-0.04,0.05l-0.06-0.01c-0.13-0.02-12.69-1.55-18.51,7.86c-3.04,4.91-3.11,9.03-2.63,11.62c0.52,2.81,1.77,4.47,1.78,4.49
				l0.09,0.12l-0.14,0.05c-2.16,0.71-5.91,3.69-4.58,9.87l0.01,0.06l-0.04,0.04c-2.03,1.86-5.53,7.54-4.2,15.72l0.01,0.05
				l-0.03,0.04c-0.04,0.04-3.76,4.29-2.51,16.16l0,0.04l-0.02,0.03c-0.07,0.1-6.69,9.65-2.53,20.3l0.02,0.05l-0.03,0.04
				c-0.03,0.06-3.3,5.98,1.28,21.14l0.01,0.05l-0.03,0.04c-0.02,0.03-1.9,2.74-2.47,6.83c-0.52,3.77-0.01,9.53,5.42,15.52l0.04,0.04
				l-0.01,0.05c-0.03,0.13-2.67,13.43,4.07,22.97c3.65,5.16,9.37,8.32,16.99,9.37l0.07,0.01l0.02,0.06
				c0.01,0.05,1.53,5.02,6.01,9.27c7.48,7.1,17.36,6.76,24.33,5.23l0.09-0.02l0.03,0.08c0.02,0.04,1.63,4.07,6.21,6.93
				c7.66,4.78,17.57,2.69,24.54,0.09c6.2-2.31,10.36-6.71,12.36-13.08c4.92-15.63-4.22-40.77-15.79-57.53
				c-5.76-8.35-13.78-16.29-21.53-23.97c-12.72-12.6-23.7-23.47-20.79-32.33c2.04-6.21,7.67-10.57,16.73-12.97
				c7.22-1.91,15.16-2.12,20.19-1.67c4.59,0.41,31.33,1.46,59.9,0.88c25.44-0.51,58.51-2.45,71.61-8.78
				c4.77-2.31,8.97-1.72,12.49,1.74c5.8,5.71,9.59,19.34,10.38,37.38c0.7,15.94-1.18,31.72-4.69,39.28
				c-3.52,7.58-8.21,32.17-4.95,40.62c0.62,1.61-2.12,3.29-4.77,4.91c-1.81,1.11-3.52,2.16-3.8,3
				c-5.07,15.21-9.83,15.61-20.26,16.48c-7.53,0.63-15.32-2.27-23.98-5.82l-1.18-0.48c-5.93-2.44-11.53-4.74-16.48-5.28
				C251.59,239.03,250.89,238.99,250.21,238.99z"/>
		</g>
		<g>
			<path class="st2" d="M259.38,315.65c-3.21,2.05-6.84,3.42-11.21,3.9c-4.04,0.44-8.15-0.03-11.99-1.31
				c-1.12-0.38-2.17-0.89-3.16-1.5c-1-0.36-1.93-0.82-2.82-1.34c1.57,1.49,3.36,2.74,5.45,3.6c3.87,1.59,8.23,1.71,12.35,1.4
				c5.82-0.44,10.97-3.05,15.18-6.78C261.95,314.36,260.68,315.04,259.38,315.65z"/>
			<path class="st2" d="M290.98,261.52c-0.41,2.55-1.53,4.4-3.44,6.16c-1.76,1.61-3.84,3.25-6.27,3.62
				c-0.19,0.03-0.28,0.29-0.15,0.34c-0.02,0.05-0.03,0.1-0.01,0.15c3.2,7.16-1.25,14.87-7.15,19.24c-3.17,2.33-7.13,3.23-10.97,3.81
				c-4.68,0.72-8.33-0.11-12.62-1.86c-0.09-0.03-0.22,0.12-0.12,0.17c1.79,0.83,3.63,1.81,5.58,2.24c2.36,0.52,4.66,0.35,7.04,0.06
				c4.34-0.53,8.45-1.82,11.96-4.42c5.69-4.22,10.16-12.6,6.78-19.36c2.42-0.06,4.59-2.19,6.29-3.65c1.96-1.69,3.54-3.99,3.47-6.62
				C291.36,261.16,291.01,261.38,290.98,261.52z"/>
			<path class="st2" d="M304.77,260.86c-0.09-0.07-0.27,0.1-0.18,0.17c4.12,3.62,3,12.19-0.15,16.04c-0.06,0.08,0.04,0.12,0.1,0.06
				C308.28,273.46,309.49,264.28,304.77,260.86z"/>
			<path class="st2" d="M304.11,277.35c-0.09-0.03-0.26,0.12-0.18,0.21c3.01,2.78,3.78,6.53,3.83,10.46
				c0.06,4.92-2.91,11.15-6.43,14.63c-0.12,0.12,0,0.23,0.13,0.13c1.74-1.44,2.93-3.63,4.02-5.56c1.5-2.69,2.51-5.45,2.84-8.5
				C308.69,285.26,307.94,278.86,304.11,277.35z"/>
			<path class="st2" d="M331.71,272.33c-1.52-4.74-4.41-7.73-9.28-9.07c-0.1-0.03-0.25,0.15-0.14,0.19
				c4.74,1.64,7.23,4.64,8.86,9.24c1.58,4.46,2.32,9.6,1.23,14.24c-0.04,0.15,0.18,0.05,0.21-0.04
				C334.11,282.15,333.2,276.97,331.71,272.33z"/>
			<path class="st2" d="M343.32,249.37c-3.48-2.17-7.48-3.26-11.01-1.32c-0.34-7.27-7.43-13.72-14.94-12.74
				c-0.12,0.02-0.23,0.26-0.05,0.24c7.78-0.72,13.53,5.78,14.5,12.79c-0.32,0.2-0.64,0.42-0.95,0.68c-0.1,0.09-0.02,0.23,0.1,0.15
				c0.29-0.21,0.59-0.39,0.89-0.55c0.04,0.3,0.07,0.6,0.09,0.9c0.01,0.23,0.34,0,0.36-0.15c0.02-0.33,0.02-0.65,0.02-0.98
				c4.04-1.93,8.28-0.19,11.81,2.4c3.98,2.92,5.03,7.17,5.33,11.81c0.01,0.12,0.17,0,0.18-0.07
				C349.83,257.06,348.2,252.4,343.32,249.37z"/>
			<path class="st2" d="M351.39,232.04c-3.36-2.39-6.6-2.39-10.07-1.07c-1.06-6.1-8.2-9.58-14.12-6.43
				c-0.09,0.05-0.13,0.24,0.01,0.17c3.33-1.54,7.61-1.06,10.47,1.23c1.66,1.32,2.56,3.26,3.02,5.27c-0.15,0.07-0.31,0.13-0.47,0.2
				c-0.1,0.04-0.14,0.24,0.01,0.18c0.17-0.06,0.33-0.13,0.51-0.19c0.14,0.66,0.24,1.32,0.31,1.97c0.02,0.24,0.36,0,0.37-0.15
				c0.05-0.71,0.02-1.38-0.08-2.04c1.53-0.56,2.86-0.88,4.7-0.67c2.32,0.26,4.48,1.75,6.23,3.13c3.13,2.49,5.35,6.2,6.63,9.9
				c0.04,0.12,0.26-0.03,0.23-0.13C358.06,238.7,355.38,234.87,351.39,232.04z"/>
			<path class="st2" d="M359.41,214.31c-1.37-1.2-3.02-2.04-4.8-2.45c-1.87-0.43-3.32,0.18-5.14,0.39
				c-0.06,0.01-0.13,0.15-0.05,0.14c1.36-0.06,2.54-0.4,3.97-0.34c2.4,0.1,4.55,1.75,6.25,3.24c2.59,2.26,4.23,5.43,5.34,8.59
				c0.03,0.08,0.16-0.03,0.14-0.1C364.04,220.02,362.41,216.93,359.41,214.31z"/>
			<path class="st2" d="M372.75,203.22c-1.11-4.09-4.57-7.18-8.51-8.71c-2.85-1.1-7.81-1.57-10.26,0.63
				c-0.05,0.05-0.01,0.13,0.06,0.09c3.07-2.05,8.22-1.05,11.32,0.44c3.33,1.58,5.63,4.51,7.14,7.72
				C372.57,203.53,372.78,203.33,372.75,203.22z"/>
			<path class="st2" d="M374.45,172.48c-1.48,1.83-2.62,3.67-4.52,5.16c-1.83,1.43-3.73,2.58-5.94,3.37
				c-2.51,0.9-9.15,1.84-10.78-1.15c-0.06-0.11-0.24,0.04-0.2,0.13c1.45,3.25,7.38,2.5,10.1,1.84c5.24-1.29,8.53-5.26,11.53-9.27
				C374.75,172.4,374.54,172.36,374.45,172.48z"/>
			<path class="st2" d="M373.67,154.4c-2.01,4.42-5.37,7.85-9.26,10.78c-2.84,2.14-9.31,4.47-12.05,0.93
				c-0.06-0.07-0.22,0.07-0.17,0.14c2.08,3.11,7.42,2.2,10.24,0.66c4.79-2.61,9.81-7.3,11.52-12.49
				C374.03,154.18,373.74,154.24,373.67,154.4z"/>
			<path class="st2" d="M369.06,134.11c-2.71,3.95-5.99,6.94-10.11,9.48c-2.87,1.77-8.15,2.75-10.23-0.58
				c-0.05-0.09-0.21,0.04-0.17,0.12c1.74,3.39,6.05,2.71,9.08,1.58c4.84-1.82,9.04-6.26,11.63-10.52
				C369.37,134.02,369.15,133.97,369.06,134.11z"/>
			<path class="st2" d="M367.15,113.94c-2.28,3.4-5.72,5.43-9.54,6.85c-2,0.75-4.1,0.99-6.22,0.8c-2.28-0.21-3.83-1.7-5.33-3.21
				c-0.06-0.06-0.2,0.07-0.14,0.13c2.95,3.37,6.32,4.49,10.79,3.06c4.15-1.33,8.53-3.64,10.64-7.58
				C367.44,113.84,367.22,113.84,367.15,113.94z"/>
			<path class="st2" d="M365.41,92.08c-2.83,3.6-5.86,6.37-9.97,8.51c-3.68,1.91-8.51,3.49-12.01,0.47
				c-0.08-0.07-0.24,0.09-0.17,0.16c3.12,3,7.29,2.02,10.91,0.48c4.64-1.98,8.82-5.25,11.43-9.52
				C365.72,91.98,365.51,91.95,365.41,92.08z"/>
			<path class="st2" d="M366.75,79.01c-3.36,2.51-7.03,3.98-11.16,4.87c-3.64,0.79-9.21,1.11-11.63-2.26
				c-0.04-0.06-0.18,0.05-0.14,0.11c2.02,3.26,6.17,3.27,9.67,2.96c4.94-0.43,9.48-2.55,13.34-5.52
				C366.93,79.09,366.89,78.91,366.75,79.01z"/>
			<path class="st2" d="M370.61,65.31c-3.01,1.05-5.99,1.14-9.14,0.74c-2.48-0.32-6.53-1.65-7.81-3.89
				c-0.06-0.1-0.24,0.04-0.19,0.13c1.1,2.34,4.44,3.69,6.88,4.15c3.5,0.67,7.07,0.72,10.28-0.88
				C370.76,65.5,370.83,65.24,370.61,65.31z"/>
			<path class="st2" d="M132.92,96.82c-6.23,2.97-13.33,3.78-18.91-0.83c-0.06-0.05-0.17,0.06-0.12,0.11
				c4.75,5.44,13.33,4.13,19.07,0.94C133.09,96.97,133.09,96.74,132.92,96.82z"/>
			<path class="st2" d="M144.04,115.6c-5.27,1.88-14.81,0.96-15.49-6.13c-0.01-0.13-0.19,0-0.2,0.08c-0.06,0.95,0.07,1.8,0.35,2.55
				c-6.14,3.16-15.89-0.25-19.03-6.23c-0.06-0.11-0.23,0.04-0.2,0.13c1.18,3.69,5.17,5.58,8.6,6.88c3.4,1.29,7.6,1.45,10.73-0.55
				c2.09,4.97,10.83,5.62,15.26,3.58C144.24,115.85,144.31,115.51,144.04,115.6z"/>
			<path class="st2" d="M140.16,131.85c-4.47,2.82-9.93,2.96-13.84-0.37c0-0.04-0.02-0.07-0.08-0.07c-0.44-0.38-0.86-0.79-1.26-1.26
				c-0.06-0.07-0.21,0.07-0.16,0.13c0.3,0.46,0.64,0.88,0.99,1.27c-4.3,1.45-8.47,0.77-12.39-1.46c-3.71-2.1-6.05-5.02-8.13-8.58
				c-0.05-0.09-0.2,0.03-0.17,0.11c3.03,7.4,12.73,13.96,20.9,10.15c3.7,3.75,10.04,3.67,14.27,0.39
				C140.49,132,140.43,131.68,140.16,131.85z"/>
			<path class="st2" d="M142.33,147.18c-2.92,2.53-6.15,3.95-10.11,3.57c-2.24-0.21-5.05-1.69-6.64-3.63
				c0.27-0.18,0.53-0.37,0.78-0.58c0.15-0.12,0.04-0.33-0.14-0.21c-0.28,0.18-0.56,0.36-0.85,0.52c-0.37-0.49-0.65-1.01-0.83-1.54
				c-0.03-0.1-0.21,0.03-0.19,0.1c0.11,0.59,0.33,1.14,0.62,1.64c-4.21,2.2-9.01,1.85-13.44,0.04c-4.69-1.91-7.02-5.7-8.9-10.07
				c-0.04-0.09-0.16,0.03-0.15,0.1c1.29,5.45,4.96,9.15,10.27,11.07c3.96,1.42,8.78,1.38,12.4-0.82c1.43,2.18,4.3,3.53,6.79,3.98
				c3.98,0.71,7.81-1.44,10.55-4.02C142.65,147.2,142.49,147.05,142.33,147.18z"/>
			<path class="st2" d="M146.49,160.63c-3.21,2.96-6.84,5.05-11.36,5.11c-2.59,0.03-6.15-1.28-8.09-3.42
				c0.04-0.05,0.09-0.09,0.14-0.14c0.17-0.18-0.01-0.37-0.2-0.19c-0.04,0.04-0.09,0.08-0.13,0.12c-0.41-0.5-0.74-1.03-0.95-1.6
				c-0.04-0.12-0.22,0.04-0.2,0.13c0.15,0.66,0.43,1.25,0.8,1.78c-4.51,3.98-10.1,4.36-15.82,2.68c-4.26-1.25-9.36-3.69-11.27-7.87
				c-0.03-0.07-0.15,0.02-0.13,0.08c1.58,5.02,8.03,7.74,12.84,8.8c5.33,1.17,10.66,0.41,14.56-3.42c1.79,2.35,5.38,3.5,8.17,3.66
				c4.51,0.25,8.96-2.29,11.85-5.48C146.92,160.64,146.71,160.43,146.49,160.63z"/>
			<path class="st2" d="M147.37,167.64c-1.09,3.76-4.51,7.73-8.14,9.36c-2.09,0.94-4.88,1.5-7.31,1.07
				c0.08-0.11,0.17-0.21,0.24-0.32c0.18-0.26-0.15-0.31-0.3-0.12c-0.1,0.12-0.22,0.24-0.32,0.36c-0.92-0.21-1.79-0.56-2.53-1.11
				c-0.1-0.08-0.28,0.09-0.2,0.19c0.61,0.72,1.37,1.18,2.23,1.46c-7.5,7.79-22.38,8.23-29.89,0.16c-0.05-0.06-0.18,0.05-0.14,0.11
				c3.28,4.97,10.93,6.69,16.71,6.2c5.17-0.44,10.41-2.37,13.74-6.36c2.76,0.69,6.31-0.38,8.59-1.42c3.33-1.52,6.91-6.15,7.61-9.65
				C147.71,167.37,147.41,167.51,147.37,167.64z"/>
			<path class="st2" d="M151.51,180.66c-0.01-0.21-0.31,0-0.32,0.13c-0.25,4.06-1.44,7.62-4.16,10.77
				c-1.78,2.06-5.01,3.86-8.09,4.14c0.06-0.14,0.13-0.28,0.19-0.42c0.12-0.3-0.27-0.21-0.38-0.03c-0.09,0.16-0.19,0.32-0.28,0.48
				c-1.02,0.04-2.02-0.1-2.94-0.47c-0.09-0.03-0.22,0.12-0.12,0.18c0.86,0.52,1.79,0.75,2.77,0.79c-1.55,2.62-3.24,4.77-5.94,6.53
				c-3.41,2.21-7.43,3.07-11.44,3.32c-6.6,0.41-13.32-1.02-18.11-5.7c-0.05-0.05-0.15,0.05-0.11,0.11
				c4.89,6.13,13.55,6.78,20.91,5.92c6.4-0.75,12.42-4.47,15.2-10.18c2.97-0.08,6.17-1.91,8.11-3.77
				C149.91,189.53,151.72,184.86,151.51,180.66z"/>
			<path class="st2" d="M172.21,199.4c-0.01-0.21-0.31,0-0.32,0.14c-0.64,9.28-11.65,15.49-20.64,13.56
				c-0.1-0.48-0.25-0.93-0.48-1.34c-0.1-0.18-0.37,0.06-0.32,0.22c1.9,6.35-3.52,12.79-8.22,16.44c-2.3,1.79-4.88,3.16-7.59,4.26
				c-3.26,1.31-7.17,2.57-10.72,2.13c-0.07-0.01-0.19,0.15-0.1,0.17c3.4,0.78,6.8-0.43,10.02-1.49c3.38-1.12,6.63-2.97,9.36-5.21
				c2.88-2.36,5.11-5.04,6.76-8.36c0.84-1.71,1.63-4.25,1.36-6.37c1.55,0.78,3.92,0.34,5.49,0.17c2.82-0.31,5.44-1.23,7.88-2.63
				C168.88,208.72,172.47,204.31,172.21,199.4z"/>
			<path class="st2" d="M184.22,208.75c-0.08-0.13-0.32,0.05-0.26,0.17c2.09,4.17,0.55,9.08-2.07,12.71
				c-3.04,4.21-7.76,5.07-12.58,4.43c-0.25-1.26-0.64-2.47-1.22-3.58c-0.08-0.16-0.34,0.06-0.29,0.19c0.39,1.12,0.67,2.21,0.85,3.3
				c-0.01,0-0.02,0-0.03,0c-0.08-0.01-0.2,0.14-0.1,0.18c0.06,0.02,0.11,0.03,0.16,0.05c0.68,4.38-0.25,8.53-2.12,12.87
				c-0.97,2.26-2.63,4.07-4.37,5.79c-1.81,1.8-4.51,4.5-7.19,4.93c-0.08,0.01-0.18,0.2-0.06,0.19c1.88-0.09,3.74-1.46,5.14-2.6
				c2.39-1.94,4.62-4.18,6.27-6.77c2.52-3.93,3.85-9.4,3.01-14.2c4.74,1.34,9.16-0.26,12.49-3.89
				C185.11,218.98,186.74,213.01,184.22,208.75z"/>
		</g>
		<path class="st3" d="M373.42,155.12c0,0,5.27-8.66-4.59-20.43c0,0,6-6.93-2.09-19.74c0,0,5.27-9.35-1.77-22.51
			c0,0,4.93-3.81,1.4-12.82c0,0,1.49-1.26,2.48-3.94c-3.74,3.6-12.4,5.99-15.93,4.71c-3.69-1.34,2.87-8.97,9.71-11.11
			c4.44-1.39,6.28-0.58,7.04,0.05c-0.06-1-0.22-2.06-0.48-3.21c0,0,1.7-0.76,3.57-2.49c-3.27,1.18-6.23,0.92-6.84-1.57
			c-0.82-3.35,4.24-9.77,7.94-10.44c3.1-0.56,3.69,1.42,3.8,2.07c0.17-2.03-0.01-4.35-0.73-6.97c0,0,7.56-18.81-3.02-24.22
			c-6.49-3.33-11.08-2.42-14.91-1.51c-2.42,0.58-4.55,1.15-6.67,0.67c-5.5-1.25-11.85-6.66-19.88-4.17c-8.04,2.5-8.46,10-8.46,12.49
			c0,0-11.42,4.16-9.73,13.32c0,0-10.15,2.08-11.42,12.9c0,0-11.42,1.25-12.27,14.15c0,0-14.8,0.83-16.49,12.07
			c0,0-13.54-3.75-20.73,0.83c0,0-17.77-2.92-25.38,4.16c0,0-8.04-9.15-21.15-4.58c0,0-9.73-7.49-18.62-4.58
			c0,0-2.96-8.32-18.62-6.24c0,0-3.8-6.66-18.19-4.16c0,0-9.73-5.83-17.77,4.58c0,0-9.34-1.22-15.74,4.49
			c1.43-0.36,3.15-0.44,5.2,0.03c7.84,1.78,4.02,22.49-5.84,21.06c0,0,0.18,1.61,4.2,2.86c4.02,1.25,0.36,13.21-7.11,10
			c0,0,6.39,6.24,3.47,13.03c-2.92,6.78-8.76,3.75-10.03,1.61c0,0,0,2.86,3.28,6.07c3.28,3.21,6.57,10.18,3.1,12.85
			c-3.47,2.68-7.48-0.36-10.03-4.1c0,0-0.36,4.82,4.93,9.28c5.29,4.46,6.93,10.89,1.82,12.67c-3.99,1.39-9.64-2.98-12.02-9.64
			c0.1,2.04,0.5,4.19,1.36,6.4c0,0-3.38,5.83,1.27,21.23c0,0-7.61,10.82,2.96,22.48c0,0-5.92,28.72,21.15,32.46
			c0,0,5.92,19.98,30.46,14.57c0,0,6.35,16.23,30.88,7.08c24.53-9.16,11.85-48.7-3.38-70.76c-15.23-22.06-46.95-42.05-42.3-56.2
			c4.65-14.16,27.5-15.4,36.81-14.57c9.3,0.83,106.61,4.16,131.57-7.91c24.96-12.07,26.92,59.11,18.04,78.26
			c-3.45,7.43-8.27,32.11-4.95,40.7c1.02,2.62-7.87,5.73-8.57,7.84c-4.98,14.91-9.51,15.51-20.17,16.41
			c-7.77,0.65-16.06-2.58-23.94-5.81c-12.26-5.03-23.51-10.07-30.21-0.43c-11,15.82-15.66,38.3-15.66,38.3s-5.08,13.74,0.85,26.22
			c5.58,11.77,9.33,12.05,10.48,16.32c0.01-0.57-0.05-1.07-0.22-1.42c-0.91-1.96,5.47,1.79,10.76,0c5.29-1.78,4.01,1.07,2.37,6.42
			c-1.52,4.95,2.57,18.13,0.03,27c3.31-0.34,6.45-1.78,7.41-4.3c2.11-5.54,2.82-15.93,1.76-21.13
			c-1.05-5.19,12.32-19.04,10.56-37.06c0,0,13.38,19.4,33.09,8.66c0,0,26.75,7.62,31.33-17.67c0,0,15.84,1.73,16.89-22.16
			c0,0,11.97-0.35,9.15-20.78c0,0,9.51-5.2,6.34-19.05c0,0,11.62-3.81,7.39-21.48c0,0,12.68-5.89,1.77-28.75
			C374.12,173.48,379.05,163.78,373.42,155.12z M167.13,212.92c0.8-1.06,1.86-1.81,2.73-2.79c0.94-1.07,1.67-2.24,2.25-3.5
			c0.16-1.31,0.56-2.95,1.84-3.5c1.53-0.65,3.06,1.42,3.55,2.55c1.4,3.19,1,7.42-1.06,10.28c-1.91,2.66-5.11,3.84-7.91,1.55
			C167.09,216.35,165.8,214.69,167.13,212.92z M163.67,248.71c0.97-1.18,2.03-2.29,3.04-3.44c0-0.04,0-0.08,0.03-0.14
			c0.67-1.19,1.63-2.59,2.71-3.48c0.06-0.1,0.12-0.19,0.18-0.29c0.05-0.09,0.21-0.11,0.23-0.03c1.46-1.01,3.06-0.99,4.34,1.72
			c1.57,3.32,2.5,9.76-0.6,12.66c-2.96,2.77-9.07,0.67-11.2-2.31C161.23,251.78,162.63,249.97,163.67,248.71z M102.1,165.83
			c2.55-3.03,10.4,3.03,10.4,3.03s8.03,5.17,8.39,10c0.24,3.21-6.57,6.78-13.86,1.6C99.72,175.29,99.54,168.86,102.1,165.83z
			 M101.55,191.35c-0.33-4.23,2.66-5.37,2.66-5.37c2.93-1.19,8.68,0.68,11.43,1.79c3.92,1.59,6.09,4.81,6.12,8.89
			c0.03,3.47-2.43,5.94-6.06,5.94C106.04,202.59,101.88,195.59,101.55,191.35z M128.28,226.88c-2.4,0.92-5.45,1.27-7.97,0.74
			c-4.31-0.89-7.8-3.78-10.43-7.1c-1.97-2.5-4.84-6.75-2.06-9.71c0.47-0.51,1.02-0.89,1.61-1.18c3.13-1.54,7.59-0.41,10.75-0.15
			c5.71,0.46,11.58,2.88,13.59,8.63C135.09,221.89,131.78,225.53,128.28,226.88z M155.99,235.03c-0.51,1.96-1.96,3.83-3.65,4.93
			c-3.34,2.19-7.71,3.37-11.73,3.18c-3.17-0.14-9.11-2.73-5.74-6.69c0.86-1.01,1.93-1.71,3.11-2.23c2.32-1.01,5.05-1.33,7.43-1.92
			C148.27,231.59,157.6,228.8,155.99,235.03z M147.19,197.09c0.5-1.52,2.51-7.58,5.26-6.47c2.09,0.83,0.98,3.83,1.06,5.49
			c0.17,3.14,1.46,6.07,1.66,9.13c0.08,1.2-1.23,1.75-2.22,1.6c-1.76-0.26-3.79-3.27-4.69-4.56c-1.07-1.52-1.28-3.22-0.97-4.94
			C147.2,197.32,147.14,197.24,147.19,197.09z M145.09,178.11c1.32,0.69,1.46,1.94,1.25,3.29c-0.42,2.78-1.42,6.61-3.91,8.33
			c-3.17,2.18-5.26-4.7-4.96-6.68c0.26-1.76,0.93-2.62,2.28-3.57c0.02-0.04,0.05-0.08,0.09-0.11
			C141.41,177.96,142.98,177.02,145.09,178.11z M142.04,167.74c0.49,0.99-0.12,2.19-0.78,2.97c-1.31,1.56-4.03,3.65-6.15,2.33
			c-1.48-0.92-1.41-3.42-0.32-4.67c0.77-1.28,2.58-1.62,4.24-1.62C139.95,166.75,141.55,166.78,142.04,167.74z M140.92,119.99
			c-0.65,0.82-1.85,1.24-2.61,1.96c-1.1,1.06-2.08,2.43-3.37,3.28c-1.15,0.76-2.46,0.79-2.92-0.71c-0.49-1.6-0.43-3.5,0.16-5.08
			c0.14-0.38,0.47-0.74,0.86-0.95c0.03-0.09,0.06-0.17,0.09-0.23c0.03-0.07,0.2-0.12,0.17-0.01c-0.01,0.04-0.03,0.09-0.04,0.15
			c0.19-0.07,0.39-0.11,0.59-0.11c1.58,0.06,2.95,0.53,4.57,0.4c0.5-0.04,2.66-0.47,2.91,0.27
			C141.45,119.37,141.22,119.72,140.92,119.99z M140.68,109.36c-1.27,1.24-4.67,3.59-5.88,0.97c-1.07-2.34,0.12-5.63,2.03-7.25
			c0.03-0.03,0.06-0.04,0.09-0.04c1.19-1.22,2.82-1.73,4.6-0.41C143.67,104.23,142.27,107.81,140.68,109.36z M243.47,316.99
			c-10.77-0.36-14.41-8.92-14.6-13.2c-0.18-4.29,7.11-4.46,7.11-4.46c3.1-0.53,18.06-1.61,19.88,2.5
			C257.7,305.92,254.24,317.34,243.47,316.99z M253.29,291.33c-6.85-1.96,3.84-15.36,11.19-16.83c7.35-1.47,9.86,5.88,9.86,5.88
			C276.68,288.55,260.14,293.29,253.29,291.33z M302.58,292.72c-5.65,15.17-27.36,6.96-24.26-0.36c3.1-7.32,14.41-7.85,20.25-5.17
			C304.4,289.86,302.58,292.72,302.58,292.72z M328.6,283.44c-0.7,9.44-10.87,18.7-17.71,17.67c-6.84-1.03,5.79-19.04,11.92-21.44
			C328.95,277.26,328.6,283.44,328.6,283.44z M372.76,164.71c0.68,9.5-8.62,15.13-11.36,12.18c-2.73-2.94,5.06-10.71,8.08-13.12
			C372.49,161.36,372.76,164.71,372.76,164.71z M371.14,144.05c0.24,0.61,0.42,1.26,0.52,1.88c0.61,3.83-0.68,7.97-2.95,11.09
			c-1.63,2.24-6.43,7.31-9.9,5.15c-4.1-2.54,1.51-15.93,6.02-20.21C367.73,139.21,370.07,141.36,371.14,144.05z M366.83,121.28
			c3.05,5.16-0.06,12.6-3.96,16.42c-1.93,1.9-6.39,5.34-7.9,0.91c-1.92-5.62,3.7-15.39,7.8-17.8
			C364.87,119.57,366.12,120.06,366.83,121.28z M364.75,110.93c-1.1,3.38-3.57,6.57-7.45,6.93c-8.48,0.8-2.33-14.06,2.33-17.27
			c2.45-1.69,3.93-1.58,4.77-0.51C366.63,102.93,365.75,107.83,364.75,110.93z M362.23,83.86c5.2-2.01,3.56,2.95,3.56,2.95
			c-3.28,8.43-14.23,14.19-14.23,9.1C351.56,90.82,357.03,85.87,362.23,83.86z M336.32,278.44c-5.47-1.79,0.55-23.56,5.29-24.99
			c4.74-1.43,5.65,6.78,5.65,6.78C347.82,272.37,341.8,280.23,336.32,278.44z M356.43,248.3c-0.36,2.82-2.84,9.1-6.77,5.55
			c-5.39-4.88-6.63-19.48-1.03-19.48c3.83,0,6.01,2.63,7.09,5.87C356.59,242.88,356.73,245.93,356.43,248.3z M354.49,231.9
			c-4.15-6.86-2.39-14.82,3.35-14.04c5.74,0.78,5.74,6.24,5.74,6.24C364.53,232.06,358.63,238.77,354.49,231.9z M363.3,215.14
			c-3.47-3.04-4.21-15.6,0.62-16.56c4.83-0.96,6.68,7.18,6.68,7.18C372.09,215,366.77,218.17,363.3,215.14z M375.09,185.86
			c0.96,10.58-5.89,8.43-9.03,5.35c-3.14-3.08-1.78-7.49,3.42-9.51C374.68,179.7,375.05,185.46,375.09,185.86z"/>
		<g>
			<path class="st4" d="M302.02,280.64c-4.94,0-10.45-1.29-16.42-3.86c-7.25-3.12-12.77-7.08-14.81-8.64
				c-6.95-5.31-10.33-4.22-10.37-4.2c0.09-0.03,0.14-0.06,0.14-0.06l-2.45-4.79c0.99-0.49,6.41-2.53,16.04,4.83
				c6.34,4.85,19.95,12.66,30.69,11.17c4.41-0.61,7.87-2.69,10.56-6.34c6.77-9.18,16.67-25.03,24.13-41.99
				c9.62-21.84,13.21-40.36,10.69-55.05c-0.55-3.17-1.06-6.15-1.55-8.98c-4.96-28.8-7.02-40.72-7.52-56.98
				c-0.16-5.21-0.28-10.23-0.38-14.66c-0.16-7.08-0.33-14.39-0.61-16.45c-0.74-1.21-0.38-2.8,0.84-3.59
				c0.85-0.56,1.94-0.61,2.85-0.15c1.68,0.85,1.82,2.35,2.04,7.42c0.14,3.16,0.24,7.56,0.36,12.66c0.1,4.42,0.22,9.42,0.37,14.61
				c0.5,15.89,2.54,27.7,7.45,56.25c0.48,2.83,1,5.81,1.54,8.98c2.7,15.72-1.02,35.25-11.06,58.05c-7.64,17.35-17.78,33.59-24.72,43
				c-3.56,4.83-8.35,7.69-14.23,8.51C304.45,280.56,303.25,280.64,302.02,280.64z"/>
			<path class="st5" d="M302.02,280.74c-4.95,0-10.49-1.3-16.46-3.87c-7.25-3.12-12.79-7.09-14.83-8.65
				c-6.83-5.22-10.13-4.23-10.26-4.19c0,0,0,0-0.01,0l-0.08-0.19c0,0,0,0,0.01,0v0c0.01,0,0.02-0.01,0.03-0.01l-2.45-4.79l0.1-0.05
				c1-0.49,6.45-2.57,16.15,4.84c6.33,4.84,19.91,12.64,30.61,11.15c4.38-0.61,7.81-2.67,10.49-6.3
				c6.77-9.18,16.66-25.03,24.12-41.97c9.61-21.81,13.2-40.31,10.69-54.99c-0.3-1.71-0.58-3.37-0.86-4.98l-0.72-4.16
				c-4.95-28.71-6.99-40.59-7.49-56.83c-0.17-5.39-0.29-10.75-0.38-14.66c-0.17-7.8-0.34-14.42-0.61-16.42
				c-0.76-1.27-0.37-2.9,0.88-3.71c0.88-0.58,2.01-0.64,2.96-0.16c1.74,0.88,1.88,2.4,2.09,7.51c0.14,3.08,0.23,7.35,0.35,12.29
				l0.01,0.37c0.1,4.27,0.21,9.34,0.37,14.61c0.5,15.87,2.53,27.66,7.44,56.14l0.02,0.09c0.21,1.25,0.43,2.53,0.66,3.84
				c0.29,1.66,0.58,3.37,0.88,5.14c2.7,15.74-1.02,35.29-11.06,58.12c-7.64,17.35-17.78,33.6-24.73,43.02
				c-3.58,4.85-8.39,7.73-14.3,8.55C304.46,280.66,303.24,280.74,302.02,280.74z M261.33,263.74c1.46,0,4.62,0.57,9.53,4.32
				c2.04,1.56,7.56,5.51,14.78,8.62c5.95,2.55,11.46,3.85,16.38,3.85c1.22,0,2.42-0.08,3.59-0.25c5.85-0.81,10.61-3.66,14.16-8.47
				c6.94-9.41,17.07-25.65,24.71-42.98c10.03-22.78,13.75-42.3,11.05-58c-0.3-1.77-0.6-3.48-0.88-5.13
				c-0.23-1.31-0.45-2.59-0.66-3.84l-0.02-0.09c-4.91-28.5-6.94-40.29-7.44-56.17c-0.15-5.27-0.27-10.34-0.37-14.61l-0.01-0.37
				c-0.11-4.94-0.21-9.21-0.35-12.29c-0.21-5.02-0.35-6.5-1.98-7.33c-0.88-0.44-1.93-0.39-2.75,0.15c-1.16,0.76-1.52,2.28-0.81,3.45
				l0.01,0.04c0.27,1.99,0.44,8.63,0.61,16.47c0.09,3.91,0.21,9.27,0.38,14.66c0.5,16.22,2.55,28.1,7.49,56.8l0.72,4.16
				c0.28,1.61,0.56,3.27,0.86,4.98c2.52,14.72-1.08,33.26-10.7,55.11c-7.46,16.96-17.36,32.82-24.14,42.01
				c-2.71,3.68-6.19,5.77-10.63,6.38c-10.78,1.49-24.41-6.33-30.76-11.19c-9.32-7.13-14.64-5.41-15.84-4.87l2.38,4.65
				C260.8,263.77,261.03,263.74,261.33,263.74z"/>
		</g>
		<path class="st6" d="M355.62,170.83c-0.54-3.17-1.06-6.15-1.54-8.98c-4.92-28.54-6.96-40.36-7.45-56.25
			c-0.15-5.19-0.27-10.2-0.37-14.61c-0.12-5.1-0.22-9.5-0.36-12.66c-0.22-5.06-0.36-6.56-2.04-7.42c-0.91-0.46-2-0.41-2.85,0.15
			c-1.22,0.79-1.58,2.38-0.84,3.59c0.28,2.06,0.46,9.37,0.61,16.45c0.1,4.43,0.21,9.45,0.38,14.66c0.47,15.08,2.27,26.43,6.49,50.97
			c0.36-0.5,0.86-1.02,1.52-0.92c1.07,0.16,1.51,2.22,1.72,3.01c0.73,2.71,1.16,5.47,1.77,8.2c1.34,5.94,2.39,12.2,2.03,18.32
			c-0.17,5.14-1.1,10.22-2.35,15.22c-1.42,5.74-2.97,11.5-5.07,17.05c-2.01,5.3-4.4,10.46-7.04,15.49
			c-3.15,6.02-5.97,12.46-9.44,18.39c-2.47,4.24-5.2,8.37-8.02,12.39c-2.17,3.08-4.56,6.07-7.46,8.53
			c-5.7,4.83-12.83,6.94-20.28,5.4c-4.66-0.97-9.13-2.81-13.24-5.15c-2.27-1.29-4.41-2.76-6.7-4.02c-1.88-1.03-3.99-2-5.62-3.4
			c-2.34-2.01-0.44-2.8,1.99-3.21c-7.95-5.09-12.45-3.38-13.35-2.94l2.45,4.79c0,0-0.05,0.03-0.14,0.06
			c0.03-0.02,3.42-1.11,10.37,4.2c2.04,1.56,7.56,5.52,14.81,8.64c5.97,2.57,11.48,3.86,16.42,3.86c1.23,0,2.44-0.08,3.6-0.25
			c5.88-0.81,10.67-3.68,14.23-8.51c6.94-9.41,17.08-25.65,24.72-43C354.6,206.08,358.32,186.55,355.62,170.83z"/>
		<path class="st7" d="M349.83,160.65c0,0,0.18,0.63,0.48,1.81c0.3,1.19,0.72,2.92,1.17,5.16c0.44,2.23,0.94,4.96,1.31,8.11
			c0.36,3.16,0.68,6.74,0.41,10.68c-0.31,3.9-1.14,8.09-2.16,12.45c-1.03,4.37-2.29,8.93-3.8,13.59c-1.51,4.66-3.22,9.43-5.23,14.17
			c-0.49,1.19-1.05,2.36-1.59,3.54c-0.26,0.6-0.58,1.17-0.86,1.76c-0.3,0.58-0.57,1.17-0.9,1.74c-0.64,1.15-1.28,2.29-1.95,3.41
			c-0.67,1.12-1.31,2.26-1.95,3.39c-2.58,4.54-5.08,9.13-7.64,13.61c-2.56,4.47-5.15,8.85-8.04,12.86c-1.46,1.99-2.95,3.94-4.71,5.6
			c-1.73,1.66-3.84,2.98-6.06,3.71c-2.22,0.75-4.51,0.99-6.68,0.93c-2.18-0.07-4.26-0.42-6.21-0.89c-1.95-0.48-3.77-1.04-5.5-1.64
			c-1.72-0.63-3.26-1.45-4.67-2.22c-2.83-1.56-5.2-3.06-7.14-4.32c-3.88-2.52-5.98-4.11-5.98-4.11s0.54,0.39,1.57,1.07
			c1.03,0.68,2.56,1.66,4.53,2.87c1.97,1.21,4.37,2.66,7.22,4.15c1.44,0.73,2.96,1.49,4.66,2.08c1.71,0.55,3.54,1.1,5.46,1.54
			c1.93,0.43,3.97,0.75,6.08,0.78c2.11,0.04,4.31-0.22,6.4-0.97c2.1-0.74,4.02-1.96,5.69-3.6c1.67-1.63,3.15-3.53,4.57-5.51
			c2.84-3.97,5.4-8.34,7.93-12.81c2.53-4.47,5-9.08,7.57-13.64c0.66-1.13,1.3-2.28,1.98-3.4c0.68-1.12,1.32-2.25,1.96-3.37
			c0.32-0.56,0.59-1.15,0.89-1.72c0.29-0.57,0.6-1.14,0.86-1.73c0.54-1.17,1.1-2.32,1.59-3.5c2.03-4.7,3.75-9.44,5.27-14.07
			c1.51-4.64,2.85-9.15,3.93-13.48c1.08-4.34,1.96-8.45,2.32-12.33c0.16-1.92,0.18-3.79,0.12-5.55c-0.01-0.44-0.03-0.88-0.04-1.31
			c-0.03-0.43-0.05-0.86-0.08-1.27c-0.04-0.84-0.13-1.65-0.2-2.44c-0.3-3.15-0.73-5.88-1.12-8.12
			C350.47,163.18,349.83,160.65,349.83,160.65z"/>
		<g>
			<path class="st4" d="M183.84,243.31c-3.2,0-7.12-1.59-10.69-8.76c-3.09-6.2-8.36-9.73-15.03-14.2c-3.55-2.38-7.58-5.08-11.66-8.5
				c-6.54-5.49-12.41-14.58-16.52-25.61c-4.75-12.74-7.13-27.93-6.87-43.93c0.55-34.57,9.3-49.67,9.67-50.29
				c0.76-1.28,2.44-1.71,3.74-0.97c1.3,0.74,1.75,2.38,0.99,3.66c-0.13,0.21-8.41,14.8-8.94,47.69
				c-0.55,34.5,11.23,56.79,21.48,65.39c3.86,3.23,7.58,5.73,11.19,8.14c7.05,4.72,13.13,8.8,16.85,16.27
				c3.2,6.41,5.52,5.92,7.06,5.6c0.82-0.17,1.84-0.39,2.93,0.14c1.35,0.66,1.9,2.27,1.22,3.59c-0.53,1.05-1.68,1.6-2.8,1.46
				c-0.06,0.01-0.13,0.03-0.2,0.04C185.54,243.19,184.72,243.31,183.84,243.31z"/>
			<path class="st5" d="M183.84,243.41c-4.3,0-7.83-2.88-10.78-8.82c-3.08-6.17-8.33-9.7-14.99-14.16
				c-3.56-2.39-7.58-5.08-11.67-8.51c-6.56-5.5-12.44-14.61-16.55-25.65c-4.75-12.75-7.13-27.95-6.88-43.96
				c0.55-34.46,9.31-49.71,9.69-50.34c0.79-1.32,2.53-1.78,3.89-1.01c0.66,0.37,1.13,0.98,1.32,1.71c0.19,0.71,0.09,1.46-0.29,2.09
				c-0.08,0.14-8.4,14.6-8.92,47.64c-0.55,34.47,11.21,56.72,21.44,65.31c3.85,3.23,7.58,5.73,11.18,8.14
				c7.06,4.73,13.16,8.81,16.89,16.31c3.16,6.34,5.44,5.86,6.94,5.54c0.84-0.18,1.88-0.39,2.99,0.15c0.68,0.33,1.19,0.91,1.43,1.62
				c0.24,0.7,0.18,1.45-0.16,2.12c-0.54,1.05-1.69,1.66-2.89,1.51c-0.02,0-0.04,0.01-0.07,0.01c-0.04,0.01-0.08,0.02-0.12,0.02
				C185.43,243.32,184.63,243.41,183.84,243.41z M135.12,90.8c-0.91,0-1.79,0.46-2.28,1.28c-0.37,0.63-9.11,15.84-9.66,50.24
				c-0.26,15.98,2.12,31.16,6.86,43.89c4.1,11.01,9.96,20.09,16.49,25.57c4.07,3.42,8.09,6.11,11.64,8.48
				c6.7,4.49,11.97,8.02,15.07,14.25c2.92,5.86,6.38,8.7,10.6,8.7c0.77,0,1.56-0.09,2.42-0.28c0.04-0.01,0.08-0.01,0.11-0.02
				c0.03-0.01,0.06-0.01,0.09-0.02l0.01,0l0.01,0c1.11,0.14,2.19-0.42,2.69-1.4c0.31-0.61,0.36-1.31,0.15-1.95
				c-0.22-0.66-0.69-1.19-1.32-1.5c-1.05-0.51-2.05-0.3-2.85-0.14c-1.57,0.33-3.95,0.83-7.18-5.65
				c-3.71-7.45-9.78-11.52-16.82-16.23c-3.61-2.42-7.33-4.91-11.2-8.15c-10.27-8.62-22.07-30.93-21.52-65.47
				c0.53-33.09,8.87-47.6,8.95-47.74c0.35-0.59,0.44-1.27,0.27-1.93c-0.18-0.67-0.61-1.23-1.22-1.58
				C136.02,90.91,135.57,90.8,135.12,90.8z"/>
		</g>
		<g class="st8">
			<path class="st9" d="M188.05,237.94c-1.08-0.53-2.11-0.32-2.93-0.14c-1.54,0.33-3.86,0.81-7.06-5.6
				c-3.72-7.47-9.81-11.55-16.85-16.27c-3.6-2.41-7.33-4.91-11.19-8.14c-10.25-8.6-22.03-30.89-21.48-65.39
				c0.52-32.89,8.81-47.48,8.94-47.69c0.75-1.27,0.31-2.91-0.99-3.66c-1.31-0.74-2.98-0.31-3.74,0.97
				c-0.17,0.28-2.04,3.52-4.09,10.15c0.6-0.38,1.19-0.57,1.72-0.41c0,0,1.64-0.36,1.09,1.43c-0.55,1.78-9.67,31.77-3.47,65.68
				c6.2,33.91,20.25,40.33,27.18,46.22c6.93,5.89,16.6,8.03,20.98,18.02c0,0,1.28,3.03-0.18,3.39c-0.56,0.14-1.16,0.14-1.71,0.1
				c3.26,5.42,6.71,6.71,9.57,6.71c0.87,0,1.7-0.12,2.44-0.28c0.07-0.01,0.14-0.03,0.2-0.04c1.12,0.14,2.27-0.41,2.8-1.46
				C189.95,240.21,189.41,238.6,188.05,237.94z"/>
		</g>
		<path class="st7" d="M127.27,111.57c0,0-0.11,0.54-0.29,1.55c-0.09,0.5-0.19,1.12-0.32,1.85c-0.11,0.73-0.24,1.58-0.39,2.52
			c-0.13,0.95-0.27,1.99-0.43,3.14c-0.13,1.14-0.27,2.37-0.42,3.7c-0.12,1.32-0.25,2.73-0.38,4.21c-0.1,1.49-0.21,3.05-0.32,4.68
			c-0.06,1.63-0.16,3.33-0.2,5.09c-0.01,1.76-0.07,3.58-0.04,5.45c0.02,0.94,0.04,1.88,0.06,2.84c0.03,0.96,0.02,1.93,0.1,2.91
			c0.06,0.98,0.11,1.97,0.17,2.97c0.05,1,0.1,2.01,0.22,3.02c0.35,4.06,0.86,8.25,1.65,12.46c0.43,2.1,0.76,4.23,1.36,6.32
			c0.27,1.05,0.54,2.1,0.81,3.15l0.41,1.59c0.14,0.52,0.3,1.04,0.45,1.56c1.25,4.15,2.86,8.21,4.75,12.06
			c1.9,3.84,4.07,7.48,6.54,10.74c1.23,1.63,2.54,3.17,3.89,4.6c1.36,1.43,2.78,2.74,4.23,3.94c1.47,1.18,2.98,2.21,4.48,3.2
			c1.49,1,2.93,1.96,4.31,2.88c2.75,1.86,5.3,3.52,7.5,5.1c2.18,1.62,3.86,3.29,5.12,4.76c1.23,1.5,2.05,2.77,2.56,3.67
			c0.27,0.44,0.42,0.81,0.54,1.04c0.12,0.24,0.18,0.36,0.18,0.36s-0.07-0.12-0.19-0.35c-0.14-0.23-0.3-0.59-0.58-1.02
			c-0.53-0.88-1.41-2.11-2.66-3.56c-1.29-1.42-3-3.03-5.19-4.57c-1.12-0.75-2.32-1.53-3.6-2.34c-1.28-0.82-2.61-1.68-4.01-2.59
			c-1.4-0.9-2.85-1.84-4.36-2.81c-1.5-0.96-3.07-1.99-4.59-3.17c-1.5-1.2-2.97-2.51-4.38-3.94c-1.41-1.44-2.73-3-3.99-4.65
			c-2.54-3.3-4.76-6.98-6.7-10.86c-1.93-3.89-3.59-7.98-4.88-12.19c-0.16-0.53-0.31-1.06-0.45-1.59l-0.4-1.58
			c-0.27-1.06-0.53-2.13-0.8-3.19c-0.59-2.11-0.92-4.27-1.34-6.38c-0.78-4.25-1.27-8.46-1.6-12.55c-0.11-1.02-0.15-2.04-0.2-3.05
			c-0.05-1.01-0.09-2-0.14-2.99c-0.06-0.99-0.04-1.96-0.05-2.93c-0.01-0.96-0.01-1.91-0.02-2.86c0.01-1.88,0.1-3.71,0.14-5.47
			c0.08-1.77,0.2-3.47,0.3-5.11c0.13-1.64,0.27-3.2,0.41-4.68c0.18-1.49,0.35-2.9,0.5-4.21c0.19-1.32,0.37-2.56,0.53-3.7
			c0.19-1.13,0.36-2.18,0.52-3.12c0.18-0.94,0.33-1.78,0.47-2.51c0.15-0.73,0.28-1.34,0.39-1.84
			C127.14,112.1,127.27,111.57,127.27,111.57z"/>
		<g>
			<g>
				<path class="st0" d="M310.51,101.4c0,0,18.6,0.39,22.88-18c0,0,14.95,2.51,17.51-17.55c0,0,12.82-0.83,15.38-17.13
					c0,0,4.5,0.98,10.59-2.6c2.73-1.61,9.03-17.94-2.48-24.14c-6.47-3.49-11.18-2.42-15.06-1.51c-2.44,0.58-4.58,1.15-6.73,0.66
					c-5.55-1.25-11.96-6.68-20.07-4.17c-8.12,2.5-8.54,10.03-8.54,12.54c0,0-11.53,4.18-9.82,13.37c0,0-10.25,2.1-11.54,12.96
					c0,0-11.53,1.24-12.39,14.21c0,0-14.95,0.83-16.66,12.12c0,0-13.67-3.77-20.93,0.83c0,0-17.94-2.92-25.63,4.18
					c0,0-8.12-9.19-21.36-4.59c0,0-6.34-9.1-17.74-5.09c0,0-1.85-8.31-19.06-5.89c0,0-4.79-7.39-18.98-4.1
					c-3.83,0.89-7.11,3.83-5.73,8.8c0,0-9.82,0.42-13.67,7.52c-3.85,7.11,0.43,18.39,19.22,17.56c0,0,4.27,7.52,20.51,5.43
					c0,0,8.97,12.54,25.63,4.6c0,0,1.84,2.54,5.48,4.65c3.6,3.37,16.11,2.59,19.44,0.34c4.17,5.91,23.2,8.95,36.12,0.8
					c-0.21,0.2,12.81,6.19,22.02-3.35c0.53-0.56,1.45-2.21,2.46-3.75c0,0,6.63,6.3,20.2,0.97c4.15-1.64,6.82-4.7,8.67-9.26
					L310.51,101.4z"/>
				<path class="st1" d="M238.31,122.27c-0.92,0-1.85-0.03-2.77-0.1c-6.85-0.48-12.64-2.69-14.8-5.64c-1.69,1.08-5.52,1.84-9.59,1.9
					c-4.66,0.07-8.26-0.78-9.89-2.3c-3.26-1.89-5.11-4.17-5.44-4.6c-4.77,2.26-11.93,4.18-19.08,0.64c-4-1.98-6.25-4.84-6.57-5.26
					c-15.33,1.95-20.07-4.75-20.52-5.43c-12.34,0.53-17.16-4.14-18.94-6.97c-2.06-3.29-2.18-7.3-0.32-10.74
					c3.59-6.62,12.44-7.48,13.63-7.56c-0.53-2-0.34-3.79,0.56-5.3c1.02-1.71,2.89-2.95,5.28-3.51c13.44-3.11,18.56,3.41,19.05,4.09
					c8.88-1.24,13.6,0.44,16,2.06c2.3,1.56,2.95,3.34,3.09,3.8c10.77-3.72,17.1,4.29,17.71,5.1c3.8-1.3,9.57-2.24,15.65,0.6
					c3.28,1.53,5.28,3.55,5.68,3.97c7.5-6.81,24.65-4.29,25.6-4.14c6.87-4.32,19.53-1.2,20.87-0.85c0.93-5.8,5.41-8.78,9.01-10.26
					c3.58-1.47,7.03-1.78,7.63-1.83c0.26-3.71,1.62-8.76,6.56-11.95c2.7-1.74,5.34-2.18,5.84-2.25
					c1.25-10.17,10.44-12.69,11.51-12.95c-0.84-4.75,1.88-8.13,4.32-10.13c2.42-1.99,5.06-3.05,5.51-3.23
					c0.01-3.74,1.17-10.27,8.62-12.57c5.68-1.75,10.53,0.35,14.8,2.21c1.87,0.81,3.64,1.58,5.32,1.96c1.99,0.46,3.96-0.02,6.24-0.56
					l0.44-0.1c3.83-0.9,8.59-2.02,15.14,1.52c5.43,2.93,6.65,7.96,6.72,11.66c0.11,6.15-2.72,11.77-4.24,12.67
					c-5.54,3.25-9.82,2.75-10.55,2.63c-0.75,4.66-2.87,10.94-8.68,14.64c-3.19,2.03-6.15,2.41-6.69,2.46
					c-0.9,6.91-3.36,11.9-7.31,14.83c-4.48,3.33-9.46,2.84-10.22,2.74c-2.24,9.48-8.34,13.86-13.08,15.88
					c-4.81,2.04-9.21,2.11-9.81,2.11c0,0-0.01,0-0.01,0l-0.24,0.35c-1.93,4.76-4.7,7.72-8.72,9.3c-12.62,4.96-19.35-0.18-20.22-0.91
					c-0.34,0.52-0.66,1.04-0.98,1.54c-0.58,0.94-1.09,1.75-1.43,2.12c-6.42,6.64-14.51,5.78-18.75,4.67c-1.57-0.41-3-0.98-3.37-1.26
					C251.77,120.52,245.14,122.27,238.31,122.27z M220.79,116.25l0.06,0.08c2.07,2.94,7.84,5.15,14.7,5.63
					c7.78,0.54,15.53-1.23,21.28-4.86l0.85-0.53l-0.64,0.63c0.54,0.35,4.13,1.86,8.62,1.93c5.22,0.08,9.67-1.72,13.18-5.35
					c0.33-0.35,0.83-1.15,1.41-2.08c0.33-0.54,0.68-1.1,1.04-1.65l0.07-0.1l0.09,0.09c0.07,0.06,6.75,6.19,20.09,0.94
					c3.96-1.56,6.7-4.49,8.61-9.21l0.31-0.47l0.06,0c0.04-0.01,4.69,0.07,9.8-2.1c4.71-2,10.78-6.37,12.97-15.82l0.02-0.1l0.1,0.02
					c0.05,0.01,5.39,0.85,10.16-2.69c3.92-2.91,6.35-7.88,7.23-14.77l0.01-0.09l0.09-0.01c0.03,0,3.23-0.23,6.69-2.44
					c3.19-2.04,7.28-6.22,8.6-14.6l0.02-0.11l0.11,0.02c0.04,0.01,4.53,0.92,10.51-2.59c1.52-0.89,4.24-6.64,4.14-12.48
					c-0.07-3.65-1.27-8.6-6.61-11.48c-6.48-3.5-11.2-2.39-14.99-1.5l-0.44,0.1c-2.31,0.55-4.3,1.03-6.34,0.56
					c-1.7-0.38-3.48-1.16-5.36-1.97c-4.24-1.84-9.05-3.93-14.66-2.2c-7.37,2.27-8.47,8.77-8.47,12.44v0.07l-0.07,0.03
					c-0.11,0.04-11.43,4.25-9.75,13.25l0.02,0.1l-0.1,0.02c-0.1,0.02-10.19,2.21-11.45,12.87l-0.01,0.08l-0.08,0.01
					c-0.11,0.01-11.46,1.39-12.29,14.11l-0.01,0.09l-0.09,0.01c-0.04,0-3.77,0.23-7.66,1.82c-3.58,1.47-8.03,4.43-8.9,10.21
					l-0.02,0.12l-0.11-0.03c-0.14-0.04-13.71-3.7-20.85,0.82l-0.03,0.02l-0.04-0.01c-0.18-0.03-17.98-2.83-25.54,4.15l-0.08,0.07
					l-0.07-0.08c-0.02-0.02-2.06-2.31-5.69-4c-3.34-1.56-8.75-2.93-15.56-0.57l-0.08,0.03l-0.05-0.07
					c-0.06-0.09-6.43-8.99-17.62-5.05l-0.11,0.04l-0.03-0.12c0-0.02-0.49-2.07-3.05-3.8c-2.37-1.6-7.05-3.25-15.9-2.01l-0.07,0.01
					l-0.04-0.06c-0.05-0.07-4.92-7.29-18.87-4.05c-2.34,0.54-4.16,1.75-5.15,3.41c-0.89,1.49-1.06,3.26-0.5,5.26l0.04,0.13
					l-0.13,0.01c-0.1,0-9.81,0.5-13.58,7.46c-1.82,3.37-1.71,7.31,0.31,10.53c1.76,2.8,6.53,7.41,18.81,6.87l0.06,0l0.03,0.06
					c0.04,0.07,4.43,7.43,20.4,5.38l0.06-0.01l0.04,0.05c0.02,0.03,2.28,3.14,6.54,5.25c3.92,1.94,10.4,3.4,18.96-0.68l0.08-0.04
					l0.05,0.07c0.02,0.03,1.87,2.55,5.44,4.62c1.59,1.48,5.23,2.33,9.77,2.26c4.1-0.06,7.95-0.83,9.57-1.92L220.79,116.25z"/>
			</g>
			<g>
				<path class="st2" d="M169.31,71.23c-1.48,0.68-3.08,0.84-4.55,1.59c-1.42,0.72-2.7,1.92-3.76,3.07
					c-1.55,1.68-2.56,3.91-2.16,6.08c-3.72-0.38-7.35,1.92-9.11,5.1c-2.1,3.79-3.27,10.72-0.12,14.33c0.07,0.08,0.25-0.08,0.2-0.16
					c-4.27-7.15-0.05-18.99,9.12-18.88c0.1,0.39,0.24,0.76,0.44,1.14c0.11,0.2,0.42-0.07,0.36-0.25c-0.1-0.32-0.18-0.62-0.23-0.92
					c0.1-0.07,0.18-0.23,0.03-0.26c-0.02,0-0.05,0-0.07-0.01c-0.49-3.23,1.48-5.79,4.08-7.88c1.78-1.44,3.98-1.58,5.82-2.77
					C169.45,71.35,169.46,71.15,169.31,71.23z"/>
				<path class="st2" d="M188.83,76.95c-3.63,1.15-7.01,2.22-9.5,5.23c-1.49,1.79-2.6,4.24-2.4,6.56c-4.03,1.47-6.2,3.56-7.78,7.48
					c-1.56,3.89-1.34,8.09,1.33,11.45c0.08,0.1,0.29-0.09,0.23-0.19c-1.84-3.15-2.37-6.25-1.44-9.79c1.12-4.26,3.59-6.98,7.68-8.75
					c0.1,0.83,0.37,1.65,0.87,2.41c0.11,0.16,0.37-0.06,0.32-0.21c-1.37-3.76,0-7.1,2.73-9.88c2.17-2.23,5.28-2.8,7.97-4.11
					C188.94,77.08,188.98,76.91,188.83,76.95z"/>
				<path class="st2" d="M206.16,82.33c-3.12,1.28-5.28,2.28-7.39,4.99c-1.57,2.02-2.48,4.49-2.2,6.91
					c-6.05,4.17-4.27,13.58-0.26,18.6c0.07,0.08,0.25-0.08,0.2-0.16c-3.49-5.2-5.15-13.63,0.1-18.16c0.13,0.83,0.4,1.65,0.84,2.44
					c0.09,0.15,0.32-0.06,0.28-0.18c-0.3-0.96-0.47-1.86-0.52-2.74c0.02-0.02,0.03-0.03,0.04-0.04c0.1-0.07,0.07-0.21-0.06-0.15
					c-0.11-2.75,0.98-5.18,3.03-7.57c1.67-1.95,3.9-2.49,5.96-3.81C206.25,82.41,206.26,82.28,206.16,82.33z"/>
				<path class="st2" d="M227.87,86.42c-3.94,1.73-6.45,8.19-4.84,12.2c-2.22,2.06-3.58,4.76-4.2,7.75
					c-0.62,2.97-0.33,8.2,2.21,10.37c0.07,0.06,0.23-0.07,0.18-0.15c-3.62-5.46-2.24-12.91,1.98-17.6c0.05,0.1,0.09,0.19,0.14,0.28
					c0.09,0.15,0.35-0.04,0.32-0.17c-0.04-0.16-0.06-0.34-0.09-0.5c0.32-0.34,0.66-0.65,1.01-0.96c0.13-0.11,0.03-0.28-0.12-0.18
					c-0.34,0.23-0.65,0.48-0.96,0.74c-0.65-4.32,0.57-9,4.41-11.64C227.97,86.52,227.98,86.37,227.87,86.42z"/>
				<path class="st2" d="M258.66,97.64c1.71-5.1-1.53-12.62-6.36-14.72c-0.09-0.04-0.25,0.12-0.16,0.18
					c4.16,2.91,7.38,9.06,6.23,14.19c-0.18-0.21-0.38-0.41-0.58-0.61c-0.08-0.07-0.23,0.08-0.17,0.17c0.22,0.32,0.43,0.63,0.62,0.95
					c-0.12,0.44-0.28,0.87-0.47,1.28c-0.07,0.16,0.15,0.15,0.21,0.05c0.19-0.31,0.35-0.63,0.49-0.96c1.61,2.7,2.16,5.13,1.77,8.59
					c-0.39,3.56-1.68,6.94-3.49,10.03c-0.13,0.22,0.14,0.28,0.25,0.1C260.61,111.41,263.1,103.14,258.66,97.64z"/>
				<path class="st2" d="M278.06,93.65c1.16-4.62-0.43-10.61-5.34-11.88c-0.09-0.02-0.25,0.14-0.14,0.19
					c5.36,2.45,6.65,9.85,3.95,14.62c-0.09,0.17,0.15,0.16,0.23,0.05c0.52-0.77,0.92-1.68,1.2-2.65c3.82,1.65,4.75,5.66,4.77,9.46
					c0.02,4.99-2.6,9.25-5.97,12.79c-0.14,0.15,0.01,0.3,0.16,0.16c3.74-3.5,6.07-8.08,6.44-13.14
					C283.64,99.57,282.43,94.26,278.06,93.65z"/>
				<path class="st2" d="M310.02,88.72c-1.53-3.97-3.89-6.56-7.7-7.85c-0.27-2.53-1.13-4.75-2.92-6.78
					c-1.19-1.36-2.76-2.41-4.39-3.19c-1.79-0.86-3.63-0.59-5.52-0.91c-0.08-0.02-0.2,0.15-0.1,0.18c1.5,0.44,3.05,0.43,4.56,0.92
					c1.72,0.55,3.2,1.75,4.51,2.94c1.97,1.79,2.99,4.21,3.49,6.72c-0.39-0.12-0.8-0.23-1.23-0.33c-0.08-0.02-0.21,0.15-0.11,0.18
					c0.48,0.18,0.95,0.36,1.41,0.54c0.08,0.43,0.14,0.86,0.19,1.3c0.01,0.14,0.23,0.01,0.22-0.1c-0.01-0.36-0.03-0.71-0.06-1.06
					c1.31,0.54,2.53,1.15,3.64,2.17c1.53,1.41,2.62,3.77,3.46,5.64c1.82,4.07,1.64,8.66,0.48,12.86c-0.04,0.17,0.2,0.06,0.23-0.04
					C311.57,97.56,311.67,93.02,310.02,88.72z"/>
				<path class="st2" d="M316.45,68.64c0.43-3.23-0.39-6.36-2.62-9c-1.41-1.66-3.49-2.79-5.51-3.57c-2.34-0.91-4.58-0.39-6.95-0.06
					c-0.07,0.01-0.16,0.16-0.05,0.16c2,0.01,3.83-0.26,5.81,0.23c2.1,0.53,4.03,1.79,5.59,3.21c3.2,2.9,3.89,7.24,3,11.23
					c-0.04,0.19,0.23,0.06,0.26-0.05c0.18-0.62,0.32-1.24,0.42-1.85c4.68-0.18,8.36,0.53,11.84,3.89c3.1,2.99,4.02,7.26,4.56,11.3
					c0.03,0.19,0.29,0,0.29-0.12C333.19,75.18,326,66.48,316.45,68.64z"/>
				<path class="st2" d="M344.97,54.24c-1.6-1.64-3.76-2.61-5.97-3.17c-0.68-0.17-5.53-0.94-5.94,0.08
					c0.02-0.06,0.01-0.09-0.02-0.11c-0.44-3.09-1.76-5.4-4.95-7.09c-4.4-2.33-9.57-1.91-14.28-1.01c-0.1,0.02-0.19,0.21-0.04,0.19
					c4.2-0.38,8.22-0.65,12.28,0.71c4.69,1.58,6.2,4.87,6.9,9.35c0.03,0.17,0.26,0.01,0.26-0.11c-0.02-0.59-0.06-1.15-0.12-1.68
					c4.34-0.13,8.01,0.32,11.37,3.32c3.48,3.11,5.38,7.58,6.02,12.05c0.02,0.15,0.24,0.01,0.23-0.1
					C350.48,61.94,348.29,57.64,344.97,54.24z"/>
				<path class="st2" d="M358.44,36.18c-4-1.83-8.42-1.84-12.23-0.14c-1.32-3.59-5.15-5.44-8.77-6.35
					c-4.31-1.09-10.15-1.8-14.35,0.03c-0.15,0.06-0.21,0.35,0.02,0.27c4.11-1.48,8.96-0.7,13.16,0.04c4.1,0.73,7.53,2.69,9.52,6.21
					c-1.16,0.56-2.24,1.26-3.24,2.14c-0.08,0.06-0.02,0.17,0.07,0.11c1.11-0.78,2.23-1.4,3.37-1.87c0.08,0.16,0.16,0.32,0.24,0.49
					c0.06,0.12,0.28-0.04,0.25-0.14c-0.04-0.17-0.09-0.33-0.14-0.49c3.7-1.43,7.58-1.28,11.66,0.32c4.96,1.96,8.67,6.74,8.16,12.09
					c-0.02,0.15,0.19,0.06,0.2-0.04C367.49,43.12,363.45,38.49,358.44,36.18z"/>
			</g>
			<path class="st3" d="M374.39,21.98c-6.47-3.49-11.18-2.42-15.06-1.51c-2.44,0.58-4.58,1.15-6.73,0.66
				c-5.55-1.25-11.96-6.68-20.07-4.17c-8.12,2.5-8.54,10.03-8.54,12.54c0,0-11.53,4.18-9.82,13.37c0,0-10.25,2.1-11.54,12.96
				c0,0-1.14,0.12-2.73,0.69c1.95-0.32,3.88,0.03,5.51,1.57c3.28,3.11,2.71,6.92-0.44,9.84c-2.69,2.49-7.19,3.74-9.94,0.58
				c-2.62-3-1.82-6.59,0.34-9.41c-2.5,2.09-4.76,5.46-5.12,10.93c0,0-1.08,0.06-2.69,0.37c1.7,0.15,3.28,0.87,4.38,2.37
				c3.49,4.74-0.82,9.42-5.36,11.33c-2.17,0.92-4.83,1.63-7.11,0.65c-1.88-0.81-3.15-2.39-2.93-4.48c0.24-2.31,1.56-4.76,3.42-6.61
				c-0.19-0.02-0.31-0.23-0.12-0.43c-2.97,1.79-5.59,4.58-6.25,8.93c0,0-2.55-0.7-6.03-1.13c0.2,0.11,0.41,0.22,0.6,0.34
				c1.15,0.67,3.04,2.28,2.05,3.8c-1.08,1.65-3.23,2.56-5.17,2.8c-2.23,0.28-4.69,0.05-6.61-1.2c-1.5-0.98-3.24-2.25-3.3-4.16
				c-0.01-0.31,0.05-0.59,0.16-0.84c-0.94,0.32-1.82,0.73-2.63,1.24c0,0-3.94-0.64-8.92-0.59c1.78,0.54,3.38,1.47,4.55,2.88
				c3.55,4.25-2.25,6.54-5.75,7.17c-2.34,0.43-4.75,0.66-7.13,0.63c-2.37-0.02-5.06-0.07-7.15-1.29c-2.19-1.27-1.66-3.96-0.09-5.49
				c0.09-0.08,0.18-0.16,0.27-0.24c-0.5,0.34-0.97,0.71-1.41,1.11c0,0-3.75-4.24-10.31-5.52c1.57,0.68,3.07,1.78,3.39,3.4
				c0.92,4.63-4.81,6.27-8.45,6.32c-2.09,0.03-4.14-0.27-6.17-0.76c-1.58-0.38-3.52-0.91-4.27-2.49c-0.67-1.44,0.6-3.26,1.68-4.13
				c0.81-0.65,1.71-1.16,2.64-1.58c-0.51-0.67-2.64-3.23-6.21-4.76c2.23,2.7-0.49,6.1-3.41,7.08c-2.36,0.79-4.97,0.96-7.43,0.6
				c-1.76-0.25-4.82-0.68-5.61-2.57c-1.18-2.84,2.06-4.48,4.95-5.54c-0.31-0.88-1.67-3.75-6.51-5.2c0.68,0.62,1.06,1.43,0.86,2.44
				c-0.34,1.67-1.98,2.61-3.42,3.32c-2,1.01-4.2,1.71-6.48,1.62c-1.96-0.07-8.2-0.71-8.19-3.62c0.01-2.51,2.35-3.62,4.65-4.34
				c-0.32-0.43-1.39-1.68-3.43-2.8c-0.4,0.71-1.1,1.37-1.62,1.82c-2.01,1.71-4.4,2.99-7.08,3.3c-3.14,0.36-6.82-0.21-9.08-2.56
				c-0.74-0.76-0.94-1.57-0.82-2.35c-2.2,1.48-3.52,3.97-2.56,7.45c0,0-9.82,0.42-13.67,7.52c-3.85,7.11,0.43,18.39,19.22,17.56
				c0,0,4.27,7.52,20.51,5.43c0,0,8.97,12.54,25.63,4.6c0,0,1.84,2.54,5.48,4.65c3.6,3.37,16.11,2.59,19.44,0.34
				c4.17,5.91,23.2,8.95,36.12,0.8c-0.21,0.2,12.81,6.19,22.02-3.35c0.53-0.56,1.45-2.21,2.46-3.75c0,0,6.63,6.3,20.2,0.97
				c4.15-1.64,6.82-4.7,8.67-9.26l0.27-0.4c0,0,18.6,0.39,22.88-18c0,0,14.95,2.51,17.51-17.55c0,0,12.82-0.83,15.38-17.13
				c0,0,4.5,0.98,10.59-2.6C379.6,44.51,385.9,28.18,374.39,21.98z M142.99,91.16c-3.21,1.73-8.57,1-10.79-2.07
				c-2.02-2.78-0.57-5.71,1.7-7.77c0.68-0.71,1.46-1.25,2.3-1.64c0.17-0.09,0.33-0.18,0.5-0.26c0.09-0.05,0.17-0.05,0.22-0.02
				c3-1.01,6.55-0.11,8.75,2.43C148.26,84.83,146.12,89.47,142.99,91.16z M164.81,94.04c-0.64,4.21-6.87,4.05-9.88,2.94
				c-2.38-0.88-4.28-2.34-4.5-4.95c-0.16-1.84,0.53-4.02,2.25-4.95c1.61-1.39,4.16-1.15,6.26-0.15
				C161.4,88.11,165.28,90.89,164.81,94.04z M186.87,100.91c-0.24,4.7-6.71,5.19-10.11,3.98c-4.43-1.57-8.32-5.76-5.04-10.23
				c0.12-0.16,0.27-0.17,0.37-0.09c1.75-1.08,5.24-0.37,6.74,0.04C181.55,95.35,187.05,97.34,186.87,100.91z M212.61,108.32
				c-2.61,2.58-7.81,2.53-11.12,1.74c-4.13-0.98-7.14-3.74-6.87-7.88c-0.06-0.18-0.09-0.38-0.07-0.57c0.37-3.43,8.85-0.7,10.8-0.3
				c2.45,0.49,6.14,0.99,7.65,3.22C213.87,105.83,213.71,107.23,212.61,108.32z M245.55,112.43c-4,1.88-8.74,2.62-13.15,2.35
				c-1.72-0.1-3.47-0.35-5.13-0.82c-1.5-0.42-3.25-1.22-4.32-2.36c-0.87-0.93-1.36-2.13-1.55-3.36c-0.17-1.07-0.33-2.5,0.77-3.2
				c1.8-1.15,4.38-0.87,6.41-0.66c4.35,0.45,8.72,0.55,13.06,1.08c2.13,0.26,6.39,0.79,6.7,3.57
				C248.52,110.71,246.91,111.79,245.55,112.43z M277.26,104.15c-0.52,1.8-1.91,3.11-3.53,4.03c-1.79,1.01-3.82,1.76-5.86,2.15
				c-1.43,0.27-3.45,0.59-4.7-0.36c-1.38-1.05-1.37-3.11-0.75-4.59c0.57-1.39,1.56-2.26,2.83-2.87c2.63-2.05,6.65-2.72,9.77-1.98
				C276.81,100.97,277.79,102.31,277.26,104.15z M301.34,101.12c-3.6,3.73-10.27,4.88-13.87,0.41c-3.9-4.85,3.73-7.76,7.71-9.33
				c0.14-0.08,0.29-0.17,0.43-0.25c1.59-0.86,3.71-2,5.61-1.72C306.3,90.96,303.52,98.85,301.34,101.12z M328.28,20.74
				c2-3.02,6.89-3.93,10.23-2.97c1.71,0.49,3.8,1.78,3.11,3.86c-0.63,1.94-2.59,3.25-4.45,3.97c-2.32,0.91-8.44,2.47-10.02-0.4
				C326.24,23.57,326.96,21.99,328.28,20.74z M307.26,53.07c-1.81-1.96-0.08-4.43,1.94-6.13c1.2-1.12,2.59-2.04,4.26-2.32
				c1.73-0.29,4.76-0.64,6.13,0.76c2.66,2.73-0.65,6.44-3.14,7.97C313.99,54.87,309.41,55.41,307.26,53.07z M322.99,82.1
				c-0.08,2.42-0.83,4.77-2.21,6.79c-0.97,1.42-2.69,3.53-4.72,3.19c-2.06-0.35-3.37-2.25-4.11-4.03c-0.8-1.9-1.37-3.95-0.67-5.96
				c0.2-0.58,0.51-1.09,0.89-1.55c0.53-1.12,1.35-2.1,2.43-2.99c1.56-1.28,3.62-2.48,5.67-1.6C322.46,76.9,323.05,80.04,322.99,82.1
				z M318.16,39.43c-2.59-3.28,2.62-6.76,5.06-8.09c0.18-0.1,0.28-0.03,0.32,0.1c2.62-1.2,5.61-1.33,7.83,1.01
				c2.67,2.81-0.8,6.51-3.55,7.45C325.37,40.73,320.09,41.88,318.16,39.43z M340.87,74.31c-1.41,1.41-3.79,3.6-6.02,2.45
				c-1.94-1-3.04-3.15-3.84-5.06c-0.89-2.12-1.83-4.37-1.47-6.69c0.36-2.28,2.05-4.17,3.7-5.77c0.97-1.18,2.19-2.15,3.74-2.29
				c2.41-0.21,4.69,0.98,5.93,3.04C345.51,64.34,344.41,70.76,340.87,74.31z M358.1,51.34c-2.1,4.42-7.54,5.82-11.02,1.91
				c-3.88-4.35-3.49-10.2,0.81-14.13c0.12-0.1,0.25-0.12,0.35-0.09c0.6-0.47,1.31-0.79,2.13-0.91c2.12-0.27,4.32,0.43,5.81,1.95
				C358.98,42.95,359.82,47.72,358.1,51.34z M371.22,34.5c-0.72,1.55-2.12,3.25-4.08,2.64c-1.33-0.41-2.41-1.19-3.56-1.94
				c-1.37-0.89-2.83-1.39-4.35-1.94c-1.81-0.65-4.73-1.65-4.57-4.03c0.11-1.53,0.86-2.91,1.8-4.14
				C361.11,16.94,375.35,25.6,371.22,34.5z"/>
			<g>
				<g>
					<path class="st10" d="M349.98,20.49c-0.16,0.2-11.37,23.42-34.36,46.64c-11.79,11.91-23.23,18.5-30.76,21.92
						c-8.16,3.71-13.6,4.61-13.64,4.62c-0.03,0-0.06,0.01-0.09,0.02c-17.37,3.29-58.05,10.99-114.92-15.37
						c-2.77-1.28-4.95-2.3-6.7-2.96c-7.4-2.84-13.44-4.15-17.3-4.76c-3.79-0.32-8.34-0.06-9.1,3.14c0.15,0.06,0.35,0.09,0.6,0.1
						c0.08,0,11.89,1.94,23.81,6.51c1.57,0.6,3.68,1.58,6.35,2.82c13.66,6.33,41.63,19.3,81.7,19.3c11.25,0,23.46-1.02,36.57-3.5
						c0.64-0.1,6.35-1.12,14.79-4.93c8-3.61,20.16-10.56,32.63-23.16c23.61-23.86,35.36-48.38,35.83-49.36
						C356.03,20.15,351.97,18.14,349.98,20.49z"/>
					<path class="st11" d="M235.57,102.55c-40.09,0-68.22-13.04-81.74-19.31c-2.55-1.18-4.76-2.2-6.34-2.81
						c-11.93-4.56-23.69-6.49-23.78-6.5c-0.25-0.01-0.46-0.04-0.63-0.1l-0.09-0.03l0.02-0.09c0.62-2.6,3.72-3.68,9.22-3.22
						c3.79,0.59,9.86,1.9,17.33,4.77c1.71,0.65,3.84,1.64,6.53,2.88l0.17,0.08c56.83,26.34,97.48,18.65,114.84,15.37
						c0.05-0.01,0.08-0.02,0.11-0.02c0.05-0.01,5.51-0.92,13.61-4.61c7.51-3.41,18.94-9.98,30.72-21.89
						c19.29-19.49,30.31-38.84,34.15-46.25c0.17-0.33,0.19-0.37,0.21-0.39l0,0c1.34-1.58,3.59-1.23,4.76-0.47
						c0.74,0.48,1.05,1.08,0.82,1.58c-1.28,2.65-13.04,26.34-35.85,49.39c-12.48,12.61-24.65,19.57-32.66,23.18
						c-8.69,3.92-14.57,4.9-14.81,4.94C259.89,101.38,247.57,102.55,235.57,102.55z M123.24,73.66c0.13,0.04,0.29,0.06,0.48,0.06
						c0.08,0,11.91,1.95,23.85,6.52c1.59,0.61,3.8,1.64,6.35,2.82c13.51,6.26,41.61,19.29,81.65,19.29c11.99,0,24.29-1.18,36.55-3.5
						c0.25-0.04,6.09-1.01,14.76-4.92c8-3.61,20.14-10.55,32.6-23.14c22.79-23.03,34.54-46.69,35.8-49.31
						c0.23-0.49-0.23-1.01-0.73-1.33c-1.11-0.72-3.23-1.06-4.49,0.42c-0.02,0.03-0.09,0.17-0.18,0.35
						c-3.84,7.42-14.87,26.79-34.18,46.3c-11.81,11.93-23.26,18.52-30.79,21.94c-8.24,3.75-13.62,4.62-13.67,4.63
						c-0.02,0-0.05,0.01-0.07,0.01c-17.4,3.29-58.11,10.99-114.99-15.38L156,78.33c-2.69-1.25-4.81-2.23-6.52-2.88
						c-7.45-2.86-13.51-4.16-17.28-4.75C126.9,70.25,123.89,71.25,123.24,73.66z"/>
				</g>
				<g class="st8">
					<path class="st9" d="M349.99,20.49c-1.29,3.03-8.74,20.1-17.31,31.65c-9.44,12.71-23.81,28.25-44.33,38.42
						c-20.52,10.17-55.41,9.37-55.41,9.37c-43.37-0.94-59.65-10.98-76.2-18.47c-16.55-7.49-25.59-7.49-27.09-8.7
						c-1.33-1.07,0.97-2.02,1.52-2.23c-3.54-0.17-7.36,0.29-8.05,3.2c0.15,0.06,0.35,0.09,0.6,0.1c0.08,0,11.89,1.94,23.81,6.51
						c1.57,0.6,3.68,1.58,6.35,2.82c13.66,6.33,41.63,19.3,81.7,19.3c11.25,0,23.46-1.02,36.57-3.5c0.64-0.1,6.35-1.12,14.79-4.93
						c8-3.61,20.16-10.56,32.63-23.16c23.61-23.86,35.36-48.38,35.83-49.36C356.03,20.15,351.97,18.15,349.99,20.49z"/>
				</g>
				<path class="st12" d="M134.98,72.08c0,0,0.83,0.22,2.38,0.63c1.55,0.43,3.82,1.07,6.69,1.98c2.85,0.93,6.32,2.09,10.16,3.75
					c3.82,1.71,8.03,3.81,12.73,5.86c4.7,2.05,9.89,4.07,15.49,5.86c5.6,1.79,11.62,3.33,17.93,4.53
					c6.31,1.18,12.92,2.01,19.64,2.57c6.73,0.55,13.59,0.77,20.45,0.64c6.85-0.13,13.7-0.63,20.37-1.62
					c6.66-1.01,13.15-2.47,19.19-4.58c3.02-1.05,5.94-2.22,8.7-3.56c2.76-1.33,5.38-2.82,7.8-4.43c4.76-3.39,9.07-6.88,12.94-10.19
					c3.86-3.34,7.3-6.5,10.24-9.42c0.75-0.72,1.45-1.43,2.12-2.13c0.68-0.7,1.33-1.36,1.95-2.01c1.21-1.31,2.32-2.53,3.32-3.62
					c0.97-1.12,1.84-2.12,2.6-2.99c0.76-0.87,1.35-1.65,1.86-2.26c1-1.24,1.53-1.9,1.53-1.9s-0.52,0.67-1.49,1.93
					c-0.49,0.62-1.07,1.42-1.81,2.31c-0.74,0.89-1.58,1.91-2.53,3.05c-0.99,1.11-2.08,2.35-3.27,3.69
					c-0.61,0.65-1.25,1.34-1.91,2.04c-0.66,0.71-1.35,1.44-2.08,2.17c-2.89,2.98-6.29,6.21-10.13,9.59
					c-3.84,3.37-8.12,6.9-12.88,10.37c-2.45,1.67-5.08,3.2-7.87,4.58c-2.78,1.39-5.74,2.57-8.78,3.65
					c-6.1,2.15-12.65,3.65-19.36,4.69c-6.71,1.03-13.61,1.56-20.5,1.71c-6.9,0.11-13.8-0.14-20.56-0.72
					c-6.76-0.58-13.38-1.44-19.73-2.65c-6.35-1.21-12.39-2.85-18-4.7c-5.61-1.86-10.8-3.95-15.49-6.05
					c-2.34-1.07-4.58-2.11-6.68-3.14c-2.11-1.03-4.08-2.03-5.97-2.91c-3.79-1.71-7.23-2.93-10.06-3.91
					C138.29,72.98,134.98,72.08,134.98,72.08z"/>
			</g>
		</g>
		<g>
			<path class="st0" d="M243.82,314.85c-3.23-0.66-6.43-1.35-8.97-3.55c-2.57-2.23-4.18-6.29-4.27-9.57
				c-0.01-0.12-0.19-0.02-0.2,0.06c-0.33,3.46,1.14,6.91,3.25,9.63c2.24,2.9,6.63,3.48,10.04,3.78
				C243.84,315.21,244.05,314.9,243.82,314.85z"/>
			<path class="st0" d="M238.13,336.74c-0.3-4.25,1.51-8.76-1.14-12.55c-0.06-0.08-0.21,0.06-0.17,0.14
				c1.13,2.46,0.64,5.12,0.31,7.71c-0.31,2.43-0.3,4.78-0.07,7.23c0.51,5.49,2.86,10.97,5.35,15.86c0.07,0.13,0.28-0.05,0.24-0.16
				C240.31,349.14,238.56,343,238.13,336.74z"/>
			<path class="st0" d="M266.06,288.96c0.75-0.5,1.48-1.01,2.22-1.54c-4.39,1.76-10.13,3.73-14.48,1.87
				c1.14,1.06,2.93,1.46,4.81,1.5C261.07,290.69,263.71,289.91,266.06,288.96z"/>
			<path class="st0" d="M118.39,78.17c-4.58,3.43-5.55,10.19-3.88,15.4C113.94,88.25,115.15,82.47,118.39,78.17z"/>
			<path class="st0" d="M112.37,105.68c-0.71-2.21-0.47-4.61,0.7-6.56c-3.07,3.09-2.51,7.54,1.18,10.42
				C113.37,108.24,112.7,106.69,112.37,105.68z"/>
			<path class="st0" d="M108.32,109.88c-3.38,4.6-2.47,10.58,1.47,14.62C107.49,119.81,106.29,114.31,108.32,109.88z"/>
			<path class="st0" d="M104.23,127.83c-1.55,4.77-0.36,10.12,3.45,13.59C104.98,137.54,103.48,132.5,104.23,127.83z"/>
			<path class="st0" d="M101.43,152.45c-0.18-0.79-0.29-1.58-0.34-2.37c-0.18-1.77-0.15-3.54,0.22-5.25
				c-1.67,4.2-1.71,8.18,1.08,12.07c0.02,0.03,0.05,0.05,0.08,0.06C102.09,155.49,101.71,153.97,101.43,152.45z"/>
			<path class="st0" d="M102.05,169.24c-0.04,1.82,0.13,3.32,1.17,5.21c1.03,1.88,2.7,3.02,4.48,4.15c0.07,0.04,0.16,0,0.22-0.07
				C105.22,176.09,102.97,172.75,102.05,169.24z"/>
			<path class="st0" d="M108.88,198.3c-1.09-0.62-2.1-1.38-3.01-2.3c-0.92-0.93-1.54-2.09-2.11-3.24c-0.41-0.83-0.53-1.65-0.62-2.49
				c-0.13-0.56-0.25-1.12-0.37-1.68c-0.07,1.46-0.27,2.49,0.1,3.94c0.33,1.29,1.13,2.55,1.92,3.62c1.65,2.26,4.51,3.68,7.3,4
				C110.94,199.66,109.87,199.03,108.88,198.3z"/>
			<path class="st0" d="M116.59,223.2c-0.1-0.07-0.2-0.15-0.31-0.23c-2.84-1.77-5.24-4.21-6.62-7.16c-0.45-0.78-0.84-1.6-1.16-2.45
				c0.59,6.67,6.27,11.39,12.72,12.47C119.55,225.13,117.97,224.18,116.59,223.2z"/>
			<path class="st0" d="M134.2,82.58c1.03-1.18,2.33-2.03,3.87-2.48c0.29-0.15,0.57-0.3,0.86-0.44c-2.8,0.07-4.84,1.41-6,3.95
				C133.34,83.25,133.77,82.91,134.2,82.58z"/>
			<path class="st0" d="M151.45,91.6c0.06-1.22,0.38-2.31,1.28-3.25c0.61-0.63,1.41-1.04,2.26-1.28c0.37-0.21,0.75-0.4,1.15-0.57
				c-1.3-0.06-2.63,0.29-3.61,1.17c-1.4,1.25-1.76,2.87-1.45,4.67c0.02,0.13,0.13,0.12,0.22,0.05
				C151.34,92.12,151.39,91.85,151.45,91.6z"/>
			<path class="st0" d="M177.43,94.75c-2.21-0.75-5.51-0.19-6.33,2.26c-0.04,0.13,0.11,0.13,0.17,0.04c1.19-1.95,3.9-2.01,5.97-1.97
				C177.37,95.08,177.62,94.82,177.43,94.75z"/>
			<path class="st0" d="M195.38,102.15c0.55-0.83,1.6-1.09,2.8-1.1c0.31-0.04,0.63-0.06,0.98-0.05c1.62,0.06,3.21,0.33,4.79,0.63
				c-2.08-0.63-8.65-2.96-9,0.79C195.1,102.32,195.24,102.23,195.38,102.15z"/>
			<path class="st0" d="M227.66,104.97c0.68-0.08,1.36-0.14,2.02-0.18c-3.25-0.31-6.85-0.19-7.79,1.74
				C223.42,105.35,225.86,105.19,227.66,104.97z"/>
			<path class="st0" d="M265.94,102.77c-2.03,1.14-3.98,2.87-3.24,5.17C263.25,105.95,264.37,104.21,265.94,102.77z"/>
			<path class="st0" d="M291.13,94.5c-2.48,1.31-5.15,3.98-3.08,6.43c0,0,0.01,0,0.01,0C287.42,98.6,289.08,96.3,291.13,94.5z"/>
			<path class="st0" d="M312.76,83.43c0.1-1.12,0.13-2.41,0.6-3.46c0.08-0.18,0.17-0.38,0.26-0.58c-1.92,2.2-2.5,5.46-0.98,8.01
				C312.57,86.08,312.65,84.76,312.76,83.43z"/>
			<path class="st0" d="M331.85,69.74c-0.35-1.53-0.53-3.07-0.39-4.57c0.02-0.64,0.09-1.28,0.21-1.91c0.13-0.64,0.3-1.27,0.53-1.87
				c-2.35,2.86-2.09,6.61-0.41,9.85C331.88,70.74,331.88,70.24,331.85,69.74z"/>
			<path class="st0" d="M346.53,44.09c0.02-0.09,0.05-0.18,0.07-0.27c0.01-0.41,0.04-0.81,0.07-1.22c-1.74,3.25-2.3,7.46,1.15,9.9
				c0.06,0.04,0.13,0.04,0.2,0.03C347.1,49.79,345.89,47.02,346.53,44.09z"/>
			<path class="st0" d="M358.61,31.59c-0.83-0.61-1.7-1.35-2.16-2.29c-0.21-0.44-0.36-0.84-0.48-1.32
				c-0.02-0.08-0.03-0.16-0.03-0.24c-0.65,2.37,1.59,4.11,3.86,4.59C359.37,32.11,358.98,31.86,358.61,31.59z"/>
			<path class="st0" d="M354.92,90.73c0.7-1.06,1.46-2.06,2.3-2.99l0,0c-1.82,0.83-3.83,3.46-4.02,5.62
				C353.62,92.38,354.5,91.38,354.92,90.73z"/>
			<path class="st0" d="M357.54,73.67c1.13-0.93,2.27-1.87,3.49-2.69c0-0.05-0.05-0.08-0.13-0.04c-2.81,1.53-5.71,2.91-6.72,6.1
				C354.82,75.67,356.52,74.51,357.54,73.67z"/>
			<path class="st0" d="M367.4,58.13c-0.35,0.68-0.64,1.33-0.7,2.19c-0.07,1.03-0.06,2.23,1.01,2.75c0.01,0.01,0.02,0.01,0.03,0.01
				C367.26,61.48,367.09,59.69,367.4,58.13z"/>
			<path class="st0" d="M355.08,113.53c0.63-1.56,0.68-3.24,1.1-4.86c0.31-1.22,0.77-2.42,1.34-3.55c0.56-1.1,1.2-2.13,1.95-3.07
				c-3.21,3.04-5.18,6.81-4.52,11.32C354.96,113.47,355.02,113.52,355.08,113.53z"/>
			<path class="st0" d="M358.34,128.05c0.26-0.69,0.52-1.38,0.76-2.09c-2.33,3.38-4.89,7.99-3.14,12.05
				c0.01,0.02,0.01,0.02,0.02,0.04c0.22-0.79,0.2-1.78,0.3-2.54c0.15-1.02,0.27-2.06,0.47-3.07
				C357.04,130.93,357.62,129.46,358.34,128.05z"/>
			<path class="st0" d="M360.78,150.41c0.01-0.11-0.18-0.06-0.22,0.01c-1.72,2.74-3.93,8.08-0.66,10.55
				C358.14,157.69,359.27,153.79,360.78,150.41z"/>
			<path class="st0" d="M362.41,173.66c-0.05,0.71,0.16,1.35,0.76,1.83c0.76,0.61,1.7,0.79,2.57,0.31c0.12-0.07,0.29-0.27,0.35-0.46
				C364.78,175.33,363.34,174.66,362.41,173.66z"/>
			<path class="st0" d="M366.69,187.53c-0.04,0.05-0.07,0.11-0.07,0.15c0.31,1.3,1.57,4.46,3.43,3.82c0.16-0.06,0.29-0.19,0.37-0.35
				C368.82,190.49,367.63,189.02,366.69,187.53z"/>
			<path class="st0" d="M363.18,199.71c-0.88,0.55-1.36,1.8-1.65,2.69c-0.96,2.9-0.16,6.05,1.1,8.73
				C362.23,208.41,361.73,202.81,363.18,199.71z"/>
			<path class="st0" d="M355.13,219.2c-2.78,2.01-2.33,5.99-1.16,8.83c0.04,0.09,0.1,0.12,0.17,0.13
				C353.71,225.1,353.73,221.97,355.13,219.2z"/>
			<path class="st0" d="M347.07,246.2c0.12-0.56,0.2-1.12,0.24-1.69c-0.44-2.71-1.03-5.91,0.3-8.26c0.07-0.29,0.15-0.57,0.26-0.85
				c-3.34,2.58-2.13,7.33-0.86,10.72C347.01,246.16,347.04,246.19,347.07,246.2z"/>
			<path class="st0" d="M338.44,262.46c0.62-2.15,1.42-4.33,2.75-6.12c0.54-0.84,1.17-1.57,1.87-2.21c-4,1.53-5.86,6.9-6,10.74
				c0,0.02,0.01,0.04,0.01,0.06C337.74,264.36,338.12,263.37,338.44,262.46z"/>
			<path class="st0" d="M314.77,289.39c-1.62,1.78-3.12,3.91-3.41,6.29c-0.02,0.16,0.06,0.23,0.16,0.24
				c0.28-0.25,0.52-0.53,0.75-0.81c0.82-1.51,1.39-3.11,2.2-4.62C314.56,290.12,314.66,289.75,314.77,289.39z"/>
			<path class="st0" d="M279.35,293.35c1.01-1.84,2.86-3.24,4.67-4.29c0.91-0.53,1.86-1.02,2.83-1.46c-1.85,0.42-3.45,1.1-5.04,2.25
				c-1.09,0.79-2.57,1.96-2.52,3.42C279.31,293.32,279.33,293.34,279.35,293.35z"/>
			<path class="st0" d="M136.04,239.61c0.69-2.5,2.37-4.19,4.47-5.42c-1.35,0.29-2.52,0.73-3.57,1.68c-0.94,0.84-1.9,2.57-0.95,3.7
				C136,239.59,136.02,239.6,136.04,239.61z"/>
			<path class="st0" d="M165.81,254.18c-1.23-1.16-1.84-2.77-1.9-4.41c-0.06-0.01-0.15,0.04-0.18,0.11
				c-0.53,1.11-0.6,2.19-0.04,3.31c0.56,1.11,1.73,1.93,3,1.78c0.03,0,0.07-0.02,0.11-0.04
				C166.44,254.71,166.1,254.45,165.81,254.18z"/>
			<path class="st0" d="M148.1,69.45c2.43-0.81,4.77-1.12,7.27-1.35c0.49-0.18,0.98-0.37,1.47-0.55c-3.06-0.25-6.35,0.12-8.96,1.8
				C147.96,69.38,148.03,69.42,148.1,69.45z"/>
			<path class="st0" d="M166.77,73.76c1.27-0.52,2.66-0.8,4.07-0.97c0.49-0.13,0.99-0.25,1.49-0.36c0.65-0.14,1.29-0.27,1.94-0.39
				c-2.73-0.35-6.36,0.09-8.53,1.85C166.09,73.86,166.43,73.82,166.77,73.76z"/>
			<path class="st0" d="M185.53,79.89c1.95-0.79,3.94-1.18,6.01-1.53c0.66-0.24,1.31-0.49,1.96-0.74c-3.12-0.18-6.31,0.49-8.84,2.32
				C184.95,79.94,185.24,79.92,185.53,79.89z"/>
			<path class="st0" d="M203.27,85.42c0.51-0.34,1.08-0.63,1.63-0.88c0.48-0.3,0.97-0.58,1.47-0.82c1.75-0.8,3.58-1.36,5.46-1.72
				c-2.46,0.05-4.8,0.57-7.06,1.65c-0.85,0.41-2.41,1.49-2.99,2.56C202.28,85.93,202.78,85.66,203.27,85.42z"/>
			<path class="st0" d="M236.97,83.98c-3.58,0.33-6.82,1.26-9.2,4.04c-0.19,0.22,0.06,0.42,0.28,0.28c2.87-1.89,5.63-3.06,8.91-4.11
				C237.05,84.16,237.12,83.97,236.97,83.98z"/>
			<path class="st0" d="M280.66,74.88c0.01-0.02,0.02-0.03,0.04-0.05c0.02-0.03,0.04-0.07,0.07-0.1c0.09-0.13,0.2-0.25,0.29-0.38
				c0.07-0.09,0.13-0.17,0.2-0.26c0.2-0.25,0.41-0.5,0.63-0.75c-0.01,0-0.02-0.01-0.04,0c-2.5,0.77-3.88,4.23-3.92,6.57
				C279,78.31,279.58,76.48,280.66,74.88z"/>
			<path class="st0" d="M296.47,59.5c-1.77,1.78-2.77,4.44-1.34,6.77c0.02,0.04,0.05,0.06,0.07,0.07
				C295.03,63.99,295.37,61.58,296.47,59.5z"/>
			<path class="st0" d="M308.35,49.24c0.18-0.35,0.37-0.7,0.56-1.04c-0.41,0.41-0.81,0.8-1.08,1.34c-0.28,0.56-0.42,1.27-0.26,1.88
				C307.62,50.66,308.03,49.86,308.35,49.24z"/>
			<path class="st0" d="M319.83,34.76c-1.06,1.07-1.95,2.42-1.08,3.73c0.1,0.15,0.27,0.14,0.42,0.06
				C319.05,37.22,319.22,35.87,319.83,34.76z"/>
			<path class="st0" d="M328.14,24.08c0.17-0.41,0.4-0.82,0.52-1.13c0.33-0.84,0.8-1.66,1.4-2.36c0.46-0.53,0.95-1,1.49-1.41
				c-1.11,0.5-2.34,1.24-3.02,2.25C328.14,22.03,327.56,23.43,328.14,24.08z"/>
		</g>
	</g>
	
		<rect x="235.74" y="354.15" transform="matrix(0.9433 0.3319 -0.3319 0.9433 135.169 -81.3083)" class="st0" width="139.71" height="1.76"/>
	<text transform="matrix(1 0 0 1 368.3197 387.68)" class="st0 st13 st14">Recto</text>
</g>
</svg>
