<?xml version="1.0" encoding="utf-8"?>
<!-- Generator: Adobe Illustrator 24.2.3, SVG Export Plug-In . SVG Version: 6.00 Build 0)  -->
<svg version="1.1" id="Layer_1" xmlns="http://www.w3.org/2000/svg" xmlns:xlink="http://www.w3.org/1999/xlink" x="0px" y="0px"
	 viewBox="0 0 500 500" style="enable-background:new 0 0 500 500;" xml:space="preserve">
<style type="text/css">
	.st0{fill:#E1E1E1;}
	.st1{fill:#ECECEC;}
	.st2{fill:#FFBEA7;}
	.st3{fill:#FF9A79;}
	.st4{fill:#375A64;}
	.st5{fill:#2B454E;}
	.st6{fill:#C76668;}
	.st7{fill:#FF9090;}
	.st8{fill:#1A2E35;}
	.st9{fill:#D268CC;}
	.st10{opacity:0.1;}
	.st11{opacity:0.3;fill:#FFFFFF;}
	.st12{opacity:0.5;fill:#D268CC;}
	.st13{opacity:0.5;fill:#FFFFFF;}
	.st14{opacity:0.6;fill:#D268CC;}
	.st15{opacity:0.2;fill:#FFFFFF;}
	.st16{fill:#FFFFFF;}
	.st17{opacity:0.6;fill:#FFFFFF;}
</style>
<g>
	<g id="Icons">
		<g id="Plus_3_">
			<polygon id="Plus_2_" class="st0" points="274.5,177.5 273.6,171.7 267.8,172.7 268.8,178.4 263,179.4 263.9,185.2 269.7,184.2 
				270.7,190 276.5,189 275.5,183.3 281.3,182.3 280.3,176.5 			"/>
			<polygon id="Plus_6_" class="st0" points="401.6,279.3 403.1,273.6 397.4,272.2 395.9,277.9 390.3,276.4 388.8,282.1 
				394.5,283.5 393,289.2 398.7,290.7 400.2,285 405.8,286.5 407.3,280.8 			"/>
			<polygon id="Plus_5_" class="st0" points="285,95.9 286.8,90.3 281.2,88.5 279.4,94.1 273.8,92.2 272,97.8 277.6,99.6 
				275.8,105.2 281.3,107 283.2,101.4 288.7,103.3 290.6,97.7 			"/>
			<polygon id="Plus_00000039826438400254259310000007814858653708689311_" class="st0" points="468,57.8 469.8,52.2 464.2,50.4 
				462.4,56 456.9,54.1 455,59.7 460.6,61.5 458.8,67.1 464.4,68.9 466.2,63.3 471.8,65.2 473.6,59.6 			"/>
			<polygon id="Plus_1_" class="st0" points="86.2,161.5 87.2,155.7 92.9,156.7 92,162.4 97.7,163.4 96.8,169.2 91,168.2 90,174 
				84.2,173 85.2,167.2 79.4,166.3 80.4,160.5 			"/>
			<polygon id="Plus_4_" class="st0" points="91.4,52.2 89.8,46.5 95.5,44.9 97.1,50.6 102.7,49 104.3,54.6 98.7,56.2 100.3,61.9 
				94.6,63.5 93,57.8 87.4,59.4 85.8,53.8 			"/>
			<polygon id="Plus" class="st0" points="33.3,243.9 31.5,238.3 37.1,236.5 38.9,242.1 44.5,240.3 46.3,245.8 40.7,247.7 
				42.6,253.2 37,255.1 35.2,249.5 29.6,251.3 27.8,245.7 			"/>
		</g>
		<g id="Dots">
			<path id="Dot_4_" class="st1" d="M308.7,146.7c0-1.6,1.3-3,3-3c1.6,0,3,1.3,3,3c0,1.6-1.3,3-3,3
				C310,149.6,308.7,148.3,308.7,146.7z"/>
			<path id="Dot_3_" class="st1" d="M32.5,54.2c0-1.6,1.3-3,3-3c1.6,0,3,1.3,3,3c0,1.6-1.3,3-3,3C33.8,57.2,32.5,55.8,32.5,54.2z"/>
			<path id="Dot_2_" class="st1" d="M33.6,180.1c0-1.6,1.3-3,3-3s3,1.3,3,3s-1.3,3-3,3S33.6,181.7,33.6,180.1z"/>
			<path id="Dot" class="st1" d="M358.5,44.1c0-1.6,1.3-3,3-3c1.6,0,3,1.3,3,3c0,1.6-1.3,3-3,3C359.9,47,358.5,45.7,358.5,44.1z"/>
			<path id="Dot_6_" class="st1" d="M60.9,110.5c0-1.6,1.3-3,3-3c1.6,0,3,1.3,3,3s-1.3,3-3,3C62.2,113.4,60.9,112.1,60.9,110.5z"/>
			<path id="Dot_5_" class="st1" d="M254.2,47.8c0-1.6,1.3-3,3-3c1.6,0,3,1.3,3,3c0,1.6-1.3,3-3,3C255.5,50.7,254.2,49.4,254.2,47.8
				z"/>
			<path id="Dot_8_" class="st1" d="M461.4,253.4c0-1.6,1.3-3,3-3c1.6,0,3,1.3,3,3c0,1.6-1.3,3-3,3
				C462.7,256.4,461.4,255.1,461.4,253.4z"/>
			<path id="Dot_9_" class="st1" d="M453.5,323.9c0-1.6,1.3-3,3-3c1.6,0,3,1.3,3,3s-1.3,3-3,3C454.9,326.9,453.5,325.6,453.5,323.9z
				"/>
			<path id="Dot_7_" class="st1" d="M447.9,172.7c0-1.6,1.3-3,3-3c1.6,0,3,1.3,3,3c0,1.6-1.3,3-3,3
				C449.2,175.7,447.9,174.4,447.9,172.7z"/>
		</g>
	</g>
	<g id="Character_00000089564851170021668230000007178702609974853823_">
		<g id="Arm_00000129183449705711070210000013144498840890744454_">
			<path class="st2" d="M442.2,209.2c-2.4-1.2-5.2-1.4-7.8-1c-4.3,0.6-8.2,2.6-12.3,3.8c-6.3,1.9-16.4,5-22.9,3.3
				c-1.3-0.3-3.9-1.4-1.8-2.7c2.8-1.7,5.8-3.1,8.3-5.2c2.5-2.1,4.5-5.1,4.6-8.3c0-1-0.2-2-0.8-2.8c-0.9-1-1.8-0.7-2.8-0.2
				c-1,0.5-2.2,0.8-3.3,1.2c-2.3,0.7-4.6,1.5-6.9,2.2c-13.3,4.5-26.9,10.1-36.5,20.8c-1.4,1.6-10.4,14.2-16.1,21.2
				c-4.7,6.5-32.4,38.8-32.4,38.8s-27.1-34.4-39.3-49.7c-11.9-14.9-24.1-35.4-49.3-33l15,82.9c0,0,36.5,39.4,42.4,45.2
				c18.2,17.7,25.8,20.2,40.4,10.8c17.9-11.5,24.5-27.4,33.7-44.3c10.4-19,14.3-28.4,19.1-33.8c4.8-5.4,10.6-4.6,15-5
				c7.9-0.8,9.9-1.2,17.4-3.6c5-1.6,9.8-3.7,14.2-6.5c1.8-1.2,4.8-2.7,5.9-4.7c1-1.8,1.1-4,2.4-5.8c1.4-2,3.8-3.3,5-5.4
				c1-1.7,1.1-3.7,1.6-5.6c0.8-3,3-4.3,5.5-5.8c1.2-0.7,2.5-1.4,3.3-2.6C445,211.3,443.8,210,442.2,209.2z"/>
			<path class="st3" d="M311.4,280.2c-10.9,12.2-14.2,25.2-13.9,30.5c-3.7-18.2,6.3-30.2,10.3-35L311.4,280.2z"/>
			<path class="st3" d="M390.5,219.5c-4.3,6.9-13.6,13.7-18.4,15.3c0,0,7.3,0.8,12-3.3C389.2,227.1,390.2,222.5,390.5,219.5z"/>
		</g>
		<path id="Chest_00000041291722999588192800000008048119069702304134_" class="st4" d="M255.8,341c0.9-21.6-1-39.5-1-39.5
			s13.5-13.5,12-33.2c-1.2-16.6-8.1-24.9-21.7-42.9c-14.5-19.2-22.2-28-22.2-28l-11.1,0.8l-17,1.3c0,0-38.6,2.9-53.1,8.2l-19,3.7
			c-6.1,3.4-28,15.2-23.1,61.4c1.5,14.5,11.1,45.9,14.5,66.4c-1.7,33.7-16.3,42.2-18.4,71.3c0,12.4,13.3,24.7,29.7,34.2
			c32.6,18.8,85.5,18.8,118.2,0c16.4-9.4,26.8-24.1,26.7-36.5C270.3,408.3,260.9,358.3,255.8,341z"/>
		<g id="Head">
			<g id="XMLID_807_">
				<path class="st5" d="M126.8,90.1c-14.4,6.9-14,34.4-8.1,46.5c14.8,30.4,31.8,36.8,34,50.7c10.4-7.5,20.7-15,31.1-22.5
					c8.1-5.8,16.1-11.7,24.2-17.5c4.2-3,10.8-7,12.8-12c2.2-5.6,2.4-12,0.5-17.8c4.9,2.9,11.3,3.8,16.5,1.4c5.2-2.4,8.8-8.4,7.7-14
					c-2.8,2.3-7.4,1.3-9.7-1.5c-2.3-2.8-2.4-5.9-1.5-9.4c0.6-2.1,1.6-5.1,1.8-7.3c0.6-6.2-1-11-4.6-15.1
					c-6.3-7.3-16.8-12.1-25.9-14.7c-13.6-4-32.8-4.4-46.2,0C145.4,61.3,126.2,70.8,126.8,90.1z"/>
				<path class="st2" d="M151.7,191.8c-0.6-10.7-1.7-23.9-1.7-23.9s-6.4,6.2-16-1.5c-10.2-8.1-13.6-22.3-5.8-30.2
					c7.7-7.9,19.1-6.3,23.8,4c8,1.3,10.4-10.1,3.7-21.3c0,0,15.4-10.5,11.2-27.1c14.2,7.6,46.1,9.4,52.7-5.2
					c4.9,6.3,10.5,11.4,12.8,48.6c1.4,22.6-0.5,34.2-7.9,40.6c-6.2,5.4-14.3,7.5-24.4,7.4c0,0,0.3,7,0.6,10.6
					c0.2,2.8,1.2,4.4,4.8,4.4c5.2,0,6.3,0,6.3,0s5.2,15-20.7,20.2c-38.6,7.8-49.4-10.7-49.4-10.7s1.5-0.6,3.7-1.2
					C151.1,204.9,152.1,199.1,151.7,191.8z"/>
				<g id="XMLID_1071_">
					<path id="XMLID_1130_" class="st6" d="M189.5,149.9l14.2,5.7c-1.5,4.1-5.9,6.1-9.8,4.5C189.9,158.6,188,154,189.5,149.9z"/>
				</g>
				<path class="st7" d="M190.2,153.4c4.1,0.2,7.3,3.3,7.9,7.2c-1.4,0.3-2.8,0.2-4.2-0.4c-2.8-1.1-4.6-3.8-4.8-6.7
					C189.4,153.4,189.8,153.3,190.2,153.4z"/>
				<g id="XMLID_1068_">
					<path id="XMLID_1069_" class="st5" d="M225.8,113.3l-10.7-3.9c1-3,4.2-4.6,7.1-3.5C225.1,107,226.7,110.3,225.8,113.3z"/>
				</g>
				<g id="XMLID_1055_">
					<path id="XMLID_1064_" class="st5" d="M176,119.3l9.7-6.2c-1.6-2.8-5.1-3.6-7.8-1.9C175.2,112.9,174.3,116.6,176,119.3z"/>
				</g>
				<g id="XMLID_1052_">
					<polygon id="XMLID_1054_" class="st3" points="199.7,117.2 204.9,147.7 221.6,141.2 					"/>
				</g>
				<path id="XMLID_1051_" class="st8" d="M214,122.2c0,2.6,2.1,4.8,4.7,4.9c2.6,0.1,4.8-1.9,4.8-4.5c0-2.6-2.1-4.8-4.7-4.9
					C216.2,117.6,214,119.6,214,122.2z"/>
				<path id="XMLID_1041_" class="st8" d="M180.9,126.7c0,2.6,2.1,4.8,4.7,4.9c2.6,0.1,4.8-1.9,4.8-4.5c0-2.6-2.1-4.8-4.7-4.9
					C183.1,122.1,181,124.2,180.9,126.7z"/>
				<g id="XMLID_1016_">
					<path id="XMLID_1040_" class="st3" d="M200.1,183.2c-26.9-0.3-39.5-7.2-44.1-15.1c0,0,1.1,8.6,11.8,14.9
						c10.4,6.1,32.6,7.1,32.6,7.1L200.1,183.2z"/>
				</g>
			</g>
		</g>
		<g id="Arm_00000128487357604860674730000009530066354703728543_">
			<g id="Arm_00000163031977424613344200000010436483571585682829_">
				<g>
					<path class="st3" d="M86.1,440.6c-3.1-3.4-7.2-6.4-8.5-11.1c-0.7-2.4-0.4-5.2,1.1-7.1c0.3-0.4,0.7-0.8,0.8-1.3
						c0.1-0.4,0-0.9-0.1-1.3c-0.3-1.8-0.4-3.7,0.3-5.3c0.6-1.4,1.9-2.4,3.4-2.9c-0.8-2.6-0.8-5.4,0.1-8c1-3,4.2-5.4,6.2-2.1
						c1,1.7,1.7,3.5,2.4,5.3c1.6,4.6,2.5,9.4,3,14.1c0.5,5,1.7,19.2-6.1,19.9C88.3,441,86.6,441.1,86.1,440.6z"/>
					<path class="st2" d="M125.7,210.9c-32.3,4.9-37.6,18.9-55.4,43.4c-17.6,24.2-30.8,44.5-38.2,58.1c-7.8,14.3-8.9,19.5,5.4,37.8
						c7.1,9.1,14.3,16.7,27.6,31.3c8.5,9.3,17.7,18.8,26.5,28.1c2.3,2.4,3.2,6.3,2.4,9.7c-0.5,2-1.3,3.9-1.6,6
						c-0.3,2.6,0.5,5.3,0.6,7.9c0.1,2.7-0.7,5.7-3.1,6.8c-1.2,0.5-2.5,0.5-3.8,0.4c2.3,1.6,4.6,3.1,7.3,4c2.7,0.8,5.6,0.9,8.1-0.3
						c2.4-1.2,4.3-3.5,6.9-4.3c1.4-0.4,2.9-0.3,4.3-0.7c1.4-0.4,2.8-1.2,3.7-2.4c1.5-1.9,2.1-4.5,4.2-5.7c1-0.5,2.2-0.6,3.2-1.1
						c2.2-0.9,3.5-3.1,4-5.3c0.5-2.3,0.2-4.6-0.2-6.9c-0.9-6.2-2.2-12.3-3.8-18.3c-0.5-2.1-1.7-3.9-3-5.6c-1.4-2-2.7-4.1-4.3-6
						c-10.3-13.1-36.5-62.4-36.5-62.4l36.5-47.1C116.7,278.4,145,237,125.7,210.9z"/>
					<path class="st3" d="M80.2,325.6c-9.1,8.9-23.2,9.6-28.4,9.3c18.3,7.5,31.3-3.8,31.3-3.8L80.2,325.6z"/>
				</g>
			</g>
		</g>
	</g>
	<g id="Lungs_00000098920941298463161630000018171447945106266026_">
		<g>
			<path class="st9" d="M193.5,234.8c-2.6,4.9-6.6,20.4-7.3,29.2c-1.4,17.7-1.3,27.3-0.2,36.4c1.1,9.2,3.9,21.7,16.2,28.8
				c12.3,7.2,32.2,10.8,40.6,4.3c3.2-2.2,4.2-21.9,0.7-31.5c-3.5-9.6-9.2-20.5-10.2-27.1c-1-6.6-5.4-26.2-10.2-36.3
				c-4.6-9.6-9.5-15.6-18.9-14.3C200.4,225,195.9,228.2,193.5,234.8z"/>
			<path class="st10" d="M236.9,332.8c0,0-8.5-0.6-20-5c-11.4-4.4-20.3-10.7-22.4-28.3c-2.1-17.6,0.9-37.2,0.2-48.6
				c-0.7-11.4,1-20,7.8-19.4c0,0,0,0,0,0c3.8,1,7.2,4.7,7.9,10.5c1.2,10.7-5.8,15.3-4.8,27c1,11.7,9.8,17,14,25.8
				c4.2,8.8,2,18.9,4.5,25.4C226.1,325.3,232.1,330.5,236.9,332.8z"/>
			<path class="st11" d="M204.2,224.5c9.4-1.2,14.3,4.8,18.9,14.3c4.8,10,9.2,29.6,10.2,36.3c1,6.6,6.7,17.6,10.2,27.1
				s2.5,29.2-0.7,31.5s-15.5-5.5-18.7-13.6c-2.5-6.5-0.2-16.5-4.5-25.4c-4.2-8.8-13-14.1-14-25.8s6-16.2,4.8-27
				c-1.2-10.7-11.9-14.1-16.9-7.1C195.9,228.2,200.4,225,204.2,224.5z"/>
			<path class="st12" d="M242.7,333.6c2.3-1.6,3.5-12.2,2.7-21.6l0,0c0,0-0.6,11.9-4,14.1c-3.4,2.3-7-5.1-4.3-15.7
				c2.7-10.5,1.1-18.8-0.8-24.6c1.4,13-5.7,24.2-8.2,22.5c-2.4-1.7-2.1-12.7-5.5-17.3c-3.4-4.6-9.7-8.4-14.8-13.9
				c3.1,6.5,8.6,11.1,11.7,17.5c4.2,8.8,2,18.9,4.5,25.4C227.2,328.1,239.5,335.9,242.7,333.6z"/>
			<g>
				<g>
					<path class="st4" d="M241.2,334.4c-0.6,0-1.4-0.1-2.2-0.4c-5.3-1.6-12.9-7.7-15.3-13.9c-1.1-2.8-1.3-6.4-1.5-10.1
						c-0.3-4.8-0.6-10.3-2.9-15.2c-1.5-3.2-3.7-6-5.8-8.6c-3.7-4.8-7.6-9.7-8.2-17.3c-0.5-6,1-10.1,2.5-14.1
						c1.5-3.9,2.9-7.6,2.3-12.9c-0.7-6.2-4.5-9.3-7.7-10.2c-3.3-0.8-6.5,0.4-8.5,3.2l-1.7,2.3l1-2.7c2.7-7,7.4-10.1,11-10.5l0,0
						c9.6-1.3,14.6,4.9,19.3,14.5c4.9,10.2,9.3,29.9,10.2,36.4c0.6,4.2,3.1,10,5.8,16.3c1.5,3.6,3.1,7.3,4.4,10.8
						c3.6,9.8,2.5,29.6-0.9,31.9C242.5,334.3,241.9,334.4,241.2,334.4z M200.2,230.8c0.7,0,1.5,0.1,2.3,0.3
						c3.5,0.9,7.5,4.2,8.3,10.8c0.6,5.4-0.8,9.2-2.3,13.2c-1.5,3.9-3,7.9-2.5,13.7c0.6,7.3,4.4,12.2,8.1,16.9
						c2.1,2.7,4.3,5.5,5.9,8.8c2.4,5.1,2.7,10.6,3,15.5c0.2,3.7,0.4,7.2,1.5,9.9c2.3,5.8,9.7,11.9,14.8,13.4c1.5,0.5,2.7,0.5,3.3,0
						c3.1-2.2,4-21.7,0.6-31c-1.3-3.5-2.8-7.2-4.4-10.7c-2.7-6.3-5.2-12.2-5.8-16.5c-1-6.4-5.3-26-10.2-36.2
						c-4.5-9.3-9.4-15.3-18.5-14.1c-3,0.4-6.9,2.7-9.5,8C196.3,231.5,198.2,230.8,200.2,230.8z"/>
				</g>
				<g>
					<path class="st4" d="M229.8,337.4c-9.1,0-20-3.1-27.9-7.8c-12.5-7.3-15.3-20.1-16.4-29.1c-1-8.3-1.3-17.7,0.2-36.5
						c0.7-9.2,4.8-24.6,7.3-29.4l0.7,0.3c-2.4,4.6-6.5,20.1-7.3,29.1c-1.5,18.7-1.2,28.1-0.2,36.4c1,8.8,3.8,21.4,16,28.6
						c12.3,7.2,32,10.6,40.2,4.4l0.5,0.6C239.8,336.4,235.1,337.4,229.8,337.4z"/>
				</g>
				<g>
					<path class="st4" d="M224.8,320.8c-0.6,0-0.9-0.3-1-0.5l0.6-0.4c0,0.1,0.1,0.2,0.6,0.2c2.3-0.3,7.8-5.7,10-14.5
						c2.6-10.5,0.8-21.2,0.8-21.4l0.7-0.1c0,0.1,1.9,11-0.8,21.7c-2.3,9.2-8.1,14.7-10.6,15C225,320.8,224.9,320.8,224.8,320.8z"/>
				</g>
			</g>
		</g>
		<g>
			<g>
				<path class="st9" d="M202.5,269c0-1.9-1.4-4.3-3-5.2c-0.9-0.5-1.6-0.5-2.2-0.2l0,0c-1.1,0.6-1.9,0.7-2.6,0.4
					c-1.4-0.8-3.1-4.1-3.1-10.6h-8.5c0,8.9,2.6,15.3,7.4,18c1.6,0.9,3.3,1.4,5.1,1.4c2,0,4.1-0.6,6.1-1.7l0,0
					C202.1,270.6,202.5,270,202.5,269z"/>
				<path class="st11" d="M202.5,269c0-1.9-1.4-4.3-3-5.2c-0.9-0.5-1.6-0.5-2.2-0.2l0,0c-1.1,0.6-1.9,0.7-2.6,0.4
					c-1.4-0.8-3.1-4.1-3.1-10.6h-8.5c0,8.9,2.6,15.3,7.4,18c1.6,0.9,3.3,1.4,5.1,1.4c2,0,4.1-0.6,6.1-1.7l0,0
					C202.1,270.6,202.5,270,202.5,269z"/>
				<g>
					<path class="st4" d="M195.5,273c-1.9,0-3.6-0.5-5.3-1.4c-4.9-2.8-7.5-9.3-7.5-18.3v-0.4h9.3v0.4c0,6.8,1.8,9.7,2.9,10.3
						c0.5,0.3,1.3,0.2,2.2-0.4l0.3-0.2l0,0c0.6-0.2,1.4-0.1,2.2,0.3c1.8,1,3.2,3.5,3.2,5.6c0,0.9-0.3,1.6-0.8,2.1l0,0l-0.3,0.2
						C199.7,272.4,197.6,273,195.5,273z M183.4,253.7c0.1,8.5,2.6,14.7,7.2,17.3c3.1,1.8,6.9,1.7,10.4-0.2l0,0l0.3-0.2
						c0.5-0.3,0.7-0.8,0.7-1.6c0-1.8-1.3-4-2.8-4.9c-0.7-0.4-1.3-0.5-1.8-0.2l-0.3,0.2l0,0c-1,0.5-1.9,0.6-2.6,0.2
						c-1.6-0.9-3.2-4.1-3.3-10.6H183.4z"/>
				</g>
			</g>
			<g>
				<path class="st9" d="M191.6,202.6c0-0.6-0.4-1.3-1.3-1.7c-1.7-1-4.4-1-6,0c-0.8,0.5-1.3,1.1-1.3,1.7l0,0l0,50.7
					c0,18.5-1.1,19.2-7.4,22.7l-0.4,0.2l0,0c-0.6,0.3-0.9,1-0.9,2c0,1.9,1.4,4.3,3,5.2c0.8,0.5,1.6,0.5,2.1,0.2l0,0l0.4-0.2
					c9.5-5.4,11.7-8.8,11.7-30.1L191.6,202.6L191.6,202.6z"/>
				<path class="st13" d="M191.6,202.6c0-0.6-0.4-1.3-1.3-1.7c-1.7-1-4.4-1-6,0c-0.8,0.5-1.3,1.1-1.3,1.7l0,0l0,50.7
					c0,18.5-1.1,19.2-7.4,22.7l-0.4,0.2l0,0c-0.6,0.3-0.9,1-0.9,2c0,1.9,1.4,4.3,3,5.2c0.8,0.5,1.6,0.5,2.1,0.2l0,0l0.4-0.2
					c9.5-5.4,11.7-8.8,11.7-30.1L191.6,202.6L191.6,202.6z"/>
				<path class="st14" d="M190.4,209.5c-1.7,1-4.4,1-6,0c-0.8-0.5-1.3-1.1-1.3-1.7v1.2c0,0.6,0.4,1.3,1.3,1.7c1.7,1,4.4,1,6,0
					c0.8-0.5,1.3-1.1,1.3-1.7v-1.2C191.6,208.4,191.2,209,190.4,209.5z M190.4,215.9c-1.7,1-4.4,1-6,0c-0.8-0.5-1.3-1.1-1.3-1.7v1.2
					c0,0.6,0.4,1.3,1.3,1.7c1.7,1,4.4,1,6,0c0.8-0.5,1.3-1.1,1.3-1.7v-1.2C191.6,214.8,191.2,215.4,190.4,215.9z M190.4,222.2
					c-1.7,1-4.4,1-6,0c-0.8-0.5-1.3-1.1-1.3-1.7v1.2c0,0.6,0.4,1.3,1.3,1.7c1.7,1,4.4,1,6,0c0.8-0.5,1.3-1.1,1.3-1.7v-1.2
					C191.6,221.1,191.2,221.7,190.4,222.2z M190.4,228.6c-1.7,1-4.4,1-6,0c-0.8-0.5-1.3-1.1-1.3-1.7v1.2c0,0.6,0.4,1.3,1.3,1.7
					c1.7,1,4.4,1,6,0c0.8-0.5,1.3-1.1,1.3-1.7v-1.2C191.6,227.5,191.2,228.1,190.4,228.6z M190.4,234.9c-1.7,1-4.4,1-6,0
					c-0.8-0.5-1.3-1.1-1.3-1.7v1.2c0,0.6,0.4,1.3,1.3,1.7c1.7,1,4.4,1,6,0c0.8-0.5,1.3-1.1,1.3-1.7v-1.2
					C191.6,233.8,191.2,234.5,190.4,234.9z M190.4,241.3c-1.7,1-4.4,1-6,0c-0.8-0.5-1.3-1.1-1.3-1.7v1.2c0,0.6,0.4,1.3,1.3,1.7
					c1.7,1,4.4,1,6,0c0.8-0.5,1.3-1.1,1.3-1.7v-1.2C191.6,240.2,191.2,240.8,190.4,241.3z M190.4,247.7c-1.7,1-4.4,1-6,0
					c-0.8-0.5-1.3-1.1-1.3-1.7v1.2c0,0.6,0.4,1.3,1.3,1.7c1.7,1,4.4,1,6,0c0.8-0.5,1.3-1.1,1.3-1.7v-1.2
					C191.6,246.5,191.2,247.2,190.4,247.7z M190.4,254c-1.7,1-4.4,1-6,0c-0.8-0.5-1.3-1.1-1.3-1.7v1.2c0,0.6,0.4,1.3,1.3,1.7
					c1.7,1,4.4,1,6,0c0.8-0.5,1.3-1.1,1.3-1.7v-1.2C191.6,252.9,191.2,253.5,190.4,254z M190.3,260.4c-1.7,1-4.4,1-6,0
					c-0.8-0.5-1.3-1.1-1.3-1.7v1.2c0,0.6,0.4,1.3,1.3,1.7c1.7,1,4.4,1,6,0c0.8-0.5,1.3-1.1,1.3-1.7v-1.2
					C191.5,259.3,191.1,259.9,190.3,260.4z M189.8,267c-1.8,0.8-4.4,0.6-6-0.6c-0.8-0.6-1.1-1.2-1.1-1.9l-0.1,1.2
					c-0.1,0.6,0.3,1.3,1.1,1.9c1.6,1.1,4.3,1.4,6,0.6c0.9-0.4,1.3-1,1.4-1.6l0.1-1.2C191.2,266,190.7,266.6,189.8,267z M188.1,274.1
					c-1.9,0.3-4.4-0.6-5.7-2.1c-0.6-0.7-0.8-1.5-0.6-2.1l-0.4,1.2c-0.2,0.6,0,1.3,0.6,2.1c1.2,1.5,3.8,2.4,5.7,2.1
					c0.9-0.2,1.6-0.6,1.8-1.2l0.4-1.2C189.6,273.5,189,273.9,188.1,274.1z"/>
			</g>
			<g>
				<path class="st9" d="M184.3,200.9c-1.7,1-1.7,2.5,0,3.5c1.7,1,4.4,1,6,0c1.7-1,1.7-2.5,0-3.5C188.7,199.9,186,199.9,184.3,200.9
					z"/>
				<path class="st15" d="M184.3,200.9c-1.7,1-1.7,2.5,0,3.5c1.7,1,4.4,1,6,0c1.7-1,1.7-2.5,0-3.5
					C188.7,199.9,186,199.9,184.3,200.9z"/>
				<path class="st9" d="M185.8,201.8c-0.9,0.5-0.9,1.2,0,1.7c0.9,0.5,2.3,0.5,3.2,0c0.9-0.5,0.9-1.2,0-1.7
					C188,201.3,186.6,201.3,185.8,201.8z"/>
				<path class="st10" d="M185.8,201.8c-0.9,0.5-0.9,1.2,0,1.7c0.9,0.5,2.3,0.5,3.2,0c0.9-0.5,0.9-1.2,0-1.7
					C188,201.3,186.6,201.3,185.8,201.8z"/>
			</g>
			<g>
				<path class="st4" d="M178.7,284.2c-0.5,0-1-0.2-1.5-0.5c-1.8-1-3.2-3.5-3.2-5.6c0-1.1,0.4-1.9,1.1-2.3l0.4-0.2
					c6.1-3.5,7.2-4.1,7.2-22.4l0-50.7c0-0.8,0.5-1.5,1.4-2.1c0,0,0,0,0,0c1.8-1,4.6-1,6.4,0c0.9,0.5,1.4,1.3,1.4,2.1l0,50.7
					c0,21.5-2.3,25-11.9,30.5l-0.7,0.4l0,0C179.1,284.2,178.9,284.2,178.7,284.2z M183.4,204.2l0,49.1c0,18.7-1.2,19.4-7.6,23
					l-0.4,0.2c-0.5,0.3-0.7,0.8-0.7,1.6c0,1.8,1.3,4,2.8,4.9c0.7,0.4,1.3,0.5,1.7,0.2l0.3-0.2l0,0l0.1,0c9.4-5.3,11.5-8.7,11.5-29.8
					l0-49.1c-0.2,0.2-0.4,0.4-0.7,0.5c-1.8,1-4.6,1-6.4,0C183.9,204.6,183.6,204.4,183.4,204.2z M184.5,201.2
					c-0.7,0.4-1.1,0.9-1.1,1.4c0,0.5,0.4,1,1.1,1.4c1.6,0.9,4.1,0.9,5.7,0c0.7-0.4,1.1-0.9,1.1-1.4c0-0.5-0.4-1-1.1-1.4
					C188.6,200.3,186.1,200.3,184.5,201.2z"/>
			</g>
		</g>
		<g>
			<path class="st9" d="M183.2,303.6c-0.4-3.9,0.1-7.6-0.1-12.1c0,0,0,0,0,0l0,0c-0.1-2.3-0.4-4.9-1-7.9c-1.6-7.2-2.5-12.3-2-24.6
				c0.8-16.5-2.4-23.6-12.4-24.3c-8.6-0.5-25.8,7.2-35.8,62.8c-6.8,7.5-7.3,41.1-7.3,52.5c0,11.4,5.3,22.9,18,23.7
				c5.7,0.4,11.3-1.7,16.6-5l0,0c0,0,0,0,0,0c10.9-6.8,20.1-18.9,24.1-25.9C189.2,332.5,183.7,309.7,183.2,303.6z"/>
			<path class="st11" d="M183.2,303.6c-0.4-3.9,0.1-7.6-0.1-12.1c0,0,0,0,0,0l0,0c-0.1-2.3-0.4-4.9-1-7.9c-1.6-7.2-2.5-12.3-2-24.6
				c0.8-16.5-2.4-23.6-12.4-24.3c-8.6-0.5-25.8,7.2-35.8,62.8c-6.8,7.5-7.3,41.1-7.3,52.5c0,11.4,5.3,22.9,18,23.7
				c5.7,0.4,11.3-1.7,16.6-5l0,0c0,0,0,0,0,0c10.9-6.8,20.1-18.9,24.1-25.9C189.2,332.5,183.7,309.7,183.2,303.6z"/>
			<path class="st12" d="M183.2,303.6c-0.3-3.3,0-6.4,0-10c-0.1,0.7-2.5,7.5-1.5,18.1c0.7,7.3,1.9,15.4,0.2,23.2
				c-1.7,7.8-7,14-13,19c-4.2,3.5-10.9,3.5-15.4-1.5c-4.6-5-10.1-11-19.6-10l0,0.2c2.1,0.1,4.5,1,7,2.7c5.4,4.7,11.5,17.8,4.7,22.5
				c-5.5,3.8-16.3-0.6-19-6.4c2.6,6.6,7.7,11.7,16,12.2c5.7,0.4,11.3-1.7,16.6-5l0,0c0,0,0,0,0,0c0.1-0.1,0.2-0.2,0.4-0.2
				c0.4-0.3,0.8-0.5,1.2-0.8c10.2-6.9,18.8-18.2,22.6-24.9C189.2,332.5,183.7,309.7,183.2,303.6z"/>
			<path class="st12" d="M183.1,291.5L183.1,291.5c-0.4,16.7-23.7,28.5-36.6,27.4c-8-0.6-12.2-4.6-13.9-10v0
				c3.8,6.1,20.8,4,32.3-5.5c11.2-9.3,11-15.6,9.5-31.9c-1.5-16.3,6.1-30.3-2.4-35.9c6.6,2.3,8.8,9.5,8.1,23.4
				c-0.6,12.3,0.3,17.5,1.9,24.6C182.7,286.6,183,289.2,183.1,291.5L183.1,291.5z"/>
			<g>
				<g>
					<path class="st4" d="M143.8,374.2c-0.4,0-0.9,0-1.3,0c-13.5-0.9-18.3-13.5-18.3-24.1c0-16.6,1-45.5,7.3-52.7
						c10.6-58.2,28.8-63.5,36.2-63c10,0.6,13.6,7.5,12.8,24.6c-0.6,12.2,0.3,17.4,1.9,24.5c1.3,5.6,1.2,9.9,1.1,13.7
						c-0.1,2.2-0.1,4.2,0.1,6.4c0.1,1.1,0.4,2.9,0.7,5.1c1.4,9.1,4.1,25.9-0.7,34.4C176.6,355.3,159.8,374.2,143.8,374.2z
						 M166.9,235.1c-7.6,0-24.6,6.8-34.7,62.5l0,0.1l-0.1,0.1c-6.5,7.1-7.2,38.9-7.2,52.2c0,10.2,4.6,22.5,17.6,23.3
						c16,1.1,33.3-18.2,40.4-30.7c4.7-8.3,2.1-25,0.6-33.9c-0.4-2.2-0.6-4-0.7-5.1c-0.2-2.2-0.1-4.3-0.1-6.4c0.1-3.9,0.2-8-1-13.5
						c-1.6-7.2-2.6-12.4-2-24.7c0.8-16.8-2.5-23.3-12.1-23.9C167.4,235.1,167.1,235.1,166.9,235.1z"/>
				</g>
				<g>
					<path class="st4" d="M148.2,319.4c-0.6,0-1.2,0-1.7-0.1c-5.1-0.4-9-2.2-11.6-5.3c-3.1-3.7-4.2-9.3-3.4-16.5l0.7,0.1
						c-0.8,7,0.3,12.4,3.3,16c2.4,2.9,6.1,4.6,11,5c8.3,0.7,20.2-4,27.7-10.8c3.8-3.4,8.4-9,8.5-16.3l0.7,0
						c-0.1,6-3.2,11.8-8.8,16.9C167.4,314.9,156.6,319.4,148.2,319.4z"/>
				</g>
				<g>
					<path class="st4" d="M158.8,368.9c0-0.1-3.4-8.6-11.1-17c-5.8-6.4-10.9-9.4-15.2-8.9c-2.9,0.3-5.5,2.3-7.5,5.9l-0.6-0.4
						c2.2-3.8,4.9-6,8.1-6.3c4.5-0.5,9.8,2.6,15.8,9.2c7.8,8.5,11.2,17.1,11.2,17.2L158.8,368.9z"/>
				</g>
			</g>
		</g>
	</g>
	<g id="Alveoli_00000148656539309102532470000015251651223429689775_">
		<g id="Line_00000093144238316213583240000014318121566371561097_">
			<g>
				<polygon class="st4" points="331,384.2 294.7,384.2 294.4,383.7 265.9,333.7 267.7,332.7 295.8,382.2 331,382.2 				"/>
			</g>
			<path class="st4" d="M270.6,333.2c0,2.1-1.7,3.8-3.8,3.8c-2.1,0-3.8-1.7-3.8-3.8c0-2.1,1.7-3.8,3.8-3.8
				C268.9,329.4,270.6,331.1,270.6,333.2z"/>
		</g>
		<g>
			<path class="st9" d="M390.3,323.9c-32.7,0-59.3,26.6-59.3,59.2s26.6,59.3,59.3,59.3c32.7,0,59.2-26.6,59.2-59.3
				S422.9,323.9,390.3,323.9z M390.3,439.9c-31.3,0-56.8-25.5-56.8-56.8c0-31.3,25.5-56.7,56.8-56.7c31.3,0,56.7,25.5,56.7,56.7
				C447,414.5,421.6,439.9,390.3,439.9z"/>
			<path class="st16" d="M447,383.2c0,31.3-25.5,56.8-56.7,56.8c-31.3,0-56.8-25.5-56.8-56.8c0-31.3,25.5-56.7,56.8-56.7
				C421.6,326.4,447,351.9,447,383.2z"/>
		</g>
		<g id="Alveoli">
			<g>
				<path class="st9" d="M390.7,370.1c-2,0-3.7,1.1-5.2,3.3l6.2,16.2l5.2-3.3L390.7,370.1z"/>
				<path class="st17" d="M390.7,370.1c-2,0-3.7,1.1-5.2,3.3l6.2,16.2l5.2-3.3L390.7,370.1z"/>
				<g>
					<path class="st4" d="M391.6,390.3l-6.5-17l0.1-0.2c1.5-2.4,3.4-3.6,5.5-3.6c0,0,0,0,0,0l0.3,0l6.5,16.9L391.6,390.3z
						 M386.1,373.5l5.9,15.4l4.4-2.8l-6-15.5C388.7,370.6,387.3,371.6,386.1,373.5z"/>
				</g>
				<g>
					<path class="st9" d="M381.7,365.6c-0.8-2.6-3.1-10.6-4.8-15.2l-0.9-1.7l-3-0.9c0,0.1,0,0.1,0,0.2c0,0.2,0,0.5,0.1,0.7l5.3,16.2
						c0,0,0,0,0,0l0.3,0.9c1,3.2,0.6,4.3-2.6,8.5l2.3,1.7c0.6-1.1,1.4-2.3,2.1-3.7C382.6,368.6,382.5,368.2,381.7,365.6z"/>
					<path class="st17" d="M380.5,372.3c-0.7,1.4-1.5,2.6-2.1,3.7l-2.3-1.7c3.3-4.2,3.6-5.3,2.6-8.5l-0.3-0.9c0,0,0,0,0,0l0,0
						l-5.3-16.2c-0.1-0.2-0.1-0.4-0.1-0.7c0-0.1,0-0.1,0-0.2l3,0.9l0.9,1.7c1.6,4.5,4,12.5,4.8,15.2
						C382.5,368.2,382.6,368.6,380.5,372.3z"/>
					<g>
						<path class="st4" d="M382.2,379.3l-6.8-5l0.3-0.4c3.2-4.2,3.5-5.1,2.6-8.1l-5.6-17.1c-0.3-1,0-2.1,0.9-3.1
							c1.8-2,5.3-3.1,7.8-2.6c1.3,0.3,2.3,1,2.6,1.9l5,15.2c1.1,3.3,4.1,3.4,6.4,3.5l0.6,0l-0.1,0.6l-1.9,5.9l-0.4,0
							c-3-0.1-5.2,0.3-6.8,2.1c-1.7,1.9-4.4,6.4-4.4,6.4L382.2,379.3z M376.8,374.2l5.2,3.8c0.7-1.2,2.8-4.5,4.2-6.1
							c1.8-2,4.2-2.5,7.2-2.5l1.5-4.7c-2.3-0.1-5.5-0.6-6.7-4.1l-5-15.2c-0.2-0.6-0.9-1.1-1.9-1.3c-2.3-0.5-5.4,0.5-6.9,2.3
							c-0.7,0.8-0.9,1.5-0.7,2.2l5.6,17.1C380.3,369,379.7,370.3,376.8,374.2z"/>
					</g>
				</g>
				<g>
					<path class="st16" d="M381.3,343.6c1.2,0.3,2,0.9,2.2,1.6c0.3,0.8,0,1.7-0.8,2.6c-1.7,1.8-5,2.9-7.4,2.4
						c-1.2-0.3-2-0.9-2.2-1.6c-0.3-0.8,0-1.7,0.8-2.6C375.6,344.2,378.9,343.1,381.3,343.6z"/>
				</g>
				<g>
					<g>
						<path class="st9" d="M379.8,345.3c0.6,0.1,0.9,0.4,1.1,0.8c0.1,0.4,0,0.8-0.4,1.3c-0.8,0.9-2.4,1.4-3.6,1.2
							c-0.6-0.1-0.9-0.4-1.1-0.8c-0.1-0.4,0-0.8,0.4-1.3C377,345.6,378.6,345.1,379.8,345.3z"/>
						<path class="st4" d="M377.5,349.1c-0.2,0-0.5,0-0.7-0.1c-0.7-0.2-1.2-0.5-1.4-1.1c-0.2-0.6,0-1.2,0.5-1.7c0.9-1,2.7-1.6,4-1.3
							v0c0.7,0.2,1.2,0.5,1.4,1.1c0.2,0.6,0,1.2-0.5,1.7C380,348.5,378.7,349.1,377.5,349.1z M379.1,345.7c-0.9,0-2,0.4-2.6,1.1
							c-0.3,0.3-0.4,0.6-0.3,0.8c0.1,0.2,0.3,0.4,0.7,0.5c1,0.2,2.4-0.3,3.1-1c0.3-0.3,0.4-0.6,0.3-0.8c-0.1-0.2-0.3-0.4-0.7-0.5
							C379.5,345.8,379.3,345.7,379.1,345.7z"/>
					</g>
				</g>
				<g>
					<g>
						<path class="st4" d="M376.6,350.9c-0.5,0-0.9,0-1.4-0.1c-1.3-0.3-2.3-1-2.6-1.9c-0.3-1,0-2.1,0.9-3.1c1.8-2,5.3-3.1,7.8-2.6
							l0,0c1.3,0.3,2.3,1,2.6,1.9c0.3,1,0,2.1-0.9,3.1C381.6,349.8,378.9,350.9,376.6,350.9z M380,343.9c-2.1,0-4.4,0.9-5.7,2.4
							c-0.7,0.8-0.9,1.5-0.7,2.2c0.2,0.6,0.9,1.1,1.9,1.3c2.3,0.5,5.4-0.5,6.9-2.3c0.7-0.8,0.9-1.5,0.7-2.2
							c-0.2-0.6-0.9-1.1-1.9-1.3l0,0C380.8,344,380.4,343.9,380,343.9z"/>
					</g>
				</g>
			</g>
			<g>
				<g>
					<path class="st16" d="M404.6,369.3c0,3.3-2.7,6-6,6c-3.3,0-6-2.7-6-6s2.7-6,6-6C402,363.3,404.6,366,404.6,369.3z"/>
					<path class="st16" d="M424.4,368.4c0,3.4-2.8,6.2-6.2,6.2c-3.4,0-6.2-2.8-6.2-6.2c0-3.4,2.8-6.2,6.2-6.2
						C421.6,362.1,424.4,364.9,424.4,368.4z"/>
					<path class="st16" d="M408.6,384.2c0,3.3-2.7,6-6,6c-3.3,0-6-2.7-6-6s2.7-6,6-6C405.9,378.3,408.6,380.9,408.6,384.2z"/>
					<circle class="st16" cx="407.7" cy="364.3" r="7.6"/>
					<path class="st16" d="M424.9,377.5c0,3.7-3,6.7-6.7,6.7s-6.7-3-6.7-6.7s3-6.7,6.7-6.7S424.9,373.8,424.9,377.5z"/>
					<path class="st16" d="M404.5,377.5c0,3.7-3,6.7-6.7,6.7s-6.7-3-6.7-6.7s3-6.7,6.7-6.7S404.5,373.8,404.5,377.5z"/>
					<path class="st16" d="M419.7,383.1c0,3.7-3,6.7-6.7,6.7c-3.7,0-6.7-3-6.7-6.7s3-6.7,6.7-6.7
						C416.7,376.4,419.7,379.4,419.7,383.1z"/>
					<circle class="st16" cx="408.1" cy="374.2" r="7.6"/>
				</g>
				<path class="st9" d="M415.3,376.8c5,2,4.4,7.1,4.4,7.2c0.3-0.1,0.6-0.2,0.9-0.3c0.8-2.4,0.4-5.7-1.5-8.1
					c1.1-2.1,0.4-4.7,0.4-4.7c1.5,0.1,3.2,1.6,3.3,1.7c0,0,0.1-0.1,0.1-0.1l0.5-0.6c0,0,0.1-0.1,0.1-0.1c-2.2-3.6-6.5-3.5-6.5-3.5
					s1.7-3.5,1.1-6c-0.4,0-0.9,0.1-1.3,0.2c-0.4,0.1-0.9,0.3-1.1,0.4c-0.1,0.1-0.2,0.1-0.4,0.2c0.5,3.8-1.5,6.1-1.5,6.1
					c1.8,1.9,2,4.8,2,4.8c-0.6,2.5-5.4,5.8-9.4,3c-4-2.8-2.9-8.7-1.5-9.5c-2.8-3.3-1.4-9.6,2.5-10.6c-3.8,0.2-6.9,3.1-7.3,6.8
					c-0.5-0.1-0.9-0.2-1.4-0.2c-0.1,0.8-0.1,1.5,0,2.2c0.4,3.4,0.4,4.1-1.5,5.3c2.4-0.2,3.8,0.8,3.8,0.8c-0.9,1.7-0.2,4.4-0.2,4.4
					s1.4,2.8-1,5.1c-2.3,2.2-6.1,1.6-6.3,1.6c0.9,0.8,2,1.3,3.2,1.5c0,0,0,0.1,0,0.1c0,3.3,2.7,6,6,6c2.2,0,4.1-1.2,5.1-2.9
					c1.2,1.6,3.1,2.6,5.3,2.6c2.2,0,4.2-1.1,5.4-2.7c-0.7,0.6-2.5,1.5-5.1,0.5c-2.7-1-3.4-3.6-2.3-6.3
					C414.4,379.8,415.3,376.8,415.3,376.8z"/>
				<path class="st17" d="M415.3,376.8c5,2,4.4,7.1,4.4,7.2c0.3-0.1,0.6-0.2,0.9-0.3c0.8-2.4,0.4-5.7-1.5-8.1
					c1.1-2.1,0.4-4.7,0.4-4.7c1.5,0.1,3.2,1.6,3.3,1.7c0,0,0.1-0.1,0.1-0.1l0.5-0.6c0,0,0.1-0.1,0.1-0.1c-2.2-3.6-6.5-3.5-6.5-3.5
					s1.7-3.5,1.1-6c-0.4,0-0.9,0.1-1.3,0.2c-0.4,0.1-0.9,0.3-1.1,0.4c-0.1,0.1-0.2,0.1-0.4,0.2c0.5,3.8-1.5,6.1-1.5,6.1
					c1.8,1.9,2,4.8,2,4.8c-0.6,2.5-5.4,5.8-9.4,3c-4-2.8-2.9-8.7-1.5-9.5c-2.8-3.3-1.4-9.6,2.5-10.6c-3.8,0.2-6.9,3.1-7.3,6.8
					c-0.5-0.1-0.9-0.2-1.4-0.2c-0.1,0.8-0.1,1.5,0,2.2c0.4,3.4,0.4,4.1-1.5,5.3c2.4-0.2,3.8,0.8,3.8,0.8c-0.9,1.7-0.2,4.4-0.2,4.4
					s1.4,2.8-1,5.1c-2.3,2.2-6.1,1.6-6.3,1.6c0.9,0.8,2,1.3,3.2,1.5c0,0,0,0.1,0,0.1c0,3.3,2.7,6,6,6c2.2,0,4.1-1.2,5.1-2.9
					c1.2,1.6,3.1,2.6,5.3,2.6c2.2,0,4.2-1.1,5.4-2.7c-0.7,0.6-2.5,1.5-5.1,0.5c-2.7-1-3.4-3.6-2.3-6.3
					C414.4,379.8,415.3,376.8,415.3,376.8z"/>
				<g>
					<g>
						<path class="st4" d="M393.1,372.5c-0.6-1-0.9-2.1-0.9-3.2c0-3.5,2.9-6.4,6.4-6.4c0.5,0,1,0.1,1.5,0.2L400,364
							c-0.4-0.1-0.9-0.2-1.3-0.2c-3,0-5.5,2.5-5.5,5.5c0,1,0.3,1.9,0.7,2.8L393.1,372.5z"/>
					</g>
					<g>
						<path class="st4" d="M423.1,372.9l-0.7-0.6c1-1.1,1.5-2.5,1.5-3.9c0-3.2-2.6-5.8-5.8-5.8c-1,0-1.9,0.2-2.8,0.7l-0.5-0.8
							c1-0.5,2.1-0.8,3.2-0.8c3.7,0,6.7,3,6.7,6.7C424.9,370.1,424.3,371.7,423.1,372.9z"/>
					</g>
					<g>
						<path class="st4" d="M402.6,390.6c-3.5,0-6.4-2.9-6.4-6.4h0.9c0,3,2.5,5.5,5.5,5.5c1.9,0,3.6-1,4.7-2.6l0.8,0.5
							C406.9,389.5,404.9,390.6,402.6,390.6z"/>
					</g>
					<g>
						<path class="st4" d="M401.8,369.8c-1.4-1.5-2.2-3.5-2.2-5.5c0-4.5,3.6-8.1,8.1-8.1c4.5,0,8.1,3.6,8.1,8.1c0,1.8-0.6,3.6-1.7,5
							l-0.7-0.6c1-1.3,1.5-2.8,1.5-4.4c0-3.9-3.2-7.2-7.2-7.2c-3.9,0-7.2,3.2-7.2,7.2c0,1.8,0.7,3.5,1.9,4.9L401.8,369.8z"/>
					</g>
					<g>
						<path class="st4" d="M419.8,384.5l-0.2-0.9c2.8-0.7,4.8-3.2,4.8-6.1c0-3.4-2.8-6.2-6.2-6.2c-0.9,0-1.8,0.2-2.7,0.6l-0.4-0.9
							c1-0.5,2-0.7,3.1-0.7c4,0,7.2,3.2,7.2,7.2C425.4,380.9,423.1,383.7,419.8,384.5z"/>
					</g>
					<g>
						<path class="st4" d="M397.8,384.7c-4,0-7.2-3.2-7.2-7.2s3.2-7.2,7.2-7.2c1.2,0,2.4,0.3,3.4,0.9l-0.4,0.8
							c-0.9-0.5-1.9-0.7-2.9-0.7c-3.4,0-6.2,2.8-6.2,6.2s2.8,6.2,6.2,6.2c2.4,0,4.6-1.3,5.6-3.5l0.8,0.4
							C403,383.1,400.5,384.7,397.8,384.7z"/>
					</g>
					<g>
						<path class="st4" d="M413,390.3c-4,0-7.2-3.2-7.2-7.2c0-0.5,0-1,0.1-1.4l0.9,0.2c-0.1,0.4-0.1,0.8-0.1,1.3
							c0,3.4,2.8,6.2,6.2,6.2s6.2-2.8,6.2-6.2c0-2.6-1.6-5-4.1-5.9l0.3-0.9c2.8,1,4.7,3.7,4.7,6.7C420.2,387.1,417,390.3,413,390.3z
							"/>
					</g>
					<g>
						<path class="st4" d="M408.1,382.3c-4.5,0-8.1-3.6-8.1-8.1c0-4.5,3.6-8.1,8.1-8.1c4.5,0,8.1,3.6,8.1,8.1
							C416.2,378.6,412.6,382.3,408.1,382.3z M408.1,367c-3.9,0-7.2,3.2-7.2,7.2c0,3.9,3.2,7.2,7.2,7.2c3.9,0,7.2-3.2,7.2-7.2
							C415.3,370.2,412.1,367,408.1,367z"/>
					</g>
				</g>
			</g>
			<g>
				<g>
					
						<ellipse transform="matrix(0.9239 -0.3827 0.3827 0.9239 -119.4575 187.6204)" class="st16" cx="411.9" cy="394.1" rx="7.3" ry="7.3"/>
					
						<ellipse transform="matrix(0.2298 -0.9732 0.9732 0.2298 -85.8552 716.0711)" class="st16" cx="409.5" cy="412.3" rx="7.4" ry="7.4"/>
					
						<ellipse transform="matrix(0.1602 -0.9871 0.9871 0.1602 -67.2727 722.6454)" class="st16" cx="391" cy="400.9" rx="7.9" ry="7.9"/>
					
						<ellipse transform="matrix(0.1602 -0.9871 0.9871 0.1602 -51.1595 723.3036)" class="st16" cx="399.5" cy="391.7" rx="8.6" ry="8.6"/>
					<path class="st16" d="M423.1,404.5c0,3.8-3.1,6.8-6.8,6.8s-6.8-3.1-6.8-6.8s3.1-6.8,6.8-6.8S423.1,400.8,423.1,404.5z"/>
					
						<ellipse transform="matrix(0.9239 -0.3827 0.3827 0.9239 -127.5641 183.2443)" class="st16" cx="396.8" cy="412.3" rx="8" ry="8"/>
					<circle class="st16" cx="403.6" cy="402.6" r="8.3"/>
				</g>
				<g>
					<path class="st9" d="M416,408.7c-4.8-1.4-4.2-4.9-4.2-4.9s-2.6,4.9-8.7,2.7c-5.4-1.9-6-7.9-3.8-11.1c-4.8-5,0.2-12.1,4.4-11.3
						c-1.3-0.7-2.7-1.1-4.2-1.1c-4.8,0-8.6,3.9-8.6,8.6c0,0.4,0,0.9,0.1,1.3c-4.3,0-7.8,3.5-7.8,7.9c0,3.9,2.8,7.1,6.5,7.7
						c-0.6,1.1-0.9,2.4-0.9,3.7c0,4.4,3.6,8,8,8c2.8,0,5.3-1.4,6.7-3.6c0.7,0.9,1.6,1.7,2.6,2.2c1.8-2.4,2-5.1,2-5.1
						c1.7-0.2,2.8-1.3,2.8-1.3c2.5,2.2,5.9,1.2,5.9,1.2c0.1-0.5,0.1-1,0.1-1.5c0-0.3,0-0.6-0.1-1c2.1-0.2,4-1.3,5.1-3l1.1-2.8
						c0,0,0,0,0,0C422.9,405.7,420.6,410.1,416,408.7z"/>
					<path class="st17" d="M416,408.7c-4.8-1.4-4.2-4.9-4.2-4.9s-2.6,4.9-8.7,2.7c-5.4-1.9-6-7.9-3.8-11.1c-4.8-5,0.2-12.1,4.4-11.3
						c-1.3-0.7-2.7-1.1-4.2-1.1c-4.8,0-8.6,3.9-8.6,8.6c0,0.4,0,0.9,0.1,1.3c-4.3,0-7.8,3.5-7.8,7.9c0,3.9,2.8,7.1,6.5,7.7
						c-0.6,1.1-0.9,2.4-0.9,3.7c0,4.4,3.6,8,8,8c2.8,0,5.3-1.4,6.7-3.6c0.7,0.9,1.6,1.7,2.6,2.2c1.8-2.4,2-5.1,2-5.1
						c1.7-0.2,2.8-1.3,2.8-1.3c2.5,2.2,5.9,1.2,5.9,1.2c0.1-0.5,0.1-1,0.1-1.5c0-0.3,0-0.6-0.1-1c2.1-0.2,4-1.3,5.1-3l1.1-2.8
						c0,0,0,0,0,0C422.9,405.7,420.6,410.1,416,408.7z"/>
				</g>
				<g>
					<g>
						<path class="st4" d="M418.4,398.2l-0.8-0.5c0.7-1.1,1-2.3,1-3.6c0-3.7-3-6.8-6.8-6.8c-1.5,0-3,0.5-4.2,1.4l-0.6-0.7
							c1.4-1.1,3-1.7,4.8-1.7c4.3,0,7.7,3.5,7.7,7.7C419.6,395.5,419.2,397,418.4,398.2z"/>
					</g>
					<g>
						<path class="st4" d="M409.5,420.2c-2.5,0-4.8-1.2-6.3-3.2l0.8-0.6c1.3,1.8,3.4,2.8,5.6,2.8c3.8,0,6.9-3.1,6.9-6.9
							c0-0.3,0-0.6-0.1-0.9l0.9-0.1c0,0.3,0.1,0.7,0.1,1C417.3,416.6,413.8,420.2,409.5,420.2z"/>
					</g>
					<g>
						<path class="st4" d="M389.6,409.1c-4-0.7-6.9-4.1-6.9-8.2c0-4.6,3.7-8.3,8.3-8.3v0.9c-4.1,0-7.4,3.3-7.4,7.4
							c0,3.6,2.6,6.7,6.1,7.3L389.6,409.1z"/>
					</g>
					<g>
						<path class="st4" d="M395.6,400c-3.2-1.5-5.2-4.7-5.2-8.2c0-5,4.1-9.1,9.1-9.1c5,0,9.1,4.1,9.1,9.1c0,1.3-0.3,2.5-0.8,3.7
							l-0.9-0.4c0.5-1,0.7-2.2,0.7-3.3c0-4.5-3.7-8.1-8.1-8.1c-4.5,0-8.1,3.7-8.1,8.1c0,3.2,1.8,6.1,4.7,7.4L395.6,400z"/>
					</g>
					<g>
						<path class="st4" d="M416.3,411.8c-2.7,0-5.2-1.5-6.5-3.9l0.8-0.4c1.1,2.1,3.3,3.4,5.6,3.4c3.5,0,6.3-2.8,6.3-6.3
							c0-3.5-2.8-6.3-6.3-6.3c-1.7,0-3.4,0.7-4.6,1.9l-0.7-0.7c1.4-1.4,3.3-2.2,5.3-2.2c4,0,7.3,3.3,7.3,7.3
							C423.6,408.6,420.3,411.8,416.3,411.8z"/>
					</g>
					<g>
						<path class="st4" d="M396.8,420.8c-4.7,0-8.5-3.8-8.5-8.5c0-4.1,3-7.6,7-8.4l0.2,0.9c-3.6,0.6-6.2,3.8-6.2,7.4
							c0,4.2,3.4,7.5,7.5,7.5s7.5-3.4,7.5-7.5c0-0.4,0-0.9-0.1-1.3l0.9-0.2c0.1,0.5,0.1,1,0.1,1.4
							C405.3,417,401.5,420.8,396.8,420.8z"/>
					</g>
					<g>
						<path class="st4" d="M403.6,411.4c-4.8,0-8.8-3.9-8.8-8.8c0-4.8,3.9-8.8,8.8-8.8c4.8,0,8.8,3.9,8.8,8.8
							C412.4,407.5,408.4,411.4,403.6,411.4z M403.6,394.8c-4.3,0-7.8,3.5-7.8,7.8c0,4.3,3.5,7.8,7.8,7.8c4.3,0,7.8-3.5,7.8-7.8
							C411.4,398.3,407.9,394.8,403.6,394.8z"/>
					</g>
				</g>
			</g>
			<g>
				<g>
					<circle class="st16" cx="376.7" cy="380.8" r="9.2"/>
					<circle class="st16" cx="359.8" cy="399.7" r="8.5"/>
					<circle class="st16" cx="383.6" cy="406.2" r="8.5"/>
					
						<ellipse transform="matrix(0.7071 -0.7071 0.7071 0.7071 -162.7578 388.1893)" class="st16" cx="387.2" cy="390.6" rx="9.1" ry="9.1"/>
					
						<ellipse transform="matrix(0.2298 -0.9732 0.9732 0.2298 -96.0801 652.2596)" class="st16" cx="364" cy="386.8" rx="9.1" ry="9.1"/>
					
						<ellipse transform="matrix(0.2298 -0.9732 0.9732 0.2298 -110.2919 673.0362)" class="st16" cx="370.1" cy="406.2" rx="9.1" ry="9.1"/>
					
						<ellipse transform="matrix(0.1602 -0.9871 0.9871 0.1602 -74.5018 700.6086)" class="st16" cx="374.5" cy="394.1" rx="9.1" ry="9.1"/>
				</g>
				<g>
					<path class="st9" d="M388.4,397.1c-4.4-0.7-4.8-3-4.8-3c-0.4,1.7-2.7,6.5-8.5,5.1c-5.8-1.4-8-6.2-7.1-11.5c2.9-2.9,7-2.7,7-2.7
						s-0.4-3.2-1.9-5.3c-1.5-2.2-2.1-5.9,0.5-7.6c-2.9,1-5.1,3.4-5.9,6.4c-0.3-0.2-0.7-0.3-1.1-0.4c-1.5,4,0.5,7.4,0.5,7.4
						s-2.9,1.7-3.2,4.5c-1.1-1.1-3.3-0.7-5.7-1.3c-2.2-0.5-3.1-3.3-3.2-3.9c-0.1,0.6-0.2,1.3-0.2,2c0,1.9,0.6,3.6,1.5,5.1
						c-3,1.3-5.1,4.3-5.1,7.8c0,4.7,3.8,8.5,8.5,8.5c0.4,0,0.9,0,1.3-0.1c0.9,4.1,4.5,7.2,8.9,7.2c2.9,0,5.5-1.4,7.2-3.5
						c1.6,1.8,3.8,2.9,6.4,2.9c1.4,0,2.8-0.4,3.9-1l2-1.4c0,0,0,0,0,0c-3,2.1-7.8,0.5-8.1-2.5c-0.2-2.9-0.2-6.2-0.2-6.2
						c1.1-0.5,2.4-1.9,2.4-1.9c4.3,0.8,6.8-0.3,7-0.3c-0.5-0.7-1-1.3-1.7-1.8c3.2-0.6,5.8-2.9,6.9-5.9
						C395.7,393.7,392.7,397.8,388.4,397.1z"/>
					<path class="st17" d="M388.4,397.1c-4.4-0.7-4.8-3-4.8-3c-0.4,1.7-2.7,6.5-8.5,5.1c-5.8-1.4-8-6.2-7.1-11.5
						c2.9-2.9,7-2.7,7-2.7s-0.4-3.2-1.9-5.3c-1.5-2.2-2.1-5.9,0.5-7.6c-2.9,1-5.1,3.4-5.9,6.4c-0.3-0.2-0.7-0.3-1.1-0.4
						c-1.5,4,0.5,7.4,0.5,7.4s-2.9,1.7-3.2,4.5c-1.1-1.1-3.3-0.7-5.7-1.3c-2.2-0.5-3.1-3.3-3.2-3.9c-0.1,0.6-0.2,1.3-0.2,2
						c0,1.9,0.6,3.6,1.5,5.1c-3,1.3-5.1,4.3-5.1,7.8c0,4.7,3.8,8.5,8.5,8.5c0.4,0,0.9,0,1.3-0.1c0.9,4.1,4.5,7.2,8.9,7.2
						c2.9,0,5.5-1.4,7.2-3.5c1.6,1.8,3.8,2.9,6.4,2.9c1.4,0,2.8-0.4,3.9-1l2-1.4c0,0,0,0,0,0c-3,2.1-7.8,0.5-8.1-2.5
						c-0.2-2.9-0.2-6.2-0.2-6.2c1.1-0.5,2.4-1.9,2.4-1.9c4.3,0.8,6.8-0.3,7-0.3c-0.5-0.7-1-1.3-1.7-1.8c3.2-0.6,5.8-2.9,6.9-5.9
						C395.7,393.7,392.7,397.8,388.4,397.1z"/>
				</g>
				<g>
					<g>
						<path class="st4" d="M386.4,381.5l-0.9-0.1c0-0.2,0-0.4,0-0.7c0-4.8-3.9-8.8-8.8-8.8c-4,0-7.5,2.7-8.5,6.6l-0.9-0.2
							c1.1-4.3,5-7.3,9.4-7.3c5.4,0,9.7,4.4,9.7,9.7C386.4,381,386.4,381.3,386.4,381.5z"/>
					</g>
					<g>
						<path class="st4" d="M359.8,408.7c-4.9,0-9-4-9-9c0-3.6,2.1-6.8,5.4-8.2l0.4,0.9c-2.9,1.3-4.8,4.2-4.8,7.4c0,4.4,3.6,8,8,8
							c0.4,0,0.8,0,1.2-0.1l0.1,0.9C360.8,408.6,360.3,408.7,359.8,408.7z"/>
					</g>
					<g>
						<path class="st4" d="M383.6,415.2c-2.6,0-5-1.1-6.7-3l0.7-0.6c1.5,1.7,3.7,2.7,6,2.7c4.4,0,8-3.6,8-8c0-2.5-1.1-4.8-3.1-6.3
							l0.6-0.7c2.2,1.7,3.4,4.3,3.4,7.1C392.6,411.1,388.6,415.2,383.6,415.2z"/>
					</g>
					<g>
						<path class="st4" d="M387.2,400.2c-1.7,0-3.4-0.5-4.9-1.3l0.5-0.8c1.3,0.8,2.9,1.2,4.4,1.2c4.8,0,8.7-3.9,8.7-8.7
							c0-4.8-3.9-8.7-8.7-8.7c-3.2,0-6.1,1.7-7.6,4.6l-0.8-0.4c1.7-3.1,4.9-5.1,8.5-5.1c5.3,0,9.6,4.3,9.6,9.6
							C396.8,395.9,392.5,400.2,387.2,400.2z"/>
					</g>
					<g>
						<path class="st4" d="M364,396.4c-5.3,0-9.6-4.3-9.6-9.6c0-5.3,4.3-9.6,9.6-9.6c4.5,0,8.5,3.2,9.4,7.7l-0.9,0.2
							c-0.8-4-4.4-6.9-8.5-6.9c-4.8,0-8.7,3.9-8.7,8.7c0,4.8,3.9,8.7,8.7,8.7c0.5,0,0.9,0,1.4-0.1l0.2,0.9
							C365.1,396.4,364.6,396.4,364,396.4z"/>
					</g>
					<g>
						<path class="st4" d="M370.1,415.8c-5.3,0-9.6-4.3-9.6-9.6c0-3.7,2.2-7.1,5.5-8.7l0.4,0.9c-3,1.4-5,4.5-5,7.9
							c0,4.8,3.9,8.7,8.7,8.7c4.8,0,8.7-3.9,8.7-8.7c0-1.3-0.3-2.5-0.8-3.6l0.9-0.4c0.6,1.3,0.9,2.6,0.9,4
							C379.7,411.5,375.4,415.8,370.1,415.8z"/>
					</g>
					<g>
						<path class="st4" d="M374.5,403.7c-5.3,0-9.6-4.3-9.6-9.6c0-5.3,4.3-9.6,9.6-9.6c5.3,0,9.6,4.3,9.6,9.6
							C384.1,399.4,379.8,403.7,374.5,403.7z M374.5,385.4c-4.8,0-8.7,3.9-8.7,8.7c0,4.8,3.9,8.7,8.7,8.7c4.8,0,8.7-3.9,8.7-8.7
							C383.2,389.3,379.3,385.4,374.5,385.4z"/>
					</g>
				</g>
			</g>
		</g>
	</g>
	<g id="Lungs_00000119085452096840959640000006027344741760995213_">
		<g id="Line">
			<g>
				<polygon class="st4" points="308.1,236.1 263,236.1 263,234.1 306.9,234.1 351.8,155.5 353.5,156.5 				"/>
			</g>
			<path class="st4" d="M266.8,235.1c0,2.1-1.7,3.8-3.8,3.8c-2.1,0-3.8-1.7-3.8-3.8s1.7-3.8,3.8-3.8
				C265.1,231.3,266.8,233,266.8,235.1z"/>
		</g>
		<g>
			<path class="st9" d="M390.3,52c-32.7,0-59.3,26.6-59.3,59.2s26.6,59.3,59.3,59.3c32.7,0,59.2-26.6,59.2-59.3S422.9,52,390.3,52z
				 M390.3,168c-31.3,0-56.8-25.5-56.8-56.8c0-31.3,25.5-56.7,56.8-56.7c31.3,0,56.7,25.5,56.7,56.7C447,142.6,421.6,168,390.3,168z
				"/>
			<path class="st16" d="M447,111.3c0,31.3-25.5,56.8-56.7,56.8c-31.3,0-56.8-25.5-56.8-56.8c0-31.3,25.5-56.7,56.8-56.7
				C421.6,54.5,447,80,447,111.3z"/>
		</g>
		<g id="Lungs_00000180348685400192363670000001400246815668166798_">
			<path class="st16" d="M419.6,147.2c-5.1,0-13.6-2.6-18-6.6c-4.6-4.1-6.3-9-6.3-12c0-1.2,0.3-2.2,0.6-3.3c0.5-1.8,1.1-3.9,0.5-7.1
				c-1-5.1-1-10.1,0.1-13.9c0.2-0.8,0.5-1.6,0.6-2.4l0.1-0.3l-0.2-0.3c-0.6-0.6-1.5-1.7-2.7-2.8l-0.6-0.6c-1.5-1.5-2.4-2.4-3.4-2.4
				c-1.1,0-1.9,0.9-3.4,2.4l-0.6,0.6c-1.1,1.1-2.1,2.2-2.7,2.8l-0.2,0.3l0.1,0.3c0.2,0.8,0.4,1.6,0.7,2.4c1.1,3.8,1.2,8.9,0.1,13.9
				c-0.7,3.3-0.1,5.3,0.5,7.1c0.3,1.1,0.6,2.1,0.6,3.3c0,3-1.6,7.9-6.3,12c-4.5,3.9-12.9,6.6-18,6.6c-5.2,0-8.8-10.9-8.8-26.5
				c0-19.8,13.2-33.5,15.8-36c3.4-3.3,6.7-4,8.8-4c2.2,0,4.3,0.8,5.5,2c2.5,2.5,1.9,6.4,1,9.8c-0.3,1.2-0.5,2.5-0.5,3.9l0,1.4
				l1.1-0.8c1-0.8,2.4-2,3.7-3.7c0.9-1.2,1.4-2.9,1.4-5V70.5c0-0.4,0.7-0.6,1.4-0.6c0.7,0,1.4,0.2,1.4,0.6v17.7c0,2.2,0.4,3.8,1.4,5
				c1.3,1.7,2.7,3,3.7,3.7l1.1,0.8l0-1.4c0-1.4-0.2-2.7-0.5-3.9c-0.9-3.4-1.5-7.3,1-9.8c1.3-1.3,3.3-2,5.5-2c2.1,0,5.4,0.7,8.8,4
				c2.6,2.5,15.8,16.2,15.8,36C428.4,136.4,424.8,147.2,419.6,147.2z"/>
			<g>
				<path class="st9" d="M384.2,118.3c1.1-5.2,1-10.3-0.1-14c-1.1-3.7-1.9-7.7-0.9-11.7c1.1-4,1.4-7.5-1-9.9
					c-1.4-1.4-4.3-2.5-7.7-1.8c2.3,0.4,4.7,1.2,5.6,3.4c0.6,1.5,0.1,3.2-0.6,4.7c-0.7,1.4-1.7,2.7-2.4,4.2
					c-1.7,3.9-0.6,8.4,0.5,12.5c1.1,4.1,2.3,8.5,0.8,12.5c-0.5,1.2-1.1,2.3-1.7,3.4c-1.5,3.3-2,7-4.3,10c-2.1,2.8-6.9,3.2-10.2,2.5
					c-3.5-0.8-6.6-3.1-8.3-6.1c-0.9-1.6-1.4-3.3-2-5.1c0.3,15.6,4.2,24.4,8.8,24.4c4.9,0,13.5-2.6,18.1-6.6c4.5-4,6.3-8.9,6.3-12
					C385.3,125.5,383.1,123.5,384.2,118.3z"/>
				<path class="st17" d="M384.2,118.3c1.1-5.2,1-10.3-0.1-14c-1.1-3.7-1.9-7.7-0.9-11.7c1.1-4,1.4-7.5-1-9.9
					c-1.4-1.4-4.3-2.5-7.7-1.8c2.3,0.4,4.7,1.2,5.6,3.4c0.6,1.5,0.1,3.2-0.6,4.7c-0.7,1.4-1.7,2.7-2.4,4.2
					c-1.7,3.9-0.6,8.4,0.5,12.5c1.1,4.1,2.3,8.5,0.8,12.5c-0.5,1.2-1.1,2.3-1.7,3.4c-1.5,3.3-2,7-4.3,10c-2.1,2.8-6.9,3.2-10.2,2.5
					c-3.5-0.8-6.6-3.1-8.3-6.1c-0.9-1.6-1.4-3.3-2-5.1c0.3,15.6,4.2,24.4,8.8,24.4c4.9,0,13.5-2.6,18.1-6.6c4.5-4,6.3-8.9,6.3-12
					C385.3,125.5,383.1,123.5,384.2,118.3z"/>
			</g>
			<g>
				<path class="st9" d="M396.3,118.3c-1.1-5.2-1-10.3,0.1-14c1.1-3.7,1.9-7.7,0.9-11.7c-1.1-4-1.4-7.5,1-9.9
					c1.4-1.4,4.3-2.5,7.7-1.8c-2.3,0.4-4.7,1.2-5.6,3.4c-0.6,1.5-0.1,3.2,0.6,4.7c0.7,1.4,1.7,2.7,2.4,4.2c1.7,3.9,0.6,8.4-0.5,12.5
					c-1.1,4.1-2.3,8.5-0.8,12.5c0.5,1.2,1.1,2.3,1.7,3.4c1.5,3.3,2,7,4.3,10c2.1,2.8,6.9,3.2,10.2,2.5c3.5-0.8,6.6-3.1,8.3-6.1
					c0.9-1.6,1.4-3.3,2-5.1c-0.3,15.6-4.2,24.4-8.8,24.4c-4.9,0-13.5-2.6-18.1-6.6c-4.5-4-6.3-8.9-6.3-12
					C395.2,125.5,397.4,123.5,396.3,118.3z"/>
				<path class="st17" d="M396.3,118.3c-1.1-5.2-1-10.3,0.1-14c1.1-3.7,1.9-7.7,0.9-11.7c-1.1-4-1.4-7.5,1-9.9
					c1.4-1.4,4.3-2.5,7.7-1.8c-2.3,0.4-4.7,1.2-5.6,3.4c-0.6,1.5-0.1,3.2,0.6,4.7c0.7,1.4,1.7,2.7,2.4,4.2c1.7,3.9,0.6,8.4-0.5,12.5
					c-1.1,4.1-2.3,8.5-0.8,12.5c0.5,1.2,1.1,2.3,1.7,3.4c1.5,3.3,2,7,4.3,10c2.1,2.8,6.9,3.2,10.2,2.5c3.5-0.8,6.6-3.1,8.3-6.1
					c0.9-1.6,1.4-3.3,2-5.1c-0.3,15.6-4.2,24.4-8.8,24.4c-4.9,0-13.5-2.6-18.1-6.6c-4.5-4-6.3-8.9-6.3-12
					C395.2,125.5,397.4,123.5,396.3,118.3z"/>
			</g>
			<g>
				<g>
					<path class="st4" d="M360.9,147.9c-5.7,0-9.5-10.9-9.5-27.1c0-20.1,13.3-33.9,16-36.5c6-5.8,12.6-4.6,15.3-1.9
						c2.7,2.7,2.1,6.8,1.1,10.4c-1,3.9-0.2,7.7,0.9,11.4c1.1,3.9,1.2,9.1,0.1,14.3c-0.6,3.1-0.1,5,0.4,6.8c0.3,1.1,0.6,2.2,0.6,3.5
						c0,3.1-1.7,8.3-6.5,12.5C374.8,145.2,366.1,147.9,360.9,147.9z M376.6,81.3c-2.4,0-5.3,0.9-8.3,3.8c-2.6,2.5-15.6,16-15.6,35.6
						c0,17.8,4.3,25.9,8.3,25.9c4.9,0,13.4-2.6,17.7-6.5c4.5-3.9,6.1-8.7,6.1-11.6c0-1.1-0.3-2-0.6-3.1c-0.6-1.9-1.2-4-0.5-7.4
						c1-5,1-9.9-0.1-13.7c-1.1-3.8-2-7.9-0.9-12c1.3-4.7,1-7.4-0.8-9.3C380.9,82.3,379,81.3,376.6,81.3z"/>
				</g>
				<g>
					<path class="st4" d="M419.6,147.9c-5.2,0-13.9-2.7-18.5-6.8c-4.8-4.2-6.5-9.4-6.5-12.5c0-1.3,0.3-2.3,0.6-3.5
						c0.5-1.8,1.1-3.7,0.4-6.8c-1.1-5.2-1-10.4,0.1-14.3c1.1-3.6,1.9-7.5,0.9-11.4c-1-3.6-1.6-7.7,1.1-10.4l0,0c0,0,0,0,0,0
						c2.7-2.7,9.2-3.9,15.3,1.9c2.7,2.6,16,16.4,16,36.5C429.1,137,425.2,147.9,419.6,147.9z M403.9,81.3c-2.4,0-4.3,0.9-5.2,1.9
						c0,0,0,0,0,0c-1.8,1.8-2.1,4.6-0.8,9.3c1.1,4.2,0.2,8.2-0.9,12c-1.1,3.7-1.1,8.7-0.1,13.7c0.7,3.4,0.1,5.5-0.5,7.4
						c-0.3,1.1-0.6,2-0.6,3.1c0,2.9,1.6,7.6,6.1,11.6c4.3,3.8,12.8,6.5,17.7,6.5c4,0,8.3-8.1,8.3-25.9c0-19.6-13-33.1-15.6-35.6
						C409.2,82.3,406.3,81.3,403.9,81.3z M398.2,82.8L398.2,82.8L398.2,82.8z"/>
				</g>
				<path class="st4" d="M393.5,92.9c-1.1-1.4-1.2-3.3-1.2-4.6V70.5c0-1.7-4.1-1.7-4.1,0v17.7c0,1.3-0.1,3.2-1.2,4.6
					c-1.9,2.5-4.1,4.6-4.1,4.6l0.7,4.3c0,0,1.3-1.4,3-3.2c1.8-1.8,2.8-2.5,3.7-2.5c0.9,0,1.7,0.5,3.5,2.2c1.8,1.8,3.2,3.3,3.2,3.3
					l0.8-4.6C397.7,97,395.4,95.4,393.5,92.9z"/>
			</g>
			<path class="st4" d="M423.5,127.9c-0.4,0-1.4,0-1.5-0.2c0-0.1,0-0.1,0.1-0.2c0.2-0.3,0.4-0.6,0.5-0.9c0.1-0.1,0.1-0.2,0.1-0.4
				c-0.1,0-0.1,0-0.2,0.1c-0.4,0.4-0.8,0.9-1.3,1.1c-0.5,0.2-1,0.4-1.5,0.5c-0.9,0.1-1.8,0-2.6-0.3c-1.7-0.6-3.2-1.7-4.6-2.9
				c-1.1-0.9-2.1-2-3-3.1c-0.7-0.9-1.3-1.8-1.9-2.8c-0.3-0.5-0.6-0.9-0.7-1.4c-0.2-0.6-0.3-1.2-0.4-1.8c-0.1-0.4-0.1-0.8-0.1-1.2
				c0-0.2,0-0.4,0-0.6c0-0.1,0-0.5,0-0.6c1.5,1.1,3,2.3,3.8,4c0.9,1.9,0.8,4.5,2.6,5.9c0.1,0.1,0.1-0.1,0.1-0.2
				c-0.9-0.8-1.2-1.9-1.3-3.1c-0.1-1.1-0.2-2.1-0.6-3.1c0.7,0.6,1.2,1.3,1.8,2.1c0.3,0.3,0.5,0.6,0.8,0.9c0.3,0.3,0.6,0.6,0.9,0.8
				c0.3,0.2,0.6,0.5,0.9,0.7c0.1,0.1,0.1-0.1,0.1-0.2c-0.3-0.3-0.6-0.6-0.8-0.9c-0.3-0.3-0.5-0.7-0.8-1c-0.2-0.3-0.4-0.6-0.7-0.8
				c0-0.1-0.1-0.1-0.1-0.2c1.1,0.6,2.3,1.1,3.5,1.3c0.1,0,0.1-0.1,0-0.1c-0.6-0.3-1.2-0.5-1.7-0.8c-0.6-0.3-1.1-0.6-1.6-0.9
				c-0.5-0.3-1.1-0.7-1.6-1.1c-0.5-0.4-1.1-0.8-1.5-1.3c-0.5-0.5-0.9-0.9-1.4-1.4c-0.8-0.7-1.6-1.3-2.5-1.9c0,0-0.1,0-0.1,0
				c-0.2-1-0.4-1.9-0.8-2.9c-0.6-1.6-1.6-3-2.6-4.3c0.9,0.2,1.7,0.3,2.6,0.4c0.7,0.1,1.4,0.5,2,1c0.6,0.5,1.1,1.1,1.6,1.6
				c0.8,0.9,1.6,1.9,2.4,2.9c0.8,0.8,1.6,1.6,2.4,2.3c0.2,0.2,0.4,0.4,0.7,0.6c0.1,0.1,0.2,0.2,0.3,0.4c0.2,0.3,0.4,0.6,0.6,1
				c0.4,0.7,0.7,1.5,0.8,2.3c0,0.2,0.3,0.2,0.2-0.1c-0.1-0.9-0.4-1.7-0.8-2.4c0-0.1-0.1-0.1-0.1-0.2c1.1,1,2.1,1.9,3,3.1
				c0.1,0.1,0.1-0.1,0.1-0.1c-1.1-1.8-2.6-3.2-4.2-4.6c-0.8-0.7-1.6-1.4-2.3-2.2c-0.2-0.2-0.4-0.5-0.6-0.7c0.5,0.4,1,0.7,1.6,1.1
				c1.5,0.9,3.1,1.7,4.6,2.5c1.6,0.8,3.5,1.5,4.4,3.1c0.1,0.2,0.3,0,0.2-0.2c-0.9-1.6-2.6-2.5-4.2-3.4c-0.3-0.2-0.6-0.3-0.9-0.5
				c0.1,0,0.1,0,0.2,0c0.6,0.1,1.2,0.1,1.8,0.2c0.3,0,0.6,0,0.9,0.1c0.1,0,0.4,0.1,0.4,0c0.1-0.1,0-0.2-0.1-0.2
				c-1-0.2-1.9-0.3-2.9-0.5c-0.8-0.1-1.6-0.3-2.3-0.7c-0.3-0.2-0.6-0.4-1-0.6c-0.4-0.2-0.7-0.4-1.1-0.7c-1.6-1-3.1-2.2-4.3-3.6
				c-0.6-0.7-1.2-1.4-1.9-1.9c0.8-0.3,1.6-0.6,2.4-1c0.5-0.3,1.1-0.5,1.7-0.6c0.6-0.1,1.1,0,1.7,0.2c1.5,0.5,3.2,1.4,3.9,2.9
				c0.1,0.3,0.2,0.6,0.3,0.9c0,0.2,0.1,0.3,0.1,0.5c0,0.2,0,0.4,0.1,0.6c0,0.1,0.1,0.1,0.1,0c0-0.2,0-0.4,0-0.5c0-0.2,0-0.4,0-0.5
				c0-0.4-0.1-0.8-0.2-1.1c-0.1-0.2-0.2-0.4-0.3-0.6c0.9,0.6,1.9,1.2,2.8,1.9c0.1,0,0.1-0.1,0-0.1c-1.5-1.3-3-2.5-4.7-3.5
				c-0.4-0.2-0.8-0.4-1.2-0.6c0.1,0,0.1,0,0.2,0c1,0.2,2,0.4,2.9,0.6c0.6,0.1,1.2,0.3,1.7,0.5c0.3,0.1,0.6,0.2,0.8,0.4
				c0.1,0,0.3,0.2,0.4,0.2c0.1,0,0.1-0.1,0-0.2c-0.2-0.2-0.4-0.3-0.6-0.5c-0.3-0.1-0.5-0.3-0.8-0.4c-0.1,0-0.1-0.1-0.2-0.1
				c0.6-0.1,1.3-0.3,1.9-0.5c0.1,0,0.1-0.2,0-0.2c-0.8,0-1.6,0.2-2.4,0.2c0.1,0,0.1-0.1,0.2-0.1c0.3-0.2,0.5-0.4,0.7-0.7
				c0.2-0.2,0.4-0.4,0.6-0.7c0-0.1,0-0.2-0.1-0.2c-0.1,0.1-0.2,0.2-0.4,0.3c-0.1,0.1-0.2,0.2-0.3,0.3c-0.3,0.2-0.5,0.4-0.8,0.5
				c-0.8,0.4-1.8,0.4-2.7,0.3c-0.3-0.1-0.7-0.2-1-0.3c-0.9-0.2-1.8-0.4-2.8-0.2c-0.3,0.1-0.7,0.2-1,0.3c-0.2,0.1-0.3,0.1-0.5,0.2
				c-0.1,0-0.3,0.2-0.3,0c0.2-0.6,0.4-1.3,0.6-1.9c0.2-0.7,0.5-1.3,0.9-1.9c0.4-0.5,1-0.9,1.5-1.4c0.2-0.2,0.3-0.3,0.5-0.4
				c0.4-0.3,1-0.6,1.5-0.8c0.3-0.1,0.6-0.2,0.9-0.3c0.1,0,0.2,0,0.2,0c0.3,0,0.5-0.1,0.1-0.2c-0.2,0-0.5-0.1-0.7,0
				c-0.4,0-0.9,0.1-1.3,0.3c-0.1,0-0.2,0.1-0.2,0.1c0.1-0.1,0.1-0.2,0.2-0.3c0.3-0.7,0.6-1.5,0.5-2.3c0-0.1-0.1-0.2-0.2-0.1
				c-0.1,0.4-0.1,0.8-0.3,1.2c-0.2,0.4-0.5,0.7-0.7,1.1c-0.5,0.7-1.1,1.3-1.7,1.8c-0.4,0.4-0.9,0.8-1.2,1.2c0-0.3,0-0.5,0-0.8
				c0-0.1,0-0.2,0-0.3c0-0.4,0.1-0.8,0.2-1.2c0.2-0.7,0.6-1.4,0.7-2.2c0.3-1.5,0.1-3.1,0-4.6c0-0.1-0.1-0.2-0.1,0
				c-0.1,1.5-0.2,3-0.6,4.4c-0.1,0.4-0.3,0.8-0.4,1.2c-0.2-0.9-0.4-1.7-0.8-2.5c-0.5-1-0.9-2-1.6-2.9c-0.1-0.1-0.1,0.1-0.1,0.1
				c0.5,1.1,0.9,2.2,1.1,3.4c0.2,1.2,0.5,2.3,0.5,3.5c0.1,1.9,0,4.3-1.2,5.9c-0.6,0.8-1.6,1-2.6,1.1c-1,0.1-2.1-0.7-2.9-1.3
				c-0.8-0.6-1.5-1.4-2.2-2.2c-0.8-0.9-3.1-2.9-3.9-3.7c0,0-0.2-0.1-1.2-1.1c-0.5,1.1-0.9,1.9-1.4,3c2.5,2.1,2.6,2.3,4.1,3.7
				c1.6,1.4,3.3,3,4.2,4c0.9,1,1.9,2.2,2.4,3.5c0.9,2.4,1,5,0.9,7.6c-0.1,1.7-0.2,3.4-0.2,5.2c-1.1,0.2-2.2,0.6-3.1,1.2
				c-0.5,0.3-0.9,0.7-1.3,1.1c-0.2,0.2-0.4,0.4-0.6,0.6c-0.2,0.3-0.5,0.6-0.8,0.9c0,0,0,0.1,0,0.1c0.1-0.1,0.2-0.1,0.4-0.1
				c0.1-0.1,0.2-0.1,0.4-0.2c0.3-0.2,0.5-0.4,0.7-0.6c0.4-0.4,0.9-0.7,1.4-1c0.1,0,0.1-0.1,0.2-0.1c-0.2,0.4-0.4,0.7-0.6,1.1
				c-0.3,0.6-0.4,1.3-0.5,1.9c0,0.1,0.1,0.3,0.2,0.1c0.1-0.6,0.4-1.2,0.7-1.8c0.2-0.5,0.5-1,0.9-1.4c0.3-0.3,0.8-0.5,1.2-0.6
				c0.2,0,0.5-0.1,0.6,0.1c0.1,0.2-0.1,0.5-0.2,0.6c-0.6,1-1.2,2.1-1.8,3.1c-0.3,0.5-0.5,0.9-0.9,1.4c-0.8,1.1-1.8,2.1-2.6,3.3
				c0,0.1,0,0.2,0,0.2c0,0.1,0.1,0.1,0.1,0c0.5-0.7,1.1-1.2,1.8-1.6c0,0,0.1,0,0.1-0.1c-0.3,1.3-0.3,2.8,0.5,3.7c0,0,0,0,0-0.1
				c-0.2-0.8-0.3-1.6-0.2-2.5c0.1-0.8,0.4-1.6,0.8-2.4c0.1-0.3,0.3-0.5,0.4-0.7c-0.2,1.9,0.4,3.7,0.8,5.6c0.1,0.3,0.4,0.3,0.4,0
				c-0.4-2.1-0.5-4.4,0.1-6.4c0.3-1.1,0.9-2.1,1.3-3.1c0,0,0-0.1,0.1-0.1c0.1,0,0.1,0.1,0.1,0.2c-0.1,1.9,0.2,3.7,0.3,5.6
				c0,0.8,0.1,1.7,0.1,2.5c0,0.9,0,1.9,0.2,2.8c0,0.1,0.1,0.1,0.1,0c0.2-0.8,0.2-1.7,0.3-2.5c0-0.9,0-1.8,0-2.7
				c0-0.4-0.1-0.8-0.1-1.2c0.4,0.9,0.8,1.8,1.2,2.7c1.1,2.1,2.6,4,4.7,4.9c0.1,0.1,0.1-0.2,0-0.3c-2.3-1-3.4-3.3-4.3-5.5
				c-1-2.4-1.7-4.9-1.8-7.5c-0.1-1.5,0-3,0.1-4.5c1,1.7,2.1,3.3,3.5,4.7c0.2,0.4,0.5,0.8,0.8,1.2c0.3,0.6,0.5,1.1,0.8,1.7
				c0.5,1.1,0.9,2.2,1.6,3.2c0.4,0.6,0.8,1.2,1.3,1.7c0.4,0.4,0.6,0.8,0.8,1.3c0.2,0.4,0.4,0.9,0.5,1.4c0.1,0.6,0.1,1.3,0.3,1.9
				c0.1,0.3,0.1,0.6,0.2,0.9c0,0.1,0.1,0.4,0.2,0.4c0.1,0,0.1-0.2,0.1-0.3c-0.2-1-0.4-2-0.4-3c0-0.4-0.1-0.7-0.2-1
				c0.8,0.8,1.7,1.6,2.5,2.4c0.1,0,0.1-0.1,0-0.1c-1.8-1.9-3.5-3.8-4.8-6.1c-0.6-1.1-1-2.2-1.5-3.3c-0.1-0.1-0.1-0.3-0.2-0.4
				c3,2.5,6.6,4.3,10.3,5.2c0.1,0,0.1-0.2,0-0.2c-1.3-0.5-2.5-1.1-3.8-1.8c0,0-0.1-0.1-0.1-0.1c0.7,0,1.5,0.1,2.3-0.1
				c0.3-0.1,0.6-0.2,0.8-0.2c0.8-0.1,1.6,0,2.3-0.3c0-0.1-0.1-0.1-0.1-0.1C423.6,127.9,423.6,127.9,423.5,127.9z"/>
			<path class="st4" d="M357.1,127.9c0.4,0,1.4,0,1.5-0.2c0-0.1,0-0.1-0.1-0.2c-0.2-0.3-0.4-0.6-0.5-0.9c-0.1-0.1-0.1-0.2-0.1-0.4
				c0.1,0,0.1,0,0.2,0.1c0.4,0.4,0.8,0.9,1.3,1.1c0.5,0.2,1,0.4,1.5,0.5c0.9,0.1,1.8,0,2.6-0.3c1.7-0.6,3.2-1.7,4.6-2.9
				c1.1-0.9,2.1-2,3-3.1c0.7-0.9,1.3-1.8,1.9-2.8c0.3-0.5,0.6-0.9,0.7-1.4c0.2-0.6,0.3-1.2,0.4-1.8c0.1-0.4,0.1-0.8,0.1-1.2
				c0-0.2,0-0.4,0-0.6c0-0.1,0-0.5,0-0.6c-1.5,1.1-3,2.3-3.8,4c-0.9,1.9-0.8,4.5-2.6,5.9c-0.1,0.1-0.1-0.1-0.1-0.2
				c0.9-0.8,1.2-1.9,1.3-3.1c0.1-1.1,0.2-2.1,0.6-3.1c-0.7,0.6-1.2,1.3-1.8,2.1c-0.3,0.3-0.5,0.6-0.8,0.9c-0.3,0.3-0.6,0.6-0.9,0.8
				c-0.3,0.2-0.6,0.5-0.9,0.7c-0.1,0.1-0.1-0.1-0.1-0.2c0.3-0.3,0.6-0.6,0.8-0.9c0.3-0.3,0.5-0.7,0.8-1c0.2-0.3,0.4-0.6,0.7-0.8
				c0-0.1,0.1-0.1,0.1-0.2c-1.1,0.6-2.3,1.1-3.5,1.3c-0.1,0-0.1-0.1,0-0.1c0.6-0.3,1.2-0.5,1.7-0.8c0.6-0.3,1.1-0.6,1.6-0.9
				c0.5-0.3,1.1-0.7,1.6-1.1c0.5-0.4,1.1-0.8,1.5-1.3c0.5-0.5,0.9-0.9,1.4-1.4c0.8-0.7,1.6-1.3,2.5-1.9c0,0,0.1,0,0.1,0
				c0.2-1,0.4-1.9,0.8-2.9c0.6-1.6,1.6-3,2.6-4.3c-0.9,0.2-1.7,0.3-2.6,0.4c-0.7,0.1-1.4,0.5-2,1c-0.6,0.5-1.1,1.1-1.6,1.6
				c-0.8,0.9-1.6,1.9-2.4,2.9c-0.8,0.8-1.6,1.6-2.4,2.3c-0.2,0.2-0.4,0.4-0.7,0.6c-0.1,0.1-0.2,0.2-0.3,0.4c-0.2,0.3-0.4,0.6-0.6,1
				c-0.4,0.7-0.7,1.5-0.8,2.3c0,0.2-0.3,0.2-0.2-0.1c0.1-0.9,0.4-1.7,0.8-2.4c0-0.1,0.1-0.1,0.1-0.2c-1.1,1-2.1,1.9-3,3.1
				c-0.1,0.1-0.1-0.1-0.1-0.1c1.1-1.8,2.6-3.2,4.2-4.6c0.8-0.7,1.6-1.4,2.3-2.2c0.2-0.2,0.4-0.5,0.6-0.7c-0.5,0.4-1,0.7-1.6,1.1
				c-1.5,0.9-3.1,1.7-4.6,2.5c-1.6,0.8-3.5,1.5-4.4,3.1c-0.1,0.2-0.3,0-0.2-0.2c0.9-1.6,2.6-2.5,4.2-3.4c0.3-0.2,0.6-0.3,0.9-0.5
				c-0.1,0-0.1,0-0.2,0c-0.6,0.1-1.2,0.1-1.8,0.2c-0.3,0-0.6,0-0.9,0.1c-0.1,0-0.4,0.1-0.4,0c-0.1-0.1,0-0.2,0.1-0.2
				c1-0.2,1.9-0.3,2.9-0.5c0.8-0.1,1.6-0.3,2.3-0.7c0.3-0.2,0.6-0.4,1-0.6c0.4-0.2,0.7-0.4,1.1-0.7c1.6-1,3.1-2.2,4.3-3.6
				c0.6-0.7,1.2-1.4,1.9-1.9c-0.8-0.3-1.6-0.6-2.4-1c-0.5-0.3-1.1-0.5-1.7-0.6c-0.6-0.1-1.1,0-1.7,0.2c-1.5,0.5-3.2,1.4-3.9,2.9
				c-0.1,0.3-0.2,0.6-0.3,0.9c0,0.2-0.1,0.3-0.1,0.5c0,0.2,0,0.4-0.1,0.6c0,0.1-0.1,0.1-0.1,0c0-0.2,0-0.4,0-0.5c0-0.2,0-0.4,0-0.5
				c0-0.4,0.1-0.8,0.2-1.1c0.1-0.2,0.2-0.4,0.3-0.6c-0.9,0.6-1.9,1.2-2.8,1.9c-0.1,0-0.1-0.1,0-0.1c1.5-1.3,3-2.5,4.7-3.5
				c0.4-0.2,0.8-0.4,1.2-0.6c-0.1,0-0.1,0-0.2,0c-1,0.2-2,0.4-2.9,0.6c-0.6,0.1-1.2,0.3-1.7,0.5c-0.3,0.1-0.6,0.2-0.8,0.4
				c-0.1,0-0.3,0.2-0.4,0.2c-0.1,0-0.1-0.1,0-0.2c0.2-0.2,0.4-0.3,0.6-0.5c0.3-0.1,0.5-0.3,0.8-0.4c0.1,0,0.1-0.1,0.2-0.1
				c-0.6-0.1-1.3-0.3-1.9-0.5c-0.1,0-0.1-0.2,0-0.2c0.8,0,1.6,0.2,2.4,0.2c-0.1,0-0.1-0.1-0.2-0.1c-0.3-0.2-0.5-0.4-0.7-0.7
				c-0.2-0.2-0.4-0.4-0.6-0.7c0-0.1,0-0.2,0.1-0.2c0.1,0.1,0.2,0.2,0.4,0.3c0.1,0.1,0.2,0.2,0.3,0.3c0.3,0.2,0.5,0.4,0.8,0.5
				c0.8,0.4,1.8,0.4,2.7,0.3c0.3-0.1,0.7-0.2,1-0.3c0.9-0.2,1.8-0.4,2.8-0.2c0.3,0.1,0.7,0.2,1,0.3c0.2,0.1,0.3,0.1,0.5,0.2
				c0.1,0,0.3,0.2,0.3,0c-0.2-0.6-0.4-1.3-0.6-1.9c-0.2-0.7-0.5-1.3-0.9-1.9c-0.4-0.5-1-0.9-1.5-1.4c-0.2-0.2-0.3-0.3-0.5-0.4
				c-0.4-0.3-1-0.6-1.5-0.8c-0.3-0.1-0.6-0.2-0.9-0.3c-0.1,0-0.2,0-0.2,0c-0.3,0-0.5-0.1-0.1-0.2c0.2,0,0.5-0.1,0.7,0
				c0.4,0,0.9,0.1,1.3,0.3c0.1,0,0.2,0.1,0.2,0.1c-0.1-0.1-0.1-0.2-0.2-0.3c-0.3-0.7-0.6-1.5-0.5-2.3c0-0.1,0.1-0.2,0.2-0.1
				c0.1,0.4,0.1,0.8,0.3,1.2c0.2,0.4,0.5,0.7,0.7,1.1c0.5,0.7,1.1,1.3,1.7,1.8c0.4,0.4,0.9,0.8,1.2,1.2c0-0.3,0-0.5,0-0.8
				c0-0.1,0-0.2,0-0.3c0-0.4-0.1-0.8-0.2-1.2c-0.2-0.7-0.6-1.4-0.7-2.2c-0.3-1.5-0.1-3.1,0-4.6c0-0.1,0.1-0.2,0.1,0
				c0.1,1.5,0.2,3,0.6,4.4c0.1,0.4,0.3,0.8,0.4,1.2c0.2-0.9,0.4-1.7,0.8-2.5c0.5-1,0.9-2,1.6-2.9c0.1-0.1,0.1,0.1,0.1,0.1
				c-0.5,1.1-0.9,2.2-1.1,3.4c-0.2,1.2-0.5,2.3-0.5,3.5c-0.1,1.9,0,4.3,1.2,5.9c0.6,0.8,1.6,1,2.6,1.1c1,0.1,2.1-0.7,2.9-1.3
				c0.8-0.6,1.5-1.4,2.2-2.2c0.8-0.9,3.1-2.9,3.9-3.7c0,0,0.2-0.1,1.2-1.1c0.5,1.1,0.9,1.9,1.4,3c-2.5,2.1-2.6,2.3-4.1,3.7
				c-1.6,1.4-3.3,3-4.2,4c-0.9,1-1.9,2.2-2.4,3.5c-0.9,2.4-1,5-0.9,7.6c0.1,1.7,0.2,3.4,0.2,5.2c1.1,0.2,2.2,0.6,3.1,1.2
				c0.5,0.3,0.9,0.7,1.3,1.1c0.2,0.2,0.4,0.4,0.6,0.6c0.2,0.3,0.5,0.6,0.8,0.9c0,0,0,0.1,0,0.1c-0.1-0.1-0.2-0.1-0.4-0.1
				c-0.1-0.1-0.2-0.1-0.4-0.2c-0.3-0.2-0.5-0.4-0.7-0.6c-0.4-0.4-0.9-0.7-1.4-1c-0.1,0-0.1-0.1-0.2-0.1c0.2,0.4,0.4,0.7,0.6,1.1
				c0.3,0.6,0.4,1.3,0.5,1.9c0,0.1-0.1,0.3-0.2,0.1c-0.1-0.6-0.4-1.2-0.7-1.8c-0.2-0.5-0.5-1-0.9-1.4c-0.3-0.3-0.8-0.5-1.2-0.6
				c-0.2,0-0.5-0.1-0.6,0.1c-0.1,0.2,0.1,0.5,0.2,0.6c0.6,1,1.2,2.1,1.8,3.1c0.3,0.5,0.5,0.9,0.9,1.4c0.8,1.1,1.8,2.1,2.6,3.3
				c0,0.1,0,0.2,0,0.2c0,0.1-0.1,0.1-0.1,0c-0.5-0.7-1.1-1.2-1.8-1.6c0,0-0.1,0-0.1-0.1c0.3,1.3,0.3,2.8-0.5,3.7c0,0,0,0,0-0.1
				c0.2-0.8,0.3-1.6,0.2-2.5c-0.1-0.8-0.4-1.6-0.8-2.4c-0.1-0.3-0.3-0.5-0.4-0.7c0.2,1.9-0.4,3.7-0.8,5.6c-0.1,0.3-0.4,0.3-0.4,0
				c0.4-2.1,0.5-4.4-0.1-6.4c-0.3-1.1-0.9-2.1-1.3-3.1c0,0,0-0.1-0.1-0.1c-0.1,0-0.1,0.1-0.1,0.2c0.1,1.9-0.2,3.7-0.3,5.6
				c0,0.8-0.1,1.7-0.1,2.5c0,0.9,0,1.9-0.2,2.8c0,0.1-0.1,0.1-0.1,0c-0.2-0.8-0.2-1.7-0.3-2.5c0-0.9,0-1.8,0-2.7
				c0-0.4,0.1-0.8,0.1-1.2c-0.4,0.9-0.8,1.8-1.2,2.7c-1.1,2.1-2.6,4-4.7,4.9c-0.1,0.1-0.1-0.2,0-0.3c2.3-1,3.4-3.3,4.3-5.5
				c1-2.4,1.7-4.9,1.8-7.5c0.1-1.5,0-3-0.1-4.5c-1,1.7-2.1,3.3-3.5,4.7c-0.2,0.4-0.5,0.8-0.8,1.2c-0.3,0.6-0.5,1.1-0.8,1.7
				c-0.5,1.1-0.9,2.2-1.6,3.2c-0.4,0.6-0.8,1.2-1.3,1.7c-0.4,0.4-0.6,0.8-0.8,1.3c-0.2,0.4-0.4,0.9-0.5,1.4
				c-0.1,0.6-0.1,1.3-0.3,1.9c-0.1,0.3-0.1,0.6-0.2,0.9c0,0.1-0.1,0.4-0.2,0.4c-0.1,0-0.1-0.2-0.1-0.3c0.2-1,0.4-2,0.4-3
				c0-0.4,0.1-0.7,0.2-1c-0.8,0.8-1.7,1.6-2.5,2.4c-0.1,0-0.1-0.1,0-0.1c1.8-1.9,3.5-3.8,4.8-6.1c0.6-1.1,1-2.2,1.5-3.3
				c0.1-0.1,0.1-0.3,0.2-0.4c-3,2.5-6.6,4.3-10.3,5.2c-0.1,0-0.1-0.2,0-0.2c1.3-0.5,2.5-1.1,3.8-1.8c0,0,0.1-0.1,0.1-0.1
				c-0.7,0-1.5,0.1-2.3-0.1c-0.3-0.1-0.6-0.2-0.8-0.2c-0.8-0.1-1.6,0-2.3-0.3c0-0.1,0.1-0.1,0.1-0.1
				C356.9,127.9,357,127.9,357.1,127.9z"/>
		</g>
	</g>
</g>
</svg>
