<?xml version="1.0" encoding="utf-8"?>
<!-- Generator: Adobe Illustrator 24.2.3, SVG Export Plug-In . SVG Version: 6.00 Build 0)  -->
<svg version="1.1" id="Layer_1" xmlns="http://www.w3.org/2000/svg" xmlns:xlink="http://www.w3.org/1999/xlink" x="0px" y="0px"
	 viewBox="0 0 500 500" style="enable-background:new 0 0 500 500;" xml:space="preserve">
<style type="text/css">
	.st0{fill:#F5CBA0;}
	.st1{fill:url(#SVGID_1_);}
	.st2{fill:url(#SVGID_2_);}
	.st3{opacity:0.5;fill:url(#SVGID_3_);}
	.st4{fill:url(#SVGID_4_);}
	.st5{fill:url(#SVGID_5_);}
	.st6{fill:url(#SVGID_6_);}
	.st7{fill:url(#SVGID_7_);}
	.st8{opacity:0.5;fill:url(#SVGID_8_);}
	.st9{opacity:0.5;fill:url(#SVGID_9_);}
	.st10{fill:url(#SVGID_10_);}
</style>
<g>
	<g>
		<path class="st0" d="M335.1,331.2c-5.4-18.2-12.6-35.8-18.5-53.9c-13.7-41.7-25.5-84.6-28.5-128.5c-1.5-21.1-2.1-44.5-25.1-53
			c-16.5-6.1-33,1.3-42,15.6c-10.6,17-8.2,36.7-10.7,55.7c-4.8,37-15.2,74.7-26.9,110.2c-5.9,18-13.1,35.7-18.5,53.9
			c-3.8,12.6-12.2,29.3-8.1,42.6c2.6,8.3,17.6,19.8,26.9,18c10.6-2,17.9-2.6,28.2,1.1c6.1,2.2,11,6.3,16.7,9
			c9.8,4.6,21.5,5.1,32,3.4c10.6-1.7,17.7-8.9,27.5-12.4c10.3-3.7,17.6-3.1,28.2-1.1c9.2,1.7,24.3-9.7,26.9-18
			C347.3,360.5,338.9,343.8,335.1,331.2z"/>
		<linearGradient id="SVGID_1_" gradientUnits="userSpaceOnUse" x1="234.9898" y1="255.0566" x2="263.8141" y2="466.4335">
			<stop  offset="0" style="stop-color:#FFFFFF"/>
			<stop  offset="1" style="stop-color:#C8793F"/>
		</linearGradient>
		<path class="st1" d="M335.1,331.2c-5.4-18.2-12.6-35.8-18.5-53.9c-13.7-41.7-25.5-84.6-28.5-128.5c-1.5-21.1-2.1-44.5-25.1-53
			c-4.2-1.5-8.3-2.2-12.3-2.1c4.2,5.5,5,14.4,5.1,21.1c0.1,7.5-0.6,14.9-1.3,22.3c-0.8,8.8-0.6,17.7-0.4,26.6
			c0.6,29.6,2.3,59.2,5.2,88.7c1.5,15,2.8,29.9,5.9,44.7c2.7,12.6,8.1,26.3,6.3,39.3c-2.5,18.9-20.6,30.4-38.9,29.3
			c-7.6-0.5-16-2.7-20.1-9.8c-3.5-6-3.9-13.1-3.4-19.9c-5.8,11.4-4.4,23.3,0.8,35.2c0.4,0.9-0.7,1.9-1.4,1.1
			c-6.6-8-19.6-11-29.6-11.1c-5.7-0.1-11.3,1.3-11.8,8c-0.3,4.7,0.8,9.2,2.1,13.7c0.2,0.8-0.6,1.4-1.3,1c-5.2-2.8-8.9-6.8-11.4-11.4
			c0.1,0.4,0.2,0.8,0.3,1.2c2.6,8.3,17.6,19.8,26.9,18c10.6-2,17.9-2.6,28.2,1.1c6.1,2.2,11,6.3,16.7,9c9.8,4.6,21.5,5.1,32,3.4
			c10.6-1.7,17.7-8.9,27.5-12.4c10.3-3.7,17.6-3.1,28.2-1.1c9.2,1.7,24.3-9.7,26.9-18C347.3,360.5,338.9,343.8,335.1,331.2z
			 M335.6,367.8c-0.2,0.6-1.1,1-1.5,0.4c-3.5-4.4-7.8-9.1-13.7-9.9c-4.6-0.6-9.1,0.4-13.5,1.7c-4.5,1.8-8.8,4-13.1,6.5
			c-0.7,0.4-1.5-0.3-1.3-1c3-12.4,13.9-28.6,28.8-26.1C333.8,341.7,339,356.6,335.6,367.8z"/>
		<linearGradient id="SVGID_2_" gradientUnits="userSpaceOnUse" x1="307.0695" y1="260.3134" x2="370.1219" y2="260.3134">
			<stop  offset="0" style="stop-color:#FFFFFF"/>
			<stop  offset="1" style="stop-color:#C8793F"/>
		</linearGradient>
		<path class="st2" d="M335.1,331.2c-5.4-18.2-12.6-35.8-18.5-53.9c-13.7-41.7-25.5-84.6-28.5-128.5c-0.4-6.2-0.8-12.7-1.7-18.9
			c1.5,32.2,1.2,64.5,6.5,96.3c2.9,17.5,7.4,34.7,13.9,51.2c3.5,8.9,7.4,17.7,11.8,26.2c4,7.7,8.6,15.2,11.6,23.4
			c0.2,0.7-0.5,1.3-1.1,1.1c-6.1-1.7-15.2-1.7-21,1.7c9,2.2,18.9,5.1,25.6,11.7c3.1,3.1,5.6,6.8,6.8,11.1c1.3,5,2.2,11.6,0.5,16.6
			c-0.7,2.1-1.6,4.2-3.9,5.1c-2.3,1-5.9,0.1-7.6,2c-2.9,3.2-3.5,8.1-4.4,12.1c-0.1,0.6-0.2,1.3-0.4,2.1c8.1-3.1,16.6-10.8,18.5-16.9
			C347.3,360.5,338.9,343.8,335.1,331.2z"/>
		<linearGradient id="SVGID_3_" gradientUnits="userSpaceOnUse" x1="259.9369" y1="386.3208" x2="254.5324" y2="352.092">
			<stop  offset="0.4723" style="stop-color:#D7906B"/>
			<stop  offset="0.6694" style="stop-color:#FAD4A7"/>
			<stop  offset="0.9771" style="stop-color:#FAD4A7"/>
		</linearGradient>
		<path class="st3" d="M255.8,378.2c13.1-3.1,28.1-13.1,29.1-27.8c0.6-9-4.2-16.1-9.3-23.1c1.2,5.9,1.8,11.7,1,17.5
			c-2.5,18.9-20.6,30.4-38.9,29.3c-3.8-0.2-7.8-0.9-11.4-2.4C234.9,377.6,246.5,380.4,255.8,378.2z"/>
		<linearGradient id="SVGID_4_" gradientUnits="userSpaceOnUse" x1="236.6674" y1="254.8233" x2="265.4926" y2="466.2068">
			<stop  offset="0" style="stop-color:#FFFFFF"/>
			<stop  offset="1" style="stop-color:#C8793F"/>
		</linearGradient>
		<path class="st4" d="M329.9,379.6c-2.3-2.6-1.1-7.2-3.5-9.4c-4.2-3.8-10.9-3.4-16-2c-9.8,2.7-18.7,8.2-27.1,13.8
			c-8.5,5.7-17.3,12.5-27.6,14.4c-9.8,1.8-18.9,0.3-27.3-5.2c-8-5.3-14.5-12.4-22.7-17.4c-8.1-4.9-20.3-10.8-29.6-5.5
			c-12,6.9-2.9,16.5,3.8,23.5c1.3,0.2,2.6,0.2,3.8-0.1c10.6-2,17.9-2.6,28.2,1.1c6.1,2.2,11,6.3,16.7,9c9.8,4.6,21.5,5.1,32,3.4
			c10.6-1.7,17.7-8.9,27.5-12.4c10.3-3.7,17.6-3.1,28.2-1.1c6.2,1.2,14.9-3.6,20.8-9.3C334.6,382.8,331.9,382,329.9,379.6z"/>
		<linearGradient id="SVGID_5_" gradientUnits="userSpaceOnUse" x1="313.6585" y1="356.3613" x2="316.6886" y2="378.5816">
			<stop  offset="0" style="stop-color:#FFFFFF"/>
			<stop  offset="1" style="stop-color:#C8793F"/>
		</linearGradient>
		<path class="st5" d="M321.2,339.5c12.7,2.2,17.8,17.1,14.4,28.3c-0.2,0.6-1.1,1-1.5,0.4c-3.5-4.4-7.8-9.1-13.7-9.9
			c-4.6-0.6-9.1,0.4-13.5,1.7c-4.5,1.8-8.8,4-13.1,6.5c-0.7,0.4-1.5-0.3-1.3-1C295.3,353.2,306.3,336.9,321.2,339.5z"/>
		<linearGradient id="SVGID_6_" gradientUnits="userSpaceOnUse" x1="192.6389" y1="408.5736" x2="202.8461" y2="370.7428">
			<stop  offset="0" style="stop-color:#FFFFFF"/>
			<stop  offset="1" style="stop-color:#9E5826"/>
		</linearGradient>
		<path class="st6" d="M223.8,398.6c-0.2-0.8-1-2-2-3.2c-6.4-7.3-15.3-15.9-24.1-20.1c-5.3-2.5-11.4-5.4-17.4-5.1
			c-2.5,0.1-5.9,0.8-6.7,3.7c-0.8,3.1,4.2,9.8,6.3,12.1c3.2,3.6,7.6,4.4,12.3,3.9c6.9-0.8,14.3-0.8,20.5,2.9
			C215.5,394.4,224,399.7,223.8,398.6z"/>
		
			<linearGradient id="SVGID_7_" gradientUnits="userSpaceOnUse" x1="304.9307" y1="408.5739" x2="315.1379" y2="370.7427" gradientTransform="matrix(-1 0 0 1 611.582 0)">
			<stop  offset="0" style="stop-color:#FFFFFF"/>
			<stop  offset="1" style="stop-color:#9E5826"/>
		</linearGradient>
		<path class="st7" d="M286.7,392.7c6.2-3.6,13.6-3.7,20.5-2.9c4.7,0.5,9.1-0.3,12.3-3.9c2.1-2.3,7.1-9,6.3-12.1
			c-0.8-2.9-4.1-3.5-6.7-3.7c-6-0.2-12.1,2.7-17.4,5.1c-8.9,4.1-17.8,12.7-24.1,20.1c-1,1.2-1.8,2.4-2,3.2
			C275.3,399.7,283.8,394.4,286.7,392.7z"/>
		<linearGradient id="SVGID_8_" gradientUnits="userSpaceOnUse" x1="234.7433" y1="317.9348" x2="243.1713" y2="379.7398">
			<stop  offset="0.4723" style="stop-color:#D7906B"/>
			<stop  offset="0.6694" style="stop-color:#FAD4A7"/>
			<stop  offset="0.9771" style="stop-color:#FAD4A7"/>
		</linearGradient>
		<path class="st8" d="M223.6,290.3c0,0-19.5,56.9-6.2,65.7c13.3,8.8,47.7,10.7,45.9-16C261.4,313.2,238,235.9,223.6,290.3z"/>
		<linearGradient id="SVGID_9_" gradientUnits="userSpaceOnUse" x1="194.8739" y1="255.7379" x2="215.4149" y2="406.371">
			<stop  offset="0.4723" style="stop-color:#D7906B"/>
			<stop  offset="0.6694" style="stop-color:#FAD4A7"/>
			<stop  offset="0.9771" style="stop-color:#FAD4A7"/>
		</linearGradient>
		<path class="st9" d="M223.8,140.8c0,0-25.2,130.6-62,217.6c0,0,0.2,6.9,8.5,0c8.3-6.9,25.5-22.2,30.5-38.2
			C208.2,296.8,234.7,114.4,223.8,140.8z"/>
		<linearGradient id="SVGID_10_" gradientUnits="userSpaceOnUse" x1="266.1605" y1="269.8529" x2="319.3072" y2="272.5553">
			<stop  offset="0" style="stop-color:#FFFFFF"/>
			<stop  offset="1" style="stop-color:#C8793F"/>
		</linearGradient>
		<path class="st10" d="M270.1,208.7c0,0,13.5,105.5,22.2,122.5c0,0,11,13.9,8.3-7S267,185.6,270.1,208.7z"/>
	</g>
</g>
</svg>
