<?xml version="1.0" encoding="utf-8"?>
<!-- Generator: Adobe Illustrator 24.2.3, SVG Export Plug-In . SVG Version: 6.00 Build 0)  -->
<svg version="1.1" id="Layer_1" xmlns="http://www.w3.org/2000/svg" xmlns:xlink="http://www.w3.org/1999/xlink" x="0px" y="0px"
	 viewBox="0 0 500 500" style="enable-background:new 0 0 500 500;" xml:space="preserve">
<style type="text/css">
	.st0{fill:#B04C4B;}
	.st1{fill:#6F1110;}
	.st2{opacity:0.5;fill:#B04C4B;}
	.st3{fill:#E4575A;}
	.st4{fill:#952A31;}
	.st5{opacity:0.4;fill:#E4575A;}
	.st6{opacity:0.6;fill:#E4575A;}
	.st7{fill:#F7B1A5;}
	.st8{fill:#A02132;}
	.st9{fill:none;}
	.st10{font-family:'MyriadPro-Regular';}
	.st11{font-size:48px;}
</style>
<g>
	<g>
		<g>
			<g>
				<path class="st0" d="M382.3,345.7c-5.3-10.8-19.6-27.1-64.7-40.4c-45.1-13.3-55.5-3-55.8,4.4c0,0,0,13.3,4.6,27.5
					c4.6,14.2,12.1,19.2,30.5,24.1c16.4,4.4,47.8,8.2,63.6,6.4c9.1-2,16.1-5.5,21.2-8.8C383.7,355.9,385.2,351.4,382.3,345.7z"/>
				<path class="st1" d="M351.1,368.3c-16.8,0-40.5-3.2-54.2-6.9c-19.4-5.2-26.2-10.6-30.6-24.2c-4.6-14.1-4.6-27.4-4.6-27.5
					c0.1-2.8,1.6-5.4,4.2-7.2c5.7-4.1,19.3-6.9,51.8,2.7c34.8,10.3,56.6,23.9,64.8,40.5l0,0c2.9,6,1.3,10.5-0.6,13.3c0,0,0,0,0,0
					c-4.1,2.8-11.2,6.6-21.2,8.9C357.9,368.2,354.7,368.3,351.1,368.3z M281.9,299c-8.2,0-13,1.7-15.8,3.7c-2.5,1.8-3.9,4.3-4,7
					c0,0.1,0,13.4,4.6,27.4c4.4,13.4,11.2,18.8,30.4,24c16.5,4.4,47.9,8.2,63.6,6.4c9.9-2.2,16.9-6,21.1-8.8c1.8-2.7,3.4-7.2,0.5-13
					l0,0c-8.1-16.5-29.9-30-64.6-40.3C301.4,300.7,290,299,281.9,299z"/>
			</g>
			<path class="st2" d="M382.3,345.7c-5.3-10.8-19.6-27.1-64.7-40.4c-45.1-13.3-55.5-3-55.8,4.4c0,0,0,13.3,4.6,27.5
				c0.7,2,1.4,3.8,2.2,5.5c-0.4-1.8-0.6-3.6-0.6-5.5c0-5.4,1.7-12.4,7.7-14.3c2.6-0.8,5.5,0.4,8.1,0.4c6,0,66,15.4,80.4,32.5
				c3.3,3.9,3.6,7.5-1.1,10.3c-1,0.6-2.1,1.2-3.3,1.7c0.3,0,0.5-0.1,0.8-0.1c9.1-2,16.1-5.5,21.2-8.8
				C383.7,355.9,385.2,351.4,382.3,345.7z"/>
			<g>
				<g>
					<path class="st3" d="M332.5,298c-4.2-11.1-24-14.6-45.7-32.3c-21.7-17.7-21.4-32.3-21.4-32.3l0,0c-0.7,4.3-1.5,8.9-2.7,13.6
						c0,0,0,0,0,0c-1.9,7.9-3.8,25.2-4,43.8c-0.1,9.1,0.3,18.5,1.3,27.2c1,8.8,2.8,16.8,5.4,23.2c10.6,25.8,36,24,67.9,27.6
						c10.5,1.2,19.5,0.5,27.2-1.2c-15.8,1.8-47.2-2-63.6-6.4c-18.4-4.9-25.9-9.9-30.5-24.1c-4.6-14.2-4.6-27.5-4.6-27.5
						c0.3-7.4,10.7-17.7,55.8-4.4c6,1.8,11.4,3.6,16.3,5.4C334.1,306.1,333.8,301.5,332.5,298z"/>
					<path class="st4" d="M343.6,369.7c-3.3,0-6.7-0.2-10.1-0.6c-4.5-0.5-8.9-0.9-13.1-1.3c-25.6-2.3-45.8-4.2-55-26.4
						c-2.5-6-4.3-13.8-5.4-23.3c-1-8.1-1.4-17.3-1.3-27.2c0.1-18.3,2.1-35.9,4-43.9c0,0,0,0,0,0c1-4.1,1.8-8.3,2.7-13.6
						c0-0.1,0.1-0.1,0.1-0.1c0,0,0.1,0,0.2,0c0,0,0.1,0.1,0.1,0.1c0,0,0,3.7,2.6,9.4c2.4,5.3,7.6,13.6,18.8,22.7
						c9.8,8,19.3,13.1,26.9,17.2c9.6,5.2,16.5,8.9,18.8,15.1l0,0c1.2,3.2,1.7,7.5,1.5,12.8c0,0.1,0,0.1-0.1,0.1c0,0-0.1,0-0.1,0
						c-5.1-1.9-10.6-3.7-16.3-5.4c-32.4-9.5-45.9-6.7-51.5-2.7c-2.5,1.8-3.9,4.3-4,7c0,0.1,0,13.4,4.6,27.4
						c4.4,13.4,11.2,18.8,30.4,24c16.5,4.4,47.9,8.2,63.6,6.4c0.1,0,0.2,0,0.2,0.1c0,0.1,0,0.2-0.1,0.2
						C355.2,369.1,349.5,369.7,343.6,369.7z M265.3,234.8c-0.8,4.7-1.6,8.6-2.4,12.3c0,0,0,0,0,0c-1.9,7.9-3.8,25.5-4,43.8
						c-0.1,9.9,0.4,19,1.3,27.1c1.1,9.4,2.9,17.2,5.4,23.2c9.1,22.1,29.2,23.9,54.7,26.2c4.2,0.4,8.6,0.8,13.1,1.3
						c8.4,0.9,16.6,0.7,24.2-0.7c-16.5,1.1-45.2-2.5-60.7-6.7c-19.4-5.2-26.2-10.6-30.6-24.2c-4.6-14.1-4.6-27.4-4.6-27.5
						c0.1-2.8,1.6-5.4,4.2-7.2c5.7-4.1,19.3-6.9,51.8,2.7c5.7,1.7,11.1,3.5,16.1,5.4c0.2-5.2-0.3-9.4-1.5-12.4l0,0
						c-2.3-6.1-9.1-9.8-18.7-14.9c-7.7-4.1-17.2-9.3-27-17.3c-6.2-5.1-14.5-13.1-18.9-22.8C266.1,239.2,265.5,236.4,265.3,234.8z"/>
				</g>
				<g>
					<path class="st3" d="M395.8,298.2c-1.8-28-6-34.7-6-34.7c0-0.1,0-0.1,0-0.2c-1.8-16.8-4.1-17-5.1-18.2l0,0
						c0,0,3.9,16.3-11.3,38.3c-14.6,21.1-28.5,27.4-35.5,28.8c29.4,11.7,40,24.4,44.4,33.4c2.8,5.8,1.4,10.2-0.6,13.2
						c3.6-2.5,6.2-4.9,7.6-6.8C394.4,345.4,397.7,326.2,395.8,298.2z"/>
					<path class="st4" d="M381.8,359c0,0-0.1,0-0.1,0c-0.1-0.1-0.1-0.1,0-0.2c1.8-2.7,3.4-7.2,0.6-13c-6.4-13-21.3-24.2-44.4-33.4
						c-0.1,0-0.1-0.1-0.1-0.2c0-0.1,0.1-0.1,0.1-0.1c16.8-3.3,31.4-22.8,35.4-28.7c14.9-21.7,11.3-38,11.3-38.1c0,0,0-0.1,0-0.1
						c0,0,0.1-0.1,0.1-0.1c0,0,0,0,0,0c0.1,0,0.1,0,0.1,0.1c0.1,0.1,0.2,0.3,0.4,0.4c1.1,1.1,3.2,3,4.8,17.9l0,0.2
						c0.3,0.6,4.2,8,6,34.7c0,0,0,0,0,0c2,30.8-2,48-6.5,53.9C388.5,353.4,386.3,356,381.8,359C381.8,359,381.8,359,381.8,359z
						 M338.5,312.3c22.8,9.2,37.6,20.4,44,33.3c2.7,5.5,1.5,9.8-0.1,12.7c3.9-2.8,6-5.1,6.9-6.3c4.4-5.8,8.5-23,6.4-53.7v0
						c-1.8-27.6-5.9-34.5-6-34.6c0,0,0,0,0-0.1l0-0.2c-1.6-14.7-3.6-16.7-4.7-17.7c0,0,0,0,0,0c0.5,3,2.1,18.2-11.4,37.9
						C358.3,305.6,344.3,311,338.5,312.3z"/>
				</g>
				<g>
					<path class="st3" d="M373.4,283.4c15.1-22,11.3-38.3,11.3-38.3l0,0c-0.3-0.3-0.4-0.7-0.4-1.5c0,0,0-0.1,0-0.1
						c0-4-2.8-24-23.1-60.5c-20.3-36.5-48.1-48.9-48.1-48.9c-12-5.3-30-7.1-37,11.1c-6.9,18.2-2.8,53.4-6,63.1
						c-2.2,6.8-3.2,15.3-4.7,25.1l0,0c0,0-0.3,14.6,21.4,32.3c21.7,17.7,41.5,21.1,45.7,32.3c1.3,3.5,1.6,8.1,1.5,12.7
						c1.3,0.5,2.6,1,3.9,1.5C344.9,310.9,358.9,304.6,373.4,283.4z"/>
					<path class="st4" d="M337.9,312.4C337.9,312.4,337.8,312.4,337.9,312.4c-1.4-0.5-2.7-1-4-1.5c-0.1,0-0.1-0.1-0.1-0.2
						c0.2-5.3-0.3-9.6-1.5-12.7c-2.3-6.1-9.1-9.8-18.7-14.9c-7.7-4.1-17.2-9.3-27-17.3c-20.7-17-21.4-31.2-21.4-32.3
						c0,0,0-0.1,0-0.1c0.4-2.3,0.7-4.5,1-6.6c1.1-7.1,2-13.3,3.7-18.5c1.3-3.9,1.4-12.1,1.5-21.5c0.2-13.7,0.4-30.8,4.5-41.6
						c2.5-6.4,6.5-10.9,11.9-13.1c9.8-4.1,20.9,0,25.3,1.9c0.1,0,7.1,3.2,16.4,10.8c8.7,7,21.2,19.3,31.7,38.2
						c22.9,41,23.1,60.4,23.1,60.6l0,0.1c0,0.8,0.2,1.1,0.4,1.4c0,0,0,0.1,0,0.1c0.2,1.1,3.3,17.2-11.3,38.3
						C357.8,306.4,343.4,311.3,337.9,312.4C337.9,312.4,337.9,312.4,337.9,312.4z M334.1,310.6c1.2,0.5,2.5,1,3.8,1.5
						c16.8-3.3,31.3-22.8,35.4-28.7l0.1,0.1l-0.1-0.1c14.9-21.7,11.3-38,11.3-38.1c0,0,0,0,0,0c-0.3-0.4-0.4-0.8-0.4-1.5l0-0.1
						c0-0.2-0.3-19.5-23.1-60.4c-10.5-18.8-23-31.1-31.6-38.1c-9.4-7.6-16.3-10.7-16.4-10.8c-4.3-1.9-15.4-5.9-25-1.9
						c-5.4,2.2-9.3,6.6-11.7,12.9c-4.1,10.8-4.3,27.8-4.5,41.5c-0.1,9.5-0.2,17.6-1.5,21.6c-1.7,5.2-2.6,11.3-3.7,18.4
						c-0.3,2.1-0.6,4.3-1,6.5c0,0,0,0,0,0c0,0.1,0,14.7,21.3,32.1c9.8,8,19.3,13.1,26.9,17.2c9.6,5.2,16.5,8.9,18.8,15.1
						C333.8,301.1,334.3,305.3,334.1,310.6z"/>
				</g>
			</g>
		</g>
		<g>
			<g>
				<g>
					<g>
						<path class="st0" d="M115.7,243.6c0,0,0-0.1,0-0.1C115.7,243.5,115.7,243.6,115.7,243.6z"/>
						<path class="st1" d="M115.7,243.8c-0.1,0-0.2-0.1-0.2-0.1c0-0.1,0-0.2,0-0.2c0-0.1,0.1-0.1,0.2-0.1c0.1,0,0.1,0.1,0.1,0.2
							c0,0,0,0.1,0,0.1C115.9,243.7,115.8,243.8,115.7,243.8C115.7,243.8,115.7,243.8,115.7,243.8z"/>
					</g>
					<g>
						<path class="st3" d="M128.4,252.4c8.7,4.2,18.8,6.1,28.3,7.6c16,2.6,32.4,2.7,48.3-0.6c11.1-2.3,23.2-5.4,32.3-12.3
							c0,0,0,0,0,0c-3.7-15.6-4.2-28.9-7.4-38.7c-3.2-9.8,0.9-44.9-6-63.1c-6.9-18.2-25-16.5-37-11.1c0,0-27.7,12.4-48.1,48.9
							c-20.3,36.5-23.1,56.5-23.1,60.5c0,0,0,0.1,0,0.1C115.8,244.2,116.7,246.8,128.4,252.4z"/>
						<path class="st4" d="M179.9,262.1c-7.6,0-15.3-0.6-23.2-1.9c-9.6-1.6-19.7-3.4-28.3-7.6l0,0c-11.6-5.6-12.7-8.2-12.7-8.9
							c0-0.1,0-0.1,0-0.1c0-0.2,0.3-19.5,23.1-60.6c10.5-18.9,23-31.2,31.7-38.2c9.4-7.6,16.4-10.8,16.4-10.8
							c4.4-1.9,15.5-6,25.3-1.9c5.4,2.3,9.4,6.7,11.9,13.1c4.1,10.9,4.3,27.9,4.5,41.6c0.1,9.4,0.2,17.6,1.5,21.5
							c1.7,5.2,2.6,11.4,3.7,18.5c0.9,6.1,2,13,3.7,20.2c0,0.1,0,0.2,0,0.2c-9,6.9-20.9,10-32.4,12.4
							C196.9,261.3,188.5,262.1,179.9,262.1z M202.8,130.7c-6.7,0-12.9,2.3-15.9,3.6c-0.1,0-7,3.2-16.4,10.8
							c-8.6,7-21.1,19.3-31.6,38.1c-22.8,40.9-23.1,60.2-23.1,60.4c0,0,0,0.1,0,0.1c0,0.4,0.8,3,12.5,8.6l0,0
							c8.6,4.1,18.7,6,28.3,7.6c16.8,2.7,33.1,2.6,48.2-0.6c11.4-2.3,23.3-5.5,32.2-12.2c-1.7-7.3-2.8-14.1-3.7-20.2
							c-1.1-7.1-2-13.2-3.7-18.4c-1.3-4-1.4-12.2-1.5-21.6c-0.2-13.7-0.4-30.7-4.5-41.5c-2.4-6.4-6.4-10.7-11.7-12.9
							C209,131.1,205.9,130.7,202.8,130.7z"/>
					</g>
					<g>
						<path class="st0" d="M241.3,291c-1.8,8.5-6.8,24.5-20.1,32c-18.4,10.5-49.1,14.5-61.1,13.1c-12.1-1.3-15.2,2.5-22.4,5.5
							c-7.1,3-16.4,5.3-20,5.5c-3.6,0.2-7.5,4,3.2,10.9c10.7,6.9,25.7,8.8,34.4,8.6c8.7-0.2,21.6-2.1,32.4-2.5
							c10.9-0.4,31.7-3,41-16.8c5.6-8.3,9.2-20.7,11.2-29.3C241,309.4,241.3,300,241.3,291z"/>
						<path class="st1" d="M154.1,366.8c-9.4,0-23.3-2.2-33.3-8.6c-6.5-4.2-7.3-7-6.9-8.6c0.4-1.6,2.2-2.4,3.8-2.5
							c3.4-0.2,12.6-2.4,19.9-5.5c1.6-0.7,3-1.4,4.3-2.1c4.7-2.4,8.7-4.5,18.1-3.4c11.1,1.2,41.8-2.2,61-13.1
							c5.6-3.2,15.7-11.6,20-31.9c0-0.1,0.1-0.1,0.2-0.1c0.1,0,0.1,0.1,0.1,0.2c0.1,10-0.4,19.1-1.3,27.2c-2,8.8-5.6,21.1-11.2,29.3
							c-4.1,6-10.8,10.6-20,13.4c-7.8,2.5-15.8,3.2-21.1,3.4c-5.5,0.2-11.4,0.8-17.1,1.3c-5.6,0.5-11,1.1-15.3,1.2
							C154.9,366.8,154.5,366.8,154.1,366.8z M155.5,336c-6.2,0-9.6,1.7-13.4,3.7c-1.3,0.7-2.7,1.4-4.3,2.1
							c-7.4,3.2-16.7,5.4-20,5.5c-1.5,0.1-3.1,0.8-3.5,2.3c-0.3,1.3,0.1,4,6.8,8.3c10.3,6.6,24.9,8.7,34.3,8.5
							c4.3-0.1,9.7-0.6,15.3-1.2c5.7-0.6,11.7-1.1,17.1-1.3c26.3-0.9,36.9-10.8,40.8-16.7c5.6-8.2,9.1-20.4,11.2-29.2
							c0.9-7.6,1.4-16.3,1.4-25.6c-4.5,19.4-14.3,27.6-19.8,30.7c-17.9,10.2-48.2,14.6-61.2,13.2C158.4,336.1,156.8,336,155.5,336z"
							/>
					</g>
					<path class="st2" d="M221.2,323c-18.4,10.5-49.1,14.5-61.1,13.1c-12.1-1.3-15.2,2.5-22.4,5.5c-7.1,3-16.4,5.3-20,5.5
						c-3.6,0.2-7.5,4,3.2,10.9c2.6,1.7,5.6,3.1,8.6,4.2c-0.3-1.1-0.2-2.1,0.3-3.2c1.2-2.4,3.9-3.2,6.4-3.8c4.9-1.2,9.8-1.6,14.8-1.7
						c12.2-0.3,23.8-0.7,35.7-3.7c5.4-1.4,11.1-2.6,16.2-4.7c3.2-1.3,6.3-2.9,9.6-4.1c4.3-1.5,11.2-3.4,13.6,1.8
						c1.6,3.5-1.6,7.6-3.8,10c-1.6,1.6-3.3,3.2-5.1,4.6c4.5-2.4,8.6-5.6,11.6-10c5.6-8.3,9.2-20.7,11.2-29.3
						c1-8.7,1.4-18.1,1.3-27.2C239.5,299.4,234.4,315.5,221.2,323z"/>
				</g>
				<g>
					<g>
						<path class="st3" d="M151.3,336.2c2.3-0.4,5.1-0.4,8.7,0c12.1,1.3,42.7-2.7,61.1-13.1c13.2-7.5,18.3-23.6,20.1-32
							c-0.1-18.6-2.1-35.9-4-43.8c-9.1,7-21.2,10-32.3,12.3c-15.9,3.3-32.3,3.2-48.3,0.6c-9.5-1.5-19.6-3.4-28.3-7.6
							c-11.7-5.6-12.6-8.2-12.6-8.8c-0.1,3.8-3.2-1.6-5.5,19.7c2.1,2.6,12.7,16.4,23.4,40.9C141.5,322.6,146.2,331.4,151.3,336.2z"
							/>
						<path class="st4" d="M165.6,336.6c-2.1,0-3.9-0.1-5.5-0.3c-3.3-0.4-6.2-0.4-8.7,0c0,0-0.1,0-0.1,0c-4.9-4.6-9.6-12.9-17.8-32
							c-10.6-24.5-21.3-38.4-23.3-40.9c0,0,0-0.1,0-0.1c1.6-14.9,3.6-16.8,4.8-17.9c0.5-0.5,0.7-0.7,0.8-1.8c0-0.1,0.1-0.2,0.2-0.2
							c0.1,0,0.2,0.1,0.2,0.1c0,0.5,0.8,3,12.5,8.6c8.6,4.1,18.7,6,28.3,7.6c16.8,2.7,33.1,2.6,48.2-0.6
							c11.5-2.4,23.3-5.5,32.2-12.3c0,0,0.1,0,0.2,0c0.1,0,0.1,0.1,0.1,0.1c1.9,7.9,3.8,25.5,4,43.9c-4.3,20.5-14.5,29-20.1,32.2
							C205.6,332.1,180.3,336.6,165.6,336.6z M155.5,335.7c1.4,0,3,0.1,4.6,0.3c11.1,1.2,41.8-2.2,61-13.1
							c5.6-3.2,15.7-11.6,20-31.9c-0.1-18.1-2.1-35.5-3.9-43.5c-8.9,6.8-20.7,9.9-32.2,12.2c-15.2,3.1-31.5,3.3-48.4,0.6
							c-9.6-1.6-19.7-3.4-28.3-7.6c-9.1-4.4-11.7-7-12.5-8.2c-0.1,0.7-0.4,1-0.8,1.3c-1.1,1-3.1,2.9-4.6,17.6
							c2.1,2.7,12.8,16.5,23.3,40.9c8.2,18.9,12.8,27.3,17.7,31.8C152.7,335.8,154,335.7,155.5,335.7z"/>
					</g>
					<g>
						<path class="st3" d="M187.8,364.1c-10.9,0.4-23.7,2.3-32.4,2.5c-8.7,0.2-23.7-1.7-34.4-8.6c-10.7-6.9-6.7-10.7-3.2-10.9
							c3.6-0.2,12.9-2.5,20-5.5c5-2.1,8.1-4.7,13.6-5.5c-5.1-4.7-9.9-13.6-17.8-31.9c-10.6-24.5-21.2-38.3-23.4-40.9
							c0,0.1,0,0.1,0,0.2c0,0-4.2,6.7-6,34.7c-1.9,28,1.4,47.1,6.5,53.8c5.1,6.7,24,20.5,55.9,16.9c31.9-3.6,57.3-1.8,67.9-27.6
							c2.6-6.4,4.4-14.5,5.4-23.2c-2,8.5-5.6,20.9-11.2,29.3C219.4,361.1,198.6,363.7,187.8,364.1z"/>
						<path class="st4" d="M156.5,369.7c-10.1,0-19.6-1.8-28-5.2c-9.2-3.8-15.3-8.8-18-12.3c-4.5-5.9-8.5-23.1-6.5-53.9
							c1.8-26.7,5.7-34.2,6-34.7c0-0.1,0-0.1,0-0.2c0-0.1,0.1-0.1,0.1-0.1c0.1,0,0.1,0,0.2,0.1c2,2.5,12.7,16.4,23.4,41
							c8.2,19,12.9,27.3,17.7,31.9c0,0,0.1,0.1,0,0.2c0,0.1-0.1,0.1-0.1,0.1c-3.8,0.6-6.4,1.9-9.3,3.4c-1.3,0.7-2.7,1.4-4.3,2.1
							c-7.4,3.2-16.7,5.4-20,5.5c-1.5,0.1-3.1,0.8-3.5,2.3c-0.3,1.3,0.1,4,6.8,8.3c10.3,6.6,24.9,8.7,34.3,8.5
							c4.3-0.1,9.7-0.6,15.3-1.2c5.7-0.6,11.7-1.1,17.1-1.3l0,0.2l0-0.2c26.3-0.9,36.9-10.8,40.8-16.7c5.6-8.2,9.1-20.4,11.2-29.2
							c0-0.1,0.1-0.1,0.2-0.1c0.1,0,0.1,0.1,0.1,0.2c-1.1,9.5-3,17.3-5.4,23.3c-9.2,22.2-29.4,24.1-55,26.4
							c-4.2,0.4-8.6,0.8-13.1,1.3C163.2,369.5,159.8,369.7,156.5,369.7z M110.3,263.7c-0.4,0.8-4.2,8.4-5.9,34.5
							c-2,30.7,2,47.9,6.4,53.7c2.6,3.5,8.7,8.5,17.8,12.2c11.1,4.5,24.2,6.1,37.9,4.6c4.5-0.5,8.9-0.9,13.1-1.3
							c25.5-2.3,45.6-4.1,54.7-26.2c2.2-5.3,3.9-12.1,5-20.1c-2.1,8.4-5.5,19-10.5,26.3c-4.1,6-10.8,10.6-20,13.4
							c-7.8,2.5-15.8,3.2-21.1,3.4c-5.5,0.2-11.4,0.8-17.1,1.3c-5.6,0.5-11,1.1-15.3,1.2c-9.4,0.2-24.1-1.9-34.5-8.6
							c-6.5-4.2-7.3-7-6.9-8.6c0.4-1.6,2.2-2.4,3.8-2.5c3.4-0.2,12.6-2.4,19.9-5.5c1.6-0.7,3-1.4,4.3-2.1c2.8-1.4,5.4-2.8,9-3.4
							c-4.8-4.6-9.5-13-17.6-31.7C123.1,280.5,112.7,266.8,110.3,263.7z"/>
					</g>
				</g>
			</g>
			<path class="st5" d="M187.8,364.1c-10.9,0.4-23.7,2.3-32.4,2.5c-8.7,0.2-23.7-1.7-34.4-8.6c-10.7-6.9-6.7-10.7-3.2-10.9
				c3.6-0.2,12.9-2.5,20-5.5c5-2.1,8.1-4.7,13.6-5.5c2.3-0.4,5.1-0.4,8.7,0c12.1,1.3,42.7-2.7,61.1-13.1c13.2-7.5,18.3-23.6,20.1-32
				c-0.1-18.6-2.1-35.9-4-43.8c0,0,0,0,0,0c-3.7-15.6-4.2-28.9-7.4-38.7c-3.2-9.8,0.9-44.9-6-63.1c-6.9-18.2-25-16.5-37-11.1
				c0,0-27.7,12.4-48.1,48.9c-20.3,36.5-23.1,56.5-23.1,60.5c0,0,0,0.1,0,0.1c-0.1,3.8-3.2-1.6-5.5,19.7c0,0.1,0,0.1,0,0.2
				c0,0-4.2,6.7-6,34.7c-1.9,28,1.4,47.1,6.5,53.8c5.1,6.7,24,20.5,55.9,16.9c31.9-3.6,57.3-1.8,67.9-27.6
				c2.6-6.4,4.4-14.5,5.4-23.2c-2,8.5-5.6,20.9-11.2,29.3C219.4,361.1,198.6,363.7,187.8,364.1z M196.9,294.8
				c-1.8,9.5-6.2,17.3-16.6,19.9c-25.7,6.3-35.6,5.3-42.7-12.6c-1.8-4.5-3.9-8.9-6.2-13.2c-3.5-6.7-7.6-13.1-11.6-19.5
				c-2.1-3.4-7.1-13.4-1.3-15.7c0.7-0.3,1.5-0.4,2.4-0.4c5.4-0.2,10.4,3.9,15.1,5.9c6.4,2.8,13,5.3,19.8,7
				c8.5,2.1,16.5,1.8,25.1,1.6c8-0.2,12.5,3.2,14,10.6C196.2,283.7,197.9,289.2,196.9,294.8z M129.2,208
				c24.9-51.1,38.9-58.5,54.9-68c13.5-7.9,20.2,6.9,15.6,26.8c-4.6,20-3.1,38.6-2.2,64.6c0.9,26-60.2,19.7-69.7,12
				C118.2,235.7,129.2,208,129.2,208z M109,336.5c-5.3-12.8-2.7-49.4-1.2-56.5c1.5-7.1,4.2-4.6,4.2-4.6c4.5,4.8,7.3,16,9.8,33.7
				c2.4,17,1.2,29.4-5,31.4C110.5,342.5,109,336.5,109,336.5z"/>
			<path class="st6" d="M202.6,131.2c7.7,1.9,13.4,7.8,15.9,15c6.1,17.3-0.9,36.5-2.9,54c-0.8,7.2-1.3,14.8,0.3,22
				c0.8,3.6,1.9,7.3,4.1,10.3c1.4,2,4.1,5.5,7,5.4c4.4-0.1,5.9-7.1,6.7-10.7c-1.1-7.1-2-13.4-3.8-18.7c-3.2-9.8,0.9-44.9-6-63.1
				c-4.8-12.6-14.8-15.6-24.5-14.6C200.5,130.8,201.5,130.9,202.6,131.2z"/>
			<path class="st3" d="M138.5,361.1c0,0,8.3,5.3,49.5-0.2c8.2-1.1,26.5-4.4,33.4-10.3c0,0-11.7,4.3-24.1,6.9
				C180.4,360.9,147,363.2,138.5,361.1z"/>
			<path class="st3" d="M185.7,142c0,0-23.4,8.6-46.3,52.5c0,0-16.9,30-11.6,45.1c0,0,0.2-18.2,14.2-45.7
				C158.7,161.4,185.7,142,185.7,142z"/>
			<path class="st3" d="M110.9,278.5c0,0-5.6,22.6-0.6,55.4c0,0,0.9,4,3.6,4.3C113.9,338.1,109.4,325,110.9,278.5z"/>
			<path class="st3" d="M122.2,255.6c0,0-5,0.6-2.1,6.6c3,6,12.2,20,17.8,33.7c5.6,13.7,10.4,20,20.8,20.8c0,0-8.6-3.4-15.4-16
				c-6.8-12.6-14.2-28.3-18.1-34.5C121.3,259.9,119.8,258.5,122.2,255.6z"/>
			<g>
				<path class="st7" d="M156.3,197.2c0.5,0.2,1.1,0.4,1.7,0.5c1.3,0.2,2.5,0.2,3.7,0.2c1.5,0.1,3.5,0,5-0.6c1.1,0,2.2,0.2,3.3,0.3
					c3.4,1.2,7.4,1.2,10.8-0.3c0.2,0.5,0.5,1,0.8,1.5c0.8,1.2,2.4,2.4,3.9,2.7c1.9,0.8,4.2,0.8,6.7,0.8c0.6-0.5,1.1-1,1.7-1.4
					c0.4-0.3,0.7-0.6,1.1-0.9c-1.5,0-3,0-4.4,0c-2.3-0.5-4.3-1.1-5.7-2.8c-3.6-7.8,3.3-11.9,9-16.4c1.3-0.9,2.4-1.6,2.8-2.1
					c1.6-1.6,3-3.4,3.5-5.5c1.1-0.1,3.3-1.2,3.6-1.4c0.1,0,0.2-0.1,0.2-0.2c0.7-0.8,1.4-1.6,1.8-2.6c-0.7,0.7-1.6,1.2-2.2,1.6
					c-0.7,0.5-1.4,0.9-2.2,1.2c-0.4,0.1-0.7,0.1-1,0c0.1-1,0-2-0.4-2.9c-0.1-0.7-0.2-1.3-0.4-2c0,2.3-0.5,4.5-1.7,6.5
					c-0.6,1.7-1.6,3.2-3,4.6c-4.4-5-3.2-13.1,0.9-17.9c-0.5,0.3-1,0.6-1.4,1c-4,5.1-5.4,13.2-0.5,17.9c-0.6,0.5-1.2,1.1-2,1.6
					c-0.8,0.6-1.5,1.2-2.3,1.7c-1.3,0.8-2.6,1.6-3.8,2.2c-0.5,0.3-1.9,1.2-3.1,2.4c0.5-3.2,0.3-6.4-0.5-9.6c-0.5-2.2-1.3-4.2-2.5-6
					c0.1-0.1,0.2-0.2,0.2-0.3c0.2-0.3,0.3-0.7,0.4-1.1c0,0,0,0,0-0.1c0.3-2.1,0.3-4.5-0.7-6.4c0.6,2.3,0,4.7-0.5,7
					c-1.7-2.3-4-4.1-6.9-5.1c-0.6,0-1.1,0-1.6,0c0.1,0.1,0.3,0.3,0.4,0.4c6.5,2.2,9.4,8.6,9.9,15.1c-2.3-0.2-4.8,0.5-7.2-0.2
					c-0.8-0.2-1.6-0.6-2.3-1.1c-1.7-0.6-3.2-1.6-3.9-2.9c0,0.3,0.1,0.6,0.2,1c1.2,1.5,2.6,2.9,4.4,3.9c2.9,1.5,5.9,0.7,8.9,0.6
					c0.1,2-0.1,3.9-0.5,5.7c-0.5,2.4-1,4.8-0.6,7.1c-2.4,0.8-4.9,1.2-7.4,1c-2,0.2-4.1,0-5.8-1.2c-2.2-1.7-3.7-3.9-5-6.3
					c0.5,1.6,0.8,3.2,1.9,4.6c0.8,1.1,1.6,1.9,2.6,2.5c0,0-0.1,0-0.1,0c-4,0.3-9.4,1.7-12.5-1.6
					C154.3,195.2,155.2,196.3,156.3,197.2z"/>
				<path class="st7" d="M211.7,267c-0.8-1.1-1.7-2.1-2.6-3c1.7,0.9,3.5,1.7,5.6,2.5c5.1,1.9,9.7,4.8,13.5,8.5
					c-0.2-0.6-0.4-1.1-0.5-1.3c-0.6-1.1-1.3-2.1-2-3c-2-1.8-4.3-3.2-6.9-4.4c-2.4-1.1-5-1.8-7.5-2.6c-9.1-3-14.8-11.9-17.7-20.2
					c-0.9-2.5-1.5-6.1-0.8-8.7c0.5-1.7,0.6-3.3-1.1-4.5c2.4-3.9,6.1-7,9.1-10.5c2.5-2.9,6.2-6.7,6-10.8c-0.2-3.4-2.5-4.9-5.8-5.9
					c-1.2-0.4-2.6-0.5-3.9-0.6c-0.9,0.7-1.9,1.5-2.8,2.3c1.4,0,2.8,0.1,4.2,0.3c10.6,1.5,2.1,12.2-1.7,16.5c-2.6,3-5.2,5.9-7.9,8.8
					c-1.1,0.5-1.8,1.3-2.2,2.3c-0.1,0.1-0.2,0.2-0.3,0.3c-3.7-0.1-7.1-0.5-10.2-3.3c-2.9-2.7-4.6-6.2-6.7-9.5
					c-0.5-0.9-1-1.8-1.6-2.7c-1.6-2.2-3.7-4-6.1-5.2c0-1.1-0.2-2.2-0.5-3.2c-0.9-0.7-1.7-1.4-2.5-2.1c0.4,0.6,0.8,1.3,1.1,1.9
					c0.4,0.8,0.4,1.9,0.7,2.8c-2.6-1.1-5.5-1.7-8.4-1.7c-0.3,0-0.7,0.1-1,0.3c-0.4,0.2-0.8,0.4-1.2,0.6c8.3,0,14.5,3.8,18.4,10.8
					c-3.1,0.3-6.1,0.4-8.8-0.7c0.6,0.7,1.2,1.4,2,1.8c2.5,0.8,5.2,1,7.4,0c0,0.1,0.1,0.2,0.1,0.2c2.3,4.8,3.4,7.6,7.5,10.6
					c-3.3,0.7-6.5,1.7-8,2.2c-3.4,1.1-6.6,1.7-10.2,1.7c-0.1,0-0.2,0-0.3,0c-0.3,0-0.6-0.1-0.8-0.1c-1.8-0.3-3.2-1.1-4.3-2.2
					c-0.4-0.4-0.9-0.8-1.3-1.3c-1.9-2.3-3.5-7.2-6.6-8c-0.2-0.1-0.5-0.1-0.7-0.2c3.1,2.3,4.3,7.9,6,10.4c0.4,0.6,0.9,1.1,1.5,1.6
					c-0.3,0.1-0.5,0.2-0.8,0.3c-0.7,0.2-1.3,0.4-2,0.6c-1.1,0.4-2.6,1.3-4,1.8c-3.4,0.7-7.2,0-9.5-2.6c0,0.6,0.1,1.2,0.2,1.8
					c1.3,1.5,3.1,2.4,5.4,2.6c3.3,0.4,5.7-1.2,8.3-2.6c1.4-0.4,2.7-0.7,4.1-0.9c0.1,0,0.1,0,0.2,0c1.2,0.4,2.5,0.7,3.7,0.8
					c9.3,1,19.6-7.9,28.5-3.7c1,6.6-8.3,11.4-13.4,13.2c-6.7,2.3-14.1,2.7-21.1,3.1c-3.8,0.2-7.6,0.5-11.4,1.2
					c-5.1,0.9-8,3.7-10.7,7.7c1.7-1.3,3.3-3,5.3-3.9c-0.2,3.6-0.4,6.9-2.5,10c2.2-2.1,3.5-4,3.9-7c0.4-3.4,1.3-4.8,5.1-5.2
					c6.9-0.7,13.6-0.3,20.5-1.5c-5.6,2.4-11.3,5.3-14.1,10.8c-1.4,2.7-2.4,5.4-4.4,7.9c-1.9,2.3-5.6,2.9-8.4,3.9
					c-3.6,1.3-5.9,2.7-7.8,6c3.6-3.7,8.5-4.8,13.2-6.3c-4.5,4.8-10.7,12.5-4.9,18.9c-1.1-4.4-1-8.7,1.7-12.6
					c2.5-3.6,5.9-6.9,8.8-10.2c0.4,4.2,1.9,8.7,5.8,11.2c-2.4-4.5-4.9-9.2-3.6-14.4c1.2-5,5.3-8.8,9.8-11.2c2.6-1.4,5.3-2.3,8-3.3
					c0.1,4,1.4,7.9,1.2,12c-0.1,3.2-0.9,5.3-2.8,7.9c4-0.6,4.2-8.6,4.5-11.4c1.9,1.7,4,3.5,5.6,5.4c1.9,2.3,1.9,4.2,2.2,7
					c3.7-7.5-5.6-10.1-7.9-16c-2-5.1,1.6-6.8,5.8-8.3c4.8-1.7,8.9-4.7,11.4-9c0.9-1.5,2.8-4.6,4.9-3c1.4,1.1,1.6,3.8,2.1,5.3
					c1.3,4,3,7.9,3.7,12c1.6,9.5-2.8,18.7-8,26.5c-1.4,1.1-2.8,1.5-5,1.5c-0.3,0-0.6,0-0.9,0.1c-11.2-1.5-22.7,9.5-30,16.7
					c-0.2,0.4-0.3,0.7-0.4,1.1c2.7-2.3,5.4-4.7,8.3-6.9c-0.6,1.8-0.4,4.1-0.7,6c0.5-0.7,0.9-1.4,1.4-2.1c0.1-0.3,0.1-0.5,0.2-0.8
					c0.2-0.9,0.3-1.7,0.5-2.6c0.2-0.7,0.6-1.4,0.8-2.1c6.9-4.9,14.6-8.5,23.5-7.5c-2.7,4.1-4.5,8.7-5.1,13.2c0,0,0,0,0,0
					c-3.9,4.6-10,6.7-13.9,11.3c-1.4,1.8-2.8,3.8-3.7,5.9c-0.1,0.5-0.1,0.9-0.1,1.4c0,0.2,0.1,0.7,0.2,1.3c2.3-4.8,5.1-8.6,10-11.9
					c2.8-1.9,5.5-3.6,7.4-6.2c-0.2,5.3,1.5,10.6,6,15.1c-0.6-1.1-1.2-2.3-1.8-3.5c-3.1-5.1-3.6-11.1-2.2-17
					c1.6-6.9,7.6-12.7,11.1-19c1.5,3.4,4.8,5.9,6.8,9c2.9,4.4,4.3,9.5,4.2,14.7c0.4-1.3,0.8-2.7,1-4.1c-0.1-2.9-0.7-5.8-1.9-8.7
					c-1.3-3.1-3.4-5.4-5.6-7.7c-0.7-1.1-1.3-2.2-1.8-3.3c-0.6-1.3-0.6-2.7-0.8-4c1.8-4.5,2.8-9.3,2.7-14.2c0.3-0.1,0.7-0.1,1.2,0.2
					c0.9,0.5,1.8,1.1,2.6,1.7c1.9,1.3,3.4,2.9,5.3,4.2c4.2,4.5,7.2,10.5,7.7,16.5c0.6-2.7,0-5.7-0.7-8.4
					C214,270.6,212.9,268.7,211.7,267z"/>
				<path class="st8" d="M155.3,196.4c0.5,0.2,1.1,0.4,1.7,0.5c1.3,0.2,2.5,0.2,3.7,0.2c1.5,0.1,3.5,0,5-0.6c1.1,0,2.2,0.2,3.3,0.3
					c3.4,1.2,7.4,1.2,10.8-0.3c0.2,0.5,0.5,1,0.8,1.5c0.8,1.2,2.4,2.4,3.9,2.6c1.9,0.8,4.2,0.8,6.7,0.8c0.6-0.5,1.1-1,1.7-1.4
					c0.4-0.3,0.7-0.6,1.1-0.9c-1.5,0-3,0-4.4,0c-2.3-0.5-4.3-1.1-5.7-2.8c-3.6-7.8,3.3-11.9,9-16.4c1.3-0.9,2.4-1.6,2.8-2.1
					c1.6-1.6,3-3.4,3.5-5.5c1.2-0.1,3.3-1.2,3.6-1.4c0.1,0,0.2-0.1,0.2-0.2c0.7-0.8,1.4-1.6,1.8-2.6c-0.7,0.7-1.6,1.3-2.2,1.6
					c-0.7,0.5-1.4,0.9-2.2,1.2c-0.4,0.1-0.7,0.1-1,0c0.1-1,0-2-0.4-2.9c-0.1-0.7-0.2-1.3-0.4-2c0,2.3-0.5,4.5-1.7,6.5
					c-0.6,1.7-1.6,3.2-3,4.7c-4.5-5-3.2-13.1,0.9-17.9c-0.5,0.3-1,0.6-1.4,1c-4,5.1-5.4,13.2-0.5,17.9c-0.6,0.5-1.2,1.1-2,1.6
					c-0.8,0.6-1.5,1.1-2.3,1.7c-1.3,0.8-2.6,1.6-3.8,2.2c-0.4,0.3-1.9,1.3-3.1,2.4c0.5-3.2,0.3-6.4-0.5-9.6c-0.5-2.2-1.3-4.2-2.5-6
					c0.1-0.1,0.2-0.2,0.2-0.3c0.2-0.3,0.3-0.7,0.4-1.1c0,0,0-0.1,0-0.1c0.3-2.1,0.3-4.5-0.7-6.4c0.6,2.3,0,4.7-0.5,7
					c-1.7-2.3-4-4.1-6.9-5.1c-0.6,0-1.1,0-1.6,0c0.1,0.1,0.3,0.3,0.4,0.4c6.5,2.2,9.4,8.6,9.9,15.1c-2.3-0.2-4.8,0.5-7.2-0.2
					c-0.8-0.2-1.6-0.6-2.3-1.1c-1.7-0.6-3.1-1.6-3.9-2.9c0.1,0.3,0.1,0.6,0.2,1c1.2,1.5,2.6,2.9,4.4,3.9c2.9,1.6,5.9,0.7,8.9,0.6
					c0,2-0.1,3.9-0.5,5.7c-0.5,2.4-1,4.8-0.6,7.1c-2.4,0.8-4.9,1.2-7.4,1c-2,0.2-4.1,0-5.8-1.2c-2.2-1.7-3.7-3.9-5-6.3
					c0.5,1.6,0.8,3.2,1.9,4.6c0.8,1.1,1.6,1.9,2.6,2.5c0,0-0.1,0-0.1,0c-4,0.3-9.4,1.7-12.5-1.6
					C153.3,194.5,154.2,195.5,155.3,196.4z"/>
				<path class="st8" d="M211.2,266.4c-0.8-1.1-1.7-2.1-2.6-3c1.7,0.9,3.5,1.7,5.6,2.5c5.1,1.8,9.7,4.8,13.5,8.4
					c-0.2-0.6-0.4-1.1-0.5-1.3c-0.6-1.1-1.3-2.1-2-3c-2-1.8-4.3-3.2-6.9-4.4c-2.4-1.1-5-1.8-7.5-2.6c-9.1-3-14.8-11.9-17.7-20.2
					c-0.9-2.5-1.5-6.1-0.8-8.7c0.5-1.7,0.6-3.3-1.1-4.4c2.4-3.9,6.1-7,9.1-10.5c2.5-2.9,6.2-6.7,6-10.8c-0.2-3.5-2.5-4.9-5.8-5.9
					c-1.2-0.4-2.6-0.5-3.9-0.6c-0.9,0.7-1.9,1.5-2.8,2.3c1.4,0,2.8,0.1,4.2,0.3c10.6,1.5,2.1,12.2-1.7,16.5c-2.6,3-5.2,5.9-7.9,8.8
					c-1.1,0.5-1.8,1.3-2.2,2.3c-0.1,0.1-0.2,0.2-0.3,0.3c-3.7-0.1-7.1-0.5-10.2-3.3c-2.9-2.7-4.6-6.2-6.7-9.5
					c-0.5-0.9-1-1.8-1.6-2.7c-1.6-2.3-3.7-4-6.1-5.3c0-1.1-0.2-2.2-0.5-3.2c-0.9-0.7-1.7-1.4-2.5-2.1c0.4,0.6,0.8,1.3,1.1,1.9
					c0.4,0.8,0.4,1.9,0.7,2.8c-2.6-1.1-5.5-1.7-8.4-1.7c-0.3,0.1-0.7,0.1-1,0.3c-0.4,0.2-0.8,0.4-1.2,0.6c8.3,0,14.5,3.8,18.4,10.8
					c-3.1,0.3-6.1,0.4-8.8-0.7c0.6,0.7,1.2,1.3,2,1.8c2.5,0.8,5.2,1,7.4,0c0,0.1,0.1,0.2,0.1,0.2c2.3,4.8,3.4,7.6,7.5,10.6
					c-3.3,0.7-6.5,1.7-8,2.2c-3.5,1.1-6.6,1.7-10.2,1.7c-0.1,0-0.2,0-0.3,0c-0.3,0-0.6-0.1-0.8-0.1c-1.8-0.3-3.2-1.1-4.3-2.2
					c-0.4-0.4-0.9-0.8-1.3-1.3c-1.9-2.3-3.5-7.1-6.6-8c-0.2-0.1-0.5-0.1-0.7-0.2c3.1,2.2,4.3,7.9,6,10.4c0.4,0.6,0.9,1.1,1.5,1.6
					c-0.3,0.1-0.5,0.2-0.8,0.3c-0.7,0.2-1.3,0.4-2,0.6c-1.1,0.4-2.6,1.3-4,1.8c-3.4,0.7-7.2,0-9.5-2.6c0,0.6,0.1,1.2,0.2,1.8
					c1.3,1.5,3.1,2.4,5.4,2.6c3.3,0.4,5.7-1.2,8.3-2.6c1.4-0.4,2.7-0.7,4.1-0.9c0.1,0,0.1,0,0.2,0c1.2,0.5,2.5,0.7,3.7,0.8
					c9.3,1,19.6-7.9,28.5-3.7c1,6.6-8.3,11.4-13.4,13.2c-6.7,2.3-14.1,2.7-21.1,3.1c-3.8,0.2-7.6,0.5-11.4,1.2
					c-5.1,0.9-8,3.7-10.7,7.7c1.7-1.3,3.3-3,5.3-3.9c-0.2,3.6-0.4,6.9-2.5,10c2.2-2.1,3.5-4,3.9-7c0.4-3.4,1.3-4.8,5.1-5.2
					c6.9-0.7,13.6-0.3,20.4-1.5c-5.6,2.4-11.3,5.3-14.1,10.8c-1.4,2.7-2.4,5.4-4.4,7.9c-1.9,2.3-5.6,2.9-8.4,3.9
					c-3.6,1.3-5.9,2.7-7.8,6c3.6-3.7,8.5-4.8,13.2-6.3c-4.5,4.8-10.7,12.5-4.9,18.9c-1.1-4.4-1-8.7,1.7-12.6
					c2.5-3.6,5.9-6.9,8.8-10.2c0.4,4.2,1.9,8.7,5.8,11.2c-2.4-4.5-4.9-9.2-3.6-14.4c1.2-5,5.3-8.8,9.8-11.2c2.5-1.4,5.3-2.3,8-3.3
					c0.1,4.1,1.4,7.9,1.2,12c-0.1,3.2-0.9,5.3-2.8,7.9c4-0.6,4.2-8.6,4.5-11.4c1.9,1.7,4,3.5,5.6,5.4c1.9,2.3,1.9,4.2,2.2,7
					c3.7-7.5-5.6-10.1-7.9-16c-2-5.1,1.6-6.8,5.8-8.3c4.8-1.7,8.9-4.7,11.4-9c0.9-1.5,2.8-4.6,4.9-2.9c1.4,1.1,1.6,3.8,2.2,5.3
					c1.3,4,3,7.9,3.7,12c1.6,9.5-2.8,18.7-8,26.5c-1.4,1.1-2.8,1.5-5,1.5c-0.3,0-0.6,0-0.9,0.1c-11.2-1.5-22.7,9.5-30,16.7
					c-0.2,0.4-0.3,0.7-0.4,1.1c2.7-2.3,5.4-4.7,8.3-6.9c-0.6,1.8-0.4,4.1-0.7,6c0.5-0.7,0.9-1.4,1.4-2.1c0.1-0.3,0.1-0.5,0.1-0.8
					c0.2-0.9,0.3-1.7,0.5-2.6c0.2-0.7,0.6-1.4,0.8-2.1c6.9-4.9,14.6-8.5,23.5-7.5c-2.7,4.2-4.5,8.7-5.1,13.2c0,0,0,0,0,0
					c-3.9,4.6-10,6.7-13.9,11.3c-1.4,1.8-2.8,3.8-3.7,5.9c-0.1,0.5-0.1,0.9-0.1,1.4c0,0.2,0.1,0.7,0.1,1.3c2.3-4.8,5.1-8.6,10-11.9
					c2.8-1.9,5.5-3.6,7.4-6.2c-0.2,5.3,1.5,10.6,6,15.1c-0.6-1.1-1.2-2.3-1.8-3.5c-3.1-5.1-3.6-11.1-2.2-17
					c1.6-6.9,7.6-12.7,11.1-19c1.5,3.4,4.8,5.9,6.8,9c2.9,4.4,4.3,9.5,4.2,14.7c0.4-1.3,0.8-2.7,1-4.1c-0.1-2.9-0.7-5.8-1.9-8.7
					c-1.3-3.1-3.4-5.4-5.6-7.7c-0.7-1.1-1.3-2.2-1.8-3.3c-0.6-1.3-0.6-2.7-0.8-4c1.8-4.5,2.8-9.3,2.7-14.2c0.3-0.1,0.7-0.1,1.2,0.2
					c0.9,0.5,1.8,1.1,2.6,1.7c1.9,1.3,3.4,2.9,5.3,4.2c4.2,4.5,7.2,10.5,7.7,16.5c0.6-2.7,0-5.7-0.7-8.4
					C213.5,270,212.4,268.1,211.2,266.4z"/>
				<path class="st4" d="M155.3,196.4c0.5,0.2,1.1,0.4,1.7,0.5c1.3,0.2,2.5,0.2,3.7,0.2c1.5,0.1,3.5,0,5-0.6c1.1,0,2.2,0.2,3.3,0.3
					c3.4,1.2,7.4,1.2,10.8-0.3c0.2,0.5,0.5,1,0.8,1.5c0.8,1.2,2.4,2.4,3.9,2.6c1.9,0.8,4.2,0.8,6.7,0.8c0.6-0.5,1.1-1,1.7-1.4
					c0.4-0.3,0.7-0.6,1.1-0.9c-1.5,0-3,0-4.4,0c-2.3-0.5-4.3-1.1-5.7-2.8c-3.6-7.8,3.3-11.9,9-16.4c1.3-0.9,2.4-1.6,2.8-2.1
					c1.6-1.6,3-3.4,3.5-5.5c1.2-0.1,3.3-1.2,3.6-1.4c0.1,0,0.2-0.1,0.2-0.2c0.7-0.8,1.4-1.6,1.8-2.6c-0.7,0.7-1.6,1.3-2.2,1.6
					c-0.7,0.5-1.4,0.9-2.2,1.2c-0.4,0.1-0.7,0.1-1,0c0.1-1,0-2-0.4-2.9c-0.1-0.7-0.2-1.3-0.4-2c0,2.3-0.5,4.5-1.7,6.5
					c-0.6,1.7-1.6,3.2-3,4.7c-4.5-5-3.2-13.1,0.9-17.9c-0.5,0.3-1,0.6-1.4,1c-4,5.1-5.4,13.2-0.5,17.9c-0.6,0.5-1.2,1.1-2,1.6
					c-0.8,0.6-1.5,1.1-2.3,1.7c-1.3,0.8-2.6,1.6-3.8,2.2c-0.4,0.3-1.9,1.3-3.1,2.4c0.5-3.2,0.3-6.4-0.5-9.6c-0.5-2.2-1.3-4.2-2.5-6
					c0.1-0.1,0.2-0.2,0.2-0.3c0.2-0.3,0.3-0.7,0.4-1.1c0,0,0-0.1,0-0.1c0.3-2.1,0.3-4.5-0.7-6.4c0.6,2.3,0,4.7-0.5,7
					c-1.7-2.3-4-4.1-6.9-5.1c-0.6,0-1.1,0-1.6,0c0.1,0.1,0.3,0.3,0.4,0.4c6.5,2.2,9.4,8.6,9.9,15.1c-2.3-0.2-4.8,0.5-7.2-0.2
					c-0.8-0.2-1.6-0.6-2.3-1.1c-1.7-0.6-3.1-1.6-3.9-2.9c0.1,0.3,0.1,0.6,0.2,1c1.2,1.5,2.6,2.9,4.4,3.9c2.9,1.6,5.9,0.7,8.9,0.6
					c0,2-0.1,3.9-0.5,5.7c-0.5,2.4-1,4.8-0.6,7.1c-2.4,0.8-4.9,1.2-7.4,1c-2,0.2-4.1,0-5.8-1.2c-2.2-1.7-3.7-3.9-5-6.3
					c0.5,1.6,0.8,3.2,1.9,4.6c0.8,1.1,1.6,1.9,2.6,2.5c0,0-0.1,0-0.1,0c-4,0.3-9.4,1.7-12.5-1.6
					C153.3,194.5,154.2,195.5,155.3,196.4z"/>
				<path class="st4" d="M211.2,266.4c-0.8-1.1-1.7-2.1-2.6-3c1.7,0.9,3.5,1.7,5.6,2.5c5.1,1.8,9.7,4.8,13.5,8.4
					c-0.2-0.6-0.4-1.1-0.5-1.3c-0.6-1.1-1.3-2.1-2-3c-2-1.8-4.3-3.2-6.9-4.4c-2.4-1.1-5-1.8-7.5-2.6c-9.1-3-14.8-11.9-17.7-20.2
					c-0.9-2.5-1.5-6.1-0.8-8.7c0.5-1.7,0.6-3.3-1.1-4.4c2.4-3.9,6.1-7,9.1-10.5c2.5-2.9,6.2-6.7,6-10.8c-0.2-3.5-2.5-4.9-5.8-5.9
					c-1.2-0.4-2.6-0.5-3.9-0.6c-0.9,0.7-1.9,1.5-2.8,2.3c1.4,0,2.8,0.1,4.2,0.3c10.6,1.5,2.1,12.2-1.7,16.5c-2.6,3-5.2,5.9-7.9,8.8
					c-1.1,0.5-1.8,1.3-2.2,2.3c-0.1,0.1-0.2,0.2-0.3,0.3c-3.7-0.1-7.1-0.5-10.2-3.3c-2.9-2.7-4.6-6.2-6.7-9.5
					c-0.5-0.9-1-1.8-1.6-2.7c-1.6-2.3-3.7-4-6.1-5.3c0-1.1-0.2-2.2-0.5-3.2c-0.9-0.7-1.7-1.4-2.5-2.1c0.4,0.6,0.8,1.3,1.1,1.9
					c0.4,0.8,0.4,1.9,0.7,2.8c-2.6-1.1-5.5-1.7-8.4-1.7c-0.3,0.1-0.7,0.1-1,0.3c-0.4,0.2-0.8,0.4-1.2,0.6c8.3,0,14.5,3.8,18.4,10.8
					c-3.1,0.3-6.1,0.4-8.8-0.7c0.6,0.7,1.2,1.3,2,1.8c2.5,0.8,5.2,1,7.4,0c0,0.1,0.1,0.2,0.1,0.2c2.3,4.8,3.4,7.6,7.5,10.6
					c-3.3,0.7-6.5,1.7-8,2.2c-3.5,1.1-6.6,1.7-10.2,1.7c-0.1,0-0.2,0-0.3,0c-0.3,0-0.6-0.1-0.8-0.1c-1.8-0.3-3.2-1.1-4.3-2.2
					c-0.4-0.4-0.9-0.8-1.3-1.3c-1.9-2.3-3.5-7.1-6.6-8c-0.2-0.1-0.5-0.1-0.7-0.2c3.1,2.2,4.3,7.9,6,10.4c0.4,0.6,0.9,1.1,1.5,1.6
					c-0.3,0.1-0.5,0.2-0.8,0.3c-0.7,0.2-1.3,0.4-2,0.6c-1.1,0.4-2.6,1.3-4,1.8c-3.4,0.7-7.2,0-9.5-2.6c0,0.6,0.1,1.2,0.2,1.8
					c1.3,1.5,3.1,2.4,5.4,2.6c3.3,0.4,5.7-1.2,8.3-2.6c1.4-0.4,2.7-0.7,4.1-0.9c0.1,0,0.1,0,0.2,0c1.2,0.5,2.5,0.7,3.7,0.8
					c9.3,1,19.6-7.9,28.5-3.7c1,6.6-8.3,11.4-13.4,13.2c-6.7,2.3-14.1,2.7-21.1,3.1c-3.8,0.2-7.6,0.5-11.4,1.2
					c-5.1,0.9-8,3.7-10.7,7.7c1.7-1.3,3.3-3,5.3-3.9c-0.2,3.6-0.4,6.9-2.5,10c2.2-2.1,3.5-4,3.9-7c0.4-3.4,1.3-4.8,5.1-5.2
					c6.9-0.7,13.6-0.3,20.4-1.5c-5.6,2.4-11.3,5.3-14.1,10.8c-1.4,2.7-2.4,5.4-4.4,7.9c-1.9,2.3-5.6,2.9-8.4,3.9
					c-3.6,1.3-5.9,2.7-7.8,6c3.6-3.7,8.5-4.8,13.2-6.3c-4.5,4.8-10.7,12.5-4.9,18.9c-1.1-4.4-1-8.7,1.7-12.6
					c2.5-3.6,5.9-6.9,8.8-10.2c0.4,4.2,1.9,8.7,5.8,11.2c-2.4-4.5-4.9-9.2-3.6-14.4c1.2-5,5.3-8.8,9.8-11.2c2.5-1.4,5.3-2.3,8-3.3
					c0.1,4.1,1.4,7.9,1.2,12c-0.1,3.2-0.9,5.3-2.8,7.9c4-0.6,4.2-8.6,4.5-11.4c1.9,1.7,4,3.5,5.6,5.4c1.9,2.3,1.9,4.2,2.2,7
					c3.7-7.5-5.6-10.1-7.9-16c-2-5.1,1.6-6.8,5.8-8.3c4.8-1.7,8.9-4.7,11.4-9c0.9-1.5,2.8-4.6,4.9-2.9c1.4,1.1,1.6,3.8,2.2,5.3
					c1.3,4,3,7.9,3.7,12c1.6,9.5-2.8,18.7-8,26.5c-1.4,1.1-2.8,1.5-5,1.5c-0.3,0-0.6,0-0.9,0.1c-11.2-1.5-22.7,9.5-30,16.7
					c-0.2,0.4-0.3,0.7-0.4,1.1c2.7-2.3,5.4-4.7,8.3-6.9c-0.6,1.8-0.4,4.1-0.7,6c0.5-0.7,0.9-1.4,1.4-2.1c0.1-0.3,0.1-0.5,0.1-0.8
					c0.2-0.9,0.3-1.7,0.5-2.6c0.2-0.7,0.6-1.4,0.8-2.1c6.9-4.9,14.6-8.5,23.5-7.5c-2.7,4.2-4.5,8.7-5.1,13.2c0,0,0,0,0,0
					c-3.9,4.6-10,6.7-13.9,11.3c-1.4,1.8-2.8,3.8-3.7,5.9c-0.1,0.5-0.1,0.9-0.1,1.4c0,0.2,0.1,0.7,0.1,1.3c2.3-4.8,5.1-8.6,10-11.9
					c2.8-1.9,5.5-3.6,7.4-6.2c-0.2,5.3,1.5,10.6,6,15.1c-0.6-1.1-1.2-2.3-1.8-3.5c-3.1-5.1-3.6-11.1-2.2-17
					c1.6-6.9,7.6-12.7,11.1-19c1.5,3.4,4.8,5.9,6.8,9c2.9,4.4,4.3,9.5,4.2,14.7c0.4-1.3,0.8-2.7,1-4.1c-0.1-2.9-0.7-5.8-1.9-8.7
					c-1.3-3.1-3.4-5.4-5.6-7.7c-0.7-1.1-1.3-2.2-1.8-3.3c-0.6-1.3-0.6-2.7-0.8-4c1.8-4.5,2.8-9.3,2.7-14.2c0.3-0.1,0.7-0.1,1.2,0.2
					c0.9,0.5,1.8,1.1,2.6,1.7c1.9,1.3,3.4,2.9,5.3,4.2c4.2,4.5,7.2,10.5,7.7,16.5c0.6-2.7,0-5.7-0.7-8.4
					C213.5,270,212.4,268.1,211.2,266.4z"/>
			</g>
		</g>
		<g>
			<g>
				<path class="st7" d="M376.9,277.6c-1.9-3.3-4.2-4.7-7.8-6c-2.8-1-6.5-1.5-8.4-3.9c-2-2.5-3-5.2-4.4-7.9
					c-2.9-5.5-8.5-8.4-14.1-10.8c6.9,1.2,13.6,0.9,20.5,1.5c3.8,0.4,4.7,1.8,5.1,5.2c0.3,3,1.7,4.9,3.9,7c-2.1-3.1-2.4-6.4-2.5-10
					c2,0.9,3.6,2.6,5.3,3.9c-2.7-4.1-5.6-6.9-10.7-7.7c-3.8-0.6-7.6-0.9-11.4-1.2c-7-0.5-14.4-0.8-21.1-3.1
					c-5.2-1.8-14.5-6.6-13.4-13.2c8.9-4.2,19.2,4.7,28.5,3.7c1.3-0.1,2.6-0.4,3.7-0.8c0.1,0,0.1,0,0.2,0c1.4,0.2,2.8,0.5,4.1,0.9
					c2.6,1.4,5.1,2.9,8.3,2.6c2.3-0.3,4.2-1.1,5.4-2.6c0.1-0.6,0.2-1.2,0.2-1.8c-2.2,2.6-6.1,3.3-9.5,2.6c-1.4-0.5-2.8-1.4-4-1.8
					c-0.7-0.2-1.3-0.4-2-0.6c-0.3-0.1-0.5-0.2-0.8-0.3c0.6-0.4,1.1-0.9,1.5-1.6c1.7-2.5,2.9-8.2,6-10.4c-0.2,0.1-0.5,0.1-0.7,0.2
					c-3.1,0.8-4.7,5.7-6.6,8c-0.4,0.5-0.8,0.9-1.3,1.3c-1.1,1.1-2.5,2-4.3,2.2c-0.3,0-0.6,0-0.8,0.1c-0.1,0-0.2,0-0.3,0
					c-3.6,0-6.8-0.6-10.2-1.7c-1.5-0.5-4.6-1.5-8-2.2c4.1-2.9,5.1-5.8,7.5-10.6c0-0.1,0.1-0.2,0.1-0.2c2.2,1,4.9,0.8,7.4,0
					c0.8-0.5,1.4-1.1,2-1.8c-2.7,1.1-5.7,1-8.8,0.7c3.9-7,10.1-10.8,18.4-10.8c-0.4-0.2-0.8-0.4-1.2-0.6c-0.3-0.1-0.7-0.2-1-0.3
					c-2.9,0-5.8,0.6-8.4,1.7c0.3-0.9,0.4-1.9,0.7-2.8c0.3-0.7,0.7-1.3,1.1-1.9c-0.8,0.7-1.7,1.4-2.5,2.1c-0.4,1-0.5,2.1-0.5,3.2
					c-2.4,1.3-4.5,3-6.1,5.2c-0.6,0.9-1.1,1.8-1.6,2.7c-2.1,3.2-3.7,6.8-6.7,9.5c-3.1,2.8-6.5,3.2-10.2,3.3
					c-0.1-0.1-0.2-0.2-0.3-0.3c-0.4-1-1.1-1.9-2.2-2.4c-2.7-2.9-5.3-5.8-7.9-8.8c-3.8-4.4-12.4-15-1.7-16.5c3.1-0.4,6.2-0.2,8.8-0.4
					c-0.3-0.7-0.7-1.5-1-2.2c0,0,0,0,0,0c-0.1,0-0.1,0-0.2,0.1c-3.4,0.1-7-0.3-10.1,0.6c-3.3,0.9-5.6,2.4-5.8,5.9
					c-0.2,4.1,3.5,7.9,6,10.8c3,3.5,6.7,6.5,9.1,10.5c-1.7,1.1-1.5,2.7-1.1,4.5c0.7,2.6,0,6.2-0.8,8.7c-2.9,8.4-8.6,17.2-17.7,20.2
					c-2.5,0.8-5.1,1.5-7.5,2.6c-2.6,1.2-4.9,2.7-6.9,4.4c-0.8,0.9-1.4,1.9-2,3c-0.1,0.2-0.3,0.7-0.5,1.3c3.9-3.7,8.4-6.6,13.5-8.4
					c2.1-0.8,3.9-1.6,5.6-2.5c-0.9,1-1.8,2-2.6,3c-1.2,1.7-2.3,3.6-3.1,5.6c-0.7,2.7-1.3,5.7-0.7,8.4c0.5-5.9,3.5-12,7.7-16.5
					c1.9-1.3,3.4-2.9,5.3-4.2c0.9-0.6,1.7-1.2,2.6-1.7c0.5-0.3,0.9-0.3,1.2-0.2c-0.1,4.8,0.8,9.6,2.7,14.2c-0.2,1.4-0.2,2.7-0.8,4
					c-0.5,1.2-1.2,2.2-1.8,3.3c-2.2,2.3-4.3,4.6-5.6,7.7c-1.2,2.9-1.8,5.7-1.9,8.7c0.3,1.4,0.6,2.7,1,4.1
					c-0.1-5.2,1.3-10.3,4.2-14.7c2-3.1,5.3-5.6,6.8-9c1.6,2.8,3.7,5.6,5.6,8.3c0.7,0.9,1.4,1.8,1.9,2.8c1.1,1.7,2.1,3.4,2.8,5.2
					c0,0,0,0.1,0.1,0.1c0.6,1,1.3,1.9,2,2.8c-0.9-3.4-2.4-6.8-4.5-9.9c8.9-1,16.6,2.6,23.5,7.5c0.2,0.7,0.6,1.3,0.8,2.1
					c0.2,0.9,0.3,1.7,0.5,2.6c0,0.3,0.1,0.5,0.1,0.8c0.5,0.7,0.9,1.4,1.4,2.1c-0.3-1.9-0.1-4.2-0.7-6c2.9,2.2,5.7,4.6,8.3,6.9
					c-0.1-0.4-0.2-0.8-0.4-1.1c-7.2-7.2-18.8-18.2-30-16.7c-0.3,0-0.6-0.1-0.9-0.1c-2.2,0-3.6-0.4-5-1.5c-5.2-7.8-9.7-17-8-26.5
					c0.7-4.1,2.4-8,3.7-12c0.5-1.5,0.8-4.2,2.2-5.3c2.1-1.7,4,1.5,4.9,2.9c2.5,4.2,6.7,7.3,11.4,9c4.2,1.5,7.9,3.2,5.8,8.3
					c-2.4,5.9-11.7,8.5-7.9,16c0.2-2.8,0.2-4.7,2.2-7c1.6-2,3.7-3.7,5.6-5.4c0.3,2.7,0.5,10.8,4.5,11.4c-2-2.5-2.7-4.6-2.8-7.8
					c-0.2-4.1,1.1-7.9,1.2-12c2.7,0.9,5.5,1.9,8,3.3c4.5,2.4,8.6,6.2,9.8,11.2c1.3,5.2-1.1,10-3.6,14.4c3.9-2.5,5.4-7,5.8-11.2
					c2.9,3.3,6.3,6.6,8.8,10.2c2.6,3.8,2.8,8.2,1.7,12.6c5.8-6.4-0.5-14.1-4.9-18.9C368.4,272.9,373.3,274,376.9,277.6z"/>
				<path class="st7" d="M298.7,165.6c0.3,0.2,2.4,1.4,3.6,1.4c0.6,2,1.9,3.9,3.5,5.5c0.4,0.4,1.5,1.1,2.8,2.1
					c5.7,4.5,12.6,8.6,9,16.4c-1.1,1.3-2.5,2-4.2,2.4c0.5,1,1,1.9,1.3,2.4c0.8-0.1,1.5-0.3,2.2-0.6c1.6-0.3,3.2-1.5,3.9-2.6
					c0.3-0.5,0.6-1,0.8-1.5c3.5,1.5,7.4,1.5,10.8,0.3c1.1-0.1,2.2-0.3,3.3-0.3c1.4,0.7,3.4,0.7,5,0.6c1.2,0.1,2.4,0.1,3.7-0.1
					c0.6-0.1,1.1-0.3,1.7-0.5c1.1-0.9,2-2,2.6-3.2c-3.1,3.3-8.5,1.9-12.5,1.6c0,0-0.1,0-0.1,0c0.9-0.7,1.8-1.5,2.6-2.5
					c1-1.4,1.4-3,1.9-4.6c-1.3,2.3-2.8,4.6-5,6.3c-1.7,1.3-3.7,1.4-5.8,1.2c-2.5,0.2-5-0.2-7.4-1c0.3-2.3-0.2-4.7-0.6-7.1
					c-0.4-1.8-0.5-3.8-0.5-5.7c3,0.1,6,1,8.9-0.6c1.8-1,3.2-2.4,4.4-3.9c0.1-0.3,0.1-0.6,0.2-1c-0.7,1.3-2.2,2.3-3.9,2.9
					c-0.7,0.5-1.5,0.9-2.3,1.1c-2.4,0.7-4.9-0.1-7.2,0.2c0.5-6.5,3.4-12.9,9.9-15.1c0.1-0.1,0.3-0.3,0.4-0.4c-0.5,0-1-0.1-1.6,0
					c-2.9,1-5.2,2.8-6.9,5.1c-0.5-2.3-1-4.7-0.5-7c-1,1.9-1,4.4-0.7,6.4c0,0,0,0.1,0,0.1c0.1,0.4,0.3,0.7,0.4,1.1
					c0,0.1,0.1,0.2,0.2,0.3c-1.2,1.8-2,3.8-2.5,6c-0.7,3.2-1,6.4-0.5,9.6c-1.2-1.1-2.6-2.1-3.1-2.4c-1.2-0.7-2.5-1.4-3.8-2.2
					c-0.8-0.6-1.5-1.1-2.3-1.7c-0.7-0.5-1.4-1.1-2-1.6c5-4.8,3.5-12.9-0.5-17.9c-0.5-0.4-0.9-0.7-1.4-1c4.1,4.8,5.4,12.9,0.9,17.9
					c-1.4-1.4-2.4-3-3-4.7c-1.1-2-1.7-4.2-1.7-6.5c-0.2,0.7-0.3,1.3-0.4,2c-0.4,1-0.5,2-0.4,2.9c-0.3,0-0.6,0.1-1,0
					c-0.8-0.3-1.5-0.7-2.2-1.2c-0.5-0.4-1.4-1-2.2-1.6c0.4,0.9,1.1,1.8,1.8,2.6C298.5,165.5,298.6,165.6,298.7,165.6z"/>
				<path class="st4" d="M376.1,277.6c-1.9-3.3-4.2-4.7-7.8-6c-2.8-1-6.5-1.5-8.4-3.9c-2-2.5-3-5.2-4.4-7.9
					c-2.9-5.5-8.5-8.4-14.1-10.8c6.9,1.2,13.6,0.9,20.5,1.5c3.8,0.4,4.7,1.8,5.1,5.2c0.3,3,1.7,4.9,3.9,7c-2.1-3.1-2.3-6.4-2.5-10
					c2,0.9,3.6,2.6,5.3,3.9c-2.7-4.1-5.6-6.9-10.7-7.7c-3.8-0.6-7.6-0.9-11.4-1.2c-7-0.5-14.4-0.8-21.1-3.1
					c-5.2-1.8-14.5-6.6-13.4-13.2c8.9-4.2,19.2,4.7,28.5,3.7c1.3-0.1,2.6-0.4,3.7-0.8c0.1,0,0.1,0,0.2,0c1.4,0.2,2.8,0.5,4.1,0.9
					c2.6,1.4,5.1,2.9,8.3,2.6c2.3-0.3,4.2-1.1,5.4-2.6c0.1-0.6,0.2-1.2,0.2-1.8c-2.2,2.6-6.1,3.3-9.5,2.6c-1.4-0.5-2.8-1.4-4-1.8
					c-0.7-0.2-1.3-0.4-2-0.6c-0.3-0.1-0.5-0.2-0.8-0.3c0.6-0.4,1.1-0.9,1.5-1.6c1.7-2.5,2.9-8.2,6-10.4c-0.2,0.1-0.5,0.1-0.7,0.2
					c-3.1,0.8-4.7,5.7-6.6,8c-0.4,0.5-0.8,0.9-1.3,1.3c-1.1,1.1-2.5,2-4.3,2.2c-0.3,0-0.6,0-0.8,0.1c-0.1,0-0.2,0-0.3,0
					c-3.6,0-6.8-0.6-10.2-1.7c-1.5-0.5-4.6-1.5-8-2.2c4.1-2.9,5.1-5.8,7.5-10.6c0-0.1,0.1-0.2,0.1-0.2c2.2,1,4.9,0.8,7.4,0
					c0.8-0.5,1.4-1.1,2-1.8c-2.7,1.1-5.7,1-8.8,0.7c3.9-7,10.1-10.8,18.4-10.8c-0.4-0.2-0.8-0.4-1.2-0.6c-0.3-0.1-0.7-0.2-1-0.3
					c-2.9,0-5.8,0.6-8.4,1.7c0.3-0.9,0.4-1.9,0.7-2.8c0.3-0.7,0.7-1.3,1.1-1.9c-0.8,0.7-1.7,1.4-2.5,2.1c-0.3,1-0.5,2.1-0.5,3.2
					c-2.4,1.3-4.5,3-6.1,5.2c-0.6,0.9-1.1,1.8-1.6,2.7c-2.1,3.2-3.7,6.8-6.7,9.5c-3.1,2.8-6.5,3.2-10.2,3.3
					c-0.1-0.1-0.2-0.2-0.3-0.3c-0.4-1-1.1-1.9-2.2-2.4c-2.7-2.9-5.3-5.8-7.9-8.8c-3.8-4.4-12.4-15-1.7-16.5c3.1-0.4,6.2-0.2,8.8-0.4
					c-0.3-0.7-0.7-1.5-1-2.2c0,0,0,0,0,0c-0.1,0-0.1,0-0.2,0.1c-3.4,0.1-7-0.3-10.1,0.6c-3.3,0.9-5.6,2.4-5.8,5.9
					c-0.2,4.1,3.5,7.9,6,10.8c3,3.5,6.7,6.5,9.1,10.5c-1.7,1.1-1.5,2.7-1.1,4.5c0.7,2.6,0,6.2-0.8,8.7c-2.9,8.4-8.6,17.2-17.7,20.2
					c-2.5,0.8-5.1,1.5-7.5,2.6c-2.6,1.2-4.9,2.7-6.9,4.4c-0.8,0.9-1.4,1.9-2,3c-0.1,0.2-0.3,0.7-0.5,1.3c3.9-3.7,8.4-6.6,13.5-8.4
					c2.1-0.8,3.9-1.6,5.6-2.5c-0.9,1-1.8,2-2.6,3c-1.2,1.7-2.3,3.6-3.1,5.6c-0.7,2.7-1.3,5.7-0.7,8.4c0.5-5.9,3.5-12,7.7-16.5
					c1.9-1.3,3.4-2.9,5.3-4.2c0.9-0.6,1.7-1.2,2.6-1.7c0.5-0.3,0.9-0.3,1.2-0.2c-0.1,4.8,0.8,9.6,2.7,14.2c-0.2,1.4-0.2,2.7-0.8,4
					c-0.5,1.2-1.2,2.2-1.8,3.3c-2.2,2.3-4.3,4.6-5.6,7.7c-1.2,2.9-1.8,5.7-1.9,8.7c0.2,1.4,0.6,2.7,1,4.1
					c-0.1-5.2,1.3-10.3,4.2-14.7c2-3.1,5.3-5.6,6.8-9c1.6,2.8,3.7,5.6,5.6,8.3c0.7,0.9,1.4,1.8,1.9,2.8c1.1,1.7,2.1,3.4,2.8,5.2
					c0,0,0,0.1,0.1,0.1c0.6,1,1.3,1.9,2,2.8c-0.9-3.4-2.4-6.8-4.5-9.9c8.9-1,16.6,2.6,23.5,7.5c0.2,0.7,0.6,1.3,0.8,2.1
					c0.2,0.9,0.3,1.7,0.5,2.6c0,0.3,0.1,0.5,0.2,0.8c0.4,0.7,0.9,1.4,1.4,2.1c-0.3-1.9-0.1-4.2-0.7-6c2.9,2.2,5.7,4.6,8.3,6.9
					c-0.1-0.4-0.2-0.8-0.4-1.1c-7.2-7.2-18.8-18.2-30-16.7c-0.3,0-0.6-0.1-0.9-0.1c-2.2,0-3.6-0.4-5-1.5c-5.2-7.8-9.7-17-8-26.5
					c0.7-4.1,2.4-8,3.7-12c0.5-1.5,0.8-4.2,2.1-5.3c2.1-1.7,4,1.5,4.9,2.9c2.5,4.2,6.7,7.3,11.4,9c4.2,1.5,7.9,3.2,5.8,8.3
					c-2.4,5.9-11.7,8.5-7.9,16c0.2-2.8,0.2-4.7,2.2-7c1.6-2,3.7-3.7,5.6-5.4c0.3,2.7,0.5,10.8,4.5,11.4c-2-2.5-2.7-4.6-2.8-7.8
					c-0.2-4.1,1.1-7.9,1.2-12c2.7,0.9,5.5,1.9,8,3.3c4.5,2.4,8.6,6.2,9.8,11.2c1.3,5.2-1.1,10-3.6,14.4c3.9-2.5,5.4-7,5.8-11.2
					c2.9,3.3,6.3,6.6,8.8,10.2c2.6,3.8,2.8,8.2,1.7,12.6c5.8-6.4-0.5-14.1-4.9-18.9C367.6,272.9,372.5,274,376.1,277.6z"/>
				<path class="st4" d="M297.9,165.6c0.3,0.2,2.4,1.4,3.6,1.4c0.6,2,1.9,3.9,3.5,5.5c0.4,0.4,1.5,1.1,2.8,2.1
					c5.7,4.5,12.6,8.6,9,16.4c-1.1,1.3-2.5,2-4.2,2.4c0.5,1,1,1.9,1.3,2.4c0.8-0.1,1.5-0.3,2.2-0.6c1.6-0.3,3.1-1.5,3.9-2.6
					c0.3-0.5,0.6-1,0.8-1.5c3.5,1.5,7.4,1.5,10.8,0.3c1.1-0.1,2.2-0.3,3.3-0.3c1.4,0.7,3.4,0.7,5,0.6c1.2,0.1,2.4,0.1,3.7-0.1
					c0.6-0.1,1.1-0.3,1.7-0.5c1.1-0.9,2-2,2.6-3.2c-3.1,3.3-8.5,1.9-12.5,1.6c0,0-0.1,0-0.1,0c0.9-0.7,1.7-1.5,2.6-2.5
					c1-1.4,1.4-3,1.9-4.6c-1.3,2.3-2.8,4.6-5,6.3c-1.7,1.3-3.7,1.4-5.8,1.2c-2.5,0.2-5-0.2-7.4-1c0.3-2.3-0.2-4.7-0.6-7.1
					c-0.4-1.8-0.5-3.8-0.5-5.7c3,0.1,6,1,8.9-0.6c1.8-1,3.2-2.4,4.4-3.9c0.1-0.3,0.1-0.6,0.2-1c-0.7,1.3-2.2,2.3-3.9,2.9
					c-0.7,0.5-1.5,0.9-2.3,1.1c-2.4,0.7-4.9-0.1-7.2,0.2c0.5-6.5,3.4-12.9,9.9-15.1c0.1-0.1,0.3-0.3,0.4-0.4c-0.5,0-1-0.1-1.6,0
					c-2.9,1-5.2,2.8-6.9,5.1c-0.5-2.3-1-4.7-0.5-7c-1,1.9-1,4.4-0.7,6.4c0,0,0,0.1,0,0.1c0.1,0.4,0.3,0.7,0.4,1.1
					c0,0.1,0.1,0.2,0.2,0.3c-1.2,1.8-2,3.8-2.5,6c-0.7,3.2-1,6.4-0.5,9.6c-1.2-1.1-2.6-2.1-3.1-2.4c-1.2-0.7-2.5-1.4-3.8-2.2
					c-0.8-0.6-1.5-1.1-2.3-1.7c-0.7-0.5-1.4-1.1-2-1.6c5-4.8,3.5-12.9-0.5-17.9c-0.5-0.4-0.9-0.7-1.4-1c4.1,4.8,5.4,12.9,0.9,17.9
					c-1.4-1.4-2.4-3-3-4.7c-1.2-2-1.7-4.2-1.7-6.5c-0.2,0.7-0.3,1.3-0.4,2c-0.4,1-0.5,2-0.4,2.9c-0.3,0-0.6,0.1-1,0
					c-0.8-0.3-1.5-0.7-2.2-1.2c-0.5-0.4-1.4-1-2.2-1.6c0.4,0.9,1.1,1.8,1.8,2.6C297.7,165.5,297.8,165.6,297.9,165.6z"/>
			</g>
			<path class="st5" d="M395.8,298.2c-1.8-28-6-34.7-6-34.7c0-0.1,0-0.1,0-0.2c-1.8-16.8-4.1-17-5.1-18.2c-0.3-0.3-0.4-0.7-0.4-1.5
				c0,0,0-0.1,0-0.1c0-4-2.8-24-23.1-60.5c-20.3-36.5-48.1-48.9-48.1-48.9c-12-5.3-30-7.1-37,11.1c-6.9,18.2-2.8,53.4-6,63.1
				c-2.2,6.8-3.2,15.3-4.7,25.1c-0.7,4.3-1.5,8.9-2.7,13.6c0,0,0,0,0,0c-1.9,7.9-3.8,25.2-4,43.8c-0.1,9.1,0.3,18.5,1.3,27.2
				c1,8.8,2.8,16.8,5.4,23.2c10.6,25.8,36,24,67.9,27.6c10.5,1.2,19.5,0.5,27.2-1.2c-15.8,1.8-47.2-2-63.6-6.4
				c-18.4-4.9-25.9-9.9-30.5-24.1c-4.6-14.2-4.6-27.5-4.6-27.5c0.3-7.4,10.7-17.7,55.8-4.4c6,1.8,11.4,3.6,16.3,5.4
				c1.3,0.5,2.6,1,3.9,1.5c29.4,11.7,40,24.4,44.4,33.4c2.8,5.8,1.4,10.2-0.6,13.2c3.6-2.5,6.2-4.9,7.6-6.8
				C394.4,345.4,397.7,326.2,395.8,298.2z M311.8,299.4c-7.7-3-31.7-4.8-38.2-4.4c-6.5,0.4-11.5,1.1-10.7-13.5
				c0.8-14.7,3.2-22.5,3.2-22.5c1.6-8,4.9,16.7,30.7,24.4C318.7,289.9,319.5,302.5,311.8,299.4z M293.8,223.1
				c4-21.7-1.2-54.8-0.8-68.1c0.4-13.3,11.9-11,11.9-11c24.9,6.5,52.6,43.8,61.7,69.3c9.1,25.5-1.6,55.6-23.3,55.6
				C321.5,268.8,289.8,244.8,293.8,223.1z M386,319.4c-3.2,13.3-14.7,6.5-24.6,0.6c-16.9-9.9,2.8-16.3,14.7-30.7
				c6.8-8.2,9.9,0.8,9.9,0.8C387.6,296.2,389.1,306.1,386,319.4z"/>
			<path class="st5" d="M268.8,233.1c2.2,2.7,4.5,7.5,8.4,5.6c2.8-1.5,5.9-5.7,7.4-8.4c3.7-6.4,6.3-14,6.5-21.4
				c0.2-9.3-2.3-18.3-4.4-27.3c-3.6-15.7-7.2-41,7.9-51c-7.6,0.7-14.7,4.7-18.5,14.6c-6.9,18.2-2.8,53.4-6,63.1
				c-1.9,5.7-2.8,12.6-4,20.5C266.9,230.4,267.8,231.8,268.8,233.1z"/>
			<path class="st3" d="M272.5,345.4c0,0,5.8,9.8,24.8,14.3c19,4.4,47,8.1,58.8,6.1c0,0-24.2-0.4-47-5.6
				C286.1,355.1,277.4,350.6,272.5,345.4z"/>
		</g>
		<path class="st3" d="M217.7,141.1c1.8,4.3,2.6,9,2.5,13.7c-0.1,11.3-2.5,22.6-4.8,33.7c-2.4,11.3-4.3,22.9-0.2,34.1
			c2.1,5.8,5.3,11.2,9,16.1c-1.4-3.4-2.8-6.6-3.6-10.3c-1.2-5.5-1.5-11.2-1.6-16.8c-0.1-12,1.8-23.6,4-35.4
			c2.4-12.8,4.4-35.9-10.9-42.6C214.2,135.9,216.5,138.1,217.7,141.1z"/>
		<path class="st3" d="M283.4,141.1c-1.8,4.3-2.6,9-2.5,13.7c0.1,11.3,2.5,22.6,4.8,33.7c2.4,11.3,4.3,22.9,0.2,34.1
			c-2.1,5.8-5.3,11.2-9,16.1c1.4-3.4,2.8-6.6,3.6-10.3c1.2-5.5,1.5-11.2,1.6-16.8c0.1-12-1.8-23.6-4-35.4
			c-2.4-12.8-4.4-35.9,10.9-42.6C286.9,135.9,284.6,138.1,283.4,141.1z"/>
		<path class="st3" d="M267.1,260.8c0,0-4.7,17.9-0.8,31c0,0-1.4-16.9,2.8-26.1L267.1,260.8z"/>
		<path class="st3" d="M379.5,287.6c0,0-10.1,12.7-22,20.9C357.5,308.5,370.2,304.5,379.5,287.6z"/>
		<path class="st3" d="M297.2,186.5c0,0,0.2-7-0.8-18.3c-1-11.2-4.2-23,5.9-23.2c0,0-5.1,0.2-5.3,6.3
			C296.8,157.4,298.7,179.3,297.2,186.5z"/>
		<g>
			<path class="st9" d="M223.5,237.7c0.5,0.7,0.7,1,0.7,1C223.9,238.4,223.7,238.1,223.5,237.7z"/>
			<path class="st3" d="M220.6,228.4c-1.2-5.5-1.5-11.2-1.6-16.8c-0.1-12,1.8-23.6,4-35.4c2.4-12.8,4.4-35.9-10.9-42.6
				c0.1,0.2,0.3,0.3,0.4,0.5c0.1,0,0.1,0.1,0.2,0.1c14.6,8.5,10.4,33.9,8.1,43.9c-2.3,10-4.8,20.7-4.4,36.2
				c0.3,12.6,5.2,20.8,7.1,23.5c0.2,0.3,0.5,0.7,0.7,1C222.8,235.4,221.4,232.1,220.6,228.4z"/>
		</g>
		<g>
			<path class="st3" d="M289.1,133.6c0,0-6.7,4.3-9,12.6c-2.3,8.3-0.2,20.3,1.1,28.4c1.2,8.1,6.3,27.4,5.3,37.2
				c-1,9.1-5.9,21.4-8.5,25.5c3.3-4.5,6.1-9.4,8-14.7c4-11.2,2.1-22.8-0.2-34.1c-2.3-11.1-4.7-22.4-4.8-33.7
				c-0.1-4.7,0.7-9.4,2.5-13.7C284.6,138.1,286.9,135.9,289.1,133.6z"/>
		</g>
	</g>
	<text transform="matrix(1 0 0 1 150.665 421.5203)" class="st4 st10 st11">Pulmones</text>
</g>
</svg>
