<?xml version="1.0" encoding="utf-8"?>
<!-- Generator: Adobe Illustrator 24.2.3, SVG Export Plug-In . SVG Version: 6.00 Build 0)  -->
<svg version="1.1" id="Layer_1" xmlns="http://www.w3.org/2000/svg" xmlns:xlink="http://www.w3.org/1999/xlink" x="0px" y="0px"
	 viewBox="0 0 750 500" style="enable-background:new 0 0 750 500;" xml:space="preserve">
<style type="text/css">
	.st0{fill:#F48F73;}
	.st1{fill:#92B4EA;}
	.st2{fill:#505E93;}
	.st3{fill:#88D0EA;}
	.st4{fill:#ED785D;}
	.st5{fill:#7BA2DB;}
	.st6{fill:#F48462;}
	.st7{fill:#5C69A5;}
	.st8{fill:#F7B369;}
	.st9{fill:#FFFFFF;}
	.st10{fill:#7281B7;}
</style>
<g>
	<g>
		<path d="M466.9,39c0,0,10.5-17.9,23.1-12c10.6,5,7.7,15.2-1.5,22.8c-9.2,7.7-22.5,3.3-22.5,3.3L466.9,39z"/>
	</g>
	<g>
		<polygon class="st0" points="270.9,423.9 270.4,437.7 297.2,436.9 297.7,426.1 		"/>
	</g>
	<g>
		<path class="st1" d="M269.6,299.2c0,0-7.1,59.2-6.7,81.3c0.4,22.1,2.7,47,2.7,47h35.8l4.7-71.9l-21.8-56.4H269.6z"/>
	</g>
	<g>
		<polygon class="st0" points="308,419.5 312.4,432.5 337.2,422.2 333.9,411.9 		"/>
	</g>
	<g>
		<path class="st1" d="M280.7,296.9c0,0-12.4,51.4-10.3,62.1c2.1,10.6,33.3,68.6,33.3,68.6l35.3-13.6c0,0-16.4-53.8-16.4-55.9
			c0-2.1,8.5-56.5,7.3-61.1C328.6,292.3,280.7,296.9,280.7,296.9z"/>
	</g>
	<g>
		<path class="st2" d="M230.9,466.2c1.6,0.6,69.2-0.6,70.7-3.1c0.4-0.8,0.7-3.3,0.7-6.6c0.2-7.6-2.9-18.2-2.9-18.2s0.3-3.9,0.1-5.7
			c-0.2-1.8-30-0.3-30-0.3l-20.4,17.6c0,0-5.8-0.8-12.1,0.5c-3.3,0.7-5.3,4.9-6.2,8.8C230,462.7,230.1,465.9,230.9,466.2z"/>
	</g>
	<g>
		<path class="st3" d="M230.7,466c1.6,0.6,69.2,1.6,70.7-0.9c0.5-0.8,0.8-3.3,1-6.5c-12.8,1.1-44.4,3.2-71.5,0.5
			C230,462.5,230,465.7,230.7,466z"/>
	</g>
	<g>
		<path class="st3" d="M254.5,446.9c-0.3,0-0.6-0.3-0.7-0.6c0-0.4,0.2-0.7,0.6-0.8l10.7-1.2l-3.4-3.9c-0.2-0.3-0.2-0.7,0.1-1
			c0.3-0.2,0.7-0.2,1,0.1l4.3,4.9c0.2,0.2,0.2,0.5,0.1,0.7c-0.1,0.2-0.3,0.4-0.6,0.4L254.5,446.9
			C254.6,446.9,254.6,446.9,254.5,446.9z"/>
	</g>
	<g>
		<path class="st0" d="M363.6,198c0,0-2-1.4-5.2,8.2c-2.3,6.9-3.9,13.6-3.9,13.6l14.1,7.9c0,0,16.7-17.1,7.7-29.9
			C367.2,184.8,363.6,198,363.6,198z"/>
	</g>
	<g>
		<path class="st4" d="M402.7,191.5c0,0-20.9,15-33,10.2c-12.2-4.7,7.4-32.8,20.3-32.8C402.9,168.9,402.7,191.5,402.7,191.5z"/>
	</g>
	<g>
		<g>
			<g>
				<g>
					<path class="st4" d="M384.6,198.9c0,0,11.3,4.6,10.7-2.1c-0.6-6.7-18.5-19.5-23.7-14.8C366.4,186.5,384.6,198.9,384.6,198.9z"
						/>
				</g>
			</g>
		</g>
	</g>
	<g>
		<g>
			<g>
				<g>
					<path class="st4" d="M378.7,207c0,0,11.3,4.6,10.7-2.1c-0.6-6.7-18.5-19.5-23.7-14.8C360.5,194.7,378.7,207,378.7,207z"/>
				</g>
			</g>
		</g>
	</g>
	<g>
		<g>
			<g>
				<g>
					<path class="st4" d="M368.4,210.9c1.9,2,4.2,3.7,6.9,4.4c2.3,0.7,4.8,0.6,5-2.3c0.5-5.9-13.2-19.8-18.4-16.5
						C358,198.9,364.7,206.9,368.4,210.9z"/>
				</g>
			</g>
		</g>
	</g>
	<g>
		<path d="M378.7,207.7c-0.2,0-0.3-0.1-0.4-0.2l-11.6-10.1c-0.3-0.2-0.3-0.7-0.1-1c0.3-0.3,0.7-0.3,1-0.1l11.6,10.1
			c0.3,0.2,0.3,0.7,0.1,1C379,207.6,378.8,207.7,378.7,207.7z"/>
	</g>
	<g>
		<path d="M385.2,200.7c-0.2,0-0.3-0.1-0.4-0.2l-11.6-10.1c-0.3-0.2-0.3-0.7-0.1-1c0.3-0.3,0.7-0.3,1-0.1l11.6,10.1
			c0.3,0.2,0.3,0.7,0.1,1C385.6,200.7,385.4,200.7,385.2,200.7z"/>
	</g>
	<g>
		<path class="st3" d="M424.8,96.7c0,0-24.6,32.1-32.4,44.3c-5.2,8.2-21.7,33.4-21.7,33.4l34.6,18c0,0,27.4-20.8,29.4-51.4
			C436.7,110.3,424.8,96.7,424.8,96.7z"/>
	</g>
	<g>
		<path class="st5" d="M416.4,438.7c13.4-6.6,6.9-37.8,11.1-38c4.2-0.2,14.7,4,23.1-2.2c8.4-6.1,11.3-10.6,14.9-9.8
			c2.5,0.6,12.3,14,17.9,22.9l3.7-1.3l5.1,9.1L473,430.4c-0.9,0.9-8.1-4.6-9.6-2.4C462,430.3,409.6,442,416.4,438.7z"/>
	</g>
	<g>
		<g>
			<path d="M445.3,33.1c0,0,17.2-11.1,27.6,2.7c10.1,13.5,0.2,28.8,0.2,28.8l-23.3-18.2L445.3,33.1z"/>
		</g>
	</g>
	<g>
		<g>
			
				<rect x="447.5" y="398.5" transform="matrix(-0.9997 2.292608e-02 -2.292608e-02 -0.9997 941.2788 828.4433)" class="st6" width="36.7" height="42.2"/>
		</g>
	</g>
	<g>
		<g>
			<path class="st7" d="M487.6,201c0,0,6.7,24,7.1,71.1c0.3,40.7,7.8,130.9,4.8,135.1c-3.1,4.3-65.4,1.8-67.9,0.6
				c-2.4-1.2-3.1-29.4-3.1-29.4s-41.6-69.7-47.1-81.3C376,285.5,412,184.3,412,184.3L487.6,201z"/>
		</g>
	</g>
	<g>
		<g>
			<path class="st3" d="M462.5,85.6c0,0,30.6,6.4,36.5,22.1c6,15.7-10.1,84.2-16.4,87.4c-6.3,3.2-61.3-0.9-66.7-4.1
				c-5.4-3.2-5.8-44.2-5.4-50c0.4-5.8,3.6-25.9,8.8-36.4c5.3-10.5,9.6-11,17.4-14.6C442.9,87.3,462.5,85.6,462.5,85.6z"/>
		</g>
	</g>
	<g>
		<g>
			<path class="st6" d="M466.4,73.1l0.7,16c0,0-2.7,4.7-12,5.9c-7,0.9-9.5-0.6-9.5-0.6l0.6-8.2l0.6-8l16.8-4.5L466.4,73.1z"/>
		</g>
	</g>
	<g>
		<g>
			<path d="M463.6,73.8c0,0.4-0.2,1-0.4,1.6c-3.2,8.2-13,10.3-17,10.9l0.6-8L463.6,73.8z"/>
		</g>
	</g>
	<g>
		<g>
			<path class="st6" d="M441.5,41.9c0,0-7.5,20.5-3.7,31.5c3.8,11,13.9,8.6,19.9,6.1s8.6-6.5,8.6-6.5s5.8,1.6,9.3-4
				c3.5-5.5,0.8-11.5-2.6-12.7c-3.3-1.2-7.1,1.4-7.1,1.4l2.7-6C468.7,51.8,454.1,23.1,441.5,41.9z"/>
		</g>
	</g>
	<g>
		<g>
			<path d="M466,57.8c0,0-8.5,2.3-15.1-6.8c-6.6-9.1-6.4-13.1-6.4-13.1l-5.2,10.3c0,0-1.8-6.7,0.6-11.3c2.4-4.5,5.3-3.8,5.3-3.8
				l19.2,3.4l6.1,14.8L466,57.8z"/>
		</g>
	</g>
	<g>
		<path class="st8" d="M427.3,372.5c-0.4,0-0.7-0.3-0.7-0.7L426.2,230l-13.8-13.8c-0.3-0.3-0.3-0.7,0-1c0.3-0.3,0.7-0.3,1,0l14,14
			c0.1,0.1,0.2,0.3,0.2,0.5l0.5,142.1C428,372.2,427.7,372.5,427.3,372.5L427.3,372.5z"/>
	</g>
	<g>
		<path class="st8" d="M479,233c-3.4,0-6.2-1-8.3-3c-4.4-4.3-4-11.5-4-11.8c0-0.4,0.3-0.6,0.7-0.6c0.4,0,0.7,0.3,0.6,0.7
			c0,0.1-0.4,6.9,3.6,10.7c2.2,2.1,5.3,2.9,9.3,2.5c0.4-0.1,0.7,0.2,0.8,0.6c0,0.4-0.2,0.7-0.6,0.8C480.4,233,479.7,233,479,233z"/>
	</g>
	<g>
		<path class="st9" d="M452.9,96.5c-2.3,0-4.8-0.4-7.5-1.4c-0.4-0.1-0.5-0.5-0.4-0.9c0.1-0.4,0.5-0.5,0.9-0.4
			c13.3,4.7,20.4-4.7,20.7-5.1c0.2-0.3,0.7-0.4,1-0.1c0.3,0.2,0.4,0.7,0.1,1C467.6,89.6,462.4,96.5,452.9,96.5z"/>
	</g>
	<g>
		<path class="st6" d="M429.6,171.3c0,0-11.4-7.8-15.9-9.3c-5.6-1.9-21.3-2.4-21.3-2.4s-12.8,0.6-11.3,4.7c1.5,4.1,7.1,4.4,8.2,5.9
			c1.1,1.5-8.3,12.8-6.4,15.5c3.1,4.4,18,10.5,26.5,9.6c8.5-0.9,18.6-7.9,18.6-7.9L429.6,171.3z"/>
	</g>
	<g>
		<path d="M407.7,164.7c-0.1,0-0.2,0-0.3-0.1l-8.8-3.8c-0.3-0.1-0.5-0.5-0.4-0.9c0.1-0.3,0.6-0.5,0.9-0.4l8.8,3.8
			c0.3,0.1,0.5,0.5,0.4,0.9C408.2,164.5,408,164.7,407.7,164.7z"/>
	</g>
	<g>
		<g>
			<path class="st3" d="M495.3,101.7c0,0,33.8,31.4,22.1,77.2c-9.5,37.1-47.7,38.1-67.9,34.8c-20.2-3.3-36.5-11.5-36.5-11.5l10.3-39
				c0,0,31.1,1,50.2-3.7C492.6,155,495.3,101.7,495.3,101.7z"/>
		</g>
	</g>
	<g>
		<path class="st10" d="M301.3,219.9c0,0,11.2-0.7,21.5,13.2c7,9.4,9,68.2,9,68.2l-17-17.7L267.3,300c0,0-1.7-59.7,7-70.9
			C282.9,218,301.3,219.9,301.3,219.9z"/>
	</g>
	<g>
		<path class="st10" d="M330.8,286.6l1.3,17.9c0,0-18.1,3.6-37.8,1.7c-19.7-1.8-27.1-6.2-27.1-6.2l2.3-28.6l48.5-12.8L330.8,286.6z"
			/>
	</g>
	<g>
		<path class="st9" d="M475.1,164.9c-1.9,0-3.6-0.2-4.9-0.7c-0.3-0.1-0.4-0.3-0.5-0.6c0-0.3,0.1-0.5,0.4-0.7
			c3.2-1.6,19.1-9.3,21.8-5.9c0.6,0.8,0.6,1.8,0,2.7C490.1,162.4,481.6,164.9,475.1,164.9z M472.4,163.4c6.1,0.9,16.5-1.8,18.4-4.4
			c0.3-0.5,0.3-0.8,0-1C489.6,156.4,480.7,159.5,472.4,163.4z"/>
	</g>
	<g>
		<path class="st1" d="M398.2,446.1c8.1-6.5,25.4-9.6,31.6-14c6.2-4.4,12.9-14.6,16.8-12.9c3.8,1.8,11.3,10.3,21.5,8.7
			c10.2-1.6,14.9-4.2,17.8-1.8c2,1.7,4.5,18.1,5.4,28.6l3.9,0.6l0.4,10.5l-22.1,0.7c-1.3,0.4-5.1-7.8-7.4-6.5
			c-2.3,1.3-8.9,5.2-12.4,7.1c0,0-53,3.4-63.4,2.4c-0.9-0.1-1.5-0.9-1.4-1.8C389.4,463.4,391.6,451.4,398.2,446.1z"/>
	</g>
	<g>
		<path class="st10" d="M375.9,223.2c0,0-16,41.8-56.9,37.4c-41-4.5-17.7-40.6-17.7-40.6s19.1,2.7,30.9,0
			c11.7-2.7,22.2-13.2,22.2-13.2L375.9,223.2z"/>
	</g>
	<g>
		<g>
			<g>
				<g>
					<path class="st0" d="M302.7,210.4l0.9,11.6c0,0-2.1,3.6-9.6,4.8c-5.6,1-7.7,0-7.7,0l0.3-5.9l0.3-5.8l13.4-4L302.7,210.4z"/>
				</g>
			</g>
		</g>
	</g>
	<g>
		<g>
			<g>
				<g>
					<path d="M300.5,211.1c0,0.4-0.1,0.8-0.3,1.3c-2.3,6.7-10.4,9.1-13.6,9.6l0.5-6.7L300.5,211.1z"/>
				</g>
			</g>
		</g>
	</g>
	<g>
		<g>
			<g>
				<g>
					<path class="st0" d="M281.7,186.1c0,0-5.4,16.8-1.9,25.6c3.5,8.8,11.5,6.5,16.3,4.3s6.7-5.5,6.7-5.5s4.8,1.1,7.4-3.5
						c2.6-4.6,0.2-9.3-2.5-10.2c-2.7-0.9-5.7,1.4-5.7,1.4l2-4.9C304,193.2,291.2,170.5,281.7,186.1z"/>
				</g>
			</g>
		</g>
	</g>
	<g>
		<path d="M284.2,205.1c-0.3,0-0.5-0.2-0.6-0.4c-1.5-3.5,0.9-6.2,1-6.3c0.3-0.3,0.7-0.3,1,0c0.3,0.3,0.3,0.7,0,1
			c-0.1,0.1-1.9,2.2-0.8,4.8c0.1,0.3,0,0.7-0.4,0.9C284.3,205.1,284.3,205.1,284.2,205.1z"/>
	</g>
	<g>
		<path d="M303.4,205.7c-0.1,0-0.3,0-0.4-0.1c-0.3-0.2-0.4-0.7-0.1-1l3.9-5.1c0.2-0.3,0.7-0.4,1-0.1c0.3,0.2,0.4,0.7,0.1,1l-3.9,5.1
			C303.8,205.6,303.6,205.7,303.4,205.7z"/>
	</g>
	<g>
		<path d="M307.9,204c0,0-3.1-0.1-3.1-0.1c-0.4,0-0.7-0.3-0.7-0.7c0-0.4,0.3-0.7,0.7-0.7l3.1,0.1c0.4,0,0.7,0.3,0.7,0.7
			C308.6,203.7,308.3,204,307.9,204z"/>
	</g>
	<g>
		<path d="M291,201c-0.4,0-0.7-0.3-0.7-0.7l0.1-4.2c0-0.4,0.3-0.7,0.7-0.7c0.4,0,0.7,0.3,0.7,0.7l-0.1,4.2
			C291.7,200.7,291.4,201,291,201z"/>
	</g>
	<g>
		<path d="M282.1,201.2c-0.4,0-0.7-0.3-0.7-0.7l0.2-4.1c0-0.4,0.3-0.7,0.7-0.7c0.4,0,0.7,0.3,0.7,0.7l-0.2,4.1
			C282.7,200.9,282.4,201.2,282.1,201.2z"/>
	</g>
	<g>
		<path d="M293.2,193.8c-0.2,0-0.4-0.1-0.6-0.3c-0.8-1.2-2.9-2-3.6-2.1c-0.4-0.1-0.6-0.5-0.5-0.8c0.1-0.4,0.5-0.6,0.8-0.5
			c0.1,0,3.2,0.8,4.5,2.7c0.2,0.3,0.1,0.7-0.2,0.9C293.5,193.7,293.4,193.8,293.2,193.8z"/>
	</g>
	<g>
		<path d="M280.7,193.3c-0.1,0-0.2,0-0.4-0.1c-0.3-0.2-0.4-0.6-0.2-0.9c0.1-0.1,1.4-2.3,3.7-2.3c0.4,0,0.7,0.3,0.7,0.7
			c0,0.4-0.3,0.7-0.7,0.7c-1.5,0-2.5,1.6-2.5,1.6C281.1,193.2,280.9,193.3,280.7,193.3z"/>
	</g>
	<g>
		<path d="M302,198.1c0,0-0.3,3.8-2.6,2.7c-2.3-1.1,2-8.6,2-8.6s-5.6,2.7-9.8-1.7c-4.2-4.4-2.8-7.6-2.8-7.6l-7.7,5.2
			c0,0-2.8-9.4-0.1-11.6c2.7-2.2,7.7-0.8,7.7-0.8s-0.7-4.1,7.5-4c8.2,0.1,8.9,8.6,8.9,8.6s5.3-0.8,7.7,3.8c2.3,4.6-0.6,8.7-0.6,8.7
			s3.9,0.4,2.5,3.9c-1.4,3.5-3.5,5.3-3.5,5.3S309.4,195,302,198.1z"/>
	</g>
	<g>
		<path class="st9" d="M289.3,227.8c-1,0-2-0.1-3.1-0.3c-0.4-0.1-0.6-0.4-0.6-0.8c0.1-0.4,0.4-0.6,0.8-0.6c8.8,1.5,17-4.8,17.1-4.8
			c0.3-0.2,0.7-0.2,1,0.1c0.2,0.3,0.2,0.7-0.1,1C304.1,222.6,297.4,227.8,289.3,227.8z"/>
	</g>
	<g>
		<path class="st9" d="M422.2,161.9c-0.4,0-0.7-0.4-0.7-0.7l0.9-12c-0.8-1.4-5-9.7-3.3-20.7c2.1-14.2,12.3-22.8,12.7-23.2
			c0.3-0.2,0.7-0.2,1,0.1c0.2,0.3,0.2,0.7-0.1,1c-0.1,0.1-10.2,8.7-12.2,22.3c-1.7,11.4,3.2,19.9,3.3,20c0.1,0.1,0.1,0.3,0.1,0.4
			l-0.9,12.3C422.8,161.7,422.5,161.9,422.2,161.9z"/>
	</g>
	<g>
		<path class="st7" d="M322.1,320.1c-0.1,0-8.8-0.1-8.8-9.8c0-0.4,0.3-0.7,0.7-0.7c0.4,0,0.7,0.3,0.7,0.7c0,8.3,7.1,8.5,7.4,8.5
			c0.4,0,0.7,0.3,0.7,0.7C322.8,319.7,322.4,320.1,322.1,320.1z"/>
	</g>
	<g>
		<path class="st7" d="M286.5,474.2c1.7,0,64.6-24.9,65-27.8c0.1-0.9-0.6-3.4-1.6-6.4c-2.5-7.2-9.1-16-9.1-16s-1.1-3.7-1.9-5.3
			c-0.8-1.6-28.2,10.3-28.2,10.3l-12.9,23.6c0,0-5.7,1.3-11.2,4.8c-2.9,1.8-3.2,6.4-2.7,10.4C284.5,471.3,285.7,474.2,286.5,474.2z"
			/>
	</g>
	<g>
		<path class="st3" d="M286.3,474.1c1.7,0,65.3-22.9,65.9-25.8c0.2-0.9-0.4-3.4-1.4-6.5c-11.6,5.5-40.4,18.7-66.7,25.7
			C284.4,471.1,285.5,474.1,286.3,474.1z"/>
	</g>
	<g>
		<path class="st3" d="M301.6,447.9c-0.2,0-0.5-0.1-0.6-0.4c-0.2-0.3,0-0.7,0.3-0.9l9.6-4.9l-4.6-2.5c-0.3-0.2-0.5-0.6-0.3-0.9
			c0.2-0.3,0.6-0.5,0.9-0.3l5.7,3.1c0.2,0.1,0.4,0.4,0.4,0.6c0,0.3-0.1,0.5-0.4,0.6l-10.8,5.5C301.9,447.9,301.8,447.9,301.6,447.9z
			"/>
	</g>
	<g>
		<path d="M467.7,67.6c-0.1,0-0.3,0-0.4-0.1c-0.3-0.2-0.3-0.7-0.1-1l5.2-6.5c0.2-0.3,0.7-0.3,1-0.1c0.3,0.2,0.3,0.7,0.1,1l-5.2,6.5
			C468.1,67.5,467.9,67.6,467.7,67.6z"/>
	</g>
	<g>
		<path d="M474,65.5c-0.1,0-3.8-0.3-3.8-0.3c-0.4,0-0.7-0.4-0.6-0.7c0-0.4,0.3-0.7,0.7-0.6l3.7,0.3c0.4,0,0.7,0.4,0.6,0.7
			C474.7,65.2,474.4,65.5,474,65.5z"/>
	</g>
	<g>
		<path d="M449.9,49.1c-0.1,0-0.2,0-0.3-0.1l-3.2-1.7c-0.3-0.2-0.5-0.6-0.3-0.9c0.2-0.3,0.6-0.5,0.9-0.3l3.2,1.7
			c0.3,0.2,0.5,0.6,0.3,0.9C450.4,48.9,450.2,49.1,449.9,49.1z"/>
	</g>
	<g>
		<path d="M439.3,48.9c-0.2,0-0.5-0.1-0.6-0.3c-0.2-0.3-0.1-0.7,0.3-0.9l2.8-1.6c0.3-0.2,0.7-0.1,0.9,0.3c0.2,0.3,0.1,0.7-0.3,0.9
			l-2.8,1.6C439.6,48.9,439.5,48.9,439.3,48.9z"/>
	</g>
	<g>
		<path d="M451.7,59.2c-0.5-0.1-0.7-0.4-0.7-0.8l0.5-3.9l-1.8-2.2c-0.2-0.3-0.2-0.7,0.1-1c0.3-0.2,0.7-0.2,1,0.1l2,2.4
			c0.1,0.1,0.2,0.3,0.1,0.5l-0.5,4.2C452.3,58.9,452,59.2,451.7,59.2z"/>
	</g>
	<g>
		<path d="M439.8,58.3c-0.5-0.1-0.7-0.4-0.7-0.8l0.5-3.9l-1.8-2.2c-0.2-0.3-0.2-0.7,0.1-1c0.3-0.2,0.7-0.2,1,0.1l2,2.4
			c0.1,0.1,0.2,0.3,0.1,0.5l-0.5,4.2C440.5,58.1,440.2,58.3,439.8,58.3z"/>
	</g>
	<g>
		<path d="M443.4,65.5c-0.3,0-0.6-0.2-0.7-0.5c-1.9-6.8,2.3-10.3,2.5-10.4c0.3-0.2,0.7-0.2,1,0.1c0.2,0.3,0.2,0.7-0.1,1
			c-0.2,0.1-3.7,3.1-2,9c0.1,0.4-0.1,0.7-0.5,0.8C443.5,65.5,443.5,65.5,443.4,65.5z"/>
	</g>
	<g>
		<path d="M444.3,70.6c-0.3,0-0.5-0.2-0.6-0.4c-0.2-0.3,0-0.7,0.3-0.9c2.3-1,5.2-0.1,5.3,0c0.4,0.1,0.6,0.5,0.4,0.9
			c-0.1,0.4-0.5,0.6-0.9,0.4c0,0-2.5-0.8-4.3,0C444.5,70.6,444.4,70.6,444.3,70.6z"/>
	</g>
	<g>
		<path class="st9" d="M470.4,164.3h-28.3c-0.4,0-0.7-0.3-0.7-0.7c0-0.4,0.3-0.7,0.7-0.7h28.3c0.4,0,0.7,0.3,0.7,0.7
			C471.1,164,470.8,164.3,470.4,164.3z"/>
	</g>
	<g>
		<path d="M285.5,209.8c-0.1,0-0.1,0-0.2,0c-0.4-0.1-0.5-0.5-0.4-0.9c0.4-1,1.6-2.9,3.7-2.6c0.4,0.1,0.6,0.4,0.6,0.8
			c-0.1,0.4-0.4,0.6-0.8,0.6c-1.5-0.2-2.2,1.6-2.2,1.7C286,209.6,285.8,209.8,285.5,209.8z"/>
	</g>
	<g>
		<path class="st7" d="M299.7,419.7c-0.2,0-0.5-0.1-0.6-0.4c-1-1.8-23.5-45.3-25.8-58c-0.8-4.7,4.5-36.1,5.4-41.7h-9.2
			c-0.4,0-0.7-0.3-0.7-0.7s0.3-0.7,0.7-0.7h10c0.2,0,0.4,0.1,0.5,0.2c0.1,0.2,0.2,0.4,0.1,0.6c-2.2,12.9-6.3,38.2-5.6,42
			c2.3,12.6,25.4,57.2,25.6,57.7c0.2,0.3,0,0.7-0.3,0.9C299.9,419.7,299.8,419.7,299.7,419.7z"/>
	</g>
	<g>
		<path class="st0" d="M262.5,325c0,0-1.1-24.6-2.7-27.4c-1.6-2.8,12-5.8,12-5.8s2.4,1.4,5.3,4.7c6,6.8-0.1,30.3-3.4,31.3
			c-3.4,1.1-3.2-5.3-3.2-5.3s0.9,5.1-1.4,6.3c-2.3,1.2-2.7-5.1-2.7-5.1S264.5,329.5,262.5,325z"/>
	</g>
	<g>
		<path d="M270.6,325.7c-0.5,0-0.7-0.4-0.7-0.8c0-0.1,1.1-10,0.3-14.1c-0.1-0.4,0.2-0.7,0.5-0.8c0.4-0.1,0.7,0.2,0.8,0.5
			c0.8,4.3-0.3,14.1-0.3,14.5C271.3,325.4,271,325.7,270.6,325.7z"/>
	</g>
	<g>
		<path d="M265.7,325.2c-0.5,0-0.7-0.4-0.7-0.8c0-0.1,1.1-10,0.3-14.1c-0.1-0.4,0.2-0.7,0.5-0.8c0.4-0.1,0.7,0.2,0.8,0.5
			c0.8,4.3-0.3,14.1-0.3,14.5C266.3,324.9,266,325.2,265.7,325.2z"/>
	</g>
	<g>
		<path class="st10" d="M274.2,229.2c0,0-11,10.8-14.5,27c-5.1,23.4-2.6,45.1-2.6,45.1l23.6-4.3L274.2,229.2z"/>
	</g>
	<g>
		<path class="st9" d="M274,272.9c-0.3,0-0.6-0.3-0.7-0.6l-2.8-27.3c0-0.4,0.2-0.7,0.6-0.7c0.4-0.1,0.7,0.2,0.7,0.6l2.8,27.3
			C274.7,272.5,274.5,272.9,274,272.9C274.1,272.9,274,272.9,274,272.9z"/>
	</g>
	<g>
		<path class="st7" d="M315.7,359.9c-1.3,0-2.6-0.2-3.5-0.7c-0.8-0.4-1.3-1.1-1.6-1.9c-0.3-1.1,0.1-1.8,0.5-2.1
			c2.1-1.8,9.5,1.3,11.7,2.3c0.3,0.1,0.4,0.4,0.4,0.7c0,0.3-0.2,0.5-0.5,0.6C322.5,358.8,319,359.9,315.7,359.9z M313,356
			c-0.5,0-0.8,0.1-1,0.2c-0.1,0.1-0.1,0.3,0,0.7c0.1,0.5,0.4,0.8,0.9,1.1c1.7,0.9,5.1,0.5,7.6-0.1C317.5,356.8,314.6,356,313,356z"
			/>
	</g>
</g>
</svg>
