<?xml version="1.0" encoding="utf-8"?>
<!-- Generator: Adobe Illustrator 24.2.3, SVG Export Plug-In . SVG Version: 6.00 Build 0)  -->
<svg version="1.1" id="Layer_1" xmlns="http://www.w3.org/2000/svg" xmlns:xlink="http://www.w3.org/1999/xlink" x="0px" y="0px"
	 viewBox="0 0 750 500" style="enable-background:new 0 0 750 500;" xml:space="preserve">
<style type="text/css">
	.st0{fill:#6D101C;}
	.st1{fill:#CF2C38;}
	.st2{fill:#EC2C38;}
</style>
<g>
	<g>
		<g>
			<g>
				<path class="st0" d="M226.3,280.2c-0.3-0.1-0.8,0.4-0.5,0.6c5.6,4.2,10.9,8,15.4,13.5c5,6.1,8.2,13.7,9.9,21.4
					c0.2,0.7,1.3-0.2,1.2-0.7C251.4,298.8,239.4,287.8,226.3,280.2z"/>
				<path class="st0" d="M264.6,227.1c-2.7-9.8-11.1-20-21.5-21.7c-0.5-0.1-1.3,0.9-0.6,1.2c10.4,3.6,15.3,12.7,20.6,21.6
					C263.6,228.9,264.8,227.8,264.6,227.1z"/>
				<g>
					<g>
						<path class="st1" d="M276.8,136.2c-7.4-6.6-17.2-11.1-29.3-12.6c-11.8-1.5-24.9,0.3-36.3,3.6c-48.6,14.1-79.9,67.9-84,117.3
							c-2.4,28.7-2.2,60.4,10.2,86.8c10.1,21.4,32.1,41.4,57.3,45.1c15.3,2.2,31.8-2.3,42.9-13.2c5.4-5.4,9.5-15,11.9-22.3
							c1.4-4.2,2.5-8.4,3-12.8c0.3-2.5-0.7-10.2,0.6-12.1c0,0,32-45.7,12-89.6c0,0,26.9-3.2,29.4-38.3
							C296.1,166.9,290.2,148.1,276.8,136.2z"/>
						<path class="st0" d="M202.4,378.2C202.4,378.2,202.4,378.2,202.4,378.2c-2.6,0-5.3-0.2-7.9-0.6c-27.2-4-48.9-25.9-58.2-45.8
							c-13.3-28.2-12.5-61.5-10.4-87.4c4-47.7,34.4-103.7,84.9-118.3c12.8-3.7,26-5,36.8-3.7c11.9,1.5,22,5.9,30,12.9
							c13.3,11.8,19.8,30.6,18.2,52.8c-2.1,30.7-22.9,37.7-28.9,39.1c19,44.3-12.5,89-12.8,89.5c-0.6,0.8-0.5,4.8-0.4,7.2
							c0.1,1.8,0.1,3.4,0,4.4c-0.6,4.3-1.6,8.7-3.1,13c-3.6,10.7-7.8,18.3-12.3,22.8C229.4,373,216.2,378.2,202.4,378.2z
							 M238.7,124.3c-8.6,0-18,1.4-27.2,4.1c-49.5,14.3-79.3,69.3-83.2,116.2c-2.1,25.6-2.9,58.5,10.1,86.2
							c9.1,19.3,30.1,40.6,56.4,44.4c2.4,0.4,5,0.6,7.5,0.6c13.2,0,25.7-4.9,34.3-13.4c4.2-4.1,8.2-11.7,11.7-21.8
							c1.4-4.2,2.4-8.4,3-12.6c0.1-0.8,0-2.3,0-4c-0.2-4.3-0.2-7.3,0.8-8.7c0.3-0.5,31.4-45.6,11.9-88.4c-0.2-0.3-0.2-0.7,0-1.1
							c0.2-0.3,0.5-0.6,0.9-0.6c1.1-0.1,26-3.5,28.3-37.2c1.5-21.4-4.7-39.5-17.4-50.8c-7.6-6.7-17.2-10.9-28.6-12.3
							C244.6,124.5,241.7,124.3,238.7,124.3z"/>
					</g>
					<path class="st0" d="M238.3,294c9.1,7.2,12.6,18.6,14.3,29.7c0.2,1,1.5,0.2,1.6-0.5c0.7-8-1.7-16-6.3-22.4
						C245.1,298.1,241.9,295.7,238.3,294z"/>
					<path class="st0" d="M258.1,225.5c6.3,1.9,13.2,1.6,18.7-2.5c0.6-0.5,0.8-1.9-0.3-1.4c-6.5,3.3-14.2,3.2-21.2,1.2
						C256.2,223.7,257.2,224.6,258.1,225.5z"/>
					<path class="st1" d="M276.8,136.2c-7.4-6.6-17.2-11.1-29.3-12.6c-9.3-1.2-19.4-0.3-28.8,1.7c5.3-0.4,10.4-0.1,14.9,1.1
						c18.9,5,33.9,24.4,31.4,44.4c-2.8,22.7-27.7,39.4-48.6,35.5c22.1,20.1,28.7,47.3,22.8,77.8c-0.2,1.1-2,2.3-3,1.4
						c-9.1-8.4-19.2-15-30.9-19.3c-2.7-1-5.4-1.8-8.1-2.5c10.2,15.3,16,34,10.8,51.7c-6.4,21.4-27.4,32.5-47.7,20.1
						c-20.3-12.4-30.2-32.7-34.2-55.1c0.8,17.7,3.8,35.2,11.2,50.9c10.1,21.4,32.1,41.4,57.3,45.1c15.3,2.2,31.8-2.3,42.9-13.2
						c5.4-5.4,9.5-15,11.9-22.3c1.4-4.2,2.5-8.4,3-12.8c0.3-2.5-0.7-10.2,0.6-12.1c0,0,32-45.7,12-89.6c0,0,26.9-3.2,29.4-38.3
						C296.1,166.9,290.2,148.1,276.8,136.2z"/>
				</g>
				<path class="st2" d="M232.3,131.3c0,0-62.5,4.9-88.5,73.1c-26,68.2,2.4,116.1,2.4,116.1S116.2,193.9,232.3,131.3z"/>
				<path class="st1" d="M217.3,288.1c0,0,16.3,27.2,2.9,51.6c-13.4,24.4-36.6,20.7-36.6,20.7s35.3,4.1,46.3-26.8
					C240.8,302.7,217.3,288.1,217.3,288.1z"/>
				<path class="st1" d="M230.7,215.8c0,0,26.4,32.1,17.1,62.5C247.8,278.3,264,237.7,230.7,215.8z"/>
				<path class="st1" d="M266.8,137c0,0,26.4,34.1,3.3,58.5c0,0,15.4-6.1,15.8-26C286.3,149.6,266.8,137,266.8,137z"/>
			</g>
		</g>
	</g>
	<g>
		<g>
			<g>
				<g>
					<path class="st0" d="M523.6,280.2c0.3-0.1,0.8,0.4,0.5,0.6c-5.6,4.2-10.9,8-15.4,13.5c-5,6.1-8.1,13.7-9.9,21.4
						c-0.1,0.7-1.3-0.2-1.2-0.7C498.6,298.8,510.6,287.8,523.6,280.2z"/>
					<path class="st0" d="M485.4,227.1c2.7-9.8,11.1-20,21.5-21.7c0.5-0.1,1.3,0.9,0.7,1.2c-10.4,3.6-15.3,12.7-20.7,21.6
						C486.4,228.9,485.2,227.8,485.4,227.1z"/>
					<g>
						<g>
							<path class="st1" d="M473.2,136.2c7.5-6.6,17.2-11.1,29.3-12.6c11.8-1.5,24.9,0.3,36.3,3.6c48.6,14.1,79.9,67.9,84,117.3
								c2.4,28.7,2.2,60.4-10.2,86.8c-10.1,21.4-32.1,41.4-57.3,45.1c-15.3,2.2-31.8-2.3-42.9-13.2c-5.5-5.4-9.5-15-12-22.3
								c-1.4-4.2-2.5-8.4-3.1-12.8c-0.3-2.5,0.7-10.2-0.6-12.1c0,0-32-45.7-12-89.6c0,0-26.9-3.2-29.4-38.3
								C453.9,166.9,459.8,148.1,473.2,136.2z"/>
							<path class="st0" d="M547.6,378.2c-13.9,0-27-5.1-36.1-14.1c-4.5-4.4-8.6-12.1-12.2-22.8c-1.5-4.3-2.5-8.7-3.1-13
								c-0.1-1-0.1-2.6,0-4.4c0.1-2.4,0.2-6.3-0.4-7.2c-1.3-1.9-31.4-46-12.8-89.4c-6-1.4-26.7-8.4-28.9-39.1
								c-1.5-22.2,4.9-41,18.2-52.8c8-7.1,18-11.4,29.9-12.9c10.9-1.4,24,0,36.8,3.7c50.5,14.6,80.9,70.6,84.9,118.3
								c2.2,25.9,2.9,59.2-10.4,87.4c-9.4,19.9-31,41.8-58.2,45.8C552.9,378,550.2,378.2,547.6,378.2z M511.3,124.3
								c-3,0-5.9,0.2-8.6,0.5c-11.4,1.4-21,5.6-28.6,12.3c-12.7,11.3-18.9,29.4-17.4,50.8c2.3,33.7,28,37.2,28.3,37.2
								c0.4,0,0.7,0.3,0.9,0.6c0.2,0.4,0.2,0.8,0,1.1c-19.3,42.7,10.6,86.6,11.9,88.4c1,1.4,1,4.3,0.8,8.7c0,1.6-0.1,3.2,0,4
								c0.6,4.1,1.6,8.4,3,12.6c3.5,10.1,7.5,17.7,11.7,21.8c8.6,8.5,21.1,13.4,34.3,13.4c2.5,0,5-0.2,7.5-0.6
								c26.3-3.8,47.3-25,56.4-44.4c13-27.7,12.3-60.6,10.1-86.2c-3.9-46.9-33.7-101.9-83.2-116.2
								C529.2,125.7,519.8,124.3,511.3,124.3z"/>
						</g>
						<path class="st1" d="M622.8,244.5c-4.1-49.4-35.5-103.2-84-117.3c-11.4-3.3-24.5-5.1-36.3-3.6c-8.6,1.1-16,3.7-22.3,7.5
							c18.6-6.1,39.7-4.9,56.3,5.1c31.3,19,51.4,55.9,57.5,91.4c5.6,32.3-1.1,74.8-32.4,92.8c-14.4,8.2-39.5,7-47.3-10.5
							c-4.1-9.3-1.5-18.5,3.2-26.9c-9,0.5-17.8-2-24.4-9.2c-9.8-10.7-6.7-29.5-1.8-41.5c2.9-7,6.7-14.9,12.3-20.3
							c-12,1.6-24.1,0-33.1-5.5c-8.9-5.5-13.4-13-15.2-21.3c0,0.9,0.1,1.9,0.1,2.9c2.5,35.1,29.4,38.3,29.4,38.3
							c-20,43.9,12,89.6,12,89.6c1.3,1.9,0.3,9.6,0.6,12.1c0.6,4.4,1.6,8.6,3.1,12.8c2.5,7.3,6.5,16.9,12,22.3
							c11,10.9,27.6,15.4,42.9,13.2c25.2-3.7,47.3-23.7,57.3-45.1C625,304.9,625.2,273.2,622.8,244.5z"/>
						<path class="st0" d="M511.7,294c-9.1,7.2-12.5,18.6-14.3,29.7c-0.2,1-1.5,0.2-1.6-0.5c-0.7-8,1.7-16,6.3-22.4
							C504.9,298.1,508.1,295.7,511.7,294z"/>
						<path class="st0" d="M491.8,225.4c-6.3,1.9-13.2,1.6-18.7-2.5c-0.6-0.5-0.8-1.9,0.3-1.4c6.5,3.3,14.2,3.2,21.2,1.2
							C493.8,223.7,492.9,224.6,491.8,225.4z"/>
					</g>
				</g>
			</g>
			<path class="st2" d="M489,133.8c0,0-32.9,16.5-26.8,52.4c0,0,4.9,20.7,32.9,21.3c0,0-17.4-2.6-23.1-28.6
				C465.8,151.4,489,133.8,489,133.8z"/>
			<path class="st2" d="M517.6,204.4c0,0-32.3,20.1-27.4,55.4c0,0,1.2,13.4,14,17C504.2,276.9,482.7,252.7,517.6,204.4z"/>
			<path class="st2" d="M523.9,281.6c0,0-17.5,15.4,0.4,33.3c0,0,0.6-28.4,26.8-43C551.1,271.8,534.6,272,523.9,281.6z"/>
			<path class="st1" d="M515.8,354.9c0,0,12.8,23.1,48.7,13.4c35.9-9.7,67.6-74.3,45.7-145c0,0,16.4,106.6-39,134
				C571.2,357.3,550.5,373.7,515.8,354.9z"/>
		</g>
	</g>
</g>
</svg>
