<?xml version="1.0" encoding="utf-8"?>
<!-- Generator: Adobe Illustrator 24.2.3, SVG Export Plug-In . SVG Version: 6.00 Build 0)  -->
<svg version="1.1" id="Layer_1" xmlns="http://www.w3.org/2000/svg" xmlns:xlink="http://www.w3.org/1999/xlink" x="0px" y="0px"
	 viewBox="0 0 750 500" style="enable-background:new 0 0 750 500;" xml:space="preserve">
<style type="text/css">
	.st0{fill:#FFFFFF;}
	.st1{fill:#EA9553;}
	.st2{fill:#F07F33;}
	.st3{opacity:0.8;fill:#EA9553;}
	.st4{opacity:0.7;fill:#FFFFFF;}
	.st5{fill:#A368D4;}
	.st6{fill:#D9002C;}
	.st7{fill:#7A001D;}
	.st8{fill:#118CD5;}
	.st9{fill:#0B5B9E;}
	.st10{opacity:0.5;}
	.st11{fill:#107FCB;}
	.st12{fill:#0C62B3;}
	.st13{fill:#042455;}
	.st14{fill:#6D101C;}
	.st15{fill:#CF2C38;}
	.st16{fill:#EC2C38;}
	.st17{fill:#CE8453;}
	.st18{fill:#944A24;}
	.st19{opacity:0.6;fill:#CE8453;}
	.st20{opacity:0.8;}
	.st21{opacity:0.6;}
	.st22{fill:#992932;}
</style>
<g>
	<path class="st0" d="M499.6,108.6c-1.8-22.1-16.3-48-40.3-55c-4.6-1.3-9.3-2-13.7-2c-1.6,0-3.2,0.1-4.7,0.3
		c-6.6,0.8-12.2,3.3-16.8,7.4c-7.5,6.6-11.1,16.7-10.3,28.4c0.1,1.1,0.2,2.2,0.4,3.2c-2.7,0.9-5.3,1.3-7.9,1.3c-0.6,0-1.3,0-1.9-0.1
		c-1.9-0.2-3.7-0.4-5.4-0.8c0,0,0-67.6,0-67.7c0-2.8-1.3-12-18.4-12c-12.6,0-16.6,5-17.8,8.8c-14.2,1-15.3,9.2-15.3,11.9l0,64.1
		c-2.8,0.3-5.5,0.4-7.6,0.4h-0.5c-1.8,0-3.6-0.2-5.2-0.4c0.9-2.5,1.6-5.4,1.8-8.8c0.8-11.7-2.8-21.8-10.3-28.4
		c-4.6-4.1-10.2-6.5-16.8-7.4c-1.5-0.2-3-0.3-4.6-0.3c-4.4,0-9.1,0.7-13.6,2c-24,7-38.4,32.9-40.3,55c-1,11.4-1.3,26.2,5,39.3
		c4.4,9.4,14.9,21.1,30.1,23.3c1.4,0.2,2.9,0.3,4.4,0.3c7.9,0,15.4-3,20.7-8.3c2.8-2.8,5.2-6.9,7.1-12.6c0.2-0.5,0.3-1,0.5-1.5
		c0.1-0.1,0.1-0.1,0.2-0.2c11,18.6,11.6,45.1,9.8,65.4c-2.9,33.2-12.8,63.9-17.6,75.4c-2.9,6.8-6.5,14.2-9.8,20.7
		c-10.6,21.4-21.6,43.6-17.9,64.9c3.3,18.5,16.5,28.9,26.6,34.3c0.1,0.5,0.3,1,0.4,1.5c3.4,11.4,14.2,20,34,27
		c0.3,0.1,0.7,0.2,1,0.3c5.4,1.2,12,4.3,13.8,6.9c0,0,4.1,34.1,4.1,34.2c0.4,3.2,2.4,5.9,5.3,7.4c0,0,0.1,0,0.1,0.1
		c2.3,1.1,4.6,1.2,5.5,1.3l0.4,0c0.4,0,0.9,0,1.3,0c1.9,0,3.7-0.3,5.3-0.9c0.2-0.1,0.4-0.1,0.6-0.2c3.1-1.3,5.3-4.3,5.8-7.7
		l4.1-34.1c1.7-2.5,7.7-5.5,13.9-7c0.1,0,0.2-0.1,0.3-0.1c0.2-0.1,0.5-0.1,0.7-0.2c19.7-7,30.5-15.5,33.9-27c0.2-0.5,0.3-1,0.4-1.5
		c10.1-5.4,23.4-15.8,26.6-34.3c3.8-21.3-7.3-43.5-17.9-64.9c-3.2-6.5-6.9-13.9-9.7-20.7c-4.8-11.5-14.7-42.1-17.6-75.4
		c-1.8-20.1-1.2-46.5,9.6-65c0.2,0.3,0.4,0.5,0.7,0.8c0.1,0.2,0.1,0.5,0.2,0.7c1.9,5.7,4.2,9.8,7.1,12.6c5.3,5.2,12.9,8.2,20.8,8.2
		c1.5,0,3-0.1,4.4-0.3c15.1-2.2,25.7-13.9,30.1-23.3C500.8,134.8,500.5,120,499.6,108.6z M342,132.9c1.9-0.6,3.8-1.1,5.5-1.5l0,12
		C345.9,139.9,344,136.4,342,132.9z M356.6,195.4c2.6,0.8,5.7,1.2,9.3,1.2c12.6,0,16.6-5,17.8-8.8c4.4-0.3,7.5-1.3,9.8-2.6
		c-1.2,35.4,8.5,72.5,19.4,107.7c3,9.6,7.4,19.7,11.7,29.5c8.7,20,18.6,42.7,13.1,55.8c-0.9,2.2-2.3,4.2-4.2,6
		c-0.2-0.2-0.3-0.4-0.5-0.6c-18.2-24-51.1-24.3-52.5-24.3h-11.3c-1.4,0-34.3,0.3-52.5,24.3c-0.2,0.2-0.3,0.4-0.5,0.6
		c-1.9-1.8-3.2-3.7-4.2-6c-5.5-13.1,4.4-35.7,13.1-55.8l0.1-0.2c4.3-9.8,8.7-19.8,11.6-29.3C347,261.1,355.8,227.7,356.6,195.4z
		 M399,152.4l0-27.9c2,0.9,3.9,1.9,5.8,3.1c1.6,1,3.2,2,4.7,3C405.1,137.6,401.6,145,399,152.4z"/>
	<g>
		<g>
			<g>
				<g>
					<path class="st1" d="M437.6,112.2c0,0-29,23.2-33.5,60.5c-4.5,37.4,5.8,77.9,18,117.2c12.2,39.3,51.5,91.5,3.9,109.5v5.8
						c0,0,27.2-6.9,31.6-31.6c4.3-24.6-15.9-53.6-27.1-80.2c-11.1-26.6-39.6-127.5,5.3-164.3L437.6,112.2z"/>
					<path class="st2" d="M426,405.8c-0.1,0-0.2,0-0.3-0.1c-0.1-0.1-0.2-0.2-0.2-0.4v-5.8c0-0.2,0.1-0.4,0.3-0.5
						c10.4-3.9,17.1-9.6,20.4-17.4c7-16.7-3.2-40.2-13.2-63c-4.2-9.6-8.5-19.5-11.3-28.5c-12.1-38.7-22.6-79.8-18.1-117.4
						c4.5-37.1,33.4-60.6,33.7-60.9c0.1-0.1,0.4-0.1,0.5,0c0.2,0.1,0.3,0.3,0.3,0.5l-1.8,17.1c0,0.1-0.1,0.2-0.2,0.3
						c-23.9,19.5-26,57.3-23.5,85.5c3,34.4,13.3,66.2,18.3,78.2c2.9,6.9,6.5,14.2,10,21.2c10,20.1,20.3,40.9,17.1,59.2
						c-4.4,24.6-31.6,31.9-31.9,31.9C426.1,405.7,426.1,405.8,426,405.8z M426.5,399.8v4.8c4-1.2,26.7-9,30.6-31
						c3.2-18-7.1-38.7-17-58.6c-3.5-7-7.1-14.3-10-21.3c-5-12.1-15.4-44-18.4-78.5c-2.5-28.4-0.4-66.4,23.7-86.2l1.6-15.7
						c-4.9,4.3-28.4,26.5-32.4,59.5c-4.5,37.5,6,78.4,18,117c2.8,9,7.1,18.9,11.3,28.4c10,22.9,20.4,46.7,13.2,63.8
						C443.8,389.9,437,395.8,426.5,399.8z"/>
				</g>
				<path class="st3" d="M430.5,293.5c-11.1-26.6-39.6-127.5,5.3-164.3l1.8-17.1c0,0-12.3,9.9-22.2,27.2c2.4-1.3,4.8-2.1,6.4-1.1
					c0,0-14.2,20.3-15.5,57.6c-1.3,37.4,20.6,101.1,25.8,112.1c5.2,10.9,32.5,63.8,14.2,76c-0.4,0.3-0.8,0.5-1.1,0.7
					c-3.5,6-9.6,11.1-19.2,14.7v5.8c0,0,27.2-6.9,31.6-31.6C461.9,349.1,441.6,320.1,430.5,293.5z"/>
				<path class="st4" d="M411.9,148.6c0,0-13.5,31.9-5.2,78.3C406.7,226.8,401.3,182.4,411.9,148.6z"/>
				<path class="st4" d="M433.2,316.1c0,0,22.5,47,14.8,64.1c0,0,8.1-11.3-1.6-35.7C436.7,319.9,433.2,316.1,433.2,316.1z"/>
			</g>
			<g>
				<g>
					<path class="st1" d="M312.4,112.2c0,0,29,23.2,33.5,60.5c4.5,37.4-5.8,77.9-18,117.2c-12.2,39.3-51.5,91.5-3.9,109.5v5.8
						c0,0-27.2-6.9-31.6-31.6c-4.3-24.6,15.9-53.6,27.1-80.2c11.1-26.6,39.6-127.5-5.3-164.3L312.4,112.2z"/>
					<path class="st2" d="M324,405.8c0,0-0.1,0-0.1,0c-0.3-0.1-27.6-7.3-31.9-31.9c-3.2-18.3,7.1-39.1,17.1-59.2
						c3.5-7,7.1-14.3,10-21.2c5-12,15.3-43.8,18.3-78.2c2.5-28.2,0.4-66-23.5-85.5c-0.1-0.1-0.2-0.2-0.2-0.3l-1.8-17.1
						c0-0.2,0.1-0.4,0.2-0.5c0.2-0.1,0.4-0.1,0.5,0c0.3,0.2,29.2,23.7,33.7,60.9c4.5,37.7-6,78.7-18.1,117.4
						c-2.8,9-7.1,18.9-11.3,28.5c-9.9,22.8-20.2,46.3-13.2,63c3.3,7.8,9.9,13.4,20.4,17.4c0.2,0.1,0.3,0.3,0.3,0.5v5.8
						c0,0.1-0.1,0.3-0.2,0.4C324.2,405.7,324.1,405.8,324,405.8z M314.6,129c24.1,19.8,26.2,57.8,23.7,86.2
						c-3,34.5-13.3,66.4-18.4,78.5c-2.9,7-6.5,14.2-10,21.3c-9.9,20-20.2,40.6-17,58.6c3.9,22,26.6,29.8,30.6,31v-4.8
						c-10.5-4-17.2-9.9-20.6-17.8c-7.2-17.1,3.2-40.8,13.2-63.8c4.2-9.6,8.5-19.5,11.3-28.4c12-38.6,22.5-79.5,18-117
						c-4-33-27.5-55.1-32.4-59.5L314.6,129z"/>
				</g>
				<path class="st3" d="M312.4,112.2l1.8,17.1c4.5,3.7,8.2,8,11.3,12.8c0.3-0.9,1-1.4,2-1.2c4.8,1,15.1,17.4,15.1,58.3
					c0,40.9-9.7,68.3-19,90.8c-9.3,22.6-30.9,59.6-25.4,84.4c0,0,1,5.5,3.2,9.3c1.4,2.4,0.7,5.3-1.6,6.1
					c9.5,11.7,24.2,15.5,24.2,15.5v-5.8c-47.7-18-8.4-70.2,3.9-109.5c12.2-39.3,22.5-79.9,18-117.2
					C341.4,135.4,312.4,112.2,312.4,112.2z"/>
				<path class="st4" d="M302.6,331.4c0,0-13.8,29.5-8.7,44.4c0,0,2.4,6.5,4.8,9.4C298.7,385.3,286.9,369.6,302.6,331.4z"/>
				<path class="st4" d="M330.3,149.1c0,0,16.4,23.9,7.3,79.7l-7.5,40.1c0,0,10.2-35.3,11.6-65.9
					C343.4,166.2,330.3,149.1,330.3,149.1z"/>
			</g>
			<g>
				<path class="st5" d="M341.4,111.9c2.3-0.5,4.1-0.9,4.1-0.9C344.5,111.2,343.1,111.5,341.4,111.9z"/>
			</g>
			<g>
				<g>
					<path class="st6" d="M415.8,110.9c0,0,17.6-2.3,27.5-11.6l-9.2-3.9c0,0-16.4,12.8-35.7,7c-3.8-1.1-6.8-3-9.1-5.1l0-73.7H372
						l0,71.1c-5.5,8.8-18.9,11.8-32.5,11.8c-17.7-0.1-28.3-9.6-28.3-9.6l0.3,7c0,0,8,9.7,34.1,7.3c-7.1,0.7-29,9.8-41.5,21.1
						l1.3,5.5c0,0,30-22.9,54.7-23.8c0,0,5.1-1,11.9-0.8l0,63h0.1c0.3,1.2,4.1,2.2,8.7,2.2c4.8,0,8.7-1,8.7-2.3c0-0.1,0-0.2-0.1-0.3
						l0-64.4c6.3,1.2,13.2,3.6,20.4,8c27.1,16.4,35.4,32.5,35.4,32.5l6.9-3.3C452.2,148.6,444.1,129,415.8,110.9z"/>
					<path class="st7" d="M380.7,178.8L380.7,178.8c-3.9,0-8.3-0.7-9.1-2.3l0,0c-0.1-0.1-0.2-0.2-0.2-0.3l0-62.6
						c-6.5-0.2-11.3,0.8-11.3,0.8c-12.8,0.5-26.9,6.9-36.5,12.2c-10.4,5.8-17.9,11.5-18,11.5c-0.1,0.1-0.3,0.1-0.5,0.1
						c-0.2-0.1-0.3-0.2-0.3-0.3l-1.3-5.5c0-0.2,0-0.4,0.1-0.5c10.1-9.1,26.4-16.9,36.1-19.9c-0.8,0-1.6,0-2.4,0
						c-19.7,0-26.1-7.5-26.4-7.9c-0.1-0.1-0.1-0.2-0.1-0.3l-0.3-6.9c0-0.2,0.1-0.4,0.3-0.5c0.2-0.1,0.4,0,0.5,0.1
						c0.1,0.1,10.7,9.4,28,9.5h0.5c9.1,0,25.2-1.5,31.5-11.4l0-71c0-0.3,0.2-0.5,0.5-0.5l0,0h17.4c0.1,0,0.2,0.1,0.3,0.1
						c0.1,0.1,0.2,0.2,0.2,0.3l0,73.5c2.4,2.2,5.4,3.8,8.8,4.9c3.3,1,6.7,1.5,10.2,1.5c14.2,0,25-8.3,25.1-8.4
						c0.1-0.1,0.3-0.1,0.5-0.1l9.2,3.9c0.2,0.1,0.3,0.2,0.3,0.4c0,0.2,0,0.3-0.2,0.4c-8.4,7.9-22.3,10.8-26.5,11.5
						c14,9.2,22.9,18.7,27.8,25.1c5.5,7.1,7.5,12,7.6,12.2c0.1,0.2,0,0.5-0.2,0.6l-6.9,3.3c-0.2,0.1-0.5,0-0.6-0.2
						c-0.1-0.2-8.7-16.2-35.2-32.3c-6.3-3.8-13-6.5-19.7-7.9l0,63.7c0,0.1,0.1,0.2,0.1,0.3C389.9,177.8,385.2,178.8,380.7,178.8z
						 M372.4,175.9c0,0,0.1,0.1,0.1,0.1c0.2,0.7,3.2,1.8,8.2,1.8l0,0.5v-0.5c5.3,0,8.2-1.2,8.2-1.9c0-0.1-0.1-0.2-0.1-0.3l0-64.4
						c0-0.1,0.1-0.3,0.2-0.4c0.1-0.1,0.3-0.1,0.4-0.1c7.1,1.4,14,4.1,20.6,8.1c24.5,14.9,33.9,29.7,35.4,32.3l6.1-2.9
						c-1.4-2.9-10.4-20.7-35.9-37c-0.2-0.1-0.3-0.3-0.2-0.5c0-0.2,0.2-0.4,0.4-0.4c0.2,0,16.9-2.3,26.7-11l-8.2-3.5
						c-1.7,1.2-12.1,8.4-25.5,8.4c-3.6,0-7.1-0.5-10.5-1.5c-3.6-1.1-6.7-2.8-9.3-5.2c-0.1-0.1-0.1-0.2-0.1-0.4l0-73.2l-16.4,0
						l0,70.6c0,0.1,0,0.2-0.1,0.2c-6.5,10.4-23.1,12-32.4,12h-0.5c-14.9-0.1-24.9-6.8-27.8-9.1l0.2,5.7c0.9,0.9,7.7,7.4,25.5,7.4
						c2.6,0,5.3-0.1,8.1-0.4c0.3,0,0.5,0.2,0.5,0.4c0,0.3-0.2,0.5-0.4,0.5c-7,0.7-28.6,9.7-41.1,20.8l1.1,4.5
						c2-1.5,8.7-6.3,17.5-11.2c9.7-5.3,24-11.8,36.9-12.3l0,0c0,0,5.1-1.1,11.9-0.8c0.3,0,0.5,0.2,0.5,0.5L372.4,175.9z"/>
				</g>
				<path class="st4" d="M376.7,34.8v135c0,0,1.7-8.4,1.7-14.2C378.4,149.8,376.5,34.8,376.7,34.8z"/>
				<g>
					<path class="st5" d="M345.5,111.1L345.5,111.1C345.5,111.1,345.5,111.1,345.5,111.1C345.5,111.1,345.5,111.1,345.5,111.1z"/>
					<path class="st5" d="M311.4,102.3l0.1,1.5c0,0,8,9.7,34.1,7.3l7.5-2.4C328.5,112.2,315.8,105.4,311.4,102.3z"/>
					<path class="st5" d="M345.5,111.1c-1,0.1-2.2,0.4-3.6,0.7l2.7-0.4L345.5,111.1z"/>
					<path class="st5" d="M334.3,117.5c-14.6,5.9-25.5,13.7-29.8,17l0.8,3.3c0,0,30-22.9,54.7-23.8c0,0,5.1-1,11.9-0.8
						C373.1,106.9,353.3,109.8,334.3,117.5z"/>
				</g>
				<g>
					<path class="st5" d="M410.3,112.2c0.3-1.6,4.4-1.4,5.8-1.3c2.2-0.3,18-2.9,27.3-11.6l-4.8-2c-4.2,2.9-10.2,6.4-17.2,8.8
						c-13.4,4.5-24.3,0.2-28.8-2.1c-4.5-2.3-3.2-6.6-3.2-6.6l0-73.7H372v10.2c0.8-2,2-3.7,3.7-3.5c0,0,5.3-1.9,6.3,4.2v71v62
						c0,0-1,6.4-8.9,6.4c-0.4,0-0.8,0-1.1-0.1v2.2h0.1c0.3,1.2,4.1,2.2,8.7,2.2c4.8,0,8.7-1,8.7-2.3c0-0.1,0-0.2-0.1-0.3l0-64.4
						c6.3,1.2,13.2,3.6,20.4,8c27.1,16.4,35.4,32.5,35.4,32.5l3.3-1.6C431.6,122.6,410,114.1,410.3,112.2z"/>
				</g>
				<path class="st4" d="M319.3,103.5c0,0,24.8,11.7,51.3-4.1c0,0-9.3,8.5-29.1,9.2C341.6,108.6,327.6,108.7,319.3,103.5z"/>
				<path class="st4" d="M308.5,130.2c0,0,19-13.2,39.4-18.6C347.8,111.6,324.2,117.4,308.5,130.2z"/>
				<path class="st4" d="M398.9,104.7c0,0,20.8,3.4,36-8.3C434.9,96.4,421.2,109.7,398.9,104.7z"/>
				<path class="st4" d="M419.7,115.4c0,0,20.5,12.8,29.7,31.6C449.4,147,436.9,126.6,419.7,115.4z"/>
			</g>
			<g>
				<g>
					<path class="st8" d="M442.7,146.2l-1.2-9.2c0,0-18.1-19.9-31-27c0,0,19.8-4.5,26-12.5c6.2-8-0.8-8.6-0.8-8.6
						s-14,14.5-32.1,12.9c-16.2-1.4-25-9.7-29.1-12.6l0-56.8l-17.4,0l0,71.8c-3.5,4.4-10.2,10.4-21.5,11.4
						c-14,1.2-24.9-9.9-24.9-9.9s-5.5,0.5-0.6,6.6c4.8,6.1,17.3,9.6,17.3,9.6c-10,5.5-20.8,18.8-20.8,18.8l1.9,5.3
						c16.6-23.5,41.9-24.6,48.5-26.2l0,65.1h0.1c0.3,1.2,4.1,2.2,8.7,2.2c4.8,0,8.7-1,8.7-2.3c0-0.1,0-0.2-0.1-0.3l0-82.2
						C380.2,104.7,419.9,113.5,442.7,146.2z"/>
					<path class="st9" d="M365.9,187.5L365.9,187.5c-3.9,0-8.3-0.7-9.1-2.3l0,0c-0.1-0.1-0.2-0.2-0.2-0.3l0-64.5
						c-0.8,0.2-1.8,0.3-2.9,0.5c-9.9,1.6-30.4,5-44.7,25.3c-0.1,0.1-0.3,0.2-0.5,0.2c-0.2,0-0.3-0.1-0.4-0.3l-1.9-5.3
						c-0.1-0.2,0-0.3,0.1-0.5c0.1-0.1,10.3-12.6,19.9-18.4c-3.2-1-12.4-4.3-16.5-9.4c-1.8-2.3-2.5-4.2-1.9-5.6
						c0.7-1.6,2.8-1.8,2.9-1.8c0.1,0,0.3,0,0.4,0.1c0.1,0.1,9.8,9.9,22.4,9.9c0.7,0,1.4,0,2.1-0.1c10.9-0.9,17.5-6.5,21.1-11.1
						l0-71.6c0-0.3,0.2-0.5,0.5-0.5l0,0h17.4c0.1,0,0.2,0.1,0.3,0.1c0.1,0.1,0.1,0.2,0.1,0.3l0,56.6c0.5,0.3,1,0.8,1.6,1.2
						c4.5,3.5,13,9.9,27,11.2c0.9,0.1,1.8,0.1,2.7,0.1c16.3,0,28.8-12.7,29-12.9c0.1-0.1,0.2-0.2,0.4-0.1c0.1,0,2.7,0.3,3.6,2.3
						c0.8,1.7,0,4.1-2.4,7.1c-5.4,7-20.7,11.2-25.1,12.4c12.7,7.6,29.9,26.4,30,26.5c0.1,0.1,0.1,0.2,0.1,0.3l1.2,9.2
						c0,0.2-0.1,0.4-0.3,0.5c-0.2,0.1-0.4,0-0.6-0.2c-19.5-28-51.5-38.4-63.6-42.3c-1.6-0.5-2.8-0.9-3.6-1.2l0,81.4
						c0,0.1,0.1,0.2,0.1,0.3C375.1,186.5,370.4,187.5,365.9,187.5z M357.6,184.6c0,0,0.1,0.1,0.1,0.1c0.2,0.7,3.2,1.8,8.2,1.8l0,0.5
						v-0.5c5.3,0,8.2-1.2,8.2-1.9c0-0.1-0.1-0.2-0.1-0.3l0-82.2c0-0.2,0.1-0.3,0.2-0.4c0.1-0.1,0.3-0.1,0.5,0
						c0.8,0.3,2.2,0.8,4.2,1.5c11.9,3.9,43.2,14.1,63,41.1l-0.9-7.1c-1.5-1.6-18.6-20.1-30.7-26.8c-0.2-0.1-0.3-0.3-0.3-0.5
						c0-0.2,0.2-0.4,0.4-0.4c0.2,0,19.7-4.5,25.7-12.3c2.1-2.7,2.9-4.8,2.3-6.1c-0.5-1.2-2-1.6-2.6-1.7c-1.6,1.6-13.8,13-29.5,13
						c-0.9,0-1.9,0-2.8-0.1c-14.3-1.2-22.9-7.8-27.5-11.4c-0.7-0.5-1.3-1-1.8-1.3c-0.1-0.1-0.2-0.2-0.2-0.4l0-56.4l-16.4,0l0,71.3
						c0,0.1,0,0.2-0.1,0.3c-3,3.9-9.9,10.6-21.8,11.6c-0.7,0.1-1.5,0.1-2.2,0.1c-12,0-21.5-8.6-22.9-10c-0.5,0.1-1.5,0.4-1.9,1.2
						c-0.4,1,0.2,2.6,1.8,4.6c4.7,5.9,16.9,9.4,17.1,9.4c0.2,0,0.3,0.2,0.4,0.4c0,0.2-0.1,0.4-0.3,0.5c-9.1,5-19,16.8-20.5,18.5
						l1.5,4.2c14.5-20,34.9-23.3,44.8-25c1.5-0.2,2.6-0.4,3.5-0.6c0.1,0,0.3,0,0.4,0.1c0.1,0.1,0.2,0.2,0.2,0.4L357.6,184.6z"/>
				</g>
				<g>
					<g class="st10">
						<path class="st11" d="M308.2,108.4c0.1,0.9,0.7,2.2,2,3.8c4.8,6.1,17.3,9.6,17.3,9.6l3.1-3.1
							C322.6,117.5,313.8,112.3,308.2,108.4z"/>
						<path class="st11" d="M406.7,110.7c-1.8-1.3,3.7-0.8,3.7-0.8s19.8-4.5,26-12.5c5.4-6.9,0.8-8.3-0.5-8.6
							c-1.9,3.1-4.9,8.1-5.3,8.3c-0.5,0.3-13,7.7-21.4,8.4c-8.4,0.6-29.8-7.4-32.8-9.5c-3.1-2.1-1.9-6.9-1.9-6.9l0-56.8l-17.4,0
							v16.6c0.2-1.4,1.3-9.7,5.3-9.7c4.3,0,5.6,6,5.8,14.7v106.3c0,0,1.2,18.4-11.1,17.4c0,0,0,0,0,0v7.2h0.1
							c0.3,1.2,4.1,2.2,8.7,2.2c4.8,0,8.7-1,8.7-2.3c0-0.1,0-0.2-0.1-0.3l0-82.2c5.7,2.5,45.3,11.3,68.1,44l-0.6-4.5
							C427.3,123.2,408.3,111.9,406.7,110.7z"/>
						<path class="st11" d="M327.7,125.1c-6.4,3.7-14.5,11.7-20.2,17.7l1.1,3.2c16.6-23.5,41.9-24.6,48.5-26.2l0.3-6.1
							C357.5,113.6,340.1,117.8,327.7,125.1z"/>
					</g>
					<path class="st8" d="M359.1,46.7l0.2,128.3c0,0,2.4-3.1,2.4-14.7c0-11.6,0-107,0-107S361.3,49.1,359.1,46.7z"/>
					<path class="st8" d="M323.7,115c0,0,18.1,6.2,33.7-7.6c0,0-7.2,9.4-20.9,9.9C325.4,117.7,323.7,115,323.7,115z"/>
					<path class="st8" d="M387.5,98.8c0,0,17.1,9.4,37.3-0.1c0,0-8.8,5.5-20.3,5.2C395.5,103.6,387.5,98.8,387.5,98.8z"/>
				</g>
				<g>
					<g>
						<path class="st8" d="M374.6,32.3c0,1.3-3.9,2.3-8.7,2.3c-4.8,0-8.7-1-8.7-2.3c0-1.3,3.9-2.3,8.7-2.3
							C370.7,30,374.6,31,374.6,32.3z"/>
						<path class="st9" d="M365.9,35.1L365.9,35.1c-2.4,0-4.6-0.3-6.3-0.7c-1.9-0.5-2.9-1.2-2.9-2.1c0-1.8,4.6-2.8,9.2-2.8
							c4.6,0,9.2,1,9.2,2.8C375.1,34.2,370.4,35.1,365.9,35.1z M365.9,30.5c-5.3,0-8.2,1.2-8.2,1.8c0,0.2,0.6,0.8,2.2,1.2
							c1.6,0.4,3.7,0.7,6,0.7l0,0.5v-0.5c5.3,0,8.2-1.2,8.2-1.8C374.1,31.7,371.2,30.5,365.9,30.5z"/>
					</g>
					<g>
						<path class="st12" d="M374.6,32.3c0,1.3-3.9,2.3-8.7,2.3c-4.8,0-8.7-1-8.7-2.3c0-1.3,3.9-2.3,8.7-2.3
							C370.7,30,374.6,31,374.6,32.3z"/>
						<path class="st13" d="M365.9,35.1L365.9,35.1c-2.4,0-4.6-0.3-6.3-0.7c-1.9-0.5-2.9-1.2-2.9-2.1c0-1.8,4.6-2.8,9.2-2.8
							c4.6,0,9.2,1,9.2,2.8C375.1,34.2,370.4,35.1,365.9,35.1z M365.9,30.5c-5.3,0-8.2,1.2-8.2,1.8c0,0.2,0.6,0.8,2.2,1.2
							c1.6,0.4,3.7,0.7,6,0.7l0,0.5v-0.5c5.3,0,8.2-1.2,8.2-1.8C374.1,31.7,371.2,30.5,365.9,30.5z"/>
					</g>
					<path class="st12" d="M371.1,32.2c0,0.8-2.4,1.4-5.3,1.4c-2.9,0-5.3-0.6-5.3-1.4c0-0.8,2.4-1.4,5.3-1.4
						C368.8,30.8,371.1,31.5,371.1,32.2z"/>
				</g>
			</g>
			<g>
				<g>
					<g>
						<path class="st14" d="M299.4,123.6c-0.1-0.1-0.3,0.2-0.2,0.2c2.2,1.7,4.3,3.2,6.1,5.3c2,2.4,3.2,5.4,3.9,8.5
							c0.1,0.3,0.5-0.1,0.5-0.3C309.3,130.9,304.6,126.6,299.4,123.6z"/>
						<path class="st14" d="M314.6,102.5c-1.1-3.9-4.4-7.9-8.5-8.6c-0.2,0-0.5,0.4-0.3,0.5c4.1,1.4,6.1,5,8.2,8.6
							C314.2,103.2,314.6,102.8,314.6,102.5z"/>
						<g>
							<g>
								<path class="st15" d="M319.4,66.5c-3-2.6-6.8-4.4-11.6-5c-4.7-0.6-9.9,0.1-14.4,1.4c-19.3,5.6-31.7,26.9-33.3,46.5
									c-0.9,11.4-0.9,23.9,4.1,34.4c4,8.5,12.7,16.4,22.7,17.9c6,0.9,12.6-0.9,17-5.2c2.2-2.1,3.8-6,4.7-8.8
									c0.6-1.7,1-3.3,1.2-5.1c0.1-1-0.3-4.1,0.2-4.8c0,0,12.7-18.1,4.8-35.5c0,0,10.7-1.3,11.7-15.2
									C327,78.6,324.7,71.2,319.4,66.5z"/>
								<path class="st14" d="M289.9,162.4C289.9,162.4,289.9,162.4,289.9,162.4c-1,0-2.1-0.1-3.1-0.2
									c-10.8-1.6-19.4-10.3-23.1-18.2c-5.3-11.2-5-24.4-4.1-34.7c1.6-18.9,13.6-41.1,33.7-46.9c5.1-1.5,10.3-2,14.6-1.5
									c4.7,0.6,8.7,2.3,11.9,5.1c5.3,4.7,7.8,12.1,7.2,20.9c-0.9,12.2-9.1,15-11.4,15.5c7.5,17.6-4.9,35.3-5.1,35.5
									c-0.2,0.3-0.2,1.9-0.2,2.8c0,0.7,0,1.3,0,1.7c-0.2,1.7-0.6,3.4-1.2,5.2c-1.4,4.2-3.1,7.3-4.9,9
									C300.6,160.4,295.4,162.4,289.9,162.4z M304.3,61.7c-3.4,0-7.1,0.6-10.8,1.6c-19.6,5.7-31.4,27.5-33,46.1
									c-0.8,10.1-1.1,23.2,4,34.2c3.6,7.7,11.9,16.1,22.4,17.6c1,0.1,2,0.2,3,0.2c5.2,0,10.2-1.9,13.6-5.3
									c1.7-1.6,3.2-4.6,4.6-8.7c0.6-1.7,1-3.3,1.2-5c0-0.3,0-0.9,0-1.6c-0.1-1.7-0.1-2.9,0.3-3.4c0.1-0.2,12.4-18.1,4.7-35.1
									c-0.1-0.1-0.1-0.3,0-0.4c0.1-0.1,0.2-0.2,0.4-0.2c0.4-0.1,10.3-1.4,11.2-14.8c0.6-8.5-1.9-15.7-6.9-20.1
									c-3-2.7-6.8-4.3-11.3-4.9C306.6,61.8,305.5,61.7,304.3,61.7z"/>
							</g>
							<path class="st14" d="M304.1,129c3.6,2.8,5,7.4,5.7,11.8c0.1,0.4,0.6,0.1,0.6-0.2c0.3-3.2-0.7-6.4-2.5-8.9
								C306.8,130.7,305.6,129.7,304.1,129z"/>
							<path class="st14" d="M312,101.9c2.5,0.7,5.3,0.6,7.4-1c0.2-0.2,0.3-0.8-0.1-0.6c-2.6,1.3-5.6,1.3-8.4,0.5
								C311.2,101.2,311.6,101.5,312,101.9z"/>
							<path class="st15" d="M319.4,66.5c-3-2.6-6.8-4.4-11.6-5c-3.7-0.5-7.7-0.1-11.4,0.7c2.1-0.2,4.1,0,5.9,0.4
								c7.5,2,13.4,9.7,12.5,17.6c-1.1,9-11,15.6-19.3,14.1c8.8,8,11.4,18.8,9.1,30.9c-0.1,0.4-0.8,0.9-1.2,0.6
								c-3.6-3.3-7.6-5.9-12.3-7.7c-1.1-0.4-2.1-0.7-3.2-1c4.1,6.1,6.4,13.5,4.3,20.5c-2.5,8.5-10.9,12.9-18.9,8
								c-8.1-4.9-12-13-13.6-21.9c0.3,7,1.5,14,4.5,20.2c4,8.5,12.7,16.4,22.7,17.9c6,0.9,12.6-0.9,17-5.2c2.2-2.1,3.8-6,4.7-8.8
								c0.6-1.7,1-3.3,1.2-5.1c0.1-1-0.3-4.1,0.2-4.8c0,0,12.7-18.1,4.8-35.5c0,0,10.7-1.3,11.7-15.2
								C327,78.6,324.7,71.2,319.4,66.5z"/>
						</g>
						<path class="st16" d="M301.8,64.5c0,0-24.8,1.9-35.1,29c-10.3,27.1,1,46.1,1,46.1S255.7,89.3,301.8,64.5z"/>
						<path class="st15" d="M295.8,126.7c0,0,6.5,10.8,1.1,20.5c-5.3,9.7-14.5,8.2-14.5,8.2s14,1.6,18.4-10.6
							C305.1,132.5,295.8,126.7,295.8,126.7z"/>
						<path class="st15" d="M301.1,98c0,0,10.5,12.7,6.8,24.8C307.9,122.8,314.3,106.7,301.1,98z"/>
						<path class="st15" d="M315.4,66.8c0,0,10.5,13.5,1.3,23.2c0,0,6.1-2.4,6.3-10.3C323.2,71.8,315.4,66.8,315.4,66.8z"/>
					</g>
				</g>
			</g>
			<g>
				<g>
					<g>
						<g>
							<path class="st14" d="M450.6,123.6c0.1-0.1,0.3,0.2,0.2,0.2c-2.2,1.7-4.3,3.2-6.1,5.3c-2,2.4-3.2,5.4-3.9,8.5
								c-0.1,0.3-0.5-0.1-0.5-0.3C440.7,130.9,445.4,126.6,450.6,123.6z"/>
							<path class="st14" d="M435.4,102.5c1.1-3.9,4.4-7.9,8.5-8.6c0.2,0,0.5,0.4,0.3,0.5c-4.1,1.4-6.1,5-8.2,8.6
								C435.8,103.2,435.4,102.8,435.4,102.5z"/>
							<g>
								<g>
									<path class="st15" d="M430.6,66.5c3-2.6,6.8-4.4,11.6-5c4.7-0.6,9.9,0.1,14.4,1.4c19.3,5.6,31.7,26.9,33.3,46.5
										c0.9,11.4,0.9,23.9-4.1,34.4c-4,8.5-12.7,16.4-22.7,17.9c-6,0.9-12.6-0.9-17-5.2c-2.2-2.1-3.8-6-4.7-8.8
										c-0.6-1.7-1-3.3-1.2-5.1c-0.1-1,0.3-4.1-0.2-4.8c0,0-12.7-18.1-4.8-35.5c0,0-10.7-1.3-11.7-15.2
										C422.9,78.6,425.3,71.2,430.6,66.5z"/>
									<path class="st14" d="M460.1,162.4c-5.5,0-10.7-2-14.3-5.6c-1.8-1.8-3.4-4.8-4.9-9c-0.6-1.7-1-3.5-1.2-5.2
										c-0.1-0.4,0-1,0-1.7c0-0.9,0.1-2.5-0.2-2.9c-0.5-0.7-12.5-18.2-5.1-35.5c-2.4-0.6-10.6-3.3-11.4-15.5
										c-0.6-8.8,2-16.2,7.2-20.9c3.2-2.8,7.2-4.5,11.9-5.1c4.3-0.5,9.5,0,14.6,1.5c20,5.8,32.1,28,33.7,46.9
										c0.9,10.3,1.2,23.5-4.1,34.7c-3.7,7.9-12.3,16.6-23.1,18.2C462.2,162.3,461.2,162.4,460.1,162.4z M445.7,61.7
										c-1.2,0-2.3,0.1-3.4,0.2c-4.5,0.6-8.3,2.2-11.4,4.9c-5,4.5-7.5,11.6-6.9,20.1c0.9,13.4,11.1,14.7,11.2,14.8
										c0.1,0,0.3,0.1,0.4,0.2c0.1,0.1,0.1,0.3,0,0.4c-7.7,16.9,4.2,34.3,4.7,35.1c0.4,0.6,0.4,1.7,0.3,3.4c0,0.7,0,1.3,0,1.6
										c0.2,1.6,0.6,3.3,1.2,5c1.4,4,3,7,4.6,8.7c3.4,3.4,8.4,5.3,13.6,5.3c1,0,2-0.1,3-0.2c10.4-1.5,18.8-9.9,22.4-17.6
										c5.2-11,4.9-24,4-34.2c-1.5-18.6-13.4-40.4-33-46.1C452.8,62.3,449.1,61.7,445.7,61.7z"/>
								</g>
								<path class="st15" d="M490,109.4c-1.6-19.6-14.1-40.9-33.3-46.5c-4.5-1.3-9.7-2-14.4-1.4c-3.4,0.4-6.3,1.5-8.8,3
									c7.4-2.4,15.7-2,22.3,2c12.4,7.5,20.4,22.2,22.8,36.2c2.2,12.8-0.4,29.7-12.9,36.8c-5.7,3.3-15.7,2.8-18.8-4.2
									c-1.6-3.7-0.6-7.3,1.3-10.7c-3.6,0.2-7.1-0.8-9.7-3.7c-3.9-4.2-2.7-11.7-0.7-16.5c1.1-2.8,2.6-5.9,4.9-8
									c-4.8,0.6-9.6,0-13.1-2.2c-3.5-2.2-5.3-5.1-6-8.5c0,0.4,0,0.8,0,1.1c1,13.9,11.7,15.2,11.7,15.2
									c-7.9,17.4,4.8,35.5,4.8,35.5c0.5,0.7,0.1,3.8,0.2,4.8c0.2,1.7,0.6,3.4,1.2,5.1c1,2.9,2.6,6.7,4.7,8.8
									c4.4,4.3,11,6.1,17,5.2c10-1.5,18.7-9.4,22.7-17.9C490.8,133.3,490.9,120.8,490,109.4z"/>
								<path class="st14" d="M445.9,129c-3.6,2.8-5,7.4-5.7,11.8c-0.1,0.4-0.6,0.1-0.6-0.2c-0.3-3.2,0.7-6.4,2.5-8.9
									C443.2,130.7,444.4,129.7,445.9,129z"/>
								<path class="st14" d="M438,101.9c-2.5,0.7-5.2,0.6-7.4-1c-0.3-0.2-0.3-0.8,0.1-0.6c2.6,1.3,5.6,1.3,8.4,0.5
									C438.8,101.2,438.4,101.5,438,101.9z"/>
							</g>
						</g>
					</g>
					<path class="st16" d="M436.9,65.5c0,0-13,6.5-10.6,20.8c0,0,1.9,8.2,13,8.5c0,0-6.9-1-9.2-11.4
						C427.7,72.5,436.9,65.5,436.9,65.5z"/>
					<path class="st16" d="M448.2,93.5c0,0-12.8,8-10.9,22c0,0,0.5,5.3,5.6,6.8C442.9,122.3,434.4,112.7,448.2,93.5z"/>
					<path class="st16" d="M450.7,124.1c0,0-6.9,6.1,0.2,13.2c0,0,0.2-11.3,10.6-17.1C461.5,120.2,455,120.3,450.7,124.1z"/>
					<path class="st15" d="M447.5,153.2c0,0,5.1,9.2,19.3,5.3c14.2-3.9,26.8-29.5,18.1-57.5c0,0,6.5,42.3-15.5,53.1
						C469.5,154.1,461.3,160.7,447.5,153.2z"/>
				</g>
			</g>
			<g>
				<g>
					<path class="st17" d="M425.4,389.3c-15.5-20.4-44.8-20.5-44.8-20.5h-11.3c0,0-29.3,0-44.8,20.5c-15.5,20.4,1.4,32.4,22.5,39.8
						c0,0,17.4,3.7,21.1,13.6l4.3,35.6c0.7,0.3,1.8,0.3,2.4,0.4c1,0.1,1.9,0,2.8-0.3l4.3-35.6c3.7-9.9,21.1-13.6,21.1-13.6
						C424,421.7,440.9,409.7,425.4,389.3z"/>
					<path class="st18" d="M375.5,479.2L375.5,479.2c-0.2,0-0.5,0-0.7,0l-0.3,0c-0.7,0-1.6-0.1-2.3-0.4c-0.2-0.1-0.3-0.2-0.3-0.4
						l-4.3-35.5c-3.6-9.5-20.5-13.2-20.7-13.3c-16.5-5.8-25.8-12.7-28.2-21c-1.8-5.9,0.1-12.5,5.5-19.6
						c15.5-20.4,44.9-20.6,45.2-20.6h11.3c0.3,0,29.7,0.3,45.2,20.6c5.4,7.1,7.2,13.7,5.5,19.6c-2.5,8.3-11.7,15.1-28.2,21
						c-0.2,0.1-17.1,3.8-20.8,13.3l-4.3,35.6c0,0.2-0.1,0.3-0.3,0.4C377.1,479.1,376.3,479.2,375.5,479.2z M372.8,478
						c0.5,0.2,1.2,0.2,1.7,0.2l0.3,0c0.2,0,0.4,0,0.6,0l0,0c0.6,0,1.2-0.1,1.7-0.2l4.2-35.3c0,0,0-0.1,0-0.1
						c3.8-10,20.7-13.8,21.4-13.9c15.9-5.6,25.2-12.4,27.5-20.3c1.7-5.6-0.1-11.9-5.3-18.8c-15.2-20-44.1-20.3-44.4-20.3h-11.3
						c-0.3,0-29.2,0.3-44.4,20.3c-5.2,6.8-7,13.2-5.3,18.8c2.4,7.9,11.6,14.7,27.6,20.3c0.6,0.1,17.6,3.9,21.4,13.9c0,0,0,0.1,0,0.1
						L372.8,478z"/>
				</g>
				<path class="st19" d="M425.4,389.3c-4.4-5.8-9.9-9.9-15.5-12.9c4.8,5.8,6.5,13.7,3.2,20.9c-8.2,18.1-29.8,22.3-47.6,21.9
					c-12.7-0.3-33-1.4-39.8-14.3c-2.2-4.2-2.5-10.1-1.1-15.7c0,0-0.1,0.1-0.1,0.1c-15.5,20.4,1.4,32.4,22.5,39.8
					c0,0,17.4,3.7,21.1,13.6l4.3,35.6c0.7,0.3,1.8,0.3,2.4,0.4c1,0.1,1.9,0,2.8-0.3l4.3-35.6c3.7-9.9,21.1-13.6,21.1-13.6
					C424,421.7,440.9,409.7,425.4,389.3z"/>
				<g class="st20">
					<path class="st1" d="M371.9,477.9L371.9,477.9c-0.1-1.1-0.3-3.3-0.5-6.3c-0.4-4.5-0.9-11.1-1.7-18.8c-0.2-1.9-0.5-4-0.8-6.1
						c-0.1-1.1-0.3-2.1-0.4-3.2c-0.1-1.1-0.4-2.2-1-3.2c-1.1-2-3-3.5-4.9-4.8c-2-1.3-4.2-2.3-6.4-3.3c-4.5-1.9-9.3-3.5-14.1-5.4
						c-4.8-1.9-9.6-4-13.8-7.1c-2.1-1.5-3.9-3.4-5.4-5.5c-1.5-2.1-2.5-4.5-3-7c-0.5-2.5-0.6-5.1,0-7.5c0.8-2.3,1.8-4.7,3-6.8
						c0.3-0.5,0.6-1.1,0.9-1.6c0.3-0.5,0.7-1,1-1.5c0.7-0.9,1.4-1.9,2.2-2.8c1.5-1.8,3.2-3.4,4.9-4.8c1.7-1.4,3.5-2.6,5.3-3.7
						c1.8-1,3.6-2,5.4-2.8c3.6-1.6,7-2.7,10-3.5c3.1-0.8,5.8-1.3,8-1.7c4.5-0.7,7.1-0.7,7.1-0.7s-2.6,0-7.1,0.6
						c-2.3,0.3-5,0.8-8.1,1.6c-3.1,0.8-6.5,1.9-10.1,3.5c-1.8,0.8-3.6,1.8-5.4,2.8c-1.8,1.1-3.6,2.3-5.4,3.7c-1.7,1.4-3.5,3-5,4.8
						c-0.8,0.9-1.5,1.9-2.2,2.8c-0.3,0.5-0.7,1-1,1.5c-0.4,0.5-0.7,1-1,1.6c-1.3,2.1-2.2,4.4-3.1,6.8c-0.6,2.5-0.5,5.1,0,7.7
						c0.5,2.5,1.6,5,3.1,7.2c1.5,2.2,3.4,4.1,5.5,5.6c4.2,3.1,9.1,5.2,13.9,7.1c4.8,1.9,9.6,3.5,14.1,5.3c2.2,0.9,4.4,2,6.4,3.2
						c2,1.3,3.8,2.7,4.8,4.7c0.5,1,0.9,2,0.9,3.1c0.1,1.1,0.3,2.2,0.4,3.2c0.3,2.1,0.5,4.1,0.8,6.1c0.4,3.9,0.8,7.5,1.1,10.6
						c0.3,3.2,0.6,5.9,0.8,8.2C371.5,474.6,371.7,476.8,371.9,477.9z"/>
					<path class="st1" d="M371.6,471.9c0.3,3.2,0.5,5.4,0.5,6.3c0,0,0,0,0,0C372.1,477.2,371.9,475.1,371.6,471.9
						c-0.1-2.2-0.3-4.8-0.5-7.8c-0.3-3-0.6-6.4-0.9-10.1c-0.1-1.9-0.4-3.8-0.6-5.8c-0.1-1-0.2-2-0.3-3c-0.1-0.5-0.1-1-0.2-1.6
						l-0.1-0.8l-0.2-0.8c-0.5-2.1-2-4-3.7-5.4c-1.7-1.5-3.8-2.6-5.8-3.7c-4.2-2.1-8.7-3.7-13.2-5.7c-4.5-1.9-9-4.1-12.9-7.1
						c-1.9-1.5-3.6-3.4-5-5.4c-1.4-2-2.3-4.3-2.9-6.7c-0.5-2.4-0.7-4.8-0.4-7.2c0.1-1.2,0.6-2.3,1-3.4c0.4-1.1,0.9-2.2,1.3-3.2
						c2-4.2,4.7-7.9,7.8-10.8c0.7-0.8,1.6-1.4,2.3-2.1c0.8-0.6,1.6-1.3,2.4-1.8c1.6-1.2,3.3-2.1,5-3c3.3-1.7,6.5-3,9.4-3.9
						c2.9-0.9,5.5-1.5,7.6-1.8c4.3-0.7,6.8-0.8,6.8-0.8s-2.5,0-6.8,0.7c-2.2,0.4-4.7,0.9-7.7,1.7c-2.9,0.9-6.1,2.1-9.5,3.8
						c-1.6,0.9-3.3,1.9-5,3c-0.8,0.5-1.6,1.2-2.5,1.8c-0.8,0.7-1.6,1.4-2.4,2.1c-1.6,1.5-3,3.2-4.4,5c-1.3,1.8-2.5,3.8-3.5,5.9
						c-0.5,1.1-1,2.1-1.4,3.3c-0.3,1.1-0.9,2.2-1,3.5c-0.3,2.4-0.2,4.9,0.3,7.3c0.5,2.4,1.5,4.8,2.9,6.9c1.4,2.1,3.1,3.9,5.1,5.5
						c4,3.1,8.5,5.2,13.1,7.1c4.5,1.9,9.1,3.6,13.2,5.6c2.1,1,4.1,2.1,5.8,3.6c1.7,1.4,3.1,3.2,3.6,5.2l0.2,0.8l0.1,0.8
						c0.1,0.5,0.1,1,0.2,1.6c0.1,1,0.2,2,0.4,3c0.2,2,0.5,3.9,0.6,5.8c0.4,3.7,0.7,7.1,1,10.1C371.2,467.1,371.4,469.7,371.6,471.9z
						"/>
					<path class="st1" d="M371.4,464.7c0.2,2.9,0.4,5.4,0.6,7.5c0.2,3.2,0.4,5.3,0.5,6.2c0,0,0,0,0,0c0-0.8-0.2-2.9-0.4-6.2
						c-0.3-4.1-0.7-10.1-1.3-17.2c-0.2-3.6-0.7-7.4-1.1-11.4c-0.1-1-0.3-2.1-0.7-3.1c-0.4-1-1-1.9-1.6-2.7c-1.4-1.7-3.2-3-5.1-4.2
						c-3.8-2.3-8.1-4.1-12.3-6c-4.2-2-8.5-4.1-12.1-7.2c-3.6-3-6.2-7.2-7.3-11.7c-0.5-2.2-0.7-4.6-0.6-6.8c0.1-1.1,0.2-2.2,0.6-3.3
						c0.2-0.5,0.3-1.1,0.5-1.6c0.2-0.5,0.4-1,0.6-1.6c1.5-4.2,3.8-7.8,6.4-11c2.7-3.1,5.6-5.6,8.6-7.4c3-1.9,6-3.2,8.7-4.2
						c2.7-1,5.2-1.6,7.2-2c2-0.4,3.7-0.6,4.8-0.7c1.1-0.1,1.7-0.1,1.7-0.1s-0.6,0-1.7,0.1c-1.1,0.1-2.7,0.3-4.8,0.7
						c-2,0.4-4.5,1-7.2,1.9c-2.7,1-5.8,2.3-8.8,4.2c-3,1.9-6.1,4.4-8.7,7.5c-2.6,3.1-5,6.8-6.5,11c-0.2,0.5-0.4,1.1-0.6,1.6
						c-0.2,0.5-0.3,1.1-0.5,1.6c-0.4,1.1-0.6,2.2-0.6,3.4c-0.2,2.3,0,4.7,0.6,7c1.1,4.6,3.7,8.9,7.4,12c3.7,3.1,8,5.3,12.2,7.2
						c4.2,2,8.5,3.7,12.3,6c1.9,1.1,3.7,2.4,5,4.1c0.7,0.8,1.2,1.7,1.6,2.7c0.4,1,0.6,1.9,0.7,3c0.4,4.1,0.9,7.9,1.1,11.4
						C370.9,458.6,371.2,461.8,371.4,464.7z"/>
					<path class="st1" d="M371.8,465.4c0.2,2.7,0.4,5.1,0.5,7.1c0.2,3.2,0.4,5.3,0.4,5.9l0,0c0-0.7-0.2-2.7-0.3-5.9
						c-0.1-2-0.3-4.4-0.4-7.1c-0.2-2.7-0.4-5.8-0.7-9.2c-0.3-3.4-0.6-7-0.9-10.9c-0.1-1-0.1-1.9-0.3-2.9c-0.1-1-0.5-2-0.9-2.9
						c-0.9-1.9-2.4-3.4-4.1-4.7c-3.4-2.6-7.4-4.5-11.3-6.6c-3.9-2.1-7.9-4.3-11.2-7.3c-3.3-3-5.6-7.1-6.6-11.4
						c-0.5-2.1-0.8-4.3-0.7-6.5c0-1.1,0.1-2.2,0.3-3.2c0.3-1,0.5-2.1,0.8-3.1c1.3-4,3-7.8,5.2-11c1.1-1.6,2.3-3,3.5-4.4
						c1.3-1.3,2.6-2.5,3.9-3.5c2.7-2.1,5.4-3.6,7.9-4.7c2.5-1.1,4.8-1.8,6.7-2.3c1.9-0.5,3.5-0.7,4.5-0.8c1.1-0.1,1.6-0.1,1.6-0.1
						s-0.6,0-1.6,0.1c-1.1,0.1-2.6,0.3-4.5,0.7c-1.9,0.4-4.2,1.1-6.8,2.2c-2.5,1.1-5.3,2.6-8,4.6c-1.4,1-2.7,2.2-4,3.5
						c-1.3,1.3-2.5,2.8-3.6,4.4c-2.2,3.2-4,7-5.3,11c-0.3,1-0.6,2-0.9,3.1c-0.2,1.1-0.3,2.2-0.3,3.3c0,2.2,0.2,4.4,0.7,6.6
						c1,4.4,3.4,8.5,6.7,11.6c3.4,3.1,7.4,5.3,11.3,7.4c3.9,2.1,7.9,3.9,11.3,6.5c1.6,1.3,3.1,2.8,4,4.6c0.4,0.9,0.8,1.8,0.9,2.8
						c0.2,1,0.2,2,0.3,2.9c0.3,3.9,0.6,7.5,0.9,10.9C371.4,459.5,371.6,462.6,371.8,465.4z"/>
					<path class="st1" d="M370.9,446.8c0.3,3.7,0.5,7.2,0.8,10.4c0.2,3.2,0.5,6.2,0.6,8.8c0.2,2.6,0.3,4.9,0.4,6.8
						c0.2,3.2,0.3,5.2,0.4,5.7h0c0-0.6-0.1-2.6-0.3-5.7c-0.1-1.9-0.2-4.2-0.3-6.8c-0.1-2.6-0.3-5.6-0.5-8.8
						c-0.2-3.2-0.5-6.7-0.7-10.4c-0.1-0.9-0.1-1.9-0.2-2.8c-0.1-0.9-0.1-1.9-0.4-2.9c-0.4-1.9-1.5-3.7-2.9-5.2
						c-2.8-3-6.5-5.1-10.1-7.3c-3.6-2.2-7.3-4.4-10.3-7.5c-3-3-5-6.9-6-11c-0.5-2-0.8-4.1-0.8-6.2c0-2.1,0-4.1,0.7-6
						c0.2-1,0.5-1.9,0.7-2.9c0.1-0.5,0.3-0.9,0.5-1.4c0.2-0.5,0.3-0.9,0.5-1.4c0.4-0.9,0.6-1.8,1-2.7c0.4-0.9,0.8-1.7,1.3-2.5
						c0.2-0.4,0.4-0.8,0.6-1.2c0.2-0.4,0.5-0.8,0.7-1.1c0.5-0.8,0.9-1.5,1.5-2.2c1.1-1.3,2.1-2.7,3.3-3.8c2.3-2.3,4.8-3.9,7-5.2
						c0.6-0.3,1.1-0.6,1.7-0.9c0.6-0.3,1.1-0.5,1.6-0.7c1-0.5,2-0.7,2.9-1c1.8-0.5,3.3-0.8,4.3-0.9c1-0.1,1.5-0.2,1.5-0.2
						s-0.5,0-1.5,0.1c-1,0.1-2.5,0.4-4.3,0.9c-0.9,0.3-1.9,0.5-3,1c-0.5,0.2-1.1,0.4-1.6,0.7c-0.5,0.3-1.1,0.6-1.7,0.9
						c-2.3,1.3-4.8,2.9-7.1,5.2c-1.2,1.1-2.2,2.5-3.4,3.8c-0.5,0.7-1,1.5-1.5,2.2c-0.2,0.4-0.5,0.8-0.7,1.1
						c-0.2,0.4-0.4,0.8-0.6,1.2c-0.4,0.8-0.8,1.7-1.3,2.5c-0.4,0.9-0.7,1.8-1.1,2.7c-0.2,0.5-0.3,0.9-0.5,1.4
						c-0.2,0.5-0.4,0.9-0.5,1.4c-0.3,1-0.5,1.9-0.8,2.9c-0.6,1.9-0.7,4.1-0.7,6.1c0,2.1,0.3,4.2,0.8,6.3c1,4.1,3,8.2,6.1,11.3
						c3,3.1,6.8,5.4,10.4,7.5c3.6,2.2,7.3,4.2,10.1,7.1c1.4,1.5,2.4,3.2,2.8,5.1c0.2,0.9,0.3,1.9,0.4,2.8
						C370.8,445,370.8,445.9,370.9,446.8z"/>
					<path class="st1" d="M371.6,448.3c0.2,3.5,0.4,6.8,0.6,9.9c0.2,3.1,0.4,5.9,0.5,8.4c0.1,2.5,0.3,4.7,0.3,6.5
						c0.2,3.1,0.3,5,0.3,5.5l0,0c0-0.5-0.1-2.4-0.2-5.5c-0.1-1.8-0.2-4-0.3-6.5c-0.1-2.5-0.2-5.3-0.4-8.4c-0.2-3.1-0.4-6.4-0.6-9.9
						c-0.1-1.8-0.2-3.6-0.3-5.4c-0.2-1.8-0.6-3.8-1.7-5.4c-1-1.7-2.3-3.2-3.8-4.5c-1.5-1.3-3.1-2.5-4.8-3.6
						c-3.3-2.3-6.7-4.7-9.3-7.8c-0.6-0.8-1.3-1.5-1.8-2.4c-0.3-0.4-0.6-0.9-0.8-1.3l-0.7-1.3c-0.9-1.8-1.5-3.8-1.9-5.7
						c-0.4-2-0.7-3.9-0.8-5.9c-0.1-2-0.1-3.9,0.3-5.8c0.2-0.9,0.4-1.9,0.6-2.8c0.2-0.9,0.4-1.8,0.7-2.7c0.3-0.9,0.6-1.7,0.8-2.6
						c0.1-0.4,0.3-0.9,0.4-1.3c0.2-0.4,0.3-0.8,0.5-1.2c0.4-0.8,0.7-1.6,1-2.4c0.4-0.8,0.8-1.5,1.2-2.2c0.7-1.5,1.8-2.7,2.6-4
						c0.5-0.6,1-1.1,1.5-1.7c0.2-0.3,0.5-0.6,0.7-0.8c0.3-0.2,0.5-0.5,0.8-0.7c0.5-0.5,1-0.9,1.5-1.4c0.5-0.4,1-0.8,1.5-1.2
						c2-1.4,4-2.4,5.7-3c0.8-0.4,1.6-0.5,2.3-0.7c0.7-0.1,1.3-0.3,1.7-0.4c0.9-0.2,1.5-0.2,1.5-0.2s-0.5,0-1.5,0.2
						c-0.5,0-1,0.2-1.7,0.3c-0.7,0.2-1.4,0.4-2.3,0.7c-1.7,0.6-3.7,1.6-5.7,3c-2.1,1.4-4.1,3.4-6.1,5.8c-0.9,1.3-1.9,2.5-2.7,4
						c-0.4,0.7-0.8,1.5-1.2,2.2c-0.3,0.8-0.7,1.6-1,2.4c-0.2,0.4-0.3,0.8-0.5,1.2c-0.2,0.4-0.3,0.9-0.4,1.3
						c-0.3,0.9-0.5,1.7-0.8,2.6c-0.3,0.9-0.5,1.8-0.7,2.7c-0.2,0.9-0.4,1.9-0.6,2.8c-0.4,1.9-0.4,3.9-0.3,5.9c0.1,2,0.3,4,0.8,6
						c0.4,2,1.1,3.9,1.9,5.8l0.7,1.4c0.3,0.5,0.5,0.9,0.8,1.3c0.5,0.9,1.2,1.7,1.8,2.5c2.7,3.1,6.1,5.5,9.4,7.8
						c3.3,2.3,6.6,4.7,8.5,8c1,1.6,1.4,3.5,1.6,5.3C371.4,444.8,371.5,446.6,371.6,448.3z"/>
					<path class="st1" d="M371.6,440.6c0.1,0.4,0.1,0.9,0.2,1.3c0.2,0.9,0.1,1.8,0.2,2.7c0.1,1.8,0.2,3.5,0.2,5.2
						c0.2,3.4,0.3,6.5,0.4,9.4c0.6,11,1,18.6,1,19.4l0,0c0-0.9-0.3-8.4-0.7-19.4c-0.1-2.9-0.3-6.1-0.4-9.5c-0.1-1.7-0.1-3.4-0.2-5.2
						c-0.1-0.9,0-1.8-0.2-2.7c-0.1-0.5-0.1-0.9-0.2-1.4c-0.1-0.4-0.3-0.9-0.4-1.3c-0.6-1.8-1.5-3.5-2.7-4.9
						c-1.2-1.5-2.6-2.8-4.1-4.1c-1.5-1.3-2.9-2.5-4.3-3.8c-1.4-1.3-2.7-2.8-3.9-4.3c-1.1-1.5-2.2-3.2-2.8-5l-0.5-1.3
						c-0.2-0.5-0.4-0.9-0.5-1.4c-0.2-0.9-0.5-1.9-0.7-2.8c-0.7-3.8-1-7.6-0.7-11.2c0-0.9,0.3-1.8,0.4-2.7c0.2-0.9,0.3-1.8,0.5-2.6
						c0.3-1.7,0.8-3.4,1.2-5c0.3-0.8,0.5-1.6,0.8-2.3c0.3-0.8,0.5-1.5,0.8-2.3c0.7-1.4,1.2-2.8,2-4.1c1.4-2.6,3.1-4.7,4.8-6.3
						c1.7-1.7,3.5-2.8,5-3.6c1.5-0.8,2.8-1.2,3.7-1.4c0.9-0.2,1.4-0.2,1.4-0.2s-0.5,0-1.4,0.2c-0.9,0.2-2.2,0.5-3.7,1.3
						c-1.5,0.8-3.3,1.9-5,3.5c-1.7,1.7-3.5,3.8-4.9,6.3c-0.8,1.3-1.4,2.7-2,4.1c-0.4,0.7-0.6,1.5-0.9,2.3c-0.3,0.8-0.6,1.6-0.8,2.4
						c-0.4,1.6-0.9,3.3-1.3,5c-0.2,0.9-0.3,1.7-0.5,2.6c-0.1,0.9-0.4,1.8-0.4,2.7c-0.3,3.7-0.1,7.5,0.7,11.3
						c0.2,0.9,0.5,1.9,0.7,2.8c0.1,0.5,0.3,0.9,0.5,1.4l0.5,1.4c0.7,1.9,1.7,3.5,2.9,5.1c1.2,1.6,2.5,3,4,4.4
						c1.4,1.3,2.9,2.6,4.4,3.8c1.5,1.3,2.8,2.6,4,4c1.2,1.4,2.1,3.1,2.6,4.8C371.3,439.7,371.4,440.2,371.6,440.6z"/>
					<path class="st1" d="M372.3,440.9c0.2,1.7,0.2,3.4,0.3,5.1c0.1,1.7,0.1,3.3,0.2,4.9c0.1,3.2,0.2,6.2,0.3,9
						c0.4,10.7,0.7,18,0.8,18.6l0,0c0-0.6-0.2-7.9-0.5-18.6c-0.1-2.8-0.2-5.8-0.3-9.1c0-1.6-0.1-3.3-0.2-4.9
						c-0.1-1.7-0.1-3.4-0.3-5.2c-0.3-1.7-0.7-3.5-1.6-5.1c-0.8-1.6-1.9-3.1-3.1-4.5c-2.4-2.8-5.1-5.4-7-8.6
						c-0.5-0.8-0.9-1.6-1.3-2.4c-0.4-0.9-0.8-1.7-1-2.6c-0.3-0.9-0.5-1.8-0.8-2.6c-0.2-0.9-0.4-1.8-0.6-2.7
						c-0.6-3.6-0.8-7.2-0.8-10.7c0-1.7,0.3-3.4,0.5-5.1c0.1-0.8,0.2-1.7,0.4-2.5c0.2-0.8,0.3-1.6,0.5-2.4c0.6-3.1,1.5-6.1,2.5-8.7
						c1.1-2.6,2.2-4.9,3.5-6.7c0.3-0.5,0.6-0.9,1-1.3c0.4-0.4,0.7-0.8,1-1.2c0.4-0.3,0.7-0.7,1-1c0.3-0.3,0.7-0.5,1-0.8
						c1.3-1,2.5-1.5,3.3-1.8c0.8-0.3,1.3-0.3,1.3-0.3s-0.5,0-1.3,0.3c-0.8,0.2-2,0.8-3.4,1.7c-0.3,0.3-0.7,0.5-1,0.8
						c-0.3,0.3-0.7,0.6-1,1c-0.3,0.4-0.7,0.7-1,1.1c-0.4,0.4-0.7,0.8-1,1.3c-1.4,1.8-2.5,4.2-3.6,6.7c-1,2.6-1.9,5.5-2.5,8.7
						c-0.2,0.8-0.3,1.6-0.5,2.4c-0.2,0.8-0.2,1.6-0.4,2.5c-0.2,1.7-0.5,3.4-0.6,5.1c-0.1,3.5,0.1,7.2,0.7,10.8
						c0.2,0.9,0.3,1.8,0.5,2.7c0.3,0.9,0.5,1.8,0.8,2.7c0.3,0.9,0.7,1.7,1,2.6c0.4,0.8,0.8,1.7,1.3,2.5c1.9,3.3,4.7,5.9,7.1,8.7
						c1.2,1.4,2.3,2.9,3.1,4.4C371.6,437.5,372,439.2,372.3,440.9z"/>
					<path class="st1" d="M373.1,442.4c0.1,3.4,0.2,6.6,0.3,9.7c0.1,3.1,0.2,6,0.2,8.7c0.3,10.5,0.6,17.5,0.6,17.9l0,0
						c0-0.4-0.1-7.4-0.3-17.9c-0.1-2.7-0.1-5.6-0.2-8.7c-0.1-3.1-0.1-6.3-0.2-9.7c-0.1-1.7-0.3-3.4-0.8-5.1c-0.5-1.7-1.2-3.3-2-4.9
						c-0.9-1.6-1.9-3-2.8-4.5c-1-1.5-1.8-3.1-2.6-4.7c-0.8-1.6-1.3-3.3-1.8-5c-0.4-1.7-0.8-3.5-1-5.2c-0.5-3.5-0.7-7-0.7-10.3
						c0-1.7,0.1-3.3,0.3-4.9c0.2-1.6,0.3-3.2,0.5-4.7c0.2-1.5,0.4-3,0.7-4.4c0.3-1.4,0.5-2.8,0.9-4.1c0.2-0.6,0.3-1.3,0.5-1.9
						c0.2-0.6,0.4-1.2,0.6-1.8c0.3-1.2,0.8-2.2,1.2-3.3c0.9-2,1.8-3.7,2.8-4.9c1-1.2,2-2,2.7-2.4c0.7-0.4,1.2-0.4,1.2-0.4
						s-0.5,0-1.2,0.4c-0.8,0.4-1.8,1.1-2.8,2.3c-1,1.2-2,2.9-2.9,4.8c-0.4,1-0.9,2.1-1.3,3.3c-0.2,0.6-0.4,1.2-0.6,1.8
						c-0.2,0.6-0.3,1.3-0.5,1.9c-0.4,1.3-0.6,2.7-0.9,4.1c-0.3,1.4-0.5,2.9-0.7,4.4c-0.3,1.5-0.4,3.1-0.5,4.7
						c-0.2,1.6-0.3,3.3-0.3,5c0,3.4,0.1,6.9,0.6,10.4c0.2,1.8,0.6,3.5,1,5.3c0.5,1.7,1,3.5,1.8,5.1c0.8,1.6,1.7,3.2,2.6,4.7
						c1,1.5,2,3,2.8,4.5c0.9,1.5,1.5,3.1,2,4.8C372.8,439,373,440.7,373.1,442.4z"/>
					<path class="st1" d="M373,436.1c0.1,0.8,0.3,1.7,0.4,2.5c0.1,0.8,0.1,1.7,0.2,2.5c0.1,0.8,0.1,1.6,0.1,2.5
						c0.1,6.5,0.2,12.6,0.3,17.8c0.2,10.3,0.4,17.2,0.4,17.4l0,0c0-0.2-0.1-7.1-0.1-17.4c-0.1-5.2-0.1-11.3-0.2-17.8
						c0-0.8-0.1-1.6-0.1-2.5c-0.1-0.8-0.1-1.7-0.2-2.5c-0.1-0.8-0.3-1.7-0.4-2.5c-0.1-0.8-0.4-1.7-0.6-2.5c-1-3.3-2.5-6.5-3.4-9.8
						c-0.5-1.6-0.8-3.4-1.2-5.1c-0.3-1.7-0.4-3.4-0.6-5.1c-0.2-1.7-0.3-3.4-0.4-5.1c-0.1-1.7-0.2-3.3-0.1-5
						c-0.1-3.3,0.2-6.4,0.3-9.4c0.1-1.5,0.2-2.9,0.4-4.3c0.2-1.4,0.3-2.7,0.5-4c0.4-2.6,0.7-4.9,1.2-7c0.4-2.1,1-3.8,1.6-5.2
						c0.6-1.4,1.2-2.4,1.8-3c0.3-0.3,0.5-0.5,0.7-0.6c0.2-0.1,0.3-0.1,0.3-0.1s-0.1,0-0.3,0.1c-0.2,0.1-0.4,0.3-0.7,0.6
						c-0.6,0.6-1.2,1.6-1.8,3c-0.6,1.4-1.2,3.2-1.7,5.2c-0.5,2.1-0.9,4.4-1.3,7c-0.2,1.3-0.3,2.6-0.5,4c-0.1,1.4-0.3,2.9-0.4,4.3
						c-0.2,3-0.5,6.1-0.4,9.4c0,1.6,0,3.3,0.1,5c0.1,1.7,0.1,3.4,0.3,5.1c0.2,1.7,0.3,3.4,0.6,5.2c0.3,1.7,0.6,3.4,1.1,5.1
						c0.9,3.4,2.5,6.5,3.4,9.8C372.6,434.5,372.9,435.3,373,436.1z"/>
					<path class="st1" d="M374.6,369.8c0,0-0.3,0.3-0.5,1.1c-0.2,0.8-0.4,1.9-0.6,3.4c-0.4,3-0.6,7.2-0.8,12.3
						c-0.1,2.6-0.2,5.3-0.2,8.3c0,1.5,0,3-0.1,4.5c0,1.5,0,3.1,0,4.7c0,3.2,0.2,6.5,0.2,9.9c0.1,1.7,0,3.4,0.2,5
						c0.1,1.7,0.3,3.4,0.4,5.1c0.1,1.7,0.4,3.4,0.6,5.1c0.2,1.7,0.4,3.4,0.5,5l0.1,1.3l0,1.2c0,0.8,0.1,1.7,0.1,2.5
						c0.1,1.6,0.1,3.3,0.1,4.9c0,6.4,0,12.4,0,17.5c0,10.2,0,17.1,0,17.1s-0.1-6.8-0.2-17.1c0-5.1-0.1-11.1-0.1-17.5
						c0-1.6-0.1-3.2-0.2-4.9c0-0.8-0.1-1.6-0.1-2.5l-0.1-1.3l-0.1-1.2c-0.2-1.7-0.3-3.3-0.6-5c-0.2-1.7-0.5-3.4-0.6-5.1
						c-0.1-1.7-0.3-3.4-0.4-5.1c-0.1-1.7-0.1-3.4-0.2-5.1c-0.1-3.4-0.2-6.7-0.2-9.9c0-1.6,0-3.2,0-4.7c0-1.5,0.1-3,0.1-4.5
						c0.1-2.9,0.2-5.7,0.3-8.3c0.1-2.6,0.3-4.9,0.4-7c0.2-2.1,0.3-3.9,0.6-5.4c0.2-1.5,0.4-2.6,0.6-3.4
						C374.3,370.2,374.5,369.8,374.6,369.8z"/>
					<path class="st1" d="M375.3,369.8c0,0,0.3,0.3,0.5,1.1c0.2,0.8,0.4,1.9,0.6,3.4c0.2,1.5,0.4,3.3,0.6,5.4c0.2,2.1,0.3,4.4,0.4,7
						c0.1,2.6,0.2,5.3,0.3,8.3c0,1.5,0.1,3,0.1,4.5c0,1.5,0,3.1,0,4.7c0,3.2-0.1,6.5-0.2,9.9c-0.1,1.7,0,3.4-0.2,5.1
						c-0.1,1.7-0.3,3.4-0.4,5.1c-0.1,1.7-0.4,3.4-0.6,5.1c-0.2,1.7-0.4,3.4-0.6,5l-0.1,1.2l-0.1,1.3c0,0.8-0.1,1.6-0.1,2.5
						c-0.1,1.6-0.2,3.3-0.1,4.9c-0.1,6.4-0.1,12.4-0.1,17.5c-0.1,10.2-0.2,17.1-0.2,17.1s0-6.8,0-17.1c0-5.1,0-11.1,0-17.5
						c0-1.6,0.1-3.2,0.1-4.9c0-0.8,0.1-1.7,0.1-2.5l0-1.2l0.1-1.3c0.2-1.7,0.3-3.4,0.5-5c0.2-1.7,0.4-3.4,0.6-5.1
						c0.1-1.7,0.3-3.4,0.4-5.1c0.2-1.7,0.1-3.4,0.2-5c0.1-3.4,0.2-6.7,0.3-9.9c0-1.6,0-3.2,0-4.7c0-1.5-0.1-3-0.1-4.5
						c-0.1-2.9-0.1-5.7-0.2-8.3c-0.2-5.1-0.5-9.4-0.8-12.3c-0.2-1.5-0.4-2.6-0.5-3.4C375.5,370.2,375.3,369.8,375.3,369.8z"/>
					<path class="st1" d="M375.9,369.8c0,0,0.1,0,0.3,0.1c0.2,0.1,0.5,0.3,0.7,0.6c0.6,0.6,1.2,1.6,1.8,3c0.6,1.4,1.2,3.2,1.7,5.2
						c0.5,2.1,0.9,4.4,1.3,7c0.2,1.3,0.3,2.6,0.5,4c0.1,1.4,0.3,2.9,0.4,4.3c0.2,3,0.5,6.1,0.4,9.4c0,1.6,0,3.3-0.1,5
						c-0.1,1.7-0.1,3.4-0.3,5.1c-0.2,1.7-0.3,3.4-0.6,5.2c-0.3,1.7-0.6,3.4-1.1,5.1c-0.9,3.4-2.5,6.5-3.4,9.8
						c-0.2,0.8-0.5,1.6-0.6,2.5c-0.1,0.8-0.3,1.7-0.4,2.5c-0.1,0.8-0.1,1.7-0.2,2.5c0,0.8-0.1,1.6-0.1,2.5
						c-0.1,6.5-0.2,12.6-0.3,17.8c-0.2,10.4-0.4,17.4-0.4,17.4s0-7,0.1-17.4c0.1-5.2,0.1-11.3,0.2-17.8c0-0.8,0.1-1.6,0.1-2.5
						c0.1-0.8,0.1-1.7,0.2-2.5c0.1-0.8,0.3-1.7,0.4-2.5c0.1-0.8,0.4-1.7,0.6-2.5c1-3.3,2.5-6.5,3.4-9.8c0.5-1.6,0.8-3.4,1.2-5.1
						c0.3-1.7,0.4-3.4,0.6-5.1c0.2-1.7,0.3-3.4,0.4-5.1c0.1-1.7,0.2-3.3,0.1-5c0.1-3.3-0.2-6.4-0.3-9.4c-0.1-1.5-0.2-2.9-0.4-4.3
						c-0.2-1.4-0.3-2.7-0.5-4c-0.4-2.6-0.7-4.9-1.2-7c-0.4-2.1-1-3.8-1.6-5.2c-0.6-1.4-1.2-2.4-1.8-3c-0.3-0.3-0.5-0.5-0.7-0.6
						C376,369.9,375.9,369.8,375.9,369.8z"/>
					<path class="st1" d="M376.6,369.8c0,0,0.5,0,1.2,0.4c0.8,0.4,1.8,1.1,2.8,2.3c1,1.2,2,2.9,2.9,4.8c0.4,1,0.9,2.1,1.3,3.3
						c0.2,0.6,0.4,1.2,0.6,1.8c0.2,0.6,0.3,1.3,0.5,1.9c0.4,1.3,0.6,2.7,0.9,4.1c0.3,1.4,0.5,2.9,0.7,4.4c0.3,1.5,0.4,3.1,0.6,4.7
						c0.2,1.6,0.3,3.3,0.3,5c0,3.4-0.1,6.9-0.6,10.4c-0.2,1.8-0.6,3.5-1,5.3c-0.5,1.7-1,3.5-1.8,5.1c-0.8,1.6-1.7,3.2-2.6,4.7
						c-1,1.5-2,3-2.8,4.5c-0.9,1.5-1.5,3.1-2,4.8c-0.5,1.7-0.7,3.3-0.8,5c-0.1,3.4-0.2,6.6-0.3,9.7c-0.1,3.1-0.2,6-0.2,8.7
						c-0.3,10.8-0.6,17.9-0.6,17.9s0.1-7.2,0.3-18c0.1-2.7,0.1-5.6,0.2-8.7c0.1-3.1,0.1-6.3,0.2-9.7c0.1-1.7,0.3-3.4,0.8-5.1
						c0.5-1.7,1.2-3.3,2-4.9c0.9-1.6,1.9-3,2.8-4.5c1-1.5,1.8-3.1,2.6-4.7c0.8-1.6,1.3-3.3,1.8-5c0.4-1.7,0.8-3.5,1-5.2
						c0.5-3.5,0.7-7,0.6-10.3c0-1.7-0.1-3.3-0.3-4.9c-0.2-1.6-0.3-3.2-0.5-4.7c-0.2-1.5-0.4-3-0.7-4.4c-0.3-1.4-0.5-2.8-0.9-4.1
						c-0.2-0.6-0.3-1.3-0.5-1.9c-0.2-0.6-0.4-1.2-0.6-1.8c-0.3-1.2-0.8-2.2-1.2-3.3c-0.9-2-1.8-3.7-2.8-4.9c-1-1.2-2-2-2.8-2.4
						C377.1,369.9,376.6,369.8,376.6,369.8z"/>
					<path class="st1" d="M377.3,369.8c0,0,0.5,0,1.3,0.3c0.8,0.2,2,0.8,3.4,1.7c0.3,0.3,0.7,0.5,1,0.8c0.3,0.3,0.7,0.6,1,1
						c0.3,0.4,0.7,0.7,1,1.1c0.4,0.4,0.7,0.8,1,1.3c1.4,1.8,2.5,4.2,3.6,6.7c1,2.6,1.9,5.5,2.5,8.7c0.2,0.8,0.3,1.6,0.5,2.4
						c0.2,0.8,0.3,1.6,0.4,2.5c0.2,1.7,0.5,3.4,0.6,5.1c0.1,3.5-0.1,7.2-0.7,10.8c-0.2,0.9-0.4,1.8-0.6,2.7
						c-0.3,0.9-0.5,1.8-0.8,2.7c-0.3,0.9-0.7,1.7-1,2.6c-0.4,0.8-0.8,1.7-1.3,2.5c-1.9,3.3-4.7,5.9-7.1,8.7
						c-1.2,1.4-2.3,2.9-3.1,4.4c-0.8,1.6-1.3,3.3-1.6,5c-0.2,1.7-0.3,3.4-0.3,5.1c-0.1,1.7-0.1,3.3-0.2,4.9c-0.1,3.2-0.2,6.2-0.3,9
						c-0.5,11.2-0.8,18.7-0.8,18.7s0.2-7.5,0.5-18.7c0.1-2.8,0.2-5.8,0.3-9.1c0-1.6,0.1-3.3,0.1-4.9c0.1-1.7,0.1-3.4,0.3-5.2
						c0.3-1.7,0.7-3.5,1.6-5.1c0.8-1.6,1.9-3.1,3.1-4.5c2.4-2.8,5.1-5.4,7-8.6c0.5-0.8,0.9-1.6,1.3-2.4c0.4-0.8,0.8-1.7,1-2.6
						c0.3-0.9,0.5-1.8,0.8-2.6c0.2-0.9,0.4-1.8,0.6-2.7c0.6-3.6,0.8-7.2,0.8-10.7c0-1.7-0.3-3.4-0.5-5.1c-0.1-0.8-0.2-1.7-0.4-2.5
						c-0.2-0.8-0.3-1.6-0.5-2.4c-0.6-3.1-1.5-6.1-2.5-8.7c-1.1-2.6-2.2-4.9-3.5-6.7c-0.3-0.5-0.6-0.9-1-1.3c-0.4-0.4-0.7-0.8-1-1.2
						c-0.4-0.3-0.7-0.7-1-1c-0.3-0.3-0.7-0.5-1-0.8c-1.3-1-2.5-1.5-3.3-1.8C377.8,369.9,377.3,369.8,377.3,369.8z"/>
					<path class="st1" d="M398.9,400.3c0-0.9-0.3-1.8-0.4-2.7c-0.2-0.9-0.3-1.8-0.5-2.6c-0.4-1.7-0.9-3.4-1.3-5
						c-0.2-0.8-0.5-1.6-0.8-2.4c-0.3-0.8-0.5-1.5-0.9-2.3c-0.7-1.4-1.2-2.9-2-4.1c-1.4-2.6-3.2-4.7-4.9-6.3c-1.7-1.7-3.5-2.8-5-3.5
						c-1.5-0.8-2.9-1.1-3.7-1.3c-0.9-0.2-1.4-0.2-1.4-0.2s0.5,0,1.4,0.2c0.9,0.2,2.2,0.6,3.7,1.4c1.5,0.8,3.3,1.9,5,3.6
						c1.7,1.7,3.4,3.8,4.8,6.3c0.8,1.2,1.3,2.7,2,4.1c0.4,0.7,0.5,1.5,0.8,2.3c0.3,0.8,0.6,1.5,0.8,2.3c0.4,1.6,0.9,3.3,1.2,5
						c0.2,0.9,0.3,1.7,0.5,2.6c0.1,0.9,0.4,1.8,0.4,2.7c0.3,3.6,0,7.4-0.7,11.2c-0.2,0.9-0.5,1.8-0.7,2.8c-0.1,0.5-0.3,0.9-0.5,1.4
						l-0.5,1.3c-0.7,1.8-1.7,3.5-2.8,5c-1.2,1.6-2.5,3-3.9,4.3c-1.4,1.3-2.9,2.6-4.4,3.8c-1.4,1.3-2.8,2.6-4,4.1
						c-1.2,1.5-2.1,3.2-2.7,4.9c-0.1,0.4-0.3,0.9-0.4,1.3c-0.1,0.4-0.1,0.9-0.2,1.4c-0.2,0.9-0.1,1.8-0.2,2.7
						c-0.1,1.8-0.1,3.5-0.2,5.2c-0.1,3.4-0.3,6.5-0.4,9.5c-0.4,11.6-0.7,19.4-0.7,19.5l0,0c0-0.1,0.4-7.9,1-19.5
						c0.1-2.9,0.3-6.1,0.4-9.4c0.1-1.7,0.2-3.4,0.2-5.2c0.1-0.9,0-1.8,0.2-2.7c0.1-0.4,0.1-0.9,0.2-1.3c0.1-0.4,0.3-0.9,0.4-1.3
						c0.6-1.7,1.4-3.4,2.6-4.8c1.2-1.4,2.6-2.7,4-4c1.5-1.3,2.9-2.5,4.4-3.8c1.4-1.3,2.8-2.8,4-4.4c1.1-1.6,2.2-3.3,2.9-5.1l0.5-1.4
						c0.2-0.5,0.4-0.9,0.5-1.4c0.2-0.9,0.5-1.9,0.7-2.8C398.9,407.8,399.2,404,398.9,400.3z"/>
					<path class="st1" d="M404,399.1c-0.2-0.9-0.4-1.9-0.6-2.8c-0.2-0.9-0.4-1.9-0.7-2.7c-0.3-0.9-0.6-1.8-0.8-2.6
						c-0.1-0.4-0.3-0.9-0.4-1.3c-0.2-0.4-0.4-0.8-0.5-1.2c-0.3-0.8-0.7-1.6-1-2.4c-0.4-0.8-0.8-1.5-1.2-2.2c-0.7-1.5-1.8-2.7-2.7-4
						c-2-2.4-4-4.4-6.1-5.8c-2.1-1.4-4-2.4-5.7-3c-0.8-0.3-1.6-0.5-2.3-0.7c-0.7-0.1-1.3-0.3-1.7-0.3c-1-0.2-1.5-0.2-1.5-0.2
						s0.5,0,1.5,0.2c0.5,0.1,1,0.2,1.7,0.4c0.7,0.2,1.4,0.4,2.3,0.7c1.7,0.6,3.6,1.6,5.7,3c0.5,0.4,1,0.8,1.5,1.2
						c0.5,0.4,1,0.9,1.5,1.4c0.2,0.2,0.5,0.5,0.8,0.7c0.2,0.3,0.5,0.5,0.7,0.8c0.5,0.6,1,1.1,1.5,1.7c0.8,1.3,1.9,2.5,2.6,4
						c0.4,0.7,0.8,1.4,1.2,2.2c0.3,0.8,0.7,1.6,1,2.4c0.2,0.4,0.3,0.8,0.5,1.2c0.2,0.4,0.3,0.8,0.4,1.3c0.3,0.9,0.5,1.7,0.8,2.6
						c0.3,0.9,0.4,1.8,0.7,2.7c0.2,0.9,0.4,1.9,0.6,2.8c0.3,1.9,0.3,3.8,0.3,5.8c-0.1,2-0.3,3.9-0.8,5.9c-0.4,2-1.1,3.9-1.9,5.7
						l-0.7,1.3c-0.2,0.4-0.5,0.9-0.8,1.3c-0.5,0.9-1.2,1.6-1.8,2.4c-2.6,3.1-6,5.5-9.3,7.8c-1.6,1.1-3.3,2.3-4.8,3.6
						c-1.5,1.3-2.8,2.8-3.8,4.5c-1.1,1.7-1.4,3.6-1.7,5.4c-0.1,1.9-0.2,3.7-0.3,5.4c-0.2,3.5-0.4,6.8-0.6,9.9
						c-0.2,3.1-0.3,5.9-0.4,8.4c-0.1,2.5-0.2,4.7-0.3,6.5c-0.1,3.4-0.2,5.4-0.2,5.6c0,0,0,0,0,0c0-0.2,0.1-2.2,0.3-5.6
						c0.1-1.8,0.2-4,0.3-6.5c0.1-2.5,0.3-5.3,0.5-8.4c0.2-3.1,0.4-6.4,0.6-9.9c0.1-1.8,0.2-3.6,0.3-5.4c0.2-1.8,0.6-3.7,1.6-5.3
						c1.9-3.3,5.2-5.7,8.5-8c3.3-2.3,6.7-4.7,9.4-7.8c0.6-0.8,1.3-1.6,1.8-2.5c0.3-0.4,0.6-0.8,0.8-1.3l0.7-1.4
						c0.9-1.9,1.5-3.8,1.9-5.8c0.4-2,0.7-4,0.8-6C404.3,402.9,404.3,401,404,399.1z"/>
					<path class="st1" d="M408.9,397.8c-0.3-1-0.5-1.9-0.8-2.9c-0.1-0.5-0.3-0.9-0.5-1.4c-0.2-0.5-0.4-0.9-0.5-1.4
						c-0.4-0.9-0.6-1.8-1.1-2.7c-0.4-0.9-0.9-1.7-1.3-2.5c-0.2-0.4-0.4-0.8-0.6-1.2c-0.3-0.4-0.5-0.8-0.8-1.1
						c-0.5-0.7-1-1.5-1.5-2.2c-1.2-1.3-2.1-2.7-3.4-3.8c-2.3-2.3-4.8-3.9-7.1-5.2c-0.6-0.3-1.2-0.6-1.7-0.9
						c-0.5-0.3-1.1-0.5-1.6-0.7c-1-0.5-2.1-0.7-3-1c-1.8-0.5-3.3-0.8-4.3-0.9c-1-0.1-1.5-0.1-1.5-0.1s0.5,0,1.5,0.2
						c1,0.1,2.4,0.4,4.3,0.9c0.9,0.3,1.9,0.6,2.9,1c0.5,0.2,1.1,0.4,1.6,0.7c0.5,0.3,1.1,0.6,1.7,0.9c2.3,1.3,4.8,2.9,7,5.2
						c1.2,1.1,2.2,2.4,3.3,3.8c0.5,0.7,1,1.5,1.5,2.2c0.2,0.4,0.5,0.7,0.7,1.1c0.2,0.4,0.4,0.8,0.6,1.2c0.4,0.8,0.8,1.7,1.2,2.5
						c0.4,0.8,0.7,1.8,1,2.7c0.2,0.4,0.3,0.9,0.5,1.4c0.2,0.5,0.4,0.9,0.5,1.4c0.2,1,0.5,1.9,0.8,2.9c0.6,1.9,0.7,4,0.7,6
						c0,2.1-0.3,4.1-0.8,6.2c-1,4.1-3,8-6,11c-3,3.1-6.7,5.3-10.3,7.5c-3.6,2.2-7.3,4.2-10.1,7.3c-1.4,1.5-2.4,3.3-2.9,5.2
						c-0.3,1-0.3,1.9-0.4,2.9c-0.1,0.9-0.1,1.9-0.2,2.8c-0.3,3.7-0.5,7.2-0.7,10.4c-0.2,3.2-0.4,6.2-0.5,8.8
						c-0.1,2.6-0.2,4.9-0.3,6.8c-0.2,3.3-0.3,5.4-0.3,5.8l0,0c0-0.5,0.2-2.5,0.4-5.8c0.1-1.9,0.3-4.2,0.4-6.8
						c0.1-2.6,0.4-5.6,0.6-8.8c0.2-3.2,0.5-6.7,0.7-10.4c0.1-0.9,0.1-1.9,0.2-2.8c0.1-0.9,0.1-1.9,0.4-2.8c0.4-1.9,1.5-3.6,2.8-5.1
						c2.7-2.9,6.4-5,10.1-7.1c3.6-2.2,7.4-4.4,10.4-7.5c3.1-3.1,5.1-7.1,6-11.3c0.5-2.1,0.7-4.2,0.8-6.3
						C409.6,401.8,409.5,399.7,408.9,397.8z"/>
					<path class="st1" d="M414.6,399.6c-0.3-1.1-0.5-2.1-0.9-3.1c-1.3-4-3-7.8-5.3-11c-1.1-1.6-2.3-3.1-3.6-4.4
						c-1.3-1.3-2.6-2.5-4-3.5c-2.7-2.1-5.5-3.6-8-4.6c-2.6-1.1-4.9-1.8-6.8-2.2c-1.9-0.4-3.5-0.6-4.5-0.7c-1.1-0.1-1.6-0.1-1.6-0.1
						s0.6,0,1.6,0.1c1.1,0.1,2.6,0.4,4.5,0.8c1.9,0.5,4.2,1.2,6.7,2.3c2.5,1.1,5.2,2.6,7.9,4.7c1.3,1,2.6,2.2,3.9,3.5
						c1.2,1.3,2.5,2.8,3.5,4.4c2.2,3.2,3.9,6.9,5.2,11c0.3,1,0.6,2,0.8,3.1c0.2,1,0.3,2.1,0.3,3.2c0,2.2-0.2,4.4-0.7,6.5
						c-1,4.3-3.3,8.3-6.6,11.4c-3.3,3.1-7.3,5.3-11.2,7.3c-3.9,2.1-7.9,3.9-11.3,6.6c-1.7,1.3-3.2,2.9-4.1,4.7
						c-0.5,0.9-0.8,1.9-0.9,2.9c-0.2,1-0.2,2-0.3,2.9c-0.3,3.9-0.6,7.5-0.9,10.9c-0.3,3.4-0.5,6.5-0.7,9.2c-0.2,2.8-0.3,5.1-0.4,7.1
						c-0.2,3.4-0.3,5.5-0.3,6.1h0c0-0.6,0.2-2.7,0.4-6.1c0.1-2,0.3-4.4,0.5-7.1c0.2-2.7,0.5-5.8,0.8-9.2c0.3-3.4,0.6-7,0.9-10.9
						c0.1-1,0.1-2,0.3-2.9c0.1-1,0.5-1.9,0.9-2.8c0.9-1.8,2.4-3.3,4-4.6c3.3-2.6,7.3-4.4,11.3-6.5c3.9-2,8-4.3,11.3-7.4
						c3.4-3.1,5.7-7.3,6.7-11.6c0.5-2.2,0.8-4.4,0.7-6.6C414.9,401.8,414.8,400.7,414.6,399.6z"/>
					<path class="st1" d="M420.2,401.8c-0.1-1.1-0.2-2.3-0.6-3.4c-0.2-0.5-0.3-1.1-0.5-1.6c-0.2-0.5-0.4-1-0.6-1.6
						c-1.6-4.2-3.9-7.9-6.5-11c-2.7-3.1-5.7-5.6-8.7-7.5c-3-1.9-6-3.2-8.8-4.2c-2.7-1-5.2-1.5-7.2-1.9c-2-0.4-3.7-0.6-4.8-0.7
						c-1.1-0.1-1.7-0.1-1.7-0.1s0.6,0,1.7,0.1c1.1,0.1,2.7,0.3,4.8,0.7c2,0.4,4.5,1,7.2,2c2.7,1,5.7,2.3,8.7,4.2
						c3,1.9,6,4.4,8.7,7.4c2.6,3.1,4.9,6.8,6.4,11c0.2,0.5,0.4,1,0.6,1.6c0.2,0.5,0.3,1.1,0.5,1.6c0.4,1.1,0.5,2.2,0.6,3.3
						c0.1,2.3,0,4.6-0.6,6.8c-1.1,4.5-3.6,8.7-7.3,11.7c-3.6,3.1-7.9,5.2-12.1,7.2c-4.2,2-8.5,3.7-12.3,6c-1.9,1.2-3.7,2.5-5.1,4.2
						c-0.7,0.8-1.3,1.8-1.7,2.7c-0.4,1-0.6,2.1-0.7,3.1c-0.4,4.1-0.9,7.9-1.1,11.4c-0.6,7.1-1,13-1.3,17.2c-0.2,3.4-0.4,5.6-0.4,6.3
						h0c0-0.7,0.2-2.9,0.5-6.3c0.2-2.1,0.4-4.6,0.6-7.5c0.2-2.9,0.5-6.1,0.8-9.7c0.3-3.5,0.8-7.4,1.2-11.4c0.1-1,0.3-2,0.7-3
						c0.4-1,1-1.8,1.6-2.7c1.4-1.6,3.1-2.9,5-4.1c3.8-2.3,8.1-4,12.3-6c4.2-2,8.5-4.1,12.2-7.2c3.7-3.1,6.3-7.4,7.4-12
						C420.2,406.4,420.3,404.1,420.2,401.8z"/>
					<path class="st1" d="M425.4,400.7c-0.1-1.2-0.6-2.3-1-3.5c-0.4-1.1-0.9-2.2-1.4-3.3c-1-2.1-2.2-4.1-3.5-5.9
						c-1.4-1.8-2.8-3.5-4.3-5c-0.8-0.8-1.6-1.4-2.4-2.1c-0.8-0.6-1.6-1.3-2.5-1.8c-1.6-1.2-3.3-2.1-5-3c-3.3-1.7-6.6-2.9-9.5-3.8
						c-2.9-0.9-5.5-1.4-7.7-1.7c-4.3-0.7-6.8-0.7-6.8-0.7s2.5,0,6.8,0.8c2.1,0.4,4.7,1,7.6,1.8c2.9,0.9,6.1,2.1,9.4,3.9
						c1.6,0.9,3.3,1.9,4.9,3c0.8,0.6,1.6,1.2,2.4,1.8c0.8,0.7,1.6,1.3,2.3,2.1c3.1,2.9,5.8,6.6,7.8,10.8c0.5,1.1,0.9,2.1,1.4,3.2
						c0.4,1.1,0.9,2.2,1,3.4c0.3,2.4,0.2,4.8-0.4,7.2c-0.5,2.4-1.5,4.6-2.9,6.7c-1.4,2-3.1,3.9-5,5.4c-3.9,3.1-8.4,5.2-12.9,7.1
						c-4.5,1.9-9,3.6-13.2,5.7c-2.1,1.1-4.1,2.2-5.9,3.7c-1.7,1.4-3.2,3.3-3.7,5.4l-0.2,0.8l-0.1,0.8c-0.1,0.5-0.1,1.1-0.2,1.6
						c-0.1,1-0.2,2-0.4,3c-0.2,2-0.5,3.9-0.6,5.8c-0.3,3.7-0.6,7.1-0.9,10.1c-0.2,3-0.4,5.7-0.6,7.8c-0.3,3.4-0.4,5.7-0.5,6.5h0
						c0.1-0.8,0.3-3.1,0.5-6.5c0.2-2.2,0.4-4.8,0.7-7.8c0.3-3,0.6-6.4,1-10.1c0.2-1.9,0.4-3.8,0.6-5.8c0.1-1,0.2-2,0.4-3
						c0.1-0.5,0.1-1,0.2-1.6l0.1-0.8l0.2-0.8c0.5-2,1.9-3.8,3.6-5.2c1.7-1.4,3.7-2.5,5.8-3.6c4.2-2.1,8.7-3.7,13.2-5.6
						c4.5-1.9,9.1-4,13.1-7.1c2-1.6,3.7-3.4,5.1-5.5c1.4-2.1,2.4-4.4,2.9-6.9C425.6,405.6,425.7,403.1,425.4,400.7z"/>
					<path class="st1" d="M430.4,399.6c-0.8-2.4-1.8-4.7-3.1-6.8c-0.3-0.5-0.6-1.1-1-1.6c-0.3-0.5-0.7-1-1-1.5
						c-0.7-0.9-1.4-1.9-2.2-2.8c-1.5-1.8-3.2-3.4-5-4.8c-1.7-1.4-3.6-2.6-5.4-3.7c-1.8-1-3.6-2-5.4-2.8c-3.6-1.6-7-2.7-10.1-3.5
						c-3.1-0.8-5.8-1.3-8.1-1.6c-4.5-0.6-7.1-0.6-7.1-0.6s2.6,0,7.1,0.7c2.3,0.3,5,0.9,8,1.7c3.1,0.8,6.5,1.9,10,3.5
						c1.8,0.8,3.6,1.8,5.4,2.8c1.8,1.1,3.6,2.3,5.3,3.7c1.7,1.4,3.4,3,4.9,4.8c0.8,0.9,1.5,1.8,2.2,2.8c0.3,0.5,0.7,1,1,1.5
						c0.3,0.5,0.6,1,0.9,1.6c1.2,2.1,2.2,4.4,3,6.8c0.5,2.4,0.5,5,0,7.5c-0.5,2.5-1.6,4.9-3,7c-1.5,2.1-3.3,4-5.4,5.5
						c-4.2,3.1-9,5.2-13.7,7.1c-4.8,1.9-9.6,3.5-14.1,5.4c-2.3,1-4.4,2-6.4,3.3c-2,1.3-3.9,2.8-4.9,4.8c-0.5,1-0.9,2.1-1,3.2
						c-0.1,1.1-0.3,2.1-0.4,3.2c-0.3,2.1-0.5,4.1-0.8,6.1c-0.8,7.8-1.4,14.3-1.7,18.8c-0.3,3.4-0.5,5.8-0.5,6.7c0,0,0,0,0,0
						c0.1-0.9,0.3-3.3,0.6-6.7c0.2-2.3,0.5-5,0.8-8.2c0.3-3.2,0.7-6.7,1.1-10.6c0.3-1.9,0.5-4,0.8-6.1c0.1-1,0.3-2.1,0.4-3.2
						c0.1-1.1,0.4-2.1,0.9-3.1c1-2,2.9-3.4,4.8-4.7c2-1.2,4.2-2.2,6.4-3.2c4.5-1.9,9.3-3.5,14.1-5.3c4.8-1.9,9.7-3.9,13.9-7.1
						c2.1-1.6,4-3.5,5.5-5.6c1.5-2.2,2.5-4.6,3.1-7.2C431,404.7,431,402.1,430.4,399.6z"/>
				</g>
				<g class="st21">
					<path class="st17" d="M361.2,434.9c3,2,5.7,4.6,6.9,7.8l0.5,3.8c0.7-1,1.7-2,2.8-2.6c3.9-2.3,8.7,0.5,9.7,5l0.7-6.2
						c1.8-4.9,7.1-8.3,11.8-10.5c-3.5,1.3-12.6,4.3-19.2,4.6C367.3,437,362.4,435.4,361.2,434.9z"/>
				</g>
				<path class="st17" d="M325.5,391.3c0,0,15.9-26.6,66-20c0,0-51.5,1.7-63.8,32.1C327.7,403.4,325,397.1,325.5,391.3z"/>
				<path class="st17" d="M369.7,447l3.4,30.6c0,0,1.5,0.5,1.8,0c0.3-0.5-2.6-33-2.6-33S370.5,444.7,369.7,447z"/>
			</g>
		</g>
		<g>
			<path class="st8" d="M389.4,23.6c0,1.3-3.9,2.3-8.7,2.3c-4.8,0-8.7-1-8.7-2.3c0-1.3,3.9-2.3,8.7-2.3
				C385.5,21.3,389.4,22.3,389.4,23.6z"/>
			<path class="st9" d="M380.7,26.4L380.7,26.4c-4.6,0-9.2-1-9.2-2.8c0-1.9,4.6-2.8,9.2-2.8c4.6,0,9.2,1,9.2,2.8
				C389.9,25.5,385.2,26.4,380.7,26.4z M380.7,21.8c-5.3,0-8.2,1.2-8.2,1.9c0,0.6,2.9,1.9,8.2,1.9l0,0.5v-0.5c5.3,0,8.2-1.2,8.2-1.9
				C388.9,23,386,21.8,380.7,21.8z"/>
		</g>
		<g>
			<path class="st6" d="M389.4,23.6c0,1.3-3.9,2.3-8.7,2.3c-4.8,0-8.7-1-8.7-2.3c0-1.3,3.9-2.3,8.7-2.3
				C385.5,21.3,389.4,22.3,389.4,23.6z"/>
			<path class="st7" d="M380.7,26.4L380.7,26.4c-4.6,0-9.2-1-9.2-2.8c0-1.9,4.6-2.8,9.2-2.8c4.6,0,9.2,1,9.2,2.8
				C389.9,25.5,385.2,26.4,380.7,26.4z M380.7,21.8c-5.3,0-8.2,1.2-8.2,1.9c0,0.6,2.9,1.9,8.2,1.9l0,0.5v-0.5c5.3,0,8.2-1.2,8.2-1.9
				C388.9,23,386,21.8,380.7,21.8z"/>
		</g>
		<path class="st22" d="M385.9,23.5c0,0.8-2.4,1.4-5.3,1.4c-2.9,0-5.3-0.6-5.3-1.4c0-0.8,2.4-1.4,5.3-1.4
			C383.6,22.1,385.9,22.8,385.9,23.5z"/>
	</g>
</g>
</svg>
