<?xml version="1.0" encoding="utf-8"?>
<!-- Generator: Adobe Illustrator 24.2.3, SVG Export Plug-In . SVG Version: 6.00 Build 0)  -->
<svg version="1.1" id="Layer_1" xmlns="http://www.w3.org/2000/svg" xmlns:xlink="http://www.w3.org/1999/xlink" x="0px" y="0px"
	 viewBox="0 0 750 500" style="enable-background:new 0 0 750 500;" xml:space="preserve">
<style type="text/css">
	.st0{fill:#FFE5D9;}
	.st1{fill:#FFBFA6;}
	.st2{fill:#DEA690;}
	.st3{fill:#736D67;}
	.st4{fill:#822D1F;}
	.st5{clip-path:url(#SVGID_1_);fill:url(#SVGID_2_);}
	.st6{opacity:0.5;fill:#BD5D7D;}
	.st7{fill:#6B462B;}
	.st8{fill:#684313;}
	.st9{fill:#FFFFFF;}
	.st10{fill:#D9916D;}
	.st11{fill:#291B10;}
	.st12{fill:#FFC180;}
</style>
<g id="fever">
	<path class="st0" d="M476.8,416c-4.5-23.7-49.6-35.2-100.8-25.5c-51.2,9.7-89.1,36.7-84.6,60.5c4.5,23.7,49.6,35.2,100.8,25.5
		C443.4,466.9,481.3,439.8,476.8,416z"/>
	<path class="st1" d="M347.5,156.9l32,17.7l-37.1,17.7c37,26.2,25.9,46.1,23.9,77.2c30.2,6.6,40.4,5.9,71.9-4.5
		c3.7-34.8,7.2-62.9-16.5-92.8l-12.4-0.8l-19.8-22L347.5,156.9z"/>
	<path class="st2" d="M389.4,149.3l-41.9,7.6l32,17.7c9.4-2.6,13.8-8.1,20.2-13.8L389.4,149.3z"/>
	<path class="st3" d="M366.3,269.5l-12.6,83.8l2.9,80.2l18.5-1l-0.2-74.5l14.8-55.9l10.9-0.6l-6.7,55l5.3,71.3l19.6,1l-2-64.7
		c9.6-58.7,15.2-57.3,21.5-99.2L366.3,269.5z"/>
	<path class="st4" d="M438.2,265c3.7-34.8,15.1-70.2-16.5-92.8l-12.4-0.8c-5,8.5-12.2,15.2-20.2,15.6c-7.9,0.4-4.3-5.5-9.5-12.4
		l-37.1,17.7c37,26.2,25.9,46.1,23.9,77.2C396.5,276.1,406.7,275.4,438.2,265z"/>
	<g>
		<defs>
			<path id="SVGID_4_" d="M385.9,44.6c-10.4-8-24.4-10-37.2-9.1c-14,1-33.6,0.9-42.4,12.2c-7.6,9.7-6.3,24.9-5.4,37.7
				c-0.2,7.8,0.5,21.7,0.1,28.9c-0.7,10.5-5.5,24.2,0.5,34.1c2.2,3.6,11,17.8,16.7,21.2c9.5,5.7,18,8.3,28.7,5.4
				c18-4.9,51.8-8.5,56.9-30.2c3-12.7,0.9-26.6-0.2-39.5c-0.6-7.8,3.3-21.7,3.2-29.5c0-3.8-0.2-7.6-0.3-11.3
				C405.8,50.9,392.8,49.9,385.9,44.6z"/>
		</defs>
		<use xlink:href="#SVGID_4_"  style="overflow:visible;fill:#FFBFA6;"/>
		<clipPath id="SVGID_1_">
			<use xlink:href="#SVGID_4_"  style="overflow:visible;"/>
		</clipPath>
		
			<radialGradient id="SVGID_2_" cx="465.2646" cy="-71.851" r="67.8394" gradientTransform="matrix(1.717 -1.220000e-02 4.600000e-03 0.6377 -336.0879 112.4496)" gradientUnits="userSpaceOnUse">
			<stop  offset="0" style="stop-color:#F28181"/>
			<stop  offset="0.2266" style="stop-color:#F38684"/>
			<stop  offset="0.4936" style="stop-color:#F6948C"/>
			<stop  offset="0.7797" style="stop-color:#FBAC9B"/>
			<stop  offset="0.9636" style="stop-color:#FFBFA6"/>
		</radialGradient>
		<path class="st5" d="M578.9,60.1c-0.2-23.9-52.5-42.9-116.8-42.4S345.8,37.9,346,61.8c0.2,23.9,52.5,42.9,116.8,42.4
			C527.1,103.8,579.1,84,578.9,60.1z"/>
	</g>
	<path class="st6" d="M337.6,94.6c-1.3-4.5-3.6-4.4-5.6-2.5c0.1-0.8-11,23.7-12.2,33.8c-1,7.9,4.7,7,11.4,9.2c4.3,1.4,7.6-0.6,8-1.9
		C342.7,120.7,341.3,107.2,337.6,94.6z"/>
	<path class="st7" d="M365.3,97.8c-0.2-3.3-2.7-5.8-5.6-5.6c-2.9,0.2-5.1,2.9-5,6.2c0.2,3.3,2.7,5.8,5.6,5.6
		C363.3,103.8,365.5,101,365.3,97.8z"/>
	<path class="st7" d="M318,98c-0.2-3.1-2.5-5.4-5.2-5.3c-2.7,0.1-4.8,2.7-4.7,5.8c0.2,3.1,2.5,5.4,5.2,5.3
		C316.1,103.6,318.2,101,318,98z"/>
	<path class="st8" d="M387.9,55.2c5.6,16.1,8.5,32.1,8.3,47.9c5.4-17.9,9.9-20.6,16.7-15.6c3.5-11.9,5.9-24.2,1.1-34.7
		c-4.3-9.4-12.6-13.5-20.2-15c-0.9-7.7-14-14.9-23.6-16.2c-45.2-6.4-44,7.9-65.4,12.1c-9.8,1.9-14.7,0.3-23.2-4.8
		c0.1,9-1.2,18.6,4.2,24.9c3.2,3.7,8.6,8.1,14.7,9.4C333.4,70.1,362.9,50.6,387.9,55.2z"/>
	<path class="st1" d="M422.8,100c1.6-7.9-2.3-15.3-8.7-16.6c-6.4-1.3-12.9,4-14.5,11.8c-1.6,7.9,2.3,15.3,8.7,16.6
		C414.7,113.2,421.2,107.9,422.8,100z"/>
	<path class="st7" d="M319.8,88c0-0.5-0.1-1-0.2-1.6c-0.3-1.2-1.7-0.8-1.7,0.4c0.1,4.8-4.7,5.4-7.6,5.6c-1.6,0.1-3.2,0.6-4.8,1.1
		c-0.7,0.1-1.5,0.3-2.2,0.6c-1.7,0.7-0.8,3.4,0.9,3c0.8-0.2,1.5-0.4,2.3-0.7c0.4-0.1,0.8-0.1,1.2-0.2c0.9,0,1.9-0.1,2.8-0.3
		c0.9-0.1,1.9-0.1,2.8-0.3c1,0.3,2.2,0,3-0.1c0.1,0,0.2-0.1,0.3-0.1c1,0.2,2-0.4,2.6-1.3c0.4-0.7,1-1.9,0.8-2.9
		C320.1,90.2,320,89.1,319.8,88z"/>
	<path class="st7" d="M351.9,87.7c0-0.5,0-1,0.1-1.6c0.2-1.2,1.9-0.9,2,0.2c0.4,4.8,6.1,4.8,9.6,4.7c1.9-0.1,3.8,0.3,5.7,0.6
		c0.9,0.1,1.8,0.2,2.7,0.4c2,0.5,1.3,3.3-0.7,3.1c-0.9-0.1-1.8-0.2-2.8-0.4c-0.5,0-0.9-0.1-1.4-0.1c-1.1,0.1-2.2,0.1-3.3,0.1
		c-1.1,0-2.3,0.1-3.4,0c-1.1,0.4-2.6,0.3-3.6,0.2c-0.1,0-0.2,0-0.3-0.1c-1.1,0.4-2.4-0.1-3.2-1c-0.6-0.6-1.4-1.8-1.3-2.8
		C351.9,89.9,351.9,88.8,351.9,87.7z"/>
	<path class="st9" d="M380.7,64.1c0.1,2.1-0.6,3.8-1.5,3.8c-0.9,0-1.8-1.6-1.9-3.7c-0.1-2.1,0.6-3.8,1.5-3.8
		C379.8,60.4,380.6,62,380.7,64.1z"/>
	<path class="st9" d="M307.5,72.4c0.1,2.5-0.7,4.6-1.8,4.6c-1.1,0.1-2.1-1.9-2.2-4.4c-0.1-2.5,0.7-4.6,1.8-4.6
		C306.4,67.9,307.4,69.9,307.5,72.4z"/>
	<path class="st9" d="M357.3,68.4c0.1,2.5-0.7,4.6-1.8,4.7c-1.1,0.1-2.1-1.9-2.3-4.4c-0.1-2.5,0.7-4.6,1.8-4.6
		C356.2,63.9,357.2,65.9,357.3,68.4z"/>
	<path class="st9" d="M393.2,99.7c0.1,2.4-0.6,4.4-1.7,4.4c-1.1,0.1-2-1.8-2.1-4.2c-0.1-2.4,0.6-4.4,1.7-4.4
		C392.1,95.4,393,97.3,393.2,99.7z"/>
	<path class="st9" d="M388.4,82.1c0.1,2-0.5,3.7-1.4,3.7c-0.9,0-1.7-1.5-1.8-3.6c-0.1-2,0.5-3.7,1.4-3.7
		C387.5,78.5,388.3,80.1,388.4,82.1z"/>
	<path class="st9" d="M370,73.7c0.1,2.6-0.7,4.8-1.9,4.9c-1.2,0.1-2.2-2-2.4-4.7c-0.1-2.6,0.7-4.8,1.9-4.9
		C368.8,69,369.8,71.1,370,73.7z"/>
	<path class="st9" d="M342.6,69.1c0.1,2.3-0.6,4.2-1.7,4.3c-1,0.1-2-1.8-2.1-4.1c-0.1-2.3,0.6-4.2,1.7-4.3
		C341.5,65,342.4,66.8,342.6,69.1z"/>
	<path class="st9" d="M325.3,71.9c0.1,2.3-0.6,4.2-1.6,4.2c-1,0.1-1.9-1.8-2.1-4c-0.1-2.3,0.6-4.2,1.6-4.2
		C324.3,67.8,325.2,69.6,325.3,71.9z"/>
	<path class="st10" d="M412.1,100.2c-0.1-2.1-1.7-3.8-3.6-3.7c-1.9,0.1-3.4,1.9-3.2,4c0.1,2.1,1.7,3.8,3.6,3.7
		C410.7,104.1,412.2,102.3,412.1,100.2z"/>
	<path class="st10" d="M407.3,100.4c-0.2-4.1,2.6-7.6,6.3-7.8c1.3-0.1,2.5,0.3,3.6,1c-1.3-1.9-3.4-3-5.6-2.9
		c-3.7,0.2-6.5,3.7-6.3,7.8c0.1,2.7,1.5,4.9,3.5,6.1C407.9,103.5,407.4,102,407.3,100.4z"/>
	<path class="st11" d="M418,431.9c0,0,3.8,9.3,1.5,10.8c-10.6,6.9-20.4,16.6-27.6,16.9c-3.9,0.1-11-7.4-6.4-12
		c3.9-3.9,9.6-2.3,15.6-18C402.7,425.7,418,431.9,418,431.9z"/>
	<path class="st11" d="M375.4,435.5c0,0,1.4,10-1.1,10.9c-11.9,4.1-23.9,11.2-30.8,9.7c-3.8-0.8-8.9-9.8-3.3-13.2
		c4.8-2.9,9.9,0.1,19.5-13.7C362.1,425.7,375.4,435.5,375.4,435.5z"/>
	<path class="st3" d="M354.7,423.9c1.2,5.8-1,3.4-0.6,7.8c0.3,3.6,6,2.2,11.9,3c5.5,0.8,9.3,7.2,11.2,2.3c2-5.1-2.2-8.3-2.7-14.2
		L354.7,423.9z"/>
	<path class="st3" d="M398.6,421.7c1.2,5.8-1,3.4-0.6,7.8c0.3,3.6,6,2.2,11.9,3c5.5,0.8,9.3,7.2,11.2,2.3c2-5.1-2.2-8.3-2.7-14.2
		L398.6,421.7z"/>
	<path class="st12" d="M290.5,96.8c3-4.2,1.3-4.8,3.8-10.6c0.3-1,2.1-1.4,4-0.9c1.9,0.5,2.2,2.4,1.9,3.4c-2.6,4.8-2.1,21.6-3.4,22
		c-0.7,0.2-3.5,4.1-3.5,4.1l1,16.8c-0.2,2.5-2.4,4.4-5,4.2l-7.8-0.6c-2.6-0.2-4.4-2.4-4.2-5l2.7-18.4c-1.3-0.9-2.1-2.5-1.9-4.1
		c0.3-31.9,10.1-30.1,14.2-39.8c0.4-1,1.9-4.5,3.9-4.2c2,0.3,2.4,4,2.2,5.1c-1.3,6.4-4.7,10.5-7,19.4
		C291.1,89,288.5,99.7,290.5,96.8z"/>
	<path class="st12" d="M455,317.9c-2.2,3.8-0.8,4.2-2.5,9.2c-0.2,0.9-1.7,1.3-3.4,1c-1.7-0.3-2-1.8-1.9-2.7
		c1.9-4.3,0.2-18.4,1.3-18.8c0.6-0.2,2.7-3.7,2.7-3.7l-2-14.1c0-2.2,1.8-3.9,3.9-3.9l6.6,0c2.2,0,3.9,1.7,3.9,3.9l-1,15.8
		c1.2,0.7,1.9,1.9,1.9,3.4c2,27-6.4,26.2-9.2,34.7c-0.3,0.8-1.3,3.9-3,3.8c-1.7-0.1-2.3-3.2-2.2-4.1c0.6-5.5,3.2-9.2,4.5-16.9
		C455.1,324.5,456.5,315.3,455,317.9z"/>
	<path class="st4" d="M444.7,300.2c1.3-31.9,2.4-47.4-12.7-97.5l-10.3-30.6c41.1,14.9,42.9,69,43.4,130.3L444.7,300.2z"/>
	<path class="st7" d="M324.2,159.1c-0.5,2.3,3.6,3.2,8.2,3.8c4.6,0.5,8.1,0.3,8.4-1.9c0.2-2.1-3-5.3-7.6-5.8
		C328.6,154.6,324.5,157.8,324.2,159.1z"/>
	<path class="st4" d="M295.6,124c-11.6,58.5,39.1,63.2,83.9,50.6l-12.8,31.5c-78.6,2.3-107.3-43.2-88.1-89.2L295.6,124z"/>
</g>
</svg>
