<?xml version="1.0" encoding="utf-8"?>
<!-- Generator: Adobe Illustrator 24.2.3, SVG Export Plug-In . SVG Version: 6.00 Build 0)  -->
<svg version="1.1" id="Layer_1" xmlns="http://www.w3.org/2000/svg" xmlns:xlink="http://www.w3.org/1999/xlink" x="0px" y="0px"
	 viewBox="0 0 750 500" style="enable-background:new 0 0 750 500;" xml:space="preserve">
<style type="text/css">
	.st0{fill:#CE8453;}
	.st1{fill:#944A24;}
	.st2{opacity:0.6;fill:#CE8453;}
	.st3{opacity:0.8;}
	.st4{fill:#EA9553;}
	.st5{opacity:0.6;}
	.st6{font-family:'MyriadPro-Regular';}
	.st7{font-size:48px;}
</style>
<g>
	<g>
		<g>
			<path class="st0" d="M518.5,151.8C474.4,93.6,391,93.5,391,93.5h-32.1c0,0-83.3,0.1-127.5,58.2c-44.2,58.2,4.1,92.3,64,113.4
				c0,0,49.4,10.6,60,38.8l12.1,101.2c2,1,5.1,1,6.9,1.1c2.8,0.2,5.4,0,7.9-0.9L394.6,304c10.6-28.2,60-38.8,60-38.8
				C514.5,244,562.7,209.9,518.5,151.8z"/>
			<path class="st1" d="M376.4,407.8L376.4,407.8c-0.7,0-1.3,0-2,0l-0.9-0.1c-1.9-0.1-4.5-0.3-6.4-1.2c-0.5-0.2-0.7-0.6-0.8-1.1
				l-12.1-101.1c-10.3-27.1-58.4-37.7-58.9-37.8c-47.1-16.6-73.3-36.1-80.4-59.7c-5.1-16.8,0.2-35.6,15.6-55.9
				c44-58,127.7-58.8,128.6-58.8H391c0.9,0,84.6,0.8,128.6,58.8c15.4,20.2,20.6,39,15.6,55.9c-7.1,23.6-33.3,43.1-80.2,59.7
				c-0.6,0.2-48.8,10.8-59.1,37.8l-12.2,101.3c-0.1,0.5-0.4,0.9-0.9,1.1C380.9,407.5,378.7,407.8,376.4,407.8z M368.9,404.3
				c1.4,0.4,3.3,0.6,4.8,0.7l1,0c0.6,0.1,1.2,0.1,1.8,0.1l0,0c1.7,0,3.3-0.2,4.8-0.7l12.1-100.6c0-0.1,0-0.2,0.1-0.3
				c10.7-28.6,58.9-39.2,61-39.7c45.2-15.9,71.6-35.4,78.3-57.8c4.8-16-0.3-33.9-15.1-53.4C474.2,95.7,391.9,94.9,391,94.9h-32.1
				c-0.8,0-83.2,0.8-126.4,57.7c-14.8,19.5-19.9,37.5-15.1,53.4c6.7,22.4,33.1,41.8,78.5,57.8c1.8,0.4,50.1,11,60.8,39.6
				c0,0.1,0.1,0.2,0.1,0.3L368.9,404.3z"/>
		</g>
		<path class="st2" d="M518.5,151.8c-12.5-16.4-28.1-28.2-44-36.7c13.6,16.6,18.4,39,9.2,59.4c-23.3,51.6-84.7,63.4-135.6,62.5
			c-36.1-0.7-93.8-4-113.2-40.8c-6.3-12-7.1-28.9-3.2-44.7c-0.1,0.1-0.2,0.3-0.4,0.4c-44.2,58.2,4.1,92.3,64,113.4
			c0,0,49.4,10.6,60,38.8l12.1,101.2c2,1,5.1,1,6.9,1.1c2.8,0.2,5.4,0,7.9-0.9L394.6,304c10.6-28.2,60-38.8,60-38.8
			C514.5,244,562.7,209.9,518.5,151.8z"/>
		<g class="st3">
			<path class="st4" d="M366,404.1L366,404.1c-0.2-3.1-0.7-9.3-1.4-18.1c-1-12.9-2.7-31.5-5-53.6c-0.7-5.5-1.4-11.3-2.2-17.2
				c-0.4-3-0.8-6-1.1-9.1c-0.2-3.1-1.2-6.3-2.7-9.1c-3.1-5.8-8.5-10.1-14.1-13.7c-5.7-3.6-12-6.5-18.4-9.3
				c-12.9-5.4-26.6-10-40.1-15.4c-13.5-5.4-27.3-11.3-39.2-20.1c-5.9-4.4-11.2-9.7-15.4-15.7c-4.2-6-7.1-12.8-8.7-19.9
				c-1.5-7.1-1.6-14.4-0.1-21.3c2.3-6.7,5-13.3,8.5-19.2c0.8-1.5,1.7-3,2.7-4.4c0.9-1.4,1.9-2.9,2.8-4.3c2.1-2.7,4-5.5,6.3-7.9
				c4.3-5.1,9.1-9.5,14-13.6c4.9-4.1,10.1-7.5,15.2-10.6c5.2-3,10.3-5.8,15.4-8c10.1-4.6,19.9-7.7,28.6-10.1
				c8.7-2.4,16.5-3.8,22.9-4.8c12.9-1.9,20.3-2,20.3-2s-7.5,0-20.3,1.8c-6.4,0.9-14.2,2.3-23,4.5c-8.8,2.3-18.6,5.3-28.8,9.9
				c-5.2,2.2-10.3,5-15.5,8c-5.1,3.2-10.4,6.6-15.3,10.6c-4.9,4.1-9.8,8.5-14.2,13.7c-2.3,2.5-4.2,5.3-6.4,8
				c-0.9,1.4-1.9,2.9-2.9,4.3c-1,1.4-1.9,2.9-2.7,4.5c-3.6,6-6.3,12.6-8.7,19.4c-1.6,7.1-1.5,14.6,0,21.8c1.5,7.2,4.5,14.2,8.8,20.4
				c4.3,6.1,9.6,11.6,15.6,16.1c12.1,8.9,25.9,14.8,39.6,20.2c13.6,5.3,27.3,9.8,40.2,15.2c6.4,2.7,12.6,5.6,18.3,9.1
				c5.6,3.6,10.8,7.8,13.8,13.4c1.5,2.8,2.4,5.7,2.7,8.8c0.4,3.1,0.8,6.1,1.2,9.1c0.7,6,1.5,11.7,2.2,17.2
				c1.2,11.1,2.3,21.2,3.2,30.2c0.9,9,1.7,16.9,2.3,23.3C365.2,394.8,365.7,401,366,404.1z"/>
			<path class="st4" d="M365.4,386.9c0.8,9.1,1.3,15.3,1.5,17.9c0,0,0,0,0,0c-0.2-2.7-0.6-8.9-1.3-18c-0.5-6.2-1-13.7-1.7-22.3
				c-0.7-8.6-1.6-18.3-2.5-28.9c-0.4-5.3-1.1-10.8-1.8-16.5c-0.3-2.8-0.6-5.7-1-8.7c-0.2-1.5-0.3-3-0.5-4.5l-0.2-2.2l-0.5-2.3
				c-1.5-6.1-5.6-11.4-10.6-15.4c-4.9-4.2-10.7-7.4-16.6-10.4c-12-5.9-24.9-10.7-37.7-16.1c-12.8-5.5-25.7-11.6-36.8-20.3
				c-5.5-4.3-10.4-9.6-14.2-15.3c-3.9-5.8-6.6-12.3-8.1-19.1c-1.5-6.7-1.9-13.7-1-20.4c0.3-3.4,1.7-6.4,2.7-9.7
				c1.2-3.1,2.5-6.2,3.8-9.2c5.7-11.9,13.3-22.5,22.1-30.8c2.1-2.2,4.5-4,6.7-6c2.4-1.8,4.6-3.7,6.9-5.3c4.6-3.4,9.4-6.1,14.1-8.6
				c9.4-4.9,18.5-8.5,26.7-11c8.2-2.5,15.6-4.2,21.7-5.2c12.2-2.1,19.4-2.2,19.4-2.2s-7.1,0-19.4,2c-6.1,1-13.5,2.5-21.8,5
				c-8.3,2.4-17.5,5.9-27,10.8c-4.7,2.5-9.5,5.3-14.2,8.7c-2.4,1.6-4.6,3.4-7,5.2c-2.2,2-4.6,3.8-6.7,6.1c-4.5,4.2-8.6,9-12.4,14.1
				c-3.8,5.2-7.1,10.9-10,16.9c-1.4,3-2.7,6.1-3.9,9.3c-1,3.2-2.5,6.4-2.8,9.9c-0.9,6.9-0.6,13.9,1,20.8c1.5,6.9,4.3,13.5,8.2,19.5
				c4,6,8.9,11.2,14.5,15.7c11.3,8.8,24.3,14.9,37.2,20.3c12.9,5.5,25.8,10.1,37.7,16c5.9,3,11.7,6.1,16.5,10.2
				c4.9,4,8.9,9.1,10.3,14.9l0.5,2.2l0.3,2.2c0.2,1.5,0.4,3,0.5,4.4c0.3,2.9,0.7,5.8,1,8.7c0.6,5.7,1.4,11.2,1.8,16.5
				c1,10.6,1.9,20.3,2.8,28.9C364.2,373.3,364.9,380.8,365.4,386.9z"/>
			<path class="st4" d="M364.7,366.6c0.7,8.2,1.2,15.3,1.7,21.2c0.7,9.1,1.2,15.2,1.3,17.5c0,0,0,0,0,0c-0.1-2.3-0.5-8.4-1.1-17.5
				c-0.8-11.8-1.9-28.7-3.6-48.9c-0.7-10.1-2-21-3.1-32.6c-0.2-2.9-0.8-5.9-1.9-8.7c-1.1-2.8-2.8-5.4-4.7-7.8
				c-4-4.8-9.1-8.6-14.5-11.8c-10.9-6.6-23.1-11.6-35.1-17.2c-12-5.7-24.1-11.8-34.4-20.5c-10.3-8.6-17.7-20.5-20.7-33.4
				c-1.6-6.4-2-13-1.6-19.4c0.2-3.2,0.6-6.4,1.7-9.4c0.5-1.5,0.9-3,1.4-4.6c0.6-1.5,1.1-3,1.7-4.5c4.4-11.8,10.9-22.3,18.3-31.2
				c7.6-8.8,16-15.9,24.6-21.2c8.6-5.4,17.1-9.2,24.8-12c7.7-2.8,14.7-4.6,20.5-5.8c5.8-1.2,10.4-1.7,13.5-2.1
				c3.2-0.3,4.9-0.3,4.9-0.3s-1.7,0-4.9,0.3c-3.1,0.3-7.8,0.8-13.6,1.9c-5.8,1.2-12.8,2.8-20.6,5.5c-7.8,2.7-16.4,6.5-25,11.9
				c-8.7,5.3-17.2,12.4-24.9,21.2c-7.5,8.9-14.1,19.5-18.6,31.4c-0.6,1.5-1.1,3-1.7,4.5c-0.5,1.6-0.9,3.1-1.4,4.6
				c-1.1,3-1.6,6.4-1.8,9.6c-0.4,6.6,0,13.3,1.6,19.8c3,13.1,10.5,25.3,21,34.1c10.4,8.9,22.7,15,34.8,20.6
				c12,5.6,24.2,10.5,35.1,17c5.4,3.2,10.4,7,14.3,11.6c1.9,2.3,3.5,4.8,4.6,7.6c1,2.8,1.6,5.5,1.9,8.5c1.2,11.6,2.5,22.5,3.3,32.5
				C363.3,349.1,364.1,358.4,364.7,366.6z"/>
			<path class="st4" d="M366,368.5c0.6,7.8,1,14.6,1.4,20.2c0.6,9.2,1,15,1.2,16.9l0,0c-0.1-1.9-0.4-7.8-1-16.9
				c-0.3-5.6-0.7-12.5-1.2-20.3c-0.5-7.8-1.2-16.6-2-26.3c-0.8-9.6-1.6-20-2.5-31.1c-0.3-2.8-0.3-5.5-0.8-8.4
				c-0.4-2.9-1.4-5.7-2.6-8.3c-2.6-5.3-6.9-9.8-11.7-13.5c-9.6-7.5-21-12.8-32.2-18.7c-11.2-5.8-22.5-12.1-31.9-20.9
				c-9.4-8.6-16-20.1-18.9-32.3c-1.5-6.1-2.2-12.4-2-18.5c0-3.1,0.2-6.2,0.7-9.1c0.8-2.9,1.5-5.9,2.4-8.7
				c3.6-11.5,8.5-22.1,14.8-31.2c3.1-4.5,6.5-8.6,10-12.5c3.6-3.7,7.3-7.1,11.2-10c7.6-5.9,15.4-10.2,22.5-13.3
				c7.2-3.1,13.7-5.1,19.2-6.5c5.5-1.3,9.9-2,12.9-2.3c3-0.3,4.6-0.4,4.6-0.4s-1.6,0-4.6,0.3c-3,0.3-7.4,0.9-12.9,2.1
				c-5.5,1.2-12.1,3.2-19.3,6.2c-7.2,3.1-15.2,7.3-22.8,13.2c-3.9,2.9-7.6,6.3-11.3,10.1c-3.6,3.8-7.1,7.9-10.2,12.5
				c-6.4,9.1-11.4,19.8-15,31.4c-0.9,2.9-1.7,5.8-2.4,8.9c-0.5,3.1-0.8,6.2-0.8,9.3c-0.1,6.3,0.5,12.6,2,18.8
				c2.9,12.4,9.5,24.3,19.1,33.1c9.6,8.8,21.1,15.1,32.3,20.9c11.2,5.9,22.6,11.1,32.1,18.4c4.7,3.7,8.9,8,11.4,13.1
				c1.2,2.6,2.2,5.3,2.6,8c0.4,2.8,0.5,5.6,0.8,8.3c0.9,11,1.8,21.4,2.6,31C364.6,351.8,365.4,360.7,366,368.5z"/>
			<path class="st4" d="M363.3,315.7c0.8,10.5,1.5,20.4,2.1,29.6c0.6,9.2,1.4,17.5,1.8,25c0.5,7.4,0.9,13.9,1.2,19.3
				c0.5,9,0.9,14.7,1,16.3h0c-0.1-1.6-0.4-7.3-0.8-16.3c-0.2-5.4-0.6-11.9-0.9-19.3c-0.3-7.5-1-15.8-1.5-25
				c-0.6-9.1-1.3-19.1-2-29.6c-0.2-2.6-0.4-5.3-0.5-8c-0.2-2.7-0.3-5.5-1-8.2c-1.2-5.5-4.3-10.6-8.1-14.9
				c-7.9-8.6-18.5-14.5-28.8-20.7c-10.3-6.2-20.8-12.6-29.3-21.4c-8.5-8.6-14.3-19.8-17-31.4c-1.4-5.8-2.1-11.8-2.2-17.6
				c-0.1-5.9,0.1-11.7,1.9-17.2c0.7-2.8,1.4-5.5,2.1-8.2c0.3-1.4,0.8-2.7,1.3-4c0.5-1.3,1-2.6,1.4-3.9c1-2.6,1.8-5.2,3-7.6
				c1.2-2.4,2.4-4.8,3.6-7.1c0.6-1.2,1.1-2.4,1.8-3.4c0.7-1.1,1.4-2.2,2.1-3.2c1.4-2.1,2.7-4.3,4.2-6.3c3.2-3.7,6-7.7,9.4-10.7
				c6.4-6.5,13.5-11.2,20-14.9c1.6-0.8,3.3-1.7,4.8-2.5c1.6-0.8,3.1-1.3,4.6-2c2.9-1.3,5.8-2.1,8.3-3c5.2-1.4,9.3-2.3,12.1-2.6
				c2.8-0.4,4.4-0.4,4.4-0.4s-1.5,0-4.4,0.4c-2.9,0.3-7,1.1-12.2,2.5c-2.5,0.8-5.4,1.6-8.4,2.8c-1.5,0.6-3.1,1.2-4.7,1.9
				c-1.6,0.8-3.2,1.6-4.9,2.4c-6.5,3.6-13.7,8.2-20.2,14.8c-3.5,3-6.3,7-9.6,10.7c-1.5,2-2.8,4.2-4.2,6.3c-0.7,1.1-1.4,2.1-2.1,3.2
				c-0.7,1.1-1.2,2.3-1.8,3.5c-1.2,2.4-2.4,4.7-3.6,7.2c-1.2,2.4-2,5.1-3,7.7c-0.5,1.3-1,2.6-1.5,3.9c-0.5,1.3-1,2.6-1.3,4
				c-0.7,2.7-1.4,5.5-2.2,8.3c-1.8,5.5-2.1,11.6-2,17.4c0.1,5.9,0.8,12,2.2,17.9c2.7,11.8,8.5,23.3,17.2,32.1
				c8.7,8.9,19.3,15.3,29.7,21.5c10.3,6.2,20.9,11.9,28.6,20.3c3.9,4.2,6.7,9.1,8,14.4c0.7,2.6,0.9,5.3,1.1,8
				C362.9,310.4,363.1,313.1,363.3,315.7z"/>
			<path class="st4" d="M365.3,320c0.6,10,1.2,19.5,1.7,28.2c0.5,8.7,1.1,16.7,1.4,23.8c0.4,7.1,0.7,13.3,1,18.4
				c0.5,8.8,0.8,14.3,0.9,15.6l0,0c0-1.4-0.3-6.9-0.6-15.7c-0.2-5.1-0.4-11.3-0.7-18.4c-0.2-7.1-0.7-15.1-1.2-23.9
				c-0.5-8.7-1-18.2-1.6-28.2c-0.3-5-0.6-10.1-0.9-15.4c-0.7-5.2-1.7-10.7-4.7-15.5c-2.8-4.7-6.5-9.1-10.9-12.8
				c-4.3-3.7-8.9-7.1-13.6-10.3c-9.3-6.6-19-13.4-26.5-22.2c-1.8-2.2-3.7-4.4-5.2-6.9c-0.8-1.2-1.6-2.4-2.3-3.7l-2-3.8
				c-2.5-5.2-4.3-10.7-5.5-16.2c-1.3-5.6-2-11.2-2.3-16.8c-0.2-5.6-0.2-11.2,0.8-16.5c0.6-2.6,1.2-5.3,1.7-7.9
				c0.6-2.6,1-5.2,1.9-7.7c0.8-2.5,1.6-5,2.4-7.4c0.4-1.2,0.7-2.5,1.2-3.6c0.5-1.2,1-2.3,1.5-3.5c1-2.3,1.9-4.5,2.9-6.8
				c1.1-2.2,2.3-4.2,3.4-6.3c2.1-4.2,5-7.8,7.4-11.4c1.4-1.7,2.8-3.2,4.2-4.8c0.7-0.8,1.4-1.6,2-2.3c0.7-0.7,1.5-1.4,2.2-2.1
				c1.5-1.3,2.9-2.7,4.3-3.9c1.5-1.1,3-2.2,4.4-3.3c5.8-4,11.3-6.9,16.1-8.6c2.4-1,4.6-1.5,6.5-2.1c1.9-0.4,3.6-0.9,4.9-1
				c2.7-0.5,4.1-0.5,4.1-0.5s-1.4,0-4.2,0.5c-1.4,0.1-3,0.6-4.9,1c-1.9,0.6-4.1,1.1-6.5,2c-4.9,1.6-10.4,4.5-16.4,8.5
				c-6,3.9-11.8,9.6-17.4,16.4c-2.5,3.6-5.4,7.2-7.5,11.4c-1.1,2.1-2.4,4.1-3.5,6.3c-0.9,2.2-1.9,4.5-2.9,6.8
				c-0.5,1.2-1,2.3-1.5,3.5c-0.5,1.2-0.8,2.4-1.2,3.7c-0.8,2.4-1.6,5-2.4,7.5c-0.9,2.5-1.3,5.1-1.9,7.8c-0.6,2.6-1.2,5.3-1.8,8
				c-1,5.4-1,11.1-0.8,16.7c0.3,5.6,0.9,11.4,2.2,17c1.3,5.7,3.1,11.2,5.5,16.5l2,3.9c0.8,1.3,1.6,2.5,2.4,3.7
				c1.4,2.5,3.4,4.8,5.2,7.1c7.7,8.9,17.5,15.7,26.9,22.2c9.3,6.5,18.8,13.2,24.2,22.7c2.9,4.6,4,9.9,4.6,15
				C364.6,309.8,364.9,315,365.3,320z"/>
			<path class="st4" d="M365.2,298c0.3,1.2,0.4,2.5,0.6,3.8c0.4,2.5,0.4,5.1,0.6,7.6c0.2,5,0.5,9.9,0.7,14.7
				c0.4,9.6,0.9,18.6,1.3,26.9c1.6,31.4,2.7,52.9,2.8,55.3l0,0c-0.1-2.4-0.9-23.9-2.1-55.3c-0.4-8.3-0.7-17.4-1.1-26.9
				c-0.2-4.8-0.4-9.7-0.6-14.7c-0.2-2.5-0.1-5-0.6-7.6c-0.2-1.3-0.3-2.6-0.5-3.9c-0.4-1.3-0.7-2.5-1-3.8c-1.7-5-4.2-9.9-7.6-14
				c-3.4-4.2-7.4-8-11.5-11.6c-4.1-3.6-8.3-7.2-12.4-10.9c-4-3.8-7.8-7.8-11.1-12.3c-3.1-4.4-6.2-9.2-8-14.3L313,227
				c-0.5-1.3-1-2.5-1.3-3.9c-0.7-2.7-1.4-5.3-2-7.9c-2.1-10.7-2.8-21.5-2-31.8c0.1-2.6,0.7-5.1,1.1-7.6c0.4-2.5,0.9-5,1.3-7.5
				c1-4.9,2.4-9.6,3.5-14.3c0.7-2.2,1.5-4.4,2.3-6.7c0.8-2.2,1.4-4.4,2.4-6.4c1.9-4,3.5-8.1,5.7-11.6c3.9-7.4,8.9-13.3,13.6-18.1
				c4.8-4.8,9.8-8,14.1-10.2c4.3-2.3,8-3.3,10.5-3.9c2.6-0.6,3.9-0.6,3.9-0.6s-1.4,0-4,0.6c-2.5,0.6-6.3,1.5-10.6,3.7
				c-4.3,2.2-9.5,5.3-14.3,10.1c-4.8,4.8-9.9,10.7-13.9,18c-2.3,3.6-3.9,7.6-5.8,11.7c-1.1,2-1.6,4.2-2.5,6.4
				c-0.8,2.2-1.6,4.4-2.3,6.7c-1.2,4.7-2.6,9.4-3.6,14.3c-0.4,2.5-0.9,5-1.4,7.5c-0.4,2.5-1.1,5.1-1.2,7.7
				c-0.8,10.5-0.2,21.3,1.9,32.2c0.7,2.7,1.3,5.4,2,8.1c0.3,1.4,0.8,2.6,1.3,4l1.5,3.9c1.9,5.3,4.9,10,8.1,14.7
				c3.4,4.5,7.3,8.6,11.3,12.4c4.1,3.8,8.3,7.3,12.5,10.9c4.1,3.6,8.1,7.3,11.4,11.4c3.4,4.1,5.9,8.8,7.5,13.6
				C364.5,295.5,364.9,296.7,365.2,298z"/>
			<path class="st4" d="M367.4,298.9c0.7,4.9,0.7,9.8,0.9,14.6c0.2,4.8,0.4,9.5,0.5,14.1c0.3,9.1,0.6,17.8,1,25.7
				c1.3,30.6,2.1,51.3,2.2,52.9l0,0c-0.1-1.7-0.6-22.4-1.5-53c-0.3-8-0.5-16.6-0.8-25.8c-0.1-4.6-0.3-9.3-0.4-14
				c-0.2-4.8-0.2-9.7-0.8-14.7c-0.8-4.9-2.1-10-4.5-14.6c-2.3-4.6-5.4-8.9-8.8-12.9c-6.8-8-14.5-15.4-19.8-24.6
				c-1.5-2.2-2.5-4.6-3.8-6.9c-1-2.4-2.2-4.9-2.9-7.3c-0.8-2.5-1.5-5-2.3-7.5c-0.6-2.6-1.1-5.1-1.6-7.6c-1.8-10.3-2.4-20.6-2.1-30.5
				c0-5,0.9-9.8,1.5-14.5c0.4-2.4,0.6-4.7,1.1-7c0.4-2.3,0.9-4.6,1.3-6.8c1.7-9,4.3-17.2,7-24.7c3-7.3,6.2-14,10-19.2
				c0.9-1.3,1.8-2.6,2.8-3.7c1-1.1,1.9-2.3,2.9-3.3c1-1,2-1.9,2.9-2.8c0.9-0.9,2-1.6,2.8-2.3c3.7-2.8,7.1-4.4,9.5-5.1
				c2.4-0.7,3.7-0.8,3.7-0.8s-1.3,0.1-3.7,0.8c-2.4,0.7-5.8,2.2-9.6,4.9c-0.9,0.7-2,1.4-2.9,2.3c-0.9,0.9-1.9,1.8-3,2.7
				c-1,1-1.9,2.1-2.9,3.2c-1.1,1.1-2,2.4-2.9,3.8c-4,5.2-7.2,11.8-10.3,19.2c-2.8,7.5-5.4,15.8-7.2,24.8c-0.4,2.2-0.9,4.5-1.4,6.8
				c-0.5,2.3-0.7,4.7-1.1,7.1c-0.6,4.7-1.6,9.6-1.6,14.6c-0.3,10,0.2,20.4,2,30.7c0.5,2.6,1,5.2,1.6,7.8c0.8,2.5,1.5,5.1,2.3,7.7
				c0.8,2.6,1.9,5,2.9,7.4c1.3,2.4,2.4,4.9,3.8,7.1c5.5,9.3,13.3,16.8,20.1,24.6c3.4,4,6.4,8.2,8.7,12.7
				C365.2,289.1,366.5,294,367.4,298.9z"/>
			<path class="st4" d="M369.6,303c0.4,9.5,0.6,18.8,0.8,27.6c0.3,8.8,0.5,17.1,0.7,24.7c1,29.8,1.6,49.9,1.6,51l0,0
				c0-1.1-0.4-21.2-0.9-51c-0.2-7.6-0.4-16-0.5-24.7c-0.2-8.8-0.3-18-0.7-27.6c-0.2-4.8-0.9-9.7-2.2-14.5c-1.3-4.8-3.3-9.5-5.8-13.9
				c-2.4-4.5-5.3-8.7-8-12.9c-2.7-4.3-5.2-8.7-7.3-13.3c-2.2-4.6-3.7-9.4-5.1-14.3c-1.1-4.9-2.3-9.8-2.9-14.8
				c-1.4-9.9-1.9-19.8-1.9-29.3c0-4.8,0.2-9.5,0.8-14c0.5-4.6,0.8-9.1,1.5-13.4c0.6-4.3,1.1-8.6,2-12.6c0.8-4.1,1.5-8,2.5-11.7
				c0.4-1.8,0.9-3.7,1.4-5.5c0.5-1.7,1.1-3.5,1.6-5.1c0.9-3.3,2.3-6.4,3.4-9.3c2.6-5.7,5.2-10.4,8.1-13.8c2.8-3.4,5.7-5.6,7.8-6.7
				c2.1-1.1,3.4-1.2,3.4-1.2s-1.3,0.1-3.5,1.2c-2.2,1-5,3.2-8,6.6c-2.9,3.4-5.7,8.2-8.3,13.8c-1.1,2.9-2.6,5.9-3.6,9.3
				c-0.5,1.7-1.1,3.4-1.7,5.1c-0.5,1.8-0.9,3.6-1.4,5.5c-1,3.7-1.8,7.6-2.6,11.7c-0.9,4.1-1.4,8.3-2,12.7c-0.7,4.3-1.1,8.8-1.6,13.4
				c-0.6,4.6-0.8,9.3-0.8,14.1c-0.1,9.6,0.4,19.5,1.7,29.5c0.5,5,1.7,10,2.8,15c1.4,4.9,2.9,9.9,5.1,14.5c2.2,4.7,4.7,9.1,7.5,13.4
				c2.7,4.3,5.6,8.4,8.1,12.8c2.4,4.4,4.4,8.9,5.7,13.6C368.7,293.4,369.3,298.2,369.6,303z"/>
			<path class="st4" d="M369.4,285.1c0.4,2.4,0.8,4.7,1.2,7.1c0.3,2.3,0.4,4.7,0.6,7.1c0.2,2.4,0.4,4.7,0.4,7
				c0.3,18.6,0.6,35.9,0.9,50.7c0.7,29.3,1.1,48.9,1.1,49.4l0,0c0-0.5-0.2-20.1-0.4-49.4c-0.2-14.8-0.4-32.2-0.6-50.7
				c0-2.3-0.2-4.7-0.3-7c-0.2-2.3-0.2-4.7-0.5-7.1c-0.4-2.4-0.8-4.8-1.2-7.2c-0.4-2.4-1.2-4.7-1.8-7.1c-2.8-9.4-7.1-18.4-9.6-27.9
				c-1.5-4.7-2.3-9.6-3.3-14.4c-0.8-4.8-1.2-9.7-1.8-14.5c-0.7-4.8-0.8-9.7-1-14.4c-0.2-4.8-0.4-9.5-0.4-14.1
				c-0.2-9.3,0.5-18.2,1-26.7c0.4-4.3,0.7-8.3,1-12.4c0.4-4,0.9-7.8,1.3-11.5c1.1-7.3,2.1-14,3.5-19.9c1.2-5.9,2.9-10.9,4.5-14.9
				c1.6-4,3.5-6.9,5.1-8.6c0.8-0.8,1.5-1.4,2-1.6c0.5-0.3,0.8-0.3,0.8-0.3s-0.3,0-0.8,0.3c-0.5,0.3-1.3,0.8-2.1,1.6
				c-1.6,1.7-3.5,4.5-5.2,8.5c-1.7,4-3.4,9-4.7,14.9c-1.5,5.9-2.6,12.6-3.7,19.9c-0.4,3.7-0.9,7.5-1.4,11.5c-0.4,4-0.7,8.1-1.1,12.3
				c-0.5,8.5-1.3,17.5-1.1,26.8c-0.1,4.7,0.1,9.4,0.3,14.1c0.2,4.8,0.3,9.6,0.9,14.5c0.6,4.9,0.8,9.8,1.7,14.7
				c1,4.8,1.7,9.7,3.2,14.5c2.7,9.6,7,18.6,9.8,27.9C368.2,280.4,369,282.7,369.4,285.1z"/>
			<path class="st4" d="M373.8,96.5c-0.1-0.1-0.8,1-1.3,3.2c-0.6,2.2-1.1,5.5-1.6,9.7c-1,8.4-1.7,20.5-2.3,35.1
				c-0.3,7.3-0.5,15.2-0.7,23.5c-0.1,4.2-0.1,8.4-0.2,12.8c0,4.4,0,8.9,0,13.4c0,9.1,0.5,18.5,0.7,28.1c0.2,4.8,0.1,9.6,0.6,14.4
				c0.4,4.8,0.8,9.6,1.2,14.5c0.3,4.9,1.1,9.6,1.6,14.4c0.6,4.8,1,9.6,1.5,14.4l0.4,3.6l0.1,3.6c0.1,2.4,0.2,4.7,0.3,7.1
				c0.2,4.7,0.4,9.3,0.4,13.9c0,18.2,0.1,35.2,0.1,49.8c-0.1,29.1-0.1,48.6-0.1,48.6s-0.2-19.4-0.6-48.6
				c-0.1-14.6-0.3-31.6-0.4-49.8c0-4.6-0.3-9.2-0.4-13.9c-0.1-2.3-0.2-4.7-0.3-7l-0.2-3.6l-0.4-3.5c-0.6-4.8-1-9.5-1.6-14.3
				c-0.6-4.8-1.3-9.6-1.7-14.5c-0.4-4.8-0.7-9.7-1.1-14.5c-0.4-4.8-0.3-9.7-0.5-14.4c-0.2-9.6-0.5-19-0.5-28.1c0-4.5,0-9,0.1-13.4
				c0.1-4.4,0.2-8.7,0.3-12.8c0.2-8.3,0.5-16.2,0.8-23.5c0.3-7.3,0.8-13.9,1.2-19.9c0.5-5.9,1-11,1.6-15.2c0.6-4.2,1.1-7.5,1.7-9.7
				C373,97.4,373.7,96.4,373.8,96.5z"/>
			<path class="st4" d="M375.7,96.5c0.1-0.1,0.8,1,1.4,3.2c0.6,2.2,1.2,5.5,1.7,9.7c0.6,4.2,1.1,9.3,1.6,15.2
				c0.5,5.9,0.9,12.6,1.2,19.9c0.3,7.3,0.6,15.2,0.8,23.5c0.1,4.2,0.2,8.5,0.3,12.8c0,4.4,0.1,8.9,0.1,13.4c0,9.1-0.4,18.5-0.5,28.1
				c-0.2,4.8-0.1,9.6-0.5,14.4c-0.4,4.8-0.7,9.7-1.1,14.5c-0.4,4.8-1.2,9.7-1.7,14.5c-0.6,4.8-1.1,9.6-1.6,14.3l-0.4,3.5l-0.2,3.6
				c-0.1,2.4-0.2,4.7-0.3,7c-0.2,4.7-0.4,9.3-0.4,13.9c-0.2,18.2-0.3,35.2-0.4,49.8c-0.4,29.1-0.6,48.6-0.6,48.6s-0.1-19.4-0.1-48.6
				c0-14.6,0-31.6,0.1-49.8c0-4.5,0.2-9.2,0.4-13.9c0.1-2.4,0.2-4.7,0.2-7.1l0.1-3.6l0.4-3.6c0.5-4.8,0.9-9.6,1.5-14.4
				c0.5-4.8,1.3-9.6,1.6-14.4c0.4-4.9,0.8-9.7,1.2-14.5c0.4-4.8,0.4-9.6,0.5-14.4c0.2-9.5,0.7-18.9,0.7-28.1c0-4.5,0-9,0-13.4
				c-0.1-4.4-0.2-8.7-0.2-12.8c-0.2-8.3-0.4-16.2-0.7-23.5c-0.6-14.5-1.3-26.7-2.3-35.1c-0.5-4.2-1-7.5-1.6-9.7
				C376.5,97.4,375.8,96.4,375.7,96.5z"/>
			<path class="st4" d="M377.7,96.5c0,0,0.3,0,0.8,0.3c0.5,0.3,1.3,0.8,2.1,1.6c1.6,1.7,3.5,4.5,5.2,8.5c1.6,4,3.4,9,4.7,14.9
				c1.5,5.9,2.6,12.6,3.7,19.9c0.4,3.7,0.9,7.5,1.4,11.5c0.4,4,0.7,8.1,1.1,12.3c0.5,8.5,1.3,17.5,1.1,26.8
				c0.1,4.7-0.1,9.4-0.3,14.1c-0.2,4.8-0.3,9.6-0.9,14.5c-0.6,4.9-0.9,9.8-1.7,14.7c-0.9,4.8-1.7,9.7-3.3,14.5
				c-2.7,9.6-7,18.6-9.8,27.9c-0.6,2.3-1.4,4.6-1.8,7c-0.4,2.4-0.8,4.7-1.2,7.1c-0.3,2.3-0.4,4.7-0.6,7.1c-0.1,2.4-0.4,4.7-0.4,7
				c-0.3,18.6-0.6,35.9-0.9,50.7c-0.7,29.7-1.1,49.5-1.1,49.5s0.1-19.8,0.4-49.5c0.2-14.8,0.4-32.2,0.6-50.7c0-2.3,0.2-4.7,0.3-7
				c0.2-2.3,0.2-4.7,0.6-7.1c0.4-2.4,0.8-4.8,1.2-7.2c0.4-2.4,1.2-4.7,1.8-7.1c2.8-9.4,7-18.4,9.6-27.9c1.5-4.7,2.4-9.6,3.3-14.4
				c0.8-4.8,1.1-9.7,1.7-14.5c0.7-4.8,0.8-9.7,1-14.4c0.2-4.8,0.4-9.5,0.4-14.1c0.3-9.3-0.5-18.2-1-26.7c-0.4-4.3-0.7-8.3-1-12.4
				c-0.5-4-0.9-7.8-1.3-11.5c-1.1-7.3-2.1-14-3.4-19.9c-1.2-5.9-2.9-10.9-4.5-14.9c-1.6-4-3.5-6.9-5.1-8.6c-0.8-0.8-1.5-1.4-2-1.6
				C378,96.5,377.7,96.5,377.7,96.5z"/>
			<path class="st4" d="M379.6,96.5c0,0,1.3,0.1,3.5,1.2c2.2,1,5,3.2,8,6.6c2.9,3.4,5.7,8.2,8.3,13.8c1.1,2.9,2.6,5.9,3.6,9.3
				c0.6,1.7,1.1,3.4,1.7,5.1c0.5,1.8,0.9,3.6,1.4,5.5c1,3.7,1.8,7.6,2.5,11.7c0.9,4.1,1.4,8.3,2.1,12.7c0.7,4.3,1.1,8.8,1.6,13.4
				c0.5,4.6,0.8,9.3,0.8,14.1c0.1,9.6-0.4,19.5-1.7,29.5c-0.6,5-1.7,10-2.8,15c-1.4,4.9-2.9,9.9-5.1,14.5c-2.2,4.7-4.7,9.1-7.5,13.4
				c-2.8,4.3-5.6,8.4-8.1,12.8c-2.4,4.4-4.4,8.9-5.7,13.6c-1.3,4.7-1.9,9.5-2.2,14.3c-0.4,9.5-0.6,18.8-0.8,27.6
				c-0.3,8.8-0.5,17.1-0.7,24.7c-1,30.6-1.6,51.1-1.6,51.1s0.4-20.5,0.9-51.1c0.2-7.6,0.3-16,0.5-24.7c0.2-8.8,0.3-18,0.6-27.6
				c0.3-4.8,0.9-9.7,2.2-14.5c1.3-4.8,3.3-9.5,5.8-13.9c2.4-4.5,5.3-8.7,8-12.9c2.7-4.3,5.2-8.7,7.3-13.3c2.2-4.6,3.7-9.4,5.1-14.3
				c1.1-4.9,2.3-9.8,2.9-14.8c1.4-9.9,1.9-19.8,1.8-29.3c0-4.8-0.2-9.5-0.7-14c-0.5-4.6-0.8-9.1-1.5-13.4c-0.7-4.3-1.1-8.6-2-12.6
				c-0.8-4.1-1.5-8-2.5-11.7c-0.5-1.8-0.9-3.7-1.4-5.5c-0.6-1.7-1.1-3.5-1.6-5.1c-0.9-3.3-2.3-6.4-3.4-9.3
				c-2.5-5.7-5.2-10.4-8.1-13.8c-2.9-3.4-5.7-5.6-7.8-6.7C380.9,96.6,379.6,96.5,379.6,96.5z"/>
			<path class="st4" d="M381.5,96.5c0,0,1.4,0.1,3.7,0.8c2.4,0.7,5.8,2.2,9.6,4.9c0.9,0.7,2,1.4,2.9,2.3c0.9,0.9,1.9,1.8,3,2.7
				c1,1,1.9,2.1,2.9,3.2c1,1.1,2,2.4,2.9,3.8c3.9,5.2,7.2,11.8,10.3,19.2c2.8,7.5,5.4,15.8,7.2,24.8c0.5,2.2,0.9,4.5,1.4,6.8
				c0.5,2.3,0.7,4.7,1.1,7.1c0.6,4.7,1.5,9.6,1.6,14.6c0.3,10-0.2,20.4-2,30.7c-0.5,2.6-1,5.2-1.6,7.8c-0.8,2.5-1.5,5.1-2.3,7.7
				c-0.8,2.6-1.9,5-2.9,7.5c-1.2,2.4-2.3,4.9-3.8,7.1c-5.5,9.3-13.3,16.8-20.1,24.6c-3.4,4-6.4,8.2-8.7,12.7
				c-2.4,4.5-3.6,9.4-4.5,14.3c-0.7,4.9-0.7,9.8-0.9,14.6c-0.2,4.8-0.4,9.5-0.5,14.1c-0.3,9.1-0.7,17.8-1,25.7
				c-1.3,31.9-2.2,53.1-2.2,53.1s0.6-21.3,1.5-53.2c0.3-8,0.5-16.6,0.8-25.8c0.1-4.6,0.3-9.3,0.4-14c0.2-4.8,0.2-9.7,0.8-14.7
				c0.8-4.9,2.1-10,4.5-14.6c2.4-4.6,5.4-8.9,8.8-12.9c6.8-8,14.5-15.4,19.8-24.6c1.5-2.2,2.5-4.6,3.8-6.9c1-2.4,2.2-4.9,2.9-7.3
				c0.8-2.5,1.5-5,2.3-7.5c0.6-2.6,1.1-5.1,1.6-7.6c1.8-10.3,2.4-20.6,2.1-30.5c0-5-0.9-9.8-1.5-14.5c-0.4-2.4-0.6-4.7-1.1-7
				c-0.4-2.3-0.9-4.6-1.3-6.8c-1.8-8.9-4.3-17.2-7.1-24.7c-3-7.3-6.2-14-10-19.2c-0.9-1.3-1.8-2.6-2.8-3.7c-1-1.1-1.9-2.3-2.8-3.3
				c-1-1-2-1.9-2.9-2.8c-0.9-0.9-2-1.6-2.8-2.3c-3.7-2.8-7.1-4.4-9.5-5.1C382.9,96.6,381.5,96.5,381.5,96.5z"/>
			<path class="st4" d="M443,183.2c-0.1-2.6-0.8-5.2-1.2-7.7c-0.4-2.5-0.9-5-1.4-7.5c-1-4.9-2.5-9.7-3.6-14.3
				c-0.7-2.3-1.6-4.5-2.3-6.7c-0.8-2.2-1.4-4.4-2.4-6.4c-1.9-4.1-3.5-8.1-5.8-11.7c-4-7.4-9-13.3-13.9-18c-4.8-4.8-10-7.9-14.3-10.1
				c-4.4-2.2-8.1-3.1-10.6-3.7c-2.6-0.5-4-0.6-4-0.6s1.4,0.1,4,0.6c2.5,0.6,6.2,1.6,10.5,3.9c4.3,2.3,9.3,5.4,14.1,10.2
				c4.7,4.8,9.6,10.7,13.6,18.1c2.2,3.5,3.8,7.6,5.7,11.6c1,2,1.6,4.3,2.4,6.4c0.7,2.2,1.6,4.4,2.3,6.7c1.1,4.7,2.5,9.3,3.5,14.3
				c0.4,2.5,0.9,4.9,1.3,7.5c0.4,2.5,1,5,1.1,7.6c0.8,10.3,0.1,21.1-2,31.8c-0.7,2.6-1.4,5.3-2.1,7.9c-0.3,1.4-0.8,2.6-1.3,3.9
				l-1.5,3.8c-1.9,5.1-4.9,9.9-8,14.3c-3.3,4.4-7.1,8.4-11.1,12.3c-4.1,3.7-8.3,7.3-12.4,10.9c-4.1,3.6-8.1,7.4-11.5,11.6
				c-3.5,4.2-6,9-7.6,14c-0.4,1.3-0.7,2.5-1,3.8c-0.3,1.3-0.4,2.6-0.6,3.9c-0.4,2.6-0.4,5.1-0.5,7.6c-0.2,5-0.4,9.9-0.6,14.7
				c-0.4,9.5-0.8,18.6-1.1,26.9c-1.3,33.1-2.1,55.2-2.1,55.5l0,0c0-0.3,1.1-22.5,2.8-55.5c0.4-8.3,0.8-17.3,1.3-26.9
				c0.2-4.8,0.4-9.7,0.7-14.7c0.2-2.5,0.1-5.1,0.6-7.6c0.2-1.2,0.3-2.5,0.6-3.8c0.4-1.2,0.7-2.5,1-3.7c1.6-4.9,4.1-9.6,7.5-13.6
				c3.4-4.1,7.3-7.8,11.4-11.4c4.1-3.6,8.4-7.1,12.5-10.9c4-3.8,8-7.9,11.3-12.4c3.3-4.6,6.2-9.3,8.1-14.7l1.5-3.9
				c0.5-1.3,1-2.6,1.3-4c0.7-2.7,1.4-5.4,2.1-8.1C443.1,204.6,443.8,193.7,443,183.2z"/>
			<path class="st4" d="M457.5,179.7c-0.6-2.7-1.2-5.3-1.8-8c-0.6-2.6-1.1-5.3-2-7.8c-0.8-2.5-1.6-5-2.4-7.5
				c-0.4-1.2-0.7-2.4-1.2-3.7c-0.5-1.2-1-2.3-1.5-3.5c-1-2.3-2-4.6-2.9-6.8c-1.1-2.2-2.4-4.3-3.5-6.3c-2.1-4.3-5.1-7.8-7.6-11.4
				c-5.6-6.7-11.4-12.5-17.3-16.4c-5.9-4-11.5-6.8-16.3-8.5c-2.4-1-4.6-1.4-6.5-2c-2-0.4-3.6-0.8-4.9-1c-2.7-0.4-4.2-0.5-4.2-0.5
				s1.5,0,4.2,0.5c1.4,0.2,3,0.6,4.9,1c1.9,0.6,4.1,1.1,6.5,2.1c4.8,1.7,10.3,4.6,16.1,8.6c1.4,1.1,2.9,2.2,4.4,3.3
				c1.4,1.2,2.8,2.6,4.3,3.9c0.7,0.7,1.5,1.4,2.2,2.1c0.7,0.8,1.3,1.6,2,2.3c1.4,1.6,2.8,3.1,4.2,4.8c2.4,3.6,5.3,7.2,7.4,11.4
				c1.1,2,2.3,4.1,3.4,6.3c1,2.2,1.9,4.5,2.9,6.8c0.5,1.2,1,2.3,1.5,3.5c0.5,1.2,0.8,2.4,1.2,3.6c0.8,2.4,1.6,4.9,2.4,7.4
				c0.9,2.5,1.3,5.1,1.9,7.7c0.6,2.6,1.2,5.3,1.7,7.9c1,5.3,0.9,10.9,0.7,16.5c-0.2,5.6-1,11.2-2.2,16.8c-1.2,5.6-3.1,11-5.5,16.2
				l-2,3.8c-0.7,1.2-1.6,2.5-2.3,3.7c-1.5,2.5-3.4,4.7-5.2,6.9c-7.5,8.8-17.2,15.6-26.5,22.2c-4.7,3.3-9.3,6.7-13.6,10.3
				c-4.3,3.7-8,8-10.8,12.8c-3,4.7-4,10.3-4.7,15.5c-0.3,5.3-0.6,10.4-0.9,15.4c-0.6,10-1.1,19.5-1.6,28.2c-0.5,8.7-1,16.8-1.2,23.9
				c-0.3,7.1-0.5,13.3-0.7,18.4c-0.4,9.7-0.6,15.3-0.6,15.9c0,0,0,0,0,0c0-0.6,0.3-6.3,0.9-15.9c0.3-5.1,0.6-11.3,1-18.4
				c0.3-7.1,0.9-15.1,1.5-23.8c0.5-8.7,1.1-18.2,1.7-28.2c0.3-5,0.6-10.1,1-15.4c0.7-5.1,1.7-10.5,4.6-15
				c5.4-9.4,14.9-16.1,24.3-22.7c9.4-6.5,19.1-13.3,26.9-22.2c1.8-2.3,3.8-4.6,5.2-7.1c0.8-1.3,1.6-2.4,2.3-3.7l2-3.9
				c2.4-5.3,4.3-10.9,5.5-16.5c1.3-5.6,2-11.3,2.2-17C458.5,190.7,458.5,185.1,457.5,179.7z"/>
			<path class="st4" d="M471.5,176c-0.7-2.8-1.5-5.5-2.2-8.3c-0.3-1.4-0.8-2.7-1.3-4c-0.5-1.3-1-2.6-1.5-3.9c-1-2.6-1.8-5.2-3-7.7
				c-1.2-2.4-2.4-4.8-3.6-7.2c-0.6-1.2-1.1-2.4-1.8-3.4c-0.7-1.1-1.5-2.2-2.1-3.3c-1.4-2.1-2.8-4.3-4.2-6.3
				c-3.3-3.7-6.1-7.7-9.6-10.7c-6.5-6.6-13.7-11.2-20.2-14.8c-1.7-0.8-3.3-1.6-4.9-2.4c-1.6-0.8-3.2-1.3-4.6-1.9
				c-3-1.3-5.9-2-8.4-2.8c-5.2-1.4-9.3-2.2-12.2-2.5c-2.8-0.4-4.4-0.4-4.4-0.4s1.5,0,4.4,0.4c2.9,0.4,7,1.2,12.1,2.6
				c2.5,0.9,5.4,1.6,8.3,3c1.5,0.7,3.1,1.2,4.6,2c1.5,0.8,3.2,1.6,4.8,2.5c6.5,3.7,13.6,8.3,20,14.9c3.5,3,6.2,6.9,9.5,10.7
				c1.5,2,2.7,4.1,4.2,6.3c0.7,1,1.4,2.1,2.1,3.2c0.7,1.1,1.2,2.3,1.8,3.4c1.2,2.4,2.4,4.7,3.6,7.1c1.2,2.4,2,5,3,7.6
				c0.5,1.3,1,2.6,1.5,3.9c0.5,1.3,1,2.6,1.3,4c0.7,2.7,1.4,5.5,2.1,8.2c1.8,5.5,2,11.3,1.9,17.2c-0.1,5.8-0.8,11.8-2.2,17.6
				c-2.7,11.6-8.5,22.8-17,31.4c-8.5,8.7-19,15.2-29.3,21.4c-10.3,6.2-20.9,12.1-28.8,20.7c-3.9,4.3-6.9,9.4-8.1,14.9
				c-0.7,2.7-0.9,5.5-1,8.2c-0.2,2.7-0.4,5.3-0.6,8c-0.7,10.5-1.4,20.5-2,29.6c-0.6,9.2-1.2,17.6-1.6,25c-0.4,7.4-0.7,14-0.9,19.3
				c-0.5,9.4-0.8,15.3-0.8,16.6l0,0c0.1-1.3,0.4-7.1,1-16.6c0.3-5.3,0.7-11.8,1.2-19.3c0.4-7.5,1.2-15.8,1.8-25
				c0.7-9.2,1.4-19.1,2.1-29.6c0.2-2.6,0.4-5.3,0.6-8c0.2-2.7,0.4-5.4,1.1-8c1.2-5.3,4.1-10.3,8-14.4c7.8-8.4,18.3-14.1,28.6-20.3
				c10.3-6.1,21-12.6,29.7-21.5c8.7-8.9,14.5-20.3,17.2-32.1c1.4-5.9,2.1-11.9,2.2-17.9C473.6,187.6,473.3,181.5,471.5,176z"/>
			<path class="st4" d="M487.8,181.2c-0.8-3-1.5-5.9-2.4-8.9c-3.7-11.5-8.7-22.2-15-31.4c-3.1-4.6-6.6-8.7-10.2-12.5
				c-3.7-3.7-7.4-7.2-11.3-10.1c-7.7-5.9-15.6-10.1-22.8-13.2c-7.3-3.1-13.8-5-19.4-6.2c-5.5-1.2-9.9-1.8-12.9-2.1
				c-3-0.3-4.6-0.3-4.6-0.3s1.6,0,4.6,0.4c3,0.3,7.4,1,12.9,2.3c5.5,1.3,12,3.3,19.2,6.5c7.1,3.2,14.9,7.4,22.5,13.3
				c3.8,2.9,7.5,6.3,11.1,10c3.5,3.8,7,7.9,10.1,12.5c6.3,9.1,11.2,19.7,14.8,31.2c0.9,2.8,1.6,5.8,2.4,8.7c0.5,3,0.7,6.1,0.7,9.1
				c0.1,6.1-0.6,12.4-2,18.5c-2.9,12.2-9.4,23.7-18.9,32.3c-9.4,8.7-20.7,15-31.9,20.9c-11.2,5.9-22.6,11.2-32.2,18.7
				c-4.7,3.8-9,8.2-11.6,13.5c-1.3,2.6-2.3,5.4-2.7,8.3c-0.4,2.9-0.5,5.6-0.8,8.4c-0.9,11-1.7,21.5-2.5,31.1
				c-0.7,9.6-1.5,18.4-1.9,26.3c-0.4,7.8-0.8,14.7-1.2,20.3c-0.6,9.6-0.9,15.6-1,17.2h0c0.1-1.6,0.5-7.6,1.2-17.2
				c0.4-5.6,0.9-12.4,1.4-20.2c0.7-7.8,1.4-16.6,2.2-26.3c0.8-9.6,1.6-20,2.6-31c0.3-2.7,0.4-5.6,0.8-8.3c0.4-2.8,1.3-5.5,2.6-8
				c2.5-5.1,6.7-9.4,11.4-13.1c9.5-7.3,20.9-12.6,32.1-18.4c11.2-5.8,22.7-12.1,32.2-20.9c9.6-8.8,16.2-20.7,19.1-33.1
				c1.5-6.2,2.1-12.6,2-18.8C488.6,187.3,488.3,184.3,487.8,181.2z"/>
			<path class="st4" d="M503.6,187.4c-0.2-3.2-0.7-6.6-1.8-9.6c-0.5-1.5-1-3.1-1.5-4.6c-0.6-1.5-1.1-3-1.7-4.5
				c-4.5-11.9-11.1-22.5-18.6-31.4c-7.6-8.8-16.2-15.9-24.9-21.2c-8.6-5.4-17.2-9.2-25-11.9c-7.8-2.7-14.8-4.4-20.6-5.5
				c-5.8-1.1-10.4-1.6-13.6-1.9c-3.2-0.3-4.9-0.3-4.9-0.3s1.7,0,4.9,0.3c3.1,0.3,7.8,0.9,13.5,2.1c5.8,1.2,12.8,2.9,20.5,5.8
				c7.7,2.8,16.2,6.6,24.8,12c8.6,5.3,17.1,12.4,24.6,21.2c7.4,8.9,13.9,19.4,18.3,31.2c0.6,1.5,1.1,3,1.7,4.5
				c0.4,1.5,0.9,3.1,1.4,4.6c1.1,3,1.5,6.2,1.7,9.4c0.4,6.5-0.1,13.1-1.6,19.4c-3,12.8-10.4,24.8-20.7,33.4
				c-10.2,8.7-22.4,14.9-34.3,20.5c-12,5.6-24.2,10.6-35.1,17.2c-5.4,3.3-10.5,7.1-14.5,11.8c-1.9,2.4-3.6,5-4.7,7.8
				c-1.1,2.8-1.7,5.9-1.9,8.7c-1.1,11.6-2.5,22.5-3.1,32.6c-1.7,20.2-2.8,37.1-3.6,48.9c-0.6,9.6-1,15.9-1.2,17.9h0
				c0.1-2,0.6-8.2,1.4-17.8c0.5-5.9,1-13.1,1.7-21.2c0.7-8.2,1.5-17.5,2.4-27.6c0.7-10.1,2.1-21,3.3-32.5c0.2-2.9,0.8-5.7,1.9-8.5
				c1.1-2.7,2.7-5.2,4.6-7.6c3.9-4.6,8.9-8.3,14.3-11.6c10.8-6.5,23-11.4,35.1-17c12-5.6,24.3-11.7,34.7-20.6
				c10.5-8.8,18-21,21-34.1C503.6,200.7,504,194,503.6,187.4z"/>
			<path class="st4" d="M518.4,184.3c-0.3-3.5-1.8-6.7-2.8-9.9c-1.2-3.2-2.5-6.3-3.9-9.3c-2.9-6-6.2-11.7-10-16.9
				c-3.9-5.1-7.9-10-12.4-14.1c-2.2-2.2-4.5-4.1-6.8-6.1c-2.4-1.8-4.6-3.7-7-5.2c-4.7-3.4-9.5-6.1-14.2-8.7
				c-9.5-4.9-18.6-8.4-27-10.8c-8.3-2.4-15.7-4-21.8-5c-12.3-1.9-19.4-2-19.4-2s7.1,0.1,19.4,2.2c6.1,1.1,13.5,2.7,21.7,5.2
				c8.3,2.5,17.4,6.1,26.8,11c4.6,2.5,9.5,5.3,14.1,8.6c2.4,1.6,4.6,3.5,7,5.3c2.2,2,4.5,3.8,6.7,6c8.8,8.4,16.4,18.9,22.1,30.8
				c1.4,3,2.7,6.1,3.8,9.2c1,3.3,2.4,6.3,2.7,9.7c0.8,6.7,0.5,13.7-1,20.4c-1.5,6.7-4.3,13.2-8.1,19.1c-3.9,5.8-8.8,11-14.2,15.3
				c-11.1,8.7-24,14.8-36.8,20.3c-12.8,5.5-25.7,10.2-37.7,16.1c-5.9,3-11.7,6.2-16.7,10.4c-5,4.1-9.1,9.3-10.6,15.4l-0.5,2.3
				l-0.3,2.2c-0.2,1.5-0.4,3-0.5,4.5c-0.3,2.9-0.7,5.8-1,8.7c-0.6,5.7-1.4,11.2-1.8,16.5c-0.9,10.6-1.8,20.3-2.5,28.9
				c-0.6,8.6-1.2,16.1-1.7,22.3c-0.7,9.7-1.2,16.1-1.4,18.5h0c0.2-2.3,0.7-8.7,1.6-18.5c0.6-6.2,1.2-13.7,2-22.3
				c0.8-8.6,1.7-18.3,2.8-28.9c0.4-5.3,1.2-10.8,1.8-16.5c0.3-2.8,0.7-5.7,1-8.7c0.2-1.5,0.4-3,0.5-4.4l0.3-2.2l0.5-2.2
				c1.4-5.8,5.4-10.9,10.3-14.9c4.9-4.1,10.6-7.2,16.5-10.2c11.9-5.9,24.8-10.5,37.7-16c12.9-5.4,25.9-11.5,37.2-20.3
				c5.6-4.5,10.5-9.7,14.5-15.7c3.9-6,6.7-12.6,8.2-19.5C518.9,198.3,519.3,191.2,518.4,184.3z"/>
			<path class="st4" d="M532.8,181.2c-2.4-6.9-5.1-13.4-8.7-19.4c-0.8-1.6-1.7-3.1-2.7-4.5c-1-1.4-1.9-2.9-2.9-4.3
				c-2.1-2.7-4.1-5.5-6.4-8c-4.4-5.1-9.2-9.6-14.2-13.7c-5-4.1-10.2-7.5-15.3-10.6c-5.2-3-10.3-5.8-15.5-8
				c-10.2-4.6-20-7.7-28.8-9.9c-8.8-2.2-16.5-3.6-23-4.5c-12.9-1.8-20.3-1.8-20.3-1.8s7.4,0.1,20.3,2c6.4,1,14.2,2.4,22.9,4.8
				c8.7,2.4,18.5,5.5,28.6,10.1c5.1,2.2,10.2,5,15.4,8c5.1,3.2,10.3,6.6,15.2,10.6c4.9,4.1,9.7,8.5,14,13.6c2.3,2.4,4.2,5.3,6.3,7.9
				c0.9,1.4,1.9,2.9,2.8,4.3c1,1.4,1.8,2.9,2.7,4.4c3.5,6,6.2,12.6,8.5,19.2c1.5,6.9,1.4,14.2-0.1,21.3c-1.5,7.1-4.5,13.9-8.6,19.9
				c-4.2,6-9.5,11.3-15.4,15.7c-11.8,8.9-25.6,14.8-39.1,20.1c-13.6,5.4-27.3,9.9-40.2,15.4c-6.4,2.7-12.6,5.7-18.4,9.3
				c-5.6,3.6-11,8-14,13.7c-1.6,2.8-2.5,6-2.8,9.1c-0.4,3.1-0.8,6.1-1.1,9.1c-0.7,5.9-1.5,11.7-2.1,17.2c-2.3,22.2-3.9,40.7-5,53.6
				c-0.8,9.8-1.4,16.4-1.6,19.1c0,0,0,0,0,0c0.2-2.7,0.9-9.3,1.8-19c0.6-6.5,1.4-14.3,2.3-23.3c0.9-9,2-19.2,3.2-30.2
				c0.7-5.5,1.5-11.3,2.2-17.2c0.4-3,0.8-6,1.2-9.1c0.3-3.1,1.2-6,2.7-8.8c3-5.6,8.2-9.8,13.8-13.4c5.7-3.5,11.9-6.4,18.3-9.1
				c12.8-5.4,26.5-9.9,40.2-15.2c13.6-5.4,27.5-11.2,39.6-20.2c6-4.5,11.3-9.9,15.6-16c4.3-6.2,7.2-13.1,8.8-20.4
				C534.3,195.8,534.4,188.4,532.8,181.2z"/>
		</g>
		<g class="st5">
			<path class="st0" d="M335.7,281.8c8.7,5.7,16.3,13,19.8,22.2l1.3,10.8c2.1-2.9,4.7-5.6,8-7.4c11.2-6.4,24.7,1.4,27.7,14.2
				l2.1-17.5c5.3-14,20.1-23.7,33.7-29.9c-10,3.6-35.8,12.3-54.5,13C353.1,287.8,339,283,335.7,281.8z"/>
		</g>
		<path class="st0" d="M234.1,157.7c0,0,45.4-75.6,187.7-57.1c0,0-146.5,4.8-181.6,91.5C240.3,192.1,232.7,174.2,234.1,157.7z"/>
		<path class="st0" d="M359.9,316.1l9.6,87.1c0,0,4.2,1.4,5.1,0c0.9-1.4-7.3-94-7.3-94S362.2,309.7,359.9,316.1z"/>
	</g>
	<text transform="matrix(1 0 0 1 402.0804 390.8396)" class="st0 st6 st7">Uretra</text>
</g>
</svg>
