<?xml version="1.0" encoding="utf-8"?>
<!-- Generator: Adobe Illustrator 24.2.3, SVG Export Plug-In . SVG Version: 6.00 Build 0)  -->
<svg version="1.1" id="Layer_1" xmlns="http://www.w3.org/2000/svg" xmlns:xlink="http://www.w3.org/1999/xlink" x="0px" y="0px"
	 viewBox="0 0 750 500" style="enable-background:new 0 0 750 500;" xml:space="preserve">
<style type="text/css">
	.st0{fill:#7A0F0F;}
	.st1{fill:#F21919;}
	.st2{fill:#BF1616;}
	.st3{fill:#F26666;}
	.st4{fill:#EF4545;}
	.st5{fill:#FFFFFF;}
	.st6{fill:#EF4848;}
</style>
<g>
	<path class="st0" d="M537.9,157.5c-19.6-20.6-46-44.2-72.1-56c-40-18-84.8-5.6-125.6-0.9c-0.4,0-0.8,0.1-1.1,0.1
		c-10.5-13.4-40.3-7.8-52.9-1.8c-17.6,8.2-30.4,23.9-37.1,42.1c-9.7,26-19.5,61.3-14.4,89.3c6,32.4,35.1,48.1,63.7,57.7
		c38.2,12.8,77.9,24.1,118.5,23.8c36.7-0.3,83.4-13.7,111.3-38.4c19.7-17.4,28.7-36.5,31-61.8C560.8,192.6,550.6,170.9,537.9,157.5z
		"/>
	<path class="st1" d="M573.1,203.3h-21.8c0,0-20.3,39.3-44.1,44c-44.3,8.8-100.6,25.5-155.2,20.4c-22.4-2.1-45.4,50.3-86.8,10.8
		c-23.2-22.1-23.9-75.3-23.9-75.3h-18.2c0,0,1.9,73.1,28.5,115.9c32.2,51.8,53.8,46.1,69.5,46.4c18.4,0.4,65.1,0.4,83.5,0
		c15.7-0.3,76.7-8.2,117.3-53.8C565.4,262.9,573.1,203.3,573.1,203.3z"/>
	<path class="st2" d="M570.7,203.3c-1.8,2.7-3.4,6.9-3.9,8.4c-3,8.1-5.2,15.7-9.6,23.5c-10.3,18.4-22.1,37-36.2,52.7
		c-15.6,17.4-33.1,35.4-56.7,41.2c-23.2,5.7-25.6-22.3-16.4-37.2c13.1-21.5,38.9-28.7,56.9-44.2c-25.6,5.1-55,12.8-85.8,17.3
		c-9.1,7.6-17.2,16.3-25,25.2c-12.6,14.2-25.6,29.6-36.2,45.4c-6.3,9.4-12.8,19.4-15.8,30.3c21.3,0.1,48.7,0,61.7-0.2
		c15.7-0.3,76.7-8.2,117.3-53.8c43.5-48.9,51.2-108.5,51.2-108.5H570.7z"/>
	<path class="st1" d="M528.3,114C491,68.8,437,55.6,418.1,55.6c-45,0-60.4,36.5-60.4,36.5S347.4,59.5,315.5,59
		c-18.9-0.3-52.8,11.3-72.2,43.9c-24.5,41-20.2,100.3-20.2,100.3h18.2c0,0-1.3-20.6,17.5-48.3c15.8-23.4,48-59.3,74.9-22.5
		c6.9,9.4,20.6,14.1,28.6,14.5c13,0.6,27.5-0.7,50.1-14.5c39.1-23.8,86.6,5.9,110.4,29.3c20.1,19.8,28.5,41.6,28.5,41.6h21.8
		C573.1,203.3,558.7,150.9,528.3,114z"/>
	<path class="st2" d="M523,145.6c-23.8-23.4-81.6-62.8-120.7-39c-22.7,13.8-26.8,27.7-48.3,26.6c-8-0.4-19.1-9.5-26-18.9
		c-26.9-36.9-56.4-9.7-75.5,22.9c-17,28.9-19.2,64.7-19.2,64.7l8.1,1.3c0,0-1.3-20.6,17.5-48.3c15.8-23.4,48-59.3,74.9-22.5
		c6.9,9.4,20,18.2,32.5,18.2c16,0,23.6-4.5,46.3-18.2c39.1-23.8,86.6,5.9,110.4,29.3c20.1,19.8,28.5,41.6,28.5,41.6h21.8l0,0
		C573.2,203.3,543.1,165.4,523,145.6z"/>
	<path class="st3" d="M437.3,212.3c-41.9-5.8-66.1,2.6-79.6,9.6c-5.2,2.7-30.2-27.5-76.1-23.5c-45.9,4.1-84.6,35.5-99,96.7
		c-18.6,79.3,8,140.7,72.7,148.2c93.1,10.8,119.2-65.6,142.7-119.6c28.9-66.4,109.2-76.5,109.2-76.5S485,218.9,437.3,212.3z"/>
	<path class="st4" d="M475.6,223.8c-51.7,3-78.1,31.3-102.5,60.7c-19.1,22.9-11.8,97.6-83.4,137.9c-25.5,14.4-62.7,5.1-88.9-6.3l0,0
		c13.1,14.9,31.4,24.5,54.6,27.2c93.1,10.8,119.2-65.6,142.7-119.6c28.9-66.4,109.2-76.5,109.2-76.5S497,234.3,475.6,223.8z"/>
	<path class="st4" d="M357.7,222c-2-0.1-23.7,6-44.9,24.2c-29.6,25.3-41.2,56.6-41.2,56.6s8.3-45,17.6-59.6
		c21.9-34.3,44-34.3,44-34.3L357.7,222z"/>
	<path class="st5" d="M213.6,270c-3.3-5-8-3.4-11.2,0.5c-1.4,1.6-2.3,3.8-3,6.1c-7.5,13.3-7.7,35.5-6.1,52
		c1.1,12.3,2.7,36.2,11.4,43.1c8.6,6.8,8.8-8.4,8.3-17.1c-1.3-22.4-5.2-40.5,0.2-62.1C214.8,285.9,217.8,276.4,213.6,270z M195,289
		l2.5-5.5C196.9,285.6,196.1,287.6,195,289z"/>
	<path class="st5" d="M222.8,385.4c-4.4-2.6-5.3-6.3-9.4-1.5c-0.3,0.4-0.5,0.7-0.7,1.2c-11.2,9.2,15.6,33.6,21.2,18.5
		C237,394.9,228.6,388.8,222.8,385.4z"/>
	<path class="st6" d="M413.7,65.6c-15.3,0.8-25.4,6-30.1,18.3c-6.2,7.7-8.6,15.8,1.8,15.2c7.2-0.4,14.2-11.5,21.9-13.9
		c7.3-2.3,17.8,1.3,24.5-1.6C453.4,74.2,424.9,65,413.7,65.6z"/>
	<path class="st6" d="M475.8,284.1c-4,4.4-6.5,9.2-3.9,12.9c6.5,9.3,25.3-9.8,28.1-14.9C509,265.6,483,267.3,475.8,284.1z"/>
</g>
</svg>
