<?xml version="1.0" encoding="utf-8"?>
<!-- Generator: Adobe Illustrator 24.2.3, SVG Export Plug-In . SVG Version: 6.00 Build 0)  -->
<svg version="1.1" id="Layer_1" xmlns="http://www.w3.org/2000/svg" xmlns:xlink="http://www.w3.org/1999/xlink" x="0px" y="0px"
	 viewBox="0 0 750 500" style="enable-background:new 0 0 750 500;" xml:space="preserve">
<style type="text/css">
	.st0{fill:#F3B4AE;}
	.st1{fill:#BA546A;}
	.st2{opacity:0.8;fill:#F3B4AE;}
	.st3{opacity:0.2;}
</style>
<g>
	<g>
		<g>
			<g>
				<path class="st0" d="M481.4,105.6c-6.6,0.2-13.2,1.3-19.9,3c-7,1.8-13.7,4.5-19.9,8.1c-7.9,4.6-13.9,10.6-20.1,17.2
					c-1.2,1.3-3,3.7-4.8,4.3c-0.8,0.3-1.6,0.4-2.3,0.4c-0.5,0-1.1-0.1-1.6-0.2l0.1-0.1c0,0-6.9-0.9-9.6-13.9l-3.2-97.2l-29.3,0.7
					l3.4,99.5c0,0-0.1,28.9,17.3,45.3c1.4,1.8,3,3.3,4.8,4.4c4.6,2.7,7.2,9.2,7.4,17.4c1.1,31.8-21.9,59.7-52.3,66.9
					C291.8,275.5,199,288.9,189,365.3c-2.8,21.3,1.2,45.4,15.7,61.8c18.1,20.5,51.8,27.1,78,26.6c0.8,0,1.6,0,2.5-0.1
					c18.3-0.6,36-5.5,53.7-9.8c12.6-3,30.1-9,41.9-0.4c8.2,6,7.4,18.1,5.8,27.4c-0.1,0.7-0.2,1.4-0.4,2c17.1-0.9,34.2-2.5,51.2-3.8
					c9.5-3,0.8-27.6-1.2-32.8c-5-13-9-20.7-21-28.3c-18.9-12-42.3-12.3-63.6-8.3c-22.1,4.1-42.3,16.2-65,17.4
					c-12.3,0.6-24.8-3.2-34.4-11.2c-2.7-2.2-5.4-5.2-5.8-12.1c-0.2-6.1-2.6-9.7-5-11.6c-1-0.9-2-1.4-2.7-1.8l0.4-0.2
					c6.9-4.1,5.9-18.1,6.8-23.3c5.3,5.6,15.1,6,19.6,6.2c18.3,0.7,16.8-15.6,19.1-8.2c5.9,19,36.9,26,53.6,28.7
					c50.7,8.4,105.2-6.5,147.2-35.3c23.4-16,44.2-37.6,56.3-63.5c18.1-38.4,30.1-91.9,9.6-131.8c-10.6-20.6-28.7-40.4-52.1-45.6
					C493,105.9,487.2,105.4,481.4,105.6z"/>
				<path class="st1" d="M385.6,473.2l0.1-0.5c0.1-0.7,0.2-1.3,0.4-2c1.5-8.7,2.5-21-5.6-27c-4.3-3.1-9.7-4.5-16.6-4.3
					c-6.9,0.2-14.2,2.1-20.6,3.7c-1.5,0.4-2.9,0.7-4.3,1.1c-2.1,0.5-4.1,1-6.2,1.5c-15.5,3.8-31.4,7.7-47.6,8.3c-0.7,0-1.5,0-2.2,0
					l-0.2,0c-14.5,0.3-29.5-1.7-42.2-5.4c-15.6-4.6-27.8-11.8-36.1-21.3c-13.1-14.8-19-38-15.9-62.1c4-30.9,21.8-54.3,54.2-71.4
					c27.9-14.7,61.7-22.3,91.5-29c6-1.4,11.7-2.6,17.2-3.9c14.8-3.5,28.2-12.1,37.7-24.1c9.7-12.2,14.8-27.3,14.2-42.4
					c-0.3-8.3-2.9-14.6-7.2-17c-1.8-1.1-3.4-2.6-5-4.5c-17.3-16.3-17.4-45.2-17.4-45.5l-3.4-99.9l30.2-0.7l3.3,97.6
					c2.6,12.4,9.2,13.5,9.2,13.5l0.6,0.1l-0.1,0.1c0.3,0,0.6,0.1,0.9,0.1c0.8,0,1.5-0.2,2.2-0.4c1.3-0.5,2.7-2,3.7-3.3
					c0.3-0.3,0.5-0.6,0.8-0.9c5.7-6.1,12-12.4,20.1-17.2c6.2-3.6,12.9-6.4,20-8.2c7-1.8,13.4-2.8,19.6-3h0.4
					c6-0.2,11.8,0.4,17.7,1.7c29.5,6.6,46.4,34.3,52.4,45.9c9.5,18.4,12.7,40.9,9.7,66.7c-3.1,26.9-12.2,50.4-19.3,65.5
					C530.5,309,511,331,485.4,348.5c-33.5,22.9-73.4,36.3-112.4,37.6l0,0c-11.9,0.4-23.8-0.3-35.1-2.2c-31.4-5.2-49.6-15-53.9-29
					c-0.3-1.1-0.5-1.5-0.6-1.6c-0.2,0.2-0.5,0.7-0.8,1.2c-1.6,2.8-5.1,8.5-15.2,8.9c-0.7,0-1.4,0-2.1,0c-4.1-0.2-13.7-0.5-19.2-5.7
					c-0.1,1-0.2,2.2-0.3,3.6c-0.4,6.2-1,15.5-6.3,19c0.7,0.4,1.4,0.8,2.2,1.5c2.2,1.8,4.9,5.3,5.1,12c0.4,6.9,3.1,9.7,5.6,11.8
					c9.4,7.7,21.6,11.7,34.2,11.1c13.1-0.7,25.6-5.1,37.6-9.3c8.8-3.1,18-6.3,27.3-8.1c6.8-1.2,13.4-2,19.6-2.2
					c17.4-0.6,32.3,3,44.3,10.7c5.8,3.7,9.9,7.5,13.2,12.2c3.1,4.5,5.3,9.6,7.9,16.3c0.8,2.2,8.4,22.1,4.5,30.2
					c-0.8,1.6-2,2.7-3.5,3.2l-0.1,0c-5.6,0.4-11.2,0.9-16.7,1.3c-11.3,0.9-23,1.9-34.5,2.5L385.6,473.2z M363.8,438.5
					c7.1-0.2,12.7,1.2,17.2,4.5c8.6,6.3,7.5,18.9,5.9,27.8c-0.1,0.5-0.2,1-0.3,1.5c11.3-0.6,22.8-1.5,33.9-2.5
					c5.6-0.5,11.2-0.9,16.7-1.3c1.3-0.4,2.3-1.3,2.9-2.7c3.7-7.7-3.6-27.3-4.5-29.5c-5.4-13.9-9.5-20.8-20.8-28.1
					c-11.9-7.6-26.6-11.1-43.8-10.5c-6.2,0.2-12.7,1-19.4,2.2c-9.3,1.7-18.4,5-27.2,8c-12.1,4.3-24.6,8.7-37.9,9.4
					c-12.8,0.6-25.2-3.4-34.7-11.3c-2.9-2.4-5.6-5.5-6-12.4c-0.2-6.3-2.7-9.6-4.8-11.3c-1-0.8-2-1.4-2.7-1.8l-0.7-0.4l1-0.6
					c5.2-3.1,5.8-12.3,6.2-18.4c0.1-1.8,0.2-3.4,0.4-4.5l0.1-0.8l0.6,0.6c5.2,5.5,15.1,5.9,19.3,6.1c0.7,0,1.4,0,2,0
					c9.7-0.3,12.9-5.8,14.5-8.5c0.6-1.1,0.9-1.6,1.5-1.6c0.6,0,1,0.7,1.5,2.2c4.2,13.5,22.6,23.3,53.2,28.4
					c11.3,1.9,23,2.6,34.9,2.2c38.8-1.3,78.5-14.6,111.9-37.4c25.5-17.5,44.9-39.3,56.2-63.3c8.6-18.4,34.9-82.1,9.6-131.4
					c-12.4-24.2-31.3-40.8-51.8-45.4c-5.8-1.3-11.5-1.8-17.5-1.7l-0.4,0c-6.1,0.2-12.5,1.2-19.4,3c-7.1,1.8-13.7,4.5-19.8,8.1
					c-8.1,4.8-14.3,11.1-19.9,17.1c-0.3,0.3-0.5,0.6-0.8,0.9c-1.2,1.3-2.6,3-4.1,3.5c-0.8,0.3-1.6,0.5-2.4,0.5c-0.5,0-1.1,0-1.7-0.2
					l-0.5-0.1l0.1-0.1c-1.8-0.5-7-3-9.4-14.1l-3.3-96.9l-28.4,0.7l3.3,99c0,0.3,0.1,28.9,17.2,44.9c1.5,1.9,3.1,3.3,4.8,4.4
					c4.6,2.7,7.4,9,7.6,17.7c0.5,15.3-4.6,30.6-14.4,43c-9.7,12.2-23.2,20.8-38.1,24.4c-5.5,1.3-11.2,2.6-17.3,3.9
					c-29.7,6.7-63.5,14.2-91.2,28.9c-32.2,17-49.8,40.1-53.8,70.7c-3.1,23.9,2.7,46.8,15.6,61.4c8.3,9.4,20.3,16.4,35.7,21
					c12.7,3.8,27.5,5.7,41.9,5.4l0.2,0c0.8,0,1.5,0,2.3,0c16.1-0.6,32-4.5,47.4-8.2c2.1-0.5,4.1-1,6.2-1.5c1.4-0.3,2.8-0.7,4.3-1.1
					C349.5,440.6,356.8,438.8,363.8,438.5z"/>
			</g>
			<path class="st2" d="M551.1,152.9c-10.6-20.6-28.7-40.4-52.1-45.6c-6-1.3-11.8-1.9-17.6-1.7c-6.6,0.2-13.2,1.3-19.9,3
				c-7,1.8-13.7,4.5-19.9,8.1c-7.9,4.6-13.9,10.6-20.1,17.2c-1.2,1.3-3,3.7-4.8,4.3c-0.8,0.3-1.6,0.4-2.3,0.4
				c-0.5,0-1.1-0.1-1.6-0.2l0.1-0.1c0,0-6.9-0.9-9.6-13.9l-3.2-97.2l-11,0.3l3.3,96.5c0,0,0.5,14.2,9.8,19.5c0,0,5.8,4.9,4.4,10.5
				c-1.3,5.6-19.7,16.5-32.4-26.6c0,0-0.1,28.9,17.3,45.3c1.4,1.8,3,3.3,4.8,4.4c4.6,2.7,7.2,9.2,7.4,17.4
				c0.5,15.1-4.4,29.3-13,40.9c4.1-3.5,14.2-13.4,18.2-29.8c5-20.9,0.6-61.1,45.8-70.1c45.2-9,76.4,49.7,48.2,120.6
				c0,0-17.8,47.5-78.9,75.3c-61.2,27.9-134.5,9-135.9-22.9c-1.4-31.9,34.3-40.2,38.7-41c0.6-0.1,1.2-0.4,1.9-0.8
				c-40.9,9.2-89.3,21.1-117.3,50.9c13.2-11.3,30.9-24.2,44-25.2c23.4-1.8,26.1,39.2,10.4,47.2c-15.7,8-36-11.3-36.4-13.4
				c0,0,12.2,54.8-29.2,61.3c4.1-0.6,20.8-1.9,26.3,12.1c6.3,16.1,37.5,42.9,79.4,29.2c0,0-18.8,6.4-23.6,15.1
				c0,0-14.3-12.8-34.8-6.6c0,0-8-18.8-45.7-13.8c0.9,1.3,1.9,2.5,3,3.7c18.1,20.5,51.8,27.1,78,26.6c0.8,0,1.6,0,2.5-0.1
				c18.3-0.6,36-5.5,53.7-9.8c12.6-3,30.1-9,41.9-0.4c8.2,6,7.4,18.1,5.8,27.4c-0.1,0.7-0.2,1.4-0.4,2c17.1-0.9,34.2-2.5,51.2-3.8
				c9.5-3,0.8-27.6-1.2-32.8c-5-13-9-20.7-21-28.3c-18.9-12-42.3-12.3-63.6-8.3c-22.1,4.1-42.3,16.2-65,17.4
				c-12.3,0.6-24.8-3.2-34.4-11.2c-2.7-2.2-5.4-5.2-5.8-12.1c-0.2-6.1-2.6-9.7-5-11.6c-1-0.9-2-1.4-2.7-1.8l0.4-0.2
				c6.9-4.1,5.9-18.1,6.8-23.3c5.3,5.6,15.1,6,19.6,6.2c18.3,0.7,16.8-15.6,19.1-8.2c5.9,19,36.9,26,53.6,28.7
				c50.7,8.4,105.2-6.5,147.2-35.3c23.4-16,44.2-37.6,56.3-63.5C559.6,246.2,571.6,192.8,551.1,152.9z"/>
			<path class="st0" d="M373.6,30.2l3.1,91.6c0,0,1.3,18.6,14,31.1c0,0-11.1-16.3-11.7-35.3l-2.6-87.5L373.6,30.2z"/>
			<path class="st0" d="M439,146.1c0,0-16.8,4.6-23.8,41.2c-6.9,36.6-18.5,75.3-88.6,82.1c0,0,31,3.7,55.5-14.8
				c0,0,16.8-11.9,24.5-28.7C420.6,195.7,416.2,166.3,439,146.1z"/>
			<path class="st0" d="M233.7,303.1c0,0-66.4,45-31.8,115.5C202,418.6,170.1,359.9,233.7,303.1z"/>
		</g>
		<g class="st3">
			<path class="st0" d="M355.7,426.2c0,0-37.5-9.9-52.8,20.1c-1,1.9-1.9,3.9-2.8,5.9c13.1-1.9,26-5.3,38.8-8.4
				c12.6-3,30.1-9,41.9-0.4c8.2,6,7.4,18.1,5.8,27.4c-0.1,0.7-0.2,1.4-0.4,2c17.1-0.9,34.2-2.5,51.2-3.8c9.5-3,0.8-27.6-1.2-32.8
				c-5-13-9-20.7-21-28.3c-10-6.3-21.3-9.4-32.8-10.4c-2.7,3.5-5.9,8.6-6.7,14.8C375.6,412.3,358.9,414.9,355.7,426.2z"/>
		</g>
	</g>
</g>
</svg>
