<?xml version="1.0" encoding="utf-8"?>
<!-- Generator: Adobe Illustrator 24.2.3, SVG Export Plug-In . SVG Version: 6.00 Build 0)  -->
<svg version="1.1" id="Layer_1" xmlns="http://www.w3.org/2000/svg" xmlns:xlink="http://www.w3.org/1999/xlink" x="0px" y="0px"
	 viewBox="0 0 750 500" style="enable-background:new 0 0 750 500;" xml:space="preserve">
<style type="text/css">
	.st0{fill:#F28C8F;}
	.st1{fill:#CF5A46;}
	.st2{fill:#BA443C;}
	.st3{opacity:0.4;fill:#EA7383;}
	.st4{fill:#F4B6B0;}
	.st5{fill:#BC546A;}
	.st6{opacity:0.5;fill:#EA7383;}
	.st7{fill:#FFFFFF;}
	.st8{opacity:0.5;}
	.st9{fill:#EA7383;}
	.st10{fill:#DF656C;}
	.st11{fill:#BB564E;}
	.st12{opacity:0.6;fill:#FFFFFF;}
</style>
<g>
	<g>
		<path class="st0" d="M362.2,370.7c0,0-5.5,17.1,2.1,32.2c9.4,18.7,14.3,13.2,13.9,26.5c-0.4,13.3,2.9,21.7,5.2,28
			c2.3,6.3,17.6,5.4,19.9-1.5c2.3-6.9,2.7-19.7,1.3-26.1c-1.5-6.4,14-23.9,11.2-46c0,0,16.9,23.3,40.2,9.3c0,0,32.5,8.3,37-23
			c0,0,19.2,1.5,19.4-28c0,0,14.4-0.9,10.1-25.9c0,0,11.2-6.8,6.8-23.7c0,0,13.8-5.1,8-26.7c0,0,15-7.8,0.9-35.5
			c0,0,5.5-12.1-1.6-22.6c0,0,6-10.9-6.4-25c0,0,6.9-8.8-3.4-24.2c0,0,6-11.7-3-27.6c0,0,5.8-4.9,1.2-15.8c0,0,5.8-5.3,2.8-16.7
			c0,0,13.8-6.9,8.5-24.2c0,0,8.3-23.5-4.7-29.7c-8-3.8-13.4-2.5-18-1.2c-2.9,0.8-5.4,1.6-8,1.1c-6.7-1.3-14.5-7.7-24.1-4.3
			c-9.6,3.4-9.8,12.7-9.7,15.7c0,0-13.6,5.6-11.1,16.8c0,0-12.2,3-13.2,16.3c0,0-13.7,2-14.2,17.9c0,0-17.8,1.6-19.4,15.5
			c0,0-16.5-4.1-24.9,1.9c0,0-21.5-2.9-30.4,6.2c0,0-10.1-10.9-25.7-4.8c0,0-12-8.8-22.6-4.9c0,0-3.9-10.1-22.7-6.9
			c0,0-4.8-8-22.1-4.4c0,0-12-6.8-21.2,6.4c0,0-15.3-1.5-22.1,10.5c-6.7,12-0.4,20-0.4,20s-7.5,2.8-5.2,12.5c0,0-6.9,6.9-4.4,19.6
			c0,0-4.4,5.3-2.4,20.1c0,0-7.8,12.1-2.2,25.2c0,0-3.8,7.3,2.4,26.1c0,0-8.7,13.6,4.5,27.5c0,0-5.9,35.6,26.8,39.1
			c0,0,7.9,24.4,37.3,16.7c0,0,8.3,19.7,37.5,7.4c29.2-12.3,12.3-60.4-7-86.9C290,227,251,203.7,256,186.1
			c5-17.6,32.5-20.1,43.7-19.4c11.2,0.7,128.5,0.8,158.1-15.1c29.6-15.9,34.9,71.6,25,95.6c-3.8,9.3-8.6,39.9-4.3,50.3
			c1.3,3.2-9.2,7.4-10,10c-5.4,18.5-10.8,19.5-23.6,21c-9.3,1.1-19.5-2.5-29-6.2c-15-5.7-28.7-11.4-36.4,0.7
			C366.8,342.9,362.2,370.7,362.2,370.7L362.2,370.7z"/>
		<path class="st1" d="M392.7,461.9L392.7,461.9c-4.8,0.2-8.5-1.6-9.6-4.4l-0.2-0.5c-2.3-6.2-5.4-14.6-5-27.6
			c0.2-7.3-1.1-8.8-4.1-12c-2.4-2.6-5.6-6.1-9.8-14.3c-7.6-15.1-2.2-32.3-2.1-32.5c0-0.2,4.8-28.1,17.3-47.8c3-4.7,7.1-7.1,12.5-7.3
			c6.6-0.2,14.5,2.8,22.8,5.9l1.4,0.5c9.6,3.6,18.1,6.6,26.5,6.4c0.8,0,1.6-0.1,2.4-0.2c12.3-1.5,18-2.2,23.3-20.8
			c0.4-1.2,2.3-2.5,4.6-4.1c2.9-1.9,6.1-4.1,5.4-5.7c-4.3-10.4,0.4-41,4.3-50.5c7.3-17.5,6.5-70.7-7-90.2c-4.8-7-10.8-8.7-17.6-5
			c-19.1,10.3-75.2,13.6-106.9,14.7c-26.4,0.9-47.2,0.7-51.3,0.4c-1.7-0.1-3.7-0.1-5.7,0c-7.6,0.3-32.9,2.4-37.7,19.3
			c-3.1,10.8,10.5,23.6,26.3,38.5c9.7,9.1,19.7,18.6,26.9,28.7c14.8,20.3,26.9,51.2,21.4,70.7c-2.2,7.9-7.1,13.5-14.5,16.6
			c-5.9,2.5-11.5,3.9-16.4,4c-14.8,0.5-20.5-9.8-21.3-11.4c-3.3,0.8-6.5,1.3-9.4,1.4c-20.4,0.7-27.2-16.3-27.9-18.2
			c-9.1-1-16.1-4.6-20.8-10.7c-8.4-11.1-6.3-26.9-6.1-28.5c-6.8-7.2-7.7-14.4-7.2-19.1c0.5-4.7,2.3-7.9,2.7-8.6
			c-5.8-17.5-2.9-25-2.4-26c-5.2-12.5,1.5-24.1,2.2-25.2c-1.9-13.8,1.8-19.3,2.4-20.1c-1.9-10,2-17.1,4.4-19.7
			c-1.7-7.4,2.4-11.3,5-12.5c-2.2-3-4.7-10.7,0.5-20c2.1-3.8,7.5-10.3,19.7-10.7c1.3,0,2.2,0,2.5,0c3.7-5.2,8.2-7.9,13.5-8.1
			c4.2-0.1,7.3,1.4,7.9,1.7c2.5-0.5,4.9-0.9,7.2-0.9c10.4-0.3,14.3,4.3,14.9,5.3c2-0.3,3.8-0.5,5.6-0.6c10.8-0.4,15.9,4.6,17.1,7.5
			c1.6-0.6,3.3-0.9,5-0.9c8.4-0.3,16.3,5.1,17.4,5.8c2.9-1.1,5.8-1.7,8.6-1.8c9.5-0.3,15.8,5.4,17,6.5c5-4.9,13.8-6.2,20.4-6.4
			c5.1-0.2,9.2,0.3,10,0.4c2.8-2,6.8-3,11.8-3.2c6-0.2,11.6,1,12.9,1.3c1.7-12.8,17.2-15.2,19.3-15.4c0.5-14.6,12.4-17.5,14.2-17.9
			c1.1-12.2,11.4-15.8,13.2-16.3c-2.1-10.4,9.6-16,11.2-16.8c-0.1-4.6,1-12.7,9.9-15.8c1.7-0.6,3.4-0.9,5.2-1
			c4.7-0.2,8.9,1.6,12.7,3.1c2.3,0.9,4.4,1.8,6.4,2.2c0.6,0.1,1.3,0.2,2,0.1c1.7-0.1,3.5-0.6,5.4-1.1l0.5-0.1
			c2.2-0.6,4.5-1.2,7.2-1.3c3.6-0.1,7.2,0.7,11,2.6c12.6,6.1,5.4,28.4,4.8,29.9c4.8,16.1-6.8,23.4-8.5,24.3
			c2.6,10.3-2,15.7-2.8,16.7c4.1,9.8-0.2,14.9-1.1,15.8c7,12.5,5.1,23.4,3,27.6c9.3,14.1,4.3,22.8,3.4,24.2c11.4,13.1,7,23.6,6.3,25
			c6.6,9.9,2.2,21.3,1.6,22.6c4,7.9,8.1,19.2,4.8,28.2c-1.8,4.8-4.9,6.9-5.7,7.4c2.9,11.1,0.6,17.8-1.9,21.5
			c-2.4,3.5-5.2,4.9-6.1,5.3c4,15.7-5.5,22.7-6.9,23.7c1.7,9.8,0.7,17.1-3,21.7c-2.8,3.5-6.2,4.2-7.2,4.4
			c-0.1,10.9-2.9,18.8-8.1,23.6c-4.2,3.8-8.9,4.4-10.8,4.4c-0.3,0-0.5,0-0.6,0c-2.8,19.2-16,23.6-26.6,24c-5.4,0.2-9.8-0.8-10.5-0.9
			c-4.7,2.8-9.4,4.3-14.2,4.4c-13.5,0.5-23.2-10.1-25.7-13.1c1.5,13.6-3.9,25.3-7.8,34c-2.3,4.9-4,8.8-3.5,11
			c1.4,6.1,1.2,18.9-1.3,26.2C402.2,459.9,397.1,461.8,392.7,461.9z M391.7,316.1c-5.2,0.2-9.2,2.5-12.1,7
			c-12.4,19.6-17.2,47.4-17.2,47.6c-0.1,0.2-5.4,17.2,2.1,32.1c4.1,8.2,7.3,11.7,9.7,14.2c3,3.2,4.5,4.9,4.2,12.4
			c-0.4,12.8,2.7,21.2,5,27.4l0.2,0.5c1,2.6,4.5,4.2,9,4c4.3-0.1,9.1-1.9,10.3-5.6c2.4-7.1,2.6-20,1.2-25.9
			c-0.6-2.4,1.2-6.2,3.5-11.4c4-8.8,9.4-20.8,7.6-34.7l-0.1-1.1l0.6,0.9c0.1,0.1,10.5,14.2,25.8,13.7c4.7-0.2,9.4-1.7,14-4.4
			l0.1-0.1l0.1,0c0,0,4.6,1.2,10.5,1c10.5-0.3,23.4-4.8,26.2-23.7l0-0.3l0.3,0c0,0,0.3,0,0.8,0c4.2-0.2,18.1-2.6,18.3-27.7v-0.3
			l0.3,0c0,0,4-0.3,7.1-4.2c3.5-4.5,4.5-11.7,2.9-21.5l0-0.2l0.2-0.1c0.1-0.1,11-6.9,6.7-23.4l-0.1-0.2l0.2-0.1
			c0.1-0.1,13.5-5.4,7.8-26.4l-0.1-0.2l0.2-0.1c0,0,3.7-2,5.6-7.2c3.2-8.8-0.8-20-4.8-27.8l-0.1-0.1l0.1-0.1
			c0.1-0.1,5.4-12.1-1.6-22.3l-0.1-0.1l0.1-0.2c0-0.1,5.7-10.9-6.3-24.6l-0.2-0.2l0.2-0.2c2.3-3,4.7-11.8-3.4-23.9l-0.1-0.1l0.1-0.1
			c2-4,4-14.9-3-27.4l-0.1-0.2l0.2-0.2c0.1,0,5.6-4.9,1.1-15.5l-0.1-0.2l0.2-0.1c0-0.1,5.6-5.4,2.7-16.5l-0.1-0.2l0.2-0.1
			c0.1-0.1,13.5-7,8.4-23.8l0-0.1l0-0.1c0.1-0.2,8.1-23.3-4.5-29.3c-3.7-1.8-7.3-2.6-10.8-2.5c-2.6,0.1-4.9,0.7-7.1,1.3l-0.5,0.1
			c-1.9,0.5-3.8,1-5.5,1.1c-0.7,0-1.4,0-2.1-0.2c-2.1-0.4-4.2-1.3-6.5-2.2c-3.7-1.5-7.9-3.2-12.5-3.1c-1.7,0.1-3.4,0.4-5,0.9
			c-8.6,3.1-9.7,11-9.5,15.4v0.2L472,56c-0.1,0.1-13.3,5.6-11,16.5l0,0.3l-0.3,0.1c-0.1,0-12,3.1-13,16.1v0.2l-0.2,0
			c-0.1,0-13.5,2.2-13.9,17.6l0,0.2l-0.3,0c-0.2,0-17.6,1.8-19.1,15.3l0,0.3l-0.3-0.1c-0.1,0-6.4-1.6-13.1-1.3
			c-4.9,0.2-8.9,1.2-11.6,3.1l-0.1,0.1l-0.1,0c0,0-4.4-0.6-10-0.4c-6.5,0.2-15.3,1.5-20.2,6.5l-0.2,0.2l-0.2-0.2
			c-0.1-0.1-6.5-6.9-16.8-6.5c-2.8,0.1-5.7,0.7-8.6,1.8l-0.1,0.1l-0.1-0.1c-0.1-0.1-8.5-6.1-17.2-5.8c-1.8,0.1-3.5,0.4-5.1,1
			l-0.3,0.1l-0.1-0.3c-1.1-2.7-5.9-7.7-16.7-7.3c-1.8,0.1-3.7,0.3-5.7,0.6l-0.2,0l-0.1-0.2c0,0-3.5-5.6-14.6-5.2
			c-2.3,0.1-4.7,0.4-7.2,0.9l-0.1,0l-0.1-0.1c0,0-3.3-1.9-7.7-1.7c-5.1,0.2-9.5,2.9-13.1,8l-0.1,0.1l-0.2,0c0,0-1-0.1-2.6,0
			c-11.9,0.4-17.1,6.7-19.2,10.4c-5.2,9.4-2.5,17-0.4,19.7l0.2,0.3l-0.4,0.1c-0.3,0.1-7.3,2.9-5,12.2l0,0.2l-0.1,0.1
			c-0.1,0.1-6.8,7-4.4,19.4l0,0.1l-0.1,0.1c0,0.1-4.3,5.4-2.3,19.9l0,0.1l0,0.1c-0.1,0.1-7.6,12.1-2.2,25l0.1,0.1l-0.1,0.1
			c0,0.1-3.7,7.5,2.4,25.8l0,0.1l-0.1,0.1c-0.1,0.1-8.4,13.6,4.5,27.2l0.1,0.1l0,0.1c0,0.2-2.7,16.8,6,28.2
			c4.6,6,11.5,9.6,20.6,10.6l0.2,0l0.1,0.2c0.1,0.2,6.4,18.7,27.4,18c3-0.1,6.2-0.6,9.5-1.5l0.2-0.1l0.1,0.2
			c0.1,0.1,5.2,11.8,20.9,11.3c4.9-0.2,10.4-1.5,16.3-4c7.2-3.1,12-8.5,14.2-16.3c5.4-19.4-6.6-50-21.3-70.3
			c-7.3-10-17.2-19.5-26.9-28.6c-15.9-15-29.6-28-26.4-39.1c4.9-17.2,30.5-19.4,38.2-19.7c2-0.1,4-0.1,5.8,0
			c4.2,0.2,24.9,0.5,51.3-0.4c31.7-1.1,87.6-4.4,106.7-14.6c7-3.8,13.3-2,18.3,5.2c13.6,19.6,14.4,73.1,7.1,90.7
			c-3.9,9.5-8.5,39.8-4.3,50.1c0.9,2.1-2.4,4.3-5.6,6.4c-2,1.4-4.1,2.8-4.4,3.8c-5.5,19-11.3,19.7-23.8,21.2
			c-0.8,0.1-1.6,0.2-2.5,0.2c-8.4,0.3-17.1-2.7-26.7-6.4l-1.4-0.5C406,318.8,398.2,315.9,391.7,316.1z"/>
	</g>
	<g>
		<path class="st2" d="M405.9,409.9c-3.8,2.6-8.1,4.5-13.3,5.2c-4.8,0.7-9.8,0.3-14.5-1.1c-1.4-0.4-2.7-1-3.9-1.7
			c-1.2-0.4-2.4-0.9-3.4-1.5c1.9,1.8,4.1,3.2,6.7,4.2c4.7,1.8,10,1.8,14.9,1.2c7-0.8,13.1-4.2,18-9
			C409,408.2,407.5,409.1,405.9,409.9z"/>
		<path class="st2" d="M441.7,342c-0.4,3.2-1.7,5.5-3.9,7.7c-2,2.1-4.5,4.1-7.4,4.7c-0.2,0-0.3,0.4-0.1,0.4c0,0.1,0,0.1,0,0.2
			c4.1,8.7-0.9,18.3-7.8,24c-3.7,3-8.4,4.3-13,5.1c-5.6,1-10,0.2-15.3-1.8c-0.1,0-0.2,0.2-0.1,0.2c2.2,0.9,4.4,2.1,6.8,2.5
			c2.9,0.5,5.6,0.2,8.5-0.2c5.2-0.8,10.1-2.6,14.2-5.9c6.7-5.4,11.7-15.9,7.4-24.1c2.9-0.2,5.4-2.9,7.4-4.7c2.3-2.2,4.1-5,3.9-8.3
			C442.2,341.5,441.8,341.8,441.7,342z"/>
		<path class="st2" d="M458.3,340.6c-0.1-0.1-0.3,0.1-0.2,0.2c5.1,4.3,4.1,14.9,0.5,19.7c-0.1,0.1,0,0.1,0.1,0.1
			C463.1,356,464.1,344.6,458.3,340.6z"/>
		<path class="st2" d="M458.2,360.9c-0.1,0-0.3,0.2-0.2,0.3c3.7,3.3,4.8,7.9,5,12.7c0.3,6.1-3,13.8-7.1,18.3c-0.2,0.1,0,0.3,0.2,0.1
			c2-1.8,3.4-4.6,4.6-7c1.7-3.3,2.8-6.8,3.1-10.6C464,370.5,462.9,362.7,458.2,360.9z"/>
		<path class="st2" d="M491.2,353.6c-2-5.8-5.6-9.3-11.5-10.8c-0.2,0-0.3,0.2-0.2,0.3c5.8,1.8,8.9,5.4,11.1,11
			c2.1,5.4,3.2,11.7,2.1,17.5c0,0.2,0.2,0.1,0.2,0C494.5,365.6,493.2,359.3,491.2,353.6z"/>
		<path class="st2" d="M504.2,324.9c-4.3-2.5-9.1-3.7-13.3-1.2c-0.7-8.9-9.5-16.6-18.5-15.1c-0.1,0-0.3,0.3,0,0.3
			c9.3-1.2,16.5,6.6,18,15.2c-0.4,0.3-0.8,0.5-1.1,0.9c-0.1,0.1,0,0.3,0.1,0.2c0.3-0.3,0.7-0.5,1.1-0.7c0,0.4,0.1,0.7,0.1,1.1
			c0,0.3,0.4,0,0.4-0.2c0-0.4,0-0.8,0-1.2c4.8-2.5,10-0.6,14.3,2.4c4.9,3.5,6.4,8.7,6.9,14.3c0,0.1,0.2,0,0.2-0.1
			C512.4,334.1,510.2,328.5,504.2,324.9z"/>
		<path class="st2" d="M513.2,303.3c-4.1-2.8-8.1-2.7-12.2-0.9c-1.5-7.5-10.3-11.4-17.3-7.3c-0.1,0.1-0.1,0.3,0,0.2
			c4-2,9.1-1.6,12.7,1.1c2,1.6,3.2,3.9,3.9,6.4c-0.2,0.1-0.4,0.2-0.6,0.3c-0.1,0.1-0.1,0.3,0,0.2c0.2-0.1,0.4-0.2,0.6-0.2
			c0.2,0.8,0.3,1.6,0.5,2.4c0.1,0.3,0.4,0,0.4-0.2c0-0.9,0-1.7-0.2-2.5c1.8-0.8,3.4-1.2,5.6-1c2.8,0.2,5.5,2,7.6,3.6
			c3.9,2.9,6.7,7.4,8.4,11.9c0.1,0.1,0.3-0.1,0.3-0.2C521.6,311.2,518.2,306.6,513.2,303.3z"/>
		<path class="st2" d="M522.2,281.1c-1.7-1.4-3.7-2.4-5.9-2.8c-2.3-0.5-4,0.4-6.2,0.7c-0.1,0-0.1,0.2,0,0.2c1.6-0.1,3-0.6,4.7-0.6
			c2.9,0,5.6,2,7.7,3.7c3.2,2.7,5.3,6.5,6.8,10.4c0.1,0.1,0.2,0,0.2-0.1C528,288,525.9,284.2,522.2,281.1z"/>
		<path class="st2" d="M537.8,266.9c-1.5-5-5.8-8.6-10.6-10.4c-3.5-1.3-9.5-1.6-12.3,1.2c0,0.1,0,0.2,0.1,0.1
			c3.6-2.6,9.9-1.6,13.7,0.1c4.1,1.8,7,5.3,8.9,9.2C537.5,267.3,537.8,267.1,537.8,266.9z"/>
		<path class="st2" d="M538.5,229c-1.7,2.3-3,4.6-5.2,6.5c-2.1,1.8-4.4,3.3-7,4.4c-3,1.2-10.9,2.6-13-1c-0.1-0.1-0.3,0.1-0.3,0.2
			c1.9,3.9,9,2.8,12.3,1.9c6.3-1.8,10-6.8,13.5-11.9C538.9,228.9,538.6,228.9,538.5,229z"/>
		<path class="st2" d="M536.8,206.8c-2.2,5.5-6.1,9.9-10.7,13.6c-3.4,2.7-11,5.9-14.5,1.6c-0.1-0.1-0.3,0.1-0.2,0.2
			c2.6,3.7,9,2.4,12.4,0.4c5.6-3.4,11.5-9.4,13.3-15.8C537.3,206.5,536.9,206.6,536.8,206.8z"/>
		<path class="st2" d="M530.4,182.1c-3.1,5-6.9,8.8-11.8,12.1c-3.4,2.3-9.7,3.7-12.3-0.3c-0.1-0.1-0.3,0.1-0.2,0.2
			c2.2,4.1,7.4,3.1,11,1.6c5.7-2.4,10.6-8.1,13.6-13.4C530.8,181.9,530.5,181.9,530.4,182.1z"/>
		<path class="st2" d="M527.3,157.3c-2.6,4.3-6.7,6.9-11.2,8.8c-2.4,1-4.9,1.4-7.5,1.2c-2.7-0.2-4.7-1.9-6.5-3.7
			c-0.1-0.1-0.2,0.1-0.2,0.2c3.7,4,7.8,5.3,13.1,3.3c4.9-1.8,10.1-4.8,12.5-9.8C527.7,157.2,527.4,157.2,527.3,157.3z"/>
		<path class="st2" d="M524.3,130.5c-3.3,4.5-6.8,8.1-11.7,10.9c-4.3,2.5-10.1,4.6-14.5,1.1c-0.1-0.1-0.3,0.1-0.2,0.2
			c3.9,3.6,8.9,2.2,13.2,0.1c5.5-2.6,10.4-6.8,13.4-12.2C524.7,130.3,524.4,130.3,524.3,130.5z"/>
		<path class="st2" d="M525.4,114.3c-4,3.2-8.3,5.2-13.2,6.5c-4.4,1.1-11.1,1.7-14.1-2.3c0-0.1-0.2,0.1-0.2,0.1
			c2.6,3.9,7.6,3.8,11.8,3.3c5.9-0.7,11.3-3.5,15.8-7.3C525.6,114.4,525.5,114.2,525.4,114.3z"/>
		<path class="st2" d="M529.5,97.3c-3.6,1.4-7.2,1.6-11,1.3c-3-0.3-7.9-1.8-9.6-4.5c-0.1-0.1-0.3,0.1-0.2,0.2
			c1.4,2.8,5.5,4.4,8.5,4.8c4.2,0.7,8.5,0.6,12.3-1.5C529.6,97.5,529.7,97.2,529.5,97.3z"/>
		<path class="st2" d="M244.6,145.7c-7.4,3.9-15.9,5.2-22.8-0.3c-0.1-0.1-0.2,0.1-0.1,0.1c5.9,6.5,16.2,4.5,23,0.4
			C244.8,145.9,244.8,145.6,244.6,145.7z"/>
		<path class="st2" d="M258.8,168.4c-6.3,2.5-17.8,1.8-18.9-6.9c0-0.2-0.2,0-0.2,0.1c-0.1,1.2,0.2,2.2,0.5,3.1
			c-7.2,4.1-19.1,0.3-23.2-6.9c-0.1-0.1-0.3,0.1-0.3,0.2c1.6,4.5,6.5,6.7,10.6,8.1c4.1,1.4,9.2,1.5,12.9-1.1
			c2.7,6,13.3,6.5,18.5,3.8C259,168.7,259.1,168.3,258.8,168.4z"/>
		<path class="st2" d="M254.8,188.5c-5.2,3.7-11.8,4.1-16.7,0.1c0-0.1,0-0.1-0.1-0.1c-0.5-0.4-1.1-0.9-1.6-1.5
			c-0.1-0.1-0.3,0.1-0.2,0.2c0.4,0.6,0.8,1,1.2,1.5c-5.1,2-10.2,1.3-15-1.3c-4.6-2.4-7.5-5.9-10.1-10.2c-0.1-0.1-0.2,0.1-0.2,0.1
			c4,9,15.9,16.7,25.6,11.6c4.6,4.5,12.2,4.1,17.2-0.1C255.2,188.7,255.1,188.3,254.8,188.5z"/>
		<path class="st2" d="M258,207.3c-3.4,3.2-7.2,5.1-12,4.8c-2.7-0.2-6.2-1.9-8.2-4.2c0.3-0.2,0.6-0.5,0.9-0.7c0.2-0.2,0-0.4-0.2-0.3
			c-0.3,0.2-0.7,0.5-1,0.7c-0.5-0.6-0.8-1.2-1.1-1.8c-0.1-0.1-0.3,0-0.2,0.1c0.2,0.7,0.4,1.4,0.8,2c-5,2.9-10.8,2.6-16.2,0.6
			c-5.7-2.2-8.7-6.7-11.1-12c-0.1-0.1-0.2,0-0.2,0.1c1.8,6.7,6.4,11.1,12.8,13.2c4.8,1.6,10.6,1.4,14.9-1.5c1.8,2.6,5.3,4.2,8.3,4.6
			c4.8,0.7,9.3-2.1,12.5-5.4C258.4,207.3,258.2,207.1,258,207.3z"/>
		<path class="st2" d="M263.6,223.7c-3.7,3.8-8,6.5-13.5,6.7c-3.1,0.2-7.5-1.3-9.9-3.9c0.1-0.1,0.1-0.1,0.2-0.2
			c0.2-0.2,0-0.5-0.2-0.2c-0.1,0.1-0.1,0.1-0.2,0.2c-0.5-0.6-0.9-1.3-1.2-1.9c-0.1-0.1-0.3,0.1-0.2,0.2c0.2,0.8,0.6,1.5,1,2.2
			c-5.3,5.1-12,5.8-18.9,3.9c-5.2-1.4-11.4-4.2-13.9-9.2c0-0.1-0.2,0-0.1,0.1c2.1,6.1,10,9.2,15.8,10.3c6.5,1.2,12.8,0.1,17.4-4.8
			c2.3,2.8,6.6,4.1,10,4.2c5.4,0.1,10.7-3.2,14-7.2C264.1,223.7,263.8,223.4,263.6,223.7z"/>
		<path class="st2" d="M264.9,232.3c-1.1,4.7-5.1,9.7-9.4,11.8c-2.5,1.2-5.8,2.1-8.8,1.6c0.1-0.1,0.2-0.3,0.3-0.4
			c0.2-0.3-0.2-0.4-0.4-0.2c-0.1,0.2-0.3,0.3-0.4,0.5c-1.1-0.2-2.2-0.6-3.1-1.3c-0.1-0.1-0.3,0.1-0.2,0.2c0.8,0.9,1.7,1.4,2.7,1.7
			c-8.7,9.9-26.6,11-36,1.4c-0.1-0.1-0.2,0.1-0.2,0.1c4.2,6,13.4,7.8,20.4,6.9c6.2-0.7,12.4-3.3,16.3-8.4c3.4,0.7,7.6-0.7,10.3-2.1
			c3.9-2,8-7.8,8.7-12.2C265.3,231.9,265,232.1,264.9,232.3z"/>
		<path class="st2" d="M270.5,248.2c0-0.3-0.4,0-0.4,0.2c-0.1,5-1.4,9.4-4.6,13.4c-2.1,2.6-5.9,4.9-9.6,5.4c0.1-0.2,0.1-0.3,0.2-0.5
			c0.1-0.4-0.3-0.2-0.5,0c-0.1,0.2-0.2,0.4-0.3,0.6c-1.3,0.1-2.5,0-3.6-0.5c-0.1,0-0.2,0.2-0.1,0.2c1,0.6,2.2,0.9,3.4,0.9
			c-1.8,3.3-3.7,6-6.9,8.3c-4,2.9-8.8,4.1-13.6,4.6c-7.9,0.8-16.1-0.7-22-6.3c-0.1-0.1-0.2,0.1-0.1,0.1c6.1,7.4,16.6,7.8,25.4,6.4
			c7.7-1.2,14.8-6,17.9-13.1c3.6-0.2,7.4-2.6,9.6-5C268.9,259.1,270.9,253.3,270.5,248.2z"/>
		<path class="st2" d="M296.2,270.4c0-0.3-0.4,0-0.4,0.2c-0.4,11.4-13.4,19.5-24.3,17.5c-0.1-0.6-0.3-1.1-0.6-1.6
			c-0.1-0.2-0.5,0.1-0.4,0.3c2.6,7.7-3.7,15.9-9.2,20.6c-2.7,2.3-5.7,4.1-9,5.5c-3.9,1.7-8.5,3.5-12.8,3.1c-0.1,0-0.2,0.2-0.1,0.2
			c4.1,0.8,8.2-0.8,12-2.2c4-1.5,7.9-3.9,11.1-6.8c3.4-3,5.9-6.4,7.8-10.6c0.9-2.1,1.8-5.3,1.4-7.9c1.9,0.9,4.7,0.3,6.6,0
			c3.4-0.5,6.5-1.7,9.4-3.5C292.5,282,296.7,276.4,296.2,270.4z"/>
		<path class="st2" d="M311,281.4c-0.1-0.2-0.4,0.1-0.3,0.2c2.7,5,1,11.2-2,15.7c-3.5,5.3-9.1,6.6-15,6c-0.4-1.5-0.9-3-1.6-4.4
			c-0.1-0.2-0.4,0.1-0.3,0.3c0.5,1.4,0.9,2.7,1.1,4c0,0,0,0,0,0c-0.1,0-0.2,0.2-0.1,0.2c0.1,0,0.1,0.1,0.2,0.1
			c1,5.4,0.1,10.5-2,15.9c-1.1,2.8-3,5.1-5,7.3c-2.1,2.3-5.2,5.7-8.5,6.4c-0.1,0-0.2,0.3-0.1,0.2c2.3-0.2,4.4-1.9,6.1-3.4
			c2.8-2.5,5.4-5.3,7.3-8.6c2.9-4.9,4.2-11.7,3-17.6c5.8,1.4,11-0.7,14.9-5.3C312.5,293.9,314.2,286.5,311,281.4z"/>
	</g>
	<path class="st3" d="M536.6,207.7c0,0,6-10.9-6.4-25c0,0,6.9-8.8-3.4-24.2c0,0,6-11.7-3-27.6c0,0,5.8-4.9,1.2-15.8
		c0,0,1.7-1.6,2.8-5c-4.4,4.6-14.7,7.9-19,6.5c-4.5-1.5,3.1-11.2,11.2-14.1c5.3-1.9,7.5-1,8.5-0.2c-0.1-1.2-0.3-2.5-0.7-3.9
		c0,0,2-1,4.2-3.2c-3.9,1.6-7.5,1.4-8.3-1.6c-1.1-4.1,4.7-12.2,9.1-13.2c3.7-0.8,4.5,1.6,4.7,2.4c0.1-2.5-0.2-5.3-1.1-8.6
		c0,0,8.3-23.5-4.7-29.7c-8-3.8-13.4-2.5-18-1.2c-2.9,0.8-5.4,1.6-8,1.1c-6.7-1.3-14.5-7.7-24.1-4.3c-9.6,3.4-9.8,12.7-9.7,15.7
		c0,0-13.6,5.6-11.1,16.8c0,0-12.2,3-13.2,16.3c0,0-13.7,2-14.2,17.9c0,0-17.8,1.6-19.4,15.5c0,0-16.5-4.1-24.9,1.9
		c0,0-21.5-2.9-30.4,6.2c0,0-10.1-10.9-25.7-4.8c0,0-12-8.8-22.6-4.9c0,0-3.9-10.1-22.7-6.9c0,0-4.8-8-22.1-4.4c0,0-12-6.8-21.2,6.4
		c0,0-11.3-1.1-18.8,6.2c1.7-0.5,3.8-0.7,6.3-0.2c9.5,1.9,5.8,27.5-6.2,26.2c0,0,0.3,2,5.2,3.3c4.9,1.4,1,16.2-8.1,12.6
		c0,0,7.9,7.4,4.7,15.9c-3.2,8.5-10.4,5-12,2.4c0,0,0.1,3.5,4.2,7.3c4.1,3.8,8.3,12.2,4.2,15.7c-4,3.4-9-0.1-12.2-4.6
		c0,0-0.2,5.9,6.3,11.2c6.5,5.3,8.8,13.1,2.7,15.5c-4.7,1.9-11.7-3.3-14.9-11.4c0.2,2.5,0.8,5.1,1.9,7.8c0,0-3.8,7.3,2.4,26.1
		c0,0-8.7,13.6,4.5,27.5c0,0-5.9,35.6,26.8,39.1c0,0,7.9,24.4,37.3,16.7c0,0,8.3,19.7,37.5,7.4c29.2-12.3,12.3-60.4-7-86.9
		C290,227,251,203.7,256,186.1c5-17.6,32.5-20.1,43.7-19.4c11.2,0.7,128.5,0.8,158.1-15.1c29.6-15.9,34.9,71.6,25,95.6
		c-3.8,9.3-8.6,39.9-4.3,50.3c1.3,3.2-9.2,7.4-10,10c-5.4,18.5-10.8,19.5-23.6,21c-9.3,1.1-19.5-2.5-29-6.2
		c-15-5.7-28.7-11.4-36.4,0.7c-12.6,19.9-17.3,47.7-17.3,47.7s-5.5,17.1,2.1,32.2c7.2,14.3,11.7,14.5,13.3,19.7
		c0-0.7-0.1-1.3-0.3-1.7c-1.2-2.4,6.7,2,13-0.4c6.3-2.4,4.9,1.2,3.1,7.8c-1.6,6.2,3.8,22.2,1.1,33.2c4-0.5,7.7-2.4,8.8-5.6
		c2.3-6.9,2.7-19.7,1.3-26.1c-1.5-6.4,14-23.9,11.2-46c0,0,16.9,23.3,40.2,9.3c0,0,32.5,8.3,37-23c0,0,19.2,1.5,19.4-28
		c0,0,14.4-0.9,10.1-25.9c0,0,11.2-6.8,6.8-23.7c0,0,13.8-5.1,8-26.7c0,0,15-7.8,0.9-35.5C538.2,230.3,543.7,218.1,536.6,207.7z
		 M290.6,287.2c0.9-1.3,2.2-2.3,3.2-3.6c1.1-1.4,1.9-2.8,2.6-4.4c0.2-1.6,0.5-3.7,2.1-4.4c1.8-0.9,3.7,1.6,4.4,3
		c1.8,3.9,1.5,9.1-0.9,12.7c-2.2,3.3-6,4.9-9.4,2.2C290.7,291.5,289.1,289.4,290.6,287.2z M287.9,331.4c1.1-1.5,2.3-2.9,3.5-4.4
		c0-0.1,0-0.1,0-0.2c0.8-1.5,1.9-3.2,3.1-4.4c0.1-0.1,0.1-0.2,0.2-0.4c0.1-0.1,0.2-0.2,0.3-0.1c1.7-1.3,3.6-1.3,5.3,2
		c2,4,3.4,11.9-0.2,15.6c-3.4,3.5-10.9,1.2-13.6-2.4C285.1,335.3,286.7,333,287.9,331.4z M210.4,231.9c3-3.8,12.7,3.3,12.7,3.3
		s9.9,6,10.5,11.9c0.4,3.9-7.6,8.6-16.6,2.5C207.9,243.6,207.4,235.7,210.4,231.9z M210.8,263.3c-0.6-5.2,3-6.7,3-6.7
		c3.5-1.6,10.5,0.5,13.8,1.8c4.8,1.8,7.5,5.7,7.7,10.7c0.2,4.3-2.7,7.4-7,7.5C216.6,277,211.3,268.5,210.8,263.3z M244.4,306
		c-2.9,1.2-6.5,1.8-9.6,1.2c-5.2-0.9-9.5-4.3-12.9-8.3c-2.5-3-6.1-8.1-2.9-11.9c0.5-0.7,1.2-1.1,1.9-1.5c3.7-2,9.1-0.8,12.9-0.6
		c6.9,0.3,14.1,3.1,16.7,10.1C252.4,299.6,248.6,304.2,244.4,306z M278.1,314.9c-0.5,2.4-2.2,4.8-4.2,6.2c-3.9,2.8-9.1,4.4-14,4.4
		c-3.8,0-11.1-3-7.2-8c1-1.3,2.2-2.2,3.6-2.9c2.8-1.3,6-1.8,8.9-2.7C268.7,311,279.8,307.2,278.1,314.9z M265.9,268.5
		c0.5-1.9,2.7-9.4,6.1-8.2c2.6,1,1.4,4.7,1.5,6.7c0.3,3.9,2,7.4,2.4,11.2c0.1,1.5-1.4,2.2-2.6,2.1c-2.1-0.2-4.7-3.9-5.8-5.4
		c-1.4-1.8-1.7-3.9-1.4-6C266,268.8,265.9,268.7,265.9,268.5z M262.6,245.3c1.6,0.8,1.8,2.3,1.6,4c-0.4,3.4-1.4,8.2-4.4,10.4
		c-3.7,2.8-6.5-5.6-6.3-8c0.2-2.2,1-3.3,2.6-4.5c0,0,0.1-0.1,0.1-0.1C258.2,245.2,260,244,262.6,245.3z M258.5,232.6
		c0.6,1.2,0,2.7-0.8,3.7c-1.5,2-4.7,4.7-7.3,3.1c-1.8-1.1-1.8-4.1-0.6-5.7c0.9-1.6,3-2.1,5-2.2C256,231.5,257.9,231.5,258.5,232.6z
		 M255.2,173.9c-0.7,1-2.2,1.6-3.1,2.5c-1.3,1.4-2.4,3.1-3.9,4.2c-1.3,1-2.9,1.1-3.5-0.8c-0.7-1.9-0.7-4.3,0-6.2
		c0.1-0.5,0.5-0.9,1-1.2c0-0.1,0.1-0.2,0.1-0.3c0-0.1,0.2-0.2,0.2,0c0,0,0,0.1-0.1,0.2c0.2-0.1,0.5-0.2,0.7-0.2
		c1.9,0,3.6,0.5,5.5,0.3c0.6-0.1,3.2-0.7,3.5,0.2C255.8,173.1,255.5,173.6,255.2,173.9z M254.5,160.9c-1.5,1.6-5.5,4.6-7,1.4
		c-1.4-2.8-0.1-6.9,2.1-9c0,0,0.1-0.1,0.1-0.1c1.4-1.6,3.3-2.3,5.5-0.7C257.9,154.4,256.3,158.9,254.5,160.9z M386.8,412.2
		c-13,0-17.7-10.4-18.1-15.7c-0.4-5.2,8.4-5.8,8.4-5.8c3.7-0.8,21.7-2.7,24,2.3C403.5,398,399.8,412.2,386.8,412.2z M397.6,380.2
		c-8.3-2.1,4-19,12.8-21.2c8.8-2.1,12.1,6.8,12.1,6.8C425.6,375.8,405.9,382.3,397.6,380.2z M457,379.9c-6.2,18.9-32.7,9.7-29.2,0.5
		c3.4-9.1,17-10.3,24.2-7.2C459.1,376.3,457,379.9,457,379.9z M487.9,367.4c-0.4,11.6-12.3,23.4-20.6,22.4
		c-8.3-1,6.2-23.7,13.5-26.9C488.1,359.8,487.9,367.4,487.9,367.4z M536.2,219.6c1.2,11.7-9.8,19-13.2,15.4
		c-3.4-3.5,5.6-13.4,9.2-16.5C535.7,215.4,536.2,219.6,536.2,219.6z M533.4,194.2c0.3,0.8,0.5,1.5,0.7,2.3c0.9,4.7-0.5,9.8-3.1,13.8
		c-1.9,2.8-7.4,9.2-11.7,6.7c-5-3,1.2-19.7,6.4-25.1C529.1,188.4,532,190.9,533.4,194.2z M527.2,166.3c3.9,6.2,0.4,15.5-4.1,20.4
		c-2.2,2.4-7.5,6.8-9.5,1.5c-2.5-6.8,3.8-19.1,8.7-22.2C524.8,164.3,526.3,164.9,527.2,166.3z M524.3,153.7c-1.2,4.2-4,8.2-8.7,8.8
		c-10.2,1.4-3.4-17.2,2.1-21.3c2.9-2.2,4.7-2.1,5.7-0.8C526.2,143.8,525.4,149.8,524.3,153.7z M520.1,120.5c6.2-2.7,4.4,3.5,4.4,3.5
		c-3.6,10.5-16.5,18-16.7,11.8C507.6,129.5,514,123.2,520.1,120.5z M497,361c-6.6-2-0.3-29,5.3-31c5.7-2,7.1,8.1,7.1,8.1
		C510.6,353,503.7,363,497,361z M520,323.1c-0.3,3.5-3,11.3-7.9,7.1c-6.7-5.8-8.8-23.7-2.1-23.9c4.6-0.2,7.4,3,8.8,6.9
		C519.9,316.4,520.3,320.2,520,323.1z M517,303c-5.3-8.3-3.5-18.1,3.4-17.4c7,0.7,7.2,7.5,7.2,7.5C529.1,302.7,522.2,311.3,517,303z
		 M526.9,282c-4.3-3.6-5.7-19,0.1-20.4c5.7-1.4,8.3,8.5,8.3,8.5C537.4,281.5,531.2,285.6,526.9,282z M539.9,245.5
		c1.6,13-6.7,10.6-10.6,7c-3.9-3.7-2.5-9.1,3.7-11.8C539.1,237.9,539.8,245,539.9,245.5z"/>
	<g>
		<path class="st4" d="M455.8,365.1c-6,0.2-12.7-1.2-19.9-4.1c-8.9-3.5-15.7-8.2-18.2-10c-8.6-6.2-12.6-4.8-12.6-4.7
			c0.1-0.1,0.2-0.1,0.2-0.1l-3.1-5.8c1.2-0.6,7.6-3.4,19.5,5.3c7.9,5.7,24.5,14.8,37.4,12.5c5.3-0.9,9.4-3.7,12.4-8.2
			c7.8-11.6,19-31.5,27.3-52.7c10.7-27.3,14.2-50.2,10.6-68.2c-0.8-3.9-1.5-7.5-2.2-11c-7.2-35.2-10.1-49.8-11.4-69.8
			c-0.4-6.4-0.8-12.6-1.1-18c-0.5-8.7-1-17.7-1.4-20.2c-0.9-1.5-0.6-3.4,0.8-4.5c1-0.7,2.3-0.8,3.5-0.3c2,1,2.3,2.8,2.8,9
			c0.3,3.9,0.6,9.3,0.9,15.6c0.3,5.4,0.7,11.6,1.1,18c1.3,19.5,4.2,34,11.3,68.9c0.7,3.5,1.4,7.1,2.2,11
			c3.9,19.2,0.2,43.4-10.9,71.9c-8.5,21.7-20,42.1-28,53.9c-4.1,6.1-9.7,9.8-16.8,11C458.7,364.9,457.3,365,455.8,365.1z"/>
		<path class="st5" d="M455.8,365.4c-6,0.2-12.7-1.2-20-4.1c-8.9-3.6-15.7-8.2-18.2-10.1c-6-4.3-9.7-4.9-11.4-4.8
			c-0.7,0-1,0.1-1,0.1l-0.1-0.3l-0.1,0l-3.3-6l0.2-0.1c0.5-0.3,1.8-0.9,4-0.9c3.1-0.1,8.4,0.9,15.8,6.3c6.8,4.9,21.5,13.2,33.9,12.8
			c1.1,0,2.2-0.1,3.3-0.3c5.2-0.9,9.2-3.6,12.3-8.1c7.8-11.6,19-31.5,27.3-52.6c10.7-27.2,14.2-50.1,10.6-68
			c-0.8-3.9-1.5-7.5-2.2-11c-7.2-35.2-10.1-49.8-11.4-69.9c-0.4-6.2-0.7-12.1-1-17.4l0-0.6c-0.5-8.6-1-17.6-1.4-20.1
			c-1-1.6-0.6-3.7,1-4.8c1.1-0.8,2.5-0.9,3.7-0.3c2.2,1.1,2.5,2.9,2.9,9.3c0.3,3.9,0.6,9.2,0.9,15.4l0,0.8c0.3,5.3,0.6,11.2,1,17.3
			c1.3,19.5,4.2,33.9,11.3,68.9l0.2,0.8c0.7,3.2,1.3,6.6,2.1,10.2c3.9,19.3,0.2,43.5-10.9,72.1c-8.5,21.7-20,42.1-28,54
			c-4.1,6.1-9.8,9.9-17,11.1C458.8,365.2,457.3,365.3,455.8,365.4z M406.1,345.8c1.8-0.1,5.6,0.5,11.7,5c2.5,1.8,9.3,6.5,18.1,10
			c9,3.6,17.2,4.8,24.1,3.6c7-1.2,12.6-4.9,16.6-10.9c7.9-11.9,19.5-32.2,27.9-53.9c11.1-28.4,14.8-52.6,10.9-71.7
			c-0.7-3.6-1.4-7-2.1-10.2l-0.2-0.8c-7.1-35-10-49.4-11.3-69c-0.4-6.1-0.7-12.1-1-17.3l0-0.8c-0.3-6.2-0.7-11.6-0.9-15.4
			c-0.5-6.1-0.7-7.9-2.6-8.8c-1-0.5-2.2-0.4-3.1,0.3c-1.3,0.9-1.7,2.7-0.8,4.1l0,0.1c0.4,2.5,0.9,11.6,1.4,20.3l0,0.6
			c0.3,5.3,0.7,11.2,1.1,17.4c1.3,20,4.2,34.6,11.4,69.8c0.7,3.5,1.4,7.1,2.2,11c3.7,18,0.1,41-10.6,68.3
			c-8.3,21.2-19.6,41.1-27.3,52.7c-3.1,4.7-7.3,7.4-12.6,8.4c-1.1,0.2-2.2,0.3-3.4,0.4c-12.5,0.4-27.4-7.9-34.2-12.9
			c-7.2-5.3-12.4-6.2-15.5-6.1c-1.8,0.1-2.9,0.5-3.5,0.7l2.9,5.4C405.6,345.8,405.8,345.8,406.1,345.8z"/>
	</g>
	<path class="st6" d="M515.8,227.8c-0.8-3.9-1.5-7.5-2.2-11c-7.1-34.9-10-49.4-11.3-68.9c-0.4-6.4-0.8-12.6-1.1-18
		c-0.3-6.3-0.7-11.7-0.9-15.6c-0.5-6.2-0.7-8.1-2.8-9c-1.1-0.5-2.4-0.4-3.5,0.3c-1.4,1-1.8,3-0.8,4.5c0.5,2.5,0.9,11.5,1.4,20.2
		c0.3,5.4,0.6,11.6,1.1,18c1.2,18.5,3.8,32.4,9.9,62.5c0.4-0.6,1-1.3,1.8-1.2c1.3,0.2,1.9,2.7,2.2,3.6c1,3.3,1.6,6.7,2.5,10
		c1.9,7.3,3.4,14.9,3.2,22.5c0,6.3-0.9,12.6-2.2,18.8c-1.5,7.1-3.1,14.3-5.4,21.2c-2.2,6.6-4.9,13-7.8,19.3
		c-3.6,7.5-6.7,15.6-10.6,23c-2.8,5.3-5.9,10.5-9.1,15.6c-2.5,3.9-5.2,7.7-8.6,10.8c-6.7,6.2-15.1,9.1-24.2,7.5
		c-5.6-1-11.1-3.1-16.2-5.8c-2.8-1.5-5.4-3.2-8.2-4.7c-2.3-1.2-4.9-2.3-6.9-4c-2.9-2.4-0.6-3.4,2.3-4c-9.8-5.9-15.1-3.7-16.2-3.1
		l3.1,5.8c0,0,0,0-0.2,0.1c0,0,4.1-1.5,12.6,4.7c2.5,1.8,9.3,6.5,18.2,10c7.3,2.9,14,4.3,19.9,4.1c1.5,0,2.9-0.2,4.3-0.4
		c7-1.2,12.7-5,16.8-11c8-11.9,19.5-32.2,28-53.9C516,271.2,519.7,247,515.8,227.8z"/>
	<path class="st7" d="M508.4,215.5c0,0,0.3,0.8,0.7,2.2c0.4,1.4,1,3.6,1.6,6.3c0.6,2.7,1.3,6.1,1.9,9.9c0.6,3.9,1.1,8.3,0.9,13.1
		c-0.2,4.8-1,10-2.1,15.4c-1,5.4-2.4,11.1-4,16.9c-1.6,5.8-3.5,11.7-5.7,17.6c-0.5,1.5-1.2,3-1.8,4.4c-0.3,0.7-0.6,1.4-0.9,2.2
		c-0.4,0.7-0.7,1.5-1,2.2c-0.7,1.4-1.5,2.9-2.2,4.3c-0.8,1.4-1.5,2.8-2.2,4.3c-2.9,5.7-5.7,11.4-8.6,17.1
		c-2.9,5.6-5.9,11.1-9.2,16.1c-1.7,2.5-3.4,5-5.4,7.1c-2,2.1-4.5,3.8-7.1,4.8c-2.6,1-5.4,1.4-8,1.4c-2.6,0-5.1-0.3-7.5-0.8
		c-2.4-0.5-4.6-1.2-6.7-1.8c-2.1-0.7-4-1.6-5.7-2.5c-3.5-1.8-6.4-3.5-8.8-5c-4.8-3-7.4-4.8-7.4-4.8s0.7,0.4,2,1.2
		c1.3,0.8,3.1,2,5.6,3.4c2.4,1.4,5.4,3.1,8.9,4.8c1.7,0.9,3.6,1.7,5.7,2.4c2.1,0.6,4.3,1.2,6.6,1.7c2.3,0.5,4.8,0.8,7.4,0.7
		c2.5,0,5.2-0.5,7.7-1.4c2.5-1,4.7-2.6,6.7-4.7c2-2.1,3.6-4.5,5.3-6.9c3.2-5,6.1-10.5,9-16.1c2.9-5.6,5.6-11.4,8.6-17.1
		c0.7-1.4,1.4-2.9,2.2-4.3c0.8-1.4,1.5-2.8,2.2-4.2c0.3-0.7,0.7-1.4,1-2.1c0.3-0.7,0.7-1.4,1-2.2c0.6-1.5,1.2-2.9,1.7-4.4
		c2.3-5.9,4.1-11.8,5.8-17.5c1.6-5.8,3-11.4,4.2-16.8c1.1-5.4,2-10.5,2.3-15.3c0.1-2.4,0.1-4.7-0.1-6.8c0-0.5-0.1-1.1-0.1-1.6
		c0-0.5-0.1-1-0.1-1.6c-0.1-1-0.2-2-0.4-3c-0.5-3.9-1.1-7.2-1.7-9.9C509.3,218.6,508.4,215.5,508.4,215.5z"/>
	<g>
		<path class="st4" d="M312,323.9c-3.9,0.1-8.6-1.7-13.2-10.4c-4-7.5-10.5-11.6-18.7-16.9c-4.4-2.8-9.3-5.9-14.4-10
			c-8.1-6.5-15.5-17.4-21-30.8c-6.2-15.5-9.7-34.1-10.1-53.8c-0.8-42.6,9.1-61.5,9.6-62.3c0.9-1.6,2.9-2.2,4.5-1.3
			c1.6,0.9,2.2,2.9,1.4,4.5c-0.1,0.3-9.5,18.6-8.8,59.1c0.8,42.5,15.9,69.4,28.6,79.6c4.8,3.8,9.3,6.7,13.8,9.6
			c8.7,5.5,16.2,10.3,21,19.3c4.1,7.8,6.9,7.1,8.7,6.6c1-0.2,2.2-0.5,3.5,0.1c1.7,0.8,2.4,2.7,1.6,4.4c-0.6,1.3-2,2-3.3,1.9
			c-0.1,0-0.1,0-0.2,0.1C314,323.7,313,323.9,312,323.9z"/>
		<path class="st5" d="M312,324.2c-5.2,0.2-9.6-3.3-13.5-10.5c-3.9-7.4-10.4-11.6-18.6-16.7c-4.4-2.8-9.4-6-14.4-10
			c-8.1-6.5-15.6-17.5-21-31c-6.3-15.5-9.8-34.1-10.1-53.9c-0.8-42.6,9.2-61.6,9.6-62.4c0.6-1.1,1.8-1.8,3-1.9
			c0.6,0,1.3,0.1,1.8,0.4c1.7,0.9,2.4,3.1,1.5,4.8c-0.1,0.2-9.5,18.5-8.7,58.9c0.7,42.4,15.8,69.2,28.5,79.4
			c4.8,3.8,9.4,6.7,13.8,9.6c8.7,5.5,16.2,10.3,21.1,19.4c3.2,6.1,5.5,6.8,7,6.7c0.5,0,1-0.1,1.4-0.2c0.5-0.1,1.1-0.3,1.8-0.3
			c0.7,0,1.3,0.1,1.9,0.4c1.8,0.8,2.6,3,1.8,4.7c-0.6,1.4-2,2.2-3.5,2.1l-0.2,0C313.9,324,312.9,324.2,312,324.2z M247,138.4
			c-1.1,0-2,0.6-2.5,1.6c-0.4,0.8-10.3,19.6-9.5,62.1c0.4,19.7,3.8,38.2,10.1,53.7c5.4,13.4,12.8,24.3,20.9,30.7c5,4,10,7.2,14.3,10
			c8.3,5.3,14.8,9.4,18.8,17c3.7,7,8,10.4,13,10.2c0.9,0,1.8-0.2,2.9-0.4l0.3-0.1h0c1.3,0.1,2.5-0.6,3-1.7c0.7-1.5,0-3.3-1.5-4
			c-0.5-0.3-1.1-0.4-1.7-0.3c-0.6,0-1.2,0.2-1.7,0.3c-0.5,0.1-1,0.2-1.5,0.3c-1.6,0.1-4.1-0.6-7.5-7c-4.8-9-12.2-13.7-20.9-19.2
			c-4.4-2.8-9-5.7-13.8-9.6c-12.7-10.2-27.9-37.2-28.7-79.8c-0.7-40.5,8.7-59,8.8-59.2c0.8-1.5,0.2-3.3-1.2-4.1
			C248.1,138.5,247.5,138.4,247,138.4z"/>
	</g>
	<g class="st8">
		<path class="st9" d="M316.8,317.2c-1.3-0.6-2.5-0.3-3.5-0.1c-1.8,0.5-4.6,1.2-8.7-6.6c-4.8-9-12.3-13.8-21-19.3
			c-4.5-2.8-9-5.7-13.8-9.6c-12.7-10.2-27.8-37.1-28.6-79.6c-0.7-40.5,8.6-58.8,8.8-59.1c0.9-1.6,0.3-3.6-1.4-4.5
			c-1.6-0.9-3.6-0.3-4.5,1.3c-0.2,0.3-2.3,4.4-4.5,12.6c0.7-0.5,1.4-0.7,2.1-0.6c0,0,2-0.5,1.4,1.7c-0.6,2.2-10.3,39.5-1.5,81
			c8.9,41.5,26.1,48.8,34.7,55.8c8.6,7,20.3,9.2,26,21.3c0,0,1.7,3.7-0.1,4.2c-0.7,0.2-1.4,0.2-2,0.2c4.1,6.6,8.4,8,11.8,7.9
			c1,0,2-0.2,2.9-0.4c0.1,0,0.2-0.1,0.2-0.1c1.4,0.1,2.7-0.6,3.3-1.9C319.2,319.9,318.5,317.9,316.8,317.2z"/>
	</g>
	<path class="st7" d="M238.4,164.1c0,0-0.1,0.7-0.3,1.9c-0.1,0.6-0.2,1.4-0.3,2.3c-0.1,0.9-0.2,2-0.4,3.1c-0.1,1.2-0.2,2.5-0.4,3.9
		c-0.1,1.4-0.2,2.9-0.4,4.6c-0.1,1.6-0.2,3.4-0.3,5.2c-0.1,1.8-0.1,3.8-0.2,5.8c0,2,0,4.1,0,6.3c0.1,2.1,0.1,4.4,0.2,6.7
		c0,1.2,0.1,2.3,0.2,3.5c0.1,1.2,0.1,2.4,0.2,3.6c0.1,1.2,0.2,2.4,0.3,3.6c0.1,1.2,0.2,2.5,0.4,3.7c0.6,5,1.4,10.1,2.5,15.3
		c0.6,2.6,1.1,5.2,1.9,7.7c0.4,1.3,0.7,2.6,1.1,3.9l0.5,1.9c0.2,0.6,0.4,1.3,0.6,1.9c1.7,5,3.8,10,6.2,14.7c2.5,4.7,5.2,9,8.3,12.9
		c1.5,2,3.2,3.8,4.9,5.5c1.7,1.7,3.4,3.3,5.3,4.7c1.8,1.4,3.7,2.6,5.5,3.8c1.8,1.2,3.6,2.3,5.3,3.4c3.4,2.2,6.5,4.1,9.3,6
		c2.7,1.9,4.8,3.9,6.3,5.6c1.5,1.8,2.6,3.3,3.2,4.4c0.4,0.5,0.5,1,0.7,1.3c0.2,0.3,0.2,0.4,0.2,0.4s-0.1-0.1-0.2-0.4
		c-0.2-0.3-0.4-0.7-0.7-1.2c-0.7-1.1-1.8-2.5-3.4-4.3c-1.6-1.7-3.7-3.6-6.4-5.4c-1.4-0.9-2.8-1.8-4.4-2.7c-1.6-1-3.2-2-4.9-3
		c-1.7-1.1-3.5-2.2-5.4-3.3c-1.9-1.1-3.8-2.3-5.7-3.7c-1.9-1.4-3.7-3-5.4-4.7c-1.8-1.7-3.4-3.6-5-5.6c-3.2-4-6-8.4-8.5-13.1
		c-2.5-4.7-4.6-9.7-6.4-14.8c-0.2-0.7-0.4-1.3-0.6-2l-0.5-1.9c-0.4-1.3-0.7-2.6-1.1-3.9c-0.8-2.6-1.3-5.2-1.9-7.8
		c-1.1-5.2-1.9-10.4-2.4-15.4c-0.2-1.2-0.3-2.5-0.4-3.7c-0.1-1.2-0.2-2.5-0.3-3.7c-0.1-1.2-0.1-2.4-0.2-3.6c0-1.2-0.1-2.3-0.1-3.5
		c-0.1-2.3,0-4.6-0.1-6.7c0-2.2,0.1-4.3,0.1-6.3c0.1-2,0.2-4,0.3-5.8c0.2-1.9,0.3-3.6,0.4-5.2c0.2-1.6,0.3-3.2,0.5-4.6
		c0.2-1.4,0.3-2.7,0.5-3.9c0.2-1.2,0.3-2.2,0.5-3.1c0.1-0.9,0.3-1.7,0.4-2.3C238.3,164.8,238.4,164.1,238.4,164.1z"/>
	<g>
		<g>
			<path class="st0" d="M458.6,144.2c0,0,22.4-0.3,26.8-23.1c0,0,18.1,2.5,20.3-22.3c0,0,15.4-1.6,17.8-21.7c0,0,5.4,1,12.6-3.6
				c3.2-2.1,10.1-22.4-4-29.6c-7.9-4-13.6-2.5-18.2-1.2c-2.9,0.8-5.4,1.6-8.1,1.1c-6.7-1.3-14.7-7.7-24.3-4.3
				c-9.7,3.4-9.9,12.7-9.8,15.8c0,0-13.7,5.6-11.3,16.9c0,0-12.3,3-13.3,16.4c0,0-13.8,2-14.3,18c0,0-18,1.6-19.6,15.6
				c0,0-16.6-4.1-25.2,1.9c0,0-21.7-2.9-30.7,6.2c0,0-10.1-11-25.9-4.8c0,0-8-10.9-21.5-5.5c0,0-2.6-10.2-23.2-6.5
				c0,0-6.1-8.9-23-4.3c-4.6,1.2-8.4,5-6.5,11.1c0,0-11.8,0.9-16.1,9.8c-4.3,8.9,1.3,22.6,23.9,20.8c0,0,5.4,9.1,24.9,5.8
				c0,0,11.3,15.1,31,4.6c0,0,2.3,3.1,6.8,5.5c4.5,4,19.5,2.5,23.4-0.4c5.3,7.1,28.3,10.1,43.5-0.5c-0.2,0.3,15.7,7.1,26.4-5
				c0.6-0.7,1.6-2.8,2.8-4.7c0,0,8.2,7.5,24.4,0.4c4.9-2.2,8-6.1,10.1-11.8L458.6,144.2z"/>
			<path class="st1" d="M372.6,172.9c-9.5,0.3-18.2-2.3-21.5-6.3c-2.2,1.4-7,2.5-12,2.7c-5.3,0.2-9.5-0.7-11.5-2.5
				c-3.9-2.1-6.1-4.7-6.7-5.4c-4.3,2.2-8.6,3.5-12.7,3.6c-11,0.4-17.5-7.2-18.4-8.3c-2.2,0.4-4.4,0.6-6.4,0.7
				c-13.2,0.4-17.8-5.5-18.6-6.5c-11.1,0.8-19.3-2-23.2-8c-2.6-4-2.9-9-0.8-13.3c3.9-8.1,14-9.7,16-9.9c-0.7-2.5-0.5-4.7,0.5-6.6
				c1.2-2.1,3.4-3.8,6.3-4.5c2.9-0.8,5.7-1.2,8.3-1.3c10-0.3,14.2,4.6,15,5.6c2.5-0.4,4.8-0.7,6.9-0.8c12.8-0.4,15.8,5.7,16.3,7.2
				c2.2-0.8,4.4-1.3,6.6-1.4c8.6-0.3,14,5.9,14.9,7c2.9-1.1,5.8-1.7,8.6-1.8c9.6-0.3,16,5.4,17.2,6.5c5.1-4.9,14-6.2,20.6-6.5
				c5.2-0.2,9.3,0.3,10.1,0.4c2.9-2,6.9-3,11.9-3.2c6-0.2,11.7,1,13.1,1.3c0.7-5.7,4.4-10.1,10.5-12.9c4.1-1.9,8-2.4,9-2.6
				c0.3-8.2,4.2-12.7,7.5-15c3.1-2.2,6.1-2.9,6.9-3c1.1-12.2,11.5-15.8,13.3-16.4c-0.9-4.6,0.8-9,4.8-12.7c2.7-2.4,5.7-3.9,6.5-4.2
				c-0.1-4.7,1-12.7,10-15.9c1.7-0.6,3.4-0.9,5.2-1c4.7-0.2,9,1.6,12.8,3.1c2.3,0.9,4.4,1.8,6.5,2.2c0.6,0.1,1.3,0.2,2,0.2
				c1.7-0.1,3.5-0.6,5.4-1.1l0.5-0.2c2.2-0.6,4.6-1.3,7.5-1.4c3.6-0.1,7.2,0.7,10.9,2.6c6.7,3.4,8.4,9.6,8.6,14.2
				c0.4,7.1-2.5,14.5-4.6,15.9c-4.6,3-8.5,3.7-10.9,3.8c-0.8,0-1.3,0-1.6,0C521.5,95.9,507.9,98.7,506,99
				c-1.9,19.7-13.7,22.2-18.7,22.4c-0.8,0-1.4,0-1.7,0c-4.3,21.5-24.4,23-26.8,23.1l-0.2,0.4c-2.2,6-5.4,9.8-10.2,11.9
				c-4.3,1.9-8.5,3-12.4,3.1c0,0,0,0,0,0c-7,0.2-11-2.5-12-3.3c-0.4,0.6-0.7,1.2-1,1.8c-0.7,1.2-1.3,2.2-1.6,2.7
				c-4.1,4.6-9.3,7-15.5,7.2c-5.4,0.2-9.9-1.4-11.1-2.1C388.7,170.2,380.8,172.6,372.6,172.9z M351.2,165.9l0.2,0.2
				c3,4,11.7,6.6,21.1,6.3c8.2-0.3,16.1-2.7,22-6.8l2.1-1.5l-1.6,1.7c1.1,0.5,5.4,2.1,10.6,1.9c6.1-0.2,11.2-2.6,15.2-7.1
				c0.4-0.4,0.9-1.4,1.6-2.6c0.4-0.7,0.8-1.4,1.2-2.1l0.2-0.3l0.3,0.2c0,0,4.1,3.6,11.9,3.3l0,0c3.8-0.1,7.9-1.2,12.2-3
				c4.7-2.1,7.8-5.7,9.9-11.6l0-0.1l0.4-0.6h0.3c2.3-0.1,22.3-1.4,26.4-22.9l0-0.3l0.3,0c0,0,0.7,0.1,1.8,0.1
				c4.9-0.2,16.4-2.6,18.2-22.1l0-0.2l0.2,0c0.2,0,15.2-1.8,17.6-21.5l0-0.3l0.3,0.1c0,0,0.7,0.1,1.8,0.1c2.4-0.1,6.2-0.8,10.6-3.7
				c1.8-1.2,4.8-8.3,4.4-15.4c-0.2-4.4-1.9-10.4-8.3-13.7c-3.6-1.8-7.1-2.7-10.6-2.6c-2.8,0.1-5.2,0.8-7.4,1.3l-0.5,0.2
				c-1.9,0.5-3.7,1-5.5,1.1c-0.8,0-1.4,0-2.1-0.2c-2.1-0.4-4.3-1.3-6.6-2.2c-3.8-1.5-8-3.2-12.6-3.1c-1.7,0.1-3.4,0.4-5,1
				c-8.7,3.1-9.7,11-9.6,15.5v0.2l-0.2,0.1c-0.1,0.1-13.5,5.6-11.1,16.5l0.1,0.3l-0.3,0.1c-0.1,0-12.1,3.1-13.1,16.2l0,0.2l-0.2,0
				c0,0-3.5,0.5-6.9,3c-3.1,2.2-6.9,6.6-7.2,14.8v0.2l-0.2,0c0,0-4.5,0.4-9.1,2.5c-6.1,2.8-9.5,7.1-10.2,12.8l0,0.3l-0.3-0.1
				c-0.1,0-6.4-1.6-13.2-1.3c-5,0.2-8.9,1.2-11.7,3.1l-0.1,0.1h-0.1c-0.1,0-4.5-0.6-10.1-0.4c-6.6,0.2-15.5,1.5-20.4,6.5l-0.2,0.2
				l-0.2-0.2c-0.1-0.1-6.5-6.9-16.9-6.6c-2.9,0.1-5.8,0.7-8.7,1.9l-0.2,0.1l-0.1-0.2c-0.1-0.1-5.4-7.2-14.5-6.9
				c-2.2,0.1-4.4,0.6-6.7,1.5l-0.3,0.1l-0.1-0.3c0-0.1-2.1-7.5-15.9-7c-2.2,0.1-4.5,0.3-7,0.8l-0.2,0l-0.1-0.1
				c-1.4-2-6.2-5.7-14.6-5.5c-2.5,0.1-5.3,0.5-8.1,1.3c-2.7,0.7-4.8,2.2-5.9,4.3c-1,1.8-1.1,4-0.4,6.4l0.1,0.3l-0.4,0
				c-0.1,0-11.7,1-15.9,9.7c-2,4.1-1.7,8.9,0.7,12.7c3.8,5.8,11.9,8.6,22.8,7.7l0.2,0l0.1,0.1c1.4,2.4,7.1,6.8,18.2,6.4
				c2-0.1,4.2-0.3,6.5-0.7l0.2,0l0.1,0.1c0,0.1,6.6,8.6,18.1,8.2c4.1-0.1,8.3-1.4,12.6-3.6l0.2-0.1l0.1,0.2c0,0,2.3,3,6.7,5.4l0.1,0
				c1.9,1.7,5.9,2.5,11.1,2.3c5.1-0.2,10-1.3,11.9-2.7L351.2,165.9z"/>
		</g>
		<g>
			<path class="st2" d="M287.4,112.8c-1.8,0.9-3.7,1.2-5.4,2.2c-1.7,0.9-3.2,2.5-4.4,3.9c-1.8,2.1-2.9,4.9-2.3,7.6
				c-4.5-0.3-8.8,2.7-10.7,6.7c-2.4,4.7-3.5,13.3,0.4,17.6c0.1,0.1,0.3-0.1,0.2-0.2c-5.4-8.6-0.8-23.4,10.2-23.6
				c0.1,0.5,0.3,0.9,0.6,1.4c0.1,0.2,0.5-0.1,0.4-0.3c-0.1-0.4-0.2-0.8-0.3-1.1c0.1-0.1,0.2-0.3,0-0.3c0,0-0.1,0-0.1,0
				c-0.7-4,1.5-7.2,4.6-9.9c2.1-1.8,4.7-2.1,6.9-3.6C287.5,112.9,287.5,112.7,287.4,112.8z"/>
			<path class="st2" d="M311.1,119c-4.3,1.6-8.3,3-11.2,6.8c-1.7,2.3-3,5.3-2.6,8.2c-4.8,2-7.3,4.6-9.1,9.5c-1.7,4.9-1.3,10,2.1,14
				c0.1,0.1,0.3-0.1,0.3-0.3c-2.4-3.8-3.1-7.6-2.1-12c1.2-5.3,4-8.7,8.9-11.1c0.2,1,0.5,2,1.2,2.9c0.1,0.2,0.4-0.1,0.4-0.3
				c-1.8-4.6-0.3-8.7,2.9-12.3c2.5-2.8,6.2-3.7,9.4-5.4C311.2,119.2,311.3,119,311.1,119z"/>
			<path class="st2" d="M332.2,124.9c-3.7,1.7-6.3,3-8.7,6.4c-1.8,2.6-2.8,5.6-2.4,8.6c-7.1,5.4-4.6,16.9,0.5,22.9
				c0.1,0.1,0.3-0.1,0.2-0.2c-4.4-6.3-6.8-16.6-0.6-22.4c0.2,1,0.6,2,1.1,3c0.1,0.2,0.4-0.1,0.3-0.2c-0.4-1.2-0.6-2.3-0.7-3.4
				c0,0,0,0,0.1,0c0.1-0.1,0.1-0.3-0.1-0.2c-0.2-3.4,1-6.4,3.3-9.4c1.9-2.5,4.6-3.2,7-4.9C332.3,125,332.3,124.9,332.2,124.9z"/>
			<path class="st2" d="M358.5,129.1c-4.7,2.3-7.4,10.3-5.3,15.2c-2.6,2.6-4.1,6-4.7,9.7c-0.6,3.7,0,10.1,3.1,12.7
				c0.1,0.1,0.3-0.1,0.2-0.2c-4.6-6.6-3.2-15.8,1.7-21.7c0.1,0.1,0.1,0.2,0.2,0.3c0.1,0.2,0.4-0.1,0.4-0.2c0-0.2-0.1-0.4-0.1-0.6
				c0.4-0.4,0.8-0.8,1.2-1.2c0.1-0.1,0-0.3-0.2-0.2c-0.4,0.3-0.8,0.6-1.1,0.9c-1-5.3,0.3-11.1,4.8-14.5
				C358.6,129.2,358.6,129,358.5,129.1z"/>
			<path class="st2" d="M396,141.6c1.8-6.3-2.3-15.5-8.3-17.9c-0.1,0-0.3,0.2-0.2,0.2c5.1,3.4,9.3,10.8,8.1,17.2
				c-0.2-0.2-0.5-0.5-0.7-0.7c-0.1-0.1-0.3,0.1-0.2,0.2c0.3,0.4,0.5,0.8,0.8,1.1c-0.1,0.5-0.3,1.1-0.5,1.6c-0.1,0.2,0.2,0.2,0.3,0.1
				c0.2-0.4,0.4-0.8,0.5-1.2c2.1,3.3,2.8,6.2,2.5,10.5c-0.3,4.4-1.7,8.6-3.8,12.5c-0.2,0.3,0.2,0.3,0.3,0.1
				C398.9,158.5,401.6,148.2,396,141.6z"/>
			<path class="st2" d="M419.2,135.9c1.2-5.7-1-13-6.9-14.4c-0.1,0-0.3,0.2-0.2,0.2c6.6,2.8,8.4,11.8,5.4,17.8
				c-0.1,0.2,0.2,0.2,0.3,0.1c0.6-1,1.1-2.1,1.4-3.3c4.7,1.9,5.9,6.8,6.1,11.4c0.2,6.1-2.7,11.5-6.6,16c-0.2,0.2,0,0.4,0.2,0.2
				c4.3-4.5,6.9-10.2,7.2-16.4C426.2,143,424.5,136.5,419.2,135.9z"/>
			<path class="st2" d="M457.5,128.6c-2-4.8-4.9-7.9-9.6-9.3c-0.4-3.1-1.6-5.8-3.8-8.2c-1.5-1.6-3.4-2.9-5.4-3.8
				c-2.2-1-4.4-0.6-6.7-0.9c-0.1,0-0.2,0.2-0.1,0.2c1.8,0.5,3.7,0.4,5.5,0.9c2.1,0.6,3.9,2,5.6,3.4c2.4,2.1,3.8,5.1,4.5,8.1
				c-0.5-0.1-1-0.3-1.5-0.4c-0.1,0-0.2,0.2-0.1,0.2c0.6,0.2,1.2,0.4,1.7,0.6c0.1,0.5,0.2,1.1,0.3,1.6c0,0.2,0.3,0,0.3-0.1
				c0-0.4-0.1-0.9-0.1-1.3c1.6,0.6,3.1,1.3,4.5,2.5c1.9,1.7,3.3,4.5,4.4,6.8c2.4,4.9,2.3,10.6,1.1,15.8c0,0.2,0.2,0.1,0.3-0.1
				C459.7,139.4,459.7,133.8,457.5,128.6z"/>
			<path class="st2" d="M464.4,103.6c0.4-4-0.7-7.8-3.5-11c-1.8-2-4.3-3.3-6.8-4.2c-2.9-1-5.5-0.3-8.4,0.2c-0.1,0-0.2,0.2-0.1,0.2
				c2.4-0.1,4.6-0.5,7,0.1c2.5,0.6,4.9,2,6.9,3.7c4,3.4,5,8.7,4.1,13.7c0,0.2,0.3,0.1,0.3-0.1c0.2-0.8,0.3-1.5,0.4-2.3
				c5.6-0.4,10.1,0.3,14.4,4.3c3.8,3.5,5.1,8.8,5.9,13.7c0.1,0.2,0.4,0,0.4-0.1C484.8,111,475.8,100.6,464.4,103.6z"/>
			<path class="st2" d="M498.1,84.7c-2-1.9-4.6-3-7.3-3.6c-0.8-0.2-6.7-0.9-7.2,0.3c0-0.1,0-0.1,0-0.1c-0.7-3.8-2.3-6.6-6.3-8.5
				c-5.4-2.7-11.6-2-17.2-0.7c-0.1,0-0.2,0.3,0,0.2c5-0.6,9.9-1.1,14.8,0.4c5.7,1.7,7.7,5.7,8.7,11.2c0,0.2,0.3,0,0.3-0.1
				c0-0.7-0.1-1.4-0.2-2.1c5.2-0.3,9.6,0.1,13.8,3.6c4.3,3.7,6.8,9.1,7.8,14.6c0,0.2,0.3,0,0.3-0.1C505.1,94,502.3,88.8,498.1,84.7z
				"/>
			<path class="st2" d="M513.6,62c-4.9-2.1-10.2-1.9-14.7,0.3c-1.8-4.4-6.4-6.5-10.8-7.5c-5.2-1.2-12.3-1.8-17.3,0.6
				c-0.2,0.1-0.2,0.4,0,0.3c4.9-2,10.8-1.2,15.8-0.5c5,0.7,9.2,3,11.7,7.3c-1.4,0.7-2.6,1.6-3.8,2.8c-0.1,0.1,0,0.2,0.1,0.1
				c1.3-1,2.6-1.8,4-2.4c0.1,0.2,0.2,0.4,0.3,0.6c0.1,0.2,0.3,0,0.3-0.2c-0.1-0.2-0.1-0.4-0.2-0.6c4.4-1.9,9.1-1.9,14.1-0.1
				c6.1,2.2,10.7,7.9,10.3,14.5c0,0.2,0.2,0.1,0.2-0.1C524.8,70.1,519.8,64.6,513.6,62z"/>
		</g>
		<path class="st3" d="M532.2,43.8c-7.9-4-13.6-2.5-18.2-1.2c-2.9,0.8-5.4,1.6-8.1,1.1c-6.7-1.3-14.7-7.7-24.3-4.3
			c-9.7,3.4-9.9,12.7-9.8,15.8c0,0-13.7,5.6-11.3,16.9c0,0-12.3,3-13.3,16.4c0,0-1.4,0.2-3.3,1c2.3-0.5,4.7-0.1,6.7,1.7
			c4.1,3.7,3.5,8.4-0.1,12.1c-3.1,3.2-8.5,4.9-11.9,1.1c-3.3-3.6-2.5-8,0-11.6c-2.9,2.7-5.5,6.9-5.7,13.7c0,0-1.3,0.1-3.2,0.6
			c2.1,0.1,4,0.9,5.4,2.7c4.4,5.7-0.6,11.6-6,14.2c-2.6,1.2-5.7,2.2-8.5,1.1c-2.3-0.9-3.9-2.8-3.7-5.4c0.2-2.8,1.7-5.9,3.8-8.3
			c-0.2,0-0.4-0.3-0.1-0.5c-3.5,2.3-6.5,5.9-7.2,11.2c0,0-3.1-0.8-7.3-1.2c0.2,0.1,0.5,0.2,0.7,0.4c1.4,0.8,3.7,2.7,2.6,4.6
			c-1.2,2.1-3.8,3.3-6.1,3.6c-2.7,0.4-5.6,0.3-8-1.2c-1.9-1.1-4-2.6-4.2-5c0-0.4,0-0.7,0.2-1c-1.1,0.4-2.2,1-3.1,1.6
			c0,0-4.8-0.6-10.8-0.4c2.2,0.6,4.1,1.7,5.6,3.3c4.5,5.1-2.5,8.1-6.6,9.1c-2.8,0.6-5.7,1-8.6,1.1c-2.9,0.1-6.1,0.1-8.7-1.3
			c-2.7-1.5-2.2-4.8-0.3-6.7c0.1-0.1,0.2-0.2,0.3-0.3c-0.6,0.4-1.1,0.9-1.7,1.4c0,0-4.7-5.1-12.6-6.4c1.9,0.8,3.8,2.1,4.2,4
			c1.3,5.7-5.5,7.9-9.9,8.1c-2.5,0.1-5-0.2-7.5-0.7c-1.9-0.4-4.3-1-5.3-2.9c-0.9-1.7,0.6-4,1.9-5.1c0.9-0.8,2-1.5,3.1-2.1
			c-0.6-0.8-3.3-3.9-7.7-5.6c2.8,3.2-0.3,7.5-3.8,8.9c-2.8,1.1-5.9,1.4-8.9,1c-2.1-0.2-5.8-0.6-6.8-2.9c-1.5-3.4,2.3-5.6,5.7-7
			c-0.4-1.1-2.2-4.5-8.1-6.1c0.9,0.7,1.3,1.7,1.1,3c-0.3,2.1-2.3,3.3-4,4.2c-2.4,1.3-5,2.3-7.7,2.3c-2.4,0-9.9-0.5-10-4.1
			c-0.1-3.1,2.7-4.5,5.4-5.5c-0.4-0.5-1.7-2-4.2-3.3c-0.4,0.9-1.3,1.7-1.9,2.3c-2.3,2.2-5.2,3.9-8.4,4.4c-3.8,0.6-8.2,0-11-2.8
			c-0.9-0.9-1.2-1.9-1.1-2.8c-2.6,1.9-4.1,5-2.8,9.3c0,0-11.8,0.9-16.1,9.8c-4.3,8.9,1.3,22.6,23.9,20.8c0,0,5.4,9.1,24.9,5.8
			c0,0,11.3,15.1,31,4.6c0,0,2.3,3.1,6.8,5.5c4.5,4,19.5,2.5,23.4-0.4c5.3,7.1,28.3,10.1,43.5-0.5c-0.2,0.3,15.7,7.1,26.4-5
			c0.6-0.7,1.6-2.8,2.8-4.7c0,0,8.2,7.5,24.4,0.4c4.9-2.2,8-6.1,10.1-11.8l0.3-0.5c0,0,22.4-0.3,26.8-23.1c0,0,18.1,2.5,20.3-22.3
			c0,0,15.4-1.6,17.8-21.7c0,0,5.4,1,12.6-3.6C539.4,71.4,546.3,51,532.2,43.8z M256.5,138.4c-3.8,2.3-10.3,1.6-13.1-2.1
			c-2.6-3.3-0.9-7,1.7-9.6c0.8-0.9,1.7-1.6,2.7-2.1c0.2-0.1,0.4-0.2,0.6-0.3c0.1-0.1,0.2-0.1,0.3,0c3.6-1.4,7.9-0.4,10.6,2.6
			C262.6,130.4,260.2,136.2,256.5,138.4z M282.9,141c-0.6,5.2-8.1,5.3-11.8,4c-2.9-1-5.2-2.7-5.6-5.9c-0.3-2.3,0.5-5,2.5-6.2
			c1.9-1.8,5-1.6,7.5-0.4C278.5,133.8,283.3,137.1,282.9,141z M309.7,148.6c-0.1,5.8-7.9,6.7-12,5.3c-5.4-1.8-10.2-6.8-6.5-12.4
			c0.1-0.2,0.3-0.2,0.4-0.1c2.1-1.4,6.3-0.7,8.1-0.2C303.1,142,309.8,144.2,309.7,148.6z M341,156.7c-3,3.3-9.3,3.4-13.3,2.6
			c-5-1-8.8-4.3-8.6-9.4c-0.1-0.2-0.1-0.5-0.1-0.7c0.3-4.2,10.6-1.2,13-0.8c3,0.5,7.4,1,9.3,3.7C342.4,153.5,342.3,155.3,341,156.7z
			 M380.9,160.4c-4.7,2.5-10.4,3.6-15.7,3.4c-2.1-0.1-4.2-0.3-6.2-0.8c-1.8-0.5-4-1.4-5.3-2.7c-1.1-1.1-1.7-2.6-2-4.1
			c-0.2-1.3-0.5-3.1,0.8-4c2.1-1.5,5.2-1.2,7.7-1.1c5.3,0.4,10.5,0.3,15.8,0.8c2.6,0.2,7.7,0.7,8.2,4.1
			C384.4,158.1,382.5,159.5,380.9,160.4z M418.7,148.9c-0.5,2.2-2.2,3.9-4.1,5.1c-2.1,1.3-4.5,2.3-7,2.9c-1.7,0.4-4.1,0.9-5.7-0.3
			c-1.7-1.2-1.8-3.8-1.1-5.6c0.6-1.7,1.8-2.8,3.3-3.6c3.1-2.6,7.9-3.6,11.7-2.8C418,145,419.2,146.6,418.7,148.9z M447.6,144.2
			c-4.2,4.7-12.2,6.4-16.7,1.1c-4.9-5.8,4.2-9.7,8.9-11.8c0.2-0.1,0.3-0.2,0.5-0.3c1.9-1.1,4.4-2.6,6.7-2.3
			C453.1,131.5,450.1,141.3,447.6,144.2z M476.7,44.2c2.3-3.8,8.1-5.1,12.2-4.1c2.1,0.5,4.7,2,3.9,4.6c-0.7,2.4-3,4.1-5.2,5.1
			c-2.8,1.2-10.1,3.4-12.1-0.1C474.3,47.7,475.1,45.8,476.7,44.2z M452.7,84.8c-2.3-2.3-0.3-5.5,2.1-7.6c1.4-1.4,3-2.6,5.1-3
			c2-0.4,5.7-1,7.4,0.7c3.3,3.3-0.5,8-3.5,9.9C460.9,86.8,455.4,87.6,452.7,84.8z M472.8,119.9c0,3-0.8,5.9-2.4,8.4
			c-1.1,1.8-3.1,4.5-5.6,4.1c-2.5-0.3-4.2-2.6-5.1-4.8c-1-2.3-1.8-4.8-1.1-7.3c0.2-0.7,0.6-1.4,1-1.9c0.6-1.4,1.5-2.6,2.8-3.8
			c1.8-1.6,4.3-3.2,6.7-2.2C472,113.5,472.8,117.4,472.8,119.9z M465.2,67.6c-3.2-3.9,2.9-8.4,5.8-10.2c0.2-0.1,0.3,0,0.4,0.1
			c3.1-1.6,6.7-1.9,9.5,0.9c3.3,3.3-0.7,8-4,9.3C474,68.9,467.7,70.5,465.2,67.6z M494,109.6c-1.6,1.8-4.4,4.6-7.1,3.3
			c-2.4-1.2-3.8-3.8-4.8-6.1c-1.1-2.6-2.4-5.3-2-8.2c0.3-2.8,2.3-5.2,4.2-7.3c1.1-1.5,2.5-2.7,4.4-3c2.9-0.4,5.7,1,7.2,3.5
			C499.2,97.1,498.2,105.1,494,109.6z M513.8,80.6c-2.3,5.5-8.8,7.5-13.2,2.8C495.8,78.2,496,71,501,66c0.1-0.1,0.3-0.2,0.4-0.1
			c0.7-0.6,1.5-1,2.5-1.2c2.5-0.4,5.2,0.4,7.1,2.2C514.6,70.3,515.8,76.1,513.8,80.6z M528.9,59.4c-0.8,1.9-2.4,4.1-4.8,3.4
			c-1.6-0.4-3-1.4-4.4-2.2c-1.7-1-3.5-1.6-5.3-2.2c-2.2-0.7-5.7-1.8-5.7-4.8c0.1-1.9,0.9-3.6,2-5.2C516,38.2,533.5,48.2,528.9,59.4z
			"/>
		<g>
			<g>
				<path class="st10" d="M502.8,43c-0.2,0.3-12.7,29.3-39.4,58.8c-13.7,15.2-27.2,23.7-36.1,28.2c-9.6,4.9-16.2,6.2-16.2,6.2
					c0,0-0.1,0-0.1,0c-20.8,4.8-69.4,15.9-139-14.2c-3.4-1.5-6.1-2.6-8.2-3.4c-9-3.2-16.3-4.6-21-5.2c-4.6-0.2-10,0.3-10.8,4.2
					c0.2,0.1,0.4,0.1,0.7,0.1c0.1,0,14.4,1.9,29,7.1c1.9,0.7,4.5,1.8,7.8,3.2c16.7,7.2,50.9,22.1,99.1,20.4
					c13.6-0.4,28.2-2.2,43.9-5.8c0.8-0.2,7.6-1.6,17.6-6.7c9.5-4.8,23.8-13.8,38.3-29.8c27.4-30.3,40.6-61,41.1-62.2
					C510,42.3,505,40,502.8,43z"/>
				<path class="st11" d="M368.4,148.8c-48.3,1.6-82.7-13.3-99.3-20.5c-3.3-1.4-5.8-2.5-7.7-3.2c-14.6-5.1-28.7-7-28.9-7
					c-0.3,0-0.6,0-0.8-0.1l-0.2-0.1l0.1-0.2c0.6-3.3,4.4-4.8,11.1-4.4c4.6,0.6,12,1.9,21.1,5.2c2.1,0.8,4.8,1.9,8.2,3.4
					c33.2,14.4,66,21.2,97.3,20.1c18.6-0.6,32.4-3.8,41.5-5.9c0,0,0.1,0,0.1,0c0.3-0.1,6.7-1.4,16.2-6.2c8.9-4.5,22.4-13.1,36-28.2
					c22.4-24.7,34.8-49,39.1-58.2c0.2-0.5,0.3-0.5,0.3-0.6c0.9-1.2,2.2-1.5,3.1-1.5c1.5,0,3.1,0.6,3.7,1.6c0.3,0.4,0.4,0.9,0.2,1.3
					c-1.4,3.3-14.5,32.8-41.2,62.3c-14.5,16-28.9,25.1-38.4,29.9c-10.1,5.1-16.9,6.5-17.7,6.7C397.7,146.3,382.9,148.3,368.4,148.8z
					 M232.2,117.5c0.1,0,0.3,0,0.4,0c0.1,0,14.4,1.9,29,7c1.9,0.7,4.5,1.8,7.8,3.2c16.5,7.2,50.9,22,99,20.4
					c14.4-0.5,29.1-2.4,43.8-5.8c0.7-0.2,7.5-1.6,17.5-6.6c9.4-4.8,23.8-13.8,38.2-29.8c26.6-29.4,39.6-58.9,41-62.1
					c0.1-0.2,0.1-0.5-0.1-0.7c-0.5-0.7-1.8-1.4-3.3-1.3c-0.8,0-1.9,0.3-2.7,1.3c0,0-0.1,0.2-0.2,0.4c-4.3,9.3-16.8,33.6-39.3,58.4
					c-13.7,15.2-27.3,23.8-36.2,28.3c-9.5,4.8-16.1,6.2-16.3,6.3l-0.1,0c-9.2,2.1-23,5.3-41.6,5.9c-31.4,1.1-64.3-5.7-97.6-20.2
					c-3.4-1.4-6-2.6-8.2-3.4c-9.1-3.2-16.4-4.6-21-5.1c-0.9,0-1.9-0.1-2.7,0C235.4,113.9,232.8,115.2,232.2,117.5z"/>
			</g>
			<g class="st8">
				<path class="st9" d="M502.8,43c-1.4,3.8-9.7,25.1-19.5,39.7c-10.8,16-27.5,35.7-51.8,49.1c-24.3,13.4-66.3,13.8-66.3,13.8
					c-52.3,0.6-72.3-11.1-92.5-19.6c-20.2-8.5-31.1-8.2-33-9.6c-1.6-1.3,1.1-2.5,1.7-2.8c-4.3-0.1-8.8,0.7-9.6,4.3
					c0.2,0.1,0.4,0.1,0.7,0.1c0.1,0,14.4,1.9,29,7.1c1.9,0.7,4.5,1.8,7.8,3.2c16.7,7.2,50.9,22.1,99.1,20.4
					c13.6-0.4,28.2-2.2,43.9-5.8c0.8-0.2,7.6-1.6,17.6-6.7c9.5-4.8,23.8-13.8,38.3-29.8c27.4-30.3,40.6-61,41.1-62.2
					C510,42.3,505.1,40,502.8,43z"/>
			</g>
			<path class="st12" d="M246.1,115.2c0,0,1,0.2,2.9,0.7c1.9,0.5,4.7,1.2,8.1,2.2c3.5,1,7.7,2.3,12.4,4.2c4.7,1.9,9.8,4.4,15.6,6.7
				c5.8,2.3,12.1,4.6,18.9,6.6c6.8,2,14.1,3.6,21.8,4.8c7.7,1.2,15.6,1.9,23.8,2.4c8.1,0.4,16.4,0.4,24.7,0
				c8.2-0.4,16.5-1.3,24.4-2.8c8-1.5,15.7-3.6,22.9-6.4c3.6-1.4,7.1-3,10.3-4.7c3.2-1.8,6.4-3.7,9.2-5.8c5.6-4.4,10.6-8.8,15.2-13.1
				c4.5-4.3,8.5-8.3,11.9-12c0.9-0.9,1.7-1.8,2.4-2.7c0.8-0.9,1.5-1.7,2.3-2.5c1.4-1.7,2.7-3.2,3.9-4.6c1.1-1.4,2.1-2.7,3-3.8
				c0.9-1.1,1.6-2.1,2.2-2.9c1.1-1.6,1.8-2.4,1.8-2.4s-0.6,0.8-1.7,2.4c-0.6,0.8-1.2,1.8-2.1,2.9c-0.9,1.1-1.8,2.4-2.9,3.9
				c-1.2,1.4-2.4,3-3.8,4.7c-0.7,0.8-1.5,1.7-2.2,2.6c-0.8,0.9-1.6,1.8-2.4,2.8c-3.4,3.8-7.3,7.9-11.8,12.2
				c-4.5,4.3-9.5,8.8-15.1,13.3c-2.9,2.2-6,4.1-9.3,5.9c-3.3,1.8-6.8,3.4-10.4,4.9c-7.3,2.9-15.1,5-23.1,6.6
				c-8,1.5-16.3,2.5-24.6,2.9c-8.3,0.4-16.6,0.4-24.8,0c-8.2-0.4-16.2-1.2-23.9-2.5c-7.7-1.2-15-3-21.9-5.1
				c-6.8-2.1-13.2-4.4-18.9-6.8c-2.9-1.2-5.6-2.4-8.2-3.6c-2.6-1.2-5-2.3-7.3-3.3c-4.7-2-8.8-3.3-12.3-4.4
				C250.1,116.2,246.1,115.2,246.1,115.2z"/>
		</g>
	</g>
	<g>
		<path class="st0" d="M387.2,409.5c-3.9-0.7-7.8-1.4-10.9-4c-3.2-2.6-5.3-7.6-5.6-11.6c0-0.1-0.2,0-0.2,0.1
			c-0.3,4.3,1.7,8.4,4.3,11.7c2.8,3.5,8.1,4,12.3,4.2C387.2,410,387.5,409.6,387.2,409.5z"/>
		<path class="st0" d="M381.2,436.7c-0.5-5.2,1.5-10.8-1.9-15.4c-0.1-0.1-0.2,0.1-0.2,0.2c1.5,3,1,6.3,0.7,9.5
			c-0.3,3-0.2,5.9,0.2,8.9c0.8,6.7,3.9,13.4,7.1,19.3c0.1,0.2,0.3,0,0.3-0.2C384.4,451.9,382,444.4,381.2,436.7z"/>
		<path class="st0" d="M412.9,376.8c0.9-0.7,1.8-1.3,2.6-2c-5.2,2.3-12,5-17.4,2.9c1.4,1.3,3.6,1.7,5.9,1.6
			C406.9,379.1,410.1,378,412.9,376.8z"/>
		<path class="st0" d="M226.3,123.4c-5.4,4.4-6.3,12.8-4,19.1C221.4,135.9,222.6,128.8,226.3,123.4z"/>
		<path class="st0" d="M220.2,157.5c-0.9-2.7-0.7-5.6,0.6-8.1c-3.6,3.9-2.7,9.4,1.9,12.8C221.5,160.6,220.7,158.7,220.2,157.5z"/>
		<path class="st0" d="M215.5,162.8c-3.9,5.8-2.5,13.1,2.4,17.9C214.9,175.1,213.3,168.3,215.5,162.8z"/>
		<path class="st0" d="M211.4,185.1c-1.7,5.9,0,12.5,4.7,16.6C212.7,197,210.6,190.8,211.4,185.1z"/>
		<path class="st0" d="M209,215.5c-0.2-1-0.4-1.9-0.5-2.9c-0.3-2.2-0.3-4.4,0.1-6.5c-1.9,5.2-1.7,10.1,1.8,14.8c0,0,0.1,0.1,0.1,0.1
			C209.9,219.2,209.4,217.3,209,215.5z"/>
		<path class="st0" d="M210.4,236.1c0,2.2,0.3,4.1,1.6,6.4c1.3,2.3,3.4,3.6,5.6,4.9c0.1,0,0.2,0,0.3-0.1
			C214.5,244.4,211.7,240.4,210.4,236.1z"/>
		<path class="st0" d="M219.9,271.6c-1.3-0.7-2.6-1.6-3.7-2.7c-1.1-1.1-2-2.5-2.7-3.9c-0.5-1-0.7-2-0.9-3c-0.2-0.7-0.3-1.4-0.5-2
			c0,1.8-0.2,3.1,0.3,4.8c0.5,1.6,1.5,3.1,2.5,4.4c2.1,2.7,5.6,4.3,9,4.6C222.4,273.2,221.1,272.5,219.9,271.6z"/>
		<path class="st0" d="M230.2,301.9c-0.1-0.1-0.3-0.2-0.4-0.3c-3.5-2.1-6.5-5-8.3-8.5c-0.6-1-1.1-1.9-1.5-3c1,8.2,8,13.8,15.8,14.8
			C233.8,304.2,231.9,303.1,230.2,301.9z"/>
		<path class="st0" d="M245.6,128.2c1.2-1.5,2.7-2.6,4.5-3.2c0.3-0.2,0.7-0.4,1-0.6c-3.4,0.2-5.8,1.9-7.1,5.1
			C244.6,129,245.1,128.6,245.6,128.2z"/>
		<path class="st0" d="M266.7,138.6c0-1.5,0.4-2.9,1.4-4c0.7-0.8,1.6-1.3,2.7-1.7c0.4-0.3,0.9-0.5,1.3-0.8c-1.6,0-3.1,0.5-4.3,1.6
			c-1.6,1.6-2,3.6-1.5,5.8c0,0.2,0.2,0.1,0.3,0.1C266.6,139.2,266.6,138.9,266.7,138.6z"/>
		<path class="st0" d="M298.1,141.4c-2.7-0.8-6.6,0-7.5,3c0,0.2,0.2,0.1,0.2,0c1.4-2.5,4.6-2.6,7.1-2.7
			C298.1,141.8,298.4,141.4,298.1,141.4z"/>
		<path class="st0" d="M320,149.7c0.6-1,1.9-1.4,3.3-1.5c0.4-0.1,0.7-0.1,1.2-0.1c2,0,3.9,0.3,5.8,0.6c-2.5-0.7-10.5-3.3-10.8,1.3
			C319.7,150,319.9,149.9,320,149.7z"/>
		<path class="st0" d="M359,151.9c0.8-0.1,1.6-0.2,2.4-0.3c-3.9-0.2-8.3,0-9.3,2.5C353.9,152.6,356.8,152.3,359,151.9z"/>
		<path class="st0" d="M405,147.7c-2.4,1.5-4.7,3.7-3.7,6.5C401.9,151.7,403.2,149.5,405,147.7z"/>
		<path class="st0" d="M435,136.5c-2.9,1.7-6,5.1-3.4,8c0,0,0,0,0,0C430.7,141.7,432.6,138.8,435,136.5z"/>
		<path class="st0" d="M460.6,122c0.1-1.4,0-3,0.6-4.3c0.1-0.2,0.2-0.5,0.3-0.7c-2.2,2.8-2.8,6.8-0.8,9.9
			C460.5,125.2,460.5,123.6,460.6,122z"/>
		<path class="st0" d="M483,104.3c-0.5-1.9-0.8-3.8-0.7-5.6c0-0.8,0-1.6,0.2-2.4c0.1-0.8,0.3-1.6,0.5-2.3c-2.7,3.6-2.2,8.2-0.1,12.1
			C483.1,105.6,483,104.9,483,104.3z"/>
		<path class="st0" d="M499.6,72.2c0-0.1,0.1-0.2,0.1-0.3c0-0.5,0-1,0.1-1.5c-2,4.1-2.5,9.3,1.8,12.1c0.1,0,0.2,0,0.3,0
			C500.5,79.2,498.9,75.8,499.6,72.2z"/>
		<path class="st0" d="M513.6,56.3c-1-0.7-2.1-1.6-2.7-2.7c-0.3-0.5-0.5-1-0.6-1.6c0-0.1,0-0.2,0-0.3c-0.7,3,2.1,5,4.8,5.5
			C514.6,56.9,514.1,56.6,513.6,56.3z"/>
		<path class="st0" d="M511.6,129.2c0.8-1.3,1.7-2.6,2.6-3.8l0,0c-2.2,1.1-4.5,4.4-4.6,7.1C510.1,131.3,511.1,130.1,511.6,129.2z"/>
		<path class="st0" d="M514.1,108.1c1.3-1.2,2.6-2.4,4.1-3.4c0-0.1-0.1-0.1-0.2-0.1c-3.3,2-6.8,3.8-7.8,7.8
			C510.9,110.7,512.9,109.2,514.1,108.1z"/>
		<path class="st0" d="M525.3,88.6c-0.4,0.9-0.7,1.7-0.8,2.7c0,1.3,0,2.7,1.3,3.3c0,0,0,0,0,0C525.3,92.7,525,90.5,525.3,88.6z"/>
		<path class="st0" d="M512.8,157.3c0.7-2,0.7-4,1.1-6c0.4-1.5,0.8-3,1.5-4.4c0.6-1.4,1.3-2.7,2.2-3.9c-3.7,3.9-5.9,8.6-5,14.1
			C512.6,157.2,512.7,157.3,512.8,157.3z"/>
		<path class="st0" d="M517.3,175c0.3-0.9,0.6-1.7,0.8-2.6c-2.7,4.2-5.6,10-3.3,14.9c0,0,0,0,0,0c0.2-1,0.2-2.2,0.3-3.1
			c0.1-1.3,0.2-2.5,0.4-3.8C515.8,178.6,516.5,176.8,517.3,175z"/>
		<path class="st0" d="M521.2,202.4c0-0.1-0.2-0.1-0.3,0c-2,3.5-4.4,10.1-0.4,13C518.3,211.5,519.5,206.7,521.2,202.4z"/>
		<path class="st0" d="M524.1,231c0,0.9,0.2,1.6,1,2.2c0.9,0.7,2.1,0.9,3.1,0.3c0.1-0.1,0.3-0.3,0.4-0.6
			C527,232.9,525.2,232.2,524.1,231z"/>
		<path class="st0" d="M529.8,247.9c-0.1,0.1-0.1,0.1-0.1,0.2c0.4,1.6,2.1,5.4,4.3,4.6c0.2-0.1,0.3-0.2,0.4-0.4
			C532.5,251.4,531,249.7,529.8,247.9z"/>
		<path class="st0" d="M526.1,263c-1,0.7-1.6,2.3-1.9,3.4c-1,3.6,0.1,7.4,1.7,10.7C525.3,273.7,524.5,266.9,526.1,263z"/>
		<path class="st0" d="M517.2,287.3c-3.2,2.6-2.5,7.5-1,10.9c0,0.1,0.1,0.1,0.2,0.2C515.7,294.6,515.6,290.8,517.2,287.3z"/>
		<path class="st0" d="M508.6,320.9c0.1-0.7,0.2-1.4,0.2-2.1c-0.6-3.3-1.5-7.2,0-10.2c0.1-0.4,0.1-0.7,0.3-1.1
			C505.2,310.9,506.8,316.7,508.6,320.9C508.6,320.8,508.6,320.9,508.6,320.9z"/>
		<path class="st0" d="M498.9,341.2c0.7-2.7,1.5-5.4,3.1-7.6c0.6-1.1,1.3-2,2.2-2.8c-4.8,2-6.8,8.7-6.8,13.5c0,0,0,0,0,0.1
			C498.2,343.6,498.6,342.4,498.9,341.2z"/>
		<path class="st0" d="M471.5,375.3c-1.9,2.3-3.6,4.9-3.9,7.9c0,0.2,0.1,0.3,0.2,0.3c0.3-0.3,0.6-0.7,0.9-1c0.9-1.9,1.5-3.9,2.5-5.8
			C471.3,376.2,471.4,375.8,471.5,375.3z"/>
		<path class="st0" d="M429.1,381.6c1.1-2.3,3.3-4.1,5.4-5.5c1.1-0.7,2.2-1.4,3.3-1.9c-2.2,0.6-4.1,1.5-6,3
			C430.6,378.2,428.9,379.8,429.1,381.6C429,381.6,429,381.6,429.1,381.6z"/>
		<path class="st0" d="M254.3,321.3c0.7-3.1,2.7-5.3,5.2-6.8c-1.6,0.4-3,1-4.2,2.2C254.1,317.8,253,319.9,254.3,321.3
			C254.2,321.3,254.3,321.3,254.3,321.3z"/>
		<path class="st0" d="M290.7,338c-1.5-1.4-2.3-3.3-2.5-5.3c-0.1,0-0.2,0.1-0.2,0.2c-0.6,1.4-0.7,2.7,0.1,4.1
			c0.7,1.3,2.2,2.3,3.7,2.1c0,0,0.1,0,0.1-0.1C291.5,338.7,291.1,338.4,290.7,338z"/>
		<path class="st0" d="M261.7,111.4c2.9-1.1,5.7-1.6,8.7-2c0.6-0.2,1.2-0.5,1.8-0.7c-3.7-0.2-7.6,0.4-10.7,2.6
			C261.6,111.4,261.7,111.4,261.7,111.4z"/>
		<path class="st0" d="M284.4,116c1.5-0.7,3.2-1.1,4.9-1.4c0.6-0.2,1.2-0.3,1.8-0.5c0.8-0.2,1.6-0.4,2.3-0.6
			c-3.3-0.3-7.7,0.4-10.2,2.6C283.6,116.1,284,116.1,284.4,116z"/>
		<path class="st0" d="M307.3,122.8c2.3-1.1,4.7-1.6,7.2-2.1c0.8-0.3,1.5-0.7,2.3-1c-3.8-0.1-7.6,0.9-10.5,3.2
			C306.6,122.9,306.9,122.8,307.3,122.8z"/>
		<path class="st0" d="M328.8,128.8c0.6-0.4,1.3-0.8,1.9-1.1c0.6-0.4,1.1-0.8,1.7-1.1c2.1-1.1,4.3-1.8,6.5-2.3
			c-3,0.2-5.8,0.9-8.4,2.3c-1,0.5-2.9,1.9-3.5,3.3C327.7,129.5,328.3,129.2,328.8,128.8z"/>
		<path class="st0" d="M369.3,125.7c-4.3,0.5-8.2,1.8-10.9,5.3c-0.2,0.3,0.1,0.5,0.3,0.3c3.4-2.4,6.7-4,10.6-5.4
			C369.4,125.9,369.5,125.7,369.3,125.7z"/>
		<path class="st0" d="M421.6,112.7C421.6,112.7,421.6,112.7,421.6,112.7c0.1-0.1,0.1-0.2,0.1-0.2c0.1-0.2,0.2-0.3,0.3-0.5
			c0.1-0.1,0.1-0.2,0.2-0.3c0.2-0.3,0.5-0.6,0.7-0.9c0,0,0,0,0,0c-3,1-4.5,5.4-4.5,8.2C419.7,117,420.3,114.7,421.6,112.7z"/>
		<path class="st0" d="M440,93.2c-2.1,2.3-3.1,5.6-1.4,8.4c0,0,0.1,0.1,0.1,0.1C438.4,98.8,438.7,95.8,440,93.2z"/>
		<path class="st0" d="M453.8,80.1c0.2-0.4,0.4-0.9,0.6-1.3c-0.5,0.5-0.9,1-1.3,1.7c-0.3,0.7-0.4,1.6-0.2,2.3
			C453,81.8,453.5,80.8,453.8,80.1z"/>
		<path class="st0" d="M467.1,61.8c-1.2,1.4-2.2,3.1-1.1,4.6c0.1,0.2,0.3,0.2,0.5,0.1C466.2,64.8,466.4,63.2,467.1,61.8z"/>
		<path class="st0" d="M476.6,48.3c0.2-0.5,0.4-1,0.6-1.4c0.4-1.1,0.9-2.1,1.6-3c0.5-0.7,1.1-1.3,1.7-1.8c-1.3,0.7-2.8,1.6-3.5,2.9
			C476.5,45.8,475.9,47.5,476.6,48.3z"/>
	</g>
</g>
</svg>
