<?xml version="1.0" encoding="utf-8"?>
<!-- Generator: Adobe Illustrator 24.2.3, SVG Export Plug-In . SVG Version: 6.00 Build 0)  -->
<svg version="1.1" id="Layer_1" xmlns="http://www.w3.org/2000/svg" xmlns:xlink="http://www.w3.org/1999/xlink" x="0px" y="0px"
	 viewBox="0 0 750 500" style="enable-background:new 0 0 750 500;" xml:space="preserve">
<style type="text/css">
	.st0{fill:#F28C8F;}
	.st1{fill:#CF5A46;}
	.st2{fill:#BA443C;}
	.st3{opacity:0.4;fill:#EA7383;}
	.st4{fill:#F4B6B0;}
	.st5{fill:#BC546A;}
	.st6{opacity:0.5;fill:#EA7383;}
	.st7{fill:#FFFFFF;}
	.st8{opacity:0.5;}
	.st9{fill:#EA7383;}
	.st10{fill:#CF5158;}
	.st11{fill:#6C101D;}
	.st12{fill:#A41D2C;}
	.st13{opacity:0.4;fill:#C05058;}
	.st14{fill:#AE2D38;}
	.st15{fill:#E1545B;}
	.st16{fill:#DF656C;}
	.st17{fill:#BB564E;}
	.st18{opacity:0.6;fill:#FFFFFF;}
</style>
<g>
	<g>
		<path class="st0" d="M362.2,360.8c0,0-5.5,17.1,2.1,32.2c9.4,18.7,14.3,13.2,13.9,26.5c-0.4,13.3,2.9,21.7,5.2,28
			c2.3,6.3,17.6,5.4,19.9-1.5c2.3-6.9,2.7-19.7,1.3-26.1c-1.5-6.4,14-23.9,11.2-46c0,0,16.9,23.3,40.2,9.3c0,0,32.5,8.3,37-23
			c0,0,19.2,1.5,19.4-28c0,0,14.4-0.9,10.1-25.9c0,0,11.2-6.8,6.8-23.7c0,0,13.8-5.1,8-26.7c0,0,15-7.8,0.9-35.5
			c0,0,5.5-12.1-1.6-22.6c0,0,6-10.9-6.4-25c0,0,6.9-8.8-3.4-24.2c0,0,6-11.7-3-27.6c0,0,5.8-4.9,1.2-15.8c0,0,5.8-5.3,2.8-16.7
			c0,0,13.8-6.9,8.5-24.2c0,0,8.3-23.5-4.7-29.7c-8-3.8-13.4-2.5-18-1.2c-2.9,0.8-5.4,1.6-8,1.1c-6.7-1.3-14.5-7.7-24.1-4.3
			c-9.6,3.4-9.8,12.7-9.7,15.7c0,0-13.6,5.6-11.1,16.8c0,0-12.2,3-13.2,16.3c0,0-13.7,2-14.2,17.9c0,0-17.8,1.6-19.4,15.5
			c0,0-16.5-4.1-24.9,1.9c0,0-21.5-2.9-30.4,6.2c0,0-10.1-10.9-25.7-4.8c0,0-12-8.8-22.6-4.9c0,0-3.9-10.1-22.7-6.9
			c0,0-4.8-8-22.1-4.4c0,0-12-6.8-21.2,6.4c0,0-15.3-1.5-22.1,10.5c-6.7,12-0.4,20-0.4,20s-7.5,2.8-5.2,12.5c0,0-6.9,6.9-4.4,19.6
			c0,0-4.4,5.3-2.4,20.1c0,0-7.8,12.1-2.2,25.2c0,0-3.8,7.3,2.4,26.1c0,0-8.7,13.6,4.5,27.5c0,0-5.9,35.6,26.8,39.1
			c0,0,7.9,24.4,37.3,16.7c0,0,8.3,19.7,37.5,7.4c29.2-12.3,12.3-60.4-7-86.9C290,217.1,251,193.8,256,176.2
			c5-17.6,32.5-20.1,43.7-19.4c11.2,0.7,128.5,0.8,158.1-15.1c29.6-15.9,34.9,71.6,25,95.6c-3.8,9.3-8.6,39.9-4.3,50.3
			c1.3,3.2-9.2,7.4-10,10c-5.4,18.5-10.8,19.5-23.6,21c-9.3,1.1-19.5-2.5-29-6.2c-15-5.7-28.7-11.4-36.4,0.7
			C366.8,333,362.2,360.8,362.2,360.8L362.2,360.8z"/>
		<path class="st1" d="M392.7,452L392.7,452c-4.8,0.2-8.5-1.6-9.6-4.4l-0.2-0.5c-2.3-6.2-5.4-14.6-5-27.6c0.2-7.3-1.1-8.8-4.1-12
			c-2.4-2.6-5.6-6.1-9.8-14.3c-7.6-15.1-2.2-32.3-2.1-32.5c0-0.2,4.8-28.1,17.3-47.8c3-4.7,7.1-7.1,12.5-7.3
			c6.6-0.2,14.5,2.8,22.8,5.9l1.4,0.5c9.6,3.6,18.1,6.6,26.5,6.4c0.8,0,1.6-0.1,2.4-0.2c12.3-1.5,18-2.2,23.3-20.8
			c0.4-1.2,2.3-2.5,4.6-4.1c2.9-1.9,6.1-4.1,5.4-5.7c-4.3-10.4,0.4-41,4.3-50.5c7.3-17.5,6.5-70.7-7-90.2c-4.8-7-10.8-8.7-17.6-5
			c-19.1,10.3-75.2,13.6-106.9,14.7c-26.4,0.9-47.2,0.7-51.3,0.4c-1.7-0.1-3.7-0.1-5.7,0c-7.6,0.3-32.9,2.4-37.7,19.3
			c-3.1,10.8,10.5,23.6,26.3,38.5c9.7,9.1,19.7,18.6,26.9,28.7c14.8,20.3,26.9,51.2,21.4,70.7c-2.2,7.9-7.1,13.5-14.5,16.6
			c-5.9,2.5-11.5,3.9-16.4,4c-14.8,0.5-20.5-9.8-21.3-11.4c-3.3,0.8-6.5,1.3-9.4,1.4c-20.4,0.7-27.2-16.3-27.9-18.2
			c-9.1-1-16.1-4.6-20.8-10.7c-8.4-11.1-6.3-26.9-6.1-28.5c-6.8-7.2-7.7-14.4-7.2-19.1c0.5-4.7,2.3-7.9,2.7-8.6
			c-5.8-17.5-2.9-25-2.4-26c-5.2-12.5,1.5-24.1,2.2-25.2c-1.9-13.8,1.8-19.3,2.4-20.1c-1.9-10,2-17.1,4.4-19.7
			c-1.7-7.4,2.4-11.3,5-12.5c-2.2-3-4.7-10.7,0.5-20c2.1-3.8,7.5-10.3,19.7-10.7c1.3,0,2.2,0,2.5,0c3.7-5.2,8.2-7.9,13.5-8.1
			c4.2-0.1,7.3,1.4,7.9,1.7c2.5-0.5,4.9-0.9,7.2-0.9c10.4-0.3,14.3,4.3,14.9,5.3c2-0.3,3.8-0.5,5.6-0.6c10.8-0.4,15.9,4.6,17.1,7.5
			c1.6-0.6,3.3-0.9,5-0.9c8.4-0.3,16.3,5.1,17.4,5.8c2.9-1.1,5.8-1.7,8.6-1.8c9.5-0.3,15.8,5.4,17,6.5c5-4.9,13.8-6.2,20.4-6.4
			c5.1-0.2,9.2,0.3,10,0.4c2.8-2,6.8-3,11.8-3.2c6-0.2,11.6,1,12.9,1.3c1.7-12.8,17.2-15.2,19.3-15.4c0.5-14.6,12.4-17.5,14.2-17.9
			c1.1-12.2,11.4-15.8,13.2-16.3c-2.1-10.4,9.6-16,11.2-16.8c-0.1-4.6,1-12.7,9.9-15.8c1.7-0.6,3.4-0.9,5.2-1
			c4.7-0.2,8.9,1.6,12.7,3.1c2.3,0.9,4.4,1.8,6.4,2.2c0.6,0.1,1.3,0.2,2,0.1c1.7-0.1,3.5-0.6,5.4-1.1l0.5-0.1
			c2.2-0.6,4.5-1.2,7.2-1.3c3.6-0.1,7.2,0.7,11,2.6c12.6,6.1,5.4,28.4,4.8,29.9c4.8,16.1-6.8,23.4-8.5,24.3
			c2.6,10.3-2,15.7-2.8,16.7c4.1,9.8-0.2,14.9-1.1,15.8c7,12.5,5.1,23.4,3,27.6c9.3,14.1,4.3,22.8,3.4,24.2c11.4,13.1,7,23.6,6.3,25
			c6.6,9.9,2.2,21.3,1.6,22.6c4,7.9,8.1,19.2,4.8,28.2c-1.8,4.8-4.9,6.9-5.7,7.4c2.9,11.1,0.6,17.8-1.9,21.5
			c-2.4,3.5-5.2,4.9-6.1,5.3c4,15.7-5.5,22.7-6.9,23.7c1.7,9.8,0.7,17.1-3,21.7c-2.8,3.5-6.2,4.2-7.2,4.4
			c-0.1,10.9-2.9,18.8-8.1,23.6c-4.2,3.8-8.9,4.4-10.8,4.4c-0.3,0-0.5,0-0.6,0c-2.8,19.2-16,23.6-26.6,24c-5.4,0.2-9.8-0.8-10.5-0.9
			c-4.7,2.8-9.4,4.3-14.2,4.4c-13.5,0.5-23.2-10.1-25.7-13.1c1.5,13.6-3.9,25.3-7.8,34c-2.3,4.9-4,8.8-3.5,11
			c1.4,6.1,1.2,18.9-1.3,26.2C402.2,450,397.1,451.9,392.7,452z M391.7,306.2c-5.2,0.2-9.2,2.5-12.1,7
			c-12.4,19.6-17.2,47.4-17.2,47.6c-0.1,0.2-5.4,17.2,2.1,32.1c4.1,8.2,7.3,11.7,9.7,14.2c3,3.2,4.5,4.9,4.2,12.4
			c-0.4,12.8,2.7,21.2,5,27.4l0.2,0.5c1,2.6,4.5,4.2,9,4c4.3-0.1,9.1-1.9,10.3-5.6c2.4-7.1,2.6-20,1.2-25.9
			c-0.6-2.4,1.2-6.2,3.5-11.4c4-8.8,9.4-20.8,7.6-34.7l-0.1-1.1l0.6,0.9c0.1,0.1,10.5,14.2,25.8,13.7c4.7-0.2,9.4-1.7,14-4.4
			l0.1-0.1l0.1,0c0,0,4.6,1.2,10.5,1c10.5-0.3,23.4-4.8,26.2-23.7l0-0.3l0.3,0c0,0,0.3,0,0.8,0c4.2-0.2,18.1-2.6,18.3-27.7V332
			l0.3,0c0,0,4-0.3,7.1-4.2c3.5-4.5,4.5-11.7,2.9-21.5l0-0.2l0.2-0.1c0.1-0.1,11-6.9,6.7-23.4l-0.1-0.2l0.2-0.1
			c0.1-0.1,13.5-5.4,7.8-26.4l-0.1-0.2l0.2-0.1c0,0,3.7-2,5.6-7.2c3.2-8.8-0.8-20-4.8-27.8l-0.1-0.1l0.1-0.1
			c0.1-0.1,5.4-12.1-1.6-22.3l-0.1-0.1l0.1-0.2c0-0.1,5.7-10.9-6.3-24.6l-0.2-0.2l0.2-0.2c2.3-3,4.7-11.8-3.4-23.9l-0.1-0.1l0.1-0.1
			c2-4,4-14.9-3-27.4l-0.1-0.2l0.2-0.2c0.1,0,5.6-4.9,1.1-15.5l-0.1-0.2l0.2-0.1c0-0.1,5.6-5.4,2.7-16.5l-0.1-0.2l0.2-0.1
			c0.1-0.1,13.5-7,8.4-23.8l0-0.1l0-0.1c0.1-0.2,8.1-23.3-4.5-29.3c-3.7-1.8-7.3-2.6-10.8-2.5c-2.6,0.1-4.9,0.7-7.1,1.3l-0.5,0.1
			c-1.9,0.5-3.8,1-5.5,1.1c-0.7,0-1.4,0-2.1-0.2c-2.1-0.4-4.2-1.3-6.5-2.2c-3.7-1.5-7.9-3.2-12.5-3.1c-1.7,0.1-3.4,0.4-5,0.9
			c-8.6,3.1-9.7,11-9.5,15.4V46l-0.2,0.1c-0.1,0.1-13.3,5.6-11,16.5l0,0.3l-0.3,0.1c-0.1,0-12,3.1-13,16.1v0.2l-0.2,0
			c-0.1,0-13.5,2.2-13.9,17.6l0,0.2l-0.3,0c-0.2,0-17.6,1.8-19.1,15.3l0,0.3l-0.3-0.1c-0.1,0-6.4-1.6-13.1-1.3
			c-4.9,0.2-8.9,1.2-11.6,3.1l-0.1,0.1l-0.1,0c0,0-4.4-0.6-10-0.4c-6.5,0.2-15.3,1.5-20.2,6.5l-0.2,0.2l-0.2-0.2
			c-0.1-0.1-6.5-6.9-16.8-6.5c-2.8,0.1-5.7,0.7-8.6,1.8l-0.1,0.1l-0.1-0.1c-0.1-0.1-8.5-6.1-17.2-5.8c-1.8,0.1-3.5,0.4-5.1,1
			l-0.3,0.1l-0.1-0.3c-1.1-2.7-5.9-7.7-16.7-7.3c-1.8,0.1-3.7,0.3-5.7,0.6l-0.2,0l-0.1-0.2c0,0-3.5-5.6-14.6-5.2
			c-2.3,0.1-4.7,0.4-7.2,0.9l-0.1,0l-0.1-0.1c0,0-3.3-1.9-7.7-1.7c-5.1,0.2-9.5,2.9-13.1,8l-0.1,0.1l-0.2,0c0,0-1-0.1-2.6,0
			c-11.9,0.4-17.1,6.7-19.2,10.4c-5.2,9.4-2.5,17-0.4,19.7l0.2,0.3l-0.4,0.1c-0.3,0.1-7.3,2.9-5,12.2l0,0.2L217,149
			c-0.1,0.1-6.8,7-4.4,19.4l0,0.1l-0.1,0.1c0,0.1-4.3,5.4-2.3,19.9l0,0.1l0,0.1c-0.1,0.1-7.6,12.1-2.2,25l0.1,0.1l-0.1,0.1
			c0,0.1-3.7,7.5,2.4,25.8l0,0.1l-0.1,0.1c-0.1,0.1-8.4,13.6,4.5,27.2l0.1,0.1l0,0.1c0,0.2-2.7,16.8,6,28.2
			c4.6,6,11.5,9.6,20.6,10.6l0.2,0l0.1,0.2c0.1,0.2,6.4,18.7,27.4,18c3-0.1,6.2-0.6,9.5-1.5l0.2-0.1l0.1,0.2
			c0.1,0.1,5.2,11.8,20.9,11.3c4.9-0.2,10.4-1.5,16.3-4c7.2-3.1,12-8.5,14.2-16.3c5.4-19.4-6.6-50-21.3-70.3
			c-7.3-10-17.2-19.5-26.9-28.6c-15.9-15-29.6-28-26.4-39.1c4.9-17.2,30.5-19.4,38.2-19.7c2-0.1,4-0.1,5.8,0
			c4.2,0.2,24.9,0.5,51.3-0.4c31.7-1.1,87.6-4.4,106.7-14.6c7-3.8,13.3-2,18.3,5.2c13.6,19.6,14.4,73.1,7.1,90.7
			c-3.9,9.5-8.5,39.8-4.3,50.1c0.9,2.1-2.4,4.3-5.6,6.4c-2,1.4-4.1,2.8-4.4,3.8c-5.5,19-11.3,19.7-23.8,21.2
			c-0.8,0.1-1.6,0.2-2.5,0.2c-8.4,0.3-17.1-2.7-26.7-6.4l-1.4-0.5C406,309,398.2,306,391.7,306.2z"/>
	</g>
	<g>
		<path class="st2" d="M405.9,400c-3.8,2.6-8.1,4.5-13.3,5.2c-4.8,0.7-9.8,0.3-14.5-1.1c-1.4-0.4-2.7-1-3.9-1.7
			c-1.2-0.4-2.4-0.9-3.4-1.5c1.9,1.8,4.1,3.2,6.7,4.2c4.7,1.8,10,1.8,14.9,1.2c7-0.8,13.1-4.2,18-9C409,398.3,407.5,399.2,405.9,400
			z"/>
		<path class="st2" d="M441.7,332.1c-0.4,3.2-1.7,5.5-3.9,7.7c-2,2.1-4.5,4.1-7.4,4.7c-0.2,0-0.3,0.4-0.1,0.4c0,0.1,0,0.1,0,0.2
			c4.1,8.7-0.9,18.3-7.8,24c-3.7,3-8.4,4.3-13,5.1c-5.6,1-10,0.2-15.3-1.8c-0.1,0-0.2,0.2-0.1,0.2c2.2,0.9,4.4,2.1,6.8,2.5
			c2.9,0.5,5.6,0.2,8.5-0.2c5.2-0.8,10.1-2.6,14.2-5.9c6.7-5.4,11.7-15.9,7.4-24.1c2.9-0.2,5.4-2.9,7.4-4.7c2.3-2.2,4.1-5,3.9-8.3
			C442.2,331.7,441.8,331.9,441.7,332.1z"/>
		<path class="st2" d="M458.3,330.8c-0.1-0.1-0.3,0.1-0.2,0.2c5.1,4.3,4.1,14.9,0.5,19.8c-0.1,0.1,0,0.1,0.1,0.1
			C463.1,346.1,464.1,334.8,458.3,330.8z"/>
		<path class="st2" d="M458.2,351.1c-0.1,0-0.3,0.2-0.2,0.3c3.7,3.3,4.8,7.9,5,12.7c0.3,6.1-3,13.8-7.1,18.3c-0.2,0.1,0,0.3,0.2,0.1
			c2-1.8,3.4-4.6,4.6-7c1.7-3.3,2.8-6.8,3.1-10.6C464,360.6,462.9,352.8,458.2,351.1z"/>
		<path class="st2" d="M491.2,343.8c-2-5.8-5.6-9.3-11.5-10.8c-0.2,0-0.3,0.2-0.2,0.3c5.8,1.8,8.9,5.4,11.1,11
			c2.1,5.4,3.2,11.7,2.1,17.5c0,0.2,0.2,0.1,0.2,0C494.5,355.8,493.2,349.4,491.2,343.8z"/>
		<path class="st2" d="M504.2,315c-4.3-2.5-9.1-3.7-13.3-1.2c-0.7-8.9-9.5-16.6-18.5-15.1c-0.1,0-0.3,0.3,0,0.3
			c9.3-1.2,16.5,6.6,18,15.2c-0.4,0.3-0.8,0.5-1.1,0.9c-0.1,0.1,0,0.3,0.1,0.2c0.3-0.3,0.7-0.5,1.1-0.7c0,0.4,0.1,0.7,0.1,1.1
			c0,0.3,0.4,0,0.4-0.2c0-0.4,0-0.8,0-1.2c4.8-2.5,10-0.6,14.3,2.4c4.9,3.5,6.4,8.7,6.9,14.3c0,0.1,0.2,0,0.2-0.1
			C512.4,324.2,510.2,318.6,504.2,315z"/>
		<path class="st2" d="M513.2,293.4c-4.1-2.8-8.1-2.7-12.2-0.9c-1.5-7.5-10.3-11.4-17.3-7.3c-0.1,0.1-0.1,0.3,0,0.2
			c4-2,9.1-1.6,12.7,1.1c2,1.6,3.2,3.9,3.9,6.4c-0.2,0.1-0.4,0.2-0.6,0.3c-0.1,0.1-0.1,0.3,0,0.2c0.2-0.1,0.4-0.2,0.6-0.2
			c0.2,0.8,0.3,1.6,0.5,2.4c0.1,0.3,0.4,0,0.4-0.2c0-0.9,0-1.7-0.2-2.5c1.8-0.8,3.4-1.2,5.6-1c2.8,0.2,5.5,2,7.6,3.6
			c3.9,2.9,6.7,7.4,8.4,11.9c0.1,0.1,0.3-0.1,0.3-0.2C521.6,301.3,518.2,296.7,513.2,293.4z"/>
		<path class="st2" d="M522.2,271.2c-1.7-1.4-3.7-2.4-5.9-2.8c-2.3-0.5-4,0.4-6.2,0.7c-0.1,0-0.1,0.2,0,0.2c1.6-0.1,3-0.6,4.7-0.6
			c2.9,0,5.6,2,7.7,3.7c3.2,2.7,5.3,6.5,6.8,10.4c0.1,0.1,0.2,0,0.2-0.1C528,278.1,525.9,274.3,522.2,271.2z"/>
		<path class="st2" d="M537.8,257.1c-1.5-5-5.8-8.6-10.6-10.4c-3.5-1.3-9.5-1.6-12.3,1.2c0,0.1,0,0.2,0.1,0.1
			c3.6-2.6,9.9-1.6,13.7,0.1c4.1,1.8,7,5.3,8.9,9.2C537.5,257.4,537.8,257.2,537.8,257.1z"/>
		<path class="st2" d="M538.5,219.2c-1.7,2.3-3,4.6-5.2,6.5c-2.1,1.8-4.4,3.3-7,4.4c-3,1.2-10.9,2.6-13-1c-0.1-0.1-0.3,0.1-0.3,0.2
			c1.9,3.9,9,2.8,12.3,1.9c6.3-1.8,10-6.8,13.5-11.9C538.9,219.1,538.6,219,538.5,219.2z"/>
		<path class="st2" d="M536.8,196.9c-2.2,5.5-6.1,9.9-10.7,13.6c-3.4,2.7-11,5.9-14.5,1.6c-0.1-0.1-0.3,0.1-0.2,0.2
			c2.6,3.7,9,2.4,12.4,0.4c5.6-3.4,11.5-9.4,13.3-15.8C537.3,196.7,536.9,196.7,536.8,196.9z"/>
		<path class="st2" d="M530.4,172.2c-3.1,5-6.9,8.8-11.8,12.1c-3.4,2.3-9.7,3.7-12.3-0.3c-0.1-0.1-0.3,0.1-0.2,0.2
			c2.2,4.1,7.4,3.1,11,1.6c5.7-2.4,10.6-8.1,13.6-13.4C530.8,172,530.5,172,530.4,172.2z"/>
		<path class="st2" d="M527.3,147.4c-2.6,4.3-6.7,6.9-11.2,8.8c-2.4,1-4.9,1.4-7.5,1.2c-2.7-0.2-4.7-1.9-6.5-3.7
			c-0.1-0.1-0.2,0.1-0.2,0.2c3.7,4,7.8,5.3,13.1,3.3c4.9-1.8,10.1-4.8,12.5-9.8C527.7,147.3,527.4,147.3,527.3,147.4z"/>
		<path class="st2" d="M524.3,120.6c-3.3,4.5-6.8,8.1-11.7,10.9c-4.3,2.5-10.1,4.6-14.5,1.1c-0.1-0.1-0.3,0.1-0.2,0.2
			c3.9,3.6,8.9,2.2,13.2,0.1c5.5-2.6,10.4-6.8,13.4-12.2C524.7,120.5,524.4,120.4,524.3,120.6z"/>
		<path class="st2" d="M525.4,104.4c-4,3.2-8.3,5.2-13.2,6.5c-4.4,1.1-11.1,1.7-14.1-2.3c0-0.1-0.2,0.1-0.2,0.1
			c2.6,3.9,7.6,3.8,11.8,3.3c5.9-0.7,11.3-3.5,15.8-7.3C525.6,104.5,525.5,104.3,525.4,104.4z"/>
		<path class="st2" d="M529.5,87.4c-3.6,1.4-7.2,1.6-11,1.3c-3-0.3-7.9-1.8-9.6-4.5c-0.1-0.1-0.3,0.1-0.2,0.2
			c1.4,2.8,5.5,4.4,8.5,4.8c4.2,0.7,8.5,0.6,12.3-1.5C529.6,87.7,529.7,87.3,529.5,87.4z"/>
		<path class="st2" d="M244.6,135.9c-7.4,3.9-15.9,5.2-22.8-0.3c-0.1-0.1-0.2,0.1-0.1,0.1c5.9,6.5,16.2,4.5,23,0.4
			C244.8,136,244.8,135.7,244.6,135.9z"/>
		<path class="st2" d="M258.8,158.5c-6.3,2.5-17.8,1.8-18.9-6.9c0-0.2-0.2,0-0.2,0.1c-0.1,1.2,0.2,2.2,0.5,3.1
			c-7.2,4.1-19.1,0.3-23.2-6.9c-0.1-0.1-0.3,0.1-0.3,0.2c1.6,4.5,6.5,6.7,10.6,8.1c4.1,1.4,9.2,1.5,12.9-1.1
			c2.7,6,13.3,6.5,18.5,3.8C259,158.8,259.1,158.4,258.8,158.5z"/>
		<path class="st2" d="M254.8,178.7c-5.2,3.7-11.8,4.1-16.7,0.1c0-0.1,0-0.1-0.1-0.1c-0.5-0.4-1.1-0.9-1.6-1.5
			c-0.1-0.1-0.3,0.1-0.2,0.2c0.4,0.6,0.8,1,1.2,1.5c-5.1,2-10.2,1.3-15-1.3c-4.6-2.4-7.5-5.9-10.1-10.2c-0.1-0.1-0.2,0.1-0.2,0.1
			c4,9,15.9,16.7,25.6,11.6c4.6,4.5,12.2,4.1,17.2-0.1C255.2,178.8,255.1,178.4,254.8,178.7z"/>
		<path class="st2" d="M258,197.5c-3.4,3.2-7.2,5.1-12,4.8c-2.7-0.2-6.2-1.9-8.2-4.2c0.3-0.2,0.6-0.5,0.9-0.7c0.2-0.2,0-0.4-0.2-0.3
			c-0.3,0.2-0.7,0.5-1,0.7c-0.5-0.6-0.8-1.2-1.1-1.8c-0.1-0.1-0.3,0-0.2,0.1c0.2,0.7,0.4,1.4,0.8,2c-5,2.9-10.8,2.6-16.2,0.6
			c-5.7-2.2-8.7-6.7-11.1-12c-0.1-0.1-0.2,0-0.2,0.1c1.8,6.7,6.4,11.1,12.8,13.2c4.8,1.6,10.6,1.4,14.9-1.5c1.8,2.6,5.3,4.2,8.3,4.6
			c4.8,0.7,9.3-2.1,12.5-5.4C258.4,197.5,258.2,197.3,258,197.5z"/>
		<path class="st2" d="M263.6,213.8c-3.7,3.8-8,6.5-13.5,6.7c-3.1,0.2-7.5-1.3-9.9-3.9c0.1-0.1,0.1-0.1,0.2-0.2
			c0.2-0.2,0-0.5-0.2-0.2c-0.1,0.1-0.1,0.1-0.2,0.2c-0.5-0.6-0.9-1.3-1.2-1.9c-0.1-0.1-0.3,0.1-0.2,0.2c0.2,0.8,0.6,1.5,1,2.2
			c-5.3,5.1-12,5.8-18.9,3.9c-5.2-1.4-11.4-4.2-13.9-9.2c0-0.1-0.2,0-0.1,0.1c2.1,6.1,10,9.2,15.8,10.3c6.5,1.2,12.8,0.1,17.4-4.8
			c2.3,2.8,6.6,4.1,10,4.2c5.4,0.1,10.7-3.2,14-7.2C264.1,213.8,263.8,213.6,263.6,213.8z"/>
		<path class="st2" d="M264.9,222.4c-1.1,4.7-5.1,9.7-9.4,11.8c-2.5,1.2-5.8,2.1-8.8,1.6c0.1-0.1,0.2-0.3,0.3-0.4
			c0.2-0.3-0.2-0.4-0.4-0.2c-0.1,0.2-0.3,0.3-0.4,0.5c-1.1-0.2-2.2-0.6-3.1-1.3c-0.1-0.1-0.3,0.1-0.2,0.2c0.8,0.9,1.7,1.4,2.7,1.7
			c-8.7,9.9-26.6,11-36,1.4c-0.1-0.1-0.2,0.1-0.2,0.1c4.2,6,13.4,7.8,20.4,6.9c6.2-0.7,12.4-3.3,16.3-8.4c3.4,0.7,7.6-0.7,10.3-2.1
			c3.9-2,8-7.8,8.7-12.2C265.3,222.1,265,222.3,264.9,222.4z"/>
		<path class="st2" d="M270.5,238.3c0-0.3-0.4,0-0.4,0.2c-0.1,5-1.4,9.4-4.6,13.4c-2.1,2.6-5.9,4.9-9.6,5.4c0.1-0.2,0.1-0.3,0.2-0.5
			c0.1-0.4-0.3-0.2-0.5,0c-0.1,0.2-0.2,0.4-0.3,0.6c-1.3,0.1-2.5,0-3.6-0.5c-0.1,0-0.2,0.2-0.1,0.2c1,0.6,2.2,0.9,3.4,0.9
			c-1.8,3.3-3.7,6-6.9,8.3c-4,2.9-8.8,4.1-13.6,4.6c-7.9,0.8-16.1-0.7-22-6.3c-0.1-0.1-0.2,0.1-0.1,0.1c6.1,7.4,16.6,7.8,25.4,6.4
			c7.7-1.2,14.8-6,17.9-13.1c3.6-0.2,7.4-2.6,9.6-5C268.9,249.3,270.9,243.4,270.5,238.3z"/>
		<path class="st2" d="M296.2,260.5c0-0.3-0.4,0-0.4,0.2c-0.4,11.4-13.4,19.5-24.3,17.5c-0.1-0.6-0.3-1.1-0.6-1.6
			c-0.1-0.2-0.5,0.1-0.4,0.3c2.6,7.7-3.7,15.9-9.2,20.6c-2.7,2.3-5.7,4.1-9,5.5c-3.9,1.7-8.5,3.5-12.8,3.1c-0.1,0-0.2,0.2-0.1,0.2
			c4.1,0.8,8.2-0.8,12-2.2c4-1.5,7.9-3.9,11.1-6.8c3.4-3,5.9-6.4,7.8-10.6c0.9-2.1,1.8-5.3,1.4-7.9c1.9,0.9,4.7,0.3,6.6,0
			c3.4-0.5,6.5-1.7,9.4-3.5C292.5,272.1,296.7,266.5,296.2,260.5z"/>
		<path class="st2" d="M311,271.5c-0.1-0.2-0.4,0.1-0.3,0.2c2.7,5,1,11.2-2,15.7c-3.5,5.3-9.1,6.6-15,6c-0.4-1.5-0.9-3-1.6-4.4
			c-0.1-0.2-0.4,0.1-0.3,0.3c0.5,1.4,0.9,2.7,1.1,4c0,0,0,0,0,0c-0.1,0-0.2,0.2-0.1,0.2c0.1,0,0.1,0.1,0.2,0.1
			c1,5.4,0.1,10.5-2,15.9c-1.1,2.8-3,5.1-5,7.3c-2.1,2.3-5.2,5.7-8.5,6.4c-0.1,0-0.2,0.3-0.1,0.2c2.3-0.2,4.4-1.9,6.1-3.4
			c2.8-2.5,5.4-5.3,7.3-8.6c2.9-4.9,4.2-11.7,3-17.6c5.8,1.4,11-0.7,14.9-5.3C312.5,284.1,314.2,276.6,311,271.5z"/>
	</g>
	<path class="st3" d="M536.6,197.8c0,0,6-10.9-6.4-25c0,0,6.9-8.8-3.4-24.2c0,0,6-11.7-3-27.6c0,0,5.8-4.9,1.2-15.8
		c0,0,1.7-1.6,2.8-5c-4.4,4.6-14.7,7.9-19,6.5c-4.5-1.5,3.1-11.2,11.2-14.1c5.3-1.9,7.5-1,8.5-0.2c-0.1-1.2-0.3-2.5-0.7-3.9
		c0,0,2-1,4.2-3.2c-3.9,1.6-7.5,1.4-8.3-1.6c-1.1-4.1,4.7-12.2,9.1-13.2c3.7-0.8,4.5,1.6,4.7,2.4c0.1-2.5-0.2-5.3-1.1-8.6
		c0,0,8.3-23.5-4.7-29.7c-8-3.8-13.4-2.5-18-1.2c-2.9,0.8-5.4,1.6-8,1.1c-6.7-1.3-14.5-7.7-24.1-4.3c-9.6,3.4-9.8,12.7-9.7,15.7
		c0,0-13.6,5.6-11.1,16.8c0,0-12.2,3-13.2,16.3c0,0-13.7,2-14.2,17.9c0,0-17.8,1.6-19.4,15.5c0,0-16.5-4.1-24.9,1.9
		c0,0-21.5-2.9-30.4,6.2c0,0-10.1-10.9-25.7-4.8c0,0-12-8.8-22.6-4.9c0,0-3.9-10.1-22.7-6.9c0,0-4.8-8-22.1-4.4c0,0-12-6.8-21.2,6.4
		c0,0-11.3-1.1-18.8,6.2c1.7-0.5,3.8-0.7,6.3-0.2c9.5,1.9,5.8,27.5-6.2,26.2c0,0,0.3,2,5.2,3.3c4.9,1.4,1,16.2-8.1,12.6
		c0,0,7.9,7.4,4.7,15.9c-3.2,8.5-10.4,5-12,2.4c0,0,0.1,3.5,4.2,7.3c4.1,3.8,8.3,12.2,4.2,15.7c-4,3.4-9-0.1-12.2-4.6
		c0,0-0.2,5.9,6.3,11.2c6.5,5.3,8.8,13.1,2.7,15.5c-4.7,1.9-11.7-3.3-14.9-11.4c0.2,2.5,0.8,5.1,1.9,7.8c0,0-3.8,7.3,2.4,26.1
		c0,0-8.7,13.6,4.5,27.5c0,0-5.9,35.6,26.8,39.1c0,0,7.9,24.4,37.3,16.7c0,0,8.3,19.7,37.5,7.4c29.2-12.3,12.3-60.4-7-86.9
		C290,217.1,251,193.8,256,176.2c5-17.6,32.5-20.1,43.7-19.4c11.2,0.7,128.5,0.8,158.1-15.1c29.6-15.9,34.9,71.6,25,95.6
		c-3.8,9.3-8.6,39.9-4.3,50.3c1.3,3.2-9.2,7.4-10,10c-5.4,18.5-10.8,19.5-23.6,21c-9.3,1.1-19.5-2.5-29-6.2
		c-15-5.7-28.7-11.4-36.4,0.7c-12.6,19.9-17.3,47.7-17.3,47.7s-5.5,17.1,2.1,32.2c7.2,14.3,11.7,14.5,13.3,19.7
		c0-0.7-0.1-1.3-0.3-1.7c-1.2-2.4,6.7,2,13-0.4c6.3-2.4,4.9,1.2,3.1,7.8c-1.6,6.2,3.8,22.2,1.1,33.2c4-0.5,7.7-2.4,8.8-5.6
		c2.3-6.9,2.7-19.7,1.3-26.1c-1.5-6.4,14-23.9,11.2-46c0,0,16.9,23.3,40.2,9.3c0,0,32.5,8.3,37-23c0,0,19.2,1.5,19.4-28
		c0,0,14.4-0.9,10.1-25.9c0,0,11.2-6.8,6.8-23.7c0,0,13.8-5.1,8-26.7c0,0,15-7.8,0.9-35.5C538.2,220.4,543.7,208.3,536.6,197.8z
		 M290.6,277.4c0.9-1.3,2.2-2.3,3.2-3.6c1.1-1.4,1.9-2.8,2.6-4.4c0.2-1.6,0.5-3.7,2.1-4.4c1.8-0.9,3.7,1.6,4.4,3
		c1.8,3.9,1.5,9.1-0.9,12.7c-2.2,3.3-6,4.9-9.4,2.2C290.7,281.6,289.1,279.6,290.6,277.4z M287.9,321.5c1.1-1.5,2.3-2.9,3.5-4.4
		c0-0.1,0-0.1,0-0.2c0.8-1.5,1.9-3.2,3.1-4.4c0.1-0.1,0.1-0.2,0.2-0.4c0.1-0.1,0.2-0.2,0.3-0.1c1.7-1.3,3.6-1.3,5.3,2
		c2,4,3.4,11.9-0.2,15.6c-3.4,3.5-10.9,1.2-13.6-2.4C285.1,325.4,286.7,323.1,287.9,321.5z M210.4,222c3-3.8,12.7,3.3,12.7,3.3
		s9.9,6,10.5,11.9c0.4,3.9-7.6,8.6-16.6,2.5C207.9,233.8,207.4,225.9,210.4,222z M210.8,253.5c-0.6-5.2,3-6.7,3-6.7
		c3.5-1.6,10.5,0.5,13.8,1.8c4.8,1.8,7.5,5.7,7.7,10.7c0.2,4.3-2.7,7.4-7,7.5C216.6,267.1,211.3,258.7,210.8,253.5z M244.4,296.1
		c-2.9,1.2-6.5,1.8-9.6,1.2c-5.2-0.9-9.5-4.3-12.9-8.3c-2.5-3-6.1-8.1-2.9-11.9c0.5-0.7,1.2-1.1,1.9-1.5c3.7-2,9.1-0.8,12.9-0.6
		c6.9,0.3,14.1,3.1,16.7,10.1C252.4,289.7,248.6,294.3,244.4,296.1z M278.1,305c-0.5,2.4-2.2,4.8-4.2,6.2c-3.9,2.8-9.1,4.4-14,4.4
		c-3.8,0-11.1-3-7.2-8c1-1.3,2.2-2.2,3.6-2.9c2.8-1.3,6-1.8,8.9-2.7C268.7,301.1,279.8,297.3,278.1,305z M265.9,258.7
		c0.5-1.9,2.7-9.4,6.1-8.2c2.6,1,1.4,4.7,1.5,6.7c0.3,3.9,2,7.4,2.4,11.2c0.1,1.5-1.4,2.2-2.6,2.1c-2.1-0.2-4.7-3.9-5.8-5.4
		c-1.4-1.8-1.7-3.9-1.4-6C266,258.9,265.9,258.9,265.9,258.7z M262.6,235.4c1.6,0.8,1.8,2.3,1.6,4c-0.4,3.4-1.4,8.2-4.4,10.4
		c-3.7,2.8-6.5-5.6-6.3-8c0.2-2.2,1-3.3,2.6-4.5c0,0,0.1-0.1,0.1-0.1C258.2,235.4,260,234.2,262.6,235.4z M258.5,222.8
		c0.6,1.2,0,2.7-0.8,3.7c-1.5,2-4.7,4.7-7.3,3.1c-1.8-1.1-1.8-4.1-0.6-5.7c0.9-1.6,3-2.1,5-2.2C256,221.6,257.9,221.6,258.5,222.8z
		 M255.2,164c-0.7,1-2.2,1.6-3.1,2.5c-1.3,1.4-2.4,3.1-3.9,4.2c-1.3,1-2.9,1.1-3.5-0.8c-0.7-1.9-0.7-4.3,0-6.2
		c0.1-0.5,0.5-0.9,1-1.2c0-0.1,0.1-0.2,0.1-0.3c0-0.1,0.2-0.2,0.2,0c0,0,0,0.1-0.1,0.2c0.2-0.1,0.5-0.2,0.7-0.2
		c1.9,0,3.6,0.5,5.5,0.3c0.6-0.1,3.2-0.7,3.5,0.2C255.8,163.3,255.5,163.7,255.2,164z M254.5,151c-1.5,1.6-5.5,4.6-7,1.4
		c-1.4-2.8-0.1-6.9,2.1-9c0,0,0.1-0.1,0.1-0.1c1.4-1.6,3.3-2.3,5.5-0.7C257.9,144.5,256.3,149,254.5,151z M386.8,402.3
		c-13,0-17.7-10.4-18.1-15.7c-0.4-5.2,8.4-5.8,8.4-5.8c3.7-0.8,21.7-2.7,24,2.3C403.5,388.1,399.8,402.3,386.8,402.3z M397.6,370.3
		c-8.3-2.1,4-19,12.8-21.2c8.8-2.1,12.1,6.8,12.1,6.8C425.6,366,405.9,372.5,397.6,370.3z M457,370c-6.2,18.9-32.7,9.7-29.2,0.5
		c3.4-9.1,17-10.3,24.2-7.2C459.1,366.5,457,370,457,370z M487.9,357.6c-0.4,11.6-12.3,23.4-20.6,22.4c-8.3-1,6.2-23.7,13.5-26.9
		C488.1,350,487.9,357.6,487.9,357.6z M536.2,209.7c1.2,11.7-9.8,19-13.2,15.4c-3.4-3.5,5.6-13.4,9.2-16.5
		C535.7,205.6,536.2,209.7,536.2,209.7z M533.4,184.3c0.3,0.8,0.5,1.5,0.7,2.3c0.9,4.7-0.5,9.8-3.1,13.8c-1.9,2.8-7.4,9.2-11.7,6.7
		c-5-3,1.2-19.7,6.4-25.1C529.1,178.5,532,181,533.4,184.3z M527.2,156.5c3.9,6.2,0.4,15.5-4.1,20.4c-2.2,2.4-7.5,6.8-9.5,1.5
		c-2.5-6.8,3.8-19.1,8.7-22.2C524.8,154.4,526.3,155,527.2,156.5z M524.3,143.8c-1.2,4.2-4,8.2-8.7,8.8c-10.2,1.4-3.4-17.2,2.1-21.3
		c2.9-2.2,4.7-2.1,5.7-0.8C526.2,133.9,525.4,140,524.3,143.8z M520.1,110.6c6.2-2.7,4.4,3.5,4.4,3.5c-3.6,10.5-16.5,18-16.7,11.8
		C507.6,119.6,514,113.3,520.1,110.6z M497,351.1c-6.6-2-0.3-29,5.3-31c5.7-2,7.1,8.1,7.1,8.1C510.6,343.2,503.7,353.1,497,351.1z
		 M520,313.2c-0.3,3.5-3,11.3-7.9,7.1c-6.7-5.8-8.8-23.7-2.1-23.9c4.6-0.2,7.4,3,8.8,6.9C519.9,306.5,520.3,310.3,520,313.2z
		 M517,293.1c-5.3-8.3-3.5-18.1,3.4-17.4c7,0.7,7.2,7.5,7.2,7.5C529.1,292.9,522.2,301.4,517,293.1z M526.9,272.1
		c-4.3-3.6-5.7-19,0.1-20.4c5.7-1.4,8.3,8.5,8.3,8.5C537.4,271.6,531.2,275.7,526.9,272.1z M539.9,235.6c1.6,13-6.7,10.6-10.6,7
		c-3.9-3.7-2.5-9.1,3.7-11.8C539.1,228,539.8,235.1,539.9,235.6z"/>
	<g>
		<path class="st4" d="M455.8,355.2c-6,0.2-12.7-1.2-19.9-4.1c-8.9-3.5-15.7-8.2-18.2-10c-8.6-6.2-12.6-4.8-12.6-4.7
			c0.1-0.1,0.2-0.1,0.2-0.1l-3.1-5.8c1.2-0.6,7.6-3.4,19.5,5.3c7.9,5.7,24.5,14.8,37.4,12.5c5.3-0.9,9.4-3.7,12.4-8.2
			c7.8-11.6,19-31.5,27.3-52.7c10.7-27.3,14.2-50.2,10.6-68.2c-0.8-3.9-1.5-7.5-2.2-11c-7.2-35.2-10.1-49.8-11.4-69.8
			c-0.4-6.4-0.8-12.6-1.1-18c-0.5-8.7-1-17.7-1.4-20.2c-0.9-1.5-0.6-3.4,0.8-4.5c1-0.7,2.3-0.8,3.5-0.3c2,1,2.3,2.8,2.8,9
			c0.3,3.9,0.6,9.3,0.9,15.6c0.3,5.4,0.7,11.6,1.1,18c1.3,19.5,4.2,34,11.3,68.9c0.7,3.5,1.4,7.1,2.2,11
			c3.9,19.2,0.2,43.4-10.9,71.9c-8.5,21.7-20,42.1-28,53.9c-4.1,6.1-9.7,9.8-16.8,11C458.7,355,457.3,355.2,455.8,355.2z"/>
		<path class="st5" d="M455.8,355.5c-6,0.2-12.7-1.2-20-4.1c-8.9-3.6-15.7-8.2-18.2-10.1c-6-4.3-9.7-4.9-11.4-4.8
			c-0.7,0-1,0.1-1,0.1l-0.1-0.3l-0.1,0l-3.3-6l0.2-0.1c0.5-0.3,1.8-0.9,4-0.9c3.1-0.1,8.4,0.9,15.8,6.3c6.8,4.9,21.5,13.2,33.9,12.8
			c1.1,0,2.2-0.1,3.3-0.3c5.2-0.9,9.2-3.6,12.3-8.1c7.8-11.6,19-31.5,27.3-52.6c10.7-27.2,14.2-50.1,10.6-68
			c-0.8-3.9-1.5-7.5-2.2-11c-7.2-35.2-10.1-49.8-11.4-69.9c-0.4-6.2-0.7-12.1-1-17.4l0-0.6c-0.5-8.6-1-17.6-1.4-20.1
			c-1-1.6-0.6-3.7,1-4.8c1.1-0.8,2.5-0.9,3.7-0.3c2.2,1.1,2.5,2.9,2.9,9.3c0.3,3.9,0.6,9.2,0.9,15.4l0,0.8c0.3,5.3,0.6,11.2,1,17.3
			c1.3,19.5,4.2,33.9,11.3,68.9l0.2,0.8c0.7,3.2,1.3,6.6,2.1,10.2c3.9,19.3,0.2,43.5-10.9,72.1c-8.5,21.7-20,42.1-28,54
			c-4.1,6.1-9.8,9.9-17,11.1C458.8,355.3,457.3,355.4,455.8,355.5z M406.1,335.9c1.8-0.1,5.6,0.5,11.7,5c2.5,1.8,9.3,6.5,18.1,10
			c9,3.6,17.2,4.8,24.1,3.6c7-1.2,12.6-4.9,16.6-10.9c7.9-11.9,19.5-32.2,27.9-53.9c11.1-28.4,14.8-52.6,10.9-71.7
			c-0.7-3.6-1.4-7-2.1-10.2l-0.2-0.8c-7.1-35-10-49.4-11.3-69c-0.4-6.1-0.7-12.1-1-17.3l0-0.8c-0.3-6.2-0.7-11.6-0.9-15.4
			c-0.5-6.1-0.7-7.9-2.6-8.8c-1-0.5-2.2-0.4-3.1,0.3c-1.3,0.9-1.7,2.7-0.8,4.1l0,0.1c0.4,2.5,0.9,11.6,1.4,20.3l0,0.6
			c0.3,5.3,0.7,11.2,1.1,17.4c1.3,20,4.2,34.6,11.4,69.8c0.7,3.5,1.4,7.1,2.2,11c3.7,18,0.1,41-10.6,68.3
			c-8.3,21.2-19.6,41.1-27.3,52.7c-3.1,4.7-7.3,7.4-12.6,8.4c-1.1,0.2-2.2,0.3-3.4,0.4c-12.5,0.4-27.4-7.9-34.2-12.9
			c-7.2-5.3-12.4-6.2-15.5-6.1c-1.8,0.1-2.9,0.5-3.5,0.7l2.9,5.4C405.6,335.9,405.8,335.9,406.1,335.9z"/>
	</g>
	<path class="st6" d="M515.8,217.9c-0.8-3.9-1.5-7.5-2.2-11c-7.1-34.9-10-49.4-11.3-68.9c-0.4-6.4-0.8-12.6-1.1-18
		c-0.3-6.3-0.7-11.7-0.9-15.6c-0.5-6.2-0.7-8.1-2.8-9c-1.1-0.5-2.4-0.4-3.5,0.3c-1.4,1-1.8,3-0.8,4.5c0.5,2.5,0.9,11.5,1.4,20.2
		c0.3,5.4,0.6,11.6,1.1,18c1.2,18.5,3.8,32.4,9.9,62.5c0.4-0.6,1-1.3,1.8-1.2c1.3,0.2,1.9,2.7,2.2,3.6c1,3.3,1.6,6.7,2.5,10
		c1.9,7.3,3.4,14.9,3.2,22.5c0,6.3-0.9,12.6-2.2,18.8c-1.5,7.1-3.1,14.3-5.4,21.2c-2.2,6.6-4.9,13-7.8,19.3
		c-3.6,7.5-6.7,15.6-10.6,23c-2.8,5.3-5.9,10.5-9.1,15.6c-2.5,3.9-5.2,7.7-8.6,10.8c-6.7,6.2-15.1,9.1-24.2,7.5
		c-5.6-1-11.1-3.1-16.2-5.8c-2.8-1.5-5.4-3.2-8.2-4.7c-2.3-1.2-4.9-2.3-6.9-4c-2.9-2.4-0.6-3.4,2.3-4c-9.8-5.9-15.1-3.7-16.2-3.1
		l3.1,5.8c0,0,0,0-0.2,0.1c0,0,4.1-1.5,12.6,4.7c2.5,1.8,9.3,6.5,18.2,10c7.3,2.9,14,4.3,19.9,4.1c1.5,0,2.9-0.2,4.3-0.4
		c7-1.2,12.7-5,16.8-11c8-11.9,19.5-32.2,28-53.9C516,261.3,519.7,237.1,515.8,217.9z"/>
	<path class="st7" d="M508.4,205.6c0,0,0.3,0.8,0.7,2.2c0.4,1.4,1,3.6,1.6,6.3c0.6,2.7,1.3,6.1,1.9,9.9c0.6,3.9,1.1,8.3,0.9,13.1
		c-0.2,4.8-1,10-2.1,15.4c-1,5.4-2.4,11.1-4,16.9c-1.6,5.8-3.5,11.7-5.7,17.6c-0.5,1.5-1.2,3-1.8,4.4c-0.3,0.7-0.6,1.4-0.9,2.2
		c-0.4,0.7-0.7,1.5-1,2.2c-0.7,1.4-1.5,2.9-2.2,4.3c-0.8,1.4-1.5,2.8-2.2,4.3c-2.9,5.7-5.7,11.4-8.6,17.1
		c-2.9,5.6-5.9,11.1-9.2,16.1c-1.7,2.5-3.4,5-5.4,7.1c-2,2.1-4.5,3.8-7.1,4.8c-2.6,1-5.4,1.4-8,1.4c-2.6,0-5.1-0.3-7.5-0.8
		c-2.4-0.5-4.6-1.2-6.7-1.8c-2.1-0.7-4-1.6-5.7-2.5c-3.5-1.8-6.4-3.5-8.8-5c-4.8-3-7.4-4.8-7.4-4.8s0.7,0.4,2,1.2
		c1.3,0.8,3.1,2,5.6,3.4c2.4,1.4,5.4,3.1,8.9,4.8c1.7,0.9,3.6,1.7,5.7,2.4c2.1,0.6,4.3,1.2,6.6,1.7c2.3,0.5,4.8,0.8,7.4,0.7
		c2.5,0,5.2-0.5,7.7-1.4c2.5-1,4.7-2.6,6.7-4.7c2-2.1,3.6-4.5,5.3-6.9c3.2-5,6.1-10.5,9-16.1c2.9-5.6,5.6-11.4,8.6-17.1
		c0.7-1.4,1.4-2.9,2.2-4.3c0.8-1.4,1.5-2.8,2.2-4.2c0.3-0.7,0.7-1.4,1-2.1c0.3-0.7,0.7-1.4,1-2.2c0.6-1.5,1.2-2.9,1.7-4.4
		c2.3-5.9,4.1-11.8,5.8-17.5c1.6-5.8,3-11.4,4.2-16.8c1.1-5.4,2-10.5,2.3-15.3c0.1-2.4,0.1-4.7-0.1-6.8c0-0.5-0.1-1.1-0.1-1.6
		c0-0.5-0.1-1-0.1-1.6c-0.1-1-0.2-2-0.4-3c-0.5-3.9-1.1-7.2-1.7-9.9C509.3,208.7,508.4,205.6,508.4,205.6z"/>
	<g>
		<path class="st4" d="M312,314.1c-3.9,0.1-8.6-1.7-13.2-10.4c-4-7.5-10.5-11.6-18.7-16.9c-4.4-2.8-9.3-5.9-14.4-10
			c-8.1-6.5-15.5-17.4-21-30.8c-6.2-15.5-9.7-34.1-10.1-53.8c-0.8-42.6,9.1-61.5,9.6-62.3c0.9-1.6,2.9-2.2,4.5-1.3
			c1.6,0.9,2.2,2.9,1.4,4.5c-0.1,0.3-9.5,18.6-8.8,59.1c0.8,42.5,15.9,69.4,28.6,79.6c4.8,3.8,9.3,6.7,13.8,9.6
			c8.7,5.5,16.2,10.3,21,19.3c4.1,7.8,6.9,7.1,8.7,6.6c1-0.2,2.2-0.5,3.5,0.1c1.7,0.8,2.4,2.7,1.6,4.4c-0.6,1.3-2,2-3.3,1.9
			c-0.1,0-0.1,0-0.2,0.1C314,313.8,313,314,312,314.1z"/>
		<path class="st5" d="M312,314.3c-5.2,0.2-9.6-3.3-13.5-10.5c-3.9-7.4-10.4-11.6-18.6-16.7c-4.4-2.8-9.4-6-14.4-10
			c-8.1-6.5-15.6-17.5-21-31c-6.3-15.5-9.8-34.1-10.1-53.9c-0.8-42.6,9.2-61.6,9.6-62.4c0.6-1.1,1.8-1.8,3-1.9
			c0.6,0,1.3,0.1,1.8,0.4c1.7,0.9,2.4,3.1,1.5,4.8c-0.1,0.2-9.5,18.5-8.7,58.9c0.7,42.4,15.8,69.2,28.5,79.4
			c4.8,3.8,9.4,6.7,13.8,9.6c8.7,5.5,16.2,10.3,21.1,19.4c3.2,6.1,5.5,6.8,7,6.7c0.5,0,1-0.1,1.4-0.2c0.5-0.1,1.1-0.3,1.8-0.3
			c0.7,0,1.3,0.1,1.9,0.4c1.8,0.8,2.6,3,1.8,4.7c-0.6,1.4-2,2.2-3.5,2.1l-0.2,0C313.9,314.2,312.9,314.3,312,314.3z M247,128.5
			c-1.1,0-2,0.6-2.5,1.6c-0.4,0.8-10.3,19.6-9.5,62.1c0.4,19.7,3.8,38.2,10.1,53.7c5.4,13.4,12.8,24.3,20.9,30.7c5,4,10,7.2,14.3,10
			c8.3,5.3,14.8,9.4,18.8,17c3.7,7,8,10.4,13,10.2c0.9,0,1.8-0.2,2.9-0.4l0.3-0.1h0c1.3,0.1,2.5-0.6,3-1.7c0.7-1.5,0-3.3-1.5-4
			c-0.5-0.3-1.1-0.4-1.7-0.3c-0.6,0-1.2,0.2-1.7,0.3c-0.5,0.1-1,0.2-1.5,0.3c-1.6,0.1-4.1-0.6-7.5-7c-4.8-9-12.2-13.7-20.9-19.2
			c-4.4-2.8-9-5.7-13.8-9.6c-12.7-10.2-27.9-37.2-28.7-79.8c-0.7-40.5,8.7-59,8.8-59.2c0.8-1.5,0.2-3.3-1.2-4.1
			C248.1,128.6,247.5,128.5,247,128.5z"/>
	</g>
	<g class="st8">
		<path class="st9" d="M316.8,307.3c-1.3-0.6-2.5-0.3-3.5-0.1c-1.8,0.5-4.6,1.2-8.7-6.6c-4.8-9-12.3-13.8-21-19.3
			c-4.5-2.8-9-5.7-13.8-9.6c-12.7-10.2-27.8-37.1-28.6-79.6c-0.7-40.5,8.6-58.8,8.8-59.1c0.9-1.6,0.3-3.6-1.4-4.5
			c-1.6-0.9-3.6-0.3-4.5,1.3c-0.2,0.3-2.3,4.4-4.5,12.6c0.7-0.5,1.4-0.7,2.1-0.6c0,0,2-0.5,1.4,1.7c-0.6,2.2-10.3,39.5-1.5,81
			c8.9,41.5,26.1,48.8,34.7,55.8c8.6,7,20.3,9.2,26,21.3c0,0,1.7,3.7-0.1,4.2c-0.7,0.2-1.4,0.2-2,0.2c4.1,6.6,8.4,8,11.8,7.9
			c1,0,2-0.2,2.9-0.4c0.1,0,0.2-0.1,0.2-0.1c1.4,0.1,2.7-0.6,3.3-1.9C319.2,310,318.5,308,316.8,307.3z"/>
	</g>
	<path class="st7" d="M238.4,154.2c0,0-0.1,0.7-0.3,1.9c-0.1,0.6-0.2,1.4-0.3,2.3c-0.1,0.9-0.2,2-0.4,3.1c-0.1,1.2-0.2,2.5-0.4,3.9
		c-0.1,1.4-0.2,2.9-0.4,4.6c-0.1,1.6-0.2,3.4-0.3,5.2c-0.1,1.8-0.1,3.8-0.2,5.8c0,2,0,4.1,0,6.3c0.1,2.1,0.1,4.4,0.2,6.7
		c0,1.2,0.1,2.3,0.2,3.5c0.1,1.2,0.1,2.4,0.2,3.6c0.1,1.2,0.2,2.4,0.3,3.6c0.1,1.2,0.2,2.5,0.4,3.7c0.6,5,1.4,10.1,2.5,15.3
		c0.6,2.6,1.1,5.2,1.9,7.7c0.4,1.3,0.7,2.6,1.1,3.9l0.5,1.9c0.2,0.6,0.4,1.3,0.6,1.9c1.7,5,3.8,10,6.2,14.7c2.5,4.7,5.2,9,8.3,12.9
		c1.5,2,3.2,3.8,4.9,5.5c1.7,1.7,3.4,3.3,5.3,4.7c1.8,1.4,3.7,2.6,5.5,3.8c1.8,1.2,3.6,2.3,5.3,3.4c3.4,2.2,6.5,4.1,9.3,6
		c2.7,1.9,4.8,3.9,6.3,5.6c1.5,1.8,2.6,3.3,3.2,4.4c0.4,0.5,0.5,1,0.7,1.3c0.2,0.3,0.2,0.4,0.2,0.4s-0.1-0.1-0.2-0.4
		c-0.2-0.3-0.4-0.7-0.7-1.2c-0.7-1.1-1.8-2.5-3.4-4.3c-1.6-1.7-3.7-3.6-6.4-5.4c-1.4-0.9-2.8-1.8-4.4-2.7c-1.6-1-3.2-2-4.9-3
		c-1.7-1.1-3.5-2.2-5.4-3.3c-1.9-1.1-3.8-2.3-5.7-3.7c-1.9-1.4-3.7-3-5.4-4.7c-1.8-1.7-3.4-3.6-5-5.6c-3.2-4-6-8.4-8.5-13.1
		c-2.5-4.7-4.6-9.7-6.4-14.8c-0.2-0.7-0.4-1.3-0.6-2l-0.5-1.9c-0.4-1.3-0.7-2.6-1.1-3.9c-0.8-2.6-1.3-5.2-1.9-7.8
		c-1.1-5.2-1.9-10.4-2.4-15.4c-0.2-1.2-0.3-2.5-0.4-3.7c-0.1-1.2-0.2-2.5-0.3-3.7c-0.1-1.2-0.1-2.4-0.2-3.6c0-1.2-0.1-2.3-0.1-3.5
		c-0.1-2.3,0-4.6-0.1-6.7c0-2.2,0.1-4.3,0.1-6.3c0.1-2,0.2-4,0.3-5.8c0.2-1.9,0.3-3.6,0.4-5.2c0.2-1.6,0.3-3.2,0.5-4.6
		c0.2-1.4,0.3-2.7,0.5-3.9c0.2-1.2,0.3-2.2,0.5-3.1c0.1-0.9,0.3-1.7,0.4-2.3C238.3,154.9,238.4,154.2,238.4,154.2z"/>
	<g>
		<g>
			<g>
				<path class="st10" d="M260.7,134.1c0,0-4.4,13.4,5.5,27.6c0,0-18.9,8.4-15.8,32.6c3,24.3,19.4,21.1,19.4,21.1
					s-8.6,19.9,4.6,32.2c13.1,12.3,29.7,10.1,29.7,10.1s22.1-2.4,8.9,27.8c-6,13.7-7.9,23.2-4.6,36.1c1.2,4.7,3.2,9.1,6.6,12.6
					c3.7,3.7,10.7,5.6,13.5,5.7c0,0-3.4,25.3,11.6,33.7c26,14.5,51.7-6,63.6-30.7c11.9-24.8,2.9-32.7,2.9-32.7s6.1,1.6,10.4,5.6
					c3.9,3.6,10.7,20.1,29.4,19.5c18.8-0.6,45.2-16.5,25.7-49.4c0,0,35,2.1,43.5-24.2c8.5-26.3-14.4-34.4-14.4-34.4s9.9-16.9,0.8-26
					c0,0,12.3-11,6.2-29c-3.9-11.8-9.3-11.3-9.3-11.3s8.3-11.5,5.1-28.4c-3.9-20.7-22-25.4-22-25.4S452.7,137,369.7,137
					C286.6,137.1,260.7,134.1,260.7,134.1z"/>
				<path class="st11" d="M358.9,378.6c-6.5,0.2-12.9-1.4-19.1-4.9c-14.1-7.9-12.1-30.8-11.8-33.6c-3.1-0.3-9.8-2.2-13.4-5.8
					c-3.1-3.2-5.3-7.3-6.7-12.7c-3.5-13.6-1.1-23.3,4.6-36.3c4.7-10.7,5.4-18.4,2.3-23c-3-4.3-8.6-4.5-10.3-4.4c-0.4,0-0.6,0-0.6,0
					c0,0-0.7,0.1-2,0.1c-4.9,0.2-17.5-0.5-27.9-10.3c-12.1-11.2-6-29-4.8-32.1c-0.2,0-0.5,0-0.9,0.1c-3.7,0.1-15.8-1.1-18.3-21.5
					c-1.6-12.6,2.9-20.9,6.8-25.6c3.7-4.4,7.7-6.6,8.8-7.1c-5-7.3-6.2-14.4-6.3-19c-0.1-5.1,0.9-8.4,1-8.6c0.1-0.1,0.2-0.2,0.3-0.2
					c0.3,0,26.9,3,109,3c3.7,0,7.4-0.1,11-0.2c38.5-1.3,63.9-9.3,78.5-15.8c15.8-7,22.6-13.8,22.6-13.9c0.1-0.1,0.2-0.1,0.3-0.1
					c0.2,0,18.3,5,22.2,25.6c2.9,15-3.4,26-4.8,28.2c1.5,0.2,5.8,1.7,9,11.4c5.6,16.7-4.5,27.5-6.1,29.1c3.7,3.8,4.7,9.5,2.9,16.5
					c-1.2,4.6-3.1,8.4-3.7,9.4c2.7,1.1,22.3,10,14.3,34.6c-6.8,21-30.2,24.1-39.9,24.4c-1.5,0.1-2.7,0-3.3,0
					c7.3,12.6,8.6,24.1,3.6,33.1c-5.9,10.8-19.2,16-29.8,16.3c-15,0.5-22.4-9.8-26.8-16c-1.1-1.6-2-2.9-2.8-3.6
					c-3.3-3-7.5-4.6-9.4-5.2c1.9,2.5,6.4,11.5-3.5,32.2C393.6,364,376,378.1,358.9,378.6z M304.6,257.4c1.7,0,7.7,0.1,10.8,4.7
					c3.2,4.8,2.5,12.7-2.3,23.5c-5.7,12.9-8,22.5-4.6,35.9c1.4,5.3,3.5,9.4,6.6,12.5c3.5,3.6,10.4,5.5,13.3,5.7c0.1,0,0.1,0,0.2,0.1
					c0.1,0,0.1,0.1,0.1,0.2c0,0.3-3.2,25.2,11.5,33.4c6.1,3.4,12.4,5,18.8,4.8c16.9-0.6,34.4-14.5,44.4-35.4
					c6.1-12.7,6.6-20.8,5.9-25.4c-0.7-5-2.9-6.9-2.9-7c-0.1-0.1-0.1-0.2,0-0.3c0-0.1,0.2-0.2,0.3-0.1c0.1,0,6.2,1.6,10.5,5.7
					c0.8,0.8,1.7,2,2.9,3.7c4.3,6.1,11.6,16.2,26.4,15.7c10.4-0.4,23.5-5.4,29.4-16c4.9-9,3.6-20.4-3.9-33c-0.1-0.1-0.1-0.2,0-0.3
					c0.1-0.1,0.1-0.1,0.3-0.1c0,0,1.5,0.1,3.8,0c9.6-0.3,32.7-3.3,39.4-24c2.4-7.4,3.7-18.1-4-26.8c-4.6-5.2-10.2-7.2-10.3-7.3
					c-0.1,0-0.1-0.1-0.2-0.2c0-0.1,0-0.2,0-0.2c0.1-0.2,9.7-16.9,0.8-25.7c-0.1-0.1-0.1-0.1-0.1-0.2c0-0.1,0-0.2,0.1-0.2
					c0.1-0.1,12.1-11.1,6.2-28.7c-3.7-11-8.5-11.1-9-11.1c-0.1,0-0.2-0.1-0.3-0.1c0-0.1-0.1-0.2,0-0.3c0.1-0.1,8.2-11.6,5-28.1
					c-3.7-19.3-19.9-24.6-21.6-25.2c-1,0.9-7.9,7.3-22.6,13.8c-14.6,6.5-40.1,14.5-78.7,15.8c-3.6,0.1-7.3,0.2-11.1,0.2
					c-78,0-106-2.7-108.8-2.9c-0.5,1.8-3.5,14.2,5.5,27.1c0,0.1,0.1,0.2,0,0.2c0,0.1-0.1,0.1-0.2,0.2c-0.2,0.1-18.6,8.6-15.7,32.3
					c0.6,5,3.8,21.5,17.8,21c0.8,0,1.3-0.1,1.3-0.1c0.1,0,0.2,0,0.3,0.1c0.1,0.1,0.1,0.2,0,0.3c-0.1,0.2-8.3,19.9,4.5,31.9
					c10.3,9.6,22.7,10.3,27.5,10.1c1.2-0.1,1.9-0.1,1.9-0.1S304.2,257.4,304.6,257.4z"/>
			</g>
			<path class="st12" d="M379.1,160.2c-1.5,2.8-4.1,5.3-7,7.4c-16,10.3-36.5,13.6-55.2,13.2c-9.9-0.3-20.6-1-29.7-5.3
				c-8.2-3.9-16.5-8.5-22.2-15.8c-0.1-0.1-0.2,0.1-0.2,0.2c4.9,7.4,13.3,11.6,21,15.6c0.6,0.3,1.1,0.6,1.7,0.8
				c-4.5,0.6-9,2.7-12.8,5.9c-5.3-0.1-9.4,1.9-13.3,5.4c-0.1,0.1,0,0.2,0.1,0.2c1.8-1.4,3.5-2.6,5.5-3.5c2.2-1,4.7-1.3,7.1-1.5
				c-6.3,5.5-10.1,13.9-6.8,21.9c0.1,0.2,0.3-0.1,0.3-0.2c-2.3-6.1,0.1-13.6,4-18.5c4-5,10.3-8.2,16.5-9.2
				c8.8,3.8,18.9,4.5,28.4,4.9c10.4,0.4,20.9-0.6,30.9-3.2c3.1-0.8,6.1-1.7,9.1-2.7c6.3-1.3,16.3-0.4,19.5,6.3
				c0.1,0.2,0.3-0.1,0.3-0.2c-1-3.4-4.5-4.9-7.5-6.2c-3.1-1.3-6.3-1.4-9.5-0.9c1.4-0.5,2.7-1,4-1.6c0,0,0,0,0.1,0
				c5.8-2.3,13.3-6.6,15.9-12.6C379.4,160.2,379.2,160.2,379.1,160.2z"/>
			<path class="st12" d="M377.1,317.3c-3.7,0.4-6.8,1.1-10,3.1c-2,1.3-4,2.6-5.9,4.1c2.5-4.2,3.8-9,3.4-13.9c0-0.2-0.3,0-0.3,0.1
				c0.2,18.7-20.7,31.2-37.8,28.7c-0.1,0-0.2,0.2-0.1,0.2c9.2,3,19.8-1.3,27.3-6.8c1.7-1.3,3.3-2.8,4.7-4.4
				c5.5-5.2,10.8-9.5,18.7-10.9C377.1,317.6,377.3,317.3,377.1,317.3z"/>
			<path class="st12" d="M461,277.5c-6.4-3.2-14-4.6-21.1-4.3c-0.1,0-0.2,0.2,0,0.2c6.4,0,12.7,1.4,18.5,4
				c5.7,2.5,12.3,6.4,15.5,11.9c0.1,0.1,0.2,0,0.2-0.1C471.8,283.7,466.2,280.1,461,277.5z"/>
			<path class="st12" d="M500.9,250.5c-8.9,12.1-30,16.6-43.1,8.8c5.3-4.3,9.5-10,11.8-17.5c0.1-0.2-0.2-0.2-0.3,0
				c-2.7,7.3-6.6,12.9-12.7,17.9c-5.5,4.5-13.9,7.1-20.8,8.1c-7.5,1.1-15.4,0.5-22.9-0.6c-6.8-1-13.3-4-19.6-6.6
				c-1.4-1.1-2.9-2-4.5-2.9c-9.1-5-20.6-6.5-29.9-1c-0.2,0.1-0.2,0.5,0,0.3c10.1-5.5,22.5-2.6,31.8,3.2c8,5,13.5,12.9,21.6,17.7
				c4.1,2.4,8.6,4.2,12.9,6.2c4.9,2.3,9.3,5.6,13.2,9.3c7.8,7.5,12.4,18,11.4,28.9c0,0.1,0.2,0,0.2,0c1.2-6.4-0.3-12.9-3.2-18.7
				c2.7,2.7,6.2,4.4,10.1,4.2c3.8-0.1,10.7-2.6,11.9-6.7c0.1-0.2-0.1-0.1-0.2,0c-2,4.8-10.8,6.5-15.2,5.4c-3.2-0.8-5.9-3-8-5.5
				c-1.2-2.1-2.7-4.1-4.2-6c-7.4-8.9-17.8-12.2-27.5-17.7c-7.3-4-12.6-10.5-19-15.6c18.7,9.6,46,10.6,62.5-2.4
				c6.8,5.4,16.9,4.8,24.9,2.9c1.7-0.4,3.3-0.9,4.9-1.4c5.3,0.6,7.6,4.4,8.3,9.4c0,0.2,0.3,0,0.3-0.1c-0.3-4.6-2.6-9.6-7.7-9.6
				c5.2-2.1,9.8-5.4,12.9-10C501.5,250.4,501.1,250.3,500.9,250.5z"/>
			<path class="st12" d="M501.5,225.6c-5.4,7.5-16.3,11.8-23.2,3.7c-0.1-0.1-0.2,0.1-0.2,0.2c6.7,9.2,18.6,4.6,23.7-3.7
				C502,225.5,501.7,225.4,501.5,225.6z"/>
			<path class="st12" d="M503,199.6c-4,4.3-13.5,9.9-17,2.2c-0.1-0.1-0.3,0.1-0.2,0.2c3.4,8.4,13.6,3.1,17.4-2.2
				C503.3,199.6,503.1,199.5,503,199.6z"/>
			<path class="st12" d="M486.8,217.2c-4.7-1-7.8-5.6-8.4-10.2c0.3-1.3,0.4-2.6,0.5-3.9c0.1-1.6,0.1-3.2-0.1-4.7
				c-0.1-1-0.7-2.4-0.7-3.4c0.8-2.9,1.1-6.1,1.3-9.2c0.4-6.2,0.8-12.2-4.4-16.5c-0.4-0.3-0.8-0.6-1.2-0.9c0,0,0.1-0.1,0.1-0.1
				c0.7-3.5,0.7-6.8,0.2-10.1c-0.1-4-0.9-7.8-0.4-11.8c0.6-4.5,3.3-8.2,7-10.5c0.1-0.1,0.1-0.3-0.1-0.2c-6.9,4.1-8.1,10.9-7.6,18
				c-0.5-1.9-1.2-3.8-1.8-5.8c-2.1-5.9-6.9-12.1-13.4-13.3c-0.1,0-0.3,0.2-0.1,0.2c6.4,1.5,10.7,7.8,12.8,13.6
				c2.4,6.4,3.9,13,2.8,19.8c-4.5-2.9-10.5-3.8-15.6-4.3c-7.6-0.8-14.8,0.4-21.5,2.9c-5.4,1.2-11.1,0.9-13.8-4.9
				c-0.1-0.1-0.2,0-0.2,0.1c2,5.2,6.6,6.4,11.4,5.8c-5.4,2.3-10.6,5.5-15.5,9.2c-0.1,0.1,0,0.3,0.1,0.2
				c10.8-7.7,22.1-12.7,35.5-12.6c5.9,0,12.1,1.2,17.4,3.7c7,3.3,7.8,9.6,7.3,16.6c-0.4,7.2-1.1,13.6-6.9,18.5
				c-4.6,3.9-10.4,6.6-15.9,8.8c-6.2,2.4-12.7,3.8-19.2,4.2c-6.6,0.4-13.4-1.5-19.7-3.3c0.2-3.7-0.4-7.4-1.3-10.9
				c-1-3.7-2.8-6.8-5.2-9.4c7,4.3,14.6,6.4,23.4,5.6c3.9-0.3,7.7-1.2,11.3-2.6c2.5-0.2,4.9,0.2,7.5,0.9c3,0.8,7,2,8.6,5
				c0.1,0.2,0.3-0.1,0.3-0.2c-1.4-3.7-6-5.1-9.4-6c-1.6-0.4-3.2-0.6-4.8-0.6c4.2-2,7.9-4.7,11-8.3c0.1-0.1,0-0.2-0.1-0.1
				c-3.6,4-8,6.8-12.8,8.5c-1.9,0.2-3.7,0.7-5.5,1.6c-2.6,0.5-5.3,0.9-8,1.1c-8.7,0.5-15.9-2.4-23.2-6.6c-3.9-3.6-8.7-6.3-13.8-8.3
				c5-9.6,3.1-22.4-2.4-31.5c-0.1-0.1-0.2,0-0.2,0.1c3,5.5,4.7,11.5,4.8,17.8c0.2,7.3-2.2,13.9-7,19.4c-0.1,0.1-0.1,0.1-0.1,0.2
				c-13.7,16.2-38.5,19-58.5,16c-5.5-0.8-10.8-2-16.4-1.9c-5.2,0.1-10.6,1-15.6,2.5c-5,1.5-9.8,3.9-14.7,5.8c-2.5,1-5,1.8-7.5,2.7
				c-2.9,1.1-6.3,2.6-9.4,1.5c-0.1,0-0.2,0.2-0.1,0.2c3.8,1.7,8.1-0.6,11.7-1.8c5.7-1.8,11-4.4,16.5-6.6c6.6-2.6,14.1-3.8,21.1-3.7
				c6.3,0.1,12.5,1.9,18.7,2.5c4.7,0.4,9.5,0.5,14.4,0.2c4.7,1.1,9,3.1,13.9,3.9c4.7,0.7,9.6,1,14.4,0.7c0.2,0,0.5,0,0.7-0.1
				c3.3,0.1,6.1,0.9,9.1,2.8c2.1,1.4,6.3,4.4,6,7.4c0,0.2,0.2,0.1,0.3-0.1c0.8-3.1-2.8-5.7-4.9-7.3c-2.3-1.8-4.8-2.9-7.5-3.2
				c5.5-1,10.8-3.4,13.9-8.3c0.1-0.2-0.1-0.2-0.2-0.1c-4.6,6.5-13,8.2-20.5,8.2c-4.1,0-8.2-0.4-12.2-1c-3.9-0.6-7.5-2.1-11.3-3.1
				c15.8-1.2,31.6-6.8,40.7-20.1c0.7-0.9,1.4-2,2-3c7.4,4.3,15.5,7.8,19.1,16.1c2.1,4.9,2.9,11.5,2.1,16.8
				c-0.9,6-5.5,10.9-10.2,14.4c-8.7,6.6-21.2,7.9-31.8,8.2c-4.2,0.1-8.4-0.2-12.5-0.5c-1.6-0.3-3.1-0.6-4.7-1
				c-4.4-1.1-8.8-1.9-13.1-3.3c-4.9-1.5-9.7-3.1-14.7-4.2c-7.7-1.8-16.3-3.3-24.2-2.4c-3.7,0.4-7.4,1.1-10.7,2.8
				c-3,1.6-5.6,4.1-7.8,6.6c-0.1,0.1,0,0.3,0.1,0.1c3-3.1,6.5-6,10.7-7.4c3.9-1.3,8.2-1.4,12.3-1.4c6.4,0.1,12.9,1.1,19.1,2.6
				c2.1,5.4,0,10-3,14.6c-0.2,0.3-0.5,0.5-0.7,0.8c-2.5,2.8-5.6,5-8.8,6.8c-6.5,3.6-16.1,5.8-23.4,4.1c-0.1,0-0.2,0.1-0.1,0.2
				c3.6,1.6,8.1,0.8,11.9,0.4c4.8-0.6,9.4-2.3,13.5-4.8c4.7-2.8,9.3-7.1,11.4-12.4c1.5-3.1,2-6.6,0.1-9.5c2.2,0.5,4.4,1.1,6.5,1.7
				c2.1,0.6,4.2,1.2,6.3,1.8c10.1,8.4,14.1,24.9,13.9,37.3c-0.1,7.4-1.7,13.7-4.4,20.6c-2.8,7.1-7.3,12.3-12.2,18
				c-0.1,0.1,0,0.2,0.1,0.1c3.4-3.7,6.7-7.3,9.3-11.5c7.2-5.8,17.7-8.1,26.8-6.8c4.4,0.6,8.3,2.5,11.6,5.3c0.7,0.8,1.4,1.5,2.1,2.3
				c0.7,0.7,1.4,1.4,2.1,2.1c1.8,2.4,3.2,5.1,4.2,7.9c3.6,10.6-3.1,21.8-9.7,29.5c-7.3,8.6-16.9,12.9-27.7,15.6
				c-0.1,0-0.2,0.3,0,0.2c11.1-2.6,20.4-6.9,28.2-15.4c7.1-7.8,12.8-18.6,10.4-29.3c-0.5-2.1-1.3-4.1-2.3-5.9
				c4.4,3.4,9.3,5.7,15,7.1c0.2,0,0.4-0.3,0.2-0.3c-3.6-1.3-7.1-2.5-10.5-4.3c-2.2-1.2-4.3-2.9-6.1-4.7c-1.6-2.3-3.5-4.3-5.7-5.9
				c-2.3-2.4-4.6-4.8-7.2-6.7c-3.2-2.4-6.4-3.5-10-4.8c-0.1,0-0.2,0.1-0.1,0.2c3.8,1.6,7.1,3.4,10.4,5.9c1.3,1,2.4,2.1,3.5,3.2
				c-2.2-1.2-4.5-2.1-6.9-2.5c-8.7-1.6-20.7,0.3-27.6,6.5c0.6-1.1,1.3-2.2,1.8-3.4c3.1-6.8,5.2-13.3,5.5-20.8
				c0.3-7.3-0.7-14.3-2.9-21.3c-2-6.2-5.2-13.5-10.5-17.7c0.4,0.1,0.8,0.2,1.2,0.3c3,0.5,5.9,1,8.9,1.7c6,0.9,11.9,2.1,18,2.3
				c1.3,0,2.6,0.1,4,0.1c1.5-0.1,3-0.1,4.5-0.3c8-0.7,16.3-2.1,23.3-6.1l0,0c0.1,0.2,0.3-0.1,0.3-0.2v0c1.1,3.6,7.1,5.4,10.2,6.2
				c4.3,1.2,8.8,2,13.3,2.2c1.4,0.1,2.9,0,4.4-0.1c5.6,0.5,12.9,2.7,15,8.1c0.1,0.1,0.3-0.1,0.3-0.2c-1.4-4.6-7.1-7.4-12.2-8.2
				c5.9-0.9,11.8-3,16.5-6.1c0.2-0.1,0.1-0.4-0.1-0.3c-6.9,4.2-15.5,6.2-23.6,6.1c-4.4-0.1-8.9-1-13.1-2.1
				c-4.1-1.1-7.1-3.1-10.5-5.6c1.7-1,3.3-2.2,4.9-3.6c3.3-3,6.6-6.7,7.8-11.1c0.4-1.4,0.6-2.8,0.7-4.3c6.7,2,13.5,3.8,20.6,3.4
				c6.7-0.4,13.3-2.2,19.5-4.6c5.9-2.3,11.9-5.5,16.6-9.8c2.1-1.9,3.4-4.2,4.2-6.6c0.1,0.9,0.4,1.9,0.5,2.7
				c0.4,3.6-0.1,7.4-1.1,10.9c-1.7,5.9-5.9,10.7-11.1,13.9c-0.1,0.1-0.1,0.3,0,0.2c4.7-2.6,8.2-6.6,10.6-11.4
				c0.6-1.3,1.1-2.7,1.4-4.1c0.6,4.5,3.7,9.1,8.5,9.4C486.8,217.5,487,217.2,486.8,217.2z"/>
			<path class="st12" d="M499.8,159c-4.2,5.3-10.2,8.3-17,8.3c-0.1,0-0.2,0.2-0.1,0.2c6.6,0.3,14-2.3,17.4-8.4
				C500.2,158.9,500,158.8,499.8,159z"/>
		</g>
		<g>
			<path class="st13" d="M501.3,227.6c0,0,10-16.9,0.8-26c0,0,12.3-11,6.3-29c-3.9-11.8-9.3-11.3-9.3-11.3s8.3-11.5,5.1-28.4
				c-3.9-20.7-22-25.4-22-25.4s-29.3,29.9-112.3,29.9c-83,0-109-3-109-3s-4.4,13.4,5.5,27.6c0,0-18.9,8.4-15.8,32.6
				c3,24.2,19.4,21.1,19.4,21.1s-3.8,8.8-2.5,18.3c0.6-8.6,10.7-19.5,28.5-24.7c18.3-5.4,34.9-1.5,55.4,1.1
				c20.5,2.6,26,18.9,11,21.6c-15.1,2.7-35-10.7-57-9c-22,1.7-25.1,18-28.7,20.9c-2.2,1.8-4.4,0.7-5.7-0.4c1,1.5,2.1,3,3.6,4.3
				c13.1,12.3,29.7,10.1,29.7,10.1s22.1-2.4,8.8,27.8c-6,13.6-7.9,23.2-4.6,36.1c1.2,4.7,3.2,9.1,6.6,12.6
				c3.6,3.7,10.8,5.6,13.5,5.7c0,0-3.4,25.2,11.6,33.6c26,14.5,51.7-6,63.6-30.7c11.9-24.8,3-32.7,3-32.7s6.1,1.6,10.4,5.6
				c3.9,3.6,10.7,20.1,29.5,19.5c18.8-0.6,45.2-16.5,25.7-49.4c0,0,34.9,2.1,43.5-24.2C524.2,235.7,501.3,227.6,501.3,227.6z
				 M273.8,159.9c0.5-5.1,8-4.7,8-4.7c3.1-0.1,7.1,0.6,7.1,0.6c10.1,11.3,31.6,4,31.6,4c3.7,4.1,13.8,3.5,19.5,3.7c5.7,0.2,5,4,5,4
				c-2.8,7.1-16.9,8.3-16.9,8.3C287.2,180.7,273.3,164.9,273.8,159.9z M368.9,191.2c-3.7,7.4-21.6,10.2-40.5,6
				c-18.8-4.2-31.3-1.8-39.3,1.1c-8,2.9-19.3,6.6-17.9-2.2c1.5-8.8,7.5-11.7,7.5-11.7c5-2.4,5.8-3.3,18.9,0
				c13.1,3.3,30.4,1.6,43.7-2.1C354.7,178.5,372.7,183.8,368.9,191.2z M503.7,189.6c-1.1,4.6-4.9,11.8-10.2,12.9
				c-7.9,1.8-11.2-13-10.1-21.6c0.5-4,2.2-7.6,5.5-9.1c1-0.4,2-0.7,3.2-0.7C503,170.6,505.9,180.6,503.7,189.6z M476.2,147.9
				c1.9-12.1,10.9-12.6,10.9-12.6c5.4-0.7,13.4,1.9,12.8,12.3c-0.6,10.4-8.3,14.1-14.3,16.2C479.6,165.7,474.3,160,476.2,147.9z
				 M420.5,178.3c0,0,12.5-10.6,26.8-11.5c14.3-0.8,16.6,7.5,11.2,15.1c-5.4,7.6-18.8,18.2-34.7,12.7
				C409.9,189.8,416.7,182.2,420.5,178.3z M423.7,210.5c-4.3-3.8,1.3-9.6,20-11.9c12.8-1.6,13.9,6.5,13.9,6.5
				C459.8,213.4,431.4,217.2,423.7,210.5z M430.5,220.8c6.9,0.5,13.9-0.4,20.5-2.8c4.3-1.6,9.9-6.4,14.6-5.5
				c2.9,0.5,1.1,4.2,0.2,5.4c-0.5,0.7-1.1,1.3-1.6,2c-6,6.7-14.3,10.9-22.8,13.3c-5.9,1.7-15.3,3-21.1-0.6
				C413.5,228.5,415.3,219.7,430.5,220.8z M431.8,243.9c4.1,0.8,10.4,2.4,12,6.9c0.4,1,0.5,2,0.5,2.9c-0.3,4.1-4.1,7.6-7.9,9
				c-5.6,2.2-11.7,2.4-17.6,2.3c-10.1-0.2-21.9-3-28.6-11.3c-1.5-1.9-2.7-6.3-1.9-8.6c2.7-7.9,15.3-5.7,20.9-3
				C419.2,247,417.8,241.3,431.8,243.9z M380.9,202.4c8.7-2.9,13.3-13,13.3-13c2-4.3,8.6,1.5,3.4,9.1c-5.2,7.6-15.4,7.8-17.1,6.2
				C378.8,203.1,380.9,202.4,380.9,202.4z M315.4,249.3c-7.9,6.5-21,8.1-28.3,3.3c-7.2-4.9,2.5-15.4,2.5-15.4
				C305.9,222.9,323.2,242.7,315.4,249.3z M318.7,331.6c-12.4-10.1-6.3-35.6-1.1-45.9c2.9-5.8,5.2-12.9,4.1-19.4
				c-0.4-2.2-2.2-3.9-2.5-5.9c-0.3-2,1.5-4.6,2.8-6c1.1-1.2,2.4-2.1,3.9-2.6c4.5-1.7,10.2-0.5,14.1,1.9c5.5,3.4,7.7,9.5,8,15.8
				c0.5,10.4-2.1,20.8-5.9,30.4c-5.7,14-13.7,18.3-13.7,18.3c12-3.3,20.6-13.9,20.6-13.9s12.8,0.4,7.1,16.3
				C350.5,336.2,331.1,341.7,318.7,331.6z M382.4,365.1c-2,3.2-5.5,6.1-8.7,7.8c-12.2,6.3-32.3,3.6-40.1-8.5
				c-3.3-5.1-6.9-16.4,0.6-19.8c2.1-0.9,4.6-1.1,6.9-1.7c3.8-1,7.4-2.5,10.9-4.1c13.6-6.2,22.2,3.9,10.1,12
				c-11.2,7.6-18.3,6.8-19.3,6.6c16,3,25-3.2,35.4-7.5c3.2-1.3,5.8,0.5,6.7,3.6C386.2,357.5,384.5,361.7,382.4,365.1z M444.7,316.6
				c-1.7,3.1-5,5.1-8.6,3.7c-5.6-2.3-8.7-7.4-12.9-11.3c-4-3.8-9.6-5.1-14.6-6.8c-5.1-1.8-9.8-4.6-13.6-8.4
				c-4.8-4.8-9.9-9.1-14.7-13.8c-3.5-3.5-7.8-7.9-8.1-13.1c-0.3-4.1,3-6.9,6.9-7.4c6-0.8,12,2.8,16.2,6.7c5.6,5.3,10.3,10.9,17,14.9
				c4.2,2.5,9.5,4.2,13.8,6.6c5.4,3,9.9,7,13.9,11.7C443.8,303.8,447.9,310.7,444.7,316.6z M457.2,302.9
				c-13.6-1.5-17.5-16.1-14.8-22.4c2.7-6.4,12.8-2.7,12.8-2.7C474.4,285.6,470.8,304.4,457.2,302.9z M497.6,251.2
				c-3.5,3.7-7.8,6.7-12.5,8.6c-2.5,1-5.2,1.7-7.9,1.9c-2.8,0.2-6.5,0.3-8.9-1.3c-1.7-1.1-3-4.1-2.3-6.2
				c3.7-10.4,18.3-13.8,27.7-15.6c2.6-0.5,6.3-1.1,8.5,0.8C505.9,242.6,499.8,248.9,497.6,251.2z"/>
			<path class="st14" d="M342.9,357.4c0,0-0.1,0-0.1,0C342.8,357.3,342.8,357.4,342.9,357.4z"/>
		</g>
		<g>
			<path class="st15" d="M323.5,276c0,0-19.9,37.3-3.3,54.4c0,0,4.5,5.5,14.6,4.1c0,0-12.4,0.3-17.2-11.1
				C312.9,312,316.2,292.8,323.5,276z"/>
			<path class="st15" d="M332.1,350c0,0-2.2,13.8,11.6,21c13.8,7.3,28.6,3,36.2-6c0,0-10.4,9.2-26.8,7.8
				C336.8,371.4,331.8,354.1,332.1,350z"/>
			<path class="st15" d="M392.7,251.9c0,0,5.3,10.2,24,11.9c18.7,1.7,24.6-7.3,24.6-7.3s-10.3,8.6-24.7,6.1
				C402.2,260.2,392.7,251.9,392.7,251.9z"/>
			<path class="st15" d="M467,254.7c0,0,0,13.5,23.1,1.5C490.1,256.2,469.6,264,467,254.7z"/>
			<path class="st15" d="M417.6,228.5c0,0,3.1,7,20.1,3.9c17.1-3,22.9-11.3,22.9-11.3S437.8,239.7,417.6,228.5z"/>
			<path class="st15" d="M424.9,205.3c0,0-1.9,1.7,0.3,4.4c2.2,2.7,13.3,3.5,21.5,1.9C446.7,211.7,423.5,214,424.9,205.3z"/>
			<path class="st15" d="M421.7,190.1c-3.7-3-3.9-5.9-2.4-7.8c0-0.1,0-0.1,0-0.2c-1.5,1.5-2.5,3.4-1.8,5.7
				c1.7,5.7,14.7,9.6,28.9,2.8C446.5,190.6,430.5,197.4,421.7,190.1z"/>
			<path class="st15" d="M271.7,240.8c0,0-4.1-4.9-0.4-11.9c3.7-6.9,11.3-14.3,24.6-18.6c15.7-5.2,43.8-2.1,57.5,1.9
				c0,0-35.2-6.6-56.2-0.7C276.2,217.4,267.4,232.4,271.7,240.8z"/>
			<path class="st15" d="M272.6,197.8c0,0,1.6-12.1,10.9-13.6c9.3-1.5,17.5,5,35.4,3.3c17.9-1.8,23.9-5.6,30.6-5.3
				c0,0-9.1,2.5-18.3,4.6c-9.2,2.1-20,2.8-29,1.3c-9-1.5-15-4.8-21.8-0.8C273.7,191.3,272.6,197.8,272.6,197.8z"/>
			<path class="st15" d="M448.9,279.1c0,0-6.9,2.9-1.7,14.8c0,0,1,2.4,4.8,5.6c0,0-6-1.6-8.2-10.1
				C441.5,280.9,447.9,277.8,448.9,279.1z"/>
			<path class="st15" d="M490.6,173.2c0,0-7.2,1.6-5.9,13.4c1.3,11.8,5.3,13.9,5.3,13.9S480.1,181.5,490.6,173.2z"/>
			<path class="st15" d="M489.6,136.1c0,0-10.4-0.7-11.9,12.7c-1.1,9.8,3,12.7,7,12.5c0,0-5.5-1-5.4-10.1
				C479.5,137.5,488.2,136.4,489.6,136.1z"/>
			<path class="st15" d="M376.2,263c0,0,8.2-4,16.8,4.1c8.6,8.1,11,13.5,21.3,18.2c10.3,4.7,26.6,11,29,24.5c0,0-1.4-10.1-16.4-16.6
				c-17.2-7.5-19.8-6.8-26.5-15.4C393.8,269.3,387.6,262.2,376.2,263z"/>
			<path class="st15" d="M276.1,162.6c0,0,12.9,19.1,60.4,10.1C336.5,172.7,296.5,180.2,276.1,162.6z"/>
			<path class="st15" d="M290.1,252.9c0,0,14,3.3,25.8-6.5C316,246.5,306.5,259.1,290.1,252.9z"/>
		</g>
	</g>
	<g>
		<g>
			<path class="st0" d="M458.6,134.3c0,0,22.4-0.3,26.8-23.1c0,0,18.1,2.5,20.3-22.3c0,0,15.4-1.6,17.8-21.7c0,0,5.4,1,12.6-3.6
				c3.2-2.1,10.1-22.4-4-29.6c-7.9-4-13.6-2.5-18.2-1.2c-2.9,0.8-5.4,1.6-8.1,1.1c-6.7-1.3-14.7-7.7-24.3-4.3
				c-9.7,3.4-9.9,12.7-9.8,15.8c0,0-13.7,5.6-11.3,16.9c0,0-12.3,3-13.3,16.4c0,0-13.8,2-14.3,18c0,0-18,1.6-19.6,15.6
				c0,0-16.6-4.1-25.2,1.9c0,0-21.7-2.9-30.7,6.2c0,0-10.1-11-25.9-4.8c0,0-8-10.9-21.5-5.5c0,0-2.6-10.2-23.2-6.5
				c0,0-6.1-8.9-23-4.3c-4.6,1.2-8.4,5-6.5,11.1c0,0-11.8,0.9-16.1,9.8c-4.3,8.9,1.3,22.6,23.9,20.8c0,0,5.4,9.1,24.9,5.8
				c0,0,11.3,15.1,31,4.6c0,0,2.3,3.1,6.8,5.5c4.5,4,19.5,2.5,23.4-0.4c5.3,7.1,28.3,10.1,43.5-0.5c-0.2,0.3,15.7,7.1,26.4-5
				c0.6-0.7,1.6-2.8,2.8-4.7c0,0,8.2,7.5,24.4,0.4c4.9-2.2,8-6.1,10.1-11.8L458.6,134.3z"/>
			<path class="st1" d="M372.6,163c-9.5,0.3-18.2-2.3-21.5-6.3c-2.2,1.4-7,2.5-12,2.7c-5.3,0.2-9.5-0.7-11.5-2.5
				c-3.9-2.1-6.1-4.7-6.7-5.4c-4.3,2.2-8.6,3.5-12.7,3.6c-11,0.4-17.5-7.2-18.4-8.3c-2.2,0.4-4.4,0.6-6.4,0.7
				c-13.2,0.4-17.8-5.5-18.6-6.5c-11.1,0.8-19.3-2-23.2-8c-2.6-4-2.9-9-0.8-13.3c3.9-8.1,14-9.7,16-9.9c-0.7-2.5-0.5-4.7,0.5-6.6
				c1.2-2.1,3.4-3.8,6.3-4.5c2.9-0.8,5.7-1.2,8.3-1.3c10-0.3,14.2,4.6,15,5.6c2.5-0.4,4.8-0.7,6.9-0.8c12.8-0.4,15.8,5.7,16.3,7.2
				c2.2-0.8,4.4-1.3,6.6-1.4c8.6-0.3,14,5.9,14.9,7c2.9-1.1,5.8-1.7,8.6-1.8c9.6-0.3,16,5.4,17.2,6.5c5.1-4.9,14-6.2,20.6-6.5
				c5.2-0.2,9.3,0.3,10.1,0.4c2.9-2,6.9-3,11.9-3.2c6-0.2,11.7,1,13.1,1.3c0.7-5.7,4.4-10.1,10.5-12.9c4.1-1.9,8-2.4,9-2.6
				c0.3-8.2,4.2-12.7,7.5-15c3.1-2.2,6.1-2.9,6.9-3c1.1-12.2,11.5-15.8,13.3-16.4c-0.9-4.6,0.8-9,4.8-12.7c2.7-2.4,5.7-3.9,6.5-4.2
				c-0.1-4.7,1-12.7,10-15.9c1.7-0.6,3.4-0.9,5.2-1c4.7-0.2,9,1.6,12.8,3.1c2.3,0.9,4.4,1.8,6.5,2.2c0.6,0.1,1.3,0.2,2,0.2
				c1.7-0.1,3.5-0.6,5.4-1.1l0.5-0.2c2.2-0.6,4.6-1.3,7.5-1.4c3.6-0.1,7.2,0.7,10.9,2.6c6.7,3.4,8.4,9.6,8.6,14.2
				c0.4,7.1-2.5,14.5-4.6,15.9c-4.6,3-8.5,3.7-10.9,3.8c-0.8,0-1.3,0-1.6,0C521.5,86,507.9,88.8,506,89.1
				c-1.9,19.7-13.7,22.2-18.7,22.4c-0.8,0-1.4,0-1.7,0c-4.3,21.5-24.4,23-26.8,23.1l-0.2,0.4c-2.2,6-5.4,9.8-10.2,11.9
				c-4.3,1.9-8.5,3-12.4,3.1c0,0,0,0,0,0c-7,0.2-11-2.5-12-3.3c-0.4,0.6-0.7,1.2-1,1.8c-0.7,1.2-1.3,2.2-1.6,2.7
				c-4.1,4.6-9.3,7-15.5,7.2c-5.4,0.2-9.9-1.4-11.1-2.1C388.7,160.4,380.8,162.8,372.6,163z M351.2,156l0.2,0.2
				c3,4,11.7,6.6,21.1,6.3c8.2-0.3,16.1-2.7,22-6.8l2.1-1.5l-1.6,1.7c1.1,0.5,5.4,2.1,10.6,1.9c6.1-0.2,11.2-2.6,15.2-7.1
				c0.4-0.4,0.9-1.4,1.6-2.6c0.4-0.7,0.8-1.4,1.2-2.1l0.2-0.3l0.3,0.2c0,0,4.1,3.6,11.9,3.3l0,0c3.8-0.1,7.9-1.2,12.2-3
				c4.7-2.1,7.8-5.7,9.9-11.6l0-0.1l0.4-0.6h0.3c2.3-0.1,22.3-1.4,26.4-22.9l0-0.3l0.3,0c0,0,0.7,0.1,1.8,0.1
				c4.9-0.2,16.4-2.6,18.2-22.1l0-0.2l0.2,0c0.2,0,15.2-1.8,17.6-21.5l0-0.3l0.3,0.1c0,0,0.7,0.1,1.8,0.1c2.4-0.1,6.2-0.8,10.6-3.7
				c1.8-1.2,4.8-8.3,4.4-15.4c-0.2-4.4-1.9-10.4-8.3-13.7c-3.6-1.8-7.1-2.7-10.6-2.6c-2.8,0.1-5.2,0.8-7.4,1.3l-0.5,0.2
				c-1.9,0.5-3.7,1-5.5,1.1c-0.8,0-1.4,0-2.1-0.2c-2.1-0.4-4.3-1.3-6.6-2.2c-3.8-1.5-8-3.2-12.6-3.1c-1.7,0.1-3.4,0.4-5,1
				c-8.7,3.1-9.7,11-9.6,15.5v0.2l-0.2,0.1c-0.1,0.1-13.5,5.6-11.1,16.5l0.1,0.3l-0.3,0.1c-0.1,0-12.1,3.1-13.1,16.2l0,0.2l-0.2,0
				c0,0-3.5,0.5-6.9,3c-3.1,2.2-6.9,6.6-7.2,14.8v0.2l-0.2,0c0,0-4.5,0.4-9.1,2.5c-6.1,2.8-9.5,7.1-10.2,12.8l0,0.3l-0.3-0.1
				c-0.1,0-6.4-1.6-13.2-1.3c-5,0.2-8.9,1.2-11.7,3.1l-0.1,0.1h-0.1c-0.1,0-4.5-0.6-10.1-0.4c-6.6,0.2-15.5,1.5-20.4,6.5l-0.2,0.2
				l-0.2-0.2c-0.1-0.1-6.5-6.9-16.9-6.6c-2.9,0.1-5.8,0.7-8.7,1.9l-0.2,0.1l-0.1-0.2c-0.1-0.1-5.4-7.2-14.5-6.9
				c-2.2,0.1-4.4,0.6-6.7,1.5l-0.3,0.1l-0.1-0.3c0-0.1-2.1-7.5-15.9-7c-2.2,0.1-4.5,0.3-7,0.8l-0.2,0l-0.1-0.1
				c-1.4-2-6.2-5.7-14.6-5.5c-2.5,0.1-5.3,0.5-8.1,1.3c-2.7,0.7-4.8,2.2-5.9,4.3c-1,1.8-1.1,4-0.4,6.4l0.1,0.3l-0.4,0
				c-0.1,0-11.7,1-15.9,9.7c-2,4.1-1.7,8.9,0.7,12.7c3.8,5.8,11.9,8.6,22.8,7.7l0.2,0l0.1,0.1c1.4,2.4,7.1,6.8,18.2,6.4
				c2-0.1,4.2-0.3,6.5-0.7l0.2,0l0.1,0.1c0,0.1,6.6,8.6,18.1,8.2c4.1-0.1,8.3-1.4,12.6-3.6l0.2-0.1l0.1,0.2c0,0,2.3,3,6.7,5.4l0.1,0
				c1.9,1.7,5.9,2.5,11.1,2.3c5.1-0.2,10-1.3,11.9-2.7L351.2,156z"/>
		</g>
		<g>
			<path class="st2" d="M287.4,102.9c-1.8,0.9-3.7,1.2-5.4,2.2c-1.7,0.9-3.2,2.5-4.4,3.9c-1.8,2.1-2.9,4.9-2.3,7.6
				c-4.5-0.3-8.8,2.7-10.7,6.7c-2.4,4.7-3.5,13.3,0.4,17.6c0.1,0.1,0.3-0.1,0.2-0.2c-5.4-8.6-0.8-23.4,10.2-23.6
				c0.1,0.5,0.3,0.9,0.6,1.4c0.1,0.2,0.5-0.1,0.4-0.3c-0.1-0.4-0.2-0.8-0.3-1.1c0.1-0.1,0.2-0.3,0-0.3c0,0-0.1,0-0.1,0
				c-0.7-4,1.5-7.2,4.6-9.9c2.1-1.8,4.7-2.1,6.9-3.6C287.5,103,287.5,102.8,287.4,102.9z"/>
			<path class="st2" d="M311.1,109.1c-4.3,1.6-8.3,3-11.2,6.8c-1.7,2.3-3,5.3-2.6,8.2c-4.8,2-7.3,4.6-9.1,9.5
				c-1.7,4.9-1.3,10,2.1,14c0.1,0.1,0.3-0.1,0.3-0.3c-2.4-3.8-3.1-7.6-2.1-12c1.2-5.3,4-8.7,8.9-11.1c0.2,1,0.5,2,1.2,2.9
				c0.1,0.2,0.4-0.1,0.4-0.3c-1.8-4.6-0.3-8.7,2.9-12.3c2.5-2.8,6.2-3.7,9.4-5.4C311.2,109.3,311.3,109.1,311.1,109.1z"/>
			<path class="st2" d="M332.2,115c-3.7,1.7-6.3,3-8.7,6.4c-1.8,2.6-2.8,5.6-2.4,8.6c-7.1,5.4-4.6,16.9,0.5,22.9
				c0.1,0.1,0.3-0.1,0.2-0.2c-4.4-6.3-6.8-16.6-0.6-22.4c0.2,1,0.6,2,1.1,3c0.1,0.2,0.4-0.1,0.3-0.2c-0.4-1.2-0.6-2.3-0.7-3.4
				c0,0,0,0,0.1,0c0.1-0.1,0.1-0.3-0.1-0.2c-0.2-3.4,1-6.4,3.3-9.4c1.9-2.5,4.6-3.2,7-4.9C332.3,115.1,332.3,115,332.2,115z"/>
			<path class="st2" d="M358.5,119.2c-4.7,2.3-7.4,10.3-5.3,15.2c-2.6,2.6-4.1,6-4.7,9.7c-0.6,3.7,0,10.1,3.1,12.7
				c0.1,0.1,0.3-0.1,0.2-0.2c-4.6-6.6-3.2-15.8,1.7-21.7c0.1,0.1,0.1,0.2,0.2,0.3c0.1,0.2,0.4-0.1,0.4-0.2c0-0.2-0.1-0.4-0.1-0.6
				c0.4-0.4,0.8-0.8,1.2-1.2c0.1-0.1,0-0.3-0.2-0.2c-0.4,0.3-0.8,0.6-1.1,0.9c-1-5.3,0.3-11.1,4.8-14.5
				C358.6,119.3,358.6,119.1,358.5,119.2z"/>
			<path class="st2" d="M396,131.8c1.8-6.3-2.3-15.5-8.3-17.9c-0.1,0-0.3,0.2-0.2,0.2c5.1,3.4,9.3,10.8,8.1,17.2
				c-0.2-0.2-0.5-0.5-0.7-0.7c-0.1-0.1-0.3,0.1-0.2,0.2c0.3,0.4,0.5,0.8,0.8,1.1c-0.1,0.5-0.3,1.1-0.5,1.6c-0.1,0.2,0.2,0.2,0.3,0.1
				c0.2-0.4,0.4-0.8,0.5-1.2c2.1,3.3,2.8,6.2,2.5,10.5c-0.3,4.4-1.7,8.6-3.8,12.5c-0.2,0.3,0.2,0.3,0.3,0.1
				C398.9,148.6,401.6,138.4,396,131.8z"/>
			<path class="st2" d="M419.2,126c1.2-5.7-1-13-6.9-14.4c-0.1,0-0.3,0.2-0.2,0.2c6.6,2.8,8.4,11.8,5.4,17.8
				c-0.1,0.2,0.2,0.2,0.3,0.1c0.6-1,1.1-2.1,1.4-3.3c4.7,1.9,5.9,6.8,6.1,11.4c0.2,6.1-2.7,11.5-6.6,16c-0.2,0.2,0,0.4,0.2,0.2
				c4.3-4.5,6.9-10.2,7.2-16.4C426.2,133.1,424.5,126.6,419.2,126z"/>
			<path class="st2" d="M457.5,118.7c-2-4.8-4.9-7.9-9.6-9.3c-0.4-3.1-1.6-5.8-3.8-8.2c-1.5-1.6-3.4-2.9-5.4-3.8
				c-2.2-1-4.4-0.6-6.7-0.9c-0.1,0-0.2,0.2-0.1,0.2c1.8,0.5,3.7,0.4,5.5,0.9c2.1,0.6,3.9,2,5.6,3.4c2.4,2.1,3.8,5.1,4.5,8.1
				c-0.5-0.1-1-0.3-1.5-0.4c-0.1,0-0.2,0.2-0.1,0.2c0.6,0.2,1.2,0.4,1.7,0.6c0.1,0.5,0.2,1.1,0.3,1.6c0,0.2,0.3,0,0.3-0.1
				c0-0.4-0.1-0.9-0.1-1.3c1.6,0.6,3.1,1.3,4.5,2.5c1.9,1.7,3.3,4.5,4.4,6.8c2.4,4.9,2.3,10.6,1.1,15.8c0,0.2,0.2,0.1,0.3-0.1
				C459.7,129.5,459.7,123.9,457.5,118.7z"/>
			<path class="st2" d="M464.4,93.7c0.4-4-0.7-7.8-3.5-11c-1.8-2-4.3-3.3-6.8-4.2c-2.9-1-5.5-0.3-8.4,0.2c-0.1,0-0.2,0.2-0.1,0.2
				c2.4-0.1,4.6-0.5,7,0.1c2.5,0.6,4.9,2,6.9,3.7c4,3.4,5,8.7,4.1,13.7c0,0.2,0.3,0.1,0.3-0.1c0.2-0.8,0.3-1.5,0.4-2.3
				c5.6-0.4,10.1,0.3,14.4,4.3c3.8,3.5,5.1,8.8,5.9,13.7c0.1,0.2,0.4,0,0.4-0.1C484.8,101.1,475.8,90.7,464.4,93.7z"/>
			<path class="st2" d="M498.1,74.8c-2-1.9-4.6-3-7.3-3.6c-0.8-0.2-6.7-0.9-7.2,0.3c0-0.1,0-0.1,0-0.1c-0.7-3.8-2.3-6.6-6.3-8.5
				c-5.4-2.7-11.6-2-17.2-0.7c-0.1,0-0.2,0.3,0,0.2c5-0.6,9.9-1.1,14.8,0.4c5.7,1.7,7.7,5.7,8.7,11.2c0,0.2,0.3,0,0.3-0.1
				c0-0.7-0.1-1.4-0.2-2.1c5.2-0.3,9.6,0.1,13.8,3.6c4.3,3.7,6.8,9.1,7.8,14.6c0,0.2,0.3,0,0.3-0.1
				C505.1,84.1,502.3,78.9,498.1,74.8z"/>
			<path class="st2" d="M513.6,52.1c-4.9-2.1-10.2-1.9-14.7,0.3c-1.8-4.4-6.4-6.5-10.8-7.5c-5.2-1.2-12.3-1.8-17.3,0.6
				c-0.2,0.1-0.2,0.4,0,0.3c4.9-2,10.8-1.2,15.8-0.5c5,0.7,9.2,3,11.7,7.3c-1.4,0.7-2.6,1.6-3.8,2.8c-0.1,0.1,0,0.2,0.1,0.1
				c1.3-1,2.6-1.8,4-2.4c0.1,0.2,0.2,0.4,0.3,0.6c0.1,0.2,0.3,0,0.3-0.2c-0.1-0.2-0.1-0.4-0.2-0.6c4.4-1.9,9.1-1.9,14.1-0.1
				c6.1,2.2,10.7,7.9,10.3,14.5c0,0.2,0.2,0.1,0.2-0.1C524.8,60.3,519.8,54.7,513.6,52.1z"/>
		</g>
		<path class="st3" d="M532.2,34c-7.9-4-13.6-2.5-18.2-1.2c-2.9,0.8-5.4,1.6-8.1,1.1c-6.7-1.3-14.7-7.7-24.3-4.3
			c-9.7,3.4-9.9,12.7-9.8,15.8c0,0-13.7,5.6-11.3,16.9c0,0-12.3,3-13.3,16.4c0,0-1.4,0.2-3.3,1c2.3-0.5,4.7-0.1,6.7,1.7
			c4.1,3.7,3.5,8.4-0.1,12.1c-3.1,3.2-8.5,4.9-11.9,1.1c-3.3-3.6-2.5-8,0-11.6c-2.9,2.7-5.5,6.9-5.7,13.7c0,0-1.3,0.1-3.2,0.6
			c2.1,0.1,4,0.9,5.4,2.7c4.4,5.7-0.6,11.6-6,14.2c-2.6,1.2-5.7,2.2-8.5,1.1c-2.3-0.9-3.9-2.8-3.7-5.4c0.2-2.8,1.7-5.9,3.8-8.3
			c-0.2,0-0.4-0.3-0.1-0.5c-3.5,2.3-6.5,5.9-7.2,11.2c0,0-3.1-0.8-7.3-1.2c0.2,0.1,0.5,0.2,0.7,0.4c1.4,0.8,3.7,2.7,2.6,4.6
			c-1.2,2.1-3.8,3.3-6.1,3.6c-2.7,0.4-5.6,0.3-8-1.2c-1.9-1.1-4-2.6-4.2-5c0-0.4,0-0.7,0.2-1c-1.1,0.4-2.2,1-3.1,1.6
			c0,0-4.8-0.6-10.8-0.4c2.2,0.6,4.1,1.7,5.6,3.3c4.5,5.1-2.5,8.1-6.6,9.1c-2.8,0.6-5.7,1-8.6,1.1c-2.9,0.1-6.1,0.1-8.7-1.3
			c-2.7-1.5-2.2-4.8-0.3-6.7c0.1-0.1,0.2-0.2,0.3-0.3c-0.6,0.4-1.1,0.9-1.7,1.4c0,0-4.7-5.1-12.6-6.4c1.9,0.8,3.8,2.1,4.2,4
			c1.3,5.7-5.5,7.9-9.9,8.1c-2.5,0.1-5-0.2-7.5-0.7c-1.9-0.4-4.3-1-5.3-2.9c-0.9-1.7,0.6-4,1.9-5.1c0.9-0.8,2-1.5,3.1-2.1
			c-0.6-0.8-3.3-3.9-7.7-5.6c2.8,3.2-0.3,7.5-3.8,8.9c-2.8,1.1-5.9,1.4-8.9,1c-2.1-0.2-5.8-0.6-6.8-2.9c-1.5-3.4,2.3-5.6,5.7-7
			c-0.4-1.1-2.2-4.5-8.1-6.1c0.9,0.7,1.3,1.7,1.1,3c-0.3,2.1-2.3,3.3-4,4.2c-2.4,1.3-5,2.3-7.7,2.3c-2.4,0-9.9-0.5-10-4.1
			c-0.1-3.1,2.7-4.5,5.4-5.5c-0.4-0.5-1.7-2-4.2-3.3c-0.4,0.9-1.3,1.7-1.9,2.3c-2.3,2.2-5.2,3.9-8.4,4.4c-3.8,0.6-8.2,0-11-2.8
			c-0.9-0.9-1.2-1.9-1.1-2.8c-2.6,1.9-4.1,5-2.8,9.3c0,0-11.8,0.9-16.1,9.8c-4.3,8.9,1.3,22.6,23.9,20.8c0,0,5.4,9.1,24.9,5.8
			c0,0,11.3,15.1,31,4.6c0,0,2.3,3.1,6.8,5.5c4.5,4,19.5,2.5,23.4-0.4c5.3,7.1,28.3,10.1,43.5-0.5c-0.2,0.3,15.7,7.1,26.4-5
			c0.6-0.7,1.6-2.8,2.8-4.7c0,0,8.2,7.5,24.4,0.4c4.9-2.2,8-6.1,10.1-11.8l0.3-0.5c0,0,22.4-0.3,26.8-23.1c0,0,18.1,2.5,20.3-22.3
			c0,0,15.4-1.6,17.8-21.7c0,0,5.4,1,12.6-3.6C539.4,61.5,546.3,41.1,532.2,34z M256.5,128.5c-3.8,2.3-10.3,1.6-13.1-2.1
			c-2.6-3.3-0.9-7,1.7-9.6c0.8-0.9,1.7-1.6,2.7-2.1c0.2-0.1,0.4-0.2,0.6-0.3c0.1-0.1,0.2-0.1,0.3,0c3.6-1.4,7.9-0.4,10.6,2.6
			C262.6,120.5,260.2,126.3,256.5,128.5z M282.9,131.1c-0.6,5.2-8.1,5.3-11.8,4c-2.9-1-5.2-2.7-5.6-5.9c-0.3-2.3,0.5-5,2.5-6.2
			c1.9-1.8,5-1.6,7.5-0.4C278.5,124,283.3,127.2,282.9,131.1z M309.7,138.7c-0.1,5.8-7.9,6.7-12,5.3c-5.4-1.8-10.2-6.8-6.5-12.4
			c0.1-0.2,0.3-0.2,0.4-0.1c2.1-1.4,6.3-0.7,8.1-0.2C303.1,132.1,309.8,134.3,309.7,138.7z M341,146.8c-3,3.3-9.3,3.4-13.3,2.6
			c-5-1-8.8-4.3-8.6-9.4c-0.1-0.2-0.1-0.5-0.1-0.7c0.3-4.2,10.6-1.2,13-0.8c3,0.5,7.4,1,9.3,3.7C342.4,143.6,342.3,145.4,341,146.8z
			 M380.9,150.5c-4.7,2.5-10.4,3.6-15.7,3.4c-2.1-0.1-4.2-0.3-6.2-0.8c-1.8-0.5-4-1.4-5.3-2.7c-1.1-1.1-1.7-2.6-2-4.1
			c-0.2-1.3-0.5-3.1,0.8-4c2.1-1.5,5.2-1.2,7.7-1.1c5.3,0.4,10.5,0.3,15.8,0.8c2.6,0.2,7.7,0.7,8.2,4.1
			C384.4,148.3,382.5,149.7,380.9,150.5z M418.7,139c-0.5,2.2-2.2,3.9-4.1,5.1c-2.1,1.3-4.5,2.3-7,2.9c-1.7,0.4-4.1,0.9-5.7-0.3
			c-1.7-1.2-1.8-3.8-1.1-5.6c0.6-1.7,1.8-2.8,3.3-3.6c3.1-2.6,7.9-3.6,11.7-2.8C418,135.1,419.2,136.7,418.7,139z M447.6,134.3
			c-4.2,4.7-12.2,6.4-16.7,1.1c-4.9-5.8,4.2-9.7,8.9-11.8c0.2-0.1,0.3-0.2,0.5-0.3c1.9-1.1,4.4-2.6,6.7-2.3
			C453.1,121.6,450.1,131.4,447.6,134.3z M476.7,34.3c2.3-3.8,8.1-5.1,12.2-4.1c2.1,0.5,4.7,2,3.9,4.6c-0.7,2.4-3,4.1-5.2,5.1
			c-2.8,1.2-10.1,3.4-12.1-0.1C474.3,37.9,475.1,35.9,476.7,34.3z M452.7,74.9c-2.3-2.3-0.3-5.5,2.1-7.6c1.4-1.4,3-2.6,5.1-3
			c2-0.4,5.7-1,7.4,0.7c3.3,3.3-0.5,8-3.5,9.9C460.9,76.9,455.4,77.7,452.7,74.9z M472.8,110c0,3-0.8,5.9-2.4,8.4
			c-1.1,1.8-3.1,4.5-5.6,4.1c-2.5-0.3-4.2-2.6-5.1-4.8c-1-2.3-1.8-4.8-1.1-7.3c0.2-0.7,0.6-1.4,1-1.9c0.6-1.4,1.5-2.6,2.8-3.8
			c1.8-1.6,4.3-3.2,6.7-2.2C472,103.7,472.8,107.5,472.8,110z M465.2,57.7c-3.2-3.9,2.9-8.4,5.8-10.2c0.2-0.1,0.3,0,0.4,0.1
			c3.1-1.6,6.7-1.9,9.5,0.9c3.3,3.3-0.7,8-4,9.3C474,59,467.7,60.7,465.2,57.7z M494,99.7c-1.6,1.8-4.4,4.6-7.1,3.3
			c-2.4-1.2-3.8-3.8-4.8-6.1c-1.1-2.6-2.4-5.3-2-8.2c0.3-2.8,2.3-5.2,4.2-7.3c1.1-1.5,2.5-2.7,4.4-3c2.9-0.4,5.7,1,7.2,3.5
			C499.2,87.3,498.2,95.2,494,99.7z M513.8,70.8c-2.3,5.5-8.8,7.5-13.2,2.8c-4.9-5.2-4.6-12.4,0.4-17.4c0.1-0.1,0.3-0.2,0.4-0.1
			c0.7-0.6,1.5-1,2.5-1.2c2.5-0.4,5.2,0.4,7.1,2.2C514.6,60.4,515.8,66.2,513.8,70.8z M528.9,49.5c-0.8,1.9-2.4,4.1-4.8,3.4
			c-1.6-0.4-3-1.4-4.4-2.2c-1.7-1-3.5-1.6-5.3-2.2c-2.2-0.7-5.7-1.8-5.7-4.8c0.1-1.9,0.9-3.6,2-5.2C516,28.3,533.5,38.4,528.9,49.5z
			"/>
		<g>
			<g>
				<path class="st16" d="M502.8,33.1c-0.2,0.3-12.7,29.3-39.4,58.8c-13.7,15.2-27.2,23.7-36.1,28.2c-9.6,4.9-16.2,6.2-16.2,6.2
					c0,0-0.1,0-0.1,0c-20.8,4.8-69.4,15.9-139-14.2c-3.4-1.5-6.1-2.6-8.2-3.4c-9-3.2-16.3-4.6-21-5.2c-4.6-0.2-10,0.3-10.8,4.2
					c0.2,0.1,0.4,0.1,0.7,0.1c0.1,0,14.4,1.9,29,7.1c1.9,0.7,4.5,1.8,7.8,3.2c16.7,7.2,50.9,22.1,99.1,20.4
					c13.6-0.4,28.2-2.2,43.9-5.8c0.8-0.2,7.6-1.6,17.6-6.7c9.5-4.8,23.8-13.8,38.3-29.8c27.4-30.3,40.6-61,41.1-62.2
					C510,32.5,505,30.2,502.8,33.1z"/>
				<path class="st17" d="M368.4,138.9c-48.3,1.6-82.7-13.3-99.3-20.5c-3.3-1.4-5.8-2.5-7.7-3.2c-14.6-5.1-28.7-7-28.9-7
					c-0.3,0-0.6,0-0.8-0.1l-0.2-0.1l0.1-0.2c0.6-3.3,4.4-4.8,11.1-4.4c4.6,0.6,12,1.9,21.1,5.2c2.1,0.8,4.8,1.9,8.2,3.4
					c33.2,14.4,66,21.2,97.3,20.1c18.6-0.6,32.4-3.8,41.5-5.9c0,0,0.1,0,0.1,0c0.3-0.1,6.7-1.4,16.2-6.2c8.9-4.5,22.4-13.1,36-28.2
					c22.4-24.7,34.8-49,39.1-58.2c0.2-0.5,0.3-0.5,0.3-0.6c0.9-1.2,2.2-1.5,3.1-1.5c1.5,0,3.1,0.6,3.7,1.6c0.3,0.4,0.4,0.9,0.2,1.3
					c-1.4,3.3-14.5,32.8-41.2,62.3c-14.5,16-28.9,25.1-38.4,29.9c-10.1,5.1-16.9,6.5-17.7,6.7C397.7,136.5,382.9,138.4,368.4,138.9z
					 M232.2,107.6c0.1,0,0.3,0,0.4,0c0.1,0,14.4,1.9,29,7c1.9,0.7,4.5,1.8,7.8,3.2c16.5,7.2,50.9,22,99,20.4
					c14.4-0.5,29.1-2.4,43.8-5.8c0.7-0.2,7.5-1.6,17.5-6.6c9.4-4.8,23.8-13.8,38.2-29.8c26.6-29.4,39.6-58.9,41-62.1
					c0.1-0.2,0.1-0.5-0.1-0.7c-0.5-0.7-1.8-1.4-3.3-1.3c-0.8,0-1.9,0.3-2.7,1.3c0,0-0.1,0.2-0.2,0.4c-4.3,9.3-16.8,33.6-39.3,58.4
					c-13.7,15.2-27.3,23.8-36.2,28.3c-9.5,4.8-16.1,6.2-16.3,6.3l-0.1,0c-9.2,2.1-23,5.3-41.6,5.9c-31.4,1.1-64.3-5.7-97.6-20.2
					c-3.4-1.4-6-2.6-8.2-3.4c-9.1-3.2-16.4-4.6-21-5.1c-0.9,0-1.9-0.1-2.7,0C235.4,104,232.8,105.3,232.2,107.6z"/>
			</g>
			<g class="st8">
				<path class="st9" d="M502.8,33.1c-1.4,3.8-9.7,25.1-19.5,39.7c-10.8,16-27.5,35.7-51.8,49.1c-24.3,13.4-66.3,13.8-66.3,13.8
					c-52.3,0.6-72.3-11.1-92.5-19.6c-20.2-8.5-31.1-8.2-33-9.6c-1.6-1.3,1.1-2.5,1.7-2.8c-4.3-0.1-8.8,0.7-9.6,4.3
					c0.2,0.1,0.4,0.1,0.7,0.1c0.1,0,14.4,1.9,29,7.1c1.9,0.7,4.5,1.8,7.8,3.2c16.7,7.2,50.9,22.1,99.1,20.4
					c13.6-0.4,28.2-2.2,43.9-5.8c0.8-0.2,7.6-1.6,17.6-6.7c9.5-4.8,23.8-13.8,38.3-29.8c27.4-30.3,40.6-61,41.1-62.2
					C510,32.5,505.1,30.2,502.8,33.1z"/>
			</g>
			<path class="st18" d="M246.1,105.3c0,0,1,0.2,2.9,0.7c1.9,0.5,4.7,1.2,8.1,2.2c3.5,1,7.7,2.3,12.4,4.2c4.7,1.9,9.8,4.4,15.6,6.7
				c5.8,2.3,12.1,4.6,18.9,6.6c6.8,2,14.1,3.6,21.8,4.8c7.7,1.2,15.6,1.9,23.8,2.4c8.1,0.4,16.4,0.4,24.7,0
				c8.2-0.4,16.5-1.3,24.4-2.8c8-1.5,15.7-3.6,22.9-6.4c3.6-1.4,7.1-3,10.3-4.7c3.2-1.8,6.4-3.7,9.2-5.8c5.6-4.4,10.6-8.8,15.2-13.1
				c4.5-4.3,8.5-8.3,11.9-12c0.9-0.9,1.7-1.8,2.4-2.7c0.8-0.9,1.5-1.7,2.3-2.5c1.4-1.7,2.7-3.2,3.9-4.6c1.1-1.4,2.1-2.7,3-3.8
				c0.9-1.1,1.6-2.1,2.2-2.9c1.1-1.6,1.8-2.4,1.8-2.4s-0.6,0.8-1.7,2.4c-0.6,0.8-1.2,1.8-2.1,2.9c-0.9,1.1-1.8,2.4-2.9,3.9
				c-1.2,1.4-2.4,3-3.8,4.7c-0.7,0.8-1.5,1.7-2.2,2.6c-0.8,0.9-1.6,1.8-2.4,2.8c-3.4,3.8-7.3,7.9-11.8,12.2
				c-4.5,4.3-9.5,8.8-15.1,13.3c-2.9,2.2-6,4.1-9.3,5.9c-3.3,1.8-6.8,3.4-10.4,4.9c-7.3,2.9-15.1,5-23.1,6.6
				c-8,1.5-16.3,2.5-24.6,2.9c-8.3,0.4-16.6,0.4-24.8,0c-8.2-0.4-16.2-1.2-23.9-2.5c-7.7-1.2-15-3-21.9-5.1
				c-6.8-2.1-13.2-4.4-18.9-6.8c-2.9-1.2-5.6-2.4-8.2-3.6c-2.6-1.2-5-2.3-7.3-3.3c-4.7-2-8.8-3.3-12.3-4.4
				C250.1,106.3,246.1,105.3,246.1,105.3z"/>
		</g>
	</g>
	<g>
		<path class="st0" d="M387.2,399.7c-3.9-0.7-7.8-1.4-10.9-4c-3.2-2.6-5.3-7.6-5.6-11.6c0-0.1-0.2,0-0.2,0.1
			c-0.3,4.3,1.7,8.4,4.3,11.7c2.8,3.5,8.1,4,12.3,4.2C387.2,400.1,387.5,399.7,387.2,399.7z"/>
		<path class="st0" d="M381.2,426.8c-0.5-5.2,1.5-10.8-1.9-15.4c-0.1-0.1-0.2,0.1-0.2,0.2c1.5,3,1,6.3,0.7,9.5
			c-0.3,3-0.2,5.9,0.2,8.9c0.8,6.7,3.9,13.4,7.1,19.3c0.1,0.2,0.3,0,0.3-0.2C384.4,442,382,434.5,381.2,426.8z"/>
		<path class="st0" d="M412.9,366.9c0.9-0.7,1.8-1.3,2.6-2c-5.2,2.3-12,5-17.4,2.9c1.4,1.3,3.6,1.7,5.9,1.6
			C406.9,369.2,410.1,368.2,412.9,366.9z"/>
		<path class="st0" d="M226.3,113.5c-5.4,4.4-6.3,12.8-4,19.1C221.4,126.1,222.6,118.9,226.3,113.5z"/>
		<path class="st0" d="M220.2,147.6c-0.9-2.7-0.7-5.6,0.6-8.1c-3.6,3.9-2.7,9.4,1.9,12.8C221.5,150.7,220.7,148.8,220.2,147.6z"/>
		<path class="st0" d="M215.5,152.9c-3.9,5.8-2.5,13.1,2.4,17.9C214.9,165.2,213.3,158.5,215.5,152.9z"/>
		<path class="st0" d="M211.4,175.2c-1.7,5.9,0,12.5,4.7,16.6C212.7,187.1,210.6,181,211.4,175.2z"/>
		<path class="st0" d="M209,205.6c-0.2-1-0.4-1.9-0.5-2.9c-0.3-2.2-0.3-4.4,0.1-6.5c-1.9,5.2-1.7,10.1,1.8,14.8c0,0,0.1,0.1,0.1,0.1
			C209.9,209.3,209.4,207.5,209,205.6z"/>
		<path class="st0" d="M210.4,226.2c0,2.2,0.3,4.1,1.6,6.4c1.3,2.3,3.4,3.6,5.6,4.9c0.1,0,0.2,0,0.3-0.1
			C214.5,234.5,211.7,230.5,210.4,226.2z"/>
		<path class="st0" d="M219.9,261.7c-1.3-0.7-2.6-1.6-3.7-2.7c-1.1-1.1-2-2.5-2.7-3.9c-0.5-1-0.7-2-0.9-3c-0.2-0.7-0.3-1.4-0.5-2
			c0,1.8-0.2,3.1,0.3,4.8c0.5,1.6,1.5,3.1,2.5,4.4c2.1,2.7,5.6,4.3,9,4.6C222.4,263.3,221.1,262.6,219.9,261.7z"/>
		<path class="st0" d="M230.2,292c-0.1-0.1-0.3-0.2-0.4-0.3c-3.5-2.1-6.5-5-8.3-8.5c-0.6-1-1.1-1.9-1.5-3c1,8.2,8,13.8,15.8,14.8
			C233.8,294.3,231.9,293.2,230.2,292z"/>
		<path class="st0" d="M245.6,118.3c1.2-1.5,2.7-2.6,4.5-3.2c0.3-0.2,0.7-0.4,1-0.6c-3.4,0.2-5.8,1.9-7.1,5.1
			C244.6,119.1,245.1,118.7,245.6,118.3z"/>
		<path class="st0" d="M266.7,128.7c0-1.5,0.4-2.9,1.4-4c0.7-0.8,1.6-1.3,2.7-1.7c0.4-0.3,0.9-0.5,1.3-0.8c-1.6,0-3.1,0.5-4.3,1.6
			c-1.6,1.6-2,3.6-1.5,5.8c0,0.2,0.2,0.1,0.3,0.1C266.6,129.3,266.6,129,266.7,128.7z"/>
		<path class="st0" d="M298.1,131.5c-2.7-0.8-6.6,0-7.5,3c0,0.2,0.2,0.1,0.2,0c1.4-2.5,4.6-2.6,7.1-2.7
			C298.1,131.9,298.4,131.6,298.1,131.5z"/>
		<path class="st0" d="M320,139.9c0.6-1,1.9-1.4,3.3-1.5c0.4-0.1,0.7-0.1,1.2-0.1c2,0,3.9,0.3,5.8,0.6c-2.5-0.7-10.5-3.3-10.8,1.3
			C319.7,140.1,319.9,140,320,139.9z"/>
		<path class="st0" d="M359,142c0.8-0.1,1.6-0.2,2.4-0.3c-3.9-0.2-8.3,0-9.3,2.5C353.9,142.7,356.8,142.4,359,142z"/>
		<path class="st0" d="M405,137.8c-2.4,1.5-4.7,3.7-3.7,6.5C401.9,141.8,403.2,139.6,405,137.8z"/>
		<path class="st0" d="M435,126.6c-2.9,1.7-6,5.1-3.4,8c0,0,0,0,0,0C430.7,131.8,432.6,128.9,435,126.6z"/>
		<path class="st0" d="M460.6,112.1c0.1-1.4,0-3,0.6-4.3c0.1-0.2,0.2-0.5,0.3-0.7c-2.2,2.8-2.8,6.8-0.8,9.9
			C460.5,115.3,460.5,113.7,460.6,112.1z"/>
		<path class="st0" d="M483,94.5c-0.5-1.9-0.8-3.8-0.7-5.6c0-0.8,0-1.6,0.2-2.4c0.1-0.8,0.3-1.6,0.5-2.3c-2.7,3.6-2.2,8.2-0.1,12.1
			C483.1,95.7,483,95.1,483,94.5z"/>
		<path class="st0" d="M499.6,62.3c0-0.1,0.1-0.2,0.1-0.3c0-0.5,0-1,0.1-1.5c-2,4.1-2.5,9.3,1.8,12.1c0.1,0,0.2,0,0.3,0
			C500.5,69.3,498.9,65.9,499.6,62.3z"/>
		<path class="st0" d="M513.6,46.4c-1-0.7-2.1-1.6-2.7-2.7c-0.3-0.5-0.5-1-0.6-1.6c0-0.1,0-0.2,0-0.3c-0.7,3,2.1,5,4.8,5.5
			C514.6,47,514.1,46.7,513.6,46.4z"/>
		<path class="st0" d="M511.6,119.4c0.8-1.3,1.7-2.6,2.6-3.8l0,0c-2.2,1.1-4.5,4.4-4.6,7.1C510.1,121.4,511.1,120.2,511.6,119.4z"/>
		<path class="st0" d="M514.1,98.2c1.3-1.2,2.6-2.4,4.1-3.4c0-0.1-0.1-0.1-0.2-0.1c-3.3,2-6.8,3.8-7.8,7.8
			C510.9,100.8,512.9,99.3,514.1,98.2z"/>
		<path class="st0" d="M525.3,78.7c-0.4,0.9-0.7,1.7-0.8,2.7c0,1.3,0,2.7,1.3,3.3c0,0,0,0,0,0C525.3,82.9,525,80.7,525.3,78.7z"/>
		<path class="st0" d="M512.8,147.4c0.7-2,0.7-4,1.1-6c0.4-1.5,0.8-3,1.5-4.4c0.6-1.4,1.3-2.7,2.2-3.9c-3.7,3.9-5.9,8.6-5,14.1
			C512.6,147.3,512.7,147.4,512.8,147.4z"/>
		<path class="st0" d="M517.3,165.1c0.3-0.9,0.6-1.7,0.8-2.6c-2.7,4.2-5.6,10-3.3,14.9c0,0,0,0,0,0c0.2-1,0.2-2.2,0.3-3.1
			c0.1-1.3,0.2-2.5,0.4-3.8C515.8,168.7,516.5,166.9,517.3,165.1z"/>
		<path class="st0" d="M521.2,192.6c0-0.1-0.2-0.1-0.3,0c-2,3.5-4.4,10.1-0.4,13C518.3,201.6,519.5,196.8,521.2,192.6z"/>
		<path class="st0" d="M524.1,221.1c0,0.9,0.2,1.6,1,2.2c0.9,0.7,2.1,0.9,3.1,0.3c0.1-0.1,0.3-0.3,0.4-0.6
			C527,223,525.2,222.3,524.1,221.1z"/>
		<path class="st0" d="M529.8,238c-0.1,0.1-0.1,0.1-0.1,0.2c0.4,1.6,2.1,5.4,4.3,4.6c0.2-0.1,0.3-0.2,0.4-0.4
			C532.5,241.5,531,239.8,529.8,238z"/>
		<path class="st0" d="M526.1,253.1c-1,0.7-1.6,2.3-1.9,3.4c-1,3.6,0.1,7.4,1.7,10.7C525.3,263.9,524.5,257,526.1,253.1z"/>
		<path class="st0" d="M517.2,277.4c-3.2,2.6-2.5,7.5-1,10.9c0,0.1,0.1,0.1,0.2,0.2C515.7,284.8,515.6,280.9,517.2,277.4z"/>
		<path class="st0" d="M508.6,311c0.1-0.7,0.2-1.4,0.2-2.1c-0.6-3.3-1.5-7.2,0-10.2c0.1-0.4,0.1-0.7,0.3-1.1
			C505.2,301,506.8,306.8,508.6,311C508.6,311,508.6,311,508.6,311z"/>
		<path class="st0" d="M498.9,331.4c0.7-2.7,1.5-5.4,3.1-7.6c0.6-1.1,1.3-2,2.2-2.8c-4.8,2-6.8,8.7-6.8,13.5c0,0,0,0,0,0.1
			C498.2,333.7,498.6,332.5,498.9,331.4z"/>
		<path class="st0" d="M471.5,365.4c-1.9,2.3-3.6,4.9-3.9,7.9c0,0.2,0.1,0.3,0.2,0.3c0.3-0.3,0.6-0.7,0.9-1c0.9-1.9,1.5-3.9,2.5-5.8
			C471.3,366.4,471.4,365.9,471.5,365.4z"/>
		<path class="st0" d="M429.1,371.8c1.1-2.3,3.3-4.1,5.4-5.5c1.1-0.7,2.2-1.4,3.3-1.9c-2.2,0.6-4.1,1.5-6,3
			C430.6,368.4,428.9,369.9,429.1,371.8C429,371.7,429,371.7,429.1,371.8z"/>
		<path class="st0" d="M254.3,311.5c0.7-3.1,2.7-5.3,5.2-6.8c-1.6,0.4-3,1-4.2,2.2C254.1,307.9,253,310,254.3,311.5
			C254.2,311.4,254.3,311.4,254.3,311.5z"/>
		<path class="st0" d="M290.7,328.2c-1.5-1.4-2.3-3.3-2.5-5.3c-0.1,0-0.2,0.1-0.2,0.2c-0.6,1.4-0.7,2.7,0.1,4.1
			c0.7,1.3,2.2,2.3,3.7,2.1c0,0,0.1,0,0.1-0.1C291.5,328.8,291.1,328.5,290.7,328.2z"/>
		<path class="st0" d="M261.7,101.6c2.9-1.1,5.7-1.6,8.7-2c0.6-0.2,1.2-0.5,1.8-0.7c-3.7-0.2-7.6,0.4-10.7,2.6
			C261.6,101.5,261.7,101.5,261.7,101.6z"/>
		<path class="st0" d="M284.4,106.1c1.5-0.7,3.2-1.1,4.9-1.4c0.6-0.2,1.2-0.3,1.8-0.5c0.8-0.2,1.6-0.4,2.3-0.6
			c-3.3-0.3-7.7,0.4-10.2,2.6C283.6,106.3,284,106.2,284.4,106.1z"/>
		<path class="st0" d="M307.3,112.9c2.3-1.1,4.7-1.6,7.2-2.1c0.8-0.3,1.5-0.7,2.3-1c-3.8-0.1-7.6,0.9-10.5,3.2
			C306.6,113,306.9,112.9,307.3,112.9z"/>
		<path class="st0" d="M328.8,119c0.6-0.4,1.3-0.8,1.9-1.1c0.6-0.4,1.1-0.8,1.7-1.1c2.1-1.1,4.3-1.8,6.5-2.3c-3,0.2-5.8,0.9-8.4,2.3
			c-1,0.5-2.9,1.9-3.5,3.3C327.7,119.6,328.3,119.3,328.8,119z"/>
		<path class="st0" d="M369.3,115.8c-4.3,0.5-8.2,1.8-10.9,5.3c-0.2,0.3,0.1,0.5,0.3,0.3c3.4-2.4,6.7-4,10.6-5.4
			C369.4,116,369.5,115.8,369.3,115.8z"/>
		<path class="st0" d="M421.6,102.9C421.6,102.8,421.6,102.8,421.6,102.9c0.1-0.1,0.1-0.2,0.1-0.2c0.1-0.2,0.2-0.3,0.3-0.5
			c0.1-0.1,0.1-0.2,0.2-0.3c0.2-0.3,0.5-0.6,0.7-0.9c0,0,0,0,0,0c-3,1-4.5,5.4-4.5,8.2C419.7,107.1,420.3,104.9,421.6,102.9z"/>
		<path class="st0" d="M440,83.3c-2.1,2.3-3.1,5.6-1.4,8.4c0,0,0.1,0.1,0.1,0.1C438.4,88.9,438.7,85.9,440,83.3z"/>
		<path class="st0" d="M453.8,70.2c0.2-0.4,0.4-0.9,0.6-1.3c-0.5,0.5-0.9,1-1.3,1.7c-0.3,0.7-0.4,1.6-0.2,2.3
			C453,72,453.5,71,453.8,70.2z"/>
		<path class="st0" d="M467.1,51.9c-1.2,1.4-2.2,3.1-1.1,4.6c0.1,0.2,0.3,0.2,0.5,0.1C466.2,55,466.4,53.3,467.1,51.9z"/>
		<path class="st0" d="M476.6,38.4c0.2-0.5,0.4-1,0.6-1.4c0.4-1.1,0.9-2.1,1.6-3c0.5-0.7,1.1-1.3,1.7-1.8c-1.3,0.7-2.8,1.6-3.5,2.9
			C476.5,35.9,475.9,37.6,476.6,38.4z"/>
	</g>
</g>
</svg>
