<?xml version="1.0" encoding="utf-8"?>
<!-- Generator: Adobe Illustrator 24.2.3, SVG Export Plug-In . SVG Version: 6.00 Build 0)  -->
<svg version="1.1" id="Layer_1" xmlns="http://www.w3.org/2000/svg" xmlns:xlink="http://www.w3.org/1999/xlink" x="0px" y="0px"
	 viewBox="0 0 750 500" style="enable-background:new 0 0 750 500;" xml:space="preserve">
<style type="text/css">
	.st0{fill:#952C38;}
	.st1{fill:#6D101C;}
	.st2{opacity:0.5;fill:#AF2C38;}
	.st3{fill:#AF2C38;}
	.st4{opacity:0.4;fill:#F5B8B1;}
	.st5{fill:#8C262D;}
	.st6{fill:#48040D;}
	.st7{fill:#85A85A;}
	.st8{fill:#B6E87F;}
	.st9{fill:#F4B6B0;}
	.st10{fill:#BC546A;}
	.st11{opacity:0.8;fill:#F4B6B0;}
	.st12{opacity:0.2;}
	.st13{fill:#F28C8F;}
	.st14{fill:#CF5A46;}
	.st15{fill:#BA443C;}
	.st16{opacity:0.4;fill:#EA7383;}
	.st17{opacity:0.5;fill:#EA7383;}
	.st18{fill:#FFFFFF;}
	.st19{opacity:0.5;}
	.st20{fill:#EA7383;}
	.st21{fill:#CF5158;}
	.st22{fill:#6C101D;}
	.st23{fill:#A41D2C;}
	.st24{opacity:0.4;fill:#C05058;}
	.st25{fill:#AE2D38;}
	.st26{fill:#E1545B;}
	.st27{fill:#DF656C;}
	.st28{fill:#BB564E;}
	.st29{opacity:0.6;fill:#FFFFFF;}
</style>
<g>
	<g>
		<g>
			<path class="st0" d="M480.9,83.8c-2.9-10-6.7-20-13.3-27.7c-9.3-10.8-24.1-9.2-34.1-0.8c-10.4,8.7-13.5,22-11.1,35.2
				c1.9,10.5,9.9,16.5,17.6,23.8c9.3,8.9,6.3,28.1,16.2,36.5c11.3,9.7,20.7-3.9,25.4-12.9c6.9-13.2,5.6-28.8,2.2-42.8
				C482.9,91.4,482,87.6,480.9,83.8z"/>
			<path class="st1" d="M464,154.1L464,154.1c-2.7,0-5.3-1.1-7.9-3.4c-5.1-4.3-6.8-11.5-8.4-18.6c-1.6-6.7-3.2-13.7-7.8-18
				c-1.1-1-2.1-2-3.2-3c-6.6-6-12.8-11.8-14.4-20.8c-2.6-14.3,1.5-27.1,11.2-35.2c5.2-4.3,11.6-6.8,17.7-6.8
				c6.5,0,12.2,2.7,16.5,7.7c5.6,6.5,9.7,15.1,13.3,27.8c1.1,3.8,2,7.6,2.9,11.2c4.3,17.7,3.6,31.7-2.2,42.8
				C477.8,145.2,471.6,154.1,464,154.1z M451.1,48.5c-6.1,0-12.5,2.5-17.6,6.8c-9.6,8.1-13.7,20.9-11.1,35.1
				c1.6,9,7.8,14.7,14.4,20.7c1,1,2.1,2,3.2,3c4.6,4.4,6.2,11.3,7.8,18.1c1.7,7,3.4,14.2,8.4,18.5c2.6,2.2,5.2,3.3,7.9,3.3
				c7.5,0,13.6-8.8,17.5-16.2c5.7-11,6.5-25,2.2-42.7c-0.9-3.6-1.8-7.4-2.9-11.2c-3.6-12.6-7.7-21.2-13.3-27.7
				C463.2,51.2,457.6,48.5,451.1,48.5z"/>
		</g>
		<path class="st2" d="M483.2,92.8c-2.3,1.3-4.7,2.5-7.1,3.7c1.2,10.9,2.2,22.2-0.9,32.8c-2.5,8.6-12.4,12.3-19.2,6
			c-4.3-3.9-5.6-11.2-6.4-16.6c-1.5-10.3-3.7-15.2-11.8-21.8c-6.5-5.3-11.4-10.4-12.6-19c-0.7-4.8,0.3-9.9,1.6-14.9
			c-4.9,8-6.2,17.7-4.4,27.4c1.9,10.5,9.9,16.5,17.6,23.8c9.3,8.9,6.3,28.1,16.2,36.5c11.3,9.7,20.7-3.9,25.4-12.9
			c6.9-13.2,5.6-28.8,2.2-42.8C483.6,94.3,483.4,93.5,483.2,92.8z"/>
		<g>
			<path class="st3" d="M483.8,95c-0.9-3.6-1.8-7.4-2.9-11.2c-2.9-10-6.7-20-13.3-27.7c-9.3-10.8-24.1-9.2-34.1-0.8
				c-0.3,0.3-0.7,0.6-1,0.9c3.2-0.5,6.5-0.1,8.9,2.5c2,2.3,3.6,4.5,4.1,7.6c1.1,7.5,4.3,11.2,9.3,16.7c7.9,8.7,12,21.9,16.9,32.3
				c3.5,7.5,5.9,15.6,4.2,24c-0.9,4.4-2.5,8.5-4.6,12c4.4-3.3,7.9-9,10.3-13.5C488.4,124.6,487.1,109,483.8,95z"/>
			<path class="st1" d="M471.3,151.4C471.2,151.4,471.2,151.4,471.3,151.4c-0.1,0-0.1-0.1-0.1-0.1c2.1-3.5,3.7-7.5,4.6-11.9
				c1.5-7.1,0.1-14.7-4.2-23.9c-1.3-2.7-2.4-5.5-3.7-8.4c-3.6-8.6-7.3-17.4-13.2-23.9c-5.3-5.7-8.3-9.3-9.4-16.7
				c-0.4-3-1.9-5.1-4.1-7.6c-1.6-1.8-3.8-2.7-6.5-2.7c-0.8,0-1.5,0.1-2.4,0.2c0,0-0.1,0-0.1,0c0,0,0-0.1,0-0.1
				c0.1-0.1,0.2-0.2,0.3-0.3c0.2-0.2,0.5-0.4,0.7-0.7c5.2-4.3,11.6-6.8,17.7-6.8c6.5,0,12.2,2.7,16.5,7.7
				c5.6,6.5,9.7,15.1,13.3,27.8c1.1,3.8,2,7.6,2.9,11.2c4.3,17.7,3.6,31.7-2.2,42.8C478.3,144.1,474.9,148.7,471.3,151.4
				C471.3,151.4,471.3,151.4,471.3,151.4z M434.8,55.9c2.7,0,5,0.9,6.6,2.7c2.2,2.5,3.7,4.7,4.1,7.7c1,7.4,4.1,10.9,9.3,16.7
				c5.9,6.5,9.7,15.3,13.3,23.9c1.2,3,2.4,5.8,3.7,8.4c4.3,9.2,5.6,16.9,4.2,24c-0.9,4.3-2.4,8.2-4.4,11.6c3.4-2.7,6.8-7.1,10-13.3
				c5.7-11,6.5-25,2.2-42.7c-0.9-3.6-1.8-7.4-2.9-11.2c-3.6-12.6-7.7-21.2-13.3-27.7c-4.3-5-9.9-7.6-16.4-7.6
				c-6.1,0-12.5,2.5-17.6,6.8c-0.2,0.2-0.5,0.4-0.7,0.6c0,0-0.1,0.1-0.1,0.1C433.4,55.9,434.2,55.9,434.8,55.9z"/>
		</g>
		<path class="st2" d="M476,109.9c-6.7-10.6-14-20.2-21.4-30.4c-3.7-5-4.9-9.4-7.1-15.1c-2.2-5.6-5-7.3-8.3-7.5
			c0.8,0.4,1.6,1,2.2,1.7c2,2.3,3.6,4.5,4.1,7.6c1.1,7.5,4.3,11.2,9.3,16.7c7.9,8.7,12,21.9,16.9,32.3c3.5,7.5,5.9,15.6,4.2,24
			c-0.9,4.4-2.5,8.5-4.6,12c4.4-3.3,7.9-9,10.3-13.5c4.3-8.3,5.4-17.5,4.8-26.6C484.1,115.8,480.8,117.6,476,109.9z"/>
		<path class="st4" d="M466.5,88.6c-3.9-4.7-8-9.2-10.8-14.7c-3.8-7.3-5.2-18.6-14.8-20.2c-0.2,0-0.5,0.4-0.2,0.5
			c9.5,2.6,11,17.1,15.5,24.6c1.8,3,4.3,5.6,6.6,8.1c3.9,4.2,6.8,8.5,9.6,13.6c0.2,0.3,0.7-0.1,0.6-0.4C471,96,469.4,92,466.5,88.6z
			"/>
	</g>
	<g>
		<g>
			<path class="st3" d="M332.8,57.7c-0.5-2.3-1.2-5.8-4.4-8.9c-1.3-1.3-2.2-2.6-2.8-3.6c-0.8-0.6-1.5-1.2-2.1-1.6
				c-6.7-4.5-19.5-3.6-40.9,1c-36.5,8.7-49.1,26.3-50,50.1c-0.9,23.8,11.8,62.3,11.8,62.3c3.9,13.6,1.1,20.6,9.1,17.9
				c1.4-0.5,2.7-1.1,4-1.8c3.8-4.9,11.4-14.8,16.4-22.2c6.9-10,13.5-24.1,34.7-30.3c12-3.5,19.1-4.4,23-4.6c-1.7-2.2-3.9-2.6-6-3.6
				c-2.3-1-3.2-2.5-0.4-4.2c2.8-1.8,4.6-1.6,6.7-5.6c2.1-4,3.5-4.9,3.8-11.7c0.3-6.9,3.1-8,2.8-11.1c-0.3-3.1-1.4-8.8-0.9-13.5
				C337.8,61.5,333.2,60,332.8,57.7z"/>
			<path class="st1" d="M250.6,176.2L250.6,176.2c-3.4,0-4-3.3-4.7-8.2c-0.4-2.9-1-6.5-2.2-10.8c-0.1-0.4-12.7-39-11.8-62.6
				c1-26.7,17.1-42.8,50.5-50.8c12.8-2.7,21.5-4,28.2-4c5.9,0,10.2,1,13.3,3.1c0.6,0.5,1.4,1,2.2,1.6l0.2,0.2
				c0.7,1.2,1.6,2.4,2.7,3.5c3.4,3.3,4.1,6.9,4.6,9.3c0.1,0.6,0.8,1.3,1.5,2.1c1.4,1.4,3.4,3.4,3,6.7c-0.3,3.4,0.2,7.4,0.6,10.5
				c0.1,1.1,0.3,2.1,0.3,2.9c0.1,1.5-0.4,2.7-1,3.9c-0.8,1.6-1.7,3.6-1.8,7.3c-0.3,5.6-1.3,7.5-2.7,9.9c-0.4,0.6-0.7,1.3-1.1,2.1
				c-1.6,3.2-3.2,3.9-4.9,4.8c-0.6,0.3-1.2,0.6-2,1.1c-0.9,0.6-1.4,1.1-1.4,1.5c0,0.2,0.2,0.8,1.8,1.5c0.5,0.2,1,0.4,1.4,0.6
				c1.7,0.7,3.4,1.4,4.9,3.2l0.8,1.1l-1.4,0c-3.8,0.1-10.8,1.1-22.8,4.6c-18.2,5.3-25.3,16.3-31.6,26c-0.9,1.4-1.8,2.7-2.7,4
				c-4.9,7.2-12.4,17-16.4,22.2l-0.2,0.2c-1.4,0.8-2.8,1.4-4.1,1.9C252.4,176,251.4,176.2,250.6,176.2z M310.5,41.3
				c-6.5,0-15.3,1.3-27.9,3.9C250,53,234.2,68.7,233.2,94.7c-0.9,23.4,11.6,61.7,11.7,62.1c1.3,4.4,1.8,8.1,2.3,11
				c0.8,5,1.2,7,3.4,7.1l0,0c0.7,0,1.5-0.2,2.6-0.5c1.2-0.4,2.5-1,3.7-1.7c4-5.2,11.4-14.9,16.3-22c0.9-1.3,1.8-2.6,2.6-4
				c6.1-9.4,13.7-21.1,32.4-26.6c10.7-3.1,17.5-4.2,21.6-4.5c-1-0.8-2.1-1.3-3.3-1.8c-0.5-0.2-1-0.4-1.5-0.6
				c-1.7-0.8-2.5-1.6-2.6-2.7c-0.1-1,0.6-1.9,2.1-2.8c0.8-0.5,1.5-0.8,2.1-1.1c1.7-0.8,2.9-1.4,4.3-4.2c0.4-0.8,0.8-1.5,1.2-2.1
				c1.4-2.4,2.3-4,2.5-9.3c0.2-4,1.2-6.2,2-7.8c0.6-1.2,1-2.1,0.9-3.2c-0.1-0.8-0.2-1.8-0.3-2.8c-0.4-3.2-0.9-7.2-0.6-10.8
				c0.3-2.7-1.3-4.2-2.6-5.5c-0.9-0.9-1.7-1.7-1.9-2.8c-0.5-2.2-1.2-5.6-4.2-8.6c-1.1-1.1-2.1-2.3-2.8-3.7c-0.8-0.6-1.4-1.1-2-1.5
				C320.2,42.2,316.1,41.3,310.5,41.3z"/>
		</g>
		<path class="st2" d="M332.8,57.7c-0.5-2.3-1.2-5.8-4.4-8.9c-1.3-1.3-2.2-2.6-2.8-3.6c-0.8-0.6-1.5-1.2-2.1-1.6
			c-4-2.7-10.1-3.4-18.8-2.7c0.2,0.1,0.4,0.2,0.6,0.4c7.1,5,10,14.6,9.6,22.9c-0.7,14.4-7.8,27.4-18,37.2c-5.2,5-11,9.4-16.7,13.9
			c-6.4,4.9-12.2,10.6-17.2,17.1c-2.4,3.2-4.5,6.5-6.7,9.8c-1.2,1.7-2.7,3.8-4.8,4.3c-4.5,1-8.7-1.9-11.7-5.1
			c2.4,9.3,4.6,15.8,4.6,15.8c3.9,13.6,1.1,20.6,9.1,17.9c1.4-0.5,2.7-1.1,4-1.8c3.8-4.9,11.4-14.8,16.4-22.2
			c6.9-10,13.5-24.1,34.7-30.3c12-3.5,19.1-4.4,23-4.6c-1.7-2.2-3.9-2.6-6-3.6c-2.3-1-3.2-2.5-0.4-4.2c2.8-1.8,4.6-1.6,6.7-5.6
			c2.1-4,3.5-4.9,3.8-11.7c0.3-6.9,3.1-8,2.8-11.1c-0.3-3.1-1.4-8.8-0.9-13.5C337.8,61.5,333.2,60,332.8,57.7z"/>
		<g>
			<g>
				<path class="st5" d="M336.9,120.3c-2.2-0.7-4.1-2.2-5.3-3.9c-0.1-0.1-0.1-0.2-0.2-0.3c-3.9,0.2-10.9,1.1-23,4.6
					c-1.3,0.4-2.5,0.8-3.6,1.2c-0.2,4-3.2,5.9-7.2,8.2c-4.3,2.4-7.4,9.1-11.5,16.4c-3,5.2-9.4,5.4-12.7,5.1
					c-5,7.3-12.3,16.8-16,21.6c6-3.4,10.7-9.2,14.3-12.5c4.3-4,10.6-8.2,13.4-11.6c2.9-3.4,9-4.7,12.6-8.4c3.6-3.7,7-6,17.1-8.6
					c12.4-3.1,25.7-5.8,27.4-9.2C340.1,122.2,338.3,121.3,336.9,120.3z"/>
				<path class="st6" d="M254.7,175.5l2.1-2.8c3.8-5,11-14.4,16-21.5l0.2-0.3l0.4,0c3.2,0.3,9.3,0,12.1-4.8c0.7-1.3,1.4-2.6,2.1-3.8
					c3.2-5.7,5.9-10.7,9.6-12.8c3.9-2.2,6.6-4,6.8-7.6l0-0.5l0.4-0.2c1.2-0.4,2.4-0.8,3.7-1.2c12.1-3.5,19.3-4.5,23.1-4.6l0.3,0
					l0.2,0.3c0.1,0.1,0.2,0.2,0.2,0.3c1.1,1.6,3,3,4.9,3.7l0.2,0.1c1.4,1,3.2,1.9,5.1,2.4l0.8,0.2l-0.4,0.7
					c-1.6,3.2-10.9,5.5-21.7,8.1c-2,0.5-4.1,1-6.2,1.5c-9.7,2.5-13.1,4.7-16.7,8.4c-1.8,1.9-4.3,3.2-6.7,4.4c-2.4,1.2-4.6,2.4-5.9,4
					c-1.7,2.1-4.6,4.4-7.7,6.8c-2,1.6-4.1,3.3-5.8,4.8c-0.9,0.9-2,1.9-3.1,3c-3.1,3.1-6.9,7-11.4,9.5L254.7,175.5z M273.7,152.3
					c-4,5.7-9.3,12.8-13.2,17.9c2.9-2.2,5.4-4.8,7.5-7c1.1-1.1,2.2-2.2,3.1-3.1c1.8-1.6,3.9-3.3,5.9-4.9c1.9-1.5,3.7-3,5.2-4.3
					C279.4,152.3,276,152.5,273.7,152.3z M305.5,122.4c-0.4,4-3.5,6-7.5,8.3c-3.4,1.9-6,6.7-9.1,12.3c-0.7,1.2-1.3,2.4-2.1,3.7
					c1.2-0.8,2.6-1.6,4.1-2.3c2.3-1.2,4.6-2.4,6.3-4.1c3.8-3.9,7.4-6.2,17.4-8.8c2.1-0.5,4.1-1,6.2-1.5c8.7-2.1,17.7-4.3,20.2-6.7
					c-1.6-0.6-3.2-1.4-4.4-2.3c-2.2-0.8-4.2-2.3-5.5-4.1c-3.8,0.2-10.8,1.2-22.4,4.5C307.6,121.7,306.5,122,305.5,122.4z"/>
			</g>
			<path class="st3" d="M336.9,120.3c-2.2-0.7-4.1-2.2-5.3-3.9c-0.1-0.1-0.1-0.2-0.2-0.3c-3.9,0.2-10.9,1.1-23,4.6
				c-1.3,0.4-2.5,0.8-3.6,1.2c-0.2,4-3.2,5.9-7.2,8.2c-4.3,2.4-7.4,9.1-11.5,16.4c-3,5.2-9.4,5.4-12.7,5.1c-5,7.3-12.3,16.8-16,21.6
				c6-3.4,10.7-9.2,14.3-12.5c4.3-4,10.6-8.2,13.4-11.6c2.6-3.1,7.9-4.5,11.5-7.4c0,0,0-0.1,0.1-0.1c2-5.6,7.5-9.9,12.1-13.3
				c6-4.4,12.7-8.3,20.1-4.4c2,1.1,2.9,2.4,3.1,3.9c5.3-1.5,9.3-3.1,10.2-4.9C340.1,122.2,338.3,121.3,336.9,120.3z"/>
			<g>
				<path class="st7" d="M275.3,152.4c-0.7,0-1.4,0-2-0.1l-1.2-0.1l1.1-1.6c0.9-1.3,1.7-2.6,2.6-4c5.6-8.7,12.6-19.5,28.7-25.4
					l1-0.4l0,1c-0.2,4.3-3.4,6.4-7.5,8.7l-0.7-1.2c3.5-2,6-3.6,6.7-6.5c-14.8,5.7-21.3,15.7-26.9,24.4c-0.8,1.2-1.6,2.5-2.4,3.6
					c3.4,0.1,8.4-0.6,10.9-4.9l1.2,0.7C284.1,151.4,279,152.4,275.3,152.4z"/>
			</g>
		</g>
		<g>
			<g>
				<path class="st3" d="M397.6,81.9C412.2,74.6,421,72,425.3,64c1-2.8,1-5.1,0.5-7.1c-2.3-8.9-38-16.5-64.8-19.1
					c-26.9-2.6-37.6,1.5-37.6,5.8c6.3,4.7,26.6,20,19.4,44.9c-5.7,16.3-8.1,22.5-9.1,25.4c2.6-0.5,5.4-2.7,10-4.8
					C350.8,106,379.4,91,397.6,81.9z"/>
				<path class="st1" d="M332.6,114.9l1.3-3.4c1.3-3.6,3.8-10.2,8.3-23.2C347,71.9,340.5,57,323,44.1l-0.3-0.2l0-0.4
					c0-4.5,8.7-7.3,23-7.3c4.6,0,9.7,0.3,15.3,0.8c23.9,2.3,62.8,9.6,65.4,19.6c0.6,2.4,0.4,4.9-0.5,7.5
					c-3.6,6.7-10.1,9.7-19.9,14.4c-2.5,1.2-5.2,2.5-8.2,3.9c-7.9,3.9-17.6,8.9-27,13.7c-11.8,6.1-23,11.8-27,13.6
					c-1.9,0.8-3.4,1.7-4.8,2.5c-2.1,1.1-3.7,2-5.3,2.4L332.6,114.9z M324.2,43.2c17.8,13.2,24.3,28.5,19.4,45.5
					c-4.6,13-7,19.7-8.3,23.2l-0.4,1c1.1-0.4,2.3-1.1,3.7-1.8c1.4-0.8,3-1.6,4.9-2.5c4-1.8,15.1-7.5,26.9-13.6
					c9.4-4.8,19.1-9.8,27-13.7c3-1.5,5.7-2.8,8.2-4c9.9-4.7,15.8-7.5,19.2-13.7c0.8-2.3,1-4.5,0.5-6.6c-2.1-7.9-34.9-15.8-64.2-18.6
					c-5.6-0.5-10.7-0.8-15.2-0.8C331.4,37.7,324.7,40.4,324.2,43.2z"/>
			</g>
			<path class="st2" d="M425.8,56.9c-1-3.6-7.5-7.1-16.7-10c0.6,0.4,1.1,0.8,1.7,1.2c3.2,2.5,6.6,5.9,5.9,10.3
				c-0.8,4.7-5.9,6.6-9.8,7.9c-7.4,2.5-15.2,5.1-22.2,8.8c-5.5,2.9-9.9,7.3-15.4,10.1c-4.2,2.1-9,3.2-12.5-0.7
				c-4.3-5,0-11.2,0.8-16.5c1.2-8.2-4.5-13.6-10.6-17.9c-3.2-2.3-8.1-5.6-6.5-10.2c0.4-1.1,1-2,1.7-2.7c-13.1,0.5-18.7,3.4-18.7,6.5
				c6.3,4.7,26.6,20,19.4,44.9c-5.7,16.3-8.1,22.5-9.1,25.4c2.6-0.5,5.4-2.7,10-4.8c7.1-3.2,35.8-18.3,53.9-27.3
				C412.2,74.6,421,72,425.3,64C426.3,61.2,426.3,58.8,425.8,56.9z"/>
			<g>
				<path class="st5" d="M397.6,81.9c-18.2,9.1-46.9,24.1-53.9,27.3c-4.6,2.1-7.4,4.2-10,4.8c0,0.1-0.1,0.2-0.1,0.3
					c-1,2.8,2.5,6.8,8.5,8.6c4.9-0.6,17.1-3.6,26.9-11.1c12.5-9.6,20.2-16.1,37.9-28.6c11.3-8,16.4-14.3,18.3-19.2
					C421,72,412.2,74.6,397.6,81.9z"/>
				<path class="st6" d="M342.1,123.5l-0.1,0c-4-1.2-7.4-3.5-8.6-6.1c-0.6-1.2-0.7-2.4-0.4-3.4l0.2-0.6l0.4-0.1
					c1.4-0.3,3-1.1,4.9-2.2c1.4-0.8,3-1.6,4.9-2.5c4-1.8,15.1-7.5,26.9-13.6c9.4-4.8,19.1-9.8,27-13.7c3-1.5,5.7-2.8,8.2-4
					c9.9-4.7,15.8-7.5,19.2-13.7l1.3,0.6c-2.2,5.8-8.4,12.4-18.5,19.5c-12.9,9.1-20.4,15-28.4,21.2c-3,2.4-6,4.7-9.5,7.4
					c-9.8,7.5-22.1,10.6-27.3,11.2L342.1,123.5z M334.3,114.6c-0.3,0.8,0,1.7,0.3,2.2c1.1,2.2,4,4.2,7.6,5.3
					c5.1-0.6,17-3.7,26.5-10.9c3.4-2.6,6.5-5,9.5-7.4c8-6.2,15.6-12.1,28.5-21.2c5.8-4.1,10.4-8,13.5-11.7
					c-3.6,2.7-8.2,4.9-14.1,7.7c-2.5,1.2-5.2,2.5-8.2,3.9c-7.9,3.9-17.6,8.9-27,13.7c-11.8,6.1-23,11.8-27,13.6
					c-1.9,0.8-3.4,1.7-4.8,2.5C337.3,113.3,335.7,114.2,334.3,114.6z"/>
			</g>
			<path class="st3" d="M397.6,81.9c-18.2,9.1-46.9,24.1-53.9,27.3c-4.6,2.1-7.4,4.2-10,4.8c0,0.1-0.1,0.2-0.1,0.3
				c-1,2.8,2.5,6.8,8.5,8.6c1.8-0.2,4.5-0.7,7.6-1.7c-2.6-0.4-4-1.9-3.4-5.4c0.7-4,6.8-6.5,9.8-8.3c6.8-4,13-8.5,20.3-11.7
				c7.3-3.2,14.8-6,22.3-8.9c2.3-0.9,4.6-1.8,6.9-2.8c0.4-0.3,0.9-0.6,1.3-0.9c11.3-8,16.4-14.3,18.3-19.2
				C421,72,412.2,74.6,397.6,81.9z"/>
		</g>
		<g>
			<g>
				<path class="st5" d="M327.3,111.8c-1.6-0.9-2.7-0.6-3.3-0.2c0.4,0.3,0.8,0.6,1.4,0.8c2.3,1.1,4.5,1.5,6.3,3.9
					c1.2,1.7,3.1,3.2,5.3,3.9c-2.6-1.9-3.9-4.2-3.3-6.1c0-0.1,0.1-0.2,0.1-0.4C331.6,115.2,329.8,113.3,327.3,111.8z"/>
				<path class="st6" d="M341.1,122.5l-4.4-1.5c-2.2-0.8-4.3-2.3-5.6-4.2c-1.2-1.7-2.7-2.3-4.5-3.1c-0.5-0.2-1-0.4-1.5-0.6
					c-0.6-0.3-1.2-0.6-1.6-0.9l-0.7-0.6l0.8-0.5c1.1-0.7,2.6-0.7,4,0.2c0.5,0.3,1,0.7,1.5,1c1.7,1.1,2.9,1.9,4.2,1.1l1.7-1.1
					l-0.8,2.3c-0.5,1.5,0.6,3.6,3,5.3L341.1,122.5z M331.3,114.9c0.3,0.3,0.6,0.7,0.9,1.1c0.3,0.4,0.7,0.8,1.1,1.2
					c-0.4-0.8-0.5-1.5-0.5-2.3C332.3,115.1,331.7,115,331.3,114.9z"/>
			</g>
			<g>
				<path class="st5" d="M325.6,45.2c0.6,1,1.4,2.3,2.8,3.6c3.2,3.2,4,6.7,4.4,8.9c0.5,2.3,5,3.8,4.6,8.5
					c-0.5,4.7,0.6,10.4,0.9,13.5c0.3,3.1-2.5,4.3-2.8,11.1c-0.3,6.9-1.7,7.7-3.8,11.7c-2.1,4-3.8,3.8-6.7,5.6
					c-2.1,1.3-2.1,2.5-1,3.4c0.7-0.4,1.8-0.7,3.3,0.2c2.5,1.5,4.3,3.4,6.5,2.1c1.1-3,3.5-9.2,9.1-25.4
					C349.4,66,333.4,51.2,325.6,45.2z"/>
				<path class="st6" d="M332.2,115L332.2,115c-1.3,0-2.6-0.8-3.9-1.7c-0.5-0.3-1-0.6-1.5-0.9c-1-0.6-1.9-0.7-2.6-0.2l-0.4,0.3
					l-0.4-0.3c-0.7-0.6-1.1-1.2-1-2c0.1-0.9,0.7-1.7,2.1-2.6c0.8-0.5,1.5-0.8,2.1-1.1c1.7-0.8,2.9-1.4,4.3-4.2
					c0.4-0.8,0.8-1.5,1.2-2.1c1.4-2.4,2.3-4,2.5-9.3c0.2-4,1.2-6.2,2-7.8c0.6-1.2,1-2.1,0.9-3.2c-0.1-0.8-0.2-1.8-0.3-2.8
					c-0.4-3.2-0.9-7.2-0.6-10.8c0.3-2.7-1.3-4.2-2.6-5.5c-0.9-0.9-1.7-1.7-1.9-2.8c-0.5-2.2-1.2-5.6-4.2-8.6
					c-1.2-1.2-2.1-2.4-2.9-3.8l-1.6-2.9l2.6,2.1c16.2,12.6,22.3,27.8,17.5,44.1c-4.5,12.9-7,19.5-8.3,23.1l-0.9,2.5l-0.2,0.1
					C333.5,114.9,332.9,115,332.2,115z M325.4,110.5c0.7,0,1.5,0.2,2.3,0.7c0.5,0.3,1,0.7,1.5,1c1.2,0.8,2.2,1.5,3.1,1.5l0,0
					c0.3,0,0.6-0.1,0.9-0.3l0.8-2.1c1.3-3.6,3.8-10.2,8.3-23c3.9-13.6,0-26.6-11.5-37.7c1.8,2.6,2.3,5.2,2.7,7
					c0.1,0.6,0.8,1.3,1.5,2.1c1.4,1.4,3.4,3.4,3,6.7c-0.3,3.4,0.2,7.4,0.6,10.5c0.1,1.1,0.3,2.1,0.3,2.9c0.1,1.5-0.4,2.7-1,3.9
					c-0.8,1.6-1.7,3.6-1.8,7.3c-0.3,5.6-1.3,7.5-2.7,9.9c-0.4,0.6-0.7,1.3-1.1,2.1c-1.6,3.2-3.2,3.9-4.9,4.8c-0.6,0.3-1.2,0.6-2,1.1
					c-1.2,0.8-1.4,1.3-1.4,1.5c0,0.1,0.1,0.3,0.2,0.5C324.5,110.6,324.9,110.5,325.4,110.5z"/>
			</g>
			<path class="st3" d="M334.6,111.4c-1.5-1.8-1.2-4.8-0.8-6.9c0.7-3.4,1.9-6.5,3-9.7c0.5-1.5,0.8-3,1.3-4.5
				c0.8-2.3,2.5-4.9,2.2-7.4c-0.3-2.6-1-5-0.9-7.6c0.1-2.5,0.4-5.2-0.2-7.7c-0.9-3.6-4.1-7-3.9-10.9c0-0.5,0.1-1.2,0.3-1.7
				c-3.5-4.4-7.4-7.7-10.2-9.8c0.6,1,1.4,2.3,2.8,3.6c3.2,3.2,4,6.7,4.4,8.9c0.5,2.3,5,3.8,4.6,8.5c-0.5,4.7,0.6,10.4,0.9,13.5
				c0.3,3.1-2.5,4.3-2.8,11.1c-0.3,6.9-1.7,7.7-3.8,11.7c-2.1,4-3.8,3.8-6.7,5.6c-2.1,1.3-2.1,2.5-1,3.4c0.7-0.4,1.8-0.7,3.3,0.2
				c2.5,1.5,4.3,3.4,6.5,2.1C334,113.2,334.3,112.5,334.6,111.4C334.6,111.5,334.6,111.4,334.6,111.4z"/>
		</g>
		<path class="st3" d="M270.2,50.7c-13.9,5.5-26.7,14.4-31.1,29.4c-2.3,7.9-2.5,16.5-1.9,24.6c0.7,9.3,2.8,18.8,6.3,27.5
			c0.2,0.5,0.3,0.6,0.2,0.2c-2-7.8-3.5-16.9-4.5-24.9c-1.1-8.1-1-16.5,0.6-24.5c1.4-7.5,5-13.7,10.6-18.9
			C256,58.8,263.4,54.4,270.2,50.7C270.4,50.6,270.6,50.5,270.2,50.7z"/>
		<path class="st3" d="M406.7,49.4c-7.4-2.6-15-4.5-22.7-6c-4.2-0.8-8.5-1.6-12.8-2.1c-4.1-0.5-8.4-0.3-12.5-0.9
			c-0.2,0-0.4,0-0.2,0.1c3.3,0.8,6.7,1.6,10,2.1c4.3,0.6,8.5,1.4,12.7,2.2c8.4,1.7,17,2.7,25.2,4.9
			C406.9,49.7,407.1,49.5,406.7,49.4z"/>
		<g>
			<path class="st8" d="M304.8,121.9c-18.3,6.7-24.6,19.6-31,29.1c-0.1,0.2-0.3,0.4-0.4,0.6c2.4,0.2,6.3,0.2,9.5-1.8
				c-3.4,0.8-3.5-2.7,0-7.4c4.8-6.5,7.1-9,14.5-14.6c2.3-1.7,3.9-1.8,5.1-1C303.8,125.6,304.7,124,304.8,121.9z"/>
		</g>
	</g>
	<g>
		<g>
			<g>
				<path class="st9" d="M432.3,51.1c-3.2,0.1-6.3,0.6-9.5,1.4c-3.3,0.9-6.5,2.2-9.5,3.9c-3.7,2.2-6.6,5-9.6,8.2
					c-0.6,0.6-1.4,1.8-2.3,2c-0.4,0.1-0.8,0.2-1.1,0.2c-0.3,0-0.5,0-0.8-0.1l0-0.1c0,0-3.3-0.4-4.6-6.6l-1.5-46.3l-14,0.3l1.6,47.4
					c0,0,0,13.8,8.3,21.6c0.7,0.8,1.4,1.6,2.3,2.1c2.2,1.3,3.4,4.4,3.5,8.3c0.5,15.2-10.4,28.4-24.9,31.9
					c-28.5,6.8-72.7,13.1-77.5,49.5c-1.3,10.1,0.6,21.6,7.5,29.4c8.6,9.8,24.7,12.9,37.2,12.7c0.4,0,0.8,0,1.2,0
					c8.7-0.3,17.2-2.6,25.6-4.7c6-1.4,14.4-4.3,19.9-0.2c3.9,2.9,3.5,8.6,2.8,13c-0.1,0.3-0.1,0.6-0.2,1c8.1-0.4,16.3-1.2,24.4-1.8
					c4.5-1.4,0.4-13.1-0.6-15.6c-2.4-6.2-4.3-9.9-10-13.5c-9-5.7-20.1-5.9-30.3-4c-10.5,2-20.1,7.7-31,8.3
					c-5.9,0.3-11.8-1.5-16.4-5.3c-1.3-1.1-2.6-2.5-2.8-5.8c-0.1-2.9-1.3-4.6-2.4-5.5c-0.5-0.4-1-0.7-1.3-0.9l0.2-0.1
					c3.3-1.9,2.8-8.6,3.2-11.1c2.5,2.7,7.2,2.9,9.3,2.9c8.7,0.3,8-7.4,9.1-3.9c2.8,9.1,17.6,12.4,25.5,13.7
					c24.2,4,50.1-3.1,70.1-16.8c11.1-7.6,21.1-17.9,26.8-30.2c8.6-18.3,14.3-43.8,4.6-62.8c-5-9.8-13.7-19.2-24.8-21.8
					C437.9,51.3,435.1,51,432.3,51.1z"/>
				<path class="st10" d="M386.7,226.3l0.1-0.3c0.1-0.3,0.1-0.6,0.2-1c0.7-4.1,1.2-10-2.7-12.8c-2-1.5-4.6-2.2-7.9-2.1
					c-3.3,0.1-6.7,1-9.8,1.8c-0.7,0.2-1.4,0.3-2.1,0.5c-1,0.2-2,0.5-2.9,0.7c-7.4,1.8-15,3.7-22.7,3.9c-0.4,0-0.7,0-1.1,0l-0.1,0
					c-6.9,0.1-14-0.8-20.1-2.6c-7.4-2.2-13.2-5.6-17.2-10.1c-6.2-7-9-18.1-7.6-29.6c1.9-14.7,10.4-25.9,25.8-34
					c13.3-7,29.4-10.6,43.6-13.8c2.9-0.7,5.6-1.3,8.2-1.9c7-1.7,13.4-5.7,18-11.5c4.6-5.8,7-13,6.8-20.2c-0.1-4-1.4-6.9-3.4-8.1
					c-0.8-0.5-1.6-1.3-2.4-2.2c-8.2-7.8-8.3-21.6-8.3-21.7l-1.6-47.6l14.4-0.4l1.6,46.5c1.2,5.9,4.4,6.4,4.4,6.4l0.3,0l0,0.1
					c0.2,0,0.3,0,0.4,0c0.4,0,0.7-0.1,1.1-0.2c0.6-0.2,1.3-1,1.8-1.6c0.1-0.2,0.3-0.3,0.4-0.4c2.7-2.9,5.7-5.9,9.6-8.2
					c3-1.7,6.2-3,9.6-3.9c3.3-0.9,6.4-1.3,9.3-1.4h0.2c2.9-0.1,5.6,0.2,8.4,0.8c14,3.2,22.1,16.3,25,21.9c4.5,8.8,6,19.5,4.6,31.8
					c-1.5,12.8-5.8,24-9.2,31.2c-5.4,11.5-14.7,22-26.9,30.3c-16,10.9-35,17.3-53.6,17.9l0,0c-5.7,0.2-11.3-0.2-16.7-1.1
					c-15-2.5-23.6-7.1-25.7-13.8c-0.2-0.5-0.2-0.7-0.3-0.8c-0.1,0.1-0.2,0.3-0.4,0.6c-0.8,1.3-2.4,4.1-7.3,4.2c-0.3,0-0.7,0-1,0
					c-2-0.1-6.5-0.2-9.2-2.7c-0.1,0.5-0.1,1.1-0.1,1.7c-0.2,3-0.4,7.4-3,9c0.3,0.2,0.7,0.4,1,0.7c1.1,0.9,2.4,2.6,2.4,5.7
					c0.2,3.3,1.5,4.6,2.7,5.6c4.5,3.7,10.3,5.6,16.3,5.3c6.2-0.3,12.2-2.4,17.9-4.4c4.2-1.5,8.6-3,13-3.9c3.2-0.6,6.4-1,9.3-1.1
					c8.3-0.3,15.4,1.4,21.1,5.1c2.8,1.8,4.7,3.6,6.3,5.8c1.5,2.1,2.6,4.6,3.8,7.8c0.4,1.1,4,10.5,2.1,14.4c-0.4,0.8-0.9,1.3-1.7,1.5
					l0,0c-2.7,0.2-5.3,0.4-8,0.6c-5.4,0.4-11,0.9-16.5,1.2L386.7,226.3z M376.3,209.8c3.4-0.1,6.1,0.6,8.2,2.1c4.1,3,3.6,9,2.8,13.3
					c0,0.2-0.1,0.5-0.1,0.7c5.4-0.3,10.9-0.7,16.2-1.2c2.7-0.2,5.3-0.4,8-0.6c0.6-0.2,1.1-0.6,1.4-1.3c1.8-3.7-1.7-13-2.1-14.1
					c-2.6-6.6-4.5-9.9-9.9-13.4c-5.7-3.6-12.7-5.3-20.9-5c-2.9,0.1-6.1,0.5-9.3,1.1c-4.4,0.8-8.8,2.4-13,3.8c-5.8,2-11.7,4.1-18,4.5
					c-6.1,0.3-12-1.6-16.6-5.4c-1.4-1.1-2.7-2.6-2.8-5.9c-0.1-3-1.3-4.6-2.3-5.4c-0.5-0.4-0.9-0.7-1.3-0.8l-0.3-0.2l0.5-0.3
					c2.5-1.5,2.7-5.9,2.9-8.8c0.1-0.9,0.1-1.6,0.2-2.2l0.1-0.4l0.3,0.3c2.5,2.6,7.2,2.8,9.2,2.9c0.3,0,0.7,0,1,0
					c4.6-0.2,6.2-2.8,6.9-4c0.3-0.5,0.5-0.8,0.7-0.8c0.3,0,0.5,0.4,0.7,1.1c2,6.4,10.8,11.1,25.4,13.5c5.4,0.9,11,1.2,16.7,1.1
					c18.5-0.6,37.4-7,53.3-17.8c12.1-8.3,21.4-18.7,26.8-30.2c4.1-8.7,16.6-39.1,4.6-62.6c-5.9-11.5-14.9-19.4-24.7-21.6
					c-2.7-0.6-5.5-0.9-8.3-0.8l-0.2,0c-2.9,0.1-5.9,0.6-9.2,1.4c-3.4,0.9-6.5,2.2-9.5,3.9c-3.9,2.3-6.8,5.3-9.5,8.1
					c-0.1,0.1-0.3,0.3-0.4,0.4c-0.6,0.6-1.2,1.4-2,1.7c-0.4,0.1-0.8,0.2-1.2,0.2c-0.2,0-0.5,0-0.8-0.1l-0.2-0.1l0-0.1
					c-0.8-0.3-3.4-1.4-4.5-6.7L393.4,14l-13.5,0.3l1.6,47.2c0,0.1,0.1,13.8,8.2,21.4c0.7,0.9,1.5,1.6,2.3,2.1
					c2.2,1.3,3.5,4.3,3.6,8.5c0.2,7.3-2.2,14.6-6.9,20.5c-4.6,5.8-11.1,9.9-18.2,11.6c-2.6,0.6-5.3,1.2-8.2,1.9
					c-14.2,3.2-30.2,6.8-43.5,13.8c-15.3,8.1-23.7,19.1-25.6,33.7c-1.5,11.4,1.3,22.3,7.4,29.3c3.9,4.5,9.7,7.8,17,10
					c6,1.8,13.1,2.7,20,2.6l0.1,0c0.4,0,0.7,0,1.1,0c7.7-0.3,15.3-2.1,22.6-3.9c1-0.2,2-0.5,2.9-0.7c0.7-0.2,1.3-0.3,2.1-0.5
					C369.5,210.8,373,209.9,376.3,209.8z"/>
			</g>
			<path class="st11" d="M465.5,73.7c-5-9.8-13.7-19.2-24.8-21.8c-2.9-0.6-5.6-0.9-8.4-0.8c-3.2,0.1-6.3,0.6-9.5,1.4
				c-3.3,0.9-6.5,2.2-9.5,3.9c-3.7,2.2-6.6,5-9.6,8.2c-0.6,0.6-1.4,1.8-2.3,2c-0.4,0.1-0.8,0.2-1.1,0.2c-0.3,0-0.5,0-0.8-0.1l0-0.1
				c0,0-3.3-0.4-4.6-6.6l-1.5-46.3l-5.3,0.1l1.6,46c0,0,0.2,6.8,4.7,9.3c0,0,2.8,2.3,2.1,5c-0.6,2.7-9.4,7.9-15.5-12.7
				c0,0,0,13.8,8.3,21.6c0.7,0.8,1.4,1.6,2.3,2.1c2.2,1.3,3.4,4.4,3.5,8.3c0.2,7.2-2.1,14-6.2,19.5c2-1.7,6.8-6.4,8.7-14.2
				c2.4-10,0.3-29.1,21.8-33.4c21.5-4.3,36.4,23.7,23,57.5c0,0-8.5,22.6-37.6,35.9c-29.2,13.3-64.1,4.3-64.8-10.9
				c-0.7-15.2,16.3-19.2,18.4-19.6c0.3-0.1,0.6-0.2,0.9-0.4c-19.5,4.4-42.5,10.1-55.9,24.3c6.3-5.4,14.7-11.6,20.9-12
				c11.1-0.9,12.4,18.7,5,22.5c-7.5,3.8-17.2-5.4-17.4-6.4c0,0,5.8,26.1-13.9,29.2c2-0.3,9.9-0.9,12.5,5.8
				c3,7.7,17.8,20.4,37.9,13.9c0,0-9,3.1-11.3,7.2c0,0-6.8-6.1-16.6-3.2c0,0-3.8-8.9-21.8-6.6c0.4,0.6,0.9,1.2,1.4,1.8
				c8.6,9.8,24.7,12.9,37.2,12.7c0.4,0,0.8,0,1.2,0c8.7-0.3,17.2-2.6,25.6-4.7c6-1.4,14.4-4.3,19.9-0.2c3.9,2.9,3.5,8.6,2.8,13
				c-0.1,0.3-0.1,0.6-0.2,1c8.1-0.4,16.3-1.2,24.4-1.8c4.5-1.4,0.4-13.1-0.6-15.6c-2.4-6.2-4.3-9.9-10-13.5c-9-5.7-20.1-5.9-30.3-4
				c-10.5,2-20.1,7.7-31,8.3c-5.9,0.3-11.8-1.5-16.4-5.3c-1.3-1.1-2.6-2.5-2.8-5.8c-0.1-2.9-1.3-4.6-2.4-5.5c-0.5-0.4-1-0.7-1.3-0.9
				l0.2-0.1c3.3-1.9,2.8-8.6,3.2-11.1c2.5,2.7,7.2,2.9,9.3,2.9c8.7,0.3,8-7.4,9.1-3.9c2.8,9.1,17.6,12.4,25.5,13.7
				c24.2,4,50.1-3.1,70.1-16.8c11.1-7.6,21.1-17.9,26.8-30.2C469.6,118.2,475.3,92.7,465.5,73.7z"/>
			<path class="st9" d="M380.9,15.2l1.5,43.6c0,0,0.6,8.9,6.6,14.8c0,0-5.3-7.8-5.6-16.8l-1.2-41.7L380.9,15.2z"/>
			<path class="st9" d="M412.1,70.5c0,0-8,2.2-11.3,19.6c-3.3,17.4-8.8,35.9-42.2,39.1c0,0,14.8,1.8,26.5-7c0,0,8-5.7,11.7-13.7
				C403.3,94,401.3,80,412.1,70.5z"/>
			<path class="st9" d="M314.3,145.3c0,0-31.6,21.4-15.1,55C299.2,200.3,284,172.3,314.3,145.3z"/>
		</g>
		<g class="st12">
			<path class="st9" d="M372.4,203.9c0,0-17.9-4.7-25.2,9.6c-0.5,0.9-0.9,1.9-1.4,2.8c6.2-0.9,12.4-2.5,18.5-4
				c6-1.4,14.4-4.3,19.9-0.2c3.9,2.9,3.5,8.6,2.8,13c-0.1,0.3-0.1,0.6-0.2,1c8.1-0.4,16.3-1.2,24.4-1.8c4.5-1.4,0.4-13.1-0.6-15.6
				c-2.4-6.2-4.3-9.9-10-13.5c-4.8-3-10.1-4.5-15.6-4.9c-1.3,1.7-2.8,4.1-3.2,7C381.9,197.3,373.9,198.5,372.4,203.9z"/>
		</g>
	</g>
	<g>
		<g>
			<path class="st13" d="M340.8,392.8c0,0-4.1,12.6,1.6,23.7c6.9,13.7,10.5,9.7,10.2,19.5c-0.3,9.8,2.1,15.9,3.8,20.6
				c1.7,4.6,12.9,4,14.6-1.1c1.7-5.1,2-14.5,0.9-19.2c-1.1-4.7,10.3-17.6,8.2-33.9c0,0,12.4,17.2,29.6,6.9c0,0,23.9,6.1,27.2-16.9
				c0,0,14.1,1.1,14.3-20.6c0,0,10.6-0.7,7.5-19.1c0,0,8.3-5,5-17.4c0,0,10.2-3.8,5.9-19.7c0,0,11-5.7,0.7-26.1
				c0,0,4.1-8.9-1.2-16.6c0,0,4.4-8-4.7-18.4c0,0,5.1-6.5-2.5-17.8c0,0,4.4-8.6-2.2-20.3c0,0,4.3-3.6,0.9-11.6c0,0,4.2-3.9,2.1-12.3
				c0,0,10.1-5.1,6.3-17.8c0,0,6.1-17.3-3.4-21.8c-5.9-2.8-9.9-1.9-13.3-0.9c-2.1,0.6-4,1.2-5.9,0.8c-4.9-1-10.7-5.7-17.7-3.2
				c-7,2.5-7.2,9.3-7.1,11.6c0,0-10,4.1-8.2,12.4c0,0-8.9,2.2-9.7,12c0,0-10.1,1.5-10.4,13.2c0,0-13.1,1.2-14.2,11.4
				c0,0-12.1-3-18.4,1.4c0,0-15.8-2.1-22.4,4.5c0,0-7.4-8.1-18.9-3.5c0,0-8.9-6.5-16.6-3.6c0,0-2.9-7.5-16.7-5.1
				c0,0-3.6-5.9-16.2-3.2c0,0-8.8-5-15.6,4.7c0,0-11.3-1.1-16.2,7.7c-5,8.9-0.3,14.7-0.3,14.7s-5.6,2.1-3.8,9.2
				c0,0-5.1,5.1-3.3,14.4c0,0-3.3,3.9-1.8,14.8c0,0-5.7,8.9-1.6,18.6c0,0-2.8,5.4,1.8,19.2c0,0-6.4,10,3.3,20.3
				c0,0-4.4,26.2,19.7,28.8c0,0,5.8,17.9,27.4,12.3c0,0,6.1,14.5,27.6,5.5c21.5-9,9-44.4-5.1-64c-14.2-19.5-42.9-36.7-39.2-49.6
				c3.7-13,23.9-14.8,32.2-14.3c8.3,0.5,94.6,0.6,116.3-11.1c21.8-11.7,25.7,52.7,18.4,70.3c-2.8,6.8-6.4,29.3-3.1,37
				c1,2.3-6.8,5.4-7.4,7.4c-3.9,13.6-7.9,14.3-17.4,15.5c-6.9,0.8-14.3-1.9-21.4-4.6c-11-4.2-21.2-8.4-26.8,0.5
				C344.2,372.3,340.8,392.8,340.8,392.8L340.8,392.8z"/>
			<path class="st14" d="M363.2,460L363.2,460c-3.5,0.1-6.3-1.2-7-3.2l-0.1-0.4c-1.7-4.5-4-10.8-3.7-20.3c0.2-5.4-0.8-6.5-3-8.8
				c-1.7-1.9-4.1-4.5-7.2-10.5c-5.6-11.1-1.6-23.8-1.6-23.9c0-0.2,3.5-20.7,12.7-35.2c2.2-3.5,5.2-5.2,9.2-5.4
				c4.9-0.2,10.7,2,16.7,4.4l1.1,0.4c7,2.7,13.4,4.9,19.5,4.7c0.6,0,1.2-0.1,1.8-0.1c9.1-1.1,13.2-1.6,17.2-15.3
				c0.3-0.9,1.7-1.9,3.4-3c2.1-1.4,4.5-3,4-4.2c-3.2-7.6,0.3-30.2,3.1-37.2c5.3-12.9,4.8-52-5.2-66.4c-3.5-5.1-7.9-6.4-12.9-3.7
				c-14.1,7.6-55.3,10-78.7,10.8c-19.5,0.7-34.7,0.5-37.8,0.3c-1.3-0.1-2.7-0.1-4.2,0c-5.6,0.2-24.2,1.8-27.7,14.2
				c-2.3,7.9,7.8,17.4,19.3,28.4c7.1,6.7,14.5,13.7,19.8,21.1c10.9,15,19.8,37.7,15.8,52.1c-1.6,5.8-5.2,9.9-10.7,12.2
				c-4.4,1.8-8.4,2.8-12.1,3c-10.9,0.4-15.1-7.2-15.7-8.4c-2.4,0.6-4.7,1-6.9,1c-15,0.5-20-12-20.5-13.4c-6.7-0.7-11.9-3.4-15.3-7.9
				c-6.2-8.1-4.7-19.8-4.5-21c-5-5.3-5.7-10.6-5.3-14.1c0.4-3.5,1.7-5.8,2-6.3c-4.3-12.9-2.1-18.4-1.8-19.2
				c-3.8-9.2,1.1-17.8,1.6-18.6c-1.4-10.1,1.3-14.2,1.7-14.8c-1.4-7.3,1.5-12.6,3.3-14.5c-1.3-5.5,1.7-8.3,3.7-9.2
				c-1.6-2.2-3.4-7.9,0.4-14.7c1.6-2.8,5.5-7.6,14.5-7.9c0.9,0,1.6,0,1.9,0c2.7-3.8,6.1-5.8,9.9-5.9c3.1-0.1,5.4,1,5.8,1.3
				c1.9-0.4,3.6-0.6,5.3-0.7c7.7-0.3,10.5,3.2,11,3.9c1.4-0.2,2.8-0.4,4.1-0.4c8-0.3,11.7,3.4,12.6,5.5c1.2-0.4,2.4-0.6,3.7-0.7
				c6.2-0.2,12,3.7,12.8,4.3c2.1-0.8,4.3-1.3,6.3-1.3c7-0.2,11.6,3.9,12.5,4.8c3.7-3.6,10.2-4.6,15-4.7c3.8-0.1,6.8,0.2,7.3,0.3
				c2.1-1.4,5-2.2,8.7-2.4c4.4-0.1,8.5,0.7,9.5,0.9c1.2-9.4,12.6-11.2,14.2-11.4c0.4-10.8,9.1-12.9,10.4-13.2c0.8-9,8.4-11.6,9.7-12
				c-1.5-7.7,7.1-11.8,8.2-12.3c-0.1-3.4,0.8-9.3,7.3-11.6c1.3-0.4,2.5-0.7,3.8-0.7c3.4-0.1,6.6,1.2,9.3,2.3
				c1.7,0.7,3.2,1.3,4.7,1.6c0.5,0.1,0.9,0.1,1.4,0.1c1.3,0,2.6-0.4,4-0.8l0.4-0.1c1.6-0.4,3.3-0.9,5.3-1c2.7-0.1,5.3,0.5,8.1,1.9
				c9.3,4.5,4,20.9,3.5,22c3.6,11.9-5,17.2-6.2,17.9c1.9,7.6-1.4,11.6-2.1,12.3c3,7.2-0.2,10.9-0.8,11.6c5.2,9.2,3.7,17.2,2.2,20.3
				c6.9,10.4,3.2,16.8,2.5,17.8c8.4,9.6,5.2,17.3,4.7,18.4c4.9,7.3,1.6,15.6,1.2,16.6c3,5.8,5.9,14.1,3.5,20.8
				c-1.3,3.5-3.6,5.1-4.2,5.4c2.2,8.2,0.4,13.1-1.4,15.8c-1.7,2.5-3.9,3.6-4.5,3.9c2.9,11.5-4.1,16.7-5.1,17.4
				c1.2,7.2,0.5,12.6-2.2,16c-2.1,2.6-4.6,3.1-5.3,3.2c-0.1,8-2.1,13.8-5.9,17.3c-3.1,2.8-6.6,3.2-7.9,3.3c-0.2,0-0.3,0-0.5,0
				c-2.1,14.1-11.8,17.4-19.6,17.7c-4,0.1-7.2-0.6-7.8-0.7c-3.4,2.1-6.9,3.2-10.4,3.3c-9.9,0.3-17.1-7.4-18.9-9.6
				c1.1,10-2.9,18.7-5.7,25c-1.7,3.6-2.9,6.5-2.6,8.1c1.1,4.5,0.9,13.9-0.9,19.3C370.2,458.4,366.5,459.8,363.2,460z M362.5,352.6
				c-3.9,0.1-6.8,1.8-8.9,5.2c-9.1,14.4-12.6,34.9-12.7,35.1c0,0.2-4,12.7,1.5,23.6c3,6,5.4,8.6,7.1,10.5c2.2,2.4,3.3,3.6,3.1,9.1
				c-0.3,9.4,2,15.6,3.7,20.1l0.2,0.4c0.7,1.9,3.3,3.1,6.6,3c3.1-0.1,6.7-1.4,7.6-4.1c1.8-5.2,1.9-14.7,0.9-19.1
				c-0.4-1.8,0.8-4.6,2.6-8.4c2.9-6.4,6.9-15.3,5.6-25.5l-0.1-0.8l0.5,0.7c0.1,0.1,7.7,10.4,19,10.1c3.4-0.1,6.9-1.2,10.3-3.3l0.1,0
				l0.1,0c0,0,3.4,0.9,7.7,0.7c7.7-0.3,17.3-3.5,19.2-17.5l0-0.2l0.2,0c0,0,0.2,0,0.6,0c3.1-0.1,13.3-1.9,13.5-20.4v-0.2l0.2,0
				c0,0,3-0.2,5.2-3.1c2.6-3.3,3.3-8.6,2.1-15.8l0-0.1l0.1-0.1c0.1-0.1,8.1-5.1,5-17.2l-0.1-0.2l0.2-0.1c0.1,0,10-3.9,5.8-19.4
				l0-0.1l0.2-0.1c0,0,2.7-1.4,4.1-5.3c2.4-6.5-0.6-14.7-3.5-20.5l0-0.1l0-0.1c0-0.1,3.9-8.9-1.2-16.4l-0.1-0.1l0.1-0.1
				c0-0.1,4.2-8-4.7-18.1l-0.1-0.1l0.1-0.1c1.7-2.2,3.4-8.7-2.5-17.6l-0.1-0.1l0.1-0.1c1.5-2.9,3-11-2.2-20.1l-0.1-0.1l0.1-0.1
				c0,0,4.1-3.6,0.8-11.4l-0.1-0.1l0.1-0.1c0,0,4.1-3.9,2-12.1l0-0.2l0.2-0.1c0.1-0.1,9.9-5.1,6.2-17.5l0-0.1l0-0.1
				c0.1-0.2,5.9-17.1-3.3-21.6c-2.8-1.3-5.3-1.9-7.9-1.8c-1.9,0.1-3.6,0.5-5.2,0.9l-0.4,0.1c-1.4,0.4-2.8,0.8-4.1,0.8
				c-0.5,0-1,0-1.5-0.1c-1.5-0.3-3.1-0.9-4.8-1.6c-2.7-1.1-5.8-2.4-9.2-2.3c-1.3,0-2.5,0.3-3.7,0.7c-6.3,2.3-7.1,8.1-7,11.4v0.1
				l-0.1,0.1c-0.1,0-9.8,4.1-8.1,12.1l0,0.2l-0.2,0c-0.1,0-8.8,2.3-9.6,11.8v0.2l-0.2,0c-0.1,0-9.9,1.6-10.3,13l0,0.2l-0.2,0
				c-0.1,0-12.9,1.3-14.1,11.2l0,0.2l-0.2-0.1c0,0-4.7-1.1-9.6-1c-3.6,0.1-6.5,0.9-8.5,2.3l-0.1,0.1l-0.1,0c0,0-3.3-0.4-7.3-0.3
				c-4.8,0.2-11.3,1.1-14.8,4.8l-0.2,0.2l-0.1-0.2c-0.1,0-4.8-5.1-12.3-4.8c-2.1,0.1-4.2,0.5-6.3,1.4l-0.1,0l-0.1-0.1
				c-0.1,0-6.2-4.5-12.7-4.3c-1.3,0.1-2.6,0.3-3.8,0.7l-0.2,0.1l-0.1-0.2c-0.8-2-4.3-5.7-12.3-5.4c-1.3,0-2.7,0.2-4.2,0.4l-0.1,0
				l-0.1-0.1c0,0-2.6-4.1-10.7-3.8c-1.7,0.1-3.4,0.3-5.3,0.7l-0.1,0l-0.1,0c0,0-2.5-1.4-5.7-1.3c-3.8,0.1-7,2.1-9.7,5.9l-0.1,0.1
				l-0.1,0c0,0-0.8-0.1-1.9,0c-8.7,0.3-12.6,4.9-14.1,7.6c-3.9,6.9-1.9,12.5-0.3,14.5l0.2,0.2l-0.3,0.1c-0.2,0.1-5.4,2.1-3.7,8.9
				l0,0.1l-0.1,0.1c-0.1,0.1-5,5.1-3.2,14.3l0,0.1l-0.1,0.1c0,0-3.2,4-1.7,14.6l0,0.1l0,0.1c-0.1,0.1-5.6,8.9-1.6,18.4l0.1,0.1
				l-0.1,0.1c0,0.1-2.7,5.5,1.8,19l0,0.1l-0.1,0.1c-0.1,0.1-6.2,10,3.3,20l0.1,0.1l0,0.1c0,0.1-2,12.4,4.4,20.8
				c3.4,4.4,8.5,7.1,15.1,7.8l0.1,0l0,0.1c0.1,0.1,4.7,13.7,20.2,13.2c2.2-0.1,4.6-0.4,7-1.1l0.2,0l0.1,0.2
				c0.1,0.1,3.8,8.7,15.4,8.3c3.6-0.1,7.6-1.1,12-2.9c5.3-2.3,8.8-6.3,10.4-12c4-14.3-4.9-36.8-15.7-51.7
				c-5.4-7.4-12.7-14.3-19.8-21c-11.7-11.1-21.8-20.6-19.4-28.8c3.6-12.7,22.4-14.3,28.1-14.5c1.5,0,3,0,4.3,0
				c3.1,0.2,18.3,0.3,37.7-0.3c23.3-0.8,64.5-3.2,78.5-10.7c5.2-2.8,9.8-1.5,13.5,3.8c10,14.4,10.6,53.8,5.2,66.8
				c-2.9,7-6.3,29.3-3.2,36.8c0.6,1.5-1.8,3.1-4.1,4.7c-1.5,1-3,2-3.2,2.8c-4.1,14-8.3,14.5-17.5,15.6c-0.6,0.1-1.2,0.1-1.8,0.1
				c-6.2,0.2-12.6-2-19.7-4.7l-1-0.4C373.1,354.7,367.3,352.5,362.5,352.6z"/>
		</g>
		<g>
			<path class="st15" d="M373,421.7c-2.8,1.9-6,3.3-9.8,3.9c-3.6,0.5-7.2,0.2-10.7-0.8c-1-0.3-2-0.7-2.8-1.3
				c-0.9-0.3-1.7-0.7-2.5-1.1c1.4,1.3,3.1,2.4,4.9,3.1c3.5,1.3,7.3,1.3,11,0.9c5.1-0.6,9.6-3.1,13.2-6.6
				C375.2,420.4,374.1,421.1,373,421.7z"/>
			<path class="st15" d="M399.4,371.7c-0.3,2.3-1.2,4-2.9,5.7c-1.5,1.5-3.3,3.1-5.5,3.5c-0.1,0-0.2,0.3-0.1,0.3c0,0,0,0.1,0,0.1
				c3,6.4-0.6,13.5-5.8,17.6c-2.7,2.2-6.2,3.1-9.6,3.8c-4.1,0.8-7.4,0.1-11.2-1.3c-0.1,0-0.2,0.1-0.1,0.2c1.6,0.7,3.3,1.5,5,1.9
				c2.1,0.4,4.1,0.2,6.2-0.2c3.8-0.6,7.4-1.9,10.4-4.4c4.9-4,8.6-11.7,5.4-17.7c2.1-0.1,4-2.1,5.4-3.5c1.7-1.6,3-3.7,2.9-6.1
				C399.7,371.4,399.4,371.6,399.4,371.7z"/>
			<path class="st15" d="M411.5,370.7c-0.1-0.1-0.2,0.1-0.2,0.2c3.8,3.2,3,10.9,0.4,14.5c-0.1,0.1,0,0.1,0.1,0.1
				C415,382,415.8,373.7,411.5,370.7z"/>
			<path class="st15" d="M411.5,385.7c-0.1,0-0.2,0.1-0.2,0.2c2.7,2.4,3.5,5.8,3.7,9.4c0.2,4.5-2.2,10.2-5.2,13.4
				c-0.1,0.1,0,0.2,0.1,0.1c1.5-1.3,2.5-3.4,3.4-5.2c1.3-2.5,2.1-5,2.3-7.8C415.8,392.7,414.9,386.9,411.5,385.7z"/>
			<path class="st15" d="M435.8,380.3c-1.5-4.2-4.1-6.9-8.5-7.9c-0.1,0-0.2,0.2-0.1,0.2c4.3,1.3,6.5,4,8.1,8.1
				c1.5,4,2.3,8.6,1.5,12.9c0,0.1,0.2,0,0.2,0C438.2,389.1,437.2,384.4,435.8,380.3z"/>
			<path class="st15" d="M445.4,359.1c-3.2-1.9-6.7-2.7-9.8-0.9c-0.5-6.6-7-12.2-13.6-11.1c-0.1,0-0.2,0.3,0,0.2
				c6.9-0.9,12.2,4.8,13.2,11.2c-0.3,0.2-0.6,0.4-0.8,0.6c-0.1,0.1,0,0.2,0.1,0.1c0.2-0.2,0.5-0.4,0.8-0.5c0,0.3,0.1,0.5,0.1,0.8
				c0,0.2,0.3,0,0.3-0.1c0-0.3,0-0.6,0-0.9c3.5-1.9,7.3-0.4,10.5,1.8c3.6,2.5,4.7,6.4,5.1,10.5c0,0.1,0.1,0,0.1-0.1
				C451.4,365.9,449.8,361.7,445.4,359.1z"/>
			<path class="st15" d="M452,343.2c-3-2.1-5.9-2-9-0.7c-1.1-5.5-7.6-8.4-12.7-5.4c-0.1,0.1-0.1,0.2,0,0.2c2.9-1.5,6.7-1.2,9.3,0.8
				c1.5,1.1,2.4,2.9,2.8,4.7c-0.1,0.1-0.3,0.1-0.4,0.2c-0.1,0-0.1,0.2,0,0.2c0.2-0.1,0.3-0.1,0.4-0.2c0.1,0.6,0.3,1.2,0.3,1.8
				c0,0.2,0.3,0,0.3-0.2c0-0.6,0-1.3-0.1-1.8c1.3-0.6,2.5-0.9,4.1-0.8c2.1,0.2,4,1.4,5.6,2.6c2.8,2.2,4.9,5.5,6.2,8.8
				c0,0.1,0.2,0,0.2-0.1C458.1,349,455.6,345.6,452,343.2z"/>
			<path class="st15" d="M458.5,326.9c-1.3-1-2.7-1.8-4.3-2.1c-1.7-0.3-2.9,0.3-4.5,0.5c0,0-0.1,0.1,0,0.1c1.2-0.1,2.2-0.4,3.5-0.4
				c2.1,0,4.1,1.4,5.7,2.7c2.4,2,3.9,4.8,5,7.6c0.1,0.1,0.2,0,0.1-0.1C462.8,331.9,461.3,329.2,458.5,326.9z"/>
			<path class="st15" d="M470,316.5c-1.1-3.7-4.3-6.4-7.8-7.6c-2.6-0.9-7-1.2-9.1,0.9c0,0.1,0,0.1,0.1,0.1c2.7-1.9,7.3-1.2,10,0.1
				c3,1.3,5.1,3.9,6.6,6.8C469.9,316.8,470,316.6,470,316.5z"/>
			<path class="st15" d="M470.6,288.6c-1.3,1.7-2.2,3.4-3.9,4.8c-1.6,1.3-3.2,2.4-5.2,3.2c-2.2,0.9-8,1.9-9.6-0.7
				c-0.1-0.1-0.2,0-0.2,0.1c1.4,2.9,6.6,2,9,1.4c4.6-1.3,7.4-5,9.9-8.7C470.9,288.5,470.7,288.5,470.6,288.6z"/>
			<path class="st15" d="M469.3,272.2c-1.6,4.1-4.5,7.3-7.9,10c-2.5,2-8.1,4.3-10.7,1.2c-0.1-0.1-0.2,0.1-0.1,0.1
				c1.9,2.7,6.6,1.8,9.1,0.3c4.2-2.5,8.5-6.9,9.8-11.7C469.7,272,469.4,272.1,469.3,272.2z"/>
			<path class="st15" d="M464.6,254c-2.3,3.7-5.1,6.5-8.7,8.9c-2.5,1.7-7.1,2.7-9.1-0.2c-0.1-0.1-0.2,0-0.2,0.1
				c1.6,3,5.4,2.3,8.1,1.2c4.2-1.8,7.8-5.9,10-9.9C464.9,253.9,464.7,253.9,464.6,254z"/>
			<path class="st15" d="M462.3,235.8c-1.9,3.1-4.9,5.1-8.2,6.5c-1.8,0.7-3.6,1-5.5,0.9c-2-0.1-3.4-1.4-4.8-2.7
				c-0.1-0.1-0.2,0.1-0.1,0.1c2.7,3,5.7,3.9,9.7,2.5c3.6-1.3,7.4-3.6,9.2-7.2C462.6,235.7,462.4,235.7,462.3,235.8z"/>
			<path class="st15" d="M460.1,216c-2.4,3.3-5,5.9-8.6,8c-3.2,1.8-7.4,3.4-10.6,0.8c-0.1-0.1-0.2,0.1-0.1,0.2
				c2.9,2.6,6.5,1.6,9.7,0.1c4.1-1.9,7.7-5,9.9-9C460.4,215.9,460.2,215.9,460.1,216z"/>
			<path class="st15" d="M460.9,204.2c-2.9,2.4-6.1,3.8-9.7,4.7c-3.2,0.8-8.1,1.3-10.4-1.7c0-0.1-0.2,0.1-0.1,0.1
				c1.9,2.9,5.6,2.8,8.7,2.4c4.4-0.5,8.3-2.6,11.6-5.4C461.1,204.2,461,204.1,460.9,204.2z"/>
			<path class="st15" d="M463.9,191.6c-2.6,1-5.3,1.2-8.1,1c-2.2-0.2-5.8-1.3-7-3.3c-0.1-0.1-0.2,0.1-0.2,0.1c1,2.1,4.1,3.2,6.2,3.6
				c3.1,0.5,6.3,0.4,9.1-1.1C464.1,191.8,464.1,191.6,463.9,191.6z"/>
			<path class="st15" d="M254.3,227.3c-5.4,2.9-11.7,3.8-16.8-0.2c-0.1-0.1-0.1,0.1-0.1,0.1c4.4,4.8,11.9,3.3,16.9,0.3
				C254.4,227.4,254.4,227.2,254.3,227.3z"/>
			<path class="st15" d="M264.7,244c-4.6,1.8-13.1,1.3-13.9-5.1c0-0.1-0.2,0-0.2,0.1c0,0.9,0.1,1.6,0.4,2.3c-5.3,3-14.1,0.2-17-5.1
				c-0.1-0.1-0.2,0-0.2,0.1c1.2,3.3,4.8,4.9,7.8,6c3.1,1.1,6.8,1.1,9.5-0.8c2,4.4,9.8,4.8,13.6,2.8
				C264.9,244.2,264.9,243.9,264.7,244z"/>
			<path class="st15" d="M261.8,258.8c-3.9,2.7-8.7,3-12.3,0.1c0,0,0-0.1-0.1-0.1c-0.4-0.3-0.8-0.7-1.1-1.1
				c-0.1-0.1-0.2,0.1-0.1,0.1c0.3,0.4,0.6,0.8,0.9,1.1c-3.8,1.4-7.5,0.9-11-0.9c-3.4-1.8-5.5-4.4-7.5-7.5c0-0.1-0.2,0-0.1,0.1
				c2.9,6.6,11.7,12.3,18.8,8.6c3.4,3.3,9,3,12.6-0.1C262.1,258.9,262,258.6,261.8,258.8z"/>
			<path class="st15" d="M264.2,272.6c-2.5,2.4-5.3,3.8-8.8,3.5c-2-0.1-4.5-1.4-6-3.1c0.2-0.2,0.4-0.3,0.7-0.5
				c0.1-0.1,0-0.3-0.1-0.2c-0.2,0.2-0.5,0.3-0.7,0.5c-0.3-0.4-0.6-0.9-0.8-1.4c0-0.1-0.2,0-0.2,0.1c0.1,0.5,0.3,1,0.6,1.5
				c-3.7,2.1-7.9,1.9-11.9,0.4c-4.2-1.6-6.4-4.9-8.2-8.8c0-0.1-0.1,0-0.1,0.1c1.3,4.9,4.7,8.2,9.4,9.7c3.6,1.2,7.8,1,11-1.1
				c1.3,1.9,3.9,3.1,6.1,3.4c3.5,0.5,6.9-1.5,9.2-4C264.4,272.6,264.3,272.5,264.2,272.6z"/>
			<path class="st15" d="M268.3,284.7c-2.8,2.8-5.9,4.8-9.9,5c-2.3,0.1-5.5-1-7.3-2.9c0-0.1,0.1-0.1,0.1-0.1c0.1-0.2,0-0.3-0.2-0.2
				c0,0-0.1,0.1-0.1,0.1c-0.4-0.4-0.7-0.9-0.9-1.4c0-0.1-0.2,0-0.2,0.1c0.2,0.6,0.4,1.1,0.8,1.6c-3.9,3.7-8.8,4.2-13.9,2.9
				c-3.8-1-8.4-3.1-10.2-6.8c0-0.1-0.1,0-0.1,0.1c1.6,4.5,7.4,6.8,11.6,7.6c4.8,0.9,9.4,0,12.8-3.5c1.7,2.1,4.9,3,7.4,3.1
				c4,0.1,7.9-2.3,10.3-5.3C268.6,284.7,268.4,284.5,268.3,284.7z"/>
			<path class="st15" d="M269.2,291c-0.8,3.4-3.8,7.1-6.9,8.7c-1.8,0.9-4.3,1.5-6.5,1.2c0.1-0.1,0.1-0.2,0.2-0.3
				c0.1-0.2-0.1-0.3-0.3-0.1c-0.1,0.1-0.2,0.2-0.3,0.4c-0.8-0.2-1.6-0.5-2.3-0.9c-0.1-0.1-0.2,0.1-0.2,0.2c0.6,0.6,1.3,1,2,1.3
				c-6.4,7.3-19.6,8.1-26.5,1c-0.1,0-0.2,0.1-0.1,0.1c3.1,4.4,9.9,5.7,15,5.1c4.6-0.5,9.1-2.5,12-6.2c2.5,0.5,5.6-0.5,7.6-1.5
				c2.9-1.5,5.9-5.8,6.4-9C269.5,290.7,269.3,290.9,269.2,291z"/>
			<path class="st15" d="M273.3,302.7c0-0.2-0.3,0-0.3,0.1c-0.1,3.7-1,6.9-3.4,9.9c-1.5,1.9-4.3,3.6-7,4c0-0.1,0.1-0.2,0.1-0.4
				c0.1-0.3-0.2-0.2-0.3,0c-0.1,0.2-0.1,0.3-0.2,0.4c-0.9,0.1-1.8,0-2.6-0.3c-0.1,0-0.2,0.1-0.1,0.2c0.8,0.4,1.6,0.6,2.5,0.6
				c-1.3,2.4-2.7,4.4-5.1,6.1c-3,2.1-6.5,3-10,3.4c-5.8,0.6-11.8-0.5-16.2-4.6c-0.1,0-0.1,0.1-0.1,0.1c4.5,5.4,12.2,5.7,18.7,4.7
				c5.6-0.9,10.9-4.4,13.2-9.7c2.6-0.2,5.4-1.9,7.1-3.7C272.2,310.7,273.6,306.4,273.3,302.7z"/>
			<path class="st15" d="M292.2,319c0-0.2-0.3,0-0.3,0.1c-0.3,8.4-9.9,14.4-17.9,12.9c-0.1-0.4-0.3-0.8-0.5-1.2
				c-0.1-0.2-0.3,0.1-0.3,0.2c1.9,5.7-2.7,11.7-6.8,15.1c-2,1.7-4.2,3-6.6,4.1c-2.9,1.3-6.3,2.5-9.4,2.3c-0.1,0-0.2,0.1-0.1,0.2
				c3,0.6,6-0.6,8.8-1.6c3-1.1,5.8-2.9,8.1-5c2.5-2.2,4.4-4.7,5.7-7.8c0.7-1.6,1.3-3.9,1-5.8c1.4,0.7,3.5,0.2,4.9,0
				c2.5-0.4,4.8-1.3,6.9-2.6C289.6,327.5,292.6,323.4,292.2,319z"/>
			<path class="st15" d="M303.2,327.1c-0.1-0.1-0.3,0.1-0.2,0.2c2,3.7,0.8,8.2-1.4,11.6c-2.6,3.9-6.7,4.8-11,4.4
				c-0.3-1.1-0.6-2.2-1.2-3.2c-0.1-0.1-0.3,0.1-0.2,0.2c0.4,1,0.7,2,0.8,3c0,0,0,0,0,0c-0.1,0-0.2,0.1-0.1,0.2c0.1,0,0.1,0,0.2,0
				c0.7,3.9,0,7.7-1.5,11.7c-0.8,2.1-2.2,3.8-3.7,5.4c-1.6,1.7-3.8,4.2-6.2,4.7c-0.1,0-0.1,0.2,0,0.2c1.7-0.1,3.3-1.4,4.5-2.5
				c2.1-1.8,4-3.9,5.3-6.3c2.1-3.6,3.1-8.6,2.2-13c4.2,1.1,8.1-0.5,11-3.9C304.3,336.3,305.5,330.9,303.2,327.1z"/>
		</g>
		<path class="st16" d="M469.1,272.9c0,0,4.4-8-4.7-18.4c0,0,5.1-6.5-2.5-17.8c0,0,4.4-8.6-2.2-20.3c0,0,4.3-3.6,0.9-11.6
			c0,0,1.3-1.2,2.1-3.7c-3.2,3.4-10.8,5.8-14,4.8c-3.3-1.1,2.3-8.2,8.3-10.4c3.9-1.4,5.5-0.7,6.2-0.2c-0.1-0.9-0.3-1.9-0.5-2.9
			c0,0,1.5-0.7,3.1-2.4c-2.9,1.2-5.5,1-6.1-1.2c-0.8-3,3.4-9,6.7-9.7c2.7-0.6,3.3,1.2,3.4,1.8c0.1-1.8-0.2-3.9-0.8-6.3
			c0,0,6.1-17.3-3.4-21.8c-5.9-2.8-9.9-1.9-13.3-0.9c-2.1,0.6-4,1.2-5.9,0.8c-4.9-1-10.7-5.7-17.7-3.2c-7,2.5-7.2,9.3-7.1,11.6
			c0,0-10,4.1-8.2,12.4c0,0-8.9,2.2-9.7,12c0,0-10.1,1.5-10.4,13.2c0,0-13.1,1.2-14.2,11.4c0,0-12.1-3-18.4,1.4
			c0,0-15.8-2.1-22.4,4.5c0,0-7.4-8.1-18.9-3.5c0,0-8.9-6.5-16.6-3.6c0,0-2.9-7.5-16.7-5.1c0,0-3.6-5.9-16.2-3.2c0,0-8.8-5-15.6,4.7
			c0,0-8.3-0.8-13.8,4.5c1.2-0.4,2.8-0.5,4.6-0.1c7,1.4,4.2,20.2-4.5,19.2c0,0,0.2,1.5,3.8,2.5c3.6,1,0.7,12-6,9.3
			c0,0,5.8,5.5,3.5,11.7c-2.4,6.2-7.6,3.7-8.8,1.8c0,0,0.1,2.6,3.1,5.4c3,2.8,6.1,9,3.1,11.5c-3,2.5-6.6-0.1-9-3.4
			c0,0-0.2,4.4,4.6,8.2c4.8,3.9,6.5,9.7,2,11.4c-3.5,1.4-8.6-2.4-10.9-8.4c0.1,1.8,0.6,3.8,1.4,5.8c0,0-2.8,5.4,1.8,19.2
			c0,0-6.4,10,3.3,20.3c0,0-4.4,26.2,19.7,28.8c0,0,5.8,17.9,27.4,12.3c0,0,6.1,14.5,27.6,5.5c21.5-9,9-44.4-5.1-64
			c-14.2-19.5-42.9-36.7-39.2-49.6c3.7-13,23.9-14.8,32.2-14.3c8.3,0.5,94.6,0.6,116.3-11.1c21.8-11.7,25.7,52.7,18.4,70.3
			c-2.8,6.8-6.4,29.3-3.1,37c1,2.3-6.8,5.4-7.4,7.4c-3.9,13.6-7.9,14.3-17.4,15.5c-6.9,0.8-14.3-1.9-21.4-4.6
			c-11-4.2-21.2-8.4-26.8,0.5c-9.3,14.6-12.7,35.1-12.7,35.1s-4.1,12.6,1.6,23.7c5.3,10.5,8.6,10.6,9.8,14.5c0-0.5-0.1-1-0.2-1.3
			c-0.9-1.8,4.9,1.4,9.5-0.3c4.6-1.8,3.6,0.8,2.3,5.7c-1.2,4.5,2.8,16.3,0.8,24.5c2.9-0.4,5.7-1.8,6.4-4.1c1.7-5.1,2-14.5,0.9-19.2
			c-1.1-4.7,10.3-17.6,8.2-33.9c0,0,12.4,17.2,29.6,6.9c0,0,23.9,6.1,27.2-16.9c0,0,14.1,1.1,14.3-20.6c0,0,10.6-0.7,7.5-19.1
			c0,0,8.3-5,5-17.4c0,0,10.2-3.8,5.9-19.7c0,0,11-5.7,0.7-26.1C470.3,289.5,474.4,280.6,469.1,272.9z M288.1,331.4
			c0.7-1,1.6-1.7,2.3-2.6c0.8-1,1.4-2.1,1.9-3.2c0.1-1.2,0.4-2.7,1.5-3.2c1.3-0.6,2.8,1.2,3.2,2.2c1.3,2.8,1.1,6.7-0.6,9.3
			c-1.6,2.5-4.4,3.6-7,1.6C288.2,334.5,287,333,288.1,331.4z M286.2,363.9c0.8-1.1,1.7-2.1,2.6-3.2c0,0,0-0.1,0-0.1
			c0.6-1.1,1.4-2.4,2.3-3.2c0-0.1,0.1-0.2,0.2-0.3c0.1-0.1,0.2-0.1,0.2,0c1.3-1,2.7-1,3.9,1.4c1.5,2.9,2.5,8.8-0.1,11.5
			c-2.5,2.6-8,0.9-10-1.8C284.1,366.8,285.3,365.1,286.2,363.9z M229.1,290.7c2.2-2.8,9.3,2.4,9.3,2.4s7.3,4.4,7.7,8.8
			c0.3,2.9-5.6,6.3-12.2,1.9C227.3,299.3,226.9,293.5,229.1,290.7z M229.4,313.8c-0.4-3.8,2.2-5,2.2-5c2.5-1.2,7.7,0.4,10.2,1.3
			c3.5,1.3,5.5,4.2,5.7,7.9c0.1,3.1-2,5.5-5.2,5.6C233.7,323.9,229.8,317.6,229.4,313.8z M254.1,345.2c-2.1,0.9-4.8,1.3-7,0.9
			c-3.8-0.7-7-3.2-9.5-6.1c-1.8-2.2-4.5-6-2.1-8.7c0.4-0.5,0.9-0.8,1.4-1.1c2.7-1.5,6.7-0.6,9.5-0.5c5.1,0.2,10.3,2.3,12.3,7.4
			C260,340.5,257.2,343.9,254.1,345.2z M278.9,351.8c-0.4,1.8-1.6,3.5-3.1,4.6c-2.9,2.1-6.7,3.3-10.3,3.2c-2.8,0-8.2-2.2-5.3-5.9
			c0.7-0.9,1.7-1.6,2.7-2.1c2-1,4.4-1.4,6.5-2C272,348.9,280.2,346.1,278.9,351.8z M270,317.6c0.4-1.4,2-6.9,4.5-6
			c1.9,0.7,1,3.4,1.1,4.9c0.2,2.8,1.5,5.4,1.8,8.2c0.1,1.1-1,1.6-1.9,1.5c-1.6-0.2-3.5-2.8-4.3-4c-1-1.3-1.2-2.9-1-4.4
			C270,317.9,270,317.8,270,317.6z M267.6,300.5c1.2,0.6,1.3,1.7,1.2,3c-0.3,2.5-1,6-3.2,7.6c-2.7,2.1-4.8-4.1-4.6-5.9
			c0.2-1.6,0.7-2.4,1.9-3.3c0,0,0-0.1,0.1-0.1C264.3,300.5,265.6,299.6,267.6,300.5z M264.5,291.2c0.5,0.9,0,2-0.6,2.7
			c-1.1,1.5-3.5,3.4-5.4,2.3c-1.3-0.8-1.3-3.1-0.4-4.2c0.6-1.2,2.2-1.5,3.7-1.6C262.7,290.4,264.1,290.4,264.5,291.2z M262.1,248
			c-0.5,0.8-1.6,1.2-2.3,1.9c-0.9,1-1.8,2.3-2.9,3.1c-1,0.7-2.1,0.8-2.6-0.6c-0.5-1.4-0.5-3.2,0-4.6c0.1-0.4,0.4-0.7,0.7-0.9
			c0-0.1,0.1-0.2,0.1-0.2c0-0.1,0.2-0.1,0.2,0c0,0,0,0.1,0,0.1c0.2-0.1,0.3-0.1,0.5-0.1c1.4,0,2.6,0.4,4.1,0.2
			c0.4,0,2.3-0.5,2.6,0.2C262.5,247.4,262.3,247.8,262.1,248z M261.5,238.4c-1.1,1.2-4,3.4-5.2,1c-1-2.1-0.1-5.1,1.6-6.6
			c0,0,0.1,0,0.1,0c1-1.1,2.4-1.7,4.1-0.5C264,233.7,262.9,236.9,261.5,238.4z M358.9,423.4c-9.5,0-13-7.6-13.3-11.5
			c-0.3-3.9,6.2-4.2,6.2-4.2c2.7-0.6,15.9-2,17.7,1.7C371.2,412.9,368.5,423.4,358.9,423.4z M366.9,399.8c-6.1-1.6,2.9-14,9.4-15.6
			c6.5-1.5,8.9,5,8.9,5C387.5,396.6,373,401.4,366.9,399.8z M410.6,399.6c-4.6,13.9-24,7.1-21.5,0.4c2.5-6.7,12.5-7.6,17.8-5.3
			C412.1,397,410.6,399.6,410.6,399.6z M433.3,390.4c-0.3,8.6-9,17.3-15.2,16.5c-6.1-0.7,4.6-17.4,9.9-19.8
			C433.5,384.8,433.3,390.4,433.3,390.4z M468.9,281.6c0.9,8.6-7.2,14-9.7,11.4c-2.5-2.6,4.1-9.9,6.7-12.1
			C468.5,278.6,468.9,281.6,468.9,281.6z M466.8,262.9c0.2,0.6,0.4,1.1,0.5,1.7c0.7,3.4-0.3,7.2-2.3,10.1c-1.4,2.1-5.5,6.8-8.6,5
			c-3.7-2.2,0.8-14.5,4.7-18.5C463.6,258.7,465.8,260.5,466.8,262.9z M462.3,242.4c2.9,4.6,0.3,11.4-3,15c-1.6,1.8-5.5,5-7,1.1
			c-1.9-5,2.8-14.1,6.4-16.4C460.5,241,461.6,241.4,462.3,242.4z M460.1,233.1c-0.9,3.1-3,6-6.4,6.5c-7.5,1-2.5-12.7,1.5-15.7
			c2.1-1.6,3.4-1.5,4.2-0.6C461.5,225.8,460.9,230.3,460.1,233.1z M457,208.7c4.6-2,3.2,2.6,3.2,2.6c-2.7,7.7-12.2,13.3-12.3,8.7
			C447.8,215.3,452.5,210.7,457,208.7z M440,385.7c-4.9-1.5-0.2-21.4,3.9-22.8c4.2-1.4,5.2,6,5.2,6C450,379.8,444.9,387.1,440,385.7
			z M456.9,357.8c-0.2,2.6-2.2,8.3-5.8,5.2c-4.9-4.3-6.5-17.4-1.5-17.6c3.4-0.1,5.4,2.2,6.5,5.1
			C456.9,352.9,457.1,355.6,456.9,357.8z M454.7,343c-3.9-6.1-2.6-13.4,2.5-12.8c5.1,0.5,5.3,5.5,5.3,5.5
			C463.6,342.8,458.6,349.1,454.7,343z M462,327.6c-3.2-2.7-4.2-14,0.1-15c4.2-1,6.1,6.3,6.1,6.3C469.8,327.2,465.2,330.2,462,327.6
			z M471.6,300.7c1.2,9.5-5,7.8-7.8,5.1c-2.9-2.7-1.8-6.7,2.7-8.7C471,295.1,471.5,300.3,471.6,300.7z"/>
		<g>
			<path class="st9" d="M409.7,388.7c-4.4,0.1-9.3-0.8-14.7-3c-6.5-2.6-11.5-6-13.4-7.4c-6.3-4.6-9.3-3.5-9.3-3.5
				c0.1,0,0.1-0.1,0.1-0.1l-2.3-4.3c0.9-0.5,5.6-2.5,14.4,3.9c5.8,4.2,18.1,10.9,27.5,9.2c3.9-0.7,6.9-2.7,9.2-6.1
				c5.7-8.5,14-23.2,20.1-38.8c7.9-20.1,10.5-36.9,7.8-50.2c-0.6-2.9-1.1-5.5-1.6-8.1c-5.3-25.9-7.5-36.7-8.4-51.4
				c-0.3-4.7-0.6-9.3-0.8-13.3c-0.4-6.4-0.7-13-1-14.9c-0.7-1.1-0.4-2.5,0.6-3.3c0.7-0.5,1.7-0.6,2.5-0.2c1.5,0.7,1.7,2.1,2,6.7
				c0.2,2.9,0.4,6.8,0.7,11.5c0.2,4,0.5,8.5,0.8,13.2c0.9,14.4,3.1,25,8.3,50.7c0.5,2.5,1.1,5.2,1.6,8.1c2.9,14.2,0.2,31.9-8,52.9
				c-6.2,15.9-14.7,31-20.6,39.7c-3,4.5-7.2,7.2-12.3,8.1C411.9,388.5,410.8,388.7,409.7,388.7z"/>
			<path class="st10" d="M409.7,388.9c-4.4,0.2-9.4-0.9-14.8-3c-6.5-2.6-11.6-6-13.4-7.4c-4.4-3.2-7.2-3.6-8.4-3.6
				c-0.5,0-0.7,0.1-0.7,0.1l-0.1-0.2l-0.1,0l-2.4-4.4l0.2-0.1c0.4-0.2,1.3-0.6,3-0.7c2.3-0.1,6.2,0.7,11.6,4.6
				c5,3.6,15.8,9.7,24.9,9.4c0.8,0,1.6-0.1,2.4-0.2c3.8-0.7,6.8-2.6,9-6c5.7-8.5,14-23.1,20.1-38.7c7.8-20,10.5-36.9,7.8-50.1
				c-0.6-2.9-1.1-5.5-1.6-8.1c-5.3-25.9-7.5-36.7-8.4-51.4c-0.3-4.5-0.5-8.9-0.8-12.8l0-0.5c-0.4-6.4-0.7-12.9-1-14.8
				c-0.7-1.2-0.4-2.7,0.7-3.5c0.8-0.6,1.9-0.7,2.7-0.2c1.6,0.8,1.8,2.2,2.2,6.8c0.2,2.8,0.4,6.8,0.7,11.4l0,0.6
				c0.2,3.9,0.5,8.2,0.8,12.8c0.9,14.4,3.1,25,8.3,50.7l0.1,0.6c0.5,2.4,1,4.9,1.5,7.5c2.9,14.2,0.2,32-8,53
				c-6.2,16-14.7,31-20.6,39.7c-3,4.5-7.2,7.3-12.5,8.2C411.9,388.8,410.8,388.9,409.7,388.9z M373.1,374.5c1.3,0,4.1,0.4,8.6,3.7
				c1.9,1.4,6.8,4.8,13.3,7.4c6.6,2.6,12.7,3.6,17.7,2.6c5.1-0.9,9.2-3.6,12.2-8c5.8-8.7,14.3-23.7,20.6-39.6
				c8.2-20.9,10.9-38.7,8-52.8c-0.5-2.6-1.1-5.1-1.5-7.5l-0.1-0.6c-5.2-25.7-7.4-36.4-8.3-50.7c-0.3-4.5-0.5-8.9-0.8-12.8l0-0.6
				c-0.3-4.6-0.5-8.5-0.7-11.4c-0.3-4.5-0.5-5.8-1.9-6.5c-0.7-0.3-1.6-0.3-2.3,0.2c-1,0.7-1.2,2-0.6,3l0,0.1
				c0.3,1.9,0.7,8.5,1.1,14.9l0,0.5c0.2,3.9,0.5,8.3,0.8,12.8c0.9,14.7,3.1,25.4,8.4,51.3c0.5,2.5,1.1,5.2,1.6,8.1
				c2.7,13.3,0.1,30.2-7.8,50.3c-6.1,15.6-14.4,30.3-20.1,38.8c-2.3,3.4-5.3,5.4-9.3,6.2c-0.8,0.1-1.6,0.2-2.5,0.3
				c-9.2,0.3-20.2-5.8-25.2-9.5c-5.3-3.9-9.1-4.6-11.4-4.5c-1.3,0.1-2.2,0.4-2.6,0.5l2.1,4C372.7,374.5,372.9,374.5,373.1,374.5z"/>
		</g>
		<path class="st17" d="M453.8,287.7c-0.6-2.9-1.1-5.5-1.6-8.1c-5.2-25.7-7.4-36.3-8.3-50.7c-0.3-4.7-0.6-9.2-0.8-13.2
			c-0.3-4.6-0.5-8.6-0.7-11.5c-0.3-4.6-0.5-5.9-2-6.7c-0.8-0.4-1.8-0.3-2.5,0.2c-1,0.8-1.3,2.2-0.6,3.3c0.3,1.8,0.7,8.5,1,14.9
			c0.2,4,0.5,8.5,0.8,13.3c0.9,13.6,2.8,23.9,7.3,46c0.3-0.5,0.7-0.9,1.3-0.9c1,0.1,1.4,2,1.6,2.7c0.7,2.4,1.2,4.9,1.8,7.4
			c1.4,5.3,2.5,11,2.4,16.5c0,4.7-0.7,9.3-1.6,13.8c-1.1,5.2-2.3,10.5-4,15.6c-1.6,4.9-3.6,9.6-5.8,14.2c-2.6,5.5-4.9,11.5-7.8,16.9
			c-2,3.9-4.3,7.7-6.7,11.5c-1.8,2.9-3.9,5.6-6.4,7.9c-4.9,4.6-11.1,6.7-17.8,5.5c-4.2-0.7-8.2-2.3-11.9-4.3c-2-1.1-4-2.4-6.1-3.4
			c-1.7-0.9-3.6-1.7-5.1-2.9c-2.1-1.8-0.5-2.5,1.7-3c-7.2-4.4-11.1-2.7-11.9-2.3l2.3,4.3c0,0,0,0-0.1,0.1c0,0,3-1.1,9.3,3.5
			c1.9,1.4,6.9,4.8,13.4,7.4c5.4,2.2,10.3,3.1,14.7,3c1.1,0,2.1-0.1,3.2-0.3c5.2-0.9,9.3-3.6,12.3-8.1c5.9-8.7,14.3-23.7,20.6-39.7
			C454,319.6,456.7,301.8,453.8,287.7z"/>
		<path class="st18" d="M448.4,278.6c0,0,0.2,0.6,0.5,1.6c0.3,1.1,0.7,2.6,1.2,4.6c0.5,2,1,4.5,1.4,7.3c0.4,2.8,0.8,6.1,0.7,9.7
			c-0.2,3.5-0.7,7.4-1.5,11.3c-0.8,4-1.7,8.1-2.9,12.4c-1.2,4.3-2.6,8.6-4.2,13c-0.4,1.1-0.9,2.2-1.3,3.3c-0.2,0.5-0.5,1.1-0.7,1.6
			c-0.3,0.5-0.5,1.1-0.8,1.6c-0.5,1.1-1.1,2.1-1.6,3.1c-0.6,1-1.1,2.1-1.6,3.1c-2.1,4.2-4.2,8.4-6.3,12.5c-2.1,4.1-4.3,8.2-6.7,11.9
			c-1.2,1.8-2.5,3.7-4,5.2c-1.5,1.6-3.3,2.8-5.2,3.6c-1.9,0.7-4,1-5.9,1c-1.9,0-3.8-0.2-5.5-0.6c-1.7-0.4-3.4-0.8-4.9-1.3
			c-1.5-0.5-2.9-1.2-4.2-1.9c-2.6-1.3-4.7-2.6-6.5-3.7c-3.5-2.2-5.4-3.6-5.4-3.6s0.5,0.3,1.4,0.9c0.9,0.6,2.3,1.4,4.1,2.5
			c1.8,1,4,2.3,6.5,3.5c1.3,0.6,2.7,1.3,4.2,1.7c1.5,0.4,3.2,0.9,4.9,1.2c1.7,0.3,3.5,0.6,5.4,0.5c1.9,0,3.8-0.3,5.6-1.1
			c1.8-0.7,3.5-1.9,4.9-3.4c1.4-1.5,2.7-3.3,3.9-5.1c2.4-3.7,4.5-7.7,6.6-11.8c2.1-4.1,4.1-8.4,6.3-12.6c0.5-1,1.1-2.1,1.6-3.1
			c0.6-1,1.1-2.1,1.6-3.1c0.3-0.5,0.5-1.1,0.7-1.6c0.2-0.5,0.5-1,0.7-1.6c0.4-1.1,0.9-2.1,1.3-3.2c1.7-4.3,3-8.6,4.3-12.9
			c1.2-4.2,2.2-8.4,3.1-12.3c0.8-4,1.5-7.7,1.7-11.2c0.1-1.7,0-3.4-0.1-5c0-0.4-0.1-0.8-0.1-1.2c0-0.4-0.1-0.8-0.1-1.2
			c-0.1-0.8-0.2-1.5-0.3-2.2c-0.4-2.8-0.8-5.3-1.2-7.3C449.1,280.9,448.4,278.6,448.4,278.6z"/>
		<g>
			<path class="st9" d="M303.9,358.4c-2.8,0.1-6.4-1.2-9.7-7.6c-2.9-5.5-7.7-8.6-13.7-12.4c-3.2-2-6.9-4.4-10.6-7.3
				c-6-4.8-11.4-12.8-15.4-22.7c-4.6-11.4-7.2-25.1-7.4-39.6c-0.6-31.3,6.7-45.3,7-45.8c0.6-1.2,2.1-1.6,3.3-1
				c1.2,0.6,1.6,2.1,1,3.3c-0.1,0.2-7,13.7-6.5,43.5c0.6,31.3,11.7,51.1,21,58.6c3.5,2.8,6.9,5,10.2,7c6.4,4.1,11.9,7.6,15.4,14.2
				c3,5.7,5.1,5.2,6.4,4.9c0.7-0.2,1.6-0.4,2.6,0c1.2,0.6,1.8,2,1.2,3.2c-0.5,1-1.4,1.5-2.4,1.4c-0.1,0-0.1,0-0.2,0
				C305.4,358.3,304.6,358.4,303.9,358.4z"/>
			<path class="st10" d="M303.9,358.6c-3.9,0.1-7.1-2.4-9.9-7.7c-2.9-5.5-7.7-8.5-13.7-12.3c-3.2-2.1-6.9-4.4-10.6-7.4
				c-6-4.8-11.5-12.9-15.5-22.8c-4.6-11.4-7.2-25.1-7.4-39.6c-0.6-31.4,6.7-45.4,7.1-45.9c0.4-0.8,1.3-1.4,2.2-1.4
				c0.5,0,0.9,0.1,1.3,0.3c1.3,0.7,1.8,2.3,1.1,3.5c-0.1,0.1-7,13.6-6.4,43.4c0.5,31.2,11.6,51,20.9,58.4c3.5,2.8,6.9,5,10.1,7
				c6.4,4.1,12,7.6,15.5,14.3c2.4,4.5,4.1,5,5.1,4.9c0.4,0,0.7-0.1,1-0.2c0.4-0.1,0.8-0.2,1.3-0.2c0.5,0,1,0.1,1.4,0.3
				c1.3,0.6,1.9,2.2,1.3,3.5c-0.5,1-1.5,1.6-2.6,1.5l-0.1,0C305.3,358.5,304.6,358.6,303.9,358.6z M256,221.9
				c-0.8,0-1.5,0.5-1.9,1.2c-0.3,0.6-7.6,14.5-7,45.7c0.3,14.5,2.8,28.1,7.4,39.5c4,9.8,9.4,17.9,15.4,22.6c3.7,3,7.3,5.3,10.6,7.3
				c6.1,3.9,10.9,6.9,13.8,12.5c2.7,5.2,5.9,7.6,9.6,7.5c0.6,0,1.3-0.1,2.1-0.3l0.2,0h0c1,0.1,1.8-0.4,2.2-1.3
				c0.5-1.1,0-2.4-1.1-2.9c-0.4-0.2-0.8-0.3-1.2-0.2c-0.4,0-0.9,0.1-1.2,0.2c-0.3,0.1-0.7,0.2-1.1,0.2c-1.2,0-3-0.5-5.5-5.2
				c-3.5-6.6-9-10.1-15.4-14.1c-3.3-2.1-6.6-4.2-10.2-7.1c-9.4-7.5-20.5-27.4-21.1-58.7c-0.5-29.8,6.4-43.4,6.5-43.6
				c0.6-1.1,0.2-2.4-0.9-3C256.8,221.9,256.4,221.9,256,221.9z"/>
		</g>
		<g class="st19">
			<path class="st20" d="M307.4,353.4c-1-0.4-1.9-0.2-2.6,0c-1.3,0.3-3.4,0.9-6.4-4.9c-3.5-6.6-9-10.2-15.4-14.2
				c-3.3-2.1-6.6-4.2-10.2-7c-9.4-7.5-20.5-27.3-21-58.6c-0.5-29.8,6.4-43.3,6.5-43.5c0.6-1.2,0.2-2.7-1-3.3c-1.2-0.6-2.6-0.2-3.3,1
				c-0.1,0.3-1.7,3.2-3.3,9.3c0.5-0.4,1-0.5,1.5-0.4c0,0,1.4-0.4,1,1.3c-0.4,1.6-7.6,29.1-1.1,59.6c6.5,30.5,19.2,35.9,25.5,41
				c6.3,5.1,14.9,6.8,19.1,15.7c0,0,1.2,2.7-0.1,3.1c-0.5,0.1-1,0.2-1.5,0.1c3,4.8,6.2,5.9,8.7,5.8c0.8,0,1.5-0.2,2.1-0.3
				c0.1,0,0.1,0,0.2,0c1,0.1,2-0.4,2.4-1.4C309.2,355.4,308.7,354,307.4,353.4z"/>
		</g>
		<path class="st18" d="M249.7,240.8c0,0-0.1,0.5-0.2,1.4c-0.1,0.5-0.1,1-0.2,1.7c-0.1,0.7-0.2,1.4-0.3,2.3
			c-0.1,0.9-0.2,1.8-0.3,2.8c-0.1,1-0.2,2.2-0.3,3.4c-0.1,1.2-0.1,2.5-0.2,3.8c0,1.3-0.1,2.8-0.1,4.2c0,1.5,0,3,0,4.6
			c0,1.6,0,3.2,0.1,4.9c0,0.8,0.1,1.7,0.1,2.6c0.1,0.9,0.1,1.7,0.2,2.6c0.1,0.9,0.2,1.8,0.2,2.7c0.1,0.9,0.2,1.8,0.3,2.7
			c0.4,3.7,1,7.4,1.8,11.2c0.4,1.9,0.8,3.8,1.4,5.7c0.3,0.9,0.5,1.9,0.8,2.8l0.4,1.4c0.2,0.5,0.3,0.9,0.5,1.4
			c1.2,3.7,2.8,7.4,4.6,10.8c1.8,3.4,3.8,6.6,6.1,9.5c1.1,1.4,2.4,2.8,3.6,4c1.2,1.3,2.5,2.4,3.9,3.5c1.3,1,2.7,1.9,4.1,2.8
			c1.3,0.9,2.6,1.7,3.9,2.5c2.5,1.6,4.8,3,6.8,4.4c2,1.4,3.5,2.9,4.7,4.1c1.1,1.3,1.9,2.5,2.4,3.2c0.3,0.4,0.4,0.7,0.5,0.9
			c0.1,0.2,0.2,0.3,0.2,0.3s-0.1-0.1-0.2-0.3c-0.1-0.2-0.3-0.5-0.5-0.9c-0.5-0.8-1.3-1.9-2.5-3.1c-1.2-1.3-2.7-2.7-4.7-4
			c-1-0.7-2.1-1.3-3.3-2c-1.2-0.7-2.4-1.4-3.6-2.2c-1.3-0.8-2.6-1.6-4-2.4c-1.4-0.8-2.8-1.7-4.2-2.7c-1.4-1-2.7-2.2-4-3.4
			c-1.3-1.3-2.5-2.6-3.7-4.1c-2.3-2.9-4.4-6.2-6.3-9.6c-1.8-3.5-3.4-7.1-4.7-10.9c-0.2-0.5-0.3-1-0.5-1.4l-0.4-1.4
			c-0.3-1-0.5-1.9-0.8-2.9c-0.6-1.9-0.9-3.8-1.4-5.7c-0.8-3.8-1.4-7.6-1.8-11.3c-0.1-0.9-0.2-1.8-0.3-2.7c-0.1-0.9-0.1-1.8-0.2-2.7
			c-0.1-0.9-0.1-1.8-0.1-2.6c0-0.9-0.1-1.7-0.1-2.6c-0.1-1.7,0-3.4,0-5c0-1.6,0.1-3.1,0.1-4.6c0.1-1.5,0.2-2.9,0.2-4.3
			c0.1-1.4,0.2-2.6,0.3-3.8c0.1-1.2,0.2-2.3,0.4-3.4c0.1-1,0.2-2,0.4-2.8c0.1-0.9,0.2-1.6,0.3-2.3c0.1-0.7,0.2-1.2,0.3-1.7
			C249.6,241.3,249.7,240.8,249.7,240.8z"/>
		<g>
			<g>
				<g>
					<path class="st21" d="M266.1,226c0,0-3.2,9.8,4,20.3c0,0-13.9,6.2-11.6,24c2.2,17.9,14.3,15.5,14.3,15.5s-6.3,14.7,3.4,23.7
						c9.7,9,21.8,7.4,21.8,7.4s16.2-1.8,6.5,20.4c-4.4,10.1-5.8,17-3.4,26.6c0.9,3.5,2.4,6.7,4.9,9.3c2.7,2.8,7.9,4.1,9.9,4.2
						c0,0-2.5,18.6,8.5,24.8c19.1,10.7,38.1-4.4,46.8-22.6c8.7-18.2,2.2-24,2.2-24s4.5,1.2,7.7,4.1c2.9,2.6,7.8,14.8,21.7,14.3
						c13.8-0.5,33.3-12.1,18.9-36.4c0,0,25.7,1.6,32-17.8c6.3-19.4-10.6-25.3-10.6-25.3s7.3-12.5,0.6-19.2c0,0,9.1-8.1,4.6-21.4
						c-2.9-8.7-6.8-8.3-6.8-8.3s6.1-8.5,3.7-20.9c-2.9-15.2-16.2-18.7-16.2-18.7s-21.6,22-82.7,22C285.2,228.2,266.1,226,266.1,226z
						"/>
					<path class="st22" d="M338.4,406c-4.8,0.2-9.5-1-14-3.6c-10.4-5.8-8.9-22.6-8.7-24.7c-2.3-0.2-7.2-1.6-9.8-4.3
						c-2.3-2.3-3.9-5.4-4.9-9.4c-2.6-10-0.8-17.1,3.4-26.7c3.4-7.8,4-13.5,1.7-16.9c-2.2-3.2-6.4-3.3-7.6-3.3c-0.3,0-0.4,0-0.4,0
						c0,0-0.5,0.1-1.5,0.1c-3.6,0.1-12.9-0.4-20.5-7.6c-8.9-8.3-4.4-21.4-3.6-23.6c-0.2,0-0.4,0-0.7,0c-2.7,0.1-11.6-0.8-13.5-15.8
						c-1.2-9.3,2.1-15.4,5-18.9c2.7-3.2,5.7-4.8,6.5-5.3c-3.7-5.4-4.6-10.6-4.6-14c-0.1-3.8,0.7-6.2,0.7-6.3c0-0.1,0.1-0.2,0.2-0.1
						c0.2,0,19.8,2.2,80.2,2.2c2.7,0,5.5,0,8.1-0.1c28.3-1,47-6.8,57.7-11.6c11.6-5.2,16.6-10.2,16.7-10.2c0-0.1,0.1-0.1,0.2-0.1
						c0.1,0,13.4,3.7,16.3,18.9c2.1,11.1-2.5,19.1-3.6,20.7c1.1,0.2,4.3,1.3,6.6,8.4c4.1,12.3-3.3,20.2-4.5,21.4
						c2.7,2.8,3.4,7,2.2,12.1c-0.9,3.4-2.3,6.2-2.7,6.9c2,0.8,16.4,7.4,10.5,25.5c-5,15.5-22.2,17.7-29.4,17.9c-1.1,0-2,0-2.4,0
						c5.4,9.3,6.3,17.7,2.6,24.4c-4.3,7.9-14.2,11.7-22,12c-11.1,0.4-16.5-7.2-19.7-11.7c-0.8-1.2-1.5-2.1-2.1-2.6
						c-2.4-2.2-5.5-3.4-6.9-3.9c1.4,1.8,4.7,8.4-2.6,23.7C364,395.2,351,405.5,338.4,406z M298.4,316.7c1.3,0,5.7,0.1,7.9,3.4
						c2.4,3.5,1.8,9.3-1.7,17.3c-4.2,9.5-5.9,16.5-3.4,26.4c1,3.9,2.6,6.9,4.8,9.2c2.6,2.7,7.7,4,9.8,4.2c0.1,0,0.1,0,0.1,0.1
						c0,0,0.1,0.1,0,0.1c0,0.2-2.4,18.5,8.4,24.6c4.5,2.5,9.1,3.7,13.8,3.5c12.5-0.4,25.3-10.6,32.7-26c4.5-9.3,4.8-15.3,4.3-18.7
						c-0.5-3.6-2.1-5.1-2.1-5.1c-0.1-0.1-0.1-0.2,0-0.3c0-0.1,0.1-0.1,0.2-0.1c0,0,4.5,1.2,7.8,4.2c0.6,0.6,1.3,1.5,2.1,2.7
						c3.2,4.5,8.5,11.9,19.4,11.6c7.7-0.3,17.3-4,21.6-11.8c3.6-6.6,2.6-15-2.8-24.3c0-0.1,0-0.1,0-0.2c0-0.1,0.1-0.1,0.2-0.1
						c0,0,1.1,0.1,2.8,0c7.1-0.2,24.1-2.4,29-17.6c1.8-5.5,2.7-13.3-2.9-19.7c-3.4-3.8-7.5-5.3-7.6-5.3c-0.1,0-0.1-0.1-0.1-0.1
						c0-0.1,0-0.1,0-0.2c0.1-0.1,7.2-12.4,0.6-18.9c0,0-0.1-0.1-0.1-0.2c0-0.1,0-0.1,0.1-0.2c0.1-0.1,8.9-8.1,4.6-21.1
						c-2.7-8.1-6.2-8.2-6.6-8.2c-0.1,0-0.2,0-0.2-0.1c0-0.1-0.1-0.2,0-0.2c0.1-0.1,6-8.5,3.7-20.7c-2.7-14.2-14.6-18.1-15.9-18.5
						c-0.7,0.7-5.8,5.4-16.7,10.2c-10.8,4.8-29.5,10.7-57.9,11.7c-2.7,0.1-5.4,0.1-8.1,0.1c-57.4,0-78-2-80.1-2.2
						c-0.4,1.3-2.6,10.4,4.1,20c0,0.1,0,0.1,0,0.2c0,0.1-0.1,0.1-0.1,0.1c-0.1,0.1-13.7,6.3-11.5,23.8c0.5,3.7,2.8,15.8,13.1,15.4
						c0.6,0,1-0.1,1-0.1c0.1,0,0.1,0,0.2,0.1c0,0.1,0.1,0.1,0,0.2c-0.1,0.2-6.1,14.6,3.3,23.5c7.6,7.1,16.7,7.6,20.3,7.5
						c0.9,0,1.4-0.1,1.4-0.1S298.1,316.7,298.4,316.7z"/>
				</g>
				<path class="st23" d="M353.3,245.2c-1.1,2.1-3,3.9-5.2,5.4c-11.8,7.6-26.8,10-40.6,9.7c-7.3-0.2-15.2-0.8-21.9-3.9
					c-6.1-2.9-12.2-6.3-16.4-11.6c0,0-0.2,0.1-0.1,0.1c3.6,5.5,9.8,8.6,15.5,11.5c0.4,0.2,0.8,0.4,1.3,0.6c-3.3,0.4-6.6,2-9.4,4.3
					c-3.9-0.1-6.9,1.4-9.8,3.9c-0.1,0.1,0,0.2,0.1,0.1c1.3-1,2.5-1.9,4.1-2.6c1.6-0.7,3.5-0.9,5.2-1.1c-4.7,4.1-7.5,10.2-5,16.1
					c0,0.1,0.2,0,0.2-0.1c-1.7-4.5,0.1-10,3-13.6c2.9-3.7,7.6-6.1,12.1-6.8c6.5,2.8,13.9,3.3,20.9,3.6c7.7,0.3,15.3-0.4,22.8-2.4
					c2.3-0.6,4.5-1.2,6.7-2c4.6-1,12-0.3,14.3,4.6c0,0.1,0.2,0,0.2-0.1c-0.8-2.5-3.3-3.6-5.5-4.5c-2.2-1-4.7-1.1-7-0.6
					c1-0.4,2-0.8,2.9-1.2c0,0,0,0,0.1,0c4.3-1.7,9.8-4.9,11.7-9.3C353.5,245.2,353.3,245.2,353.3,245.2z"/>
				<path class="st23" d="M351.8,360.8c-2.7,0.3-5,0.8-7.4,2.3c-1.5,0.9-2.9,1.9-4.3,3.1c1.8-3.1,2.8-6.6,2.5-10.2
					c0-0.2-0.3,0-0.3,0.1c0.2,13.8-15.2,23-27.8,21.1c-0.1,0-0.2,0.1-0.1,0.2c6.8,2.2,14.6-1,20.1-5c1.3-0.9,2.4-2,3.5-3.2
					c4.1-3.8,8-7,13.7-8C351.8,361,351.9,360.8,351.8,360.8z"/>
				<path class="st23" d="M413.6,331.5c-4.7-2.4-10.3-3.4-15.5-3.1c-0.1,0-0.1,0.1,0,0.1c4.7,0,9.3,1,13.6,2.9
					c4.2,1.8,9,4.7,11.4,8.8c0.1,0.1,0.2,0,0.2-0.1C421.5,336.1,417.3,333.4,413.6,331.5z"/>
				<path class="st23" d="M442.9,311.7c-6.6,8.9-22.1,12.2-31.7,6.5c3.9-3.1,7-7.4,8.7-12.9c0.1-0.2-0.2-0.1-0.2,0
					c-2,5.4-4.9,9.5-9.3,13.1c-4,3.3-10.2,5.2-15.3,5.9c-5.5,0.8-11.4,0.4-16.8-0.5c-5-0.8-9.8-2.9-14.4-4.8
					c-1.1-0.8-2.1-1.5-3.3-2.1c-6.7-3.7-15.2-4.8-22-0.7c-0.1,0.1-0.1,0.3,0,0.2c7.5-4,16.5-1.9,23.4,2.4c5.9,3.7,9.9,9.5,15.9,13.1
					c3,1.8,6.3,3.1,9.5,4.6c3.6,1.7,6.9,4.1,9.7,6.9c5.7,5.5,9.2,13.2,8.4,21.3c0,0.1,0.1,0,0.1,0c0.9-4.7-0.2-9.5-2.3-13.8
					c2,2,4.6,3.2,7.5,3.1c2.8-0.1,7.9-1.9,8.8-4.9c0-0.1-0.1-0.1-0.1,0c-1.4,3.5-8,4.8-11.2,4c-2.4-0.6-4.4-2.2-5.9-4
					c-0.9-1.6-2-3-3.1-4.4c-5.5-6.5-13.1-9-20.2-13c-5.4-3-9.3-7.7-14-11.5c13.7,7,33.9,7.8,46-1.8c5,4,12.4,3.5,18.3,2.2
					c1.2-0.3,2.4-0.6,3.6-1.1c3.9,0.4,5.6,3.3,6.1,6.9c0,0.1,0.2,0,0.2-0.1c-0.2-3.4-1.9-7-5.6-7c3.8-1.5,7.2-3.9,9.5-7.4
					C443.3,311.5,443.1,311.5,442.9,311.7z"/>
				<path class="st23" d="M443.3,293.3c-4,5.5-12,8.7-17.1,2.7c-0.1-0.1-0.2,0.1-0.1,0.1c4.9,6.7,13.7,3.4,17.5-2.7
					C443.7,293.2,443.5,293.2,443.3,293.3z"/>
				<path class="st23" d="M444.4,274.2c-2.9,3.2-10,7.3-12.5,1.6c0-0.1-0.2,0-0.1,0.1c2.5,6.2,10,2.3,12.8-1.6
					C444.7,274.2,444.5,274.1,444.4,274.2z"/>
				<path class="st23" d="M432.5,287.1c-3.5-0.7-5.7-4.1-6.2-7.5c0.2-1,0.3-1.9,0.4-2.9c0.1-1.2,0-2.3-0.1-3.5
					c-0.1-0.8-0.5-1.7-0.5-2.5c0.6-2.1,0.8-4.5,1-6.8c0.3-4.5,0.6-9-3.2-12.1c-0.3-0.2-0.6-0.4-0.9-0.6c0,0,0-0.1,0-0.1
					c0.5-2.5,0.5-5,0.1-7.4c-0.1-2.9-0.6-5.8-0.3-8.7c0.4-3.3,2.4-6,5.2-7.8c0.1-0.1,0.1-0.2,0-0.2c-5,3-6,8-5.6,13.2
					c-0.4-1.4-0.9-2.8-1.3-4.2c-1.5-4.3-5.1-8.9-9.8-9.8c-0.1,0-0.2,0.1-0.1,0.2c4.7,1.1,7.9,5.8,9.4,10c1.7,4.7,2.8,9.6,2.1,14.6
					c-3.3-2.1-7.7-2.8-11.5-3.2c-5.6-0.6-10.9,0.3-15.8,2.2c-4,0.9-8.2,0.7-10.2-3.6c-0.1-0.1-0.2,0-0.1,0.1
					c1.5,3.8,4.9,4.7,8.4,4.3c-4,1.7-7.8,4.1-11.4,6.7c-0.1,0.1,0,0.2,0.1,0.1c7.9-5.6,16.2-9.4,26.2-9.3c4.3,0,8.9,0.9,12.8,2.7
					c5.2,2.4,5.7,7.1,5.4,12.2c-0.3,5.3-0.8,10-5.1,13.6c-3.4,2.9-7.6,4.9-11.7,6.4c-4.5,1.8-9.4,2.8-14.2,3.1
					c-4.9,0.3-9.8-1.1-14.5-2.4c0.1-2.7-0.3-5.5-1-8c-0.7-2.7-2.1-5-3.8-6.9c5.2,3.2,10.7,4.7,17.2,4.1c2.9-0.2,5.7-0.9,8.3-1.9
					c1.8-0.1,3.6,0.1,5.5,0.6c2.2,0.6,5.2,1.5,6.3,3.7c0.1,0.1,0.2-0.1,0.2-0.1c-1.1-2.7-4.4-3.7-6.9-4.4c-1.2-0.3-2.3-0.5-3.5-0.4
					c3.1-1.4,5.8-3.5,8.1-6.1c0.1-0.1,0-0.2-0.1-0.1c-2.7,3-5.9,5-9.4,6.3c-1.4,0.2-2.7,0.5-4,1.2c-1.9,0.4-3.9,0.7-5.9,0.8
					c-6.4,0.4-11.7-1.8-17-4.8c-2.8-2.7-6.4-4.6-10.1-6.1c3.7-7.1,2.3-16.5-1.8-23.2c0-0.1-0.2,0-0.1,0.1c2.2,4.1,3.4,8.5,3.5,13.1
					c0.1,5.4-1.6,10.2-5.1,14.3c0,0.1-0.1,0.1-0.1,0.1c-10.1,11.9-28.4,14-43.1,11.8c-4-0.6-8-1.5-12.1-1.4
					c-3.9,0.1-7.8,0.8-11.5,1.9c-3.7,1.1-7.2,2.9-10.8,4.3c-1.8,0.7-3.7,1.3-5.6,2c-2.2,0.8-4.7,1.9-6.9,1.1c-0.1,0-0.2,0.1-0.1,0.1
					c2.8,1.2,5.9-0.4,8.6-1.3c4.2-1.4,8.1-3.2,12.2-4.9c4.9-1.9,10.4-2.8,15.6-2.7c4.6,0.1,9.2,1.4,13.8,1.8c3.4,0.3,7,0.4,10.6,0.2
					c3.5,0.8,6.6,2.3,10.2,2.9c3.5,0.5,7.1,0.7,10.6,0.5c0.2,0,0.3,0,0.5,0c2.4,0.1,4.5,0.7,6.7,2.1c1.6,1,4.7,3.3,4.4,5.4
					c0,0.1,0.2,0,0.2-0.1c0.6-2.2-2.1-4.2-3.6-5.4c-1.7-1.4-3.5-2.1-5.5-2.4c4.1-0.7,7.9-2.5,10.2-6.1c0.1-0.1-0.1-0.1-0.1-0.1
					c-3.4,4.8-9.6,6-15.1,6c-3,0-6-0.3-9-0.7c-2.9-0.4-5.5-1.6-8.3-2.3c11.6-0.9,23.2-5,30-14.8c0.5-0.7,1-1.4,1.4-2.2
					c5.4,3.2,11.4,5.8,14,11.9c1.6,3.6,2.1,8.5,1.5,12.4c-0.6,4.4-4.1,8-7.5,10.6c-6.4,4.8-15.6,5.8-23.4,6
					c-3.1,0.1-6.2-0.1-9.2-0.4c-1.2-0.2-2.3-0.4-3.5-0.7c-3.2-0.8-6.5-1.4-9.7-2.4c-3.6-1.1-7.1-2.2-10.8-3.1
					c-5.7-1.3-12-2.4-17.8-1.8c-2.7,0.3-5.4,0.8-7.9,2.1c-2.2,1.2-4.1,3-5.8,4.9c-0.1,0.1,0,0.2,0.1,0.1c2.2-2.3,4.8-4.4,7.9-5.4
					c2.8-0.9,6.1-1.1,9-1c4.7,0.1,9.5,0.8,14.1,1.9c1.5,4,0,7.3-2.2,10.7c-0.2,0.2-0.3,0.4-0.5,0.6c-1.8,2-4.1,3.7-6.5,5
					c-4.8,2.7-11.8,4.3-17.2,3c-0.1,0-0.1,0.1-0.1,0.1c2.6,1.2,5.9,0.6,8.7,0.3c3.5-0.5,6.9-1.7,9.9-3.5c3.5-2,6.9-5.2,8.4-9.1
					c1.1-2.3,1.4-4.9,0-7c1.6,0.4,3.2,0.8,4.8,1.3c1.5,0.4,3.1,0.9,4.7,1.3c7.4,6.2,10.4,18.3,10.2,27.5c-0.1,5.5-1.3,10.1-3.3,15.2
					c-2.1,5.2-5.4,9-8.9,13.2c-0.1,0.1,0,0.2,0.1,0.1c2.5-2.7,4.9-5.4,6.9-8.5c5.3-4.3,13-6,19.7-5c3.2,0.5,6.1,1.9,8.5,3.9
					c0.5,0.6,1,1.1,1.5,1.7c0.5,0.5,1,1,1.5,1.5c1.3,1.8,2.4,3.7,3.1,5.8c2.7,7.8-2.3,16-7.1,21.7c-5.4,6.3-12.4,9.5-20.4,11.5
					c-0.1,0-0.2,0.2,0,0.2c8.2-1.9,15-5.1,20.7-11.4c5.2-5.8,9.4-13.7,7.7-21.6c-0.3-1.5-0.9-3-1.7-4.4c3.2,2.5,6.9,4.2,11.1,5.2
					c0.1,0,0.3-0.2,0.2-0.2c-2.6-1-5.2-1.8-7.7-3.2c-1.6-0.9-3.1-2.1-4.5-3.5c-1.2-1.7-2.6-3.1-4.2-4.4c-1.7-1.8-3.4-3.5-5.3-4.9
					c-2.3-1.7-4.7-2.6-7.4-3.5c-0.1,0-0.2,0.1-0.1,0.1c2.8,1.2,5.2,2.5,7.6,4.4c0.9,0.7,1.8,1.5,2.6,2.3c-1.6-0.9-3.3-1.5-5.1-1.9
					c-6.4-1.2-15.2,0.2-20.3,4.8c0.5-0.8,0.9-1.6,1.3-2.5c2.3-5,3.8-9.8,4.1-15.3c0.2-5.4-0.5-10.5-2.1-15.6
					c-1.4-4.5-3.8-9.9-7.7-13c0.3,0.1,0.6,0.2,0.9,0.3c2.2,0.4,4.4,0.8,6.5,1.3c4.4,0.7,8.7,1.5,13.2,1.7c1,0,1.9,0,2.9,0
					c1.1,0,2.2-0.1,3.3-0.2c5.9-0.5,12-1.5,17.2-4.5l0,0c0.1,0.1,0.2,0,0.2-0.1v0c0.8,2.7,5.2,3.9,7.5,4.6c3.1,0.9,6.5,1.4,9.8,1.6
					c1,0.1,2.1,0,3.2-0.1c4.1,0.4,9.5,2,11.1,5.9c0,0.1,0.2-0.1,0.2-0.1c-1-3.4-5.2-5.4-9-6.1c4.3-0.7,8.7-2.2,12.1-4.5
					c0.1-0.1,0.1-0.3-0.1-0.2c-5.1,3.1-11.4,4.6-17.3,4.5c-3.2,0-6.5-0.8-9.6-1.6c-3-0.8-5.3-2.3-7.7-4.1c1.3-0.8,2.4-1.6,3.6-2.6
					c2.4-2.2,4.9-4.9,5.7-8.2c0.3-1,0.4-2.1,0.5-3.2c5,1.5,9.9,2.8,15.1,2.5c4.9-0.3,9.8-1.6,14.3-3.4c4.4-1.7,8.8-4.1,12.3-7.2
					c1.6-1.4,2.5-3.1,3.1-4.9c0.1,0.7,0.3,1.4,0.4,2c0.3,2.7-0.1,5.5-0.8,8c-1.3,4.4-4.3,7.9-8.2,10.2c-0.1,0-0.1,0.2,0,0.1
					c3.4-1.9,6-4.8,7.8-8.4c0.5-1,0.8-2,1.1-3c0.5,3.3,2.7,6.7,6.3,7C432.5,287.4,432.7,287.2,432.5,287.1z"/>
				<path class="st23" d="M442.1,244.3c-3.1,3.9-7.5,6.1-12.5,6.1c-0.1,0-0.2,0.2-0.1,0.2c4.8,0.2,10.3-1.7,12.8-6.2
					C442.4,244.3,442.2,244.2,442.1,244.3z"/>
			</g>
			<g>
				<path class="st24" d="M443.2,294.8c0,0,7.3-12.5,0.6-19.2c0,0,9.1-8.1,4.6-21.4c-2.9-8.7-6.8-8.3-6.8-8.3s6.1-8.5,3.7-20.9
					c-2.9-15.2-16.2-18.7-16.2-18.7s-21.6,22-82.7,22c-61.1,0-80.2-2.2-80.2-2.2s-3.2,9.8,4,20.3c0,0-13.9,6.2-11.6,24
					c2.2,17.8,14.3,15.5,14.3,15.5s-2.8,6.5-1.8,13.5c0.5-6.3,7.9-14.3,20.9-18.2c13.5-4,25.7-1.1,40.8,0.8
					c15.1,1.9,19.2,13.9,8.1,15.9c-11.1,2-25.8-7.9-42-6.6c-16.2,1.3-18.5,13.3-21.1,15.4c-1.6,1.3-3.2,0.5-4.2-0.3
					c0.7,1.1,1.6,2.2,2.6,3.2c9.7,9,21.8,7.4,21.8,7.4s16.2-1.8,6.5,20.4c-4.4,10-5.8,17-3.4,26.6c0.9,3.5,2.4,6.7,4.9,9.3
					c2.7,2.8,7.9,4.1,9.9,4.2c0,0-2.5,18.6,8.5,24.8c19.1,10.7,38.1-4.4,46.8-22.6c8.7-18.2,2.2-24.1,2.2-24.1s4.5,1.2,7.7,4.1
					c2.9,2.6,7.8,14.8,21.7,14.3c13.8-0.5,33.2-12.1,18.9-36.4c0,0,25.7,1.6,32-17.8C460.1,300.7,443.2,294.8,443.2,294.8z
					 M275.8,244.9c0.4-3.7,5.9-3.4,5.9-3.4c2.3-0.1,5.2,0.5,5.2,0.5c7.4,8.3,23.2,2.9,23.2,2.9c2.7,3,10.1,2.6,14.3,2.8
					c4.2,0.2,3.7,2.9,3.7,2.9c-2.1,5.2-12.4,6.1-12.4,6.1C285.7,260.3,275.4,248.7,275.8,244.9z M345.8,268
					c-2.7,5.4-15.9,7.5-29.8,4.4c-13.9-3.1-23-1.3-28.9,0.8c-5.9,2.1-14.2,4.8-13.2-1.7c1.1-6.5,5.5-8.6,5.5-8.6
					c3.7-1.7,4.3-2.4,13.9,0c9.6,2.4,22.4,1.2,32.1-1.6C335.3,258.6,348.5,262.6,345.8,268z M445,266.8c-0.8,3.4-3.6,8.7-7.5,9.5
					c-5.8,1.3-8.2-9.5-7.5-15.9c0.3-2.9,1.6-5.6,4.1-6.7c0.7-0.3,1.5-0.5,2.4-0.5C444.4,252.8,446.6,260.2,445,266.8z M424.7,236.1
					c1.4-8.9,8.1-9.3,8.1-9.3c4-0.5,9.9,1.4,9.4,9c-0.5,7.7-6.1,10.4-10.5,11.9C427.2,249.3,423.3,245,424.7,236.1z M383.7,258.5
					c0,0,9.2-7.8,19.7-8.4c10.5-0.6,12.2,5.5,8.3,11.1c-3.9,5.6-13.8,13.4-25.5,9.4C375.9,267,380.9,261.4,383.7,258.5z
					 M386.1,282.2c-3.2-2.8,1-7.1,14.7-8.8c9.4-1.2,10.2,4.8,10.2,4.8C412.6,284.3,391.7,287.1,386.1,282.2z M391.1,289.8
					c5.1,0.4,10.2-0.3,15.1-2c3.2-1.1,7.3-4.7,10.8-4c2.1,0.4,0.8,3.1,0.1,4c-0.4,0.5-0.8,1-1.2,1.5c-4.4,4.9-10.5,8-16.8,9.8
					c-4.4,1.2-11.3,2.2-15.5-0.4C378.5,295.4,379.9,289,391.1,289.8z M392.1,306.8c3,0.6,7.6,1.8,8.8,5.1c0.3,0.7,0.4,1.5,0.3,2.2
					c-0.2,3-3,5.6-5.8,6.6c-4.1,1.6-8.6,1.8-13,1.7c-7.4-0.2-16.1-2.2-21-8.4c-1.1-1.4-2-4.6-1.4-6.4c2-5.8,11.3-4.2,15.4-2.2
					C382.8,309.1,381.7,304.9,392.1,306.8z M354.6,276.2c6.4-2.2,9.8-9.6,9.8-9.6c1.5-3.2,6.4,1.1,2.5,6.7
					c-3.8,5.6-11.3,5.7-12.6,4.5C353,276.8,354.6,276.2,354.6,276.2z M306.4,310.7c-5.8,4.8-15.5,6-20.8,2.4
					c-5.3-3.6,1.8-11.3,1.8-11.3C299.4,291.3,312.2,305.9,306.4,310.7z M308.8,371.3c-9.1-7.4-4.6-26.2-0.8-33.8
					c2.1-4.3,3.8-9.5,3-14.3c-0.3-1.6-1.6-2.8-1.8-4.4c-0.2-1.4,1.1-3.4,2-4.4c0.8-0.9,1.8-1.5,2.9-1.9c3.3-1.3,7.5-0.4,10.4,1.4
					c4,2.5,5.6,7,5.9,11.6c0.4,7.7-1.5,15.3-4.4,22.4c-4.2,10.3-10.1,13.5-10.1,13.5c8.8-2.4,15.2-10.2,15.2-10.2s9.4,0.3,5.3,12
					C332.2,374.8,318,378.8,308.8,371.3z M355.7,396c-1.4,2.3-4,4.5-6.4,5.7c-9,4.6-23.7,2.7-29.5-6.3c-2.4-3.7-5.1-12.1,0.5-14.6
					c1.5-0.7,3.4-0.8,5-1.2c2.8-0.8,5.4-1.9,8.1-3.1c10-4.6,16.4,2.9,7.5,8.8c-8.3,5.6-13.5,5-14.2,4.9c11.8,2.2,18.4-2.3,26.1-5.5
					c2.3-1,4.3,0.4,4.9,2.6C358.5,390.4,357.3,393.5,355.7,396z M401.5,360.3c-1.2,2.3-3.7,3.8-6.3,2.7c-4.1-1.7-6.4-5.4-9.5-8.3
					c-3-2.8-7-3.7-10.8-5c-3.8-1.3-7.2-3.4-10-6.2c-3.5-3.5-7.3-6.7-10.8-10.1c-2.6-2.5-5.7-5.8-5.9-9.7c-0.2-3,2.2-5.1,5.1-5.5
					c4.4-0.6,8.8,2.1,11.9,5c4.2,3.9,7.6,8,12.5,11c3.1,1.9,7,3.1,10.2,4.9c4,2.2,7.3,5.2,10.3,8.6
					C400.9,350.9,403.9,356,401.5,360.3z M410.7,350.2c-10-1.1-12.9-11.8-10.9-16.5c2-4.7,9.4-2,9.4-2
					C423.4,337.5,420.7,351.3,410.7,350.2z M440.5,312.1c-2.6,2.7-5.7,4.9-9.2,6.3c-1.9,0.7-3.8,1.2-5.8,1.4c-2.1,0.2-4.8,0.2-6.6-1
					c-1.3-0.8-2.2-3-1.7-4.5c2.7-7.7,13.5-10.2,20.4-11.5c1.9-0.4,4.6-0.8,6.2,0.6C446.6,305.8,442.1,310.4,440.5,312.1z"/>
				<path class="st25" d="M326.6,390.3C326.6,390.3,326.6,390.3,326.6,390.3C326.5,390.3,326.6,390.3,326.6,390.3z"/>
			</g>
			<g>
				<path class="st26" d="M312.4,330.4c0,0-14.6,27.4-2.4,40c0,0,3.3,4,10.8,3c0,0-9.1,0.2-12.6-8.2
					C304.5,356.9,307,342.8,312.4,330.4z"/>
				<path class="st26" d="M318.7,384.8c0,0-1.6,10.1,8.5,15.5c10.1,5.4,21.1,2.2,26.7-4.4c0,0-7.7,6.8-19.7,5.7
					C322.1,400.6,318.4,387.9,318.7,384.8z"/>
				<path class="st26" d="M363.2,312.7c0,0,3.9,7.5,17.7,8.8c13.7,1.2,18.1-5.3,18.1-5.3s-7.6,6.3-18.2,4.5
					C370.2,318.8,363.2,312.7,363.2,312.7z"/>
				<path class="st26" d="M417.9,314.7c0,0,0,9.9,17,1.1C434.9,315.9,419.8,321.6,417.9,314.7z"/>
				<path class="st26" d="M381.6,295.5c0,0,2.2,5.1,14.8,2.9c12.5-2.2,16.8-8.3,16.8-8.3S396.4,303.7,381.6,295.5z"/>
				<path class="st26" d="M387,278.4c0,0-1.4,1.3,0.2,3.3c1.6,2,9.8,2.6,15.8,1.4C403,283.1,386,284.8,387,278.4z"/>
				<path class="st26" d="M384.6,267.2c-2.7-2.2-2.9-4.3-1.8-5.7c0-0.1,0-0.1,0-0.2c-1.1,1.1-1.8,2.5-1.3,4.2
					c1.2,4.2,10.8,7,21.3,2.1C402.8,267.6,391.1,272.6,384.6,267.2z"/>
				<path class="st26" d="M274.2,304.5c0,0-3-3.6-0.3-8.7c2.7-5.1,8.3-10.5,18.1-13.7c11.5-3.8,32.2-1.6,42.3,1.4
					c0,0-25.9-4.9-41.4-0.5C277.5,287.3,271.1,298.3,274.2,304.5z"/>
				<path class="st26" d="M274.9,272.8c0,0,1.2-8.9,8-10c6.9-1.1,12.9,3.7,26.1,2.4c13.2-1.3,17.6-4.1,22.5-3.9
					c0,0-6.7,1.8-13.5,3.4c-6.7,1.6-14.7,2.1-21.3,1c-6.6-1.1-11-3.5-16-0.6C275.7,268.1,274.9,272.8,274.9,272.8z"/>
				<path class="st26" d="M404.6,332.7c0,0-5.1,2.1-1.3,10.9c0,0,0.7,1.8,3.5,4.1c0,0-4.4-1.1-6.1-7.4
					C399.1,334,403.9,331.7,404.6,332.7z"/>
				<path class="st26" d="M435.3,254.8c0,0-5.3,1.1-4.4,9.8c0.9,8.7,3.9,10.2,3.9,10.2S427.6,260.9,435.3,254.8z"/>
				<path class="st26" d="M434.5,227.5c0,0-7.6-0.5-8.7,9.4c-0.8,7.2,2.2,9.3,5.2,9.2c0,0-4.1-0.8-4-7.5
					C427.1,228.5,433.6,227.7,434.5,227.5z"/>
				<path class="st26" d="M351.1,320.9c0,0,6-3,12.4,3c6.4,5.9,8.1,9.9,15.7,13.4c7.6,3.5,19.5,8.1,21.3,18c0,0-1.1-7.4-12-12.2
					c-12.7-5.5-14.6-5-19.5-11.3C364.1,325.5,359.5,320.3,351.1,320.9z"/>
				<path class="st26" d="M277.5,247c0,0,9.5,14.1,44.4,7.4C321.9,254.4,292.4,259.9,277.5,247z"/>
				<path class="st26" d="M287.8,313.4c0,0,10.3,2.4,19-4.8C306.8,308.7,299.8,318,287.8,313.4z"/>
			</g>
		</g>
		<g>
			<g>
				<path class="st13" d="M411.8,226.1c0,0,16.5-0.2,19.7-17c0,0,13.3,1.8,15-16.4c0,0,11.3-1.1,13.1-16c0,0,4,0.7,9.3-2.7
					c2.4-1.5,7.4-16.5-2.9-21.8c-5.8-3-10-1.9-13.4-0.9c-2.1,0.6-4,1.2-5.9,0.8c-5-1-10.8-5.7-17.9-3.2c-7.1,2.5-7.3,9.3-7.2,11.6
					c0,0-10.1,4.1-8.3,12.4c0,0-9,2.2-9.8,12.1c0,0-10.2,1.5-10.5,13.2c0,0-13.2,1.2-14.4,11.5c0,0-12.2-3-18.5,1.4
					c0,0-16-2.1-22.6,4.6c0,0-7.5-8.1-19.1-3.5c0,0-5.9-8.1-15.9-4.1c0,0-1.9-7.5-17.1-4.8c0,0-4.5-6.5-16.9-3.1
					c-3.4,0.9-6.2,3.7-4.8,8.1c0,0-8.7,0.7-11.9,7.2c-3.2,6.6,0.9,16.6,17.6,15.3c0,0,4,6.7,18.3,4.3c0,0,8.3,11.1,22.8,3.4
					c0,0,1.7,2.3,5,4.1c3.3,2.9,14.4,1.9,17.2-0.3c3.9,5.2,20.8,7.4,32-0.4c-0.2,0.2,11.5,5.2,19.4-3.7c0.4-0.5,1.2-2,2.1-3.5
					c0,0,6.1,5.5,17.9,0.3c3.6-1.6,5.9-4.5,7.4-8.7L411.8,226.1z"/>
				<path class="st14" d="M348.4,247.3c-7,0.2-13.4-1.7-15.8-4.6c-1.6,1.1-5.2,1.9-8.8,2c-3.9,0.1-7-0.5-8.5-1.8
					c-2.9-1.6-4.5-3.4-4.9-3.9c-3.2,1.7-6.3,2.5-9.3,2.6c-8.1,0.3-12.9-5.3-13.6-6.1c-1.6,0.3-3.2,0.4-4.7,0.5
					c-9.7,0.3-13.1-4-13.7-4.8c-8.1,0.6-14.2-1.5-17.1-5.9c-1.9-2.9-2.1-6.6-0.6-9.8c2.9-5.9,10.3-7.1,11.8-7.3
					c-0.5-1.8-0.4-3.4,0.4-4.8c0.9-1.6,2.5-2.8,4.6-3.3c2.2-0.6,4.2-0.9,6.1-1c7.3-0.3,10.5,3.4,11,4.1c1.8-0.3,3.5-0.5,5.1-0.6
					c9.4-0.3,11.6,4.2,12,5.3c1.6-0.6,3.3-1,4.9-1c6.3-0.2,10.3,4.3,11,5.1c2.1-0.8,4.3-1.3,6.4-1.3c7.1-0.2,11.8,4,12.6,4.8
					c3.7-3.6,10.3-4.6,15.1-4.8c3.8-0.1,6.9,0.2,7.4,0.3c2.1-1.4,5-2.2,8.8-2.4c4.4-0.2,8.6,0.7,9.6,0.9c0.5-4.2,3.2-7.5,7.7-9.5
					c3-1.4,5.9-1.8,6.6-1.9c0.2-6,3.1-9.3,5.5-11c2.3-1.6,4.5-2.1,5.1-2.2c0.8-9,8.5-11.6,9.8-12c-0.7-3.4,0.6-6.6,3.6-9.3
					c2-1.8,4.2-2.8,4.8-3.1c-0.1-3.4,0.8-9.4,7.3-11.7c1.3-0.4,2.5-0.7,3.9-0.7c3.4-0.1,6.6,1.2,9.4,2.3c1.7,0.7,3.3,1.3,4.8,1.6
					c0.5,0.1,0.9,0.1,1.5,0.1c1.3,0,2.6-0.4,4-0.8l0.4-0.1c1.6-0.4,3.4-0.9,5.5-1c2.7-0.1,5.3,0.5,8,1.9c4.9,2.5,6.2,7.1,6.3,10.5
					c0.3,5.2-1.9,10.7-3.4,11.7c-3.4,2.2-6.2,2.7-8,2.8c-0.6,0-1,0-1.2,0c-1.7,13.6-11.7,15.7-13.1,15.9
					c-1.4,14.5-10.1,16.4-13.8,16.5c-0.6,0-1,0-1.2,0c-3.2,15.9-17.9,16.9-19.8,17l-0.2,0.3c-1.6,4.4-4,7.2-7.5,8.7
					c-3.2,1.4-6.2,2.2-9.1,2.3c0,0,0,0,0,0c-5.1,0.2-8.1-1.8-8.8-2.4c-0.3,0.4-0.5,0.9-0.8,1.3c-0.5,0.9-0.9,1.6-1.2,2
					c-3,3.4-6.8,5.2-11.4,5.3c-4,0.1-7.3-1-8.1-1.5C360.3,245.3,354.5,247.1,348.4,247.3z M332.7,242.1l0.1,0.2
					c2.2,3,8.6,4.9,15.6,4.6c6.1-0.2,11.8-2,16.2-5l1.6-1.1L365,242c0.8,0.4,4,1.5,7.8,1.4c4.5-0.2,8.2-1.9,11.2-5.2
					c0.3-0.3,0.7-1.1,1.2-1.9c0.3-0.5,0.6-1,0.9-1.5l0.1-0.2l0.2,0.2c0,0,3,2.7,8.7,2.5l0,0c2.8-0.1,5.8-0.9,9-2.2
					c3.4-1.5,5.7-4.2,7.3-8.5l0,0l0.3-0.5h0.2c1.7-0.1,16.4-1,19.4-16.8l0-0.2l0.2,0c0,0,0.5,0.1,1.4,0c3.6-0.1,12.1-1.9,13.4-16.3
					l0-0.2l0.2,0c0.1,0,11.2-1.3,12.9-15.8l0-0.2l0.2,0c0,0,0.5,0.1,1.3,0.1c1.8-0.1,4.5-0.6,7.8-2.7c1.3-0.8,3.5-6.1,3.2-11.3
					c-0.2-3.3-1.4-7.7-6.1-10.1c-2.7-1.4-5.2-2-7.8-1.9c-2.1,0.1-3.8,0.6-5.4,1l-0.4,0.1c-1.4,0.4-2.8,0.8-4.1,0.8
					c-0.6,0-1.1,0-1.6-0.1c-1.5-0.3-3.1-1-4.8-1.6c-2.8-1.1-5.9-2.4-9.3-2.3c-1.3,0-2.5,0.3-3.7,0.7c-6.4,2.3-7.2,8.1-7.1,11.4v0.1
					l-0.1,0.1c-0.1,0-9.9,4.2-8.2,12.2l0.1,0.2l-0.2,0c-0.1,0-8.9,2.3-9.7,11.9l0,0.2l-0.1,0c0,0-2.5,0.4-5.1,2.2
					c-2.3,1.7-5.1,4.9-5.3,10.9v0.2l-0.2,0c0,0-3.3,0.3-6.7,1.9c-4.5,2.1-7,5.2-7.5,9.4l0,0.2l-0.2-0.1c-0.1,0-4.7-1.1-9.7-1
					c-3.7,0.1-6.6,0.9-8.6,2.3l-0.1,0h-0.1c0,0-3.3-0.4-7.4-0.3c-4.9,0.2-11.4,1.1-15,4.8l-0.2,0.2l-0.1-0.2c0-0.1-4.8-5.1-12.5-4.8
					c-2.1,0.1-4.2,0.5-6.4,1.4l-0.1,0.1l-0.1-0.1c0-0.1-4-5.3-10.7-5.1c-1.6,0.1-3.3,0.4-4.9,1.1l-0.2,0.1l-0.1-0.2
					c0-0.1-1.5-5.5-11.7-5.2c-1.6,0-3.3,0.2-5.1,0.6l-0.1,0l-0.1-0.1c-1-1.5-4.6-4.2-10.7-4c-1.9,0.1-3.9,0.4-6,1
					c-2,0.5-3.6,1.7-4.4,3.1c-0.7,1.4-0.8,3-0.3,4.7l0.1,0.2l-0.3,0c-0.1,0-8.6,0.7-11.7,7.1c-1.5,3-1.3,6.5,0.5,9.3
					c2.8,4.3,8.8,6.3,16.8,5.7l0.1,0l0.1,0.1c1,1.8,5.2,5,13.4,4.7c1.5-0.1,3.1-0.2,4.8-0.5l0.1,0l0.1,0.1c0,0.1,4.8,6.3,13.3,6
					c3-0.1,6.1-1,9.3-2.7l0.2-0.1l0.1,0.1c0,0,1.7,2.2,4.9,4l0.1,0c1.4,1.2,4.4,1.9,8.2,1.7c3.7-0.1,7.3-0.9,8.8-2L332.7,242.1z"/>
			</g>
			<g>
				<path class="st15" d="M285.7,203c-1.3,0.7-2.7,0.9-4,1.6c-1.2,0.7-2.3,1.8-3.2,2.9c-1.3,1.6-2.1,3.6-1.7,5.6
					c-3.3-0.2-6.4,2-7.9,4.9c-1.8,3.5-2.6,9.8,0.3,13c0.1,0.1,0.2-0.1,0.2-0.2c-4-6.3-0.6-17.2,7.5-17.4c0.1,0.3,0.2,0.7,0.4,1
					c0.1,0.2,0.4-0.1,0.3-0.2c-0.1-0.3-0.2-0.6-0.2-0.8c0.1-0.1,0.2-0.2,0-0.2c0,0-0.1,0-0.1,0c-0.5-2.9,1.1-5.3,3.4-7.3
					c1.5-1.3,3.5-1.5,5.1-2.7C285.9,203.1,285.9,202.9,285.7,203z"/>
				<path class="st15" d="M303.2,207.6c-3.2,1.2-6.1,2.2-8.2,5c-1.3,1.7-2.2,3.9-1.9,6c-3.5,1.4-5.4,3.4-6.7,7
					c-1.3,3.6-0.9,7.4,1.5,10.3c0.1,0.1,0.2-0.1,0.2-0.2c-1.7-2.8-2.3-5.6-1.6-8.8c0.9-3.9,3-6.4,6.5-8.2c0.1,0.8,0.4,1.5,0.8,2.2
					c0.1,0.1,0.3-0.1,0.3-0.2c-1.3-3.4-0.2-6.4,2.1-9c1.9-2.1,4.6-2.7,6.9-4C303.3,207.7,303.3,207.6,303.2,207.6z"/>
				<path class="st15" d="M318.7,212c-2.7,1.3-4.6,2.2-6.4,4.7c-1.3,1.9-2.1,4.1-1.7,6.3c-5.2,4-3.4,12.4,0.3,16.8
					c0.1,0.1,0.2-0.1,0.2-0.2c-3.3-4.6-5-12.2-0.5-16.5c0.1,0.7,0.4,1.5,0.8,2.2c0.1,0.1,0.3-0.1,0.2-0.2c-0.3-0.8-0.5-1.7-0.5-2.5
					c0,0,0,0,0,0c0.1-0.1,0.1-0.2-0.1-0.1c-0.2-2.5,0.7-4.7,2.5-6.9c1.4-1.8,3.4-2.4,5.2-3.6C318.8,212,318.8,211.9,318.7,212z"/>
				<path class="st15" d="M338.1,215c-3.4,1.7-5.5,7.6-3.9,11.2c-1.9,1.9-3,4.4-3.5,7.1c-0.4,2.7,0,7.4,2.3,9.3
					c0.1,0.1,0.2-0.1,0.2-0.1c-3.4-4.8-2.4-11.6,1.2-16c0.1,0.1,0.1,0.2,0.1,0.2c0.1,0.1,0.3,0,0.3-0.2c0-0.1-0.1-0.3-0.1-0.4
					c0.3-0.3,0.6-0.6,0.9-0.9c0.1-0.1,0-0.2-0.1-0.2c-0.3,0.2-0.6,0.5-0.8,0.7c-0.7-3.9,0.2-8.2,3.6-10.7
					C338.2,215.1,338.2,215,338.1,215z"/>
				<path class="st15" d="M365.7,224.3c1.4-4.7-1.7-11.4-6.1-13.1c-0.1,0-0.2,0.1-0.1,0.2c3.8,2.5,6.8,8,6,12.7
					c-0.2-0.2-0.4-0.4-0.5-0.5c-0.1-0.1-0.2,0.1-0.1,0.2c0.2,0.3,0.4,0.6,0.6,0.8c-0.1,0.4-0.2,0.8-0.4,1.2c-0.1,0.1,0.1,0.1,0.2,0
					c0.2-0.3,0.3-0.6,0.4-0.9c1.5,2.4,2.1,4.6,1.8,7.7c-0.2,3.2-1.3,6.3-2.8,9.2c-0.1,0.2,0.1,0.2,0.2,0.1
					C367.9,236.7,369.8,229.1,365.7,224.3z"/>
				<path class="st15" d="M382.8,220.1c0.9-4.2-0.7-9.6-5.1-10.6c-0.1,0-0.2,0.1-0.1,0.2c4.8,2.1,6.2,8.7,4,13.1
					c-0.1,0.2,0.1,0.1,0.2,0c0.4-0.7,0.8-1.5,1-2.4c3.4,1.4,4.4,5,4.5,8.4c0.2,4.5-2,8.5-4.9,11.8c-0.1,0.1,0,0.3,0.2,0.1
					c3.2-3.3,5.1-7.5,5.3-12.1C387.9,225.3,386.7,220.5,382.8,220.1z"/>
				<path class="st15" d="M410.9,214.6c-1.5-3.5-3.6-5.8-7.1-6.9c-0.3-2.3-1.2-4.3-2.8-6.1c-1.1-1.2-2.5-2.1-4-2.8
					c-1.6-0.7-3.2-0.4-4.9-0.7c-0.1,0-0.2,0.1-0.1,0.2c1.3,0.4,2.7,0.3,4.1,0.7c1.5,0.5,2.9,1.5,4.1,2.5c1.8,1.6,2.8,3.7,3.3,6
					c-0.4-0.1-0.7-0.2-1.1-0.3c-0.1,0-0.2,0.1-0.1,0.2c0.4,0.1,0.8,0.3,1.3,0.4c0.1,0.4,0.2,0.8,0.2,1.2c0,0.1,0.2,0,0.2-0.1
					c0-0.3-0.1-0.7-0.1-1c1.2,0.4,2.3,1,3.3,1.8c1.4,1.2,2.4,3.3,3.2,5c1.7,3.6,1.7,7.8,0.8,11.6c0,0.2,0.2,0.1,0.2,0
					C412.6,222.6,412.5,218.5,410.9,214.6z"/>
				<path class="st15" d="M416,196.3c0.3-2.9-0.5-5.7-2.6-8.1c-1.3-1.5-3.2-2.4-5-3.1c-2.1-0.8-4.1-0.2-6.2,0.1
					c-0.1,0-0.1,0.2,0,0.2c1.8-0.1,3.4-0.4,5.2,0c1.9,0.4,3.6,1.5,5,2.7c2.9,2.5,3.7,6.4,3,10.1c0,0.2,0.2,0.1,0.2-0.1
					c0.2-0.6,0.3-1.1,0.3-1.7c4.1-0.3,7.4,0.2,10.6,3.2c2.8,2.6,3.8,6.4,4.4,10.1c0,0.2,0.3,0,0.3-0.1
					C431.1,201.7,424.4,194,416,196.3z"/>
				<path class="st15" d="M440.8,182.4c-1.5-1.4-3.4-2.2-5.4-2.7c-0.6-0.1-4.9-0.7-5.3,0.2c0-0.1,0-0.1,0-0.1
					c-0.5-2.8-1.7-4.8-4.6-6.3c-4-2-8.5-1.5-12.7-0.5c-0.1,0-0.2,0.2,0,0.2c3.7-0.5,7.3-0.8,10.9,0.3c4.2,1.3,5.6,4.2,6.4,8.2
					c0,0.1,0.2,0,0.2-0.1c0-0.5-0.1-1-0.2-1.5c3.8-0.2,7.1,0.1,10.2,2.7c3.2,2.7,5,6.7,5.7,10.7c0,0.1,0.2,0,0.2-0.1
					C446,189.2,443.9,185.4,440.8,182.4z"/>
				<path class="st15" d="M452.2,165.6c-3.6-1.5-7.5-1.4-10.8,0.2c-1.3-3.2-4.7-4.8-8-5.5c-3.8-0.9-9-1.3-12.7,0.4
					c-0.1,0.1-0.2,0.3,0,0.2c3.6-1.5,7.9-0.9,11.7-0.3c3.7,0.5,6.8,2.2,8.6,5.3c-1,0.5-1.9,1.2-2.8,2c-0.1,0.1,0,0.1,0.1,0.1
					c0.9-0.7,1.9-1.3,2.9-1.8c0.1,0.1,0.2,0.3,0.2,0.4c0.1,0.1,0.2,0,0.2-0.1c0-0.2-0.1-0.3-0.1-0.4c3.2-1.4,6.7-1.4,10.3-0.1
					c4.5,1.6,7.9,5.8,7.6,10.7c0,0.1,0.2,0,0.2,0C460.5,171.6,456.8,167.6,452.2,165.6z"/>
			</g>
			<path class="st16" d="M465.9,152.3c-5.8-3-10-1.9-13.4-0.9c-2.1,0.6-4,1.2-5.9,0.8c-5-1-10.8-5.7-17.9-3.2
				c-7.1,2.5-7.3,9.3-7.2,11.6c0,0-10.1,4.1-8.3,12.4c0,0-9,2.2-9.8,12.1c0,0-1,0.1-2.4,0.7c1.7-0.3,3.4-0.1,4.9,1.3
				c3,2.7,2.6,6.2-0.1,8.9c-2.3,2.3-6.3,3.6-8.8,0.8c-2.4-2.6-1.8-5.9,0-8.5c-2.1,2-4,5.1-4.2,10.1c0,0-1,0.1-2.4,0.4
				c1.5,0.1,2.9,0.7,4,2c3.2,4.2-0.4,8.5-4.4,10.4c-1.9,0.9-4.2,1.6-6.3,0.8c-1.7-0.7-2.9-2.1-2.7-4c0.1-2.1,1.2-4.4,2.8-6.1
				c-0.2,0-0.3-0.2-0.1-0.4c-2.6,1.7-4.8,4.3-5.3,8.3c0,0-2.3-0.6-5.4-0.8c0.2,0.1,0.4,0.2,0.5,0.3c1,0.6,2.8,2,1.9,3.4
				c-0.9,1.5-2.8,2.4-4.5,2.7c-2,0.3-4.2,0.2-5.9-0.9c-1.4-0.8-2.9-1.9-3.1-3.7c0-0.3,0-0.5,0.1-0.8c-0.8,0.3-1.6,0.7-2.3,1.2
				c0,0-3.5-0.5-7.9-0.3c1.6,0.4,3,1.2,4.1,2.5c3.3,3.7-1.8,6-4.9,6.7c-2.1,0.5-4.2,0.7-6.3,0.8c-2.1,0.1-4.5,0.1-6.4-1
				c-2-1.1-1.6-3.5-0.3-5c0.1-0.1,0.2-0.2,0.2-0.2c-0.4,0.3-0.8,0.7-1.2,1c0,0-3.4-3.7-9.3-4.7c1.4,0.6,2.8,1.5,3.1,3
				c1,4.2-4.1,5.8-7.3,6c-1.9,0.1-3.7-0.1-5.5-0.5c-1.4-0.3-3.2-0.7-3.9-2.1c-0.6-1.3,0.4-3,1.4-3.8c0.7-0.6,1.5-1.1,2.3-1.5
				c-0.5-0.6-2.4-2.8-5.6-4.1c2.1,2.4-0.2,5.5-2.8,6.5c-2.1,0.8-4.4,1-6.6,0.8c-1.6-0.2-4.3-0.5-5-2.2c-1.1-2.5,1.7-4.1,4.2-5.2
				c-0.3-0.8-1.6-3.3-5.9-4.5c0.6,0.5,1,1.2,0.8,2.2c-0.2,1.5-1.7,2.4-2.9,3.1c-1.7,1-3.7,1.7-5.7,1.7c-1.7,0-7.3-0.4-7.4-3
				c-0.1-2.3,2-3.3,4-4.1c-0.3-0.4-1.3-1.5-3.1-2.4c-0.3,0.7-0.9,1.3-1.4,1.7c-1.7,1.6-3.8,2.8-6.2,3.2c-2.8,0.4-6,0-8.1-2.1
				c-0.7-0.7-0.9-1.4-0.8-2.1c-1.9,1.4-3,3.7-2,6.8c0,0-8.7,0.7-11.9,7.2c-3.2,6.6,0.9,16.6,17.6,15.3c0,0,4,6.7,18.3,4.3
				c0,0,8.3,11.1,22.8,3.4c0,0,1.7,2.3,5,4.1c3.3,2.9,14.4,1.9,17.2-0.3c3.9,5.2,20.8,7.4,32-0.4c-0.2,0.2,11.5,5.2,19.4-3.7
				c0.4-0.5,1.2-2,2.1-3.5c0,0,6.1,5.5,17.9,0.3c3.6-1.6,5.9-4.5,7.4-8.7l0.2-0.4c0,0,16.5-0.2,19.7-17c0,0,13.3,1.8,15-16.4
				c0,0,11.3-1.1,13.1-16c0,0,4,0.7,9.3-2.7C471.2,172.6,476.3,157.6,465.9,152.3z M263,221.9c-2.8,1.7-7.6,1.1-9.6-1.6
				c-1.9-2.5-0.7-5.2,1.3-7.1c0.6-0.7,1.3-1.2,2-1.5c0.1-0.1,0.3-0.2,0.4-0.2c0.1,0,0.1-0.1,0.2,0c2.6-1,5.8-0.3,7.8,1.9
				C267.5,216,265.8,220.2,263,221.9z M282.5,223.8c-0.4,3.8-6,3.9-8.7,3c-2.1-0.7-3.9-2-4.1-4.3c-0.2-1.7,0.3-3.7,1.8-4.6
				c1.4-1.3,3.7-1.2,5.5-0.3C279.2,218.5,282.8,220.9,282.5,223.8z M302.2,229.4c-0.1,4.3-5.8,4.9-8.8,3.9c-4-1.3-7.5-5-4.8-9.1
				c0.1-0.2,0.2-0.2,0.3-0.1c1.5-1,4.6-0.5,6-0.2C297.3,224.5,302.3,226.1,302.2,229.4z M325.2,235.3c-2.2,2.4-6.8,2.5-9.8,1.9
				c-3.7-0.8-6.4-3.2-6.3-6.9c-0.1-0.2-0.1-0.3-0.1-0.5c0.2-3.1,7.8-0.9,9.6-0.6c2.2,0.4,5.5,0.7,6.9,2.7
				C326.3,233,326.2,234.3,325.2,235.3z M354.5,238c-3.5,1.8-7.7,2.6-11.6,2.5c-1.5,0-3.1-0.2-4.6-0.6c-1.3-0.3-2.9-1-3.9-2
				c-0.8-0.8-1.3-1.9-1.5-3c-0.2-1-0.4-2.2,0.6-2.9c1.6-1.1,3.9-0.9,5.7-0.8c3.9,0.3,7.7,0.2,11.6,0.6c1.9,0.2,5.7,0.5,6.1,3.1
				C357.1,236.4,355.7,237.4,354.5,238z M382.4,229.6c-0.4,1.6-1.6,2.9-3,3.8c-1.6,1-3.3,1.7-5.1,2.1c-1.3,0.3-3,0.6-4.2-0.2
				c-1.3-0.9-1.3-2.8-0.8-4.1c0.5-1.3,1.3-2.1,2.4-2.7c2.3-1.9,5.8-2.7,8.6-2.1C381.9,226.7,382.8,227.9,382.4,229.6z M403.6,226.1
				c-3.1,3.5-9,4.7-12.3,0.8c-3.6-4.3,3.1-7.1,6.5-8.7c0.1-0.1,0.2-0.2,0.4-0.2c1.4-0.8,3.2-1.9,4.9-1.7
				C407.7,216.8,405.5,224,403.6,226.1z M425,152.5c1.7-2.8,6-3.8,9-3c1.5,0.4,3.4,1.5,2.9,3.4c-0.5,1.8-2.2,3-3.8,3.7
				c-2,0.9-7.4,2.5-8.9-0.1C423.3,155.2,423.9,153.7,425,152.5z M407.4,182.5c-1.7-1.7-0.2-4,1.5-5.6c1-1,2.2-1.9,3.7-2.2
				c1.5-0.3,4.2-0.7,5.4,0.5c2.4,2.4-0.4,5.9-2.5,7.3C413.4,183.9,409.4,184.5,407.4,182.5z M422.2,208.3c0,2.2-0.6,4.4-1.7,6.2
				c-0.8,1.3-2.3,3.3-4.1,3c-1.8-0.2-3.1-1.9-3.8-3.5c-0.8-1.7-1.3-3.5-0.8-5.4c0.2-0.5,0.4-1,0.8-1.4c0.4-1,1.1-1.9,2.1-2.8
				c1.3-1.2,3.1-2.4,5-1.6C421.6,203.6,422.2,206.4,422.2,208.3z M416.6,169.8c-2.4-2.9,2.1-6.2,4.2-7.5c0.2-0.1,0.2,0,0.3,0.1
				c2.3-1.2,4.9-1.4,7,0.7c2.4,2.5-0.5,5.9-2.9,6.8C423.1,170.7,418.4,171.9,416.6,169.8z M437.8,200.7c-1.2,1.3-3.3,3.4-5.2,2.4
				c-1.8-0.9-2.8-2.8-3.6-4.5c-0.8-1.9-1.8-3.9-1.5-6c0.2-2.1,1.7-3.8,3.1-5.3c0.8-1.1,1.9-2,3.3-2.2c2.1-0.3,4.2,0.7,5.3,2.6
				C441.6,191.5,440.9,197.4,437.8,200.7z M452.4,179.4c-1.7,4.1-6.5,5.5-9.7,2.1c-3.6-3.8-3.4-9.1,0.3-12.8
				c0.1-0.1,0.2-0.1,0.3-0.1c0.5-0.4,1.1-0.8,1.9-0.9c1.9-0.3,3.8,0.3,5.2,1.6C452.9,171.7,453.8,176,452.4,179.4z M463.5,163.7
				c-0.6,1.4-1.8,3-3.5,2.5c-1.2-0.3-2.2-1-3.2-1.6c-1.2-0.8-2.6-1.2-3.9-1.6c-1.6-0.5-4.2-1.3-4.2-3.5c0.1-1.4,0.7-2.7,1.5-3.8
				C454,148.1,466.9,155.5,463.5,163.7z"/>
			<g>
				<g>
					<path class="st27" d="M444.3,151.7c-0.1,0.2-9.4,21.5-29,43.3c-10.1,11.2-20,17.5-26.6,20.8c-7.1,3.6-11.9,4.6-11.9,4.6
						c0,0-0.1,0-0.1,0c-15.3,3.5-51.1,11.7-102.3-10.5c-2.5-1.1-4.5-1.9-6-2.5c-6.6-2.4-12-3.4-15.5-3.8c-3.4-0.2-7.4,0.2-8,3.1
						c0.1,0,0.3,0.1,0.5,0.1c0.1,0,10.6,1.4,21.3,5.2c1.4,0.5,3.3,1.3,5.7,2.4c12.3,5.3,37.5,16.2,73,15c10-0.3,20.8-1.6,32.3-4.3
						c0.6-0.1,5.6-1.2,13-4.9c7-3.5,17.5-10.2,28.2-22c20.2-22.3,29.9-44.9,30.3-45.8C449.6,151.2,445.9,149.5,444.3,151.7z"/>
					<path class="st28" d="M345.4,229.5c-35.5,1.2-60.9-9.8-73.1-15.1c-2.4-1-4.3-1.9-5.7-2.4c-10.7-3.8-21.2-5.2-21.3-5.2
						c-0.2,0-0.4,0-0.6-0.1l-0.2,0l0-0.2c0.5-2.4,3.2-3.5,8.2-3.3c3.4,0.4,8.8,1.4,15.5,3.8c1.6,0.6,3.5,1.4,6,2.5
						c24.5,10.6,48.6,15.6,71.6,14.8c13.7-0.5,23.8-2.8,30.5-4.3c0,0,0.1,0,0.1,0c0.2,0,4.9-1,11.9-4.6c6.6-3.3,16.5-9.6,26.5-20.7
						c16.5-18.2,25.6-36,28.8-42.9c0.2-0.4,0.2-0.4,0.2-0.4c0.7-0.9,1.6-1.1,2.3-1.1c1.1,0,2.3,0.5,2.7,1.2c0.2,0.3,0.3,0.6,0.1,0.9
						c-1,2.4-10.7,24.2-30.3,45.8c-10.7,11.8-21.3,18.5-28.3,22c-7.4,3.7-12.4,4.8-13,4.9C366.9,227.7,356,229.2,345.4,229.5z
						 M245.1,206.5c0.1,0,0.2,0,0.3,0c0.1,0,10.6,1.4,21.4,5.2c1.4,0.5,3.3,1.3,5.7,2.4c12.1,5.3,37.4,16.2,72.9,15
						c10.6-0.4,21.4-1.8,32.3-4.3c0.5-0.1,5.5-1.2,12.9-4.9c6.9-3.5,17.5-10.1,28.1-21.9c19.6-21.6,29.2-43.3,30.2-45.7
						c0.1-0.2,0-0.3-0.1-0.5c-0.3-0.5-1.3-1-2.4-1c-0.6,0-1.4,0.2-2,1c0,0-0.1,0.1-0.1,0.3c-3.2,6.8-12.4,24.7-28.9,43
						c-10.1,11.2-20.1,17.5-26.6,20.8c-7,3.6-11.8,4.6-12,4.6l-0.1,0c-6.7,1.5-16.9,3.9-30.6,4.3c-23.1,0.8-47.3-4.2-71.8-14.8
						c-2.5-1.1-4.4-1.9-6-2.5c-6.7-2.4-12.1-3.4-15.4-3.8c-0.7,0-1.4,0-2,0C247.5,203.8,245.6,204.8,245.1,206.5z"/>
				</g>
				<g class="st19">
					<path class="st20" d="M444.3,151.7c-1,2.8-7.1,18.5-14.4,29.2c-8,11.8-20.2,26.3-38.1,36.1c-17.9,9.8-48.8,10.1-48.8,10.1
						c-38.5,0.5-53.2-8.2-68.1-14.5c-14.9-6.3-22.9-6-24.3-7.1c-1.2-0.9,0.8-1.9,1.3-2.1c-3.1,0-6.5,0.5-7,3.1
						c0.1,0,0.3,0.1,0.5,0.1c0.1,0,10.6,1.4,21.3,5.2c1.4,0.5,3.3,1.3,5.7,2.4c12.3,5.3,37.5,16.2,73,15c10-0.3,20.8-1.6,32.3-4.3
						c0.6-0.1,5.6-1.2,13-4.9c7-3.5,17.5-10.2,28.2-22c20.2-22.3,29.9-44.9,30.3-45.8C449.6,151.2,446,149.5,444.3,151.7z"/>
				</g>
				<path class="st29" d="M255.4,204.8c0,0,0.7,0.2,2.1,0.5c1.4,0.3,3.4,0.9,6,1.6c2.6,0.8,5.7,1.7,9.1,3.1
					c3.4,1.4,7.2,3.2,11.5,4.9c4.2,1.7,8.9,3.4,13.9,4.9c5,1.5,10.4,2.7,16,3.6c5.6,0.9,11.5,1.4,17.5,1.7c6,0.3,12.1,0.3,18.1,0
					c6.1-0.3,12.1-1,18-2.1c5.9-1.1,11.6-2.6,16.9-4.7c2.6-1,5.2-2.2,7.6-3.5c2.4-1.3,4.7-2.7,6.8-4.2c4.1-3.2,7.8-6.5,11.2-9.6
					c3.3-3.1,6.3-6.1,8.8-8.8c0.6-0.7,1.2-1.3,1.8-2c0.6-0.6,1.1-1.3,1.7-1.9c1-1.2,2-2.4,2.8-3.4c0.8-1,1.5-2,2.2-2.8
					c0.6-0.8,1.1-1.5,1.6-2.1c0.8-1.1,1.3-1.8,1.3-1.8s-0.4,0.6-1.2,1.8c-0.4,0.6-0.9,1.3-1.5,2.1c-0.6,0.8-1.3,1.8-2.2,2.8
					c-0.9,1-1.8,2.2-2.8,3.4c-0.5,0.6-1.1,1.2-1.6,1.9c-0.6,0.7-1.2,1.3-1.8,2c-2.5,2.8-5.4,5.8-8.7,9c-3.3,3.2-7,6.5-11.1,9.8
					c-2.1,1.6-4.4,3-6.8,4.4c-2.4,1.3-5,2.5-7.7,3.6c-5.3,2.1-11.1,3.7-17,4.8c-5.9,1.1-12,1.8-18.1,2.2c-6.1,0.3-12.2,0.3-18.2,0
					c-6-0.3-11.9-0.9-17.6-1.8c-5.7-0.9-11.1-2.2-16.1-3.7c-5-1.5-9.7-3.3-13.9-5c-2.1-0.9-4.1-1.8-6-2.6c-1.9-0.9-3.7-1.7-5.4-2.5
					c-3.4-1.4-6.5-2.4-9-3.2C258.3,205.5,255.4,204.8,255.4,204.8z"/>
			</g>
		</g>
		<g>
			<path class="st13" d="M359.2,421.4c-2.9-0.5-5.7-1-8.1-2.9c-2.3-1.9-3.9-5.6-4.1-8.5c0-0.1-0.2,0-0.2,0.1
				c-0.2,3.1,1.2,6.2,3.2,8.6c2.1,2.6,6,3,9,3.1C359.2,421.8,359.4,421.5,359.2,421.4z"/>
			<path class="st13" d="M354.8,441.4c-0.4-3.8,1.1-8-1.4-11.3c0-0.1-0.2,0.1-0.1,0.1c1.1,2.2,0.7,4.6,0.5,7
				c-0.2,2.2-0.1,4.3,0.2,6.6c0.6,4.9,2.9,9.8,5.2,14.2c0.1,0.1,0.3,0,0.2-0.2C357.1,452.6,355.4,447.1,354.8,441.4z"/>
			<path class="st13" d="M378.1,397.3c0.7-0.5,1.3-1,1.9-1.5c-3.8,1.7-8.9,3.7-12.8,2.1c1,0.9,2.6,1.2,4.3,1.2
				C373.7,399,376.1,398.2,378.1,397.3z"/>
			<path class="st13" d="M240.8,210.8c-4,3.2-4.6,9.4-3,14.1C237.2,220.1,238.1,214.8,240.8,210.8z"/>
			<path class="st13" d="M236.4,235.9c-0.7-2-0.5-4.2,0.4-6c-2.6,2.9-2,6.9,1.4,9.4C237.3,238.2,236.7,236.8,236.4,235.9z"/>
			<path class="st13" d="M232.9,239.8c-2.9,4.3-1.9,9.6,1.8,13.2C232.5,248.9,231.2,243.9,232.9,239.8z"/>
			<path class="st13" d="M229.8,256.2c-1.2,4.4,0,9.2,3.5,12.2C230.8,265,229.3,260.5,229.8,256.2z"/>
			<path class="st13" d="M228.1,278.6c-0.2-0.7-0.3-1.4-0.4-2.1c-0.2-1.6-0.3-3.2,0-4.8c-1.4,3.9-1.3,7.5,1.3,10.9c0,0,0,0,0.1,0
				C228.8,281.3,228.4,280,228.1,278.6z"/>
			<path class="st13" d="M229.1,293.8c0,1.6,0.2,3,1.2,4.7c1,1.7,2.5,2.6,4.1,3.6c0.1,0,0.1,0,0.2-0.1
				C232.2,299.9,230.1,296.9,229.1,293.8z"/>
			<path class="st13" d="M236.1,319.9c-1-0.5-1.9-1.2-2.7-2c-0.8-0.8-1.4-1.8-2-2.9c-0.4-0.7-0.5-1.5-0.6-2.2
				c-0.1-0.5-0.2-1-0.4-1.5c0,1.3-0.2,2.3,0.2,3.6c0.3,1.2,1.1,2.3,1.8,3.2c1.5,2,4.1,3.2,6.6,3.4
				C237.9,321.1,237,320.5,236.1,319.9z"/>
			<path class="st13" d="M243.7,342.2c-0.1-0.1-0.2-0.1-0.3-0.2c-2.6-1.5-4.8-3.6-6.1-6.3c-0.4-0.7-0.8-1.4-1.1-2.2
				c0.7,6,5.9,10.1,11.6,10.9C246.4,343.9,244.9,343.1,243.7,342.2z"/>
			<path class="st13" d="M255,214.3c0.9-1.1,2-1.9,3.3-2.4c0.2-0.1,0.5-0.3,0.7-0.4c-2.5,0.2-4.2,1.4-5.2,3.8
				C254.3,215,254.6,214.6,255,214.3z"/>
			<path class="st13" d="M270.5,222c0-1.1,0.3-2.1,1-3c0.5-0.6,1.2-1,2-1.2c0.3-0.2,0.6-0.4,1-0.6c-1.2,0-2.3,0.4-3.2,1.2
				c-1.2,1.2-1.5,2.7-1.1,4.3c0,0.1,0.1,0.1,0.2,0C270.5,222.5,270.5,222.2,270.5,222z"/>
			<path class="st13" d="M293.7,224.1c-2-0.6-4.9,0-5.5,2.2c0,0.1,0.1,0.1,0.2,0c1-1.8,3.4-1.9,5.2-2
				C293.6,224.4,293.8,224.1,293.7,224.1z"/>
			<path class="st13" d="M309.8,230.2c0.5-0.8,1.4-1,2.5-1.1c0.3,0,0.5-0.1,0.9-0.1c1.4,0,2.9,0.2,4.3,0.4c-1.9-0.5-7.8-2.4-7.9,1
				C309.5,230.4,309.7,230.3,309.8,230.2z"/>
			<path class="st13" d="M338.5,231.8c0.6-0.1,1.2-0.2,1.8-0.2c-2.9-0.2-6.1,0-6.8,1.8C334.7,232.3,336.9,232.1,338.5,231.8z"/>
			<path class="st13" d="M372.3,228.7c-1.8,1.1-3.5,2.7-2.7,4.8C370,231.6,371,230,372.3,228.7z"/>
			<path class="st13" d="M394.4,220.5c-2.2,1.3-4.4,3.8-2.5,5.9c0,0,0,0,0,0C391.2,224.3,392.6,222.1,394.4,220.5z"/>
			<path class="st13" d="M413.2,209.8c0.1-1,0-2.2,0.4-3.1c0.1-0.2,0.1-0.3,0.2-0.5c-1.6,2-2.1,5-0.6,7.3
				C413.1,212.2,413.1,211,413.2,209.8z"/>
			<path class="st13" d="M429.7,196.8c-0.4-1.4-0.6-2.8-0.5-4.1c0-0.6,0-1.2,0.1-1.7c0.1-0.6,0.2-1.2,0.4-1.7c-2,2.7-1.7,6-0.1,8.9
				C429.8,197.7,429.8,197.3,429.7,196.8z"/>
			<path class="st13" d="M441.9,173.1c0-0.1,0.1-0.2,0.1-0.2c0-0.4,0-0.7,0-1.1c-1.4,3-1.8,6.8,1.3,8.9c0.1,0,0.1,0,0.2,0
				C442.6,178.3,441.4,175.8,441.9,173.1z"/>
			<path class="st13" d="M452.3,161.5c-0.8-0.5-1.5-1.2-2-2c-0.2-0.4-0.3-0.8-0.5-1.2c0-0.1,0-0.1,0-0.2c-0.5,2.2,1.5,3.7,3.6,4
				C452.9,161.9,452.6,161.7,452.3,161.5z"/>
			<path class="st13" d="M450.8,215.1c0.6-1,1.2-1.9,1.9-2.8l0,0c-1.6,0.8-3.3,3.3-3.4,5.2C449.7,216.7,450.4,215.7,450.8,215.1z"/>
			<path class="st13" d="M452.6,199.6c1-0.9,1.9-1.8,3-2.5c0,0-0.1-0.1-0.1,0c-2.5,1.5-5,2.8-5.8,5.7
				C450.2,201.5,451.7,200.4,452.6,199.6z"/>
			<path class="st13" d="M460.8,185.2c-0.3,0.6-0.5,1.2-0.6,2c0,0.9,0,2,1,2.5c0,0,0,0,0,0C460.8,188.3,460.6,186.7,460.8,185.2z"/>
			<path class="st13" d="M451.6,235.8c0.5-1.4,0.5-2.9,0.8-4.4c0.3-1.1,0.6-2.2,1.1-3.2c0.5-1,1-2,1.6-2.9
				c-2.8,2.9-4.4,6.3-3.7,10.4C451.5,235.7,451.6,235.8,451.6,235.8z"/>
			<path class="st13" d="M454.9,248.8c0.2-0.6,0.4-1.3,0.6-1.9c-2,3.1-4.1,7.4-2.4,11c0,0,0,0,0,0c0.2-0.7,0.1-1.6,0.2-2.3
				c0.1-0.9,0.2-1.9,0.3-2.8C453.9,251.5,454.4,250.1,454.9,248.8z"/>
			<path class="st13" d="M457.8,269c0-0.1-0.2-0.1-0.2,0c-1.4,2.5-3.2,7.5-0.3,9.6C455.7,275.7,456.6,272.1,457.8,269z"/>
			<path class="st13" d="M460,290c0,0.6,0.2,1.2,0.7,1.6c0.7,0.5,1.5,0.7,2.3,0.2c0.1-0.1,0.2-0.2,0.3-0.4
				C462.1,291.4,460.8,290.9,460,290z"/>
			<path class="st13" d="M464.2,302.4c0,0-0.1,0.1-0.1,0.1c0.3,1.2,1.5,4,3.2,3.4c0.1-0.1,0.3-0.2,0.3-0.3
				C466.1,305.1,465,303.8,464.2,302.4z"/>
			<path class="st13" d="M461.4,313.6c-0.8,0.5-1.2,1.7-1.4,2.5c-0.8,2.6,0,5.5,1.3,7.9C460.8,321.5,460.2,316.4,461.4,313.6z"/>
			<path class="st13" d="M454.9,331.5c-2.4,1.9-1.9,5.5-0.7,8c0,0.1,0.1,0.1,0.2,0.1C453.8,336.9,453.7,334,454.9,331.5z"/>
			<path class="st13" d="M448.6,356.2c0.1-0.5,0.1-1,0.2-1.5c-0.5-2.4-1.1-5.3,0-7.5c0.1-0.3,0.1-0.5,0.2-0.8
				C446.1,348.8,447.3,353.1,448.6,356.2C448.5,356.1,448.5,356.1,448.6,356.2z"/>
			<path class="st13" d="M441.4,371.1c0.5-2,1.1-4,2.3-5.6c0.4-0.8,1-1.5,1.6-2c-3.5,1.5-5,6.4-5,9.9c0,0,0,0,0,0.1
				C440.9,372.9,441.2,372,441.4,371.1z"/>
			<path class="st13" d="M421.3,396.2c-1.4,1.7-2.7,3.6-2.8,5.8c0,0.1,0.1,0.2,0.2,0.2c0.2-0.2,0.5-0.5,0.6-0.8
				c0.7-1.4,1.1-2.9,1.8-4.2C421.1,396.9,421.2,396.6,421.3,396.2z"/>
			<path class="st13" d="M390,400.9c0.8-1.7,2.4-3,4-4c0.8-0.5,1.6-1,2.5-1.4c-1.6,0.4-3,1.1-4.4,2.2
				C391.2,398.4,389.9,399.5,390,400.9C390,400.9,390,400.9,390,400.9z"/>
			<path class="st13" d="M261.4,356.5c0.5-2.3,2-3.9,3.8-5c-1.2,0.3-2.2,0.7-3.1,1.6C261.3,353.9,260.5,355.5,261.4,356.5
				C261.4,356.5,261.4,356.5,261.4,356.5z"/>
			<path class="st13" d="M288.2,368.8c-1.1-1-1.7-2.5-1.8-3.9c-0.1,0-0.1,0-0.1,0.1c-0.4,1-0.5,2,0.1,3c0.5,1,1.6,1.7,2.7,1.5
				c0,0,0.1,0,0.1,0C288.8,369.3,288.5,369,288.2,368.8z"/>
			<path class="st13" d="M266.9,202c2.1-0.8,4.2-1.2,6.4-1.4c0.4-0.2,0.9-0.4,1.3-0.5c-2.7-0.1-5.6,0.3-7.9,1.9
				C266.8,202,266.8,202,266.9,202z"/>
			<path class="st13" d="M283.6,205.4c1.1-0.5,2.3-0.8,3.6-1c0.4-0.1,0.9-0.2,1.3-0.4c0.6-0.1,1.1-0.3,1.7-0.4
				c-2.4-0.2-5.6,0.3-7.5,1.9C283,205.5,283.3,205.4,283.6,205.4z"/>
			<path class="st13" d="M300.4,210.4c1.7-0.8,3.4-1.2,5.3-1.6c0.6-0.2,1.1-0.5,1.7-0.7c-2.8-0.1-5.6,0.6-7.8,2.4
				C299.9,210.4,300.1,210.4,300.4,210.4z"/>
			<path class="st13" d="M316.3,214.8c0.4-0.3,0.9-0.6,1.4-0.8c0.4-0.3,0.8-0.6,1.3-0.8c1.5-0.8,3.1-1.3,4.8-1.7
				c-2.2,0.1-4.2,0.7-6.2,1.7c-0.8,0.4-2.1,1.4-2.6,2.4C315.4,215.3,315.8,215.1,316.3,214.8z"/>
			<path class="st13" d="M346.1,212.6c-3.2,0.4-6,1.3-8,3.9c-0.2,0.2,0.1,0.4,0.2,0.2c2.5-1.8,4.9-3,7.8-4
				C346.1,212.7,346.2,212.5,346.1,212.6z"/>
			<path class="st13" d="M384.5,203C384.5,203,384.5,203,384.5,203c0-0.1,0.1-0.1,0.1-0.1c0.1-0.1,0.2-0.2,0.2-0.3
				c0.1-0.1,0.1-0.2,0.2-0.2c0.2-0.2,0.3-0.5,0.5-0.7c0,0,0,0,0,0c-2.2,0.8-3.3,3.9-3.3,6.1C383.1,206.1,383.6,204.5,384.5,203z"/>
			<path class="st13" d="M398.1,188.6c-1.5,1.7-2.3,4.1-1,6.2c0,0,0.1,0,0.1,0.1C396.9,192.7,397.1,190.5,398.1,188.6z"/>
			<path class="st13" d="M408.3,178.9c0.2-0.3,0.3-0.6,0.5-1c-0.3,0.4-0.7,0.7-0.9,1.2c-0.2,0.5-0.3,1.2-0.2,1.7
				C407.7,180.2,408,179.5,408.3,178.9z"/>
			<path class="st13" d="M418,165.5c-0.9,1-1.6,2.2-0.8,3.4c0.1,0.1,0.2,0.1,0.4,0C417.4,167.7,417.5,166.5,418,165.5z"/>
			<path class="st13" d="M425,155.6c0.1-0.4,0.3-0.8,0.4-1c0.3-0.8,0.7-1.5,1.2-2.2c0.4-0.5,0.8-0.9,1.3-1.3c-1,0.5-2,1.2-2.6,2.1
				C425,153.7,424.5,155,425,155.6z"/>
		</g>
	</g>
</g>
</svg>
