<?xml version="1.0" encoding="utf-8"?>
<!-- Generator: Adobe Illustrator 24.2.3, SVG Export Plug-In . SVG Version: 6.00 Build 0)  -->
<svg version="1.1" id="Layer_1" xmlns="http://www.w3.org/2000/svg" xmlns:xlink="http://www.w3.org/1999/xlink" x="0px" y="0px"
	 viewBox="0 0 750 500" style="enable-background:new 0 0 750 500;" xml:space="preserve">
<style type="text/css">
	.st0{fill:#FCD4C5;}
	.st1{opacity:0.5;fill:#161615;}
	.st2{fill:#952C38;}
	.st3{fill:#6D101C;}
	.st4{opacity:0.5;fill:#AF2C38;}
	.st5{fill:#AF2C38;}
	.st6{opacity:0.4;fill:#F5B8B1;}
	.st7{fill:#8C262D;}
	.st8{fill:#48040D;}
	.st9{fill:#85A85A;}
	.st10{fill:#B6E87F;}
	.st11{fill:#F4B6B0;}
	.st12{fill:#BC546A;}
	.st13{opacity:0.8;fill:#F4B6B0;}
	.st14{opacity:0.2;}
	.st15{fill:#F28C8F;}
	.st16{fill:#CF5A46;}
	.st17{fill:#BA443C;}
	.st18{opacity:0.4;fill:#EA7383;}
	.st19{opacity:0.5;fill:#EA7383;}
	.st20{fill:#FFFFFF;}
	.st21{opacity:0.5;}
	.st22{fill:#EA7383;}
	.st23{fill:#CF5158;}
	.st24{fill:#6C101D;}
	.st25{fill:#A41D2C;}
	.st26{opacity:0.4;fill:#C05058;}
	.st27{fill:#AE2D38;}
	.st28{fill:#E1545B;}
	.st29{fill:#DF656C;}
	.st30{fill:#BB564E;}
	.st31{opacity:0.6;fill:#FFFFFF;}
</style>
<g>
	<g>
		<path class="st0" d="M464.2,267.8c-1.4-1.2-3.3-4.2-5-9.3c-1.7-5.1-8.7-7.5-10.7-11.4c-2-3.9-3.5-16-3.6-28.9
			c-0.1-13-2.7-27.9-5-34.3c-2.3-6.5-4.5-13.6-3.8-21.7c0.8-8.1,0.5-16.3-0.6-20.5c-1.1-4.2-1.5-3.9,0.1-12.5
			c1.7-8.6-1.7-18.1-6.8-27.1c-5.1-9-16.1-9.2-19-11.3c-2.9-2.1-8.4-3.3-13.7-6.3c-5.3-3-8.7-3.9-8.7-6c0-2.1-0.2-7.7,2-12.2
			c2.1-4.5,2.1-9,2.1-9c2.3,1.2,2.4-0.9,4.4-5c2-4.1,2.6-6.8,2.1-8.9c-0.4-2.1-2.4-1.8-2.4-1.8s3.5-13.1-3.3-21.5
			c-5.4-6.7-13.6-8-16.7-8.2v-0.1c0,0-0.2,0-0.6,0c-0.4,0-0.6,0-0.6,0v0.1c-3.1,0.2-11.3,1.5-16.7,8.2c-6.8,8.4-3.3,21.5-3.3,21.5
			s-2-0.3-2.4,1.8c-0.5,2.1,0.2,4.8,2.1,8.9c2,4.1,2.1,6.2,4.4,5c0,0,0,4.5,2.1,9c2.1,4.5,2,10.1,2,12.2c0,2.1-3.5,3-8.7,6
			c-5.3,3-10.8,4.2-13.7,6.3c-2.9,2.1-13.9,2.3-19,11.3c-5.1,9-8.4,18.5-6.8,27.1c1.7,8.6,1.2,8.3,0.2,12.5
			c-1.1,4.2-1.4,12.3-0.6,20.5c0.8,8.1-1.5,15.2-3.8,21.7c-2.3,6.5-4.8,21.4-5,34.3c-0.1,13-1.7,25-3.6,28.9c-2,3.9-9,6.3-10.7,11.4
			c-1.7,5.1-3.6,8.1-5,9.3c-1.4,1.2,2.9,3.5,4.8,0c2-3.5,3.3-5.3,4.5-4.7c1.2,0.6-0.5,6.9-2,13.6c-1.5,6.6-3,11-0.3,11
			c2.7,0,4.5-10.1,5.3-12.2c0.8-2.1,0.6,5.1-1.4,10.2c-2,5.1-1.5,6.8,0,7.1c1.5,0.3,3-4.2,3-4.2s2.9,2.3,6.1-5.7c0,0,3.1,2.2,6-6.9
			c2.9-9.1,5.1-21.1,4-26.7c-1.1-5.6,12.7-29.8,14.2-50.5c1.6-20.7,4.5-36.7,5.6-37.8c1.1-1.1,7.6,19.6,4.9,30.5
			c-2.7,10.9-2.9,16.2-3.1,18.3c-0.2,2-3.8,10.2-4.9,19.4c-1.1,9.1-5.1,18.9-1.6,50.5c3.6,31.6,9.3,42.1,10,48.5
			c0.7,6.5,0.7,23.4,0.4,26.7c-0.2,3.3-1.3,8-1.6,11.6c-0.2,3.6-5.6,16,0.4,40.7c6,24.7,7.3,38.9,7.3,41.6c0,2.7-1.3,3.1,0,6.7
			c1.3,3.6-3.6,11.1-7.2,14.1c-3.6,3.1-5,5.4-5.5,7c-0.5,1.6-0.3,3.2,1,3.2c0,0-0.6,1.3,0.4,2.7c1,1.4,2.2,0.9,2.2,0.9
			s-0.1,1.6,1.5,2c1.6,0.4,2.3-0.1,2.3-0.1s0.9,1.8,2.7,1.7c1.8-0.1,2.2-1.5,2.4-2.5c0.2-1,0.8-3.1,1.8-3.1c1-0.1,1.6,0.8,1.2,1.7
			c-0.4,0.9-0.6,1.5-1.2,2.9c-0.6,1.4,0.8,3.2,4.5,2.6c3.7-0.7,2.2-4.2,4.4-6.7c2.3-2.5,3.2-4.4,3.1-8c-0.1-3.5,3.8-2.9,3.2-9.1
			c-0.6-6.2-1.9-8-0.7-11.3c1.2-3.3-0.8-7.3-1-8.9c-0.2-1.6,0.1-16.4,0.8-20.7c0.7-4.2,3.1-18.7,2.7-24.5
			c-0.4-5.8,2.9-10.2-0.4-24.7c-3.3-14.5,2-12.7,1.8-27.6c-0.2-14.9,3.8-19.8,2.9-33.6c-0.9-13.8,1.8-21.4,2.2-28.9
			c0.3-5.3,1.3-7.2,1.8-7.9c0.8,0.6,1.9,2.4,2.2,7.2c0.4,7.6,2.4,15.8,1.6,29.6c-0.9,13.8,1.8,18.7,1.6,33.6
			c-0.2,14.9,5.1,13.1,1.8,27.6c-3.3,14.5-1.3,18.9-1.8,24.7c-0.4,5.8,3.3,20.3,4,24.5c0.7,4.2,1,19.1,0.8,20.7
			c-0.2,1.6-2.2,5.5-1,8.9c1.2,3.3-0.1,5.1-0.7,11.3c-0.6,6.2,3.3,5.5,3.2,9.1c-0.1,3.5,0.9,5.5,3.1,8c2.3,2.5,0.7,6,4.4,6.7
			c3.7,0.7,5.1-1.2,4.5-2.6c-0.6-1.4-0.8-2-1.2-2.9c-0.4-0.9,0.2-1.8,1.2-1.7c1,0.1,1.6,2.2,1.8,3.1c0.2,1,0.6,2.4,2.4,2.5
			c1.8,0.1,2.7-1.7,2.7-1.7s0.7,0.5,2.3,0.1c1.6-0.4,1.5-2,1.5-2s1.2,0.5,2.2-0.9c1-1.4,0.4-2.7,0.4-2.7c1.3,0,1.5-1.7,1-3.2
			c-0.5-1.6-1.9-3.9-5.5-7c-3.6-3-8.5-10.6-7.2-14.1c1.3-3.6,0-4,0-6.7c0-2.7,1.3-16.9,7.3-41.6c6-24.7,2-37.2,1.8-40.7
			c-0.2-3.6-1.3-8.2-1.6-11.6c-0.2-3.3,1.1-20.3,1.8-26.7c0.7-6.5,6.5-16.9,10-48.5c3.6-31.6-3.1-41.4-4.2-50.5
			c-1.1-9.1-2-17.4-2.2-19.4c-0.2-2-0.4-7.3-3.1-18.3c-2.7-10.9,3.8-31.6,4.9-30.5c1.1,1.1,4,17.1,5.6,37.8
			c1.6,20.7,15.4,45,14.2,50.5c-1.1,5.6,1.1,17.6,4,26.7c2.9,9.1,6,6.9,6,6.9c3.1,8,6.1,5.7,6.1,5.7s1.5,4.5,3,4.2
			c1.5-0.3,2-2,0-7.1c-2-5.1-2.1-12.4-1.4-10.2c0.8,2.1,2.6,12.2,5.3,12.2c2.7,0,1.2-4.4-0.3-11c-1.5-6.6-3.2-13-2-13.6
			c1.2-0.6,2.6,1.2,4.5,4.7C461.3,271.3,465.5,269,464.2,267.8L464.2,267.8z"/>
		<path class="st1" d="M404.3,220.4c0.1-0.3,0.9-2.4-0.3-4.3c0,0,0,0,0,0c0.2-0.3,0.9-2.3-1.2-4.7c0.2-0.3,1.1-1.9-0.6-4.6
			c0.4-0.8,0.7-2.8-0.6-5.2c0,0,0-0.1,0.1-0.1c0,0,0,0,0,0c0.3-0.3,0.8-1.2,0.1-2.9c0.2-0.2,1-1.2,0.5-3.1c0,0,0.1-0.1,0.2-0.2
			c0,0,0,0,0,0c0,0,0,0,0,0c0.7-0.5,2.1-1.8,1.3-4.4c0,0,0-0.1,0.1-0.2c0.4-0.4,0.8-1.7,0.8-2.9c0-0.9-0.4-2-1.6-2.7
			c-0.7-0.4-1.4-0.5-2.1-0.5c-0.5,0-1,0.1-1.4,0.3l-0.1,0c-0.1,0-0.1,0-0.2,0c1-1.2,1.9-2.5,2.5-3.8c0.9-1.8,2-4.7,2.4-8
			c0.4-3.2,0-5.9-1.2-8.1c-0.7-1.4-2.8-4.8-6.4-5.6c-0.7-0.2-1.4-0.2-2.2-0.2h0c-0.7,0-1.5,0.1-2.4,0.4c-1.4-1-4.1-1.9-7.2-2.5
			l0-1.3c-0.6,0.1-1.3,0-1.9-0.1c-0.5-0.2-0.9-0.3-1.4-0.5c-0.1,0-0.2-0.1-0.3-0.1l0,1.2c-1.7-0.3-3.4-0.5-4.9-0.6
			c-1.4-0.1-2.8-0.2-3.9-0.2c-3.4,0-5.5,0.6-5.8,1.6c-0.8-0.4-1.8-0.6-3.2-0.6c-1.7,0-3.9,0.3-7.2,1c-8.6,2-12.7,6.2-12.9,13
			c-0.2,6,3,15.9,3,16c0.3,1.1,0.5,2,0.6,2.8c0.2,1.3,0.3,2.1,1.2,2.1c0.2,0,0.5-0.1,0.8-0.2c0.1,0,0.2-0.1,0.3-0.1l-0.1,0.1
			l0.8-0.4c1.2-0.7,2.1-1.6,2.9-2.4c0.3-0.3,0.5-0.6,0.8-0.8c0.4-0.4,1-0.8,1.5-1.2c0.8-0.6,1.5-1.2,2-1.7c0.3-0.4,0.9-0.7,1.5-1
			c0.6-0.3,1.2-0.6,1.7-1.1c0.9-1,1.8-1.5,4.3-2.1c0.5-0.1,1.1-0.3,1.6-0.4c2.7-0.6,5-1.2,5.5-2c1.4-0.2,4.4-1,6.9-2.9
			c0.9-0.7,1.7-1.3,2.4-1.9c1.3-1,2.5-2,4.1-3.1c0,0.1,0,0.1,0,0.2c0.1,1.8-0.6,3.7-1.7,5.2c-1.2,1.5-2.8,2.5-4.6,2.9
			c-0.7,0.2-1.4,0.3-2.1,0.5c-3.6,0.8-7.8,1.7-11.2,3.5c-4,2.1-6.1,4.9-6.6,8.7c-0.4,2.9,0.3,5.8,1.9,7.6c0.2,0.3,0.5,0.5,0.8,0.8
			c0,0,0,0-0.1,0c0,0,0,0,0,0c0,0-0.1,0-0.1,0c0,0,0,0,0,0c-0.1-0.3-0.7-1.4-3.1-1.3c-0.4,0-0.8,0.1-1.2,0.1c0,0,0,0,0,0
			c0,0,0,0,0,0c-0.1-0.1-0.3-0.3-0.7-0.5c-0.5-0.3-1.2-0.6-2.2-0.5c-0.4,0-0.9,0.1-1.4,0.2c-0.3-0.1-0.7-0.2-1.3-0.2
			c-0.9,0-1.6,0.4-2.3,1.2c-0.2,0-0.4-0.1-0.6-0.1c-1.3-0.1-2,0.2-2.1,0.8c-1,0.4-1.5,1.1-1.8,1.6c-1,1.8-0.5,3.2-0.1,3.8
			c-0.5,0.2-1.3,1-1,2.4c-0.5,0.5-1.2,1.8-0.8,3.7c-0.1,0.2-0.8,1.2-0.4,3.8c-0.1,0.2-1.3,2.2-0.6,4.3c0,0,0,0,0,0
			c0,0.1,0.1,0.2,0.1,0.2c0,0.1,0,0.1,0.1,0.2c-0.1,0.2-0.6,1.6,0.5,4.9c-0.1,0.1-0.4,0.7-0.5,1.6c-0.1,0.9,0.1,2.2,1.4,3.6
			c0,0.3-0.4,3.3,1.2,5.4c0.9,1.2,2.2,1.8,3.9,2c0.1,0.4,1.4,3.6,5.3,3.4c0.6,0,1.2-0.1,1.8-0.3c0.2,0.3,1.2,2.2,4,2.1
			c0.7,0,1.6-0.2,2.4-0.5c0.1,0.1,0.2,0.3,0.3,0.4c0.6,0.6,1.7,1,2.4,1.1c0.1,0,0.1,0,0.2,0c-0.1,0.6-0.4,4.8,2.2,6.3
			c0.6,0.3,1.2,0.6,1.9,0.7c0,0,0,0,0,0c0.1,0,0.2,0.1,0.4,0.1c0.1,0,0.2,0,0.3,0.1c0,0,0,0,0.1,0c0.4,0,0.8,0,1.1,0
			c0.1,0.9,0.3,1.8,0.7,2.7c0.8,1.5,1.4,2.2,1.8,2.7c0.6,0.6,0.8,0.9,0.8,2.3c-0.1,2.4,0.5,4,0.9,5.2l0,0.1c0.2,0.5,0.9,0.9,1.8,0.8
			c0.8,0,1.8-0.4,2-1.1c0.5-1.4,0.5-3.8,0.2-4.9c-0.1-0.4,0.2-1.2,0.7-2.1c0.7-1.6,1.7-3.8,1.5-6.4c0.5,0.6,2.3,2.6,4.8,2.5
			c0.9,0,1.8-0.3,2.7-0.8c0.1,0,1,0.2,2,0.2c1.9-0.1,4.4-0.9,5-4.3c0,0,0,0,0,0c0-0.1,0-0.2,0.1-0.2c0,0,0.1,0,0.1,0
			c0.3,0,1.2-0.1,2-0.8c1-0.9,1.5-2.4,1.5-4.4c0.2,0,0.8-0.2,1.4-0.8c0.7-0.8,0.9-2.2,0.6-3.9c0,0,0.1,0,0,0c0,0,0-0.1,0-0.1
			c0.3-0.2,2-1.6,1.3-4.4c0.2-0.1,0.7-0.3,1.1-1c0.5-0.7,0.9-2,0.4-4c0.2-0.1,0.7-0.5,1.1-1.4C405.8,224,405,221.9,404.3,220.4z
			 M359.9,179.4c-0.9,0.5-1.7,1.8-2.5,3.3c-0.2,0.3-0.4,0.6-0.5,1c0,0.1-0.1,0.1-0.1,0.2c0,0,0,0,0,0c0,0.1-0.1,0.1-0.1,0.2
			c0,0,0,0,0,0c0,0.1-0.1,0.1-0.2,0.1c0,0,0,0,0,0c-0.2,0.2-0.4,0.3-0.6,0.4c-0.5-0.1-0.3-0.9,0.4-1.9c1.2-1.7,1.8-2.3,3.7-3.7
			c0.5-0.4,0.8-0.4,1.1-0.3C360.8,179,360.4,179.2,359.9,179.4z M387,193.6c-0.2,0-0.7,0.2-1.3,0.6c-0.3,0.2-0.7,0.6-1,1.2
			c-1.1-0.4-2.3-0.5-3.7-0.5c-0.8,0-1.6,0.1-2.4,0.3c-1.1,0.2-2.3,0.6-3.3,1c-1.5,0.5-3,1.1-4.6,1.1c-1.5,0.1-3-0.4-4.2-1.4
			c-0.3-0.3-0.6-0.6-0.7-1.4c0-0.8-0.4-1.2-0.6-1.5c-0.1-0.1-0.2-0.1-0.3-0.2c0.7-0.4,0.7-1.6,0.8-2.3c0-0.2,0-0.3,0-0.4
			c0.7,0.6,1.8,0.7,2.3,0.7c0.1,0,0.2,0,0.3,0c1.2,0,1.7-0.7,1.9-1.1c0-0.1,0.1-0.1,0.1-0.1c0,0,0,0.1,0.1,0.2
			c0.5,1.7,2.7,2.9,6.6,3.5c1.4,0.2,2.8,0.3,4.3,0.3c2-0.1,4-0.4,6-1C387.2,192.9,387.1,193.3,387,193.6z M392.4,233.8
			c-0.2-0.3-0.3-0.7-0.5-1c0.1,0,0.5,0,0.9,0c0,0.1,0.1,0.2,0.1,0.3C393,233.3,392.8,233.6,392.4,233.8z"/>
	</g>
	<g>
		<g>
			<path class="st2" d="M406.2,166.5c-0.7-2.6-1.7-5.1-3.4-7.1c-2.4-2.8-6.2-2.4-8.7-0.2c-2.7,2.2-3.5,5.6-2.8,9
				c0.5,2.7,2.5,4.2,4.5,6.1c2.4,2.3,1.6,7.2,4.1,9.4c2.9,2.5,5.3-1,6.5-3.3c1.8-3.4,1.4-7.4,0.6-10.9
				C406.7,168.5,406.5,167.5,406.2,166.5z"/>
			<path class="st3" d="M401.9,184.5L401.9,184.5c-0.7,0-1.4-0.3-2-0.9c-1.3-1.1-1.7-3-2.2-4.7c-0.4-1.7-0.8-3.5-2-4.6
				c-0.3-0.3-0.5-0.5-0.8-0.8c-1.7-1.5-3.3-3-3.7-5.3c-0.7-3.7,0.4-6.9,2.9-9c1.3-1.1,3-1.7,4.5-1.7c1.7,0,3.1,0.7,4.2,2
				c1.4,1.7,2.5,3.9,3.4,7.1c0.3,1,0.5,2,0.7,2.9c1.1,4.5,0.9,8.1-0.6,11C405.4,182.3,403.8,184.5,401.9,184.5z M398.6,157.5
				c-1.6,0-3.2,0.6-4.5,1.7c-2.5,2.1-3.5,5.3-2.8,9c0.4,2.3,2,3.8,3.7,5.3c0.3,0.2,0.5,0.5,0.8,0.8c1.2,1.1,1.6,2.9,2,4.6
				c0.4,1.8,0.9,3.6,2.1,4.7c0.7,0.6,1.3,0.8,2,0.8c1.9,0,3.5-2.3,4.5-4.2c1.5-2.8,1.7-6.4,0.6-10.9c-0.2-0.9-0.5-1.9-0.7-2.9
				c-0.9-3.2-2-5.4-3.4-7.1C401.7,158.2,400.2,157.5,398.6,157.5z"/>
		</g>
		<path class="st4" d="M406.8,168.8c-0.6,0.3-1.2,0.6-1.8,1c0.3,2.8,0.6,5.7-0.2,8.4c-0.6,2.2-3.2,3.1-4.9,1.5
			c-1.1-1-1.4-2.9-1.6-4.2c-0.4-2.6-0.9-3.9-3-5.6c-1.7-1.3-2.9-2.7-3.2-4.9c-0.2-1.2,0.1-2.5,0.4-3.8c-1.3,2-1.6,4.5-1.1,7
			c0.5,2.7,2.5,4.2,4.5,6.1c2.4,2.3,1.6,7.2,4.1,9.4c2.9,2.5,5.3-1,6.5-3.3c1.8-3.4,1.4-7.4,0.6-10.9
			C406.9,169.2,406.8,169,406.8,168.8z"/>
		<g>
			<path class="st5" d="M406.9,169.4c-0.2-0.9-0.5-1.9-0.7-2.9c-0.7-2.6-1.7-5.1-3.4-7.1c-2.4-2.8-6.2-2.4-8.7-0.2
				c-0.1,0.1-0.2,0.2-0.3,0.2c0.8-0.1,1.7,0,2.3,0.6c0.5,0.6,0.9,1.2,1,2c0.3,1.9,1.1,2.9,2.4,4.3c2,2.2,3.1,5.6,4.3,8.3
				c0.9,1.9,1.5,4,1.1,6.1c-0.2,1.1-0.6,2.2-1.2,3.1c1.1-0.8,2-2.3,2.6-3.5C408.1,177,407.8,173,406.9,169.4z"/>
			<path class="st3" d="M403.7,183.8C403.7,183.8,403.7,183.8,403.7,183.8C403.7,183.8,403.7,183.8,403.7,183.8
				c0.5-0.9,0.9-1.9,1.2-3.1c0.4-1.8,0-3.8-1.1-6.1c-0.3-0.7-0.6-1.4-0.9-2.2c-0.9-2.2-1.9-4.5-3.4-6.1c-1.3-1.5-2.1-2.4-2.4-4.3
				c-0.1-0.8-0.5-1.3-1-1.9c-0.4-0.5-1-0.7-1.7-0.7c-0.2,0-0.4,0-0.6,0.1c0,0,0,0,0,0c0,0,0,0,0,0c0,0,0,0,0.1-0.1
				c0.1-0.1,0.1-0.1,0.2-0.2c1.3-1.1,3-1.7,4.5-1.7c1.7,0,3.1,0.7,4.2,2c1.4,1.7,2.5,3.9,3.4,7.1c0.3,1,0.5,2,0.7,2.9
				c1.1,4.5,0.9,8.1-0.6,11C405.5,182,404.6,183.1,403.7,183.8C403.7,183.8,403.7,183.8,403.7,183.8z M394.4,159.4
				c0.7,0,1.3,0.2,1.7,0.7c0.6,0.6,0.9,1.2,1.1,2c0.3,1.9,1,2.8,2.4,4.3c1.5,1.7,2.5,3.9,3.4,6.1c0.3,0.8,0.6,1.5,0.9,2.2
				c1.1,2.4,1.4,4.3,1.1,6.2c-0.2,1.1-0.6,2.1-1.1,3c0.9-0.7,1.7-1.8,2.5-3.4c1.5-2.8,1.7-6.4,0.6-10.9c-0.2-0.9-0.5-1.9-0.7-2.9
				c-0.9-3.2-2-5.4-3.4-7.1c-1.1-1.3-2.5-1.9-4.2-1.9c-1.6,0-3.2,0.6-4.5,1.7c-0.1,0.1-0.1,0.1-0.2,0.2c0,0,0,0,0,0
				C394,159.4,394.2,159.4,394.4,159.4z"/>
		</g>
		<path class="st4" d="M404.9,173.2c-1.7-2.7-3.6-5.2-5.5-7.8c-0.9-1.3-1.3-2.4-1.8-3.9c-0.6-1.4-1.3-1.9-2.1-1.9
			c0.2,0.1,0.4,0.2,0.6,0.4c0.5,0.6,0.9,1.2,1,2c0.3,1.9,1.1,2.9,2.4,4.3c2,2.2,3.1,5.6,4.3,8.3c0.9,1.9,1.5,4,1.1,6.1
			c-0.2,1.1-0.6,2.2-1.2,3.1c1.1-0.8,2-2.3,2.6-3.5c1.1-2.1,1.4-4.5,1.2-6.8C407,174.7,406.2,175.2,404.9,173.2z"/>
		<path class="st6" d="M402.5,167.7c-1-1.2-2-2.4-2.8-3.8c-1-1.9-1.3-4.8-3.8-5.2c0,0-0.1,0.1-0.1,0.1c2.4,0.7,2.8,4.4,4,6.3
			c0.5,0.8,1.1,1.4,1.7,2.1c1,1.1,1.7,2.2,2.5,3.5c0,0.1,0.2,0,0.1-0.1C403.7,169.6,403.2,168.6,402.5,167.7z"/>
	</g>
	<g>
		<g>
			<path class="st5" d="M368.3,159.9c-0.1-0.6-0.3-1.5-1.1-2.3c-0.3-0.3-0.6-0.7-0.7-0.9c-0.2-0.2-0.4-0.3-0.5-0.4
				c-1.7-1.2-5-0.9-10.5,0.3c-9.3,2.2-12.6,6.7-12.8,12.8c-0.2,6.1,3,16,3,16c1,3.5,0.3,5.3,2.3,4.6c0.4-0.1,0.7-0.3,1-0.5
				c1-1.3,2.9-3.8,4.2-5.7c1.8-2.6,3.4-6.2,8.9-7.8c3.1-0.9,4.9-1.1,5.9-1.2c-0.4-0.6-1-0.7-1.5-0.9c-0.6-0.3-0.8-0.6-0.1-1.1
				c0.7-0.5,1.2-0.4,1.7-1.4c0.5-1,0.9-1.3,1-3c0.1-1.8,0.8-2.1,0.7-2.8c-0.1-0.8-0.3-2.3-0.2-3.5
				C369.6,160.8,368.4,160.4,368.3,159.9z"/>
			<path class="st3" d="M347.2,190.2L347.2,190.2c-0.9,0-1-0.8-1.2-2.1c-0.1-0.7-0.3-1.7-0.6-2.8c0-0.1-3.2-10-3-16
				c0.3-6.8,4.4-11,12.9-13c3.3-0.7,5.5-1,7.2-1c1.5,0,2.6,0.3,3.4,0.8c0.2,0.1,0.4,0.3,0.6,0.4l0,0.1c0.2,0.3,0.4,0.6,0.7,0.9
				c0.9,0.9,1.1,1.8,1.2,2.4c0,0.2,0.2,0.3,0.4,0.5c0.4,0.4,0.9,0.9,0.8,1.7c-0.1,0.9,0,1.9,0.1,2.7c0,0.3,0.1,0.5,0.1,0.7
				c0,0.4-0.1,0.7-0.3,1c-0.2,0.4-0.4,0.9-0.5,1.9c-0.1,1.4-0.3,1.9-0.7,2.5c-0.1,0.2-0.2,0.3-0.3,0.5c-0.4,0.8-0.8,1-1.3,1.2
				c-0.2,0.1-0.3,0.2-0.5,0.3c-0.2,0.1-0.4,0.3-0.4,0.4c0,0.1,0.1,0.2,0.4,0.4c0.1,0.1,0.2,0.1,0.4,0.2c0.4,0.2,0.9,0.4,1.2,0.8
				l0.2,0.3l-0.3,0c-1,0-2.8,0.3-5.8,1.2c-4.7,1.4-6.5,4.2-8.1,6.7c-0.2,0.4-0.5,0.7-0.7,1c-1.3,1.8-3.2,4.4-4.2,5.7l-0.1,0
				c-0.4,0.2-0.7,0.4-1.1,0.5C347.7,190.1,347.4,190.2,347.2,190.2z M362.6,155.7c-1.7,0-3.9,0.3-7.1,1c-8.4,2-12.4,6-12.7,12.7
				c-0.2,6,3,15.8,3,15.9c0.3,1.1,0.5,2.1,0.6,2.8c0.2,1.3,0.3,1.8,0.9,1.8l0,0c0.2,0,0.4,0,0.7-0.1c0.3-0.1,0.6-0.2,1-0.4
				c1-1.3,2.9-3.8,4.2-5.6c0.2-0.3,0.4-0.7,0.7-1c1.6-2.4,3.5-5.4,8.3-6.8c2.7-0.8,4.5-1.1,5.5-1.2c-0.2-0.2-0.5-0.3-0.8-0.4
				c-0.1-0.1-0.3-0.1-0.4-0.2c-0.4-0.2-0.6-0.4-0.7-0.7c0-0.3,0.2-0.5,0.5-0.7c0.2-0.1,0.4-0.2,0.5-0.3c0.4-0.2,0.7-0.4,1.1-1.1
				c0.1-0.2,0.2-0.4,0.3-0.5c0.4-0.6,0.6-1,0.7-2.4c0-1,0.3-1.6,0.5-2c0.1-0.3,0.2-0.5,0.2-0.8c0-0.2,0-0.4-0.1-0.7
				c-0.1-0.8-0.2-1.9-0.1-2.8c0.1-0.7-0.3-1.1-0.7-1.4c-0.2-0.2-0.4-0.4-0.5-0.7c-0.1-0.6-0.3-1.4-1.1-2.2c-0.3-0.3-0.5-0.6-0.7-0.9
				c-0.2-0.2-0.4-0.3-0.5-0.4C365.1,155.9,364,155.7,362.6,155.7z"/>
		</g>
		<path class="st4" d="M368.3,159.9c-0.1-0.6-0.3-1.5-1.1-2.3c-0.3-0.3-0.6-0.7-0.7-0.9c-0.2-0.2-0.4-0.3-0.5-0.4
			c-1-0.7-2.6-0.9-4.8-0.7c0.1,0,0.1,0.1,0.2,0.1c1.8,1.3,2.6,3.7,2.5,5.9c-0.2,3.7-2,7-4.6,9.5c-1.3,1.3-2.8,2.4-4.3,3.5
			c-1.6,1.3-3.1,2.7-4.4,4.4c-0.6,0.8-1.1,1.7-1.7,2.5c-0.3,0.4-0.7,1-1.2,1.1c-1.2,0.2-2.2-0.5-3-1.3c0.6,2.4,1.2,4,1.2,4
			c1,3.5,0.3,5.3,2.3,4.6c0.4-0.1,0.7-0.3,1-0.5c1-1.3,2.9-3.8,4.2-5.7c1.8-2.6,3.4-6.2,8.9-7.8c3.1-0.9,4.9-1.1,5.9-1.2
			c-0.4-0.6-1-0.7-1.5-0.9c-0.6-0.3-0.8-0.6-0.1-1.1c0.7-0.5,1.2-0.4,1.7-1.4c0.5-1,0.9-1.3,1-3c0.1-1.8,0.8-2.1,0.7-2.8
			c-0.1-0.8-0.3-2.3-0.2-3.5C369.6,160.8,368.4,160.4,368.3,159.9z"/>
		<g>
			<g>
				<path class="st7" d="M369.3,175.9c-0.6-0.2-1-0.6-1.4-1c0,0,0,0-0.1-0.1c-1,0-2.8,0.3-5.9,1.2c-0.3,0.1-0.6,0.2-0.9,0.3
					c-0.1,1-0.8,1.5-1.8,2.1c-1.1,0.6-1.9,2.3-2.9,4.2c-0.8,1.3-2.4,1.4-3.3,1.3c-1.3,1.9-3.2,4.3-4.1,5.5c1.5-0.9,2.7-2.4,3.7-3.2
					c1.1-1,2.7-2.1,3.4-3c0.7-0.9,2.3-1.2,3.2-2.2c0.9-0.9,1.8-1.5,4.4-2.2c3.2-0.8,6.6-1.5,7-2.4
					C370.1,176.4,369.7,176.1,369.3,175.9z"/>
				<path class="st8" d="M348.3,190l0.6-0.7c1-1.3,2.8-3.7,4.1-5.5l0.1-0.1l0.1,0c0.8,0.1,2.4,0,3.1-1.2c0.2-0.3,0.4-0.7,0.5-1
					c0.8-1.5,1.5-2.7,2.5-3.3c1-0.6,1.7-1,1.7-1.9l0-0.1l0.1,0c0.3-0.1,0.6-0.2,0.9-0.3c3.1-0.9,4.9-1.1,5.9-1.2l0.1,0l0.1,0.1
					c0,0,0,0.1,0.1,0.1c0.3,0.4,0.8,0.8,1.3,0.9l0,0c0.4,0.3,0.8,0.5,1.3,0.6l0.2,0.1l-0.1,0.2c-0.4,0.8-2.8,1.4-5.5,2.1
					c-0.5,0.1-1.1,0.3-1.6,0.4c-2.5,0.6-3.4,1.2-4.3,2.1c-0.5,0.5-1.1,0.8-1.7,1.1c-0.6,0.3-1.2,0.6-1.5,1c-0.4,0.5-1.2,1.1-2,1.7
					c-0.5,0.4-1,0.8-1.5,1.2c-0.2,0.2-0.5,0.5-0.8,0.8c-0.8,0.8-1.8,1.8-2.9,2.4L348.3,190z M353.2,184.1c-1,1.5-2.4,3.3-3.4,4.6
					c0.7-0.6,1.4-1.2,1.9-1.8c0.3-0.3,0.6-0.6,0.8-0.8c0.5-0.4,1-0.8,1.5-1.3c0.5-0.4,1-0.8,1.3-1.1
					C354.6,184.1,353.7,184.1,353.2,184.1z M361.3,176.4c-0.1,1-0.9,1.5-1.9,2.1c-0.9,0.5-1.5,1.7-2.3,3.1c-0.2,0.3-0.3,0.6-0.5,0.9
					c0.3-0.2,0.7-0.4,1-0.6c0.6-0.3,1.2-0.6,1.6-1.1c1-1,1.9-1.6,4.5-2.2c0.5-0.1,1.1-0.3,1.6-0.4c2.2-0.5,4.5-1.1,5.2-1.7
					c-0.4-0.1-0.8-0.3-1.1-0.6c-0.6-0.2-1.1-0.6-1.4-1.1c-1,0-2.8,0.3-5.7,1.2C361.8,176.2,361.5,176.3,361.3,176.4z"/>
			</g>
			<path class="st5" d="M369.3,175.9c-0.6-0.2-1-0.6-1.4-1c0,0,0,0-0.1-0.1c-1,0-2.8,0.3-5.9,1.2c-0.3,0.1-0.6,0.2-0.9,0.3
				c-0.1,1-0.8,1.5-1.8,2.1c-1.1,0.6-1.9,2.3-2.9,4.2c-0.8,1.3-2.4,1.4-3.3,1.3c-1.3,1.9-3.2,4.3-4.1,5.5c1.5-0.9,2.7-2.4,3.7-3.2
				c1.1-1,2.7-2.1,3.4-3c0.7-0.8,2-1.1,2.9-1.9c0,0,0,0,0,0c0.5-1.4,1.9-2.5,3.1-3.4c1.5-1.1,3.3-2.1,5.1-1.1c0.5,0.3,0.7,0.6,0.8,1
				c1.4-0.4,2.4-0.8,2.6-1.3C370.1,176.4,369.7,176.1,369.3,175.9z"/>
			<g>
				<path class="st9" d="M353.6,184.1c-0.2,0-0.4,0-0.5,0l-0.3,0l0.3-0.4c0.2-0.3,0.4-0.7,0.7-1c1.4-2.2,3.2-5,7.4-6.5l0.3-0.1
					l0,0.3c-0.1,1.1-0.9,1.6-1.9,2.2l-0.2-0.3c0.9-0.5,1.5-0.9,1.7-1.7c-3.8,1.5-5.4,4-6.9,6.2c-0.2,0.3-0.4,0.6-0.6,0.9
					c0.9,0,2.2-0.1,2.8-1.2l0.3,0.2C355.8,183.8,354.5,184.1,353.6,184.1z"/>
			</g>
		</g>
		<g>
			<g>
				<path class="st5" d="M384.9,166c3.7-1.9,6-2.5,7.1-4.6c0.3-0.7,0.3-1.3,0.1-1.8c-0.6-2.3-9.7-4.2-16.6-4.9
					c-6.9-0.7-9.6,0.4-9.6,1.5c1.6,1.2,6.8,5.1,5,11.5c-1.5,4.2-2.1,5.8-2.3,6.5c0.7-0.1,1.4-0.7,2.6-1.2
					C372.9,172.2,380.2,168.4,384.9,166z"/>
				<path class="st3" d="M368.2,174.5l0.3-0.9c0.3-0.9,1-2.6,2.1-5.9c1.2-4.2-0.4-8-4.9-11.3l-0.1-0.1l0-0.1c0-1.2,2.2-1.9,5.9-1.9
					c1.2,0,2.5,0.1,3.9,0.2c6.1,0.6,16.1,2.5,16.7,5c0.2,0.6,0.1,1.2-0.1,1.9c-0.9,1.7-2.6,2.5-5.1,3.7c-0.6,0.3-1.3,0.6-2.1,1
					c-2,1-4.5,2.3-6.9,3.5c-3,1.6-5.9,3-6.9,3.5c-0.5,0.2-0.9,0.4-1.2,0.6c-0.5,0.3-0.9,0.5-1.4,0.6L368.2,174.5z M366.1,156.1
					c4.6,3.4,6.2,7.3,5,11.6c-1.2,3.3-1.8,5-2.1,5.9l-0.1,0.2c0.3-0.1,0.6-0.3,0.9-0.5c0.4-0.2,0.8-0.4,1.3-0.6
					c1-0.5,3.9-1.9,6.9-3.5c2.4-1.2,4.9-2.5,6.9-3.5c0.8-0.4,1.5-0.7,2.1-1c2.5-1.2,4-1.9,4.9-3.5c0.2-0.6,0.3-1.2,0.1-1.7
					c-0.5-2-8.9-4-16.4-4.8c-1.4-0.1-2.7-0.2-3.9-0.2C367.9,154.7,366.2,155.4,366.1,156.1z"/>
			</g>
			<path class="st4" d="M392.1,159.6c-0.2-0.9-1.9-1.8-4.3-2.6c0.1,0.1,0.3,0.2,0.4,0.3c0.8,0.6,1.7,1.5,1.5,2.6
				c-0.2,1.2-1.5,1.7-2.5,2c-1.9,0.6-3.9,1.3-5.7,2.2c-1.4,0.7-2.5,1.9-3.9,2.6c-1.1,0.5-2.3,0.8-3.2-0.2c-1.1-1.3,0-2.9,0.2-4.2
				c0.3-2.1-1.2-3.5-2.7-4.6c-0.8-0.6-2.1-1.4-1.7-2.6c0.1-0.3,0.2-0.5,0.4-0.7c-3.4,0.1-4.8,0.9-4.8,1.7c1.6,1.2,6.8,5.1,5,11.5
				c-1.5,4.2-2.1,5.8-2.3,6.5c0.7-0.1,1.4-0.7,2.6-1.2c1.8-0.8,9.2-4.7,13.8-7c3.7-1.9,6-2.5,7.1-4.6
				C392.2,160.7,392.2,160.1,392.1,159.6z"/>
			<g>
				<path class="st7" d="M384.9,166c-4.7,2.3-12,6.2-13.8,7c-1.2,0.5-1.9,1.1-2.6,1.2c0,0,0,0.1,0,0.1c-0.3,0.7,0.7,1.7,2.2,2.2
					c1.3-0.2,4.4-0.9,6.9-2.8c3.2-2.4,5.2-4.1,9.7-7.3c2.9-2,4.2-3.7,4.7-4.9C390.8,163.5,388.6,164.2,384.9,166z"/>
				<path class="st8" d="M370.7,176.7L370.7,176.7c-1.1-0.3-1.9-0.9-2.2-1.6c-0.2-0.3-0.2-0.6-0.1-0.9l0.1-0.2l0.1,0
					c0.4-0.1,0.8-0.3,1.3-0.6c0.4-0.2,0.8-0.4,1.3-0.6c1-0.5,3.9-1.9,6.9-3.5c2.4-1.2,4.9-2.5,6.9-3.5c0.8-0.4,1.5-0.7,2.1-1
					c2.5-1.2,4-1.9,4.9-3.5l0.3,0.1c-0.6,1.5-2.2,3.2-4.7,5c-3.3,2.3-5.2,3.8-7.3,5.4c-0.8,0.6-1.5,1.2-2.4,1.9
					C375.2,175.7,372,176.5,370.7,176.7L370.7,176.7z M368.6,174.4c-0.1,0.2,0,0.4,0.1,0.6c0.3,0.6,1,1.1,2,1.4
					c1.3-0.2,4.3-0.9,6.8-2.8c0.9-0.7,1.7-1.3,2.4-1.9c2-1.6,4-3.1,7.3-5.4c1.5-1.1,2.7-2.1,3.5-3c-0.9,0.7-2.1,1.3-3.6,2
					c-0.6,0.3-1.3,0.6-2.1,1c-2,1-4.5,2.3-6.9,3.5c-3,1.6-5.9,3-6.9,3.5c-0.5,0.2-0.9,0.4-1.2,0.6
					C369.4,174.1,369,174.3,368.6,174.4z"/>
			</g>
			<path class="st5" d="M384.9,166c-4.7,2.3-12,6.2-13.8,7c-1.2,0.5-1.9,1.1-2.6,1.2c0,0,0,0.1,0,0.1c-0.3,0.7,0.7,1.7,2.2,2.2
				c0.4-0.1,1.1-0.2,2-0.4c-0.7-0.1-1-0.5-0.9-1.4c0.2-1,1.7-1.7,2.5-2.1c1.7-1,3.3-2.2,5.2-3c1.9-0.8,3.8-1.5,5.7-2.3
				c0.6-0.2,1.2-0.5,1.8-0.7c0.1-0.1,0.2-0.2,0.3-0.2c2.9-2,4.2-3.7,4.7-4.9C390.8,163.5,388.6,164.2,384.9,166z"/>
		</g>
		<g>
			<g>
				<path class="st7" d="M366.9,173.7c-0.4-0.2-0.7-0.2-0.8,0c0.1,0.1,0.2,0.2,0.4,0.2c0.6,0.3,1.2,0.4,1.6,1c0.3,0.4,0.8,0.8,1.4,1
					c-0.7-0.5-1-1.1-0.8-1.6c0,0,0-0.1,0-0.1C368,174.6,367.5,174.1,366.9,173.7z"/>
				<path class="st8" d="M370.4,176.4l-1.1-0.4c-0.6-0.2-1.1-0.6-1.4-1.1c-0.3-0.4-0.7-0.6-1.1-0.8c-0.1-0.1-0.3-0.1-0.4-0.2
					c-0.2-0.1-0.3-0.2-0.4-0.2l-0.2-0.2l0.2-0.1c0.3-0.2,0.7-0.2,1,0c0.1,0.1,0.3,0.2,0.4,0.3c0.4,0.3,0.8,0.5,1.1,0.3l0.4-0.3
					l-0.2,0.6c-0.1,0.4,0.2,0.9,0.8,1.4L370.4,176.4z M367.9,174.5c0.1,0.1,0.2,0.2,0.2,0.3c0.1,0.1,0.2,0.2,0.3,0.3
					c-0.1-0.2-0.1-0.4-0.1-0.6C368.1,174.5,368,174.5,367.9,174.5z"/>
			</g>
			<g>
				<path class="st7" d="M366.4,156.6c0.1,0.3,0.4,0.6,0.7,0.9c0.8,0.8,1,1.7,1.1,2.3c0.1,0.6,1.3,1,1.2,2.2
					c-0.1,1.2,0.2,2.7,0.2,3.5c0.1,0.8-0.7,1.1-0.7,2.8c-0.1,1.8-0.4,2-1,3c-0.5,1-1,1-1.7,1.4c-0.6,0.3-0.5,0.6-0.3,0.9
					c0.2-0.1,0.4-0.2,0.8,0c0.7,0.4,1.1,0.9,1.7,0.5c0.3-0.8,0.9-2.4,2.3-6.5C372.5,162,368.4,158.2,366.4,156.6z"/>
				<path class="st8" d="M368.1,174.5L368.1,174.5c-0.3,0-0.7-0.2-1-0.4c-0.1-0.1-0.2-0.2-0.4-0.2c-0.3-0.2-0.5-0.2-0.7-0.1
					l-0.1,0.1l-0.1-0.1c-0.2-0.2-0.3-0.3-0.3-0.5c0-0.2,0.2-0.4,0.5-0.7c0.2-0.1,0.4-0.2,0.5-0.3c0.4-0.2,0.7-0.4,1.1-1.1
					c0.1-0.2,0.2-0.4,0.3-0.5c0.4-0.6,0.6-1,0.7-2.4c0-1,0.3-1.6,0.5-2c0.1-0.3,0.2-0.5,0.2-0.8c0-0.2,0-0.4-0.1-0.7
					c-0.1-0.8-0.2-1.9-0.1-2.8c0.1-0.7-0.3-1.1-0.7-1.4c-0.2-0.2-0.4-0.4-0.5-0.7c-0.1-0.6-0.3-1.4-1.1-2.2c-0.3-0.3-0.5-0.6-0.7-1
					l-0.4-0.8l0.7,0.5c4.1,3.2,5.7,7.1,4.5,11.3c-1.2,3.3-1.8,5-2.1,5.9l-0.2,0.6l-0.1,0C368.5,174.5,368.3,174.5,368.1,174.5z
					 M366.4,173.4c0.2,0,0.4,0.1,0.6,0.2c0.1,0.1,0.3,0.2,0.4,0.3c0.3,0.2,0.6,0.4,0.8,0.4l0,0c0.1,0,0.2,0,0.2-0.1l0.2-0.5
					c0.3-0.9,1-2.6,2.1-5.9c1-3.5,0-6.8-2.9-9.7c0.5,0.7,0.6,1.3,0.7,1.8c0,0.2,0.2,0.3,0.4,0.5c0.4,0.4,0.9,0.9,0.8,1.7
					c-0.1,0.9,0,1.9,0.1,2.7c0,0.3,0.1,0.5,0.1,0.7c0,0.4-0.1,0.7-0.3,1c-0.2,0.4-0.4,0.9-0.5,1.9c-0.1,1.4-0.3,1.9-0.7,2.5
					c-0.1,0.2-0.2,0.3-0.3,0.5c-0.4,0.8-0.8,1-1.3,1.2c-0.2,0.1-0.3,0.2-0.5,0.3c-0.3,0.2-0.4,0.3-0.4,0.4c0,0,0,0.1,0,0.1
					C366.1,173.4,366.3,173.4,366.4,173.4z"/>
			</g>
			<path class="st5" d="M368.7,173.6c-0.4-0.5-0.3-1.2-0.2-1.8c0.2-0.9,0.5-1.7,0.8-2.5c0.1-0.4,0.2-0.8,0.3-1.1
				c0.2-0.6,0.6-1.2,0.6-1.9c-0.1-0.7-0.2-1.3-0.2-2c0-0.6,0.1-1.3,0-2c-0.2-0.9-1.1-1.8-1-2.8c0-0.1,0-0.3,0.1-0.4
				c-0.9-1.1-1.9-2-2.6-2.5c0.1,0.3,0.4,0.6,0.7,0.9c0.8,0.8,1,1.7,1.1,2.3c0.1,0.6,1.3,1,1.2,2.2c-0.1,1.2,0.2,2.7,0.2,3.5
				c0.1,0.8-0.7,1.1-0.7,2.8c-0.1,1.8-0.4,2-1,3c-0.5,1-1,1-1.7,1.4c-0.6,0.3-0.5,0.6-0.3,0.9c0.2-0.1,0.4-0.2,0.8,0
				c0.7,0.4,1.1,0.9,1.7,0.5C368.6,174.1,368.7,173.9,368.7,173.6C368.7,173.6,368.7,173.6,368.7,173.6z"/>
		</g>
		<path class="st5" d="M352.3,158c-3.6,1.4-6.8,3.7-8,7.5c-0.6,2-0.6,4.2-0.5,6.3c0.2,2.4,0.7,4.8,1.6,7c0.1,0.1,0.1,0.2,0,0
			c-0.5-2-0.9-4.3-1.2-6.4c-0.3-2.1-0.2-4.2,0.1-6.3c0.4-1.9,1.3-3.5,2.7-4.8C348.6,160.1,350.5,159,352.3,158
			C352.3,158,352.3,158,352.3,158z"/>
		<path class="st5" d="M387.2,157.7c-1.9-0.7-3.8-1.1-5.8-1.5c-1.1-0.2-2.2-0.4-3.3-0.5c-1.1-0.1-2.2-0.1-3.2-0.2
			c-0.1,0-0.1,0-0.1,0c0.8,0.2,1.7,0.4,2.6,0.5c1.1,0.2,2.2,0.4,3.3,0.6C382.8,156.9,385,157.2,387.2,157.7
			C387.2,157.8,387.3,157.8,387.2,157.7z"/>
		<g>
			<path class="st10" d="M361.1,176.3c-4.7,1.7-6.3,5-7.9,7.4c0,0-0.1,0.1-0.1,0.2c0.6,0.1,1.6,0,2.4-0.5c-0.9,0.2-0.9-0.7,0-1.9
				c1.2-1.7,1.8-2.3,3.7-3.7c0.6-0.4,1-0.5,1.3-0.3C360.8,177.2,361.1,176.8,361.1,176.3z"/>
		</g>
	</g>
	<g>
		<g>
			<g>
				<path class="st11" d="M393.8,158.2c-0.8,0-1.6,0.2-2.4,0.4c-0.9,0.2-1.7,0.6-2.4,1c-1,0.6-1.7,1.3-2.4,2.1
					c-0.2,0.2-0.4,0.4-0.6,0.5c-0.1,0-0.2,0-0.3,0.1c-0.1,0-0.1,0-0.2,0l0,0c0,0-0.8-0.1-1.2-1.7l-0.4-11.9l-3.6,0.1l0.4,12.1
					c0,0,0,3.5,2.1,5.5c0.2,0.2,0.4,0.4,0.6,0.5c0.6,0.3,0.9,1.1,0.9,2.1c0.1,3.9-2.7,7.3-6.4,8.2c-7.3,1.7-18.6,3.4-19.8,12.7
					c-0.3,2.6,0.1,5.5,1.9,7.5c2.2,2.5,6.3,3.3,9.5,3.2c0.1,0,0.2,0,0.3,0c2.2-0.1,4.4-0.7,6.5-1.2c1.5-0.4,3.7-1.1,5.1,0
					c1,0.7,0.9,2.2,0.7,3.3c0,0.1,0,0.2,0,0.2c2.1-0.1,4.2-0.3,6.2-0.5c1.2-0.4,0.1-3.4-0.1-4c-0.6-1.6-1.1-2.5-2.6-3.4
					c-2.3-1.5-5.2-1.5-7.8-1c-2.7,0.5-5.2,2-7.9,2.1c-1.5,0.1-3-0.4-4.2-1.4c-0.3-0.3-0.7-0.6-0.7-1.5c0-0.7-0.3-1.2-0.6-1.4
					c-0.1-0.1-0.2-0.2-0.3-0.2l0,0c0.8-0.5,0.7-2.2,0.8-2.8c0.6,0.7,1.8,0.7,2.4,0.8c2.2,0.1,2-1.9,2.3-1c0.7,2.3,4.5,3.2,6.5,3.5
					c6.2,1,12.8-0.8,18-4.3c2.9-2,5.4-4.6,6.9-7.7c2.2-4.7,3.7-11.2,1.2-16.1c-1.3-2.5-3.5-4.9-6.3-5.6
					C395.2,158.2,394.5,158.1,393.8,158.2z"/>
				<path class="st12" d="M382.1,203L382.1,203c0-0.1,0-0.2,0.1-0.3c0.2-1.1,0.3-2.6-0.7-3.3c-0.5-0.4-1.2-0.6-2-0.5
					c-0.8,0-1.7,0.3-2.5,0.5c-0.2,0-0.4,0.1-0.5,0.1c-0.2,0.1-0.5,0.1-0.7,0.2c-1.9,0.5-3.8,0.9-5.8,1c-0.1,0-0.2,0-0.3,0l0,0
					c-1.8,0-3.6-0.2-5.1-0.7c-1.9-0.6-3.4-1.4-4.4-2.6c-1.6-1.8-2.3-4.6-1.9-7.6c0.5-3.8,2.7-6.6,6.6-8.7c3.4-1.8,7.5-2.7,11.2-3.5
					c0.7-0.2,1.4-0.3,2.1-0.5c1.8-0.4,3.4-1.5,4.6-2.9c1.2-1.5,1.8-3.3,1.7-5.2c0-1-0.4-1.8-0.9-2.1c-0.2-0.1-0.4-0.3-0.6-0.6
					c-2.1-2-2.1-5.5-2.1-5.6l-0.4-12.2l3.7-0.1l0.4,11.9c0.3,1.5,1.1,1.6,1.1,1.6l0.1,0l0,0c0,0,0.1,0,0.1,0c0.1,0,0.2,0,0.3,0
					c0.2-0.1,0.3-0.2,0.5-0.4c0,0,0.1-0.1,0.1-0.1c0.7-0.7,1.5-1.5,2.5-2.1c0.8-0.4,1.6-0.8,2.4-1c0.9-0.2,1.6-0.3,2.4-0.4h0.1
					c0.7,0,1.4,0,2.2,0.2c3.6,0.8,5.7,4.2,6.4,5.6c1.2,2.3,1.5,5,1.2,8.1c-0.4,3.3-1.5,6.2-2.4,8c-1.4,2.9-3.8,5.6-6.9,7.8
					c-4.1,2.8-9,4.4-13.7,4.6l0,0c-1.5,0-2.9,0-4.3-0.3c-3.8-0.6-6-1.8-6.6-3.5c0-0.1-0.1-0.2-0.1-0.2c0,0-0.1,0.1-0.1,0.1
					c-0.2,0.3-0.6,1-1.9,1.1c-0.1,0-0.2,0-0.3,0c-0.5,0-1.7-0.1-2.3-0.7c0,0.1,0,0.3,0,0.4c0,0.8-0.1,1.9-0.8,2.3
					c0.1,0,0.2,0.1,0.3,0.2c0.3,0.2,0.6,0.7,0.6,1.5c0,0.8,0.4,1.2,0.7,1.4c1.1,0.9,2.6,1.4,4.2,1.4c1.6-0.1,3.1-0.6,4.6-1.1
					c1.1-0.4,2.2-0.8,3.3-1c0.8-0.2,1.6-0.2,2.4-0.3c2.1-0.1,3.9,0.4,5.4,1.3c0.7,0.5,1.2,0.9,1.6,1.5c0.4,0.5,0.7,1.2,1,2
					c0.1,0.3,1,2.7,0.5,3.7c-0.1,0.2-0.2,0.3-0.4,0.4l0,0c-0.7,0.1-1.4,0.1-2,0.2C385,202.8,383.5,202.9,382.1,203L382.1,203z
					 M379.4,198.8c0.9,0,1.6,0.2,2.1,0.5c1,0.8,0.9,2.3,0.7,3.4c0,0.1,0,0.1,0,0.2c1.4-0.1,2.8-0.2,4.1-0.3c0.7-0.1,1.4-0.1,2-0.2
					c0.2-0.1,0.3-0.2,0.4-0.3c0.5-0.9-0.4-3.3-0.5-3.6c-0.7-1.7-1.2-2.5-2.5-3.4c-1.4-0.9-3.2-1.4-5.4-1.3c-0.7,0-1.6,0.1-2.4,0.3
					c-1.1,0.2-2.2,0.6-3.3,1c-1.5,0.5-3,1.1-4.6,1.1c-1.6,0.1-3.1-0.4-4.2-1.4c-0.4-0.3-0.7-0.7-0.7-1.5c0-0.8-0.3-1.2-0.6-1.4
					c-0.1-0.1-0.2-0.2-0.3-0.2l-0.1,0l0.1-0.1c0.6-0.4,0.7-1.5,0.8-2.2c0-0.2,0-0.4,0-0.6l0-0.1l0.1,0.1c0.6,0.7,1.8,0.7,2.4,0.7
					c0.1,0,0.2,0,0.2,0c1.2,0,1.6-0.7,1.8-1c0.1-0.1,0.1-0.2,0.2-0.2c0.1,0,0.1,0.1,0.2,0.3c0.5,1.6,2.8,2.8,6.5,3.5
					c1.4,0.2,2.8,0.3,4.3,0.3c4.7-0.2,9.6-1.8,13.7-4.6c3.1-2.1,5.5-4.8,6.9-7.7c1.1-2.2,4.3-10,1.2-16c-1.5-3-3.8-5-6.3-5.5
					c-0.7-0.2-1.4-0.2-2.1-0.2l0,0c-0.7,0-1.5,0.1-2.4,0.4c-0.9,0.2-1.7,0.6-2.4,1c-1,0.6-1.7,1.3-2.4,2.1c0,0-0.1,0.1-0.1,0.1
					c-0.1,0.2-0.3,0.4-0.5,0.4c-0.1,0-0.2,0.1-0.3,0.1c-0.1,0-0.1,0-0.2,0l-0.1,0l0,0c-0.2-0.1-0.9-0.4-1.1-1.7l-0.4-11.8l-3.5,0.1
					l0.4,12.1c0,0,0,3.5,2.1,5.5c0.2,0.2,0.4,0.4,0.6,0.5c0.6,0.3,0.9,1.1,0.9,2.2c0.1,1.9-0.6,3.7-1.8,5.2c-1.2,1.5-2.8,2.5-4.7,3
					c-0.7,0.2-1.4,0.3-2.1,0.5c-3.6,0.8-7.7,1.7-11.1,3.5c-3.9,2.1-6.1,4.9-6.6,8.6c-0.4,2.9,0.3,5.7,1.9,7.5c1,1.1,2.5,2,4.4,2.6
					c1.5,0.5,3.4,0.7,5.1,0.7l0,0c0.1,0,0.2,0,0.3,0c2-0.1,3.9-0.5,5.8-1c0.3-0.1,0.5-0.1,0.8-0.2c0.2,0,0.3-0.1,0.5-0.1
					C377.7,199,378.6,198.8,379.4,198.8z"/>
			</g>
			<path class="st13" d="M402.3,163.9c-1.3-2.5-3.5-4.9-6.3-5.6c-0.7-0.2-1.4-0.2-2.1-0.2c-0.8,0-1.6,0.2-2.4,0.4
				c-0.9,0.2-1.7,0.6-2.4,1c-1,0.6-1.7,1.3-2.4,2.1c-0.2,0.2-0.4,0.4-0.6,0.5c-0.1,0-0.2,0-0.3,0.1c-0.1,0-0.1,0-0.2,0l0,0
				c0,0-0.8-0.1-1.2-1.7l-0.4-11.9l-1.3,0l0.4,11.8c0,0,0.1,1.7,1.2,2.4c0,0,0.7,0.6,0.5,1.3c-0.2,0.7-2.4,2-4-3.3
				c0,0,0,3.5,2.1,5.5c0.2,0.2,0.4,0.4,0.6,0.5c0.6,0.3,0.9,1.1,0.9,2.1c0.1,1.8-0.5,3.6-1.6,5c0.5-0.4,1.7-1.6,2.2-3.6
				c0.6-2.5,0.1-7.5,5.6-8.6c5.5-1.1,9.3,6.1,5.9,14.7c0,0-2.2,5.8-9.6,9.2c-7.5,3.4-16.4,1.1-16.6-2.8c-0.2-3.9,4.2-4.9,4.7-5
				c0.1,0,0.2-0.1,0.2-0.1c-5,1.1-10.9,2.6-14.3,6.2c1.6-1.4,3.8-3,5.4-3.1c2.9-0.2,3.2,4.8,1.3,5.8c-1.9,1-4.4-1.4-4.4-1.6
				c0,0,1.5,6.7-3.6,7.5c0.5-0.1,2.5-0.2,3.2,1.5c0.8,2,4.6,5.2,9.7,3.6c0,0-2.3,0.8-2.9,1.8c0,0-1.8-1.6-4.3-0.8c0,0-1-2.3-5.6-1.7
				c0.1,0.2,0.2,0.3,0.4,0.5c2.2,2.5,6.3,3.3,9.5,3.2c0.1,0,0.2,0,0.3,0c2.2-0.1,4.4-0.7,6.5-1.2c1.5-0.4,3.7-1.1,5.1,0
				c1,0.7,0.9,2.2,0.7,3.3c0,0.1,0,0.2,0,0.2c2.1-0.1,4.2-0.3,6.2-0.5c1.2-0.4,0.1-3.4-0.1-4c-0.6-1.6-1.1-2.5-2.6-3.4
				c-2.3-1.5-5.2-1.5-7.8-1c-2.7,0.5-5.2,2-7.9,2.1c-1.5,0.1-3-0.4-4.2-1.4c-0.3-0.3-0.7-0.6-0.7-1.5c0-0.7-0.3-1.2-0.6-1.4
				c-0.1-0.1-0.2-0.2-0.3-0.2l0,0c0.8-0.5,0.7-2.2,0.8-2.8c0.6,0.7,1.8,0.7,2.4,0.8c2.2,0.1,2-1.9,2.3-1c0.7,2.3,4.5,3.2,6.5,3.5
				c6.2,1,12.8-0.8,18-4.3c2.9-2,5.4-4.6,6.9-7.7C403.3,175.3,404.8,168.8,402.3,163.9z"/>
			<path class="st11" d="M380.6,149l0.4,11.2c0,0,0.2,2.3,1.7,3.8c0,0-1.3-2-1.4-4.3l-0.3-10.7L380.6,149z"/>
			<path class="st11" d="M388.6,163.1c0,0-2.1,0.6-2.9,5c-0.8,4.5-2.3,9.2-10.8,10c0,0,3.8,0.5,6.8-1.8c0,0,2-1.4,3-3.5
				C386.3,169.1,385.8,165.6,388.6,163.1z"/>
			<path class="st11" d="M363.5,182.3c0,0-8.1,5.5-3.9,14.1C359.7,196.4,355.8,189.2,363.5,182.3z"/>
		</g>
		<g class="st14">
			<path class="st11" d="M378.4,197.3c0,0-4.6-1.2-6.4,2.5c-0.1,0.2-0.2,0.5-0.3,0.7c1.6-0.2,3.2-0.6,4.7-1c1.5-0.4,3.7-1.1,5.1,0
				c1,0.7,0.9,2.2,0.7,3.3c0,0.1,0,0.2,0,0.2c2.1-0.1,4.2-0.3,6.2-0.5c1.2-0.4,0.1-3.4-0.1-4c-0.6-1.6-1.1-2.5-2.6-3.4
				c-1.2-0.8-2.6-1.2-4-1.3c-0.3,0.4-0.7,1-0.8,1.8C380.9,195.6,378.8,195.9,378.4,197.3z"/>
		</g>
	</g>
	<g>
		<g>
			<path class="st15" d="M370.3,245.6c0,0-1,3.2,0.4,6.1c1.8,3.5,2.7,2.5,2.6,5c-0.1,2.5,0.5,4.1,1,5.3c0.4,1.2,3.3,1,3.7-0.3
				c0.4-1.3,0.5-3.7,0.2-4.9c-0.3-1.2,2.6-4.5,2.1-8.7c0,0,3.2,4.4,7.6,1.8c0,0,6.1,1.6,7-4.3c0,0,3.6,0.3,3.7-5.3
				c0,0,2.7-0.2,1.9-4.9c0,0,2.1-1.3,1.3-4.5c0,0,2.6-1,1.5-5c0,0,2.8-1.5,0.2-6.7c0,0,1-2.3-0.3-4.2c0,0,1.1-2-1.2-4.7
				c0,0,1.3-1.7-0.6-4.6c0,0,1.1-2.2-0.6-5.2c0,0,1.1-0.9,0.2-3c0,0,1.1-1,0.5-3.2c0,0,2.6-1.3,1.6-4.6c0,0,1.6-4.4-0.9-5.6
				c-1.5-0.7-2.5-0.5-3.4-0.2c-0.5,0.2-1,0.3-1.5,0.2c-1.3-0.2-2.7-1.5-4.5-0.8c-1.8,0.6-1.8,2.4-1.8,3c0,0-2.6,1.1-2.1,3.2
				c0,0-2.3,0.6-2.5,3.1c0,0-2.6,0.4-2.7,3.4c0,0-3.4,0.3-3.6,2.9c0,0-3.1-0.8-4.7,0.4c0,0-4.1-0.5-5.7,1.2c0,0-1.9-2.1-4.8-0.9
				c0,0-2.3-1.7-4.3-0.9c0,0-0.7-1.9-4.3-1.3c0,0-0.9-1.5-4.2-0.8c0,0-2.3-1.3-4,1.2c0,0-2.9-0.3-4.2,2c-1.3,2.3-0.1,3.8-0.1,3.8
				s-1.4,0.5-1,2.4c0,0-1.3,1.3-0.8,3.7c0,0-0.8,1-0.4,3.8c0,0-1.5,2.3-0.4,4.8c0,0-0.7,1.4,0.5,4.9c0,0-1.6,2.6,0.8,5.2
				c0,0-1.1,6.7,5.1,7.4c0,0,1.5,4.6,7,3.1c0,0,1.6,3.7,7.1,1.4c5.5-2.3,2.3-11.4-1.3-16.4c-3.6-5-11-9.4-10-12.7
				c0.9-3.3,6.1-3.8,8.2-3.7c2.1,0.1,24.2,0.2,29.8-2.8c5.6-3,6.6,13.5,4.7,18c-0.7,1.8-1.6,7.5-0.8,9.5c0.2,0.6-1.7,1.4-1.9,1.9
				c-1,3.5-2,3.7-4.4,4c-1.8,0.2-3.7-0.5-5.5-1.2c-2.8-1.1-5.4-2.2-6.9,0.1C371.2,240.4,370.3,245.6,370.3,245.6L370.3,245.6z"/>
			<path class="st16" d="M376.1,262.8L376.1,262.8c-0.9,0-1.6-0.3-1.8-0.8l0-0.1c-0.4-1.2-1-2.8-0.9-5.2c0-1.4-0.2-1.7-0.8-2.3
				c-0.4-0.5-1.1-1.1-1.8-2.7c-1.4-2.8-0.4-6.1-0.4-6.1c0,0,0.9-5.3,3.3-9c0.6-0.9,1.3-1.3,2.4-1.4c1.2,0,2.7,0.5,4.3,1.1l0.3,0.1
				c1.8,0.7,3.4,1.2,5,1.2c0.2,0,0.3,0,0.5,0c2.3-0.3,3.4-0.4,4.4-3.9c0.1-0.2,0.4-0.5,0.9-0.8c0.5-0.4,1.1-0.8,1-1.1
				c-0.8-2,0.1-7.7,0.8-9.5c1.4-3.3,1.2-13.3-1.3-17c-0.9-1.3-2-1.6-3.3-0.9c-3.6,1.9-14.2,2.6-20.1,2.8c-5,0.2-8.9,0.1-9.7,0.1
				c-0.3,0-0.7,0-1.1,0c-1.4,0-6.2,0.5-7.1,3.6c-0.6,2,2,4.5,4.9,7.3c1.8,1.7,3.7,3.5,5.1,5.4c2.8,3.8,5.1,9.6,4,13.3
				c-0.4,1.5-1.3,2.5-2.7,3.1c-1.1,0.5-2.2,0.7-3.1,0.8c-2.8,0.1-3.9-1.8-4-2.1c-0.6,0.2-1.2,0.2-1.8,0.3c-3.8,0.1-5.1-3.1-5.3-3.4
				c-1.7-0.2-3-0.9-3.9-2c-1.6-2.1-1.2-5.1-1.2-5.4c-1.3-1.4-1.4-2.7-1.4-3.6c0.1-0.9,0.4-1.5,0.5-1.6c-1.1-3.3-0.5-4.7-0.5-4.9
				c-1-2.4,0.3-4.5,0.4-4.8c-0.4-2.6,0.3-3.6,0.4-3.8c-0.4-1.9,0.4-3.2,0.8-3.7c-0.3-1.4,0.4-2.1,1-2.4c-0.4-0.6-0.9-2,0.1-3.8
				c0.4-0.7,1.4-1.9,3.7-2c0.2,0,0.4,0,0.5,0c0.7-1,1.6-1.5,2.5-1.5c0.8,0,1.4,0.3,1.5,0.3c0.5-0.1,0.9-0.2,1.4-0.2
				c2-0.1,2.7,0.8,2.8,1c0.4-0.1,0.7-0.1,1-0.1c2-0.1,3,0.9,3.2,1.4c0.3-0.1,0.6-0.2,1-0.2c1.6-0.1,3.1,1,3.3,1.1
				c0.5-0.2,1.1-0.3,1.6-0.3c1.8-0.1,3,1,3.2,1.2c0.9-0.9,2.6-1.2,3.8-1.2c1,0,1.7,0.1,1.9,0.1c0.5-0.4,1.3-0.6,2.2-0.6
				c1.1,0,2.2,0.2,2.4,0.2c0.3-2.4,3.2-2.9,3.6-2.9c0.1-2.8,2.3-3.3,2.7-3.4c0.2-2.3,2.1-3,2.5-3.1c-0.4-2,1.8-3,2.1-3.2
				c0-0.9,0.2-2.4,1.9-3c0.3-0.1,0.6-0.2,1-0.2c0.9,0,1.7,0.3,2.4,0.6c0.4,0.2,0.8,0.3,1.2,0.4c0.1,0,0.2,0,0.4,0
				c0.3,0,0.7-0.1,1-0.2l0.1,0c0.4-0.1,0.9-0.2,1.4-0.2c0.7,0,1.4,0.1,2.1,0.5c2.4,1.1,1,5.3,0.9,5.6c0.9,3-1.3,4.4-1.6,4.6
				c0.5,1.9-0.4,3-0.5,3.1c0.8,1.8,0,2.8-0.2,3c1.3,2.3,1,4.4,0.6,5.2c1.8,2.7,0.8,4.3,0.6,4.6c2.1,2.5,1.3,4.4,1.2,4.7
				c1.2,1.9,0.4,4,0.3,4.3c0.8,1.5,1.5,3.6,0.9,5.3c-0.3,0.9-0.9,1.3-1.1,1.4c0.6,2.1,0.1,3.4-0.4,4c-0.4,0.7-1,0.9-1.1,1
				c0.7,3-1,4.3-1.3,4.5c0.3,1.9,0.1,3.2-0.6,4.1c-0.5,0.7-1.2,0.8-1.4,0.8c0,2.1-0.5,3.5-1.5,4.4c-0.8,0.7-1.7,0.8-2,0.8
				c0,0-0.1,0-0.1,0c-0.5,3.6-3,4.5-5,4.5c-1,0-1.8-0.1-2-0.2c-0.9,0.5-1.8,0.8-2.7,0.8c-2.5,0.1-4.4-1.9-4.8-2.5
				c0.3,2.6-0.7,4.8-1.5,6.4c-0.4,0.9-0.8,1.7-0.7,2.1c0.3,1.2,0.2,3.6-0.2,4.9C377.9,262.4,376.9,262.8,376.1,262.8z M375.9,235.3
				c-1,0-1.7,0.5-2.3,1.3c-2.3,3.7-3.2,8.9-3.2,9c0,0-1,3.2,0.4,6c0.8,1.5,1.4,2.2,1.8,2.7c0.6,0.6,0.8,0.9,0.8,2.3
				c-0.1,2.4,0.5,4,0.9,5.2l0,0.1c0.2,0.5,0.9,0.8,1.7,0.8c0.8,0,1.7-0.4,1.9-1.1c0.4-1.3,0.5-3.8,0.2-4.9c-0.1-0.5,0.2-1.2,0.7-2.1
				c0.7-1.7,1.8-3.9,1.4-6.5l0-0.2l0.1,0.2c0,0,2,2.7,4.9,2.6c0.9,0,1.8-0.3,2.6-0.8l0,0l0,0c0,0,0.9,0.2,2,0.2
				c2-0.1,4.4-0.9,4.9-4.5l0-0.1l0.1,0c0,0,0.1,0,0.2,0c0.8,0,3.4-0.5,3.4-5.2v-0.1l0,0c0,0,0.8-0.1,1.3-0.8c0.7-0.8,0.8-2.2,0.5-4
				l0,0l0,0c0,0,2.1-1.3,1.3-4.4l0,0l0,0c0,0,2.5-1,1.5-5l0,0l0,0c0,0,0.7-0.4,1.1-1.4c0.6-1.7-0.2-3.8-0.9-5.2l0,0l0,0
				c0,0,1-2.3-0.3-4.2l0,0l0,0c0,0,1.1-2-1.2-4.6l0,0l0,0c0.4-0.6,0.9-2.2-0.6-4.5l0,0l0,0c0.4-0.8,0.8-2.8-0.6-5.2l0,0l0,0
				c0,0,1-0.9,0.2-2.9l0,0l0,0c0,0,1.1-1,0.5-3.1l0,0l0,0c0,0,2.5-1.3,1.6-4.5l0,0l0,0c0,0,1.5-4.4-0.8-5.5c-0.7-0.3-1.4-0.5-2-0.5
				c-0.5,0-0.9,0.1-1.3,0.2l-0.1,0c-0.4,0.1-0.7,0.2-1,0.2c-0.1,0-0.3,0-0.4,0c-0.4-0.1-0.8-0.2-1.2-0.4c-0.7-0.3-1.5-0.6-2.3-0.6
				c-0.3,0-0.6,0.1-0.9,0.2c-1.6,0.6-1.8,2.1-1.8,2.9v0l0,0c0,0-2.5,1.1-2.1,3.1l0,0l0,0c0,0-2.3,0.6-2.5,3v0l0,0
				c0,0-2.5,0.4-2.6,3.3l0,0l0,0c0,0-3.3,0.3-3.6,2.9l0,0.1l-0.1,0c0,0-1.2-0.3-2.5-0.3c-0.9,0-1.7,0.2-2.2,0.6l0,0l0,0
				c0,0-0.8-0.1-1.9-0.1c-1.2,0-2.9,0.3-3.8,1.2l0,0l0,0c0,0-1.2-1.3-3.2-1.2c-0.5,0-1.1,0.1-1.6,0.3l0,0l0,0c0,0-1.6-1.2-3.2-1.1
				c-0.3,0-0.7,0.1-1,0.2l0,0l0,0c-0.2-0.5-1.1-1.5-3.1-1.4c-0.3,0-0.7,0-1.1,0.1l0,0l0,0c0,0-0.7-1-2.7-1c-0.4,0-0.9,0.1-1.4,0.2
				l0,0l0,0c0,0-0.6-0.3-1.5-0.3c-1,0-1.8,0.5-2.5,1.5l0,0l0,0c0,0-0.2,0-0.5,0c-2.2,0.1-3.2,1.3-3.6,2c-1,1.8-0.5,3.2-0.1,3.7
				l0,0.1l-0.1,0c-0.1,0-1.4,0.5-0.9,2.3l0,0l0,0c0,0-1.3,1.3-0.8,3.7l0,0l0,0c0,0-0.8,1-0.4,3.7l0,0l0,0c0,0-1.4,2.3-0.4,4.7l0,0
				l0,0c0,0-0.7,1.4,0.5,4.9l0,0l0,0c0,0-1.6,2.6,0.8,5.1l0,0l0,0c0,0-0.5,3.2,1.1,5.3c0.9,1.1,2.2,1.8,3.9,2l0,0l0,0
				c0,0,1.2,3.5,5.2,3.4c0.6,0,1.2-0.1,1.8-0.3l0,0l0,0c0,0,1,2.2,3.9,2.1c0.9,0,2-0.3,3.1-0.7c1.4-0.6,2.3-1.6,2.7-3.1
				c1-3.6-1.2-9.4-4-13.2c-1.4-1.9-3.2-3.7-5.1-5.4c-3-2.8-5.6-5.3-5-7.4c0.9-3.2,5.7-3.7,7.2-3.7c0.4,0,0.8,0,1.1,0
				c0.8,0,4.7,0.1,9.7-0.1c6-0.2,16.5-0.8,20.1-2.8c1.3-0.7,2.5-0.4,3.4,1c2.6,3.7,2.7,13.8,1.3,17.1c-0.7,1.8-1.6,7.5-0.8,9.4
				c0.2,0.4-0.5,0.8-1.1,1.2c-0.4,0.3-0.8,0.5-0.8,0.7c-1,3.6-2.1,3.7-4.5,4c-0.2,0-0.3,0-0.5,0c-1.6,0.1-3.2-0.5-5-1.2l-0.3-0.1
				C378.6,235.9,377.1,235.3,375.9,235.3z"/>
		</g>
		<g>
			<path class="st17" d="M378.6,253c-0.7,0.5-1.5,0.8-2.5,1c-0.9,0.1-1.8,0.1-2.7-0.2c-0.3-0.1-0.5-0.2-0.7-0.3
				c-0.2-0.1-0.4-0.2-0.6-0.3c0.4,0.3,0.8,0.6,1.3,0.8c0.9,0.3,1.9,0.3,2.8,0.2c1.3-0.1,2.5-0.8,3.4-1.7
				C379.1,252.7,378.9,252.9,378.6,253z"/>
			<path class="st17" d="M385.3,240.2c-0.1,0.6-0.3,1-0.7,1.5c-0.4,0.4-0.8,0.8-1.4,0.9c0,0-0.1,0.1,0,0.1c0,0,0,0,0,0
				c0.8,1.6-0.2,3.5-1.5,4.5c-0.7,0.6-1.6,0.8-2.5,1c-1.1,0.2-1.9,0-2.9-0.3c0,0,0,0,0,0c0.4,0.2,0.8,0.4,1.3,0.5
				c0.5,0.1,1.1,0,1.6,0c1-0.2,1.9-0.5,2.7-1.1c1.3-1,2.2-3,1.4-4.5c0.5,0,1-0.5,1.4-0.9C385.1,241.4,385.4,240.8,385.3,240.2
				C385.4,240.1,385.3,240.2,385.3,240.2z"/>
			<path class="st17" d="M388.4,240C388.4,240,388.4,240,388.4,240c0.9,0.9,0.7,2.8,0.1,3.8c0,0,0,0,0,0
				C389.3,242.9,389.5,240.7,388.4,240z"/>
			<path class="st17" d="M388.4,243.8C388.4,243.8,388.4,243.8,388.4,243.8c0.7,0.7,0.9,1.5,0.9,2.4c0.1,1.1-0.6,2.6-1.3,3.4
				c0,0,0,0.1,0,0c0.4-0.3,0.6-0.9,0.9-1.3c0.3-0.6,0.5-1.3,0.6-2C389.5,245.6,389.3,244.1,388.4,243.8z"/>
			<path class="st17" d="M394.6,242.4c-0.4-1.1-1.1-1.8-2.2-2c0,0-0.1,0,0,0c1.1,0.3,1.7,1,2.1,2.1c0.4,1,0.6,2.2,0.4,3.3
				c0,0,0,0,0,0C395.3,244.7,395,243.5,394.6,242.4z"/>
			<path class="st17" d="M397.1,237c-0.8-0.5-1.7-0.7-2.5-0.2c-0.1-1.7-1.8-3.1-3.5-2.8c0,0-0.1,0.1,0,0.1c1.8-0.2,3.1,1.2,3.4,2.9
				c-0.1,0.1-0.1,0.1-0.2,0.2c0,0,0,0.1,0,0c0.1-0.1,0.1-0.1,0.2-0.1c0,0.1,0,0.1,0,0.2c0,0.1,0.1,0,0.1,0c0-0.1,0-0.1,0-0.2
				c0.9-0.5,1.9-0.1,2.7,0.5c0.9,0.7,1.2,1.6,1.3,2.7c0,0,0,0,0,0C398.6,238.7,398.2,237.7,397.1,237z"/>
			<path class="st17" d="M398.8,232.9c-0.8-0.5-1.5-0.5-2.3-0.2c-0.3-1.4-1.9-2.2-3.3-1.4c0,0,0,0.1,0,0c0.7-0.4,1.7-0.3,2.4,0.2
				c0.4,0.3,0.6,0.7,0.7,1.2c0,0-0.1,0-0.1,0.1c0,0,0,0.1,0,0c0,0,0.1,0,0.1,0c0,0.2,0.1,0.3,0.1,0.5c0,0.1,0.1,0,0.1,0
				c0-0.2,0-0.3,0-0.5c0.3-0.1,0.6-0.2,1.1-0.2c0.5,0,1,0.4,1.4,0.7c0.7,0.6,1.3,1.4,1.6,2.2c0,0,0.1,0,0,0
				C400.4,234.4,399.7,233.6,398.8,232.9z"/>
			<path class="st17" d="M400.5,228.8c-0.3-0.3-0.7-0.4-1.1-0.5c-0.4-0.1-0.8,0.1-1.2,0.1c0,0,0,0,0,0c0.3,0,0.6-0.1,0.9-0.1
				c0.6,0,1.1,0.4,1.4,0.7c0.6,0.5,1,1.2,1.3,2c0,0,0,0,0,0C401.6,230.1,401.2,229.3,400.5,228.8z"/>
			<path class="st17" d="M403.4,226.1c-0.3-0.9-1.1-1.6-2-2c-0.7-0.2-1.8-0.3-2.3,0.2c0,0,0,0,0,0c0.7-0.5,1.9-0.3,2.6,0
				C402.4,224.7,403,225.4,403.4,226.1C403.4,226.2,403.4,226.1,403.4,226.1z"/>
			<path class="st17" d="M403.6,219c-0.3,0.4-0.6,0.9-1,1.2c-0.4,0.3-0.8,0.6-1.3,0.8c-0.6,0.2-2.1,0.5-2.5-0.2c0,0-0.1,0,0,0
				c0.4,0.7,1.7,0.5,2.3,0.3C402.2,220.9,402.9,219.9,403.6,219C403.6,218.9,403.6,218.9,403.6,219z"/>
			<path class="st17" d="M403.2,214.8c-0.4,1-1.2,1.9-2,2.6c-0.6,0.5-2.1,1.1-2.7,0.3c0,0,0,0,0,0c0.5,0.7,1.7,0.5,2.3,0.1
				C401.8,217.1,402.9,216,403.2,214.8C403.3,214.7,403.2,214.7,403.2,214.8z"/>
			<path class="st17" d="M402,210.1c-0.6,0.9-1.3,1.7-2.2,2.3c-0.6,0.4-1.8,0.7-2.3-0.1c0,0,0,0,0,0c0.4,0.8,1.4,0.6,2.1,0.3
				C400.6,212.2,401.5,211.1,402,210.1C402.1,210.1,402,210.1,402,210.1z"/>
			<path class="st17" d="M401.4,205.4c-0.5,0.8-1.3,1.3-2.1,1.7c-0.4,0.2-0.9,0.3-1.4,0.2c-0.5,0-0.9-0.4-1.2-0.7c0,0,0,0,0,0
				c0.7,0.8,1.5,1,2.5,0.6C400.1,206.9,401,206.4,401.4,205.4C401.5,205.4,401.4,205.4,401.4,205.4z"/>
			<path class="st17" d="M400.9,200.4c-0.6,0.9-1.3,1.5-2.2,2c-0.8,0.5-1.9,0.9-2.7,0.2c0,0-0.1,0,0,0c0.7,0.7,1.7,0.4,2.5,0
				C399.4,202.2,400.4,201.4,400.9,200.4C400.9,200.4,400.9,200.3,400.9,200.4z"/>
			<path class="st17" d="M401.1,197.3c-0.7,0.6-1.6,1-2.5,1.2c-0.8,0.2-2.1,0.3-2.7-0.4c0,0,0,0,0,0c0.5,0.7,1.4,0.7,2.2,0.6
				C399.2,198.6,400.2,198.1,401.1,197.3C401.1,197.4,401.1,197.3,401.1,197.3z"/>
			<path class="st17" d="M401.8,194.1c-0.7,0.3-1.3,0.3-2.1,0.2c-0.6-0.1-1.5-0.3-1.8-0.8c0,0-0.1,0,0,0c0.3,0.5,1,0.8,1.6,0.9
				C400.3,194.6,401.1,194.6,401.8,194.1C401.9,194.2,401.9,194.1,401.8,194.1z"/>
			<path class="st17" d="M348.2,203.3c-1.4,0.7-3,1-4.3,0c0,0,0,0,0,0C345,204.5,346.9,204.1,348.2,203.3
				C348.2,203.3,348.2,203.2,348.2,203.3z"/>
			<path class="st17" d="M350.8,207.5c-1.2,0.5-3.4,0.3-3.6-1.3c0,0,0,0,0,0c0,0.2,0,0.4,0.1,0.6c-1.4,0.8-3.6,0.1-4.4-1.3
				c0,0-0.1,0,0,0c0.3,0.8,1.2,1.3,2,1.5c0.8,0.3,1.7,0.3,2.4-0.2C347.9,208,349.9,208.1,350.8,207.5
				C350.9,207.6,350.9,207.5,350.8,207.5z"/>
			<path class="st17" d="M350.1,211.3c-1,0.7-2.2,0.8-3.1,0c0,0,0,0,0,0c-0.1-0.1-0.2-0.2-0.3-0.3c0,0,0,0,0,0
				c0.1,0.1,0.2,0.2,0.2,0.3c-1,0.4-1.9,0.2-2.8-0.2c-0.9-0.5-1.4-1.1-1.9-1.9c0,0,0,0,0,0c0.7,1.7,3,3.1,4.8,2.2
				C347.8,212.3,349.2,212.2,350.1,211.3C350.2,211.4,350.2,211.3,350.1,211.3z"/>
			<path class="st17" d="M350.7,214.9c-0.6,0.6-1.4,1-2.3,0.9c-0.5,0-1.2-0.4-1.5-0.8c0.1,0,0.1-0.1,0.2-0.1c0,0,0-0.1,0,0
				c-0.1,0-0.1,0.1-0.2,0.1c-0.1-0.1-0.2-0.2-0.2-0.3c0,0,0,0,0,0c0,0.1,0.1,0.3,0.2,0.4c-0.9,0.5-2,0.5-3,0.1
				c-1.1-0.4-1.6-1.3-2.1-2.3c0,0,0,0,0,0c0.3,1.3,1.2,2.1,2.4,2.5c0.9,0.3,2,0.3,2.8-0.3c0.3,0.5,1,0.8,1.6,0.9
				C349.3,216,350.1,215.5,350.7,214.9C350.8,214.9,350.7,214.8,350.7,214.9z"/>
			<path class="st17" d="M351.8,217.9c-0.7,0.7-1.5,1.2-2.5,1.3c-0.6,0-1.4-0.2-1.9-0.7c0,0,0,0,0,0c0,0,0-0.1,0,0c0,0,0,0,0,0
				c-0.1-0.1-0.2-0.2-0.2-0.4c0,0-0.1,0,0,0c0,0.1,0.1,0.3,0.2,0.4c-1,1-2.3,1.1-3.6,0.7c-1-0.3-2.1-0.8-2.6-1.7c0,0,0,0,0,0
				c0.4,1.2,1.9,1.7,3,1.9c1.2,0.2,2.4,0,3.3-0.9c0.4,0.5,1.3,0.8,1.9,0.8C350.2,219.4,351.2,218.8,351.8,217.9
				C351.8,217.9,351.8,217.9,351.8,217.9z"/>
			<path class="st17" d="M352,219.6c-0.2,0.9-1,1.8-1.8,2.2c-0.5,0.2-1.1,0.4-1.7,0.3c0,0,0,0,0.1-0.1c0-0.1,0-0.1-0.1,0
				c0,0,0,0.1-0.1,0.1c-0.2,0-0.4-0.1-0.6-0.2c0,0-0.1,0,0,0c0.1,0.2,0.3,0.3,0.5,0.3c-1.6,1.9-5,2.1-6.8,0.3c0,0,0,0,0,0
				c0.8,1.1,2.5,1.5,3.8,1.3c1.2-0.1,2.3-0.6,3.1-1.6c0.6,0.1,1.4-0.1,1.9-0.4C351.2,221.5,351.9,220.4,352,219.6
				C352.1,219.5,352,219.5,352,219.6z"/>
			<path class="st17" d="M353.1,222.6C353,222.5,353,222.6,353.1,222.6c-0.1,1-0.3,1.8-0.9,2.6c-0.4,0.5-1.1,0.9-1.8,1
				c0,0,0-0.1,0-0.1c0-0.1-0.1,0-0.1,0c0,0,0,0.1-0.1,0.1c-0.2,0-0.5,0-0.7-0.1c0,0,0,0,0,0c0.2,0.1,0.4,0.2,0.6,0.2
				c-0.3,0.6-0.7,1.1-1.3,1.6c-0.8,0.5-1.7,0.8-2.6,0.9c-1.5,0.1-3-0.1-4.2-1.2c0,0,0,0,0,0c1.2,1.4,3.1,1.5,4.8,1.2
				c1.4-0.2,2.8-1.1,3.4-2.5c0.7,0,1.4-0.5,1.8-0.9C352.8,224.6,353.1,223.5,353.1,222.6z"/>
			<path class="st17" d="M357.9,226.7C357.9,226.7,357.8,226.7,357.9,226.7c-0.1,2.2-2.6,3.7-4.6,3.3c0-0.1-0.1-0.2-0.1-0.3
				c0,0-0.1,0-0.1,0.1c0.5,1.5-0.7,3-1.7,3.9c-0.5,0.4-1.1,0.8-1.7,1c-0.7,0.3-1.6,0.7-2.4,0.6c0,0,0,0,0,0c0.8,0.2,1.5-0.2,2.3-0.4
				c0.8-0.3,1.5-0.7,2.1-1.3c0.6-0.6,1.1-1.2,1.5-2c0.2-0.4,0.3-1,0.3-1.5c0.4,0.2,0.9,0.1,1.2,0c0.6-0.1,1.2-0.3,1.8-0.7
				C357.2,228.9,358,227.9,357.9,226.7z"/>
			<path class="st17" d="M360.7,228.8C360.7,228.8,360.6,228.8,360.7,228.8c0.5,1,0.1,2.1-0.4,3c-0.7,1-1.7,1.2-2.8,1.1
				c-0.1-0.3-0.2-0.6-0.3-0.8c0,0-0.1,0-0.1,0c0.1,0.3,0.2,0.5,0.2,0.8c0,0,0,0,0,0c0,0,0,0,0,0c0,0,0,0,0,0c0.2,1,0,2-0.4,3
				c-0.2,0.5-0.6,1-0.9,1.4c-0.4,0.4-1,1.1-1.6,1.2c0,0,0,0,0,0c0.4,0,0.8-0.4,1.1-0.6c0.5-0.5,1-1,1.4-1.6c0.5-0.9,0.8-2.2,0.6-3.3
				c1.1,0.3,2.1-0.1,2.8-1C361,231.2,361.3,229.8,360.7,228.8z"/>
		</g>
		<path class="st18" d="M403.2,214.9c0,0,1.1-2-1.2-4.7c0,0,1.3-1.7-0.6-4.6c0,0,1.1-2.2-0.6-5.2c0,0,1.1-0.9,0.2-3
			c0,0,0.3-0.3,0.5-0.9c-0.8,0.9-2.8,1.5-3.6,1.2c-0.8-0.3,0.6-2.1,2.1-2.7c1-0.4,1.4-0.2,1.6,0c0-0.2-0.1-0.5-0.1-0.7
			c0,0,0.4-0.2,0.8-0.6c-0.7,0.3-1.4,0.3-1.6-0.3c-0.2-0.8,0.9-2.3,1.7-2.5c0.7-0.2,0.9,0.3,0.9,0.5c0-0.5,0-1-0.2-1.6
			c0,0,1.6-4.4-0.9-5.6c-1.5-0.7-2.5-0.5-3.4-0.2c-0.5,0.2-1,0.3-1.5,0.2c-1.3-0.2-2.7-1.5-4.5-0.8c-1.8,0.6-1.8,2.4-1.8,3
			c0,0-2.6,1.1-2.1,3.2c0,0-2.3,0.6-2.5,3.1c0,0-2.6,0.4-2.7,3.4c0,0-3.4,0.3-3.6,2.9c0,0-3.1-0.8-4.7,0.4c0,0-4.1-0.5-5.7,1.2
			c0,0-1.9-2.1-4.8-0.9c0,0-2.3-1.7-4.3-0.9c0,0-0.7-1.9-4.3-1.3c0,0-0.9-1.5-4.2-0.8c0,0-2.3-1.3-4,1.2c0,0-2.1-0.2-3.5,1.2
			c0.3-0.1,0.7-0.1,1.2,0c1.8,0.4,1.1,5.2-1.2,4.9c0,0,0.1,0.4,1,0.6c0.9,0.3,0.2,3.1-1.5,2.4c0,0,1.5,1.4,0.9,3
			c-0.6,1.6-2,0.9-2.3,0.5c0,0,0,0.7,0.8,1.4c0.8,0.7,1.6,2.3,0.8,3c-0.8,0.6-1.7,0-2.3-0.9c0,0,0,1.1,1.2,2.1
			c1.2,1,1.7,2.5,0.5,2.9c-0.9,0.4-2.2-0.6-2.8-2.1c0,0.5,0.1,1,0.4,1.5c0,0-0.7,1.4,0.5,4.9c0,0-1.6,2.6,0.8,5.2
			c0,0-1.1,6.7,5.1,7.4c0,0,1.5,4.6,7,3.1c0,0,1.6,3.7,7.1,1.4c5.5-2.3,2.3-11.4-1.3-16.4c-3.6-5-11-9.4-10-12.7
			c0.9-3.3,6.1-3.8,8.2-3.7c2.1,0.1,24.2,0.2,29.8-2.8c5.6-3,6.6,13.5,4.7,18c-0.7,1.8-1.6,7.5-0.8,9.5c0.2,0.6-1.7,1.4-1.9,1.9
			c-1,3.5-2,3.7-4.4,4c-1.8,0.2-3.7-0.5-5.5-1.2c-2.8-1.1-5.4-2.2-6.9,0.1c-2.4,3.7-3.3,9-3.3,9s-1,3.2,0.4,6.1
			c1.4,2.7,2.2,2.7,2.5,3.7c0-0.1,0-0.2-0.1-0.3c-0.2-0.4,1.3,0.4,2.4-0.1c1.2-0.5,0.9,0.2,0.6,1.5c-0.3,1.2,0.7,4.2,0.2,6.3
			c0.7-0.1,1.5-0.5,1.6-1.1c0.4-1.3,0.5-3.7,0.2-4.9c-0.3-1.2,2.6-4.5,2.1-8.7c0,0,3.2,4.4,7.6,1.8c0,0,6.1,1.6,7-4.3
			c0,0,3.6,0.3,3.7-5.3c0,0,2.7-0.2,1.9-4.9c0,0,2.1-1.3,1.3-4.5c0,0,2.6-1,1.5-5c0,0,2.8-1.5,0.2-6.7
			C403.5,219.2,404.5,216.9,403.2,214.9z M356.8,229.9c0.2-0.3,0.4-0.4,0.6-0.7c0.2-0.3,0.4-0.5,0.5-0.8c0-0.3,0.1-0.7,0.4-0.8
			c0.3-0.2,0.7,0.3,0.8,0.6c0.3,0.7,0.3,1.7-0.2,2.4c-0.4,0.6-1.1,0.9-1.8,0.4C356.9,230.7,356.6,230.3,356.8,229.9z M356.3,238.2
			c0.2-0.3,0.4-0.5,0.7-0.8c0,0,0,0,0,0c0.1-0.3,0.4-0.6,0.6-0.8c0,0,0,0,0-0.1c0,0,0,0,0.1,0c0.3-0.2,0.7-0.3,1,0.4
			c0.4,0.8,0.6,2.2,0,2.9c-0.6,0.7-2.1,0.2-2.6-0.4C355.8,239,356.1,238.5,356.3,238.2z M341.7,219.5c0.6-0.7,2.4,0.6,2.4,0.6
			s1.9,1.1,2,2.3c0.1,0.7-1.4,1.6-3.1,0.5C341.3,221.7,341.2,220.2,341.7,219.5z M341.8,225.4c-0.1-1,0.6-1.3,0.6-1.3
			c0.7-0.3,2,0.1,2.6,0.3c0.9,0.3,1.4,1.1,1.5,2c0,0.8-0.5,1.4-1.3,1.4C342.9,228,341.9,226.4,341.8,225.4z M348.1,233.4
			c-0.5,0.2-1.2,0.3-1.8,0.2c-1-0.2-1.8-0.8-2.4-1.6c-0.5-0.6-1.2-1.5-0.5-2.2c0.1-0.1,0.2-0.2,0.4-0.3c0.7-0.4,1.7-0.2,2.4-0.1
			c1.3,0.1,2.6,0.6,3.2,1.9C349.6,232.2,348.9,233.1,348.1,233.4z M354.5,235.1c-0.1,0.5-0.4,0.9-0.8,1.2c-0.7,0.5-1.7,0.8-2.6,0.8
			c-0.7,0-2.1-0.6-1.4-1.5c0.2-0.2,0.4-0.4,0.7-0.5c0.5-0.3,1.1-0.3,1.7-0.5C352.7,234.4,354.8,233.7,354.5,235.1z M352.2,226.4
			c0.1-0.4,0.5-1.8,1.1-1.5c0.5,0.2,0.3,0.9,0.3,1.3c0.1,0.7,0.4,1.4,0.4,2.1c0,0.3-0.3,0.4-0.5,0.4c-0.4,0-0.9-0.7-1.1-1
			C352.2,227.2,352.2,226.9,352.2,226.4C352.2,226.4,352.2,226.4,352.2,226.4z M351.6,222c0.3,0.1,0.3,0.4,0.3,0.8
			c-0.1,0.6-0.3,1.5-0.8,2c-0.7,0.5-1.2-1-1.2-1.5c0-0.4,0.2-0.6,0.5-0.8c0,0,0,0,0,0C350.7,222,351.1,221.8,351.6,222z
			 M350.8,219.6c0.1,0.2,0,0.5-0.2,0.7c-0.3,0.4-0.9,0.9-1.4,0.6c-0.3-0.2-0.3-0.8-0.1-1.1c0.2-0.3,0.6-0.4,0.9-0.4
			C350.3,219.4,350.7,219.4,350.8,219.6z M350.2,208.6c-0.1,0.2-0.4,0.3-0.6,0.5c-0.2,0.3-0.5,0.6-0.7,0.8c-0.3,0.2-0.5,0.2-0.7-0.1
			c-0.1-0.4-0.1-0.8,0-1.2c0-0.1,0.1-0.2,0.2-0.2c0,0,0,0,0-0.1c0,0,0,0,0,0c0,0,0,0,0,0c0,0,0.1,0,0.1,0c0.4,0,0.7,0.1,1,0.1
			c0.1,0,0.6-0.1,0.7,0C350.3,208.4,350.2,208.5,350.2,208.6z M350,206.1c-0.3,0.3-1,0.9-1.3,0.3c-0.3-0.5,0-1.3,0.4-1.7
			c0,0,0,0,0,0c0.3-0.3,0.6-0.4,1-0.1C350.7,204.9,350.4,205.7,350,206.1z M375,253.5c-2.4,0-3.3-2-3.4-3c-0.1-1,1.6-1.1,1.6-1.1
			c0.7-0.1,4.1-0.5,4.5,0.4C378.1,250.8,377.4,253.5,375,253.5z M377,247.4c-1.6-0.4,0.8-3.6,2.4-4c1.7-0.4,2.3,1.3,2.3,1.3
			C382.3,246.6,378.6,247.8,377,247.4z M388.2,247.4c-1.2,3.6-6.2,1.8-5.5,0.1c0.6-1.7,3.2-1.9,4.6-1.4
			C388.6,246.7,388.2,247.4,388.2,247.4z M394,245c-0.1,2.2-2.3,4.4-3.9,4.2c-1.6-0.2,1.2-4.5,2.5-5.1C394.1,243.6,394,245,394,245z
			 M403.1,217.2c0.2,2.2-1.8,3.6-2.5,2.9c-0.6-0.7,1.1-2.5,1.7-3.1C403,216.4,403.1,217.2,403.1,217.2z M402.6,212.4
			c0.1,0.1,0.1,0.3,0.1,0.4c0.2,0.9-0.1,1.9-0.6,2.6c-0.4,0.5-1.4,1.7-2.2,1.3c-0.9-0.6,0.2-3.7,1.2-4.7
			C401.8,211.3,402.3,211.8,402.6,212.4z M401.4,207.1c0.7,1.2,0.1,2.9-0.8,3.8c-0.4,0.5-1.4,1.3-1.8,0.3c-0.5-1.3,0.7-3.6,1.6-4.2
			C401,206.8,401.2,206.9,401.4,207.1z M400.9,204.8c-0.2,0.8-0.8,1.5-1.6,1.7c-1.9,0.3-0.6-3.2,0.4-4c0.5-0.4,0.9-0.4,1.1-0.2
			C401.2,202.9,401.1,204,400.9,204.8z M400.1,198.5c1.2-0.5,0.8,0.7,0.8,0.7c-0.7,2-3.1,3.4-3.2,2.2
			C397.7,200.2,398.9,199,400.1,198.5z M395.7,243.8c-1.3-0.4-0.1-5.5,1-5.8c1.1-0.4,1.3,1.5,1.3,1.5
			C398.3,242.3,397,244.2,395.7,243.8z M400.1,236.7c-0.1,0.7-0.6,2.1-1.5,1.3c-1.3-1.1-1.7-4.5-0.4-4.5c0.9,0,1.4,0.6,1.7,1.3
			C400.1,235.4,400.1,236.1,400.1,236.7z M399.5,232.9c-1-1.6-0.7-3.4,0.6-3.3c1.3,0.1,1.3,1.4,1.3,1.4
			C401.8,232.8,400.5,234.4,399.5,232.9z M401.4,228.9c-0.8-0.7-1.1-3.6,0-3.8c1.1-0.3,1.6,1.6,1.6,1.6
			C403.3,228.8,402.2,229.6,401.4,228.9z M403.8,222c0.3,2.4-1.3,2-2,1.3c-0.7-0.7-0.5-1.7,0.7-2.2C403.7,220.6,403.8,222,403.8,222
			z"/>
		<g>
			<path class="st11" d="M388,244.6c-1.1,0-2.4-0.2-3.8-0.8c-1.7-0.7-3-1.5-3.4-1.9c-1.6-1.2-2.4-0.9-2.4-0.9c0,0,0,0,0,0l-0.6-1.1
				c0.2-0.1,1.4-0.6,3.7,1c1.5,1.1,4.6,2.8,7,2.4c1-0.2,1.8-0.7,2.3-1.6c1.5-2.2,3.6-5.9,5.1-9.9c2-5.1,2.7-9.5,2-12.8
				c-0.2-0.7-0.3-1.4-0.4-2.1c-1.4-6.6-1.9-9.4-2.2-13.2c-0.1-1.2-0.1-2.4-0.2-3.4c-0.1-1.6-0.2-3.3-0.3-3.8
				c-0.2-0.3-0.1-0.6,0.2-0.8c0.2-0.1,0.4-0.2,0.7-0.1c0.4,0.2,0.4,0.5,0.5,1.7c0.1,0.7,0.1,1.8,0.2,2.9c0.1,1,0.1,2.2,0.2,3.4
				c0.2,3.7,0.8,6.4,2.1,13c0.1,0.7,0.3,1.3,0.4,2.1c0.7,3.6,0,8.2-2.1,13.5c-1.6,4.1-3.8,7.9-5.3,10.2c-0.8,1.1-1.8,1.8-3.2,2.1
				C388.5,244.5,388.2,244.6,388,244.6z"/>
			<path class="st12" d="M388,244.6c-1.1,0-2.4-0.2-3.8-0.8c-1.7-0.7-3-1.5-3.4-1.9c-1.1-0.8-1.8-0.9-2.1-0.9c-0.1,0-0.2,0-0.2,0
				l0,0l0,0l-0.6-1.1l0,0c0.1-0.1,0.3-0.2,0.8-0.2c0.6,0,1.6,0.2,3,1.2c1.3,0.9,4.1,2.5,6.4,2.4c0.2,0,0.4,0,0.6-0.1
				c1-0.2,1.7-0.7,2.3-1.5c1.5-2.2,3.6-5.9,5.1-9.9c2-5.1,2.7-9.4,2-12.8c-0.1-0.7-0.3-1.4-0.4-2.1c-1.4-6.6-1.9-9.4-2.2-13.2
				c-0.1-1.2-0.1-2.3-0.2-3.3l0-0.1c-0.1-1.6-0.2-3.3-0.3-3.8c-0.2-0.3-0.1-0.7,0.2-0.9c0.2-0.1,0.5-0.2,0.7-0.1
				c0.4,0.2,0.5,0.6,0.6,1.7c0.1,0.7,0.1,1.7,0.2,2.9l0,0.1c0.1,1,0.1,2.1,0.2,3.3c0.2,3.7,0.8,6.4,2.1,13l0,0.2
				c0.1,0.6,0.3,1.2,0.4,1.9c0.7,3.6,0,8.2-2.1,13.6c-1.6,4.1-3.8,7.9-5.3,10.2c-0.8,1.2-1.9,1.9-3.2,2.1
				C388.5,244.6,388.3,244.6,388,244.6z M378.6,240.9c0.3,0,1.1,0.1,2.2,0.9c0.5,0.3,1.8,1.2,3.4,1.9c1.7,0.7,3.2,0.9,4.5,0.7
				c1.3-0.2,2.4-0.9,3.1-2.1c1.5-2.2,3.7-6.1,5.3-10.1c2.1-5.4,2.8-9.9,2.1-13.5c-0.1-0.7-0.3-1.3-0.4-1.9l0-0.1
				c-1.3-6.6-1.9-9.3-2.1-13c-0.1-1.2-0.1-2.3-0.2-3.3l0-0.1c-0.1-1.2-0.1-2.2-0.2-2.9c-0.1-1.1-0.1-1.5-0.5-1.7
				c-0.2-0.1-0.4-0.1-0.6,0.1c-0.2,0.2-0.3,0.5-0.1,0.8l0,0c0.1,0.5,0.2,2.2,0.3,3.8l0,0.1c0.1,1,0.1,2.1,0.2,3.3
				c0.2,3.8,0.8,6.5,2.1,13.1c0.1,0.7,0.3,1.3,0.4,2.1c0.7,3.4,0,7.7-2,12.9c-1.6,4-3.7,7.7-5.2,9.9c-0.6,0.9-1.4,1.4-2.4,1.6
				c-0.2,0-0.4,0.1-0.6,0.1c-2.3,0.1-5.2-1.5-6.4-2.4c-1.4-1-2.3-1.2-2.9-1.2c-0.3,0-0.6,0.1-0.7,0.1l0.6,1
				C378.5,240.9,378.5,240.9,378.6,240.9z"/>
		</g>
		<path class="st19" d="M399.3,218.7c-0.1-0.7-0.3-1.4-0.4-2.1c-1.3-6.6-1.9-9.3-2.1-13c-0.1-1.2-0.1-2.4-0.2-3.4
			c-0.1-1.2-0.1-2.2-0.2-2.9c-0.1-1.2-0.1-1.5-0.5-1.7c-0.2-0.1-0.5-0.1-0.7,0.1c-0.3,0.2-0.3,0.6-0.2,0.8c0.1,0.5,0.2,2.2,0.3,3.8
			c0.1,1,0.1,2.2,0.2,3.4c0.2,3.5,0.7,6.1,1.9,11.8c0.1-0.1,0.2-0.2,0.3-0.2c0.2,0,0.4,0.5,0.4,0.7c0.2,0.6,0.3,1.3,0.5,1.9
			c0.4,1.4,0.6,2.8,0.6,4.2c0,1.2-0.2,2.4-0.4,3.5c-0.3,1.3-0.6,2.7-1,4c-0.4,1.2-0.9,2.5-1.5,3.6c-0.7,1.4-1.3,2.9-2,4.3
			c-0.5,1-1.1,2-1.7,2.9c-0.5,0.7-1,1.4-1.6,2c-1.3,1.2-2.9,1.7-4.6,1.4c-1.1-0.2-2.1-0.6-3-1.1c-0.5-0.3-1-0.6-1.6-0.9
			c-0.4-0.2-0.9-0.4-1.3-0.7c-0.5-0.5-0.1-0.6,0.4-0.8c-1.8-1.1-2.9-0.7-3-0.6l0.6,1.1c0,0,0,0,0,0c0,0,0.8-0.3,2.4,0.9
			c0.5,0.3,1.8,1.2,3.4,1.9c1.4,0.6,2.6,0.8,3.8,0.8c0.3,0,0.6,0,0.8-0.1c1.3-0.2,2.4-0.9,3.2-2.1c1.5-2.2,3.7-6.1,5.3-10.2
			C399.3,226.9,400,222.3,399.3,218.7z"/>
		<path class="st20" d="M397.9,216.4c0,0,0.1,0.1,0.1,0.4c0.1,0.3,0.2,0.7,0.3,1.2c0.1,0.5,0.3,1.1,0.4,1.9c0.1,0.7,0.2,1.6,0.2,2.5
			c0,0.9-0.2,1.9-0.4,2.9c-0.2,1-0.4,2.1-0.8,3.2c-0.3,1.1-0.7,2.2-1.1,3.3c-0.1,0.3-0.2,0.6-0.3,0.8c-0.1,0.1-0.1,0.3-0.2,0.4
			c-0.1,0.1-0.1,0.3-0.2,0.4c-0.1,0.3-0.3,0.5-0.4,0.8c-0.1,0.3-0.3,0.5-0.4,0.8c-0.5,1.1-1.1,2.2-1.6,3.2c-0.5,1.1-1.1,2.1-1.7,3
			c-0.3,0.5-0.6,0.9-1,1.3c-0.4,0.4-0.8,0.7-1.3,0.9c-0.5,0.2-1,0.3-1.5,0.3c-0.5,0-1-0.1-1.4-0.2c-0.4-0.1-0.9-0.2-1.3-0.3
			c-0.4-0.1-0.7-0.3-1.1-0.5c-0.7-0.3-1.2-0.7-1.7-0.9c-0.9-0.6-1.4-0.9-1.4-0.9s0.1,0.1,0.4,0.2c0.2,0.1,0.6,0.4,1,0.6
			c0.5,0.3,1,0.6,1.7,0.9c0.3,0.2,0.7,0.3,1.1,0.4c0.4,0.1,0.8,0.2,1.2,0.3c0.4,0.1,0.9,0.1,1.4,0.1c0.5,0,1-0.1,1.4-0.3
			c0.5-0.2,0.9-0.5,1.3-0.9c0.4-0.4,0.7-0.8,1-1.3c0.6-0.9,1.2-2,1.7-3c0.5-1.1,1.1-2.1,1.6-3.2c0.1-0.3,0.3-0.5,0.4-0.8
			c0.1-0.3,0.3-0.5,0.4-0.8c0.1-0.1,0.1-0.3,0.2-0.4c0.1-0.1,0.1-0.3,0.2-0.4c0.1-0.3,0.2-0.5,0.3-0.8c0.4-1.1,0.8-2.2,1.1-3.3
			c0.3-1.1,0.6-2.1,0.8-3.2c0.2-1,0.4-2,0.4-2.9c0-0.4,0-0.9,0-1.3c0-0.1,0-0.2,0-0.3c0-0.1,0-0.2,0-0.3c0-0.2,0-0.4-0.1-0.6
			c-0.1-0.7-0.2-1.4-0.3-1.9C398,217,397.9,216.4,397.9,216.4z"/>
		<g>
			<path class="st11" d="M360.9,236.8c-0.7,0-1.6-0.3-2.5-2c-0.7-1.4-2-2.2-3.5-3.2c-0.8-0.5-1.8-1.1-2.7-1.9
				c-1.5-1.2-2.9-3.3-3.9-5.8c-1.2-2.9-1.8-6.4-1.9-10.1c-0.1-8,1.7-11.6,1.8-11.7c0.2-0.3,0.5-0.4,0.8-0.3c0.3,0.2,0.4,0.5,0.3,0.8
				c0,0-1.8,3.5-1.7,11.1c0.1,8,3,13.1,5.4,15c0.9,0.7,1.8,1.3,2.6,1.8c1.6,1,3,1.9,3.9,3.6c0.8,1.5,1.3,1.3,1.6,1.2
				c0.2,0,0.4-0.1,0.7,0c0.3,0.1,0.4,0.5,0.3,0.8c-0.1,0.2-0.4,0.4-0.6,0.4c0,0,0,0,0,0C361.3,236.8,361.1,236.8,360.9,236.8z"/>
			<path class="st12" d="M360.9,236.9c-1,0-1.8-0.6-2.5-2c-0.7-1.4-2-2.2-3.5-3.2c-0.8-0.5-1.8-1.1-2.7-1.9c-1.5-1.2-2.9-3.3-4-5.8
				c-1.2-2.9-1.8-6.4-1.9-10.1c-0.1-8,1.7-11.6,1.8-11.8c0.1-0.2,0.3-0.3,0.6-0.4c0.1,0,0.2,0,0.3,0.1c0.3,0.2,0.4,0.6,0.3,0.9
				c0,0-1.8,3.5-1.6,11.1c0.1,8,3,13,5.4,15c0.9,0.7,1.8,1.3,2.6,1.8c1.6,1,3.1,1.9,4,3.7c0.6,1.2,1,1.3,1.3,1.3c0.1,0,0.2,0,0.3,0
				c0.1,0,0.2-0.1,0.3-0.1c0.1,0,0.2,0,0.4,0.1c0.3,0.2,0.5,0.6,0.3,0.9c-0.1,0.3-0.4,0.4-0.7,0.4l0,0
				C361.2,236.8,361,236.9,360.9,236.9z M348.6,201.9c-0.2,0-0.4,0.1-0.5,0.3c-0.1,0.1-1.9,3.7-1.8,11.7c0.1,3.7,0.7,7.2,1.9,10.1
				c1,2.5,2.4,4.6,3.9,5.8c0.9,0.8,1.9,1.4,2.7,1.9c1.6,1,2.8,1.8,3.5,3.2c0.7,1.3,1.5,2,2.4,1.9c0.2,0,0.3,0,0.5-0.1l0.1,0h0
				c0.2,0,0.5-0.1,0.6-0.3c0.1-0.3,0-0.6-0.3-0.8c-0.1,0-0.2-0.1-0.3-0.1c-0.1,0-0.2,0-0.3,0.1c-0.1,0-0.2,0-0.3,0
				c-0.3,0-0.8-0.1-1.4-1.3c-0.9-1.7-2.3-2.6-3.9-3.6c-0.8-0.5-1.7-1.1-2.6-1.8c-2.4-1.9-5.3-7-5.4-15c-0.1-7.6,1.6-11.1,1.7-11.2
				c0.1-0.3,0-0.6-0.2-0.8C348.8,201.9,348.7,201.9,348.6,201.9z"/>
		</g>
		<g class="st21">
			<path class="st22" d="M361.8,235.6c-0.2-0.1-0.5-0.1-0.7,0c-0.3,0.1-0.9,0.2-1.6-1.2c-0.9-1.7-2.3-2.6-3.9-3.6
				c-0.8-0.5-1.7-1.1-2.6-1.8c-2.4-1.9-5.2-7-5.4-15c-0.1-7.6,1.6-11.1,1.7-11.1c0.2-0.3,0-0.7-0.3-0.8c-0.3-0.2-0.7,0-0.8,0.3
				c0,0.1-0.4,0.8-0.8,2.4c0.1-0.1,0.3-0.1,0.4-0.1c0,0,0.4-0.1,0.3,0.3c-0.1,0.4-1.9,7.4-0.3,15.3c1.7,7.8,4.9,9.2,6.5,10.5
				c1.6,1.3,3.8,1.7,4.9,4c0,0,0.3,0.7,0,0.8c-0.1,0-0.3,0-0.4,0c0.8,1.2,1.6,1.5,2.2,1.5c0.2,0,0.4,0,0.6-0.1c0,0,0,0,0,0
				c0.3,0,0.5-0.1,0.6-0.4C362.2,236.1,362.1,235.7,361.8,235.6z"/>
		</g>
		<path class="st20" d="M347,206.7c0,0,0,0.1-0.1,0.4c0,0.1,0,0.3-0.1,0.4c0,0.2,0,0.4-0.1,0.6c0,0.2,0,0.5-0.1,0.7
			c0,0.3,0,0.6-0.1,0.9c0,0.3,0,0.6-0.1,1c0,0.3,0,0.7,0,1.1c0,0.4,0,0.8,0,1.2c0,0.4,0,0.8,0,1.3c0,0.2,0,0.4,0,0.7
			c0,0.2,0,0.4,0,0.7c0,0.2,0,0.5,0.1,0.7c0,0.2,0,0.5,0.1,0.7c0.1,0.9,0.3,1.9,0.5,2.9c0.1,0.5,0.2,1,0.4,1.5
			c0.1,0.2,0.1,0.5,0.2,0.7l0.1,0.4c0,0.1,0.1,0.2,0.1,0.4c0.3,1,0.7,1.9,1.2,2.8c0.5,0.9,1,1.7,1.6,2.4c0.3,0.4,0.6,0.7,0.9,1
			c0.3,0.3,0.6,0.6,1,0.9c0.3,0.3,0.7,0.5,1,0.7c0.3,0.2,0.7,0.4,1,0.6c0.6,0.4,1.2,0.8,1.7,1.1c0.5,0.4,0.9,0.7,1.2,1.1
			c0.3,0.3,0.5,0.6,0.6,0.8c0.1,0.1,0.1,0.2,0.1,0.2c0,0.1,0,0.1,0,0.1s0,0,0-0.1c0,0-0.1-0.1-0.1-0.2c-0.1-0.2-0.3-0.5-0.6-0.8
			c-0.3-0.3-0.7-0.7-1.2-1c-0.3-0.2-0.5-0.3-0.8-0.5c-0.3-0.2-0.6-0.4-0.9-0.6c-0.3-0.2-0.7-0.4-1-0.6c-0.3-0.2-0.7-0.4-1.1-0.7
			c-0.4-0.3-0.7-0.6-1-0.9c-0.3-0.3-0.6-0.7-0.9-1c-0.6-0.7-1.1-1.6-1.6-2.5c-0.5-0.9-0.9-1.8-1.2-2.8c0-0.1-0.1-0.2-0.1-0.4
			l-0.1-0.4c-0.1-0.2-0.1-0.5-0.2-0.7c-0.1-0.5-0.2-1-0.4-1.5c-0.2-1-0.4-2-0.5-2.9c0-0.2-0.1-0.5-0.1-0.7c0-0.2,0-0.5-0.1-0.7
			c0-0.2,0-0.5,0-0.7c0-0.2,0-0.4,0-0.7c0-0.4,0-0.9,0-1.3c0-0.4,0-0.8,0-1.2c0-0.4,0-0.7,0.1-1.1c0-0.3,0.1-0.7,0.1-1
			c0-0.3,0.1-0.6,0.1-0.9c0-0.3,0.1-0.5,0.1-0.7c0-0.2,0.1-0.4,0.1-0.6c0-0.2,0.1-0.3,0.1-0.4C347,206.8,347,206.7,347,206.7z"/>
		<g>
			<g>
				<g>
					<path class="st23" d="M351.2,202.9c0,0-0.8,2.5,1,5.2c0,0-3.6,1.6-3,6.1c0.6,4.6,3.7,4,3.7,4s-1.6,3.8,0.9,6.1
						c2.5,2.3,5.6,1.9,5.6,1.9s4.2-0.5,1.7,5.2c-1.1,2.6-1.5,4.4-0.9,6.8c0.2,0.9,0.6,1.7,1.2,2.4c0.7,0.7,2,1.1,2.5,1.1
						c0,0-0.6,4.8,2.2,6.3c4.9,2.7,9.7-1.1,12-5.8c2.2-4.7,0.6-6.2,0.6-6.2s1.1,0.3,2,1.1c0.7,0.7,2,3.8,5.5,3.7
						c3.5-0.1,8.5-3.1,4.8-9.3c0,0,6.6,0.4,8.2-4.6c1.6-5-2.7-6.5-2.7-6.5s1.9-3.2,0.1-4.9c0,0,2.3-2.1,1.2-5.5
						c-0.7-2.2-1.7-2.1-1.7-2.1s1.6-2.2,1-5.3c-0.7-3.9-4.1-4.8-4.1-4.8s-5.5,5.6-21.2,5.6C356.1,203.5,351.2,202.9,351.2,202.9z"/>
					<path class="st24" d="M369.7,249c-1.2,0-2.4-0.3-3.6-0.9c-2.7-1.5-2.3-5.8-2.2-6.3c-0.6-0.1-1.9-0.4-2.5-1.1
						c-0.6-0.6-1-1.4-1.3-2.4c-0.7-2.6-0.2-4.4,0.9-6.8c0.9-2,1-3.5,0.4-4.3c-0.6-0.8-1.6-0.8-1.9-0.8c-0.1,0-0.1,0-0.1,0
						c0,0-0.1,0-0.4,0c-0.9,0-3.3-0.1-5.3-1.9c-2.3-2.1-1.1-5.5-0.9-6c0,0-0.1,0-0.2,0c-0.7,0-3-0.2-3.5-4c-0.3-2.4,0.5-3.9,1.3-4.8
						c0.7-0.8,1.5-1.2,1.7-1.3c-0.9-1.4-1.2-2.7-1.2-3.6c0-1,0.2-1.6,0.2-1.6c0,0,0,0,0.1,0c0.1,0,5.1,0.6,20.5,0.6
						c0.7,0,1.4,0,2.1,0c7.2-0.2,12-1.7,14.8-3c3-1.3,4.2-2.6,4.3-2.6c0,0,0,0,0,0c0,0,3.4,0.9,4.2,4.8c0.5,2.8-0.6,4.9-0.9,5.3
						c0.3,0,1.1,0.3,1.7,2.2c1.1,3.1-0.8,5.2-1.2,5.5c0.7,0.7,0.9,1.8,0.6,3.1c-0.2,0.9-0.6,1.6-0.7,1.8c0.5,0.2,4.2,1.9,2.7,6.5
						c-1.3,4-5.7,4.5-7.5,4.6c-0.3,0-0.5,0-0.6,0c1.4,2.4,1.6,4.5,0.7,6.2c-1.1,2-3.6,3-5.6,3.1c-2.8,0.1-4.2-1.8-5.1-3
						c-0.2-0.3-0.4-0.5-0.5-0.7c-0.6-0.6-1.4-0.9-1.8-1c0.4,0.5,1.2,2.2-0.7,6.1C376.3,246.2,372.9,248.9,369.7,249z M359.5,226.1
						c0.3,0,1.4,0,2,0.9c0.6,0.9,0.5,2.4-0.4,4.4c-1.1,2.4-1.5,4.2-0.9,6.8c0.3,1,0.7,1.8,1.2,2.3c0.7,0.7,2,1,2.5,1.1c0,0,0,0,0,0
						c0,0,0,0,0,0c0,0-0.6,4.7,2.2,6.3c1.1,0.6,2.3,0.9,3.5,0.9c3.2-0.1,6.5-2.7,8.4-6.7c1.1-2.4,1.2-3.9,1.1-4.8
						c-0.1-0.9-0.5-1.3-0.6-1.3c0,0,0,0,0-0.1c0,0,0,0,0.1,0c0,0,1.2,0.3,2,1.1c0.2,0.1,0.3,0.4,0.5,0.7c0.8,1.1,2.2,3.1,5,3
						c2-0.1,4.4-1,5.5-3c0.9-1.7,0.7-3.8-0.7-6.2c0,0,0,0,0-0.1c0,0,0,0,0,0c0,0,0.3,0,0.7,0c1.8-0.1,6.2-0.6,7.4-4.5
						c0.5-1.4,0.7-3.4-0.7-5c-0.9-1-1.9-1.4-1.9-1.4c0,0,0,0,0,0c0,0,0,0,0,0c0,0,1.8-3.2,0.2-4.8c0,0,0,0,0,0c0,0,0,0,0,0
						c0,0,2.3-2.1,1.2-5.4c-0.7-2.1-1.6-2.1-1.7-2.1c0,0,0,0-0.1,0c0,0,0,0,0-0.1c0,0,1.5-2.2,0.9-5.3c-0.7-3.6-3.7-4.6-4.1-4.7
						c-0.2,0.2-1.5,1.4-4.3,2.6c-2.8,1.2-7.6,2.7-14.8,3c-0.7,0-1.4,0-2.1,0c-14.7,0-20-0.5-20.5-0.6c-0.1,0.3-0.7,2.7,1,5.1
						c0,0,0,0,0,0c0,0,0,0,0,0c0,0-3.5,1.6-3,6.1c0.1,0.9,0.7,4,3.3,4c0.2,0,0.2,0,0.2,0c0,0,0,0,0.1,0c0,0,0,0,0,0.1
						c0,0-1.6,3.7,0.8,6c1.9,1.8,4.3,1.9,5.2,1.9c0.2,0,0.4,0,0.4,0S359.4,226.2,359.5,226.1z"/>
				</g>
				<path class="st25" d="M373.5,207.9c-0.3,0.5-0.8,1-1.3,1.4c-3,1.9-6.9,2.6-10.4,2.5c-1.9,0-3.9-0.2-5.6-1
					c-1.6-0.7-3.1-1.6-4.2-3c0,0,0,0,0,0c0.9,1.4,2.5,2.2,4,2.9c0.1,0.1,0.2,0.1,0.3,0.2c-0.8,0.1-1.7,0.5-2.4,1.1
					c-1,0-1.8,0.4-2.5,1c0,0,0,0,0,0c0.3-0.3,0.7-0.5,1-0.7c0.4-0.2,0.9-0.2,1.3-0.3c-1.2,1-1.9,2.6-1.3,4.1c0,0,0.1,0,0.1,0
					c-0.4-1.2,0-2.6,0.8-3.5c0.7-0.9,1.9-1.6,3.1-1.7c1.7,0.7,3.6,0.8,5.3,0.9c2,0.1,3.9-0.1,5.8-0.6c0.6-0.2,1.2-0.3,1.7-0.5
					c1.2-0.3,3.1-0.1,3.7,1.2c0,0,0.1,0,0,0c-0.2-0.6-0.8-0.9-1.4-1.2c-0.6-0.2-1.2-0.3-1.8-0.2c0.3-0.1,0.5-0.2,0.8-0.3
					c0,0,0,0,0,0C371.7,209.8,373.1,209,373.5,207.9C373.6,207.8,373.5,207.8,373.5,207.9z"/>
				<path class="st25" d="M373.1,237.4c-0.7,0.1-1.3,0.2-1.9,0.6c-0.4,0.2-0.8,0.5-1.1,0.8c0.5-0.8,0.7-1.7,0.6-2.6c0,0-0.1,0-0.1,0
					c0,3.5-3.9,5.9-7.1,5.4c0,0,0,0,0,0c1.7,0.6,3.7-0.3,5.1-1.3c0.3-0.2,0.6-0.5,0.9-0.8C370.6,238.6,371.6,237.8,373.1,237.4
					C373.1,237.5,373.2,237.4,373.1,237.4z"/>
				<path class="st25" d="M389,229.9c-1.2-0.6-2.6-0.9-4-0.8c0,0,0,0,0,0c1.2,0,2.4,0.3,3.5,0.7c1.1,0.5,2.3,1.2,2.9,2.2
					c0,0,0,0,0,0C391,231.1,389.9,230.4,389,229.9z"/>
				<path class="st25" d="M396.5,224.9c-1.7,2.3-5.7,3.1-8.1,1.7c1-0.8,1.8-1.9,2.2-3.3c0,0,0,0-0.1,0c-0.5,1.4-1.3,2.4-2.4,3.4
					c-1,0.8-2.6,1.3-3.9,1.5c-1.4,0.2-2.9,0.1-4.3-0.1c-1.3-0.2-2.5-0.8-3.7-1.2c-0.3-0.2-0.5-0.4-0.8-0.5c-1.7-0.9-3.9-1.2-5.6-0.2
					c0,0,0,0.1,0,0.1c1.9-1,4.2-0.5,6,0.6c1.5,0.9,2.5,2.4,4.1,3.3c0.8,0.5,1.6,0.8,2.4,1.2c0.9,0.4,1.8,1.1,2.5,1.8
					c1.5,1.4,2.3,3.4,2.2,5.4c0,0,0,0,0,0c0.2-1.2-0.1-2.4-0.6-3.5c0.5,0.5,1.2,0.8,1.9,0.8c0.7,0,2-0.5,2.2-1.3c0,0,0,0,0,0
					c-0.4,0.9-2,1.2-2.9,1c-0.6-0.1-1.1-0.6-1.5-1c-0.2-0.4-0.5-0.8-0.8-1.1c-1.4-1.7-3.3-2.3-5.2-3.3c-1.4-0.8-2.4-2-3.6-2.9
					c3.5,1.8,8.7,2,11.8-0.5c1.3,1,3.2,0.9,4.7,0.6c0.3-0.1,0.6-0.2,0.9-0.3c1,0.1,1.4,0.8,1.6,1.8c0,0,0.1,0,0.1,0
					c-0.1-0.9-0.5-1.8-1.4-1.8C395.1,226.4,395.9,225.8,396.5,224.9C396.6,224.8,396.5,224.8,396.5,224.9z"/>
				<path class="st25" d="M396.6,220.2c-1,1.4-3.1,2.2-4.4,0.7c0,0,0,0,0,0C393.4,222.6,395.7,221.7,396.6,220.2
					C396.7,220.1,396.6,220.1,396.6,220.2z"/>
				<path class="st25" d="M396.9,215.3c-0.7,0.8-2.6,1.9-3.2,0.4c0,0,0,0,0,0C394.3,217.3,396.2,216.3,396.9,215.3
					C396.9,215.3,396.9,215.3,396.9,215.3z"/>
				<path class="st25" d="M393.8,218.6c-0.9-0.2-1.5-1.1-1.6-1.9c0-0.2,0.1-0.5,0.1-0.7c0-0.3,0-0.6,0-0.9c0-0.2-0.1-0.4-0.1-0.6
					c0.2-0.5,0.2-1.1,0.2-1.7c0.1-1.2,0.2-2.3-0.8-3.1c-0.1-0.1-0.1-0.1-0.2-0.2c0,0,0,0,0,0c0.1-0.7,0.1-1.3,0-1.9
					c0-0.7-0.2-1.5-0.1-2.2c0.1-0.8,0.6-1.5,1.3-2c0,0,0-0.1,0,0c-1.3,0.8-1.5,2.1-1.4,3.4c-0.1-0.4-0.2-0.7-0.3-1.1
					c-0.4-1.1-1.3-2.3-2.5-2.5c0,0-0.1,0,0,0c1.2,0.3,2,1.5,2.4,2.6c0.4,1.2,0.7,2.5,0.5,3.7c-0.8-0.5-2-0.7-2.9-0.8
					c-1.4-0.1-2.8,0.1-4,0.6c-1,0.2-2.1,0.2-2.6-0.9c0,0,0,0,0,0c0.4,1,1.3,1.2,2.1,1.1c-1,0.4-2,1-2.9,1.7c0,0,0,0.1,0,0
					c2-1.4,4.2-2.4,6.7-2.4c1.1,0,2.3,0.2,3.3,0.7c1.3,0.6,1.5,1.8,1.4,3.1c-0.1,1.4-0.2,2.6-1.3,3.5c-0.9,0.7-2,1.2-3,1.7
					c-1.2,0.5-2.4,0.7-3.6,0.8c-1.3,0.1-2.5-0.3-3.7-0.6c0-0.7-0.1-1.4-0.2-2.1c-0.2-0.7-0.5-1.3-1-1.8c1.3,0.8,2.7,1.2,4.4,1.1
					c0.7-0.1,1.5-0.2,2.1-0.5c0.5,0,0.9,0,1.4,0.2c0.6,0.1,1.3,0.4,1.6,0.9c0,0,0.1,0,0.1,0c-0.3-0.7-1.1-1-1.8-1.1
					c-0.3-0.1-0.6-0.1-0.9-0.1c0.8-0.4,1.5-0.9,2.1-1.6c0,0,0,0,0,0c-0.7,0.8-1.5,1.3-2.4,1.6c-0.4,0-0.7,0.1-1,0.3
					c-0.5,0.1-1,0.2-1.5,0.2c-1.6,0.1-3-0.5-4.4-1.2c-0.7-0.7-1.6-1.2-2.6-1.6c0.9-1.8,0.6-4.2-0.5-5.9c0,0,0,0,0,0
					c0.6,1,0.9,2.2,0.9,3.4c0,1.4-0.4,2.6-1.3,3.7c0,0,0,0,0,0c-2.6,3-7.3,3.6-11,3c-1-0.2-2-0.4-3.1-0.4c-1,0-2,0.2-2.9,0.5
					c-0.9,0.3-1.8,0.7-2.8,1.1c-0.5,0.2-1,0.3-1.4,0.5c-0.6,0.2-1.2,0.5-1.8,0.3c0,0,0,0,0,0c0.7,0.3,1.5-0.1,2.2-0.3
					c1.1-0.3,2.1-0.8,3.1-1.2c1.2-0.5,2.7-0.7,4-0.7c1.2,0,2.3,0.4,3.5,0.5c0.9,0.1,1.8,0.1,2.7,0c0.9,0.2,1.7,0.6,2.6,0.7
					c0.9,0.1,1.8,0.2,2.7,0.1c0,0,0.1,0,0.1,0c0.6,0,1.2,0.2,1.7,0.5c0.4,0.3,1.2,0.8,1.1,1.4c0,0,0,0,0.1,0
					c0.1-0.6-0.5-1.1-0.9-1.4c-0.4-0.3-0.9-0.5-1.4-0.6c1-0.2,2-0.6,2.6-1.6c0,0,0,0,0,0c-0.9,1.2-2.4,1.5-3.9,1.5
					c-0.8,0-1.5-0.1-2.3-0.2c-0.7-0.1-1.4-0.4-2.1-0.6c3-0.2,5.9-1.3,7.7-3.8c0.1-0.2,0.3-0.4,0.4-0.6c1.4,0.8,2.9,1.5,3.6,3
					c0.4,0.9,0.5,2.2,0.4,3.2c-0.2,1.1-1,2.1-1.9,2.7c-1.6,1.2-4,1.5-6,1.5c-0.8,0-1.6,0-2.4-0.1c-0.3-0.1-0.6-0.1-0.9-0.2
					c-0.8-0.2-1.7-0.4-2.5-0.6c-0.9-0.3-1.8-0.6-2.8-0.8c-1.5-0.3-3.1-0.6-4.6-0.5c-0.7,0.1-1.4,0.2-2,0.5c-0.6,0.3-1.1,0.8-1.5,1.3
					c0,0,0,0,0,0c0.6-0.6,1.2-1.1,2-1.4c0.7-0.2,1.6-0.3,2.3-0.3c1.2,0,2.4,0.2,3.6,0.5c0.4,1,0,1.9-0.6,2.7c0,0.1-0.1,0.1-0.1,0.2
					c-0.5,0.5-1.1,0.9-1.7,1.3c-1.2,0.7-3,1.1-4.4,0.8c0,0,0,0,0,0c0.7,0.3,1.5,0.2,2.2,0.1c0.9-0.1,1.8-0.4,2.5-0.9
					c0.9-0.5,1.8-1.3,2.1-2.3c0.3-0.6,0.4-1.2,0-1.8c0.4,0.1,0.8,0.2,1.2,0.3c0.4,0.1,0.8,0.2,1.2,0.3c1.9,1.6,2.7,4.7,2.6,7
					c0,1.4-0.3,2.6-0.8,3.9c-0.5,1.3-1.4,2.3-2.3,3.4c0,0,0,0,0,0c0.6-0.7,1.3-1.4,1.8-2.2c1.4-1.1,3.3-1.5,5-1.3
					c0.8,0.1,1.6,0.5,2.2,1c0.1,0.1,0.3,0.3,0.4,0.4c0.1,0.1,0.3,0.3,0.4,0.4c0.3,0.5,0.6,1,0.8,1.5c0.7,2-0.6,4.1-1.8,5.6
					c-1.4,1.6-3.2,2.4-5.2,2.9c0,0,0,0.1,0,0c2.1-0.5,3.8-1.3,5.3-2.9c1.3-1.5,2.4-3.5,2-5.5c-0.1-0.4-0.2-0.8-0.4-1.1
					c0.8,0.6,1.8,1.1,2.8,1.3c0,0,0.1,0,0-0.1c-0.7-0.2-1.3-0.5-2-0.8c-0.4-0.2-0.8-0.5-1.2-0.9c-0.3-0.4-0.7-0.8-1.1-1.1
					c-0.4-0.5-0.9-0.9-1.4-1.3c-0.6-0.4-1.2-0.7-1.9-0.9c0,0,0,0,0,0c0.7,0.3,1.3,0.6,2,1.1c0.2,0.2,0.5,0.4,0.7,0.6
					c-0.4-0.2-0.9-0.4-1.3-0.5c-1.6-0.3-3.9,0.1-5.2,1.2c0.1-0.2,0.2-0.4,0.3-0.6c0.6-1.3,1-2.5,1-3.9c0.1-1.4-0.1-2.7-0.5-4
					c-0.4-1.2-1-2.5-2-3.3c0.1,0,0.1,0,0.2,0.1c0.6,0.1,1.1,0.2,1.7,0.3c1.1,0.2,2.2,0.4,3.4,0.4c0.2,0,0.5,0,0.8,0
					c0.3,0,0.6,0,0.8,0c1.5-0.1,3.1-0.4,4.4-1.1l0,0c0,0,0.1,0,0.1,0v0c0.2,0.7,1.3,1,1.9,1.2c0.8,0.2,1.7,0.4,2.5,0.4
					c0.3,0,0.5,0,0.8,0c1.1,0.1,2.4,0.5,2.8,1.5c0,0,0.1,0,0,0c-0.3-0.9-1.3-1.4-2.3-1.6c1.1-0.2,2.2-0.6,3.1-1.2c0,0,0-0.1,0,0
					c-1.3,0.8-2.9,1.2-4.4,1.1c-0.8,0-1.7-0.2-2.5-0.4c-0.8-0.2-1.3-0.6-2-1.1c0.3-0.2,0.6-0.4,0.9-0.7c0.6-0.6,1.2-1.3,1.5-2.1
					c0.1-0.3,0.1-0.5,0.1-0.8c1.3,0.4,2.5,0.7,3.9,0.6c1.3-0.1,2.5-0.4,3.7-0.9c1.1-0.4,2.2-1,3.1-1.9c0.4-0.4,0.6-0.8,0.8-1.2
					c0,0.2,0.1,0.4,0.1,0.5c0.1,0.7,0,1.4-0.2,2.1c-0.3,1.1-1.1,2-2.1,2.6c0,0,0,0.1,0,0c0.9-0.5,1.5-1.2,2-2.1
					c0.1-0.2,0.2-0.5,0.3-0.8C392.3,217.7,392.9,218.6,393.8,218.6C393.8,218.6,393.8,218.6,393.8,218.6z"/>
				<path class="st25" d="M396.3,207.6c-0.8,1-1.9,1.6-3.2,1.6c0,0,0,0,0,0C394.3,209.3,395.7,208.8,396.3,207.6
					C396.3,207.6,396.3,207.6,396.3,207.6z"/>
			</g>
			<g>
				<path class="st26" d="M396.5,220.5c0,0,1.9-3.2,0.2-4.9c0,0,2.3-2.1,1.2-5.5c-0.7-2.2-1.7-2.1-1.7-2.1s1.6-2.2,1-5.3
					c-0.7-3.9-4.1-4.8-4.1-4.8s-5.5,5.6-21.2,5.6c-15.6,0-20.5-0.6-20.5-0.6s-0.8,2.5,1,5.2c0,0-3.6,1.6-3,6.1c0.6,4.6,3.7,4,3.7,4
					s-0.7,1.7-0.5,3.5c0.1-1.6,2-3.7,5.4-4.7c3.4-1,6.6-0.3,10.4,0.2c3.9,0.5,4.9,3.6,2.1,4.1c-2.8,0.5-6.6-2-10.7-1.7
					c-4.2,0.3-4.7,3.4-5.4,3.9c-0.4,0.3-0.8,0.1-1.1-0.1c0.2,0.3,0.4,0.6,0.7,0.8c2.5,2.3,5.6,1.9,5.6,1.9s4.2-0.5,1.7,5.2
					c-1.1,2.6-1.5,4.4-0.9,6.8c0.2,0.9,0.6,1.7,1.2,2.4c0.7,0.7,2,1,2.5,1.1c0,0-0.6,4.8,2.2,6.3c4.9,2.7,9.7-1.1,12-5.8
					c2.2-4.7,0.6-6.2,0.6-6.2s1.1,0.3,2,1.1c0.7,0.7,2,3.8,5.6,3.7c3.5-0.1,8.5-3.1,4.8-9.3c0,0,6.6,0.4,8.2-4.6
					C400.9,222.1,396.5,220.5,396.5,220.5z M353.7,207.8c0.1-1,1.5-0.9,1.5-0.9c0.6,0,1.3,0.1,1.3,0.1c1.9,2.1,5.9,0.8,5.9,0.8
					c0.7,0.8,2.6,0.7,3.7,0.7c1.1,0,0.9,0.8,0.9,0.8c-0.5,1.3-3.2,1.6-3.2,1.6C356.2,211.7,353.6,208.7,353.7,207.8z M371.6,213.7
					c-0.7,1.4-4.1,1.9-7.6,1.1c-3.5-0.8-5.9-0.3-7.4,0.2c-1.5,0.5-3.6,1.2-3.4-0.4c0.3-1.7,1.4-2.2,1.4-2.2c0.9-0.4,1.1-0.6,3.6,0
					c2.5,0.6,5.7,0.3,8.2-0.4C368.9,211.3,372.3,212.3,371.6,213.7z M397,213.4c-0.2,0.9-0.9,2.2-1.9,2.4c-1.5,0.3-2.1-2.4-1.9-4.1
					c0.1-0.7,0.4-1.4,1-1.7c0.2-0.1,0.4-0.1,0.6-0.1C396.9,209.8,397.4,211.7,397,213.4z M391.8,205.5c0.4-2.3,2.1-2.4,2.1-2.4
					c1-0.1,2.5,0.4,2.4,2.3c-0.1,2-1.6,2.7-2.7,3C392.5,208.9,391.5,207.8,391.8,205.5z M381.3,211.2c0,0,2.4-2,5.1-2.2
					c2.7-0.2,3.1,1.4,2.1,2.8c-1,1.4-3.5,3.4-6.5,2.4C379.3,213.4,380.6,212,381.3,211.2z M381.9,217.3c-0.8-0.7,0.2-1.8,3.8-2.2
					c2.4-0.3,2.6,1.2,2.6,1.2C388.7,217.9,383.4,218.6,381.9,217.3z M383.2,219.3c1.3,0.1,2.6-0.1,3.9-0.5c0.8-0.3,1.9-1.2,2.8-1
					c0.5,0.1,0.2,0.8,0,1c-0.1,0.1-0.2,0.3-0.3,0.4c-1.1,1.3-2.7,2.1-4.3,2.5c-1.1,0.3-2.9,0.6-4-0.1
					C380,220.7,380.3,219,383.2,219.3z M383.5,223.6c0.8,0.1,2,0.5,2.3,1.3c0.1,0.2,0.1,0.4,0.1,0.6c0,0.8-0.8,1.4-1.5,1.7
					c-1.1,0.4-2.2,0.5-3.3,0.4c-1.9,0-4.1-0.6-5.4-2.1c-0.3-0.4-0.5-1.2-0.4-1.6c0.5-1.5,2.9-1.1,3.9-0.6
					C381.1,224.2,380.8,223.1,383.5,223.6z M373.9,215.8c1.6-0.6,2.5-2.4,2.5-2.4c0.4-0.8,1.6,0.3,0.6,1.7c-1,1.4-2.9,1.5-3.2,1.2
					C373.5,215.9,373.9,215.8,373.9,215.8z M361.5,224.6c-1.5,1.2-4,1.5-5.3,0.6c-1.4-0.9,0.5-2.9,0.5-2.9
					C359.7,219.7,363,223.4,361.5,224.6z M362.1,240.1c-2.3-1.9-1.2-6.7-0.2-8.6c0.5-1.1,1-2.4,0.8-3.7c-0.1-0.4-0.4-0.7-0.5-1.1
					c-0.1-0.4,0.3-0.9,0.5-1.1c0.2-0.2,0.5-0.4,0.7-0.5c0.8-0.3,1.9-0.1,2.7,0.4c1,0.6,1.4,1.8,1.5,3c0.1,2-0.4,3.9-1.1,5.7
					c-1.1,2.6-2.6,3.4-2.6,3.4c2.3-0.6,3.9-2.6,3.9-2.6s2.4,0.1,1.3,3.1C368.1,241,364.5,242,362.1,240.1z M374.1,246.5
					c-0.4,0.6-1,1.1-1.6,1.5c-2.3,1.2-6.1,0.7-7.6-1.6c-0.6-1-1.3-3.1,0.1-3.7c0.4-0.2,0.9-0.2,1.3-0.3c0.7-0.2,1.4-0.5,2.1-0.8
					c2.6-1.2,4.2,0.7,1.9,2.3c-2.1,1.4-3.5,1.3-3.6,1.2c3,0.6,4.7-0.6,6.7-1.4c0.6-0.3,1.1,0.1,1.3,0.7
					C374.9,245,374.5,245.8,374.1,246.5z M385.9,237.3c-0.3,0.6-0.9,1-1.6,0.7c-1.1-0.4-1.6-1.4-2.4-2.1c-0.8-0.7-1.8-1-2.8-1.3
					c-1-0.3-1.8-0.9-2.6-1.6c-0.9-0.9-1.9-1.7-2.8-2.6c-0.7-0.7-1.5-1.5-1.5-2.5c0-0.8,0.6-1.3,1.3-1.4c1.1-0.1,2.3,0.5,3.1,1.3
					c1.1,1,1.9,2,3.2,2.8c0.8,0.5,1.8,0.8,2.6,1.2c1,0.6,1.9,1.3,2.6,2.2C385.7,234.9,386.5,236.2,385.9,237.3z M388.2,234.7
					c-2.6-0.3-3.3-3-2.8-4.2c0.5-1.2,2.4-0.5,2.4-0.5C391.5,231.5,390.8,235,388.2,234.7z M395.8,225c-0.7,0.7-1.5,1.3-2.4,1.6
					c-0.5,0.2-1,0.3-1.5,0.4c-0.5,0-1.2,0.1-1.7-0.3c-0.3-0.2-0.6-0.8-0.4-1.2c0.7-2,3.4-2.6,5.2-2.9c0.5-0.1,1.2-0.2,1.6,0.2
					C397.4,223.4,396.3,224.5,395.8,225z"/>
				<path class="st27" d="M366.7,245C366.7,245,366.7,245,366.7,245C366.7,245,366.7,245,366.7,245z"/>
			</g>
			<g>
				<path class="st28" d="M363,229.7c0,0-3.7,7-0.6,10.2c0,0,0.8,1,2.8,0.8c0,0-2.3,0-3.2-2.1C361,236.4,361.7,232.8,363,229.7z"/>
				<path class="st28" d="M364.7,243.6c0,0-0.4,2.6,2.2,4c2.6,1.4,5.4,0.6,6.8-1.1c0,0-2,1.7-5,1.5
					C365.5,247.6,364.6,244.4,364.7,243.6z"/>
				<path class="st28" d="M376.1,225.1c0,0,1,1.9,4.5,2.2c3.5,0.3,4.6-1.4,4.6-1.4s-1.9,1.6-4.7,1.2
					C377.9,226.7,376.1,225.1,376.1,225.1z"/>
				<path class="st28" d="M390.1,225.6c0,0,0,2.5,4.4,0.3C394.4,225.9,390.6,227.4,390.1,225.6z"/>
				<path class="st28" d="M380.8,220.7c0,0,0.6,1.3,3.8,0.7c3.2-0.6,4.3-2.1,4.3-2.1S384.6,222.8,380.8,220.7z"/>
				<path class="st28" d="M382.1,216.3c0,0-0.4,0.3,0.1,0.8c0.4,0.5,2.5,0.7,4.1,0.4C386.3,217.5,381.9,218,382.1,216.3z"/>
				<path class="st28" d="M381.5,213.5c-0.7-0.6-0.7-1.1-0.4-1.5c0,0,0,0,0,0c-0.3,0.3-0.5,0.6-0.3,1.1c0.3,1.1,2.8,1.8,5.5,0.5
					C386.2,213.6,383.2,214.9,381.5,213.5z"/>
				<path class="st28" d="M353.3,223c0,0-0.8-0.9-0.1-2.2c0.7-1.3,2.1-2.7,4.6-3.5c3-1,8.3-0.4,10.8,0.4c0,0-6.6-1.2-10.6-0.1
					C354.1,218.6,352.5,221.4,353.3,223z"/>
				<path class="st28" d="M353.4,214.9c0,0,0.3-2.3,2.1-2.6c1.8-0.3,3.3,0.9,6.7,0.6c3.4-0.3,4.5-1.1,5.8-1c0,0-1.7,0.5-3.5,0.9
					c-1.7,0.4-3.8,0.5-5.5,0.2c-1.7-0.3-2.8-0.9-4.1-0.1C353.7,213.7,353.4,214.9,353.4,214.9z"/>
				<path class="st28" d="M386.7,230.2c0,0-1.3,0.5-0.3,2.8c0,0,0.2,0.4,0.9,1c0,0-1.1-0.3-1.6-1.9
					C385.3,230.6,386.5,230,386.7,230.2z"/>
				<path class="st28" d="M394.5,210.3c0,0-1.4,0.3-1.1,2.5c0.2,2.2,1,2.6,1,2.6S392.5,211.9,394.5,210.3z"/>
				<path class="st28" d="M394.3,203.3c0,0-2-0.1-2.2,2.4c-0.2,1.8,0.6,2.4,1.3,2.4c0,0-1-0.2-1-1.9
					C392.4,203.6,394.1,203.4,394.3,203.3z"/>
				<path class="st28" d="M373,227.2c0,0,1.5-0.8,3.2,0.8c1.6,1.5,2.1,2.5,4,3.4c1.9,0.9,5,2.1,5.5,4.6c0,0-0.3-1.9-3.1-3.1
					c-3.2-1.4-3.7-1.3-5-2.9C376.3,228.4,375.1,227.1,373,227.2z"/>
				<path class="st28" d="M354.1,208.3c0,0,2.4,3.6,11.4,1.9C365.5,210.2,357.9,211.6,354.1,208.3z"/>
				<path class="st28" d="M356.8,225.3c0,0,2.6,0.6,4.9-1.2C361.6,224.1,359.8,226.5,356.8,225.3z"/>
			</g>
		</g>
		<g>
			<g>
				<path class="st15" d="M388.5,203c0,0,4.2-0.1,5-4.3c0,0,3.4,0.5,3.8-4.2c0,0,2.9-0.3,3.4-4.1c0,0,1,0.2,2.4-0.7
					c0.6-0.4,1.9-4.2-0.8-5.6c-1.5-0.8-2.6-0.5-3.4-0.2c-0.5,0.2-1,0.3-1.5,0.2c-1.3-0.2-2.8-1.5-4.6-0.8c-1.8,0.6-1.9,2.4-1.8,3
					c0,0-2.6,1.1-2.1,3.2c0,0-2.3,0.6-2.5,3.1c0,0-2.6,0.4-2.7,3.4c0,0-3.4,0.3-3.7,2.9c0,0-3.1-0.8-4.7,0.4c0,0-4.1-0.5-5.8,1.2
					c0,0-1.9-2.1-4.9-0.9c0,0-1.5-2.1-4.1-1c0,0-0.5-1.9-4.4-1.2c0,0-1.1-1.7-4.3-0.8c-0.9,0.2-1.6,0.9-1.2,2.1c0,0-2.2,0.2-3,1.8
					c-0.8,1.7,0.2,4.3,4.5,3.9c0,0,1,1.7,4.7,1.1c0,0,2.1,2.8,5.8,0.9c0,0,0.4,0.6,1.3,1c0.8,0.8,3.7,0.5,4.4-0.1
					c1,1.3,5.3,1.9,8.2-0.1c0,0,3,1.3,5-0.9c0.1-0.1,0.3-0.5,0.5-0.9c0,0,1.6,1.4,4.6,0.1C387.5,204.9,388.1,204.1,388.5,203
					L388.5,203z"/>
				<path class="st16" d="M372.3,208.4c-1.8,0.1-3.4-0.4-4-1.2c-0.4,0.3-1.3,0.5-2.3,0.5c-1,0-1.8-0.1-2.2-0.5
					c-0.7-0.4-1.2-0.9-1.3-1c-0.8,0.4-1.6,0.7-2.4,0.7c-2.1,0.1-3.3-1.3-3.5-1.6c-0.4,0.1-0.8,0.1-1.2,0.1c-2.5,0.1-3.4-1-3.5-1.2
					c-2.1,0.2-3.6-0.4-4.4-1.5c-0.5-0.8-0.5-1.7-0.1-2.5c0.7-1.5,2.6-1.8,3-1.9c-0.1-0.5-0.1-0.9,0.1-1.2c0.2-0.4,0.6-0.7,1.2-0.9
					c0.6-0.1,1.1-0.2,1.6-0.2c1.9-0.1,2.7,0.9,2.8,1c0.5-0.1,0.9-0.1,1.3-0.1c2.4-0.1,3,1.1,3.1,1.3c0.4-0.2,0.8-0.2,1.2-0.3
					c1.6-0.1,2.6,1.1,2.8,1.3c0.5-0.2,1.1-0.3,1.6-0.3c1.8-0.1,3,1,3.2,1.2c1-0.9,2.6-1.2,3.9-1.2c1,0,1.8,0.1,1.9,0.1
					c0.5-0.4,1.3-0.6,2.2-0.6c1.1,0,2.2,0.2,2.5,0.2c0.1-1.1,0.8-1.9,2-2.4c0.8-0.4,1.5-0.5,1.7-0.5c0.1-1.5,0.8-2.4,1.4-2.8
					c0.6-0.4,1.1-0.5,1.3-0.6c0.2-2.3,2.2-3,2.5-3.1c-0.2-0.9,0.1-1.7,0.9-2.4c0.5-0.5,1.1-0.7,1.2-0.8c0-0.9,0.2-2.4,1.9-3
					c0.3-0.1,0.6-0.2,1-0.2c0.9,0,1.7,0.3,2.4,0.6c0.4,0.2,0.8,0.3,1.2,0.4c0.1,0,0.2,0,0.4,0c0.3,0,0.7-0.1,1-0.2l0.1,0
					c0.4-0.1,0.9-0.2,1.4-0.3c0.7,0,1.4,0.1,2.1,0.5c1.3,0.6,1.6,1.8,1.6,2.7c0.1,1.3-0.5,2.7-0.9,3c-0.9,0.6-1.6,0.7-2.1,0.7
					c-0.1,0-0.2,0-0.3,0c-0.4,3.5-3,4-3.4,4.1c-0.4,3.7-2.6,4.2-3.5,4.2c-0.1,0-0.3,0-0.3,0c-0.8,4.1-4.6,4.3-5.1,4.3l0,0.1
					c-0.4,1.1-1,1.8-1.9,2.2c-0.8,0.4-1.6,0.6-2.3,0.6c0,0,0,0,0,0c-1.3,0-2.1-0.5-2.3-0.6c-0.1,0.1-0.1,0.2-0.2,0.3
					c-0.1,0.2-0.2,0.4-0.3,0.5c-0.8,0.9-1.8,1.3-2.9,1.4c-1,0-1.9-0.3-2.1-0.4C375.3,207.9,373.8,208.3,372.3,208.4z M368.3,207
					L368.3,207c0.6,0.8,2.2,1.3,4,1.2c1.6-0.1,3-0.5,4.1-1.3l0.4-0.3l-0.3,0.3c0.2,0.1,1,0.4,2,0.4c1.2,0,2.1-0.5,2.9-1.3
					c0.1-0.1,0.2-0.3,0.3-0.5c0.1-0.1,0.1-0.3,0.2-0.4l0-0.1l0,0c0,0,0.8,0.7,2.2,0.6l0,0c0.7,0,1.5-0.2,2.3-0.6
					c0.9-0.4,1.5-1.1,1.9-2.2l0,0l0.1-0.1h0c0.4,0,4.2-0.3,5-4.3l0,0l0.1,0c0,0,0.1,0,0.3,0c0.9,0,3.1-0.5,3.4-4.2l0,0l0,0
					c0,0,2.9-0.3,3.3-4l0-0.1l0.1,0c0,0,0.1,0,0.3,0c0.4,0,1.2-0.1,2-0.7c0.3-0.2,0.9-1.6,0.8-2.9c0-0.8-0.4-2-1.6-2.6
					c-0.7-0.3-1.3-0.5-2-0.5c-0.5,0-1,0.1-1.4,0.3l-0.1,0c-0.4,0.1-0.7,0.2-1,0.2c-0.1,0-0.3,0-0.4,0c-0.4-0.1-0.8-0.2-1.2-0.4
					c-0.7-0.3-1.5-0.6-2.4-0.6c-0.3,0-0.6,0.1-1,0.2c-1.6,0.6-1.8,2.1-1.8,2.9v0l0,0c0,0-2.5,1.1-2.1,3.1l0,0l-0.1,0
					c0,0-2.3,0.6-2.5,3l0,0l0,0c0,0-0.7,0.1-1.3,0.6c-0.6,0.4-1.3,1.2-1.4,2.8v0l0,0c0,0-0.9,0.1-1.7,0.5c-1.1,0.5-1.8,1.3-1.9,2.4
					l0,0.1l-0.1,0c0,0-1.2-0.3-2.5-0.2c-0.9,0-1.7,0.2-2.2,0.6l0,0h0c0,0-0.8-0.1-1.9-0.1c-1.2,0-2.9,0.3-3.8,1.2l0,0l0,0
					c0,0-1.2-1.3-3.2-1.2c-0.5,0-1.1,0.1-1.6,0.4l0,0l0,0c0,0-1-1.4-2.7-1.3c-0.4,0-0.8,0.1-1.3,0.3l-0.1,0l0-0.1c0,0-0.4-1.4-3-1.3
					c-0.4,0-0.8,0.1-1.3,0.1l0,0l0,0c-0.3-0.4-1.2-1.1-2.7-1c-0.5,0-1,0.1-1.5,0.2c-0.5,0.1-0.9,0.4-1.1,0.8
					c-0.2,0.3-0.2,0.8-0.1,1.2l0,0.1l-0.1,0c0,0-2.2,0.2-3,1.8c-0.4,0.8-0.3,1.7,0.1,2.4c0.7,1.1,2.2,1.6,4.3,1.5l0,0l0,0
					c0.3,0.5,1.3,1.3,3.4,1.2c0.4,0,0.8-0.1,1.2-0.1l0,0l0,0c0,0,1.2,1.6,3.4,1.5c0.8,0,1.6-0.3,2.4-0.7l0,0l0,0c0,0,0.4,0.6,1.3,1
					l0,0c0.4,0.3,1.1,0.5,2.1,0.4C366.9,207.6,367.9,207.4,368.3,207L368.3,207z"/>
			</g>
			<g>
				<path class="st17" d="M356.2,197c-0.3,0.2-0.7,0.2-1,0.4c-0.3,0.2-0.6,0.5-0.8,0.7c-0.3,0.4-0.5,0.9-0.4,1.4
					c-0.8-0.1-1.7,0.5-2,1.3c-0.5,0.9-0.7,2.5,0.1,3.3c0,0,0.1,0,0,0c-1-1.6-0.2-4.4,1.9-4.4c0,0.1,0.1,0.2,0.1,0.3
					c0,0,0.1,0,0.1-0.1c0-0.1,0-0.1-0.1-0.2c0,0,0-0.1,0-0.1c0,0,0,0,0,0c-0.1-0.7,0.3-1.4,0.9-1.9
					C355.3,197.4,355.8,197.4,356.2,197C356.3,197.1,356.3,197,356.2,197z"/>
				<path class="st17" d="M360.7,198.2c-0.8,0.3-1.6,0.6-2.1,1.3c-0.3,0.4-0.6,1-0.5,1.5c-0.9,0.4-1.4,0.9-1.7,1.8
					c-0.3,0.9-0.2,1.9,0.4,2.6c0,0,0.1,0,0.1,0c-0.4-0.7-0.6-1.4-0.4-2.3c0.2-1,0.8-1.6,1.7-2.1c0,0.2,0.1,0.4,0.2,0.6
					c0,0,0.1,0,0.1-0.1c-0.3-0.9-0.1-1.6,0.5-2.3C359.4,198.7,360.1,198.6,360.7,198.2C360.7,198.3,360.7,198.2,360.7,198.2z"/>
				<path class="st17" d="M364.7,199.3c-0.7,0.3-1.2,0.6-1.6,1.2c-0.3,0.5-0.5,1.1-0.4,1.6c-1.3,1-0.9,3.2,0.1,4.3c0,0,0.1,0,0,0
					c-0.8-1.2-1.3-3.1-0.1-4.2c0,0.2,0.1,0.4,0.2,0.6c0,0,0.1,0,0.1,0c-0.1-0.2-0.1-0.4-0.1-0.6c0,0,0,0,0,0c0,0,0-0.1,0,0
					c0-0.6,0.2-1.2,0.6-1.8C363.7,199.8,364.2,199.7,364.7,199.3C364.7,199.4,364.7,199.3,364.7,199.3z"/>
				<path class="st17" d="M369.6,200.1c-0.9,0.4-1.4,1.9-1,2.9c-0.5,0.5-0.8,1.1-0.9,1.8c-0.1,0.7,0,1.9,0.6,2.4c0,0,0.1,0,0,0
					c-0.9-1.2-0.6-3,0.3-4.1c0,0,0,0,0,0.1c0,0,0.1,0,0.1,0c0,0,0-0.1,0-0.1c0.1-0.1,0.1-0.2,0.2-0.2c0,0,0-0.1,0,0
					c-0.1,0.1-0.1,0.1-0.2,0.2C368.6,201.9,368.8,200.8,369.6,200.1C369.7,200.1,369.7,200.1,369.6,200.1z"/>
				<path class="st17" d="M376.7,202.5c0.3-1.2-0.4-2.9-1.6-3.4c0,0-0.1,0,0,0C376.1,199.8,376.9,201.2,376.7,202.5
					c-0.1-0.1-0.2-0.2-0.2-0.2c0,0-0.1,0,0,0C376.5,202.4,376.6,202.5,376.7,202.5c-0.1,0.1-0.1,0.2-0.2,0.3c0,0,0,0,0,0
					c0-0.1,0.1-0.1,0.1-0.2c0.4,0.6,0.5,1.2,0.5,2c-0.1,0.8-0.3,1.6-0.7,2.4c0,0,0,0.1,0.1,0C377.3,205.7,377.8,203.7,376.7,202.5z"
					/>
				<path class="st17" d="M381.1,201.4c0.2-1.1-0.2-2.5-1.3-2.7c0,0-0.1,0,0,0c1.2,0.5,1.6,2.2,1,3.4c0,0,0,0,0,0
					C380.9,201.9,381,201.7,381.1,201.4c0.9,0.4,1.1,1.4,1.1,2.2c0,1.2-0.5,2.2-1.3,3c0,0,0,0.1,0,0c0.8-0.8,1.3-1.9,1.4-3.1
					C382.4,202.7,382.1,201.5,381.1,201.4z"/>
				<path class="st17" d="M388.3,200c-0.4-0.9-0.9-1.5-1.8-1.8c-0.1-0.6-0.3-1.1-0.7-1.6c-0.3-0.3-0.6-0.5-1-0.7
					c-0.4-0.2-0.8-0.1-1.3-0.2c0,0,0,0,0,0c0.3,0.1,0.7,0.1,1,0.2c0.4,0.1,0.7,0.4,1,0.6c0.5,0.4,0.7,1,0.8,1.5
					c-0.1,0-0.2,0-0.3-0.1c0,0,0,0,0,0c0.1,0,0.2,0.1,0.3,0.1c0,0.1,0,0.2,0.1,0.3c0,0,0.1,0,0.1,0c0-0.1,0-0.2,0-0.2
					c0.3,0.1,0.6,0.2,0.8,0.5c0.4,0.3,0.6,0.9,0.8,1.3c0.4,0.9,0.4,2,0.2,3c0,0,0,0,0.1,0C388.7,202.1,388.7,201,388.3,200z"/>
				<path class="st17" d="M389.6,195.3c0.1-0.8-0.1-1.5-0.7-2.1c-0.3-0.4-0.8-0.6-1.3-0.8c-0.5-0.2-1-0.1-1.6,0c0,0,0,0,0,0
					c0.5,0,0.9-0.1,1.3,0c0.5,0.1,0.9,0.4,1.3,0.7c0.7,0.6,0.9,1.6,0.8,2.6c0,0,0.1,0,0.1,0C389.5,195.7,389.6,195.5,389.6,195.3
					c1.1,0,1.9,0.1,2.7,0.9c0.7,0.7,1,1.6,1.1,2.6c0,0,0.1,0,0.1,0C393.4,196.7,391.7,194.7,389.6,195.3z"/>
				<path class="st17" d="M395.9,191.8c-0.4-0.4-0.9-0.6-1.4-0.7c-0.2,0-1.3-0.2-1.4,0.1c0,0,0,0,0,0c-0.1-0.7-0.4-1.2-1.2-1.6
					c-1-0.5-2.2-0.4-3.2-0.1c0,0,0,0,0,0c1-0.1,1.9-0.2,2.8,0.1c1.1,0.3,1.4,1.1,1.6,2.1c0,0,0.1,0,0.1,0c0-0.1,0-0.3,0-0.4
					c1-0.1,1.8,0,2.6,0.7c0.8,0.7,1.3,1.7,1.5,2.7c0,0,0.1,0,0,0C397.2,193.5,396.7,192.5,395.9,191.8z"/>
				<path class="st17" d="M398.9,187.5c-0.9-0.4-1.9-0.4-2.8,0.1c-0.3-0.8-1.2-1.2-2-1.4c-1-0.2-2.3-0.3-3.3,0.1c0,0,0,0.1,0,0.1
					c0.9-0.4,2-0.2,3-0.1c0.9,0.1,1.7,0.6,2.2,1.4c-0.3,0.1-0.5,0.3-0.7,0.5c0,0,0,0,0,0c0.2-0.2,0.5-0.3,0.7-0.5c0,0,0,0.1,0.1,0.1
					c0,0,0.1,0,0.1,0c0,0,0-0.1,0-0.1c0.8-0.4,1.7-0.4,2.6,0c1.1,0.4,2,1.5,1.9,2.7c0,0,0,0,0,0C401,189,400,188,398.9,187.5z"/>
			</g>
			<path class="st18" d="M402.4,184.1c-1.5-0.8-2.6-0.5-3.4-0.2c-0.5,0.2-1,0.3-1.5,0.2c-1.3-0.2-2.8-1.5-4.6-0.8
				c-1.8,0.6-1.9,2.4-1.8,3c0,0-2.6,1.1-2.1,3.2c0,0-2.3,0.6-2.5,3.1c0,0-0.3,0-0.6,0.2c0.4-0.1,0.9,0,1.3,0.3
				c0.8,0.7,0.7,1.6,0,2.3c-0.6,0.6-1.6,0.9-2.2,0.2c-0.6-0.7-0.5-1.5,0-2.2c-0.5,0.5-1,1.3-1.1,2.6c0,0-0.2,0-0.6,0.1
				c0.4,0,0.8,0.2,1,0.5c0.8,1.1-0.1,2.2-1.1,2.7c-0.5,0.2-1.1,0.4-1.6,0.2c-0.4-0.2-0.7-0.5-0.7-1c0-0.5,0.3-1.1,0.7-1.6
				c0,0-0.1-0.1,0-0.1c-0.7,0.4-1.2,1.1-1.4,2.1c0,0-0.6-0.1-1.4-0.2c0,0,0.1,0,0.1,0.1c0.3,0.1,0.7,0.5,0.5,0.9
				c-0.2,0.4-0.7,0.6-1.2,0.7c-0.5,0.1-1.1,0-1.5-0.2c-0.3-0.2-0.8-0.5-0.8-0.9c0-0.1,0-0.1,0-0.2c-0.2,0.1-0.4,0.2-0.6,0.3
				c0,0-0.9-0.1-2-0.1c0.4,0.1,0.8,0.3,1.1,0.6c0.8,1-0.5,1.5-1.2,1.7c-0.5,0.1-1.1,0.2-1.6,0.2c-0.5,0-1.1,0-1.6-0.2
				c-0.5-0.3-0.4-0.9-0.1-1.3c0,0,0,0,0.1-0.1c-0.1,0.1-0.2,0.2-0.3,0.3c0,0-0.9-1-2.4-1.2c0.4,0.1,0.7,0.4,0.8,0.8
				c0.2,1.1-1,1.5-1.9,1.5c-0.5,0-0.9,0-1.4-0.1c-0.4-0.1-0.8-0.2-1-0.5c-0.2-0.3,0.1-0.8,0.4-1c0.2-0.2,0.4-0.3,0.6-0.4
				c-0.1-0.2-0.6-0.7-1.4-1.1c0.5,0.6-0.1,1.4-0.7,1.7c-0.5,0.2-1.1,0.3-1.7,0.2c-0.4,0-1.1-0.1-1.3-0.6c-0.3-0.6,0.4-1.1,1.1-1.3
				c-0.1-0.2-0.4-0.9-1.5-1.2c0.2,0.1,0.3,0.3,0.2,0.6c-0.1,0.4-0.4,0.6-0.8,0.8c-0.4,0.2-0.9,0.4-1.5,0.4c-0.4,0-1.9-0.1-1.9-0.8
				c0-0.6,0.5-0.9,1-1c-0.1-0.1-0.3-0.4-0.8-0.6c-0.1,0.2-0.2,0.3-0.4,0.4c-0.4,0.4-1,0.7-1.6,0.8c-0.7,0.1-1.5,0-2.1-0.5
				c-0.2-0.2-0.2-0.4-0.2-0.5c-0.5,0.4-0.8,0.9-0.5,1.7c0,0-2.2,0.2-3,1.8c-0.8,1.7,0.2,4.3,4.5,3.9c0,0,1,1.7,4.7,1.1
				c0,0,2.1,2.8,5.8,0.9c0,0,0.4,0.6,1.3,1c0.8,0.8,3.7,0.5,4.4-0.1c1,1.3,5.3,1.9,8.2-0.1c0,0,3,1.3,5-0.9c0.1-0.1,0.3-0.5,0.5-0.9
				c0,0,1.6,1.4,4.6,0.1c0.9-0.4,1.5-1.1,1.9-2.2l0.1-0.1c0,0,4.2-0.1,5-4.3c0,0,3.4,0.5,3.8-4.2c0,0,2.9-0.3,3.4-4.1
				c0,0,1,0.2,2.4-0.7C403.7,189.2,405,185.4,402.4,184.1z M350.4,201.9c-0.7,0.4-1.9,0.3-2.5-0.4c-0.5-0.6-0.2-1.3,0.3-1.8
				c0.2-0.2,0.3-0.3,0.5-0.4c0,0,0.1,0,0.1-0.1c0,0,0,0,0.1,0c0.7-0.3,1.5-0.1,2,0.5C351.6,200.4,351.1,201.5,350.4,201.9z
				 M355.4,202.4c-0.1,1-1.5,1-2.2,0.8c-0.5-0.2-1-0.5-1.1-1.1c-0.1-0.4,0.1-0.9,0.5-1.2c0.4-0.3,0.9-0.3,1.4-0.1
				C354.6,201,355.5,201.6,355.4,202.4z M360.4,203.8c0,1.1-1.5,1.3-2.3,1c-1-0.3-1.9-1.3-1.2-2.3c0,0,0.1,0,0.1,0
				c0.4-0.3,1.2-0.1,1.5,0C359.2,202.5,360.5,203,360.4,203.8z M366.3,205.3c-0.6,0.6-1.8,0.6-2.5,0.5c-0.9-0.2-1.6-0.8-1.6-1.8
				c0,0,0-0.1,0-0.1c0.1-0.8,2-0.2,2.4-0.2c0.6,0.1,1.4,0.2,1.8,0.7C366.6,204.7,366.6,205.1,366.3,205.3z M373.8,206
				c-0.9,0.5-2,0.7-3,0.6c-0.4,0-0.8-0.1-1.2-0.2c-0.3-0.1-0.7-0.3-1-0.5c-0.2-0.2-0.3-0.5-0.4-0.8c0-0.2-0.1-0.6,0.1-0.7
				c0.4-0.3,1-0.2,1.5-0.2c1,0.1,2,0.1,3,0.1c0.5,0,1.5,0.1,1.6,0.8C374.5,205.6,374.1,205.9,373.8,206z M381,203.9
				c-0.1,0.4-0.4,0.7-0.8,1c-0.4,0.2-0.9,0.4-1.3,0.5c-0.3,0.1-0.8,0.2-1.1,0c-0.3-0.2-0.3-0.7-0.2-1.1c0.1-0.3,0.3-0.5,0.6-0.7
				c0.6-0.5,1.5-0.7,2.2-0.5C380.8,203.1,381.1,203.4,381,203.9z M386.4,203c-0.8,0.9-2.3,1.2-3.1,0.2c-0.9-1.1,0.8-1.8,1.7-2.2
				c0,0,0.1,0,0.1-0.1c0.4-0.2,0.8-0.5,1.3-0.4C387.5,200.6,386.9,202.4,386.4,203z M391.9,184.1c0.4-0.7,1.5-1,2.3-0.8
				c0.4,0.1,0.9,0.4,0.7,0.9c-0.1,0.5-0.6,0.8-1,1c-0.5,0.2-1.9,0.6-2.3,0C391.5,184.8,391.6,184.4,391.9,184.1z M387.4,191.8
				c-0.4-0.4-0.1-1,0.4-1.4c0.3-0.3,0.6-0.5,1-0.6c0.4-0.1,1.1-0.2,1.4,0.1c0.6,0.6-0.1,1.5-0.7,1.9
				C388.9,192.1,387.9,192.3,387.4,191.8z M391.2,198.4c0,0.6-0.1,1.1-0.4,1.6c-0.2,0.3-0.6,0.8-1,0.8c-0.5-0.1-0.8-0.5-1-0.9
				c-0.2-0.4-0.3-0.9-0.2-1.4c0-0.1,0.1-0.3,0.2-0.4c0.1-0.3,0.3-0.5,0.5-0.7c0.3-0.3,0.8-0.6,1.3-0.4
				C391,197.2,391.2,197.9,391.2,198.4z M389.7,188.5c-0.6-0.7,0.5-1.6,1.1-1.9c0,0,0.1,0,0.1,0c0.6-0.3,1.3-0.4,1.8,0.2
				c0.6,0.6-0.1,1.5-0.7,1.8C391.4,188.8,390.2,189.1,389.7,188.5z M395.2,196.4c-0.3,0.3-0.8,0.9-1.3,0.6c-0.4-0.2-0.7-0.7-0.9-1.1
				c-0.2-0.5-0.4-1-0.4-1.5c0.1-0.5,0.4-1,0.8-1.4c0.2-0.3,0.5-0.5,0.8-0.6c0.5-0.1,1.1,0.2,1.4,0.7
				C396.1,194.1,395.9,195.6,395.2,196.4z M398.9,191c-0.4,1-1.7,1.4-2.5,0.5c-0.9-1-0.9-2.3,0.1-3.3c0,0,0.1,0,0.1,0
				c0.1-0.1,0.3-0.2,0.5-0.2c0.5-0.1,1,0.1,1.3,0.4C399,189,399.3,190.1,398.9,191z M401.7,187c-0.2,0.4-0.5,0.8-0.9,0.6
				c-0.3-0.1-0.6-0.3-0.8-0.4c-0.3-0.2-0.7-0.3-1-0.4c-0.4-0.1-1.1-0.3-1.1-0.9c0-0.4,0.2-0.7,0.4-1
				C399.3,183,402.6,184.9,401.7,187z"/>
			<g>
				<g>
					<path class="st29" d="M396.8,183.9c0,0-2.4,5.5-7.4,11.1c-2.6,2.9-5.1,4.5-6.8,5.3c-1.8,0.9-3,1.2-3.1,1.2c0,0,0,0,0,0
						c-3.9,0.9-13.1,3-26.2-2.7c-0.6-0.3-1.1-0.5-1.5-0.6c-1.7-0.6-3.1-0.9-4-1c-0.9,0-1.9,0-2,0.8c0,0,0.1,0,0.1,0
						c0,0,2.7,0.4,5.5,1.3c0.4,0.1,0.8,0.3,1.5,0.6c3.1,1.4,9.6,4.2,18.7,3.9c2.6-0.1,5.3-0.4,8.3-1.1c0.1,0,1.4-0.3,3.3-1.3
						c1.8-0.9,4.5-2.6,7.2-5.6c5.2-5.7,7.6-11.5,7.7-11.7C398.2,183.8,397.2,183.3,396.8,183.9z"/>
					<path class="st30" d="M371.5,203.8c-9.1,0.3-15.6-2.5-18.7-3.9c-0.6-0.3-1.1-0.5-1.5-0.6c-2.7-1-5.4-1.3-5.4-1.3
						c-0.1,0-0.1,0-0.1,0l0,0l0,0c0.1-0.6,0.8-0.9,2.1-0.8c0.9,0.1,2.3,0.4,4,1c0.4,0.1,0.9,0.4,1.5,0.6c6.3,2.7,12.4,4,18.3,3.8
						c3.5-0.1,6.1-0.7,7.8-1.1c0,0,0,0,0,0c0,0,1.3-0.3,3-1.2c1.7-0.8,4.2-2.5,6.8-5.3c4.2-4.7,6.6-9.2,7.4-11c0-0.1,0-0.1,0.1-0.1
						c0.2-0.2,0.4-0.3,0.6-0.3c0.3,0,0.6,0.1,0.7,0.3c0.1,0.1,0.1,0.2,0,0.2c-0.3,0.6-2.7,6.2-7.8,11.7c-2.7,3-5.4,4.7-7.2,5.6
						c-1.9,1-3.2,1.2-3.3,1.3C377,203.4,374.2,203.7,371.5,203.8z M345.8,197.9C345.9,197.9,345.9,197.9,345.8,197.9
						c0.1,0,2.8,0.4,5.5,1.3c0.4,0.1,0.8,0.3,1.5,0.6c3.1,1.3,9.6,4.2,18.7,3.8c2.7-0.1,5.5-0.5,8.3-1.1c0.1,0,1.4-0.3,3.3-1.3
						c1.8-0.9,4.5-2.6,7.2-5.6c5-5.5,7.5-11.1,7.7-11.7c0,0,0-0.1,0-0.1c-0.1-0.1-0.3-0.3-0.6-0.3c-0.1,0-0.4,0.1-0.5,0.2
						c0,0,0,0,0,0.1c-0.8,1.8-3.2,6.3-7.4,11c-2.6,2.9-5.1,4.5-6.8,5.3c-1.8,0.9-3,1.2-3.1,1.2l0,0c-1.7,0.4-4.3,1-7.8,1.1
						c-5.9,0.2-12.1-1.1-18.4-3.8c-0.6-0.3-1.1-0.5-1.5-0.6c-1.7-0.6-3.1-0.9-4-1c-0.2,0-0.4,0-0.5,0
						C346.4,197.3,346,197.5,345.8,197.9z"/>
				</g>
				<g class="st21">
					<path class="st22" d="M396.8,183.9c-0.3,0.7-1.8,4.7-3.7,7.5c-2,3-5.2,6.7-9.8,9.2c-4.6,2.5-12.5,2.6-12.5,2.6
						c-9.8,0.1-13.6-2.1-17.4-3.7c-3.8-1.6-5.9-1.5-6.2-1.8c-0.3-0.2,0.2-0.5,0.3-0.5c-0.8,0-1.7,0.1-1.8,0.8c0,0,0.1,0,0.1,0
						c0,0,2.7,0.4,5.5,1.3c0.4,0.1,0.8,0.3,1.5,0.6c3.1,1.4,9.6,4.2,18.7,3.9c2.6-0.1,5.3-0.4,8.3-1.1c0.1,0,1.4-0.3,3.3-1.3
						c1.8-0.9,4.5-2.6,7.2-5.6c5.2-5.7,7.6-11.5,7.7-11.7C398.2,183.8,397.2,183.3,396.8,183.9z"/>
				</g>
				<path class="st31" d="M348.5,197.5c0,0,0.2,0,0.5,0.1c0.4,0.1,0.9,0.2,1.5,0.4c0.7,0.2,1.4,0.4,2.3,0.8c0.9,0.4,1.9,0.8,2.9,1.3
					c1.1,0.4,2.3,0.9,3.6,1.2c1.3,0.4,2.7,0.7,4.1,0.9c1.4,0.2,2.9,0.4,4.5,0.4c1.5,0.1,3.1,0.1,4.6,0c1.6-0.1,3.1-0.3,4.6-0.5
					c1.5-0.3,3-0.7,4.3-1.2c0.7-0.3,1.3-0.6,1.9-0.9c0.6-0.3,1.2-0.7,1.7-1.1c1.1-0.8,2-1.7,2.9-2.5c0.8-0.8,1.6-1.6,2.2-2.3
					c0.2-0.2,0.3-0.3,0.5-0.5c0.2-0.2,0.3-0.3,0.4-0.5c0.3-0.3,0.5-0.6,0.7-0.9c0.2-0.3,0.4-0.5,0.6-0.7c0.2-0.2,0.3-0.4,0.4-0.5
					c0.2-0.3,0.3-0.4,0.3-0.4s-0.1,0.2-0.3,0.5c-0.1,0.1-0.2,0.3-0.4,0.5c-0.2,0.2-0.3,0.5-0.6,0.7c-0.2,0.3-0.5,0.6-0.7,0.9
					c-0.1,0.2-0.3,0.3-0.4,0.5c-0.1,0.2-0.3,0.3-0.5,0.5c-0.6,0.7-1.4,1.5-2.2,2.3c-0.8,0.8-1.8,1.7-2.8,2.5
					c-0.5,0.4-1.1,0.8-1.7,1.1c-0.6,0.3-1.3,0.6-2,0.9c-1.4,0.5-2.8,0.9-4.4,1.2c-1.5,0.3-3.1,0.5-4.6,0.6c-1.6,0.1-3.1,0.1-4.7,0
					c-1.5-0.1-3-0.2-4.5-0.5c-1.5-0.2-2.8-0.6-4.1-1c-1.3-0.4-2.5-0.8-3.6-1.3c-0.5-0.2-1.1-0.5-1.5-0.7c-0.5-0.2-0.9-0.4-1.4-0.6
					c-0.9-0.4-1.7-0.6-2.3-0.8C349.2,197.7,348.5,197.5,348.5,197.5z"/>
			</g>
		</g>
		<g>
			<path class="st15" d="M375,253c-0.7-0.1-1.5-0.3-2.1-0.8c-0.6-0.5-1-1.4-1-2.2c0,0,0,0,0,0c0,0.8,0.3,1.6,0.8,2.2
				C373.2,252.9,374.2,253,375,253C375,253,375.1,253,375,253z"/>
			<path class="st15" d="M373.9,258.1c-0.1-1,0.3-2-0.4-2.9c0,0,0,0,0,0c0.3,0.6,0.2,1.2,0.1,1.8c-0.1,0.6,0,1.1,0,1.7
				c0.2,1.3,0.7,2.5,1.3,3.6c0,0,0.1,0,0.1,0C374.5,260.9,374.1,259.5,373.9,258.1z"/>
			<path class="st15" d="M379.9,246.8c0.2-0.1,0.3-0.2,0.5-0.4c-1,0.4-2.3,0.9-3.3,0.5c0.3,0.2,0.7,0.3,1.1,0.3
				C378.8,247.2,379.3,247,379.9,246.8z"/>
			<path class="st15" d="M344.7,199c-1,0.8-1.2,2.4-0.8,3.6C343.8,201.4,344,200.1,344.7,199z"/>
			<path class="st15" d="M343.6,205.5c-0.2-0.5-0.1-1.1,0.1-1.5c-0.7,0.7-0.5,1.8,0.4,2.4C343.8,206.1,343.7,205.7,343.6,205.5z"/>
			<path class="st15" d="M342.7,206.5c-0.7,1.1-0.5,2.5,0.4,3.4C342.6,208.8,342.3,207.5,342.7,206.5z"/>
			<path class="st15" d="M341.9,210.7c-0.3,1.1,0,2.3,0.9,3.1C342.2,212.9,341.8,211.8,341.9,210.7z"/>
			<path class="st15" d="M341.5,216.4c0-0.2-0.1-0.4-0.1-0.5c-0.1-0.4-0.1-0.8,0-1.2c-0.3,1-0.3,1.9,0.3,2.8c0,0,0,0,0,0
				C341.6,217.1,341.5,216.7,341.5,216.4z"/>
			<path class="st15" d="M341.7,220.3c0,0.4,0.1,0.8,0.3,1.2c0.3,0.4,0.6,0.7,1.1,0.9c0,0,0,0,0,0
				C342.5,221.8,342,221.1,341.7,220.3z"/>
			<path class="st15" d="M343.5,227c-0.3-0.1-0.5-0.3-0.7-0.5c-0.2-0.2-0.4-0.5-0.5-0.7c-0.1-0.2-0.1-0.4-0.2-0.6
				c0-0.1-0.1-0.3-0.1-0.4c0,0.3,0,0.6,0.1,0.9c0.1,0.3,0.3,0.6,0.5,0.8c0.4,0.5,1.1,0.8,1.7,0.9C344,227.3,343.7,227.1,343.5,227z"
				/>
			<path class="st15" d="M345.5,232.7C345.4,232.7,345.4,232.6,345.5,232.7c-0.7-0.4-1.3-1-1.6-1.7c-0.1-0.2-0.2-0.4-0.3-0.6
				c0.2,1.5,1.5,2.6,3,2.8C346.1,233.1,345.8,232.9,345.5,232.7z"/>
			<path class="st15" d="M348.4,199.9c0.2-0.3,0.5-0.5,0.9-0.6c0.1,0,0.1-0.1,0.2-0.1c-0.6,0-1.1,0.4-1.3,1
				C348.2,200.1,348.3,200,348.4,199.9z"/>
			<path class="st15" d="M352.3,201.9c0-0.3,0.1-0.5,0.3-0.8c0.1-0.1,0.3-0.3,0.5-0.3c0.1-0.1,0.2-0.1,0.3-0.1
				c-0.3,0-0.6,0.1-0.8,0.3c-0.3,0.3-0.4,0.7-0.3,1.1c0,0,0,0,0.1,0C352.3,202,352.3,202,352.3,201.9z"/>
			<path class="st15" d="M358.3,202.4c-0.5-0.2-1.2,0-1.4,0.6c0,0,0,0,0,0C357.1,202.6,357.7,202.5,358.3,202.4
				C358.2,202.5,358.3,202.4,358.3,202.4z"/>
			<path class="st15" d="M362.4,204c0.1-0.2,0.4-0.3,0.6-0.3c0.1,0,0.1,0,0.2,0c0.4,0,0.7,0.1,1.1,0.1
				C363.9,203.7,362.3,203.2,362.4,204C362.3,204.1,362.4,204,362.4,204z"/>
			<path class="st15" d="M369.7,204.4c0.2,0,0.3,0,0.5-0.1c-0.7,0-1.6,0-1.8,0.5C368.8,204.5,369.3,204.5,369.7,204.4z"/>
			<path class="st15" d="M378.4,203.6c-0.5,0.3-0.9,0.7-0.7,1.2C377.8,204.4,378,204,378.4,203.6z"/>
			<path class="st15" d="M384,201.5c-0.6,0.3-1.1,1-0.6,1.5c0,0,0,0,0,0C383.2,202.5,383.6,201.9,384,201.5z"/>
			<path class="st15" d="M388.9,198.8c0-0.3,0-0.6,0.1-0.8c0,0,0-0.1,0.1-0.1c-0.4,0.5-0.5,1.3-0.2,1.9
				C388.8,199.4,388.8,199.1,388.9,198.8z"/>
			<path class="st15" d="M393.1,195.5c-0.1-0.4-0.1-0.7-0.1-1.1c0-0.1,0-0.3,0-0.4c0-0.1,0.1-0.3,0.1-0.4c-0.5,0.7-0.4,1.5,0,2.3
				C393.1,195.7,393.1,195.6,393.1,195.5z"/>
			<path class="st15" d="M396.2,189.4C396.2,189.4,396.2,189.4,396.2,189.4c0-0.2,0-0.3,0-0.3c-0.4,0.8-0.5,1.7,0.3,2.3c0,0,0,0,0,0
				C396.4,190.7,396.1,190.1,396.2,189.4z"/>
			<path class="st15" d="M398.9,186.4c-0.2-0.1-0.4-0.3-0.5-0.5c-0.1-0.1-0.1-0.2-0.1-0.3c0,0,0,0,0-0.1c-0.1,0.6,0.4,0.9,0.9,1
				C399,186.5,398.9,186.5,398.9,186.4z"/>
			<path class="st15" d="M398.5,200.1c0.1-0.3,0.3-0.5,0.5-0.7l0,0c-0.4,0.2-0.8,0.8-0.9,1.3C398.2,200.5,398.4,200.3,398.5,200.1z"
				/>
			<path class="st15" d="M398.9,196.2c0.2-0.2,0.5-0.5,0.8-0.6c0,0,0,0,0,0c-0.6,0.4-1.3,0.7-1.5,1.5
				C398.3,196.7,398.7,196.4,398.9,196.2z"/>
			<path class="st15" d="M401.1,192.5c-0.1,0.2-0.1,0.3-0.1,0.5c0,0.2,0,0.5,0.2,0.6c0,0,0,0,0,0C401.1,193.3,401,192.9,401.1,192.5
				z"/>
			<path class="st15" d="M398.7,205.4c0.1-0.4,0.1-0.8,0.2-1.1c0.1-0.3,0.2-0.6,0.3-0.8c0.1-0.3,0.3-0.5,0.4-0.7
				C398.9,203.5,398.5,204.4,398.7,205.4C398.7,205.4,398.7,205.4,398.7,205.4z"/>
			<path class="st15" d="M399.5,208.8c0.1-0.2,0.1-0.3,0.2-0.5c-0.5,0.8-1,1.9-0.6,2.8c0,0,0,0,0,0c0-0.2,0-0.4,0-0.6
				c0-0.2,0-0.5,0.1-0.7C399.3,209.5,399.4,209.1,399.5,208.8z"/>
			<path class="st15" d="M400.3,213.9C400.3,213.9,400.2,213.9,400.3,213.9c-0.4,0.7-0.9,1.9-0.1,2.5
				C399.7,215.6,400,214.7,400.3,213.9z"/>
			<path class="st15" d="M400.8,219.3c0,0.2,0,0.3,0.2,0.4c0.2,0.1,0.4,0.2,0.6,0.1c0,0,0.1-0.1,0.1-0.1
				C401.4,219.7,401,219.5,400.8,219.3z"/>
			<path class="st15" d="M401.9,222.5C401.9,222.5,401.9,222.5,401.9,222.5c0.1,0.3,0.4,1.1,0.8,0.9c0,0,0.1,0,0.1-0.1
				C402.4,223.2,402.1,222.8,401.9,222.5z"/>
			<path class="st15" d="M401.2,225.4c-0.2,0.1-0.3,0.4-0.4,0.6c-0.2,0.7,0,1.4,0.3,2C401.1,227.4,400.9,226.1,401.2,225.4z"/>
			<path class="st15" d="M399.5,229.9c-0.6,0.5-0.5,1.4-0.2,2.1c0,0,0,0,0,0C399.3,231.3,399.2,230.6,399.5,229.9z"/>
			<path class="st15" d="M397.9,236.3c0-0.1,0-0.3,0-0.4c-0.1-0.6-0.3-1.4,0-1.9c0-0.1,0-0.1,0.1-0.2
				C397.3,234.4,397.6,235.5,397.9,236.3C397.9,236.2,397.9,236.2,397.9,236.3z"/>
			<path class="st15" d="M396.1,240.1c0.1-0.5,0.3-1,0.6-1.4c0.1-0.2,0.3-0.4,0.4-0.5c-0.9,0.4-1.3,1.6-1.3,2.5c0,0,0,0,0,0
				C395.9,240.5,396,240.3,396.1,240.1z"/>
			<path class="st15" d="M390.9,246.5c-0.4,0.4-0.7,0.9-0.7,1.5c0,0,0,0.1,0,0.1c0.1-0.1,0.1-0.1,0.2-0.2c0.2-0.4,0.3-0.7,0.5-1.1
				C390.9,246.7,390.9,246.6,390.9,246.5z"/>
			<path class="st15" d="M382.9,247.7c0.2-0.4,0.6-0.8,1-1c0.2-0.1,0.4-0.3,0.6-0.4c-0.4,0.1-0.8,0.3-1.1,0.6
				C383.2,247.1,382.9,247.3,382.9,247.7C382.9,247.7,382.9,247.7,382.9,247.7z"/>
			<path class="st15" d="M350,236.3c0.1-0.6,0.5-1,1-1.3c-0.3,0.1-0.6,0.2-0.8,0.4C350,235.7,349.8,236.1,350,236.3
				C350,236.3,350,236.3,350,236.3z"/>
			<path class="st15" d="M356.9,239.5c-0.3-0.3-0.4-0.6-0.5-1c0,0,0,0,0,0c-0.1,0.3-0.1,0.5,0,0.8c0.1,0.3,0.4,0.4,0.7,0.4
				c0,0,0,0,0,0C357,239.6,356.9,239.5,356.9,239.5z"/>
			<path class="st15" d="M351.4,196.8c0.5-0.2,1.1-0.3,1.6-0.4c0.1,0,0.2-0.1,0.3-0.1C352.7,196.3,351.9,196.4,351.4,196.8
				C351.4,196.8,351.4,196.8,351.4,196.8z"/>
			<path class="st15" d="M355.7,197.7c0.3-0.1,0.6-0.2,0.9-0.3c0.1,0,0.2-0.1,0.3-0.1c0.1,0,0.3-0.1,0.4-0.1
				c-0.6-0.1-1.4,0.1-1.9,0.5C355.5,197.7,355.6,197.7,355.7,197.7z"/>
			<path class="st15" d="M360,198.9c0.4-0.2,0.9-0.3,1.4-0.4c0.1-0.1,0.3-0.1,0.4-0.2c-0.7,0-1.4,0.2-2,0.6
				C359.8,198.9,359.9,198.9,360,198.9z"/>
			<path class="st15" d="M364,200.1c0.1-0.1,0.2-0.2,0.4-0.2c0.1-0.1,0.2-0.1,0.3-0.2c0.4-0.2,0.8-0.3,1.2-0.4
				c-0.6,0-1.1,0.2-1.6,0.4c-0.2,0.1-0.5,0.4-0.7,0.6C363.8,200.2,363.9,200.1,364,200.1z"/>
			<path class="st15" d="M371.7,199.5c-0.8,0.1-1.5,0.3-2.1,1c0,0.1,0,0.1,0.1,0.1C370.3,200.1,370.9,199.8,371.7,199.5
				C371.7,199.5,371.7,199.5,371.7,199.5z"/>
			<path class="st15" d="M381.5,197C381.5,197,381.5,197,381.5,197C381.5,197,381.5,197,381.5,197c0-0.1,0.1-0.1,0.1-0.1
				c0,0,0,0,0-0.1c0-0.1,0.1-0.1,0.1-0.2c0,0,0,0,0,0c-0.6,0.2-0.8,1-0.8,1.6C381.2,197.8,381.3,197.4,381.5,197z"/>
			<path class="st15" d="M385,193.4c-0.4,0.4-0.6,1.1-0.3,1.6c0,0,0,0,0,0C384.7,194.4,384.7,193.8,385,193.4z"/>
			<path class="st15" d="M387.6,190.9c0-0.1,0.1-0.2,0.1-0.2c-0.1,0.1-0.2,0.2-0.2,0.3c-0.1,0.1-0.1,0.3,0,0.4
				C387.4,191.2,387.5,191,387.6,190.9z"/>
			<path class="st15" d="M390.1,187.4c-0.2,0.3-0.4,0.6-0.2,0.9c0,0,0.1,0,0.1,0C389.9,188,390,187.7,390.1,187.4z"/>
			<path class="st15" d="M391.9,184.9c0-0.1,0.1-0.2,0.1-0.3c0.1-0.2,0.2-0.4,0.3-0.6c0.1-0.1,0.2-0.2,0.3-0.3
				c-0.2,0.1-0.5,0.3-0.7,0.5C391.9,184.4,391.7,184.8,391.9,184.9z"/>
		</g>
	</g>
</g>
</svg>
