<?xml version="1.0" encoding="utf-8"?>
<!-- Generator: Adobe Illustrator 24.2.3, SVG Export Plug-In . SVG Version: 6.00 Build 0)  -->
<svg version="1.1" id="Layer_1" xmlns="http://www.w3.org/2000/svg" xmlns:xlink="http://www.w3.org/1999/xlink" x="0px" y="0px"
	 viewBox="0 0 750 500" style="enable-background:new 0 0 750 500;" xml:space="preserve">
<style type="text/css">
	.st0{fill-rule:evenodd;clip-rule:evenodd;fill:#B3612B;}
	.st1{fill:#F01724;}
	.st2{fill:#F05E58;}
	.st3{fill-rule:evenodd;clip-rule:evenodd;fill:#F89193;}
	.st4{fill:#B72726;}
	.st5{fill:#992927;}
	.st6{font-family:'MyriadPro-Regular';}
	.st7{font-size:48px;}
</style>
<g>
	<path class="st0" d="M332.1,460.6c0,0-0.5-73-3.1-108.8c-2.7-35.8,25.6-36.4,32.6-22.1c3.1,6.3,1,8.5,0.9,19L362.1,472
		c0,10.3-1.3,17.7-10,17.7h-31.5c-4,0-15.5,0.6-17.8-1.9C292,477.3,325.5,464.6,332.1,460.6L332.1,460.6z"/>
	<path class="st0" d="M418,460.6c0,0,0.5-73,3.1-108.8c2.7-35.8-25.7-36.4-32.6-22.1c-3.1,6.3-1,8.5-0.9,19l0.4,123.4
		c0,10.3,1.3,17.7,10,17.7h31.5c4,0,15.5,0.6,17.8-1.9C458,477.3,424.6,464.6,418,460.6L418,460.6z"/>
	<path class="st0" d="M325.7,212.2c19-16.9,40.5-15.2,50.8-14.7V357c-17.6,0-36.4,4.6-47.5-5.9L325.7,212.2L325.7,212.2z"/>
	<path class="st0" d="M424.3,212.2c-19-16.9-40.5-15.2-50.8-14.7V357c17.6,0,36.4,4.6,47.5-5.9L424.3,212.2L424.3,212.2z"/>
	<path class="st0" d="M295.5,251.8c-11,23.8-16.9,62.4-16.9,62.4s-15.6,15.3-19.4,23c-2.6,5.3-1.2,8.3,2.2,4.6
		c1.4-1.6,4.2-6,6.3-7.7c-1.5,2.4-8.2,13.9-5,15.8c3.2,1.8,3.6-3.8,11-12.4c-3.8,6.5-8,14.9-5.1,17c2.9,2.1,7.6-11,10.1-13.7
		c-1.6,4-4.2,15.6-0.2,15.8c3.9,0.2,5.6-11.6,8.1-14.7l7.5-8.4c0.8,0.8,2.6,8.1,3.7,9c1.1,0.9,2.7,0.6,3.9-3.3
		c1.8-6.5-2.9-17.4-2.9-17.4c3.2-35,15.3-59.8,37.1-80c1.6,0.5,1,7.4,2.5,7.8c17.8-12.9,28.4-40.7,7.8-46
		C327.8,198.8,303.1,235.3,295.5,251.8L295.5,251.8z"/>
	<path class="st0" d="M454.5,251.8c11,23.8,16.9,62.4,16.9,62.4s15.6,15.3,19.4,23c2.6,5.3,1.2,8.3-2.2,4.6c-1.4-1.6-4.2-6-6.3-7.7
		c1.5,2.4,8.2,13.9,5,15.8c-3.2,1.8-3.6-3.8-11-12.4c3.8,6.5,8,14.9,5.1,17c-2.9,2.1-7.6-11-10.1-13.7c1.6,4,4.2,15.6,0.2,15.8
		c-3.9,0.2-5.6-11.6-8.1-14.7l-7.5-8.4c-0.8,0.8-2.6,8.1-3.7,9c-1.1,0.9-2.7,0.6-3.9-3.3c-1.8-6.5,2.9-17.4,2.9-17.4
		c-3.2-35-15.3-59.8-37.1-80c-1.6,0.5-1,7.4-2.5,7.8c-17.8-12.9-28.4-40.7-7.8-46C422.2,198.8,446.9,235.3,454.5,251.8L454.5,251.8z
		"/>
	<polygon class="st0" points="362.3,166.7 386.4,172.7 388.4,207 375.3,210.8 361.6,210.3 362.3,166.7 	"/>
	<path class="st0" d="M295.7,142.3c-19.3,0.6-23.7-27.2-8.2-31.9c-2.8-38.5,12.3-88.8,68.2-98.8c6.7-1.2,13.1-1.6,19.2-1.4
		c6.1-0.2,12.6,0.2,19.2,1.4c55.9,10,72.3,64.3,68.2,98.8c15.6,4.7,11.2,32.5-8.2,31.9c-5.1,10.2-12.2,18.6-20.7,25.1
		c-12,10.1-28.6,16.8-50.2,18.1c-2.8,0.2-5.6,0.2-8.4,0.2c-2.8,0-5.6-0.1-8.4-0.2c-21.6-1.3-38.1-8-50.2-18.1
		C307.9,160.9,300.8,152.5,295.7,142.3L295.7,142.3z"/>
	<path class="st1" d="M373.6,165.9c0-1.7,1.4-3.1,3.1-3.1c1.7,0,3.1,1.4,3.1,3.1v86.1c0,0.4,0,0.8,0,1.8l0,0c0,3.4,0,4.4,3.5,5.9
		c2.4,1.1,4.8,2.1,7.2,3.2c2.2,1,4.3,1.8,6.1,2.5c1.6,0.6,2.4,2.5,1.7,4.1c-0.6,1.6-2.5,2.4-4.1,1.7c-1.9-0.8-4-1.6-6.2-2.6
		c-2.2-0.9-4.7-2-7.3-3.2c-7.3-3.2-7.3-5.2-7.2-11.7L373.6,165.9L373.6,165.9z"/>
	<path class="st2" d="M400.7,152.8c-1.8,10.1-11.8,17.8-24,17.8c-12.1,0-22.2-7.7-24-17.8H400.7L400.7,152.8z"/>
	<path class="st2" d="M384.6,290.1c1.7,0,3.1,1.4,3.1,3.1c0,1.7-1.4,3.1-3.1,3.1l-16.8,0.1c-3.9,0.5-6.7,2.3-8.2,4.5
		c-0.8,1.1-1.2,2.3-1.4,3.5c-0.2,1,0,2,0.3,2.9c0.4,1,1.2,1.7,2.5,2c1.7,0.5,2.6,2.2,2.2,3.8c-0.5,1.7-2.2,2.6-3.8,2.2
		c-3.2-0.9-5.4-2.9-6.6-5.5c-0.8-1.9-1.1-4.1-0.8-6.3c0.3-2.1,1.1-4.2,2.5-6.1c2.5-3.6,6.8-6.5,12.8-7.2l0,0c0.1,0,0.2,0,0.3,0
		L384.6,290.1L384.6,290.1z"/>
	<path class="st3" d="M350.3,315.7c-2.5,0-4.5-2-4.5-4.4c0-2.5,1.8-4.5,4.3-4.5c6.8-0.1,24.4-0.4,32.1-0.5
		c7.7-0.1,15.3-0.2,22.1-0.3c4.5-0.1,7.4,2.4,8.7,5.7c0.5,1.2,0.7,2.5,0.7,3.8c0,1.3-0.2,2.6-0.7,3.8c-1.3,3.3-4.3,6-8.9,6h-53.2
		c-0.6,0-0.9,0.1-1,0.3c0,0,0,0.1,0,0.2c0,0.1,0,0.2,0,0.2c0.1,0.2,0.4,0.3,1,0.3h49c4.5,0,7.7,2.6,9.1,5.9c0.5,1.2,0.8,2.5,0.8,3.8
		c0,1.3-0.2,2.7-0.8,3.9c-1.4,3.1-4.4,5.5-9.2,5.5h-25.3c-2.5,0-4.5-2-4.5-4.5c0-2.5,2-4.5,4.5-4.5h25.3c0.7,0,1-0.1,1-0.1
		c0,0,0-0.1,0-0.2c0-0.1,0-0.2-0.1-0.4c-0.1-0.3-0.4-0.5-0.9-0.5h-49c-4.7,0-7.8-2.5-9.2-5.6c-0.6-1.2-0.8-2.6-0.8-3.9
		c0-1.3,0.3-2.6,0.8-3.9c1.4-3.2,4.5-5.6,9.2-5.6h53.2c0.3,0,0.5-0.1,0.6-0.3c0.1-0.2,0.1-0.4,0.1-0.5c0-0.1,0-0.3-0.1-0.5
		c0-0.1-0.1-0.1-0.3-0.1c-6.8,0.1-14.5,0.2-22.1,0.3C374.6,315.3,357.2,315.6,350.3,315.7L350.3,315.7z"/>
	<path class="st2" d="M383.2,304.6c22.3,0.3,31.6-22.8,26.1-37.3c-4-10.5-24.5-13.2-25.9,4.2c-1.9,24.3-16.1,6.8-18.9,20.9
		C362.5,302.1,373.2,304.4,383.2,304.6L383.2,304.6z"/>
	<path class="st4" d="M345.2,297.8c11.7-0.6,10.2-14.1,28.4-23c17.6-8.6,12.3-16.9-15.2-14.1c-15.4,1.6-22.2,6.4-22.2,18.4
		C336.3,289.7,339.1,298.1,345.2,297.8L345.2,297.8z"/>
	<path class="st5" d="M365.5,280c0.6-0.5,1.2-1,1.9-1.4c-8.5-3.6-10.5-13.9-11-17.5c-0.7,0.1-1.4,0.2-2.1,0.3
		C354.8,265.2,357,275.7,365.5,280L365.5,280z"/>
</g>
<rect x="375.4" y="213.5" class="st1" width="167.5" height="4.3"/>
<text transform="matrix(1 0 0 1 531.6802 228.9999)"><tspan x="0" y="0" class="st1 st6 st7">Tubo</tspan><tspan x="0" y="57.6" class="st1 st6 st7">Digestivo</tspan></text>
</svg>
