<?xml version="1.0" encoding="utf-8"?>
<!-- Generator: Adobe Illustrator 24.2.3, SVG Export Plug-In . SVG Version: 6.00 Build 0)  -->
<svg version="1.1" id="Layer_1" xmlns="http://www.w3.org/2000/svg" xmlns:xlink="http://www.w3.org/1999/xlink" x="0px" y="0px"
	 viewBox="0 0 500 500" style="enable-background:new 0 0 500 500;" xml:space="preserve">
<style type="text/css">
	.st0{fill:#E5989E;stroke:#B25B66;stroke-linecap:round;stroke-linejoin:round;stroke-miterlimit:10;}
	.st1{fill:#E5989E;}
	.st2{fill:#A35A66;stroke:#6D4658;stroke-miterlimit:10;}
	.st3{opacity:0.5;fill:#A35A66;}
	.st4{fill:#EFBF48;stroke:#CC9042;stroke-linecap:round;stroke-linejoin:round;stroke-miterlimit:10;}
	.st5{opacity:0.8;fill:#EFBF48;}
	.st6{fill:#936168;stroke:#6D4658;stroke-miterlimit:10;}
</style>
<g>
	<g>
		<path class="st0" d="M127.34,226.26c13.1-1.53,20-18.03,22-30.35s-3.36-18.06-11.75-20.2c-7.63-1.94-9.06-4.19-9.5-9.69
			c0,0,1.06,6.44,7.63,7.5s10.06,3.06,11.25,4.69c0,0-0.15-4.58-4.63-7.63c-3-2.04-4.58-4.54-5.33-6.88
			c-1.35-4.2-0.5-8.04,1.08-9.96c0,0-2.13,8,3.17,13.13c0,0-0.71-4.42,2.38-6.04c0,0-2.75,4.71,1.21,9.25
			c3.96,4.54,5.94,7.56,6.25,13.25c0,0,0.69-8.18,5.06-14.81c4.62-7.01,10-9.69,6.31-22.26c0,0,4.74,5.05,2.94,13.38
			c-1,4.63-7.38,9.06-9.94,17.44s-0.56,14.75-0.56,14.75s3-2.19,8.56-3.88s7.82-6.3,5.19-10.56c-2.44-3.94-4.06-8.13-1.56-12.31
			c0,0-1.19,4.69,1.75,9.25s3.19,7.19,3.19,7.19s3.06-10.13,0.69-23.63c0,0,5.81,14.63,0.13,26.81c0,0,6.18-0.72,9.69-7.38
			c4.25-8.06,11.31-8,11.31-8s-7.13,2.44-9.06,9.31c0,0,9-2.31,13.38,1.81c0,0-9.27-3.25-17.1,2.04c-4.52,3.05-5.9,5.33-15.84,8.28
			c-10.13,3-13.21,6.65-13.71,16.4s4.92,21.66,23.25,18.42c23.08-4.08,22.9-15.92,20.75-24.08c-1.65-6.27-6.5-9.08-6.5-9.08
			s5.92,0.67,8.58,8.58c0,0-1.08-15.5,10.58-20.75c0,0-6.33,4.75-7.5,13.17c-1.17,8.42,0.33,9.83-0.92,14.33
			c0,0,4.17-6.83,11.42-6.42c0,0-5.48,1.49-8.75,6.25c-3.21,4.67-4.25,8.08-5.92,9.83c0,0,3.23-2.51,13.58-3.75
			c12.5-1.5,16-12.42,16-12.42s-0.33,8.33-7.33,11.92c0,0,7.5-1,9.58,7.5c0,0-4.42-7.42-19.25-3.83
			c-14.83,3.58-27.67,12.08-28.17,22c-0.5,9.92,14.5,24.25,33.25,22s43.67-10.5,62.54-23.25s40-15,58.88-10.13
			s43.08-2.3,48.63-12.38c2.75-5,1.67-14.92,1-17.25c-0.17-0.58-2.04-0.5-2.21-3.42c-0.17-2.92,2.58-4.42,5.25-3.42
			s2.42,4.9-0.29,6.33c-0.58,0.31-0.04,3,0.25,7.42c0.29,4.42,0.29,6.33,1.58,6.58c1.29,0.25,5.33-2,8.42-6.96
			c3.08-4.96,2.8-11.7,6.46-16.96c3.54-5.08,8.85-5.73,8.85-5.73c0.34-0.06,0.3-1.88,1.86-2.67c1.56-0.79,3.59,0.45,4.08,2.17
			c0.5,1.75-0.15,3.54-1.88,3.85s-3.15-0.83-3.59-1.39c-0.35-0.44-4.91,0.62-7.91,5.56s-3.69,14-3.69,14s5.69-6.13,12.88-8.25
			s13.19-0.5,13.88-0.75s2.06-2.25,4.5-1.19s1.81,4.81-0.69,5.63s-3.81-1.75-4-2.19s-8.12-2.04-15.29,1.71
			c-12.92,6.75-26.94,27.49-53.92,33.5c0,0,20.08,6.75,36.67,2c16.58-4.75,21.54-18.5,22.17-26.25c0.06-0.77-1.9-1.23-2.13-3.75
			c-0.25-2.84,3.35-3.85,5.31-1.96c1.69,1.63,0.39,4.36-0.44,5.13c-0.37,0.34-0.21,9.54-5.17,14.79c0,0,4.13-3.46,13.17-5.5
			c9.42-2.13,10.92-1.5,11.58-2.04c0.67-0.54,2.25-2.75,4.13-1.75s1.42,3.63-0.46,5.04s-3.04-0.21-3.46-1.04
			c-0.42-0.83-16.3,2.02-25.08,7.88c-5.62,3.75-7.58,7.13-7.58,7.13s8.24-1.06,16.63,0.44c8.75,1.56,11.81,4.56,12.5,4.88
			s2.75-0.44,3.88,1.44s-0.13,4.09-2.67,3.88c-2.5-0.21-1.83-2.92-2.25-3.58c-0.42-0.67-7.15-5.29-25.08-3.54
			s-27.69,5.63-36.56,3.75c0,0,4.73,3.66,13,5.44c9.63,2.06,19.2,0.01,26.88,7.69c0.5,0.5,1.85-1.23,4.13-0.63
			c1.9,0.5,2.88,2.44,1.06,4.63s-5.07,1.25-5.71-1.21c-0.25-0.96-3.92-4.73-11.73-5.6s-18.56-1.75-23.63-4.81
			c0,0,1.89,1.7,4.69,3.56c3.75,2.5,5.5,5.81,7.63,12.44c1.93,6.03,6.71,12.13,9.31,12.56c1.13,0.19,2.38-0.5,3.38,1
			s0.38,3.38-1.19,4.13s-3.69,0.56-4.31-1.38s0.13-2.38-0.44-3s-5.89-3.43-8.56-11.93c-3.38-10.76-11.88-16.26-21.75-18.76
			c0,0,6.19,4.13,8.81,13.19s-0.38,13.44,2.79,20.85s12.08,4.08,16.92,9.58c0,0,2.17-1.69,4.1,0.37s0.75,5.5-2.25,5.38
			s-3.18-3.39-2.69-4.75c0,0-1.83-2.21-6.29-2.12c-4.46,0.08-7.5-1.54-7.5-1.54s1.25,4.46,5.83,6.67c4.43,2.14,4.92,6.33,4.92,6.33
			s2.25-0.46,3.09,1.68c1.07,2.71-2.79,4.44-4.76,2.57c-1.67-1.58-0.25-3.63-0.25-3.63s-0.88-3.04-6.28-5.92
			c-6.72-3.58-9.12-12.27-9.93-18.83c0,0-5.42,4.96-3.42,13.96s6.83,12.42,6.83,12.42s2.08-0.5,3.42,1.25s0.13,4-2.33,3.88
			c-2.46-0.13-2.66-2.62-2.13-4.08c0,0-7.08-4.59-8.13-15.04c-1.17-11.67,5.93-16.25,2.54-27.83
			c-5.63-19.25-44.17-33.08-73.32-22.67c-25.31,9.04-25.44,17.47-59.47,28c-37.17,11.5-49.72-2.01-61.37,6.01
			c-7.96,5.49-6.96,23.23,0.41,28.28c9.5,6.5,16.88-1.21,22.88,7.34c0,0-4.67-3.71-12.5-2.46c-7.83,1.25-10.67-1.5-12.17-3
			c0,0,1.38,8.32,6.42,14.42c5.92,7.17,19,7.92,20.92,16.5c0,0-2.44-4.05-9.42-5.67c-6.33-1.47-7.5-3.63-7.5-3.63
			s2.99,3.92,2.37,8.2c-0.56,3.88,0.19,8.06,1.88,10.63c0,0-4.19-2.13-3.88-8.19s-1-8.31-5.13-12.56s-5.94-10-5.94-10
			s-4.44,4.56-4.13,9.81s7.13,8.44,6.31,15.38c0,0-0.94-5.69-6-9.38c0,0-0.09,2.57-1.5,8.38c-1.81,7.44-7.44,10.19-8.94,14.75
			s-0.5,6.5-0.5,6.5s-3.19-5.44,1.75-11.56s7.6-11.37,6.31-18.44c-0.88-4.81,0.19-7.88,0.19-7.88s-9.4,0.58-12.48,14.08
			c0,0-0.92-8.92,6.92-14.25c7.83-5.33,12-9.58,8.25-20.17c-3.75-10.58-5.98-17.09-19.83-12.17c-11.5,4.08-15.45,7.44-18.67,13.83
			c-5.83,11.58-9.94,13.29-8.56,18.29s5.56,3.75,6.75,9.69c0,0-1.25-2.81-5.06-3.88s-3.94-3.38-3.94-3.38s-1.44,4,0.44,9.44
			s3.88,11.38-1.69,16.75c0,0,4-4.56,0.81-12.75s-2.63-17,1.19-21.69c0,0-30.1,19.44-26.44,38.69c0,0-3.92-7.58,0.83-17.42
			c2.53-5.24,9-10.83,9-10.83s-12.08,0.83-17.5,8.75c0,0,1.08-7.58,12.92-10.92c11.83-3.33,18.25-9.58,18.92-13.5
			c0,0-10.17,0.33-15.33,7.92c0,0,2.42-7.92,13.83-10.92c11.42-3,13.96-10.83,12.46-17.71s-10.36-12.97-21.96-10.88
			c-5.08,0.92-10.42,1.75-12,10.83c-1.58,9.08-0.33,10.67,1.33,15.42s-0.83,10.75-0.83,10.75s1.42-8.08-2.75-13.42
			c0,0-6,4-9.42,9.75c0,0-0.67-4.52,6.55-9.85c2.7-1.99,1.36-4.57,1.86-11.57s2-8.17,2-8.17s-11.92,1.42-14.25,5.25
			s-1.33,5.83-1.33,9.25c0,3.42-2.17,6.83-5.75,8.33c0,0,3.5-2.83,3.58-7.83s-0.42-8.75,0.83-10.33c0,0-13.29,4.97-16.42,18
			c0,0-3.42-11.17,7-16.58c0,0-11.75,0.67-15.42-9.92c0,0,8.42,10.25,18,7.58s16.92-5.75,16.92-5.75s-9.47-4.91-13.25-10.58
			c-5.33-8-4.42-14.67-4.42-14.67s2.25,11.83,9.58,15.33c0,0,3.42-7.08-1.25-16c0,0,4.69,3.73,4.75,12.75
			c0.08,12.83,10.46,12.7,24.67,4.33c7.5-4.42,9.06-24.29,5.25-34.08c-3.5-9-15.49-15.86-22.57-8.7
			c-2.26,2.28,1.07,12.62-10.01,17.2c0,0,5.56-3.24,5.83-11.67c0.17-5.17,2.5-7.17,2.5-7.17s-3,0.67-5.58,2.58
			c-2.58,1.92-6.5,3.58-11.33,2.25c-4.83-1.33-14.1,2.29-19.83,6.92c0,0,2.27-5.77,10.83-8.33c3.33-1,2.75-6.67-3.92-13.92
			c0,0,6.87,0.86,8.08,10.92c0.33,2.75,8.33,5.58,15.5-0.75c7.17-6.33,17.17-3.25,17.17-3.25s-15.17-20-32.67-20.08
			c0,0,6.92-3.42,14.75,1.25c0,0-3.08-1.4-4.83-10.5c-1.04-5.41-3.89-10.11-4.65-11.3c-0.12-0.19-0.19-0.29-0.19-0.29
			s4.81,1.69,7.75,12.56s6.81,13.31,17.56,21.44c0,0-0.56-4-0.06-8.06s-1.5-13.06-13.13-16.06c0,0,4.75-0.44,8.56,2
			c0,0-8.63-9.13-4-19.25c0,0-2.27,9.71,3.98,16.13c6.25,6.42,6.5,10.83,6.5,10.83s4.33-4.75-0.33-11.5
			c-4.67-6.75-1.92-10.92-1.92-10.92s-1.17,5.83,2.83,9.42c4,3.58,4.25,7.92,1.83,13.75c-2.42,5.83-3.08,14.67,3.67,21.5
			C113.84,225.51,122.34,226.84,127.34,226.26z"/>
		<path class="st1" d="M402.34,277.12c-1.32,0.5-2.53-0.52-3.12-1.55c-0.61-1.05,0.37-2.03-0.66-2.91c-3.09-2.65-4.72-4.03-6.3-7.07
			c-1.48-2.86-2.24-5.91-3.43-8.88c-0.57-1.44-1.29-2.83-2.17-4.1c-1.32-1.91-3.04-3.38-4.92-4.72c-2.11-1.5-4.02-3.11-6.4-4.17
			c-1.63-0.72-3.2-1.72-4.98-2.03c-0.77-0.13-2.03-0.38-2.8-0.07c-0.52,0.22-0.26,0.67,0.22,1.13c9.83,2.51,18.28,8.01,21.64,18.73
			c2.67,8.5,8,11.31,8.56,11.93s-0.19,1.06,0.44,3s2.75,2.13,4.31,1.38c0.92-0.44,1.5-1.28,1.63-2.19
			C403.87,276.25,403.14,276.82,402.34,277.12z"/>
		<path class="st1" d="M418.79,256.62c-1.17-0.06-2.25-0.44-2.88-1.48c-0.41-0.68-0.55-1.55-0.38-2.32c-1.92-1.02-4.79-3-5.1-3.17
			c-1.81-0.96-3.69-1.65-5.61-2.27c-1-0.12-1.98-0.2-2.89-0.27c-3.57-0.27-7.09-0.69-10.63-1.25c-5.32-0.84-10.18-2.61-15.08-4.69
			c0.69,0.67,1.42,1.33,2.15,2.15c0.67,0.75,1.47,1.23,2.3,1.66c5.51,2.36,14.86,3.14,21.85,3.93c7.81,0.88,11.48,4.65,11.73,5.6
			c0.52,2.01,2.79,3,4.59,2.1C418.83,256.61,418.81,256.62,418.79,256.62z"/>
		<path class="st1" d="M444.56,216.32c-1.07,0.68-2.74,0.06-2.62-1.33c0.01-0.1,0.03-0.2,0.04-0.29c-0.6,0.14-1.19,0.34-1.7,0.42
			c-2.24,0.36-4.62,0.39-6.82,0.93c-2.84,0.7-5.55,1.9-8.42,2.43c-1.82,0.71-3.7,1.28-5.44,2.21c-0.12,0.06-0.23,0.08-0.33,0.08
			c-0.78,0.45-1.52,0.95-2.24,1.56c-0.1,0.09-0.21,0.13-0.32,0.15c-0.07,0.05-0.14,0.1-0.23,0.14c-0.04,0.02-0.08,0.02-0.12,0.04
			c-0.06,0.11-0.13,0.21-0.26,0.28c-1.3,0.74-2.38,1.46-3.39,2.57c-0.78,0.86-1.61,1.61-2.61,2.18c-2.11,2.32-4.26,4.29-7.46,5.61
			c-3.99,1.64-8.75,2.96-13.29,3.35c-4.12,1.2-9.39,1.1-13.48,1.11c-1.22,0-1.1,0.42-0.51,0.92c8.75,1.64,18.47-2.11,36.08-3.83
			c17.94-1.75,24.67,2.88,25.08,3.54c0.42,0.67-0.25,3.37,2.25,3.58c0.21,0.02,0.4,0.01,0.59,0c-1.09-0.36-1.91-1.28-1.41-2.74
			c-0.27-0.65-0.23-1.34,0.03-1.93c-3.16-2.23-10.54-3.74-12.27-4c-5.49-0.85-11.04-0.43-16.56-0.94c-0.67-0.06-0.66-0.63-0.35-1.06
			c-0.23,0.02-0.36,0.04-0.36,0.04s1.96-3.38,7.58-7.13c8.79-5.86,24.67-8.71,25.08-7.88c0.42,0.83,1.58,2.46,3.46,1.04
			c1.04-0.79,1.62-1.94,1.63-2.98C446,215.08,445.46,215.75,444.56,216.32z"/>
		<path class="st1" d="M421.78,201.72c-1.34-1.29-3.44-1.22-4.56-0.15c0.25-0.08,0.5-0.14,0.75-0.17c0.78-0.1,1.41,0.02,2.09,0.39
			c1.58,0.87,1.5,3.08,0.18,4.12c-0.05,0.1-0.1,0.18-0.16,0.27c0.01,0.21-0.01,0.52-0.06,0.94c0.05,0.6,0.03,1.21-0.06,1.81
			c-0.3,1.28-0.67,2.46-1.14,3.67c-0.25,2.89-1.22,6.13-3,8.48c-0.02,0.13-0.03,0.26-0.04,0.39c0.19-0.14,0.42-0.16,0.61-0.09
			c4.72-5.29,4.58-14.2,4.95-14.53C422.17,206.08,423.46,203.34,421.78,201.72z"/>
		<path class="st1" d="M434.51,196.11c-0.29,0.18-0.57,0.29-0.84,0.37c-1.09,0.63-2.5,0.74-2.88-0.12
			c-0.02-0.04-0.02-0.08-0.04-0.12c-0.06-0.14-1.15-0.32-1.33-0.36c-0.44-0.12-0.89-0.23-1.34-0.34c-0.9-0.21-1.8-0.39-2.72-0.51
			c-1.86-0.24-3.74-0.25-5.61-0.05c-1.85,0.2-3.69,0.57-5.46,1.17c-1.74,0.6-3.38,1.45-4.85,2.56c-1.59,1.2-2.97,2.64-4.32,4.1
			c-0.17,0.18-0.32,0.38-0.5,0.55c-0.36,0.33-2.03,1.6-2.25,0.51c-0.05-0.23-0.03-0.46,0.02-0.68c0.03-0.35,0.74-9.13,3.68-13.97
			c3-4.94,7.56-6,7.91-5.56c0.44,0.56,1.86,1.7,3.59,1.39c1.56-0.28,2.23-1.78,1.98-3.35c-0.05,0.13-0.09,0.26-0.15,0.39
			c-0.75,1.75-2.95,2.53-4.5,1.32c-2.5-1.95-8.7,2.69-9.79,4.69c-1.29,2.38-1.94,4.97-2.82,7.51c-1.63,6.49-2.87,13.07-9.34,16.6
			c-0.41,0.22-0.8,0.34-1.17,0.37c-1.43,0.33-2.85-0.72-2.92-2.09c-0.4-0.97-0.47-2.8-0.66-5.73c-0.29-4.42-0.83-7.11-0.25-7.42
			c2.71-1.43,2.96-5.33,0.29-6.33c-1.22-0.46-2.46-0.39-3.43,0.1c0.69,0.01,1.42,0.22,2.12,0.69c1.93,1.29,1.36,3.39-0.21,4.49
			c-0.17,0.36-0.43,0.71-0.69,1c0.01,0.09,0.01,0.19,0.01,0.33c0.01,0.06,0.02,0.12,0.03,0.18c0.03,0.09,0.07,0.17,0.09,0.27
			c0.66,2.92,0.96,5.88,0.96,8.85c0.37,3.13,0.56,6.63-0.64,9.23c-1.48,3.22-4.68,4.87-7.65,6.56c-0.3,0.17-0.59,0.27-0.87,0.35
			c-2.58,1.65-5.28,3.08-8.19,4.09c-3.26,1.13-6.71,2.9-10.11,3.64c-0.4,0.32-0.8,0.65-1.2,0.96c0.09,0.04,0.18,0.08,0.26,0.11
			c0.34-0.13,0.71-0.2,1.09-0.21c26.94-6.03,40.95-26.74,53.85-33.48c7.17-3.75,15.1-2.15,15.29-1.71s1.5,3,4,2.19
			c1.43-0.47,2.25-1.9,2.22-3.23C435.03,195.71,434.76,195.96,434.51,196.11z"/>
		<g>
			<path class="st1" d="M168.96,312.84c3.25-2.25,5.5-7.63,4.75-13.75s-3.88-13.88-7.38-18s-12.63-1.13-19.38,0.75
				s-11.75,5.5-14.13,10.88s-5.86,14.36-5.86,14.36l0,0c1.53-2.3,3.56-5.33,5.86-9.9c3.22-6.39,7.17-9.75,18.67-13.83
				c13.85-4.92,16.08,1.58,19.83,12.17c3.75,10.58-0.42,14.83-8.25,20.17c-1.87,1.28-3.24,2.76-4.24,4.27
				C162.3,316.22,166.9,314.28,168.96,312.84z"/>
			<path class="st1" d="M96.26,272.68c5.67-0.25,14.75-5,19.08-9.42c4.33-4.42,5.42-15.16,2.75-27.48
				c-2.67-12.31-11.75-15.69-17.92-16.77c-6.17-1.08-7.36,3.38-7.36,3.38l0,0c7.15-6.17,18.54,0.55,21.94,9.29
				c3.81,9.8,2.25,29.67-5.25,34.08c-12.19,7.18-21.54,8.29-24.02,0.37c0,0,0,0,0,0C86.63,272.08,90.59,272.93,96.26,272.68z"/>
			<path class="st1" d="M133.34,284.72c-0.38-4.25-1.88-12.13-14.75-13.5c-12.88-1.37-16.75,4.23-16.75,4.23v0.01
				c2.23-1.66,4.98-2.14,7.67-2.62c11.6-2.09,20.46,4,21.96,10.88c1.42,6.53-0.81,13.91-10.81,17.21l0,0.01
				C132.98,298.28,133.71,288.97,133.34,284.72z"/>
			<path class="st1" d="M149.59,205.22c-1.88,10,0.88,19.25,13.88,22.25s24.25-3,28-6.5s7.01-8.13,6.13-15.13
				c-0.66-5.19-2.69-10.11-6.91-12.15c1.56,1.38,3.81,3.94,4.83,7.81c2.15,8.17,2.33,20-20.75,24.08
				c-18.33,3.24-23.75-8.67-23.25-18.42s3.58-13.4,13.71-16.4c5.47-1.62,8.35-3.04,10.58-4.5c-0.06,0.01-5.75,1.32-12.46,3.44
				C156.59,191.84,151.46,195.22,149.59,205.22z"/>
			<path class="st1" d="M379.61,303.39c-1.58-0.27-2.53-1.95-1.75-3.56c-1.34-1.29-3.1-2.31-4.38-4.23
				c-0.88-1.33-1.88-3.03-2.53-4.79c-1.09-1.72-1.1-4.06-1.44-6.02c-0.03-0.16-0.02-0.32,0-0.47c-0.18-1.71-0.01-3.46,0.39-5.27
				c0.13-0.6,0.3-1.18,0.49-1.75c0.51-2.72,1.46-5.38,2.45-8.05c0.06-0.16,0.14-0.3,0.24-0.43c0.44-2.4,0.8-4.81,0.93-7.28
				c-0.23-2.16-0.65-4.29-1.25-6.35c-1.13-2.71-2.54-5.3-4.3-7.66c-2.88-3.85-6.62-7.22-10.9-9.43c-4.53-2.34-9.52-3.75-14.4-5.18
				c-3.32-0.98-6.67-1.83-9.96-2.92c-1.8-0.6-2.11-2.14-1.59-3.43c-9.19-1.85-18.83-2.01-28.42-0.11c0.71,1.6-0.5,4.09-2.88,4.09
				c-2.03,0-2.75-1.42-2.51-2.8c-7.19,2.03-14.29,5.25-21.1,9.85c-1.35,0.91-2.74,1.8-4.15,2.66c1.21,1.52,0,4.54-2.61,4.54
				c-1.42,0-2.2-0.7-2.46-1.59c-7.32,4.04-15.15,7.5-22.97,10.26c1.27,1.5,0.07,4.58-2.57,4.58c-2.07,0-2.78-1.48-2.49-2.89
				c-8.9,2.83-17.62,4.77-25.29,5.69c-0.45,0.05-0.89,0.09-1.33,0.12c0.37,2.8-1.88,4.36-8.63,4c-9.5-0.5-25.63-5-30.82,3
				c-5.19,8-2.02,16.59-2.02,16.6c-0.64-6.31,1.02-13.09,5.42-16.12c11.65-8.02,24.2,5.49,61.37-6.01
				c34.03-10.53,34.17-18.96,59.47-28c29.15-10.41,67.69,3.42,73.32,22.67c3.39,11.59-3.71,16.17-2.54,27.83
				c1.04,10.45,8.13,15.04,8.13,15.04c-0.53,1.46-0.33,3.96,2.13,4.08c0.38,0.02,0.73-0.02,1.05-0.11
				C379.69,303.78,379.65,303.59,379.61,303.39z"/>
			<path class="st1" d="M179.09,234.72c-4.88,10.63,6.5,21.88,15.88,24.88s17.38,1.42,17.38,1.42v0
				c-17.88,1.14-31.9-12.58-31.42-22.17c0.35-6.98,6.82-13.26,15.79-17.62v0C196.72,221.23,183.96,224.09,179.09,234.72z"/>
		</g>
		<path class="st1" d="M128.72,252.25c-0.63,14.03,13.12,18.87,26.21,16.5c13.97-2.53,23.83-24.98,0-31.53
			C138.96,232.82,128.98,246.26,128.72,252.25z"/>
		<path class="st2" d="M128.71,250.72c-0.59,13.18,12.32,17.73,24.63,15.5c13.13-2.38,22.38-23.47,0-29.63
			C138.34,232.47,128.96,245.09,128.71,250.72z"/>
		<path class="st3" d="M153.34,236.59c-2.5-0.69-4.83-0.9-7-0.77c0.97,0.07,1.98,0.24,3.03,0.53c15.78,4.34,9.25,19.21,0,20.89
			c-8.67,1.57-17.78-1.63-17.36-10.93c0.07-1.56,1.13-3.87,3.04-5.94c-3.96,3.3-6.21,7.64-6.33,10.35
			c-0.59,13.18,12.32,17.73,24.63,15.5C166.46,263.84,175.72,242.75,153.34,236.59z"/>
		<path class="st4" d="M213.5,255.93c-0.75,0.68,2.17,14.17,4.33,15.17s22.5-4.17,24.67-5.83c2.17-1.67-3-14.35-4.17-15.26
			C237.17,249.09,217.34,252.43,213.5,255.93z"/>
		<path class="st4" d="M242.46,248.72c-0.66,1.48,3.5,14.5,6.39,15.6c2.15,0.82,22.11-8.35,22.48-10.85s-2.5-13.38-5.75-14.75
			S244.65,243.8,242.46,248.72z"/>
		<path class="st4" d="M269.59,234.77c-0.57,1.65,3.25,14.81,5.75,15.28c2.5,0.47,23.38-10.03,24.63-11.47
			c1.25-1.44-2-13.19-4.38-14.31S270.71,231.52,269.59,234.77z"/>
		<path class="st4" d="M302.93,220.47c-2.37,1.71-0.72,15.69,1.78,16.6c2.5,0.9,24.75,0.9,26.88-0.72s1.63-12.75-0.75-14.5
			S305.18,218.84,302.93,220.47z"/>
		<path class="st5" d="M238.34,250c0,0,4.65,12.78-9.33,16.76c-13.98,3.98-15.5-10.83-15.5-10.83c-0.75,0.68,2.17,14.17,4.33,15.17
			s22.5-4.17,24.67-5.83C244.67,263.59,239.5,250.91,238.34,250z"/>
		<path class="st5" d="M265.59,238.72c0,0,5.63,12.5-6.5,18.24c-12.13,5.74-16.63-8.24-16.63-8.24c-0.66,1.48,3.5,14.5,6.39,15.6
			c2.15,0.82,22.11-8.35,22.48-10.85S268.84,240.09,265.59,238.72z"/>
		<path class="st5" d="M295.59,224.22c0,0,3.63,12.25-9.5,17.63s-16.5-7.13-16.5-7.13c-0.57,1.65,3.25,14.81,5.75,15.28
			c2.5,0.47,23.38-10.03,24.63-11.47C301.21,237.09,297.96,225.34,295.59,224.22z"/>
		<path class="st5" d="M317.84,234.59c-15.5-0.63-14.9-14.13-14.9-14.13c-2.37,1.71-0.72,15.69,1.78,16.6
			c2.5,0.9,24.75,0.9,26.88-0.72s1.63-12.75-0.75-14.5C330.84,221.84,333.34,235.22,317.84,234.59z"/>
		<path class="st5" d="M217.33,258.95c0.38,2.99,9.65,1.31,8.84-1.5C225.7,255.84,216.95,256.02,217.33,258.95z"/>
		<path class="st6" d="M217.34,257.43c0.36,2.99,8.92,1.31,8.17-1.5C225.07,254.32,216.99,254.49,217.34,257.43z"/>
		<path class="st5" d="M257.47,257.99c0.5,3,9.79-1.25,9.12-4.42C265.92,250.41,256.64,253.06,257.47,257.99z"/>
		<path class="st6" d="M256.88,256.59c0.5,3,9.79-1.25,9.12-4.42C265.34,249.01,256.06,251.66,256.88,256.59z"/>
		<path class="st5" d="M280.47,233.68c0.82,3.14,9.75-0.42,8.83-3C288.39,228.09,279.55,230.18,280.47,233.68z"/>
		<path class="st6" d="M279.84,232.59c0.82,3.14,9.75-0.42,8.83-3C287.76,227.01,278.92,229.09,279.84,232.59z"/>
		<path class="st5" d="M310.86,228.28c-0.24,3.66,13,3.33,13,0C323.86,224.95,311.19,223.2,310.86,228.28z"/>
		<path class="st6" d="M311.34,226.93c-0.24,3.66,13,3.33,13,0C324.34,223.59,311.67,221.84,311.34,226.93z"/>
	</g>
	<path class="st1" d="M393.67,300.3c-2.46,0.25-2.58-1.58-2.46-3.04c0.37-4.26-6.02-5.26-10.5-10.67s-6.54-14.04-6.54-14.04
		c0.81,6.56,3.21,15.25,9.93,18.83c5.4,2.88,6.28,5.92,6.28,5.92s-1.42,2.04,0.25,3.63c1.75,1.67,5.01,0.47,4.93-1.73
		C395.18,299.76,394.57,300.21,393.67,300.3z"/>
	<path class="st1" d="M397.8,290.05c-2-0.63-1.63-2.54-1.63-2.54c-0.58-1.33-3.06-3.23-7.02-3.23s-7.6-0.6-7.6-0.6
		s3.04,1.63,7.5,1.54c4.46-0.08,6.29,2.12,6.29,2.12c-0.49,1.36-0.31,4.63,2.69,4.75c2.16,0.09,3.38-1.67,3.16-3.44
		C400.62,289.86,399.2,290.49,397.8,290.05z"/>
	<g>
		<path class="st1" d="M124.84,227.47c17.38,0.38,25.13-20.32,24.5-31.55c-2,12.32-8.9,28.82-22,30.35c-5,0.58-13.5-0.75-20.25-7.58
			c-1.44-1.45-2.52-3-3.34-4.58h-0.02C103.73,214.09,107.46,227.09,124.84,227.47z"/>
	</g>
</g>
</svg>
